<?xml version="1.0" encoding="utf-8"?>
<!-- Generator: Adobe Illustrator 22.0.1, SVG Export Plug-In . SVG Version: 6.00 Build 0)  -->
<svg version="1.0" id="Ebene_1" xmlns="http://www.w3.org/2000/svg" xmlns:xlink="http://www.w3.org/1999/xlink" x="0px" y="0px"
	 viewBox="0 0 1547.9 1049.4" enable-background="new 0 0 1547.9 1049.4" xml:space="preserve">
<g>
	<path d="M1341.5,526.5c-2.1,0-3.7,0-5.2,0c-18.6-0.6-37.3-1.1-55.9-1.8c-3.4-0.1-6.9-0.8-10.3-1.5c-1.2-0.2-2.2-1.4-2.9-2.7
		c24.7,3.4,49.3,2.5,74.6,3.2c-1.2-6.4-2.1-12.1-3.5-17.7c-2-8.2-0.1-15.3,4.7-22.2c9.3-13.3,18.4-26.8,26.9-40.7
		c3.6-5.8,5.8-12.5,7.8-19.1c1.8-5.8,0.3-11.7-3.6-16.2c-5.7-6.8-11.6-13.7-18.4-19.3c-8.1-6.6-10.9-14.6-10.8-24.5
		c0.1-5.2,0-10.4-0.8-15.5c-1.3-9.2-6.8-15.5-15.1-19.3c-15.9-7.1-32.8-9-50-8.2c-10.8,0.5-21.6,2.1-31.4,7
		c-5.6,2.8-11.1,6.5-15.6,10.8c-5.3,5.2-4.9,11-0.3,16.7c2.1,2.7,0.6,3.8-1.7,4.6c-5.9,2.1-11.9,4-17.8,6.1
		c-2.1,0.7-4.1,1.7-6.5,1.9c2-4.7,6.6-5.1,10.4-6.5c3.9-1.5,8-2.8,12-4.1c-5-11.2-3.2-18.4,6.4-25.7c11.1-8.4,24-11.9,37.6-13.4
		c19.2-2.1,38-0.3,56.2,6.9c13.5,5.3,19.5,15.8,19.9,29.9c0.2,5.7-0.3,11.6,0.8,17.1c0.7,3.6,2.9,7.4,5.5,10.2
		c6.2,6.8,13.3,12.7,19.5,19.5c8.6,9.4,9.8,20.6,4.1,31.6c-6.5,12.5-14.1,24.4-21.5,36.5c-3.4,5.6-7.4,10.8-11.3,16
		c-4.2,5.6-5.7,11.5-4.1,18.4c1.3,5.6,2.1,11.3,3.4,16.8c0.2,1,2.1,2.1,3.3,2.2c8,0.4,16,0.5,24,0.7c1.3,0,2.5,0.7,3.7,1.8
		c-4.9,1.6-9.8,0.8-14.7,0.9c-5.1,0.1-10.1,0-16,0c1.5,16.7-8.4,28-20.4,38.8c16.7,4.1,33.3,3.6,49.2,6.8c0,0.6,0,1.2-0.1,1.8
		c-1.4,0.1-2.8,0.6-4.2,0.4c-14.9-1.8-29.9-3.6-44.8-5.4c-2.8-0.3-11.3,5.4-11.3,8c0,1.3,1.3,2.8,2.4,3.8c4.4,4.4,9.3,8.4,13.4,13.1
		c4.7,5.4,9.2,11.1,13,17.1c7.5,11.9,7.4,24.3,0.1,36.3c-8.9,14.6-20.9,25.5-38,29.7c-0.8,0.2-1.5,0.5-2.3,0.8
		c-0.2,0.1-0.4,0.3-0.7,0.6c1.9,12.8-2.9,23.6-11.2,32.8c-12,13.2-25.9,23.9-43.9,27.6c-4.2,0.9-8.8,0.5-13.1-0.1
		c-5.4-0.7-9.5-3.7-12.4-8.5c-3.3-5.5-4.6-5.7-10.9-4.2c-11.8,2.8-23.5,6.1-35.4,8c-10.3,1.7-20.8,1.6-30.8-2
		c-4.1-1.5-8.9-2.9-9.7-7.9c-0.8-4.6,3.4-7,6.4-9.4c7.9-6,16-11.6,23.9-17.4c2.2-1.6,4.2-3.6,7-5.9c-2.1-0.8-3.4-1.4-4.7-1.8
		c-9.4-3.3-17.9-7.7-22.4-17.4c-0.4-1-2.3-1.6-3.6-1.8c-20.3-3.2-40.6-6.1-60.8-9.3c-31.2-4.9-62.4-9.9-93.5-14.8
		c-26.7-4.2-53.5-8-80.1-12.5c-21.1-3.6-42.3-7.5-62.4-15.3c-6.9-2.7-13.5-6.3-20.2-9.6c-0.7-0.4-1-1.8-1.4-2.8c1,0,2.1-0.3,2.9,0.2
		c18.6,10.9,39.1,16.3,60,20.1c32.1,5.8,64.4,10.8,96.6,16c31,5,62.1,10,93.1,14.9c22.1,3.5,44.3,6.7,66.4,9.9
		c1.5,0.2,3.3-0.9,4.7-1.7c3.6-2,6.9-4.6,10.7-6.2c12.4-5.3,25-10,37.3-15.4c9.2-4.1,18.4-8.5,27.1-13.7c8.6-5.1,8.1-6.1-0.1-11.4
		c-5.3-3.4-10.4-7.4-14.9-11.8c-4.3-4.2-5.4-9.9-3.4-15.6c2.2-6.1,4.9-12.1,7.3-18.1c3.9-10,8.2-20,11.4-30.2
		c2.2-7-0.1-11.5-6.7-14.9c-9.2-4.8-18.8-8.9-28.1-13.5c-6.2-3.1-12.3-6.3-18.4-9.7c-10.9-6-15.6-15.6-15.9-27.7
		c0-1.6-0.1-3.2-0.2-4.8c0-0.1-0.1-0.3-0.2-0.6c-31.3,0-62.7,0-94.4,0c-0.1,1.5-0.3,2.5-0.3,3.5c0,2.3,0.1,4.5-0.1,6.8
		c-0.3,3-0.1,6.6-3.7,7.7c-3.8,1.2-5.5-1.9-7.2-4.4c-2.4-3.5-4.6-7.2-7-10.7c-0.7-1-2.1-2.3-3.2-2.4c-7.6-0.2-15.2-0.1-23.3-0.1
		c1.4,10.9-8,14.7-12.2,21.6c-1.6,2.5-3.9,1.7-5.6-0.5c-4.4-5.9-8.7-11.8-13.3-17.5c-1.1-1.4-3.4-2.6-5.1-2.7
		c-7.2-0.3-14.4-0.1-22.4-0.1c3.5,12.6,6.8,24.7,10.3,37.2c2.6-2.1,4.8-3.9,7.2-5.5c0.8-0.5,2-0.3,3.1-0.3c-0.4,0.9-0.5,2-1.1,2.6
		c-2.1,2-4.6,3.7-6.7,5.7c-2.8,2.8-2.7,5.3-0.2,8.4c1.2,1.4,1.8,3.2,2.7,4.8c-1.7-0.9-3.3-1.8-5-2.7c-0.4-0.3-0.8-0.7-1-0.9
		c-4.9,2.2-9.5,4.3-14.3,6.3c-1.5,0.6-3.1,0.9-4.6,1.3c-6.3,1.3-9-1-10-7.4c-2.5-15.2-5.3-30.4-7.9-45.6c-0.6-3.3-2-4.4-5.3-4.2
		c-4.6,0.3-9.3,0.1-14.3,0.1c0.3,3.7,0.9,7.4,1,11.2c0.2,9.7,0.9,19.5,0.2,29.1c-0.6,8.7-4.3,16.7-11.4,23.5c8,1.1,15.2,2,22.4,3.2
		c26,4.1,52,8.9,78.1,12.4c27.7,3.7,55.5,6.7,83.4,9.2c29.5,2.6,58.9,0.3,88.1-3.4c1.6-0.2,3.2-0.4,4.8-0.3c0.8,0.1,1.6,0.9,2.4,1.4
		c-0.8,0.6-1.5,1.5-2.3,1.6c-5.5,0.7-11.1,1.1-16.7,1.8c-41.6,5.1-83.1,3.4-124.4-2.4c-32.1-4.5-64-9.9-96-14.8
		c-14.1-2.2-28.2-4-42.4-5.8c-1.8-0.2-3.7,0.3-5.4,0.9c-5.3,1.6-10.7,1.7-15.6-0.8c-4.9-2.6-9.9-3.6-15.3-4
		c-7.3-0.5-14.5-1.2-21.9-1.8c0.4,6.1,1.1,11.8,1,17.4c-0.5,21-15.8,35.8-35.5,34.4c-9.7-0.7-18.3-4.6-26-10.3
		c-10.3-7.7-17.6-17.8-23-29.3c-5.6-11.8-10.6-23.9-15.8-35.8c-0.5-1.2-1-2.4-1.7-4.2c-6.1,3.8-13.8,4.1-18.3,10.9
		c-1.8,0.3-4.5,0.6-7.2,1c0.1,0.3,0.1,0.6,0.2,0.9c6.5,3.4,13.2,6.7,19.6,10.4c16,9,23,23.7,24.6,41.1c1.4,15.2-1,29.7-9.1,43.1
		c-1.1,1.8-0.6,5.1,0,7.5c9.2,34.1,20.2,67.7,33.6,100.4c11.2,27.4,22.3,54.8,33.2,82.3c6.4,16,10.9,32.6,13.7,49.6
		c5.7-1,11.3-2.4,16.9-2.9c4.5-0.4,9,0.2,13.5,0.2c1.1,0,2.5,0,3.2-0.7c12.9-12.7,28-12.4,43.1-6.2c28,11.5,39.8,44.2,26.9,72
		c-4.2,9-9.9,16.7-17.5,23.1c-5.1,4.3-10.8,6-17.4,4.9c-5.8-1-5.8-0.7-7.9,5.1c-7.3,20.2-17.5,38.6-34.6,52.3
		c-16.4,13.2-38.4,13.4-53,0.7c-1.6-1.4-2.7-3.3-4.7-5.8c-4.5,18.9-11.8,34.5-30.2,40.8c-17.5,5.9-33.9,2.8-47.8-8.4
		c-5.2,4.1-10,8.8-15.7,12c-16.9,9.5-38,6.5-53-6c-15.6-13-18.7-29.9-16.9-48.7c0.3-3.4,0.5-6.8,0.8-10.8c-2.3,0.6-4,0.8-5.6,1.4
		c-11.2,4.1-22.4,7.9-34.3,9.1c-1.3,0.1-3,1.6-3.5,2.9c-1.9,4.7-3.4,9.5-5.1,14.3c-0.4,1.1-1.5,1.8-2.3,2.8
		c-0.2-1.2-0.9-2.4-0.6-3.4c1.6-5.3,3.5-10.6,5.4-16.2c-12.1-1.5-22.6-5.4-26.7-19c-0.7,1.4-1.3,2.2-1.6,3.1
		c-5.3,13.4-10.6,26.8-16,40.1c-0.4,1.1-1.8,1.8-2.7,2.7c-0.1-1.2-0.5-2.5-0.1-3.6c3.5-9.1,7.3-18,10.8-27.1
		c5.9-15.4,11.6-30.9,17.5-46.3c1-2.5,2.8-4.7,4.8-7.9c-2,0.5-3.2,0.8-4.3,1.1c-3.7,0.9-7.4,2.2-11.2,2.7
		c-14.4,1.9-24.5-4.8-29-18.7c-3.4-10.6-2-21.1-0.2-31.6c0.4-2.4,0.9-4.7,1.6-7c4.6-15.8,15.2-22.5,31.5-19.6
		c2.1,0.4,5.4-0.8,6.2,2.8c-2.2,0.1-4.5,0.2-6.7,0.2c-3.8,0-7.7-0.5-11.5,0.2c-6.4,1-11.4,4.6-14,10.8c-5.2,12.7-7.7,26-4.8,39.5
		c4.1,19.1,16.5,23.9,33.9,19.1c2.3-0.6,4.5-1.8,6.8-2.2c1.4-0.3,3.6,0,4.3,0.9c0.7,0.9,0.2,3-0.3,4.4c-3.2,7.6-6.6,15.1-9.8,22.7
		c-7.2,17.2,4.5,27.3,18.8,29.4c3,0.4,4.6-0.5,5.6-3.5c4.5-12.8,9.2-25.6,13.9-38.3c0.6-1.6,1.7-3,3.1-4.3c1.4,4.4-1.5,7.7-2.5,11.4
		c-1,3.9-2.4,7.6-3.7,11.4c-1.3,3.9-2.7,7.8-4.2,11.7c-1.4,3.7-2.9,7.4-4.7,12.1c5.9-1.1,11-1.8,15.9-3.2c6-1.6,12-3.7,17.8-5.8
		c9.9-3.5,11.2-2.2,10.4,8.4c-0.6,8.3-0.7,16.8,0.2,25.1c2.1,18.1,21.9,33.4,37,35.3c15.7,1.9,29-2.3,39.5-14.3
		c1.7-2,2.3-3.9,1.2-6.5c-0.6-1.4-0.1-3.4,0.4-5.1c0.1-0.3,2.8-0.6,3.2-0.1c1,1.4,2.1,3.4,1.8,4.8c-0.6,2.8,0.7,4.3,2.4,5.9
		c6.3,5.7,14.2,7.8,22.3,8.9c27.2,3.6,43.5-14.5,48-37.9c0.6-2.9-0.4-6.2-0.7-9.3c-0.1-0.8-0.8-1.7-0.6-2.3c0.6-1.5,1.5-3,2.2-4.4
		c1.1,1.2,3.3,2.6,3.2,3.7c-0.9,10.2,6.4,14.6,13.6,18.2c13.6,6.9,27,5,39.3-3.4c10.3-7,18.3-16.5,24.3-27.3
		c4.8-8.6,8.6-17.7,12.3-26.8c2.4-5.8,3.7-7.1,9.8-6c6.8,1.2,12.4-0.6,17.6-5.2c19.2-17.4,25.1-42,15.3-64.6
		c-8.5-19.4-30.8-30.9-51.4-26.4c-5.2,1.1-9.7,3.4-13.2,7.9c3,3.4,9,5.7,5.8,11.6c-2,3.6-5.7,2.1-8.7,1c-3.6-1.3-4.1-3.6-3-10.2
		c-7.4-3.5-27.2-0.2-30.4,4.3c-2.8,0.6-5.1,0.5-6.8,1.5c-8.3,5-16.7,10-24.6,15.6c-5.1,3.6-6.6,9.1-5.6,15.3c1,6.9,0,8.3-7.1,7.4
		c-15.1-2-30-1.4-44.7,2.9c-3.2,0.9-4.5,2.2-4.2,5.8c0.6,6.8,0.7,13.6,0.9,20.4c0,1.2-0.3,2.4-0.4,3.6c-0.5,0.1-1,0.1-1.5,0.2
		c-0.4-1.7-1.2-3.4-1.3-5.1c-0.1-7.2-0.1-14.4-0.1-22c-1.9,0.4-2.7,0.4-3.4,0.7c-8,4.7-16,9.4-23.9,14.4c-1.6,1-3,2.7-4.1,4.3
		c-2.5,3.6-4.4,7.3-2.4,11.9c0.3,0.8-0.4,2-0.7,3.1c-0.9-0.5-2.4-0.9-2.7-1.7c-2.7-8.3-9.4-13.1-15.7-18.1c-5.1-4-10.6-7.6-16-11.3
		c-17.2-11.9-36.2-14.3-56.2-10.1c-5.3,1.1-10.2,3.8-15.2,6c-0.9,0.4-1.3,1.9-2.1,2.7c-0.5,0.5-1.2,0.7-1.8,1.1
		c-0.3-0.7-1.1-1.6-0.8-2c0.9-1.6,1.8-3.8,3.3-4.6c24.6-12.2,48.9-11.4,72.4,2.9c11.5,7,22.7,14.5,31.5,25.1
		c6.9-14.4,20-20.5,33.1-26.4c2.7-1.2,3.7-2.4,3.5-5.5c-3.9-69.9-17-138.5-31.1-206.9c-1.9-9.4-4-18.7-6.1-28.5
		c-1.2,0.6-2.2,0.9-3,1.5c-14.1,8.4-28.2,16.8-44.3,20.9c-0.9,0.2-1.9,2.1-2,3.3c-0.4,10.9-0.8,21.9-0.7,32.8
		c0.1,26.1,0.6,52.3,0.6,78.4c0,20.2-3.4,40.1-8.5,59.6c-0.7,2.6-1.1,5.2-1.9,7.8c-0.2,0.8-1.2,1.4-1.9,2c-0.3-0.9-1.1-1.9-0.9-2.7
		c1.3-6.1,2.8-12.2,4.2-18.3c6.6-28.6,6.6-57.6,6.2-86.7c-0.3-24.7-0.1-49.3-0.2-74c0-0.4-0.2-0.7-0.3-1.3
		c-8.7-0.1-17.6,1.5-25.8-2.5c-0.6-0.3-0.9-1.1-1.8-2.5c1.7,0,2.7-0.2,3.5,0c11.7,3.8,23.5,3,35-0.7c14-4.5,26.7-12,39.1-19.9
		c8.5-5.4,17.4-10.3,25.2-16.7c8.4-7,16.5-14.8,23.3-23.4c12.7-16.2,17-35.1,12.6-55.3c-2.8-12.8-8.9-23.9-20.9-30.8
		c-9.3-5.4-18.4-10.7-29.4-11.7c-11.5-1-22.2,1.7-32.8,5.7c-9.5,3.5-18.8,7.4-28.3,11c-1.3,0.5-2.9,0.1-4.4,0.1
		c0.5-1.5,0.7-3.3,1.7-4.4c4.4-5,9.2-9.7,13.6-14.6c9.6-10.6,16.3-22.6,17.9-37.2c1.6-14.1-3-18.7-16.8-15.8
		c-24.7,5.3-46.7,16.8-67.2,30.7c-11.7,7.9-22.2,17.7-32.9,27c-2.6,2.3-3.9,6.1-5.8,9.2c-0.4,0.6-1,1-1.6,1.4
		c-0.4-0.6-1.3-1.3-1.3-1.8c0.3-1.8,0.7-3.7,1.5-5.3c1-1.8,2.5-3.4,4.2-5.8c-1.9,0.5-3.2,0.8-4.3,1.2c-21.9,8-43.8,16-65.7,23.9
		c-0.9,0.3-2.1-0.1-3.2-0.1c0.6-0.9,1-2.2,1.8-2.6c8.2-3.4,16.5-6.9,24.9-9.9c15.7-5.6,31.5-10.8,47.2-16.5c3.4-1.2,6.6-3.4,9.5-5.6
		c4.9-3.7,9.5-7.8,14.3-11.8c-0.3-0.5-0.6-1-0.9-1.3c-35.2-33.2-65.9-70.4-94.5-109.4c-10-13.6-20.5-26.9-30.9-40.2
		c-2.4-3-5.4-5.6-8.1-8.4c0.3-0.4,0.6-0.9,0.8-1.3c1.4,0.7,3.2,1.1,4.2,2.1c4.3,4.5,8.7,9,12.5,14c16.7,21.8,32.8,44.1,49.7,65.7
		c20.6,26.2,42.8,51.1,67,74.1c2.3,2.2,3.8,2.5,6.7,0.6c20.3-13.7,41.7-25.3,65.5-31.7c5.1-1.4,10.5-1.9,15.8-2.2
		c5.1-0.3,8.4,2.3,9.6,7.3c2.5,10,0.7,19.6-2.9,28.9c-3.5,8.8-8.8,16.4-15.2,23.3c-3.4,3.6-6.7,7.2-9.8,11.3c1-0.3,2-0.6,3-1
		c12.2-4.2,24.3-8.8,36.7-12.4c5.6-1.6,11.9-1.8,17.8-1.4c5.5,0.4,9.4-1.7,13.9-4.8c-10-14.1-20.1-28-29.8-42.2
		c-9.6-14.2-19.2-28.6-28-43.3c-9-14.8-17.5-29.9-25.4-45.3c-7.8-15.3-15-31-21.8-46.7c-6.7-15.6-14.4-30.8-20.8-46.5
		c0.7-0.4,1.4-0.7,2.2-1.1c0.8,1.3,1.7,2.5,2.3,3.9c12.2,26.9,23.8,54.2,36.7,80.8c21.4,44.2,48.1,85.1,77.2,124.6
		c3,4.1,5.7,8.4,8.8,12.4c0.6,0.8,2.5,1.6,3.4,1.2c5.5-2.3,10.9-5,16.3-7.5c-1.8-8.7-3.5-17.2-5.3-25.8c-0.3,0-0.7,0-1-0.1
		c0,4.4-0.1,8.8,0,13.1c0.1,4.5,0.6,8.9,0.8,13.3c-0.4,0.2-0.8,0.4-1.3,0.5c-0.6-1.1-1.7-2.2-1.8-3.4c-0.4-6-1.2-12-0.7-17.9
		c2.5-25.7,4.8-51.5,8.2-77.1c7.4-56.6,19.1-112.4,31.7-168c9.5-41.8,23.5-82.2,40.3-121.7c2.1-5,4.1-10.1,6.3-15.3
		c-6.6-1.7-15.6-0.6-14-12.5c-2.6,1.4-4.8,2.6-7.1,3.8c-14.1,7-28.8,10.4-44.5,6.4c-3.6-0.9-7.1-2.4-10.2-4.3
		c-8.3-4.9-11.6-12.7-9.6-22.1c3.2-15.2,12-27,24.9-34.9c20.9-12.8,44-19.5,68.7-19.5c10.8,0,21.1,3,30.9,7.4
		c0.9,0.4,1.4,1.6,2.1,2.5c-1,0.1-2.3,0.7-3.1,0.4c-32.6-14.5-62.9-4.8-92.6,9.3c-10.2,4.8-17.7,12.9-22.9,22.8
		c-2.6,4.9-4.2,10.6-5.1,16.2c-1,6.1,1.8,11.1,7.1,14.6c11,7.2,23.1,7.5,35.4,4.9c10.7-2.2,20.4-6.9,29.1-13.6
		c0.9-0.7,2.3-0.6,3.5-0.9c-0.2,1.1,0,2.3-0.5,3.2c-1.6,3-4.8,6-2.6,9.4c2.4,3.7,6.9,3.9,10.9,3.5c12.1-1.2,23.8-3.8,35.3-8.1
		c12.3-4.7,24.7-9.2,37.3-13.2c7.9-2.5,11.4,0.5,11.6,8.9c0.1,4.9-0.1,9.9,0.1,14.8c0.3,6.1,2.8,8.7,8.8,8c7.4-0.9,14.6-2.7,22-4.1
		c1.4-0.2,2.8,0,4.2,0c0.1,0.4,0.2,0.8,0.3,1.3c-0.8,0.5-1.6,1.3-2.4,1.5c-7.6,1.6-15.1,3.4-22.7,4.5c-8.4,1.2-13-2.8-13.3-11.3
		c-0.2-4.9,0-9.9-0.1-14.8c-0.1-6-1.9-7.6-7.7-5.8c-10.5,3.4-21,6.8-31.3,10.9c-10.8,4.3-21.8,8.1-33.3,9.5
		c-5.4,0.7-6.9,4.4-8.5,8.4c-8,20.3-16.3,40.6-23.7,61.1c-14.6,40.2-23.8,81.9-32,123.7c-5.8,29.5-11.3,59.1-16.4,88.8
		c-3.3,19.5-5.7,39.2-8.6,59.7c2.6-4.6,4.3-8.7,7-12.1c8.6-11.1,19.5-16.8,33.8-13c2.9,0.8,3.9-0.8,5-2.6
		c12.4-19.9,24.9-39.8,37-59.9c22.4-37.1,43.7-74.9,69.1-110c7.1-9.8,15.1-19,22.8-28.3c1-1.2,2.7-1.7,4.7-2.8c0,1.6,0.2,2.1,0,2.3
		c-30,33-52.3,71.3-75.2,109.1c-15.2,25.1-30.1,50.3-45.3,75.4c-3.8,6.2-8,12.2-12.1,18.5c3.2,1.9,6.4,3.3,9.1,5.4
		c11.1,8.5,19.9,18.5,24.2,32.4c6.6,21.4,14.6,42.3,20.8,63.8c2.5,8.6,5.4,13.4,15.1,12.5c4.8-0.5,9.7,0.7,14.9,1.1
		c-0.3-0.8-0.4-1.3-0.6-1.5c-17.3-17.3-25.7-39.3-31.6-62.4c-2.9-11.2-4.6-22.7-6.3-34.2c-1.4-9.1,0.4-18,2.9-26.8
		c2.3-7.8,8.6-10.2,15.1-12c15.5-4.1,35,2.9,43.8,16.4c10.6,16.3,18.9,33.7,21.1,53.4c0.3,2.3,1,3.4,3.4,3.4c4.9-0.1,9.8,0,15.6,0
		c-8.2-31.5-16.2-62.8-24.3-94.1c0.3-0.2,0.6-0.4,1-0.6c0.8,1.3,2,2.4,2.4,3.8c3,10.2,6,20.4,8.6,30.8c7.1,28,14.2,56.1,20.8,84.2
		c2.1,8.8,2.8,17.9,3.9,26.9c0.8,7,2.3,8.2,9,6.1c3.3-1,6.5-2.3,9.6-3.8c5.4-2.7,6.8-5,5.3-10.9c-3.4-13.6-7.6-26.9-11-40.5
		c-3.2-12.8-6-25.7-8.6-38.6c-0.4-1.8,0.6-4.9,1.9-5.7c1.6-1,5.1-1,6.5,0.1c4.2,3.4,8.3,7.2,11.4,11.5c5.8,8.1,10.7,16.9,16.3,25.2
		c6.4,9.5,13,18.8,19.8,28.5c3.9-4.4,7.9-8,10.8-12.3c1.4-2.1,1.4-5.7,1-8.4c-1.9-11.6-7.2-21.9-13.8-31.6c-3.6-5.2-6.6-11-8.9-16.9
		c-4-10.5,0.1-16.5,11.2-17.9c9.8-1.2,16.1,2.1,20.1,11.3c3,6.8,5.4,13.9,8.2,20.8c6.2,15.3,12.1,30.7,21.4,44.5
		c1.3,1.9,2.8,3.7,4.2,5.5c0.4-0.1,0.8-0.2,1.2-0.2c0.4-1.6,1-3.1,1.1-4.7c0.5-12.7-1.7-24.9-5.2-37c-4.6-16.2-11.3-31.6-18.4-46.8
		c-5-10.7-8.9-22-13.1-33c-3.5-9.3-7.8-17.7-16.3-23.6c-7.5-5.2-15.6-7.2-24.6-5.9c-4.7,0.7-9.5,1.2-14.3,1.1
		c-3.6-0.1-5.4,1.4-5.5,4.7c-0.3,8.5-0.9,17-0.5,25.5c0.4,10,1.7,19.9,2.5,29.9c0.1,1.3-0.6,3.4-1.4,3.7c-1.3,0.4-3.4,0.1-4.3-0.8
		c-2.2-2.1-4.1-4.6-5.8-7.1c-6-8.7-11.9-17.4-17.8-26.1c-0.7-1-1.4-2-2.1-2.9c-6.1-7.7-13.1-7.2-18.4,1.2c-1.6,2.5-3.4,4.9-5.1,7.3
		c-0.4-0.1-0.7-0.2-1.1-0.4c-0.2-0.8-0.8-1.9-0.5-2.3c3.4-4.3,6.5-9.2,10.7-12.6c5-4,10.5-3,14.4,2.1c6.8,8.9,13,18.2,19.4,27.4
		c2.6,3.6,5.1,7.2,7.7,10.9c0.3-0.2,0.6-0.3,0.9-0.5c-0.6-7.4-1.5-14.7-1.8-22.1c-0.4-10.2-0.4-20.5-0.5-30.7c0-1.6,0.6-3.1,0.9-4.7
		c0.7-3.7,2.7-5.3,6.6-5.5c5.8-0.2,11.7-0.8,17.5-1.4c17.9-2.1,32.2,10.1,37.5,20.9c2.4,5,4.3,10.3,6.5,15.5
		c4.4,10.7,8.9,21.4,13.1,32.2c5.7,14.4,11.2,28.8,16.6,43.2c1,2.8,2.1,3.5,5.1,3.3c21.5-1.8,43-3.4,64.6-5c1.2-0.1,2.4,0.8,3.7,1.3
		c-1.1,0.6-2.2,1.7-3.4,1.8c-21.6,1.7-43.3,3.3-65,4.9c-0.8,0.1-1.5,0.3-2.7,0.5c0.9,5.8,1.9,11.6,2.8,17.5c1.4,0.1,2.5,0.2,3.7,0.2
		c29.2-0.2,58.4-0.5,87.6-0.6c3.4,0,4.5-1,5-4.3c3-19,13.8-32.9,29.4-43.3c5.2-3.4,11.2-5.5,16.9-8.1c0.9-0.4,2.1-0.4,3.2-0.5
		c0.2,0.4,0.4,0.9,0.6,1.3c-1.3,0.9-2.4,1.8-3.8,2.5c-7.3,4.1-15.5,7-21.8,12.3c-11.1,9.3-19.3,21-21.6,35.9
		c-0.1,0.8-0.2,1.6-0.3,2.4c0,0.4,0.1,0.8,0.2,1.2c4.7,0,9.3,0.1,13.9,0c1.8,0,3.7-0.7,5.5-0.7c0.9,0,1.9,0.9,2.8,1.4
		c-0.8,0.5-1.5,1.4-2.4,1.5c-5.1,0.6-10.3,1.1-15.5,1.5c-1.4,0.1-2.9,0-4.2,0c-2.9,10,1.4,23.4,10.2,28.6
		c11.6,6.8,23.8,12.4,35.8,18.6c4.9,2.5,9.9,4.6,14.6,7.3c7,4,9.9,9.4,7.7,17.1c-3.2,10.8-7.6,21.2-11.7,31.8
		c-1.9,4.8-4.5,9.4-6.2,14.3c-3.2,9.1-1.5,14.8,6.2,20.8c4.3,3.3,9.1,6,13.7,9c5.5,3.5,6.3,6.8,0.9,10.4c-8.4,5.7-17.3,11-26.5,15.3
		c-13.3,6.1-27.1,11.1-40.7,16.7c-4.1,1.7-8,4-11.9,6c0.1,0.5,0.2,1,0.3,1.4c10.5,1.3,21,2.5,31.5,3.8c0,0.5-0.1,1.1-0.1,1.6
		c-5.1,2.1-10.3,0-15.5-0.3c-5.4-0.2-10.8-1.3-16.1-2c-0.3,0.4-0.6,0.7-0.9,1.1c3,2.9,5.6,6.3,9,8.5c4,2.6,8.6,4.2,13,5.9
		c5.2,2,6.2,4.7,2,8.3c-4.9,4.2-10.4,7.8-15.6,11.8c-5.5,4.2-11.1,8.3-16.4,12.8c-3.4,2.9-3.1,4.9,0.9,7c8.2,4.4,17.3,5.2,26.4,4.7
		c12-0.6,23.8-2.9,35.3-6.6c3.4-1.1,6.9-2.1,10.4-2.8c4-0.9,7.7,0.2,9.7,3.9c5.7,10.7,15.4,11.9,25.2,9.1
		c20.5-5.7,36.8-17.8,47.6-36.5c3.5-6,5-12.6,3.4-19.6c-0.9-3.7,1.8-4.4,4.3-4.9c10.6-2.1,19.5-7.5,26.7-15.3
		c4.8-5.2,9.1-11.1,12.6-17.3c4.7-8.5,4.1-17.4-0.3-26.1c-6.3-12.4-16-21.9-26-31.1c-0.7-0.6-1.4-1.2-2.1-1.8
		c-4.3-4-4.4-6.2-0.3-10.2c1.3-1.3,2.9-2.4,5.1-4.2c-9-2.2-17.3-2.4-24.2-6.6c0.1-0.5,0.2-1.1,0.3-1.6c1.4,0.1,2.9,0.2,4.2,0.5
		c6.2,1.3,12.4,2.9,18.7,4c1.7,0.3,4.3-0.5,5.6-1.8c4.6-4.6,9.2-9.3,13.2-14.5C1340.7,542.6,1342.1,535,1341.5,526.5z M784.9,896.2
		c0-1.6,0.1-2.3,0-2.9c-1.6-10.2,2.5-17.7,11-22.9c7.7-4.7,15.6-9.2,23.5-13.6c1.8-1,2.7-1.9,2.3-4c-1.2-5.9-2.2-11.8-3.7-17.6
		c-5.6-22.9-14.9-44.4-23.9-66.1c-20-48.1-39.6-96.4-52.7-147c-0.1-0.5-0.6-1-1.1-1.9c-11.5,16.1-26.5,27.5-42.9,37.2
		c-2.9,1.7-3.3,3.4-2.7,6.4c6.3,30.8,12.8,61.6,18.5,92.4c8,42.8,14.7,85.9,17.4,129.4c0.3,4.6,0.7,9.2,1,14.3
		C749.2,893.9,766.8,894,784.9,896.2z M802,445c-7.2-12.7-19.6-22.4-32.5-25.8c-9.9-2.6-21.9,1.8-28.6,10.9
		c-9.3,12.5-10.6,27-9.8,41.9c1,18.6,6.8,36,14.5,52.7c5.6,12,11.5,24.1,18.6,35.2c7.6,11.9,19,19.6,33.2,22.7
		c13.1,2.8,25.3-2.8,31.9-14.4c5.9-10.5,6-21.8,2.9-32.7c-6.5-23.2-14.1-46-21.2-68.8c-1.3,0.3-2.4,0.6-3.4,0.8c-0.1-1-0.5-2-0.4-3
		c0.7-4.7,0.3-9.2-3.4-12.6c-2.7-2.5-5.9-4.3-8.9-6.5c-0.8-0.6-1.2-1.5-1.8-2.2c1-0.2,2.1-0.8,3.1-0.5
		C797.8,443.1,799.5,444,802,445z M835.2,400.8c-2.2,2.8-4.6,5-5.7,7.6c-3.2,7.3-4.3,15.1-3.7,23.1c1.8,24.3,7.7,47.5,17.8,69.7
		c4.7,10.3,10.8,19.5,18.7,27.7c3.7,3.9,7.9,5.9,13.3,6.1c4,0.1,8,0.5,11.9,1.2c3.4,0.6,6-0.4,8.3-2.8c5.4-5.4,8.7-12.2,9-19.6
		c0.5-11.5-0.3-23.1-0.6-34.6c-0.6-21.2-8.1-40.2-18.1-58.6c-6.9-12.7-17.8-19-31.3-21.9c-2.1-0.5-4.4-0.1-6.7-0.1
		c0.7,1,1.4,1.3,2.1,1.6c4.1,1.6,8.2,3.1,12.2,4.9c0.7,0.3,1,1.5,1.5,2.3c-0.8,0.2-1.8,0.6-2.5,0.4c-1.8-0.5-3.4-1.5-5.2-2.1
		c-5.1-1.7-10.2-3.3-15.3-4.9c-0.6,2.2-1,3.3-1.6,5.5C837.8,404.5,837,403.3,835.2,400.8z M1027.2,450.6c-1.9-5.2-3.5-10-5.4-14.7
		c-2.9-7.1-5.5-14.5-9.1-21.2c-3.8-6.9-15.6-8.7-21.8-3.8c-1.4,1.1-2.6,3.5-2.4,5c0.7,4.3,1.5,8.7,3.5,12.5
		c4.1,7.7,9,15.1,13.7,22.5c0.6,0.9,2.4,1.5,3.6,1.4C1015.1,452,1020.9,451.3,1027.2,450.6z M968.7,460c-0.8-2.9-0.9-4.9-1.8-6.5
		c-2.5-4.4-5.1-8.8-8.2-12.7c-3-3.8-6.6-7.2-10.2-10.5c-0.7-0.6-2.5-0.9-3.2-0.4c-0.7,0.4-1.1,2.1-0.9,3.1
		c2.5,11.7,5.1,23.4,7.8,35.1c0.2,1,1.6,2.5,2.4,2.6c7.4,0.2,14.8,0.1,23.2,0.1C974.3,466.1,973.7,460.4,968.7,460z M1036.5,470.2
		c-2.6-5.7-4.8-10.4-7.1-15c-0.3-0.7-1.5-1.4-2.1-1.3c-6.3,0.6-12.7,1.4-19.3,2.1c1.4,4.6,2.6,8.8,3.9,12.9c0.2,0.6,1.4,1.3,2.1,1.3
		C1021.2,470.2,1028.3,470.2,1036.5,470.2z M859.2,855.7c-0.6,1.3-1.4,2.3-1.2,2.9c0.5,1.4,1.2,3.1,2.3,3.9c0.9,0.6,2.7,0,4,0
		c-0.6-1.5-1-3.1-1.9-4.3C861.8,857.1,860.6,856.7,859.2,855.7z"/>
	<path d="M498.2,695.5c-0.2,0.9-0.2,1.5-0.4,2.2c-0.6,2.3-2.2,3.9-4.3,2.6c-1.2-0.7-2.3-4-1.7-4.7c3.2-4.1,1-7.6-0.7-11
		c-7.8-15.8-21-25.6-36.9-31.9c-11.6-4.6-23.7-6.9-35.6-6.2c-1.4,1.3-2.7,3.4-4.2,3.6c-2.5,0.3-4.1-3.3-3.5-6.3
		c0.2-1.2,0-2.9-0.7-3.9c-6-9-12.1-17.9-18.1-26.8c-0.8-1.1-1.1-2.6-1.6-3.9c1.3-0.2,2.7-0.7,4-0.6c5.4,0.3,9.8-1.2,12.6-6
		c2.7-4.7,2.6-9.6-0.7-13.9c-2.1-2.7-4.4-5.7-7.3-7.2c-8.4-4.4-17-8.2-25.7-11.8c-1.7-0.7-4.1,0.3-6.1,0.6c-1.4,0.2-2.9,1-4.2,0.8
		c-1-0.2-2.4-1.3-2.7-2.3c-0.2-0.7,0.7-2.5,1.5-2.8c1.8-0.7,3.9-1.3,5.7-1c13.1,2.7,25.3,7.7,35.9,15.8c5.4,4.1,9.1,9.5,8.4,16.8
		c-0.8,8.3-5.5,12.4-16.1,14.6c0.3,0.7,0.6,1.4,1,2c5.6,8.4,11.3,16.8,16.8,25.3c1.3,2,2.7,2.8,5.1,3c18.6,1.2,36.5,4.8,52.3,15.4
		c11.8,7.9,21.2,17.8,25.7,31.7c0.3,1.1,1.5,2.4,2.5,2.7c15.6,4.6,23.7,16.7,29.6,30.5c4.1,9.5,7.2,19.5,5.4,30.3
		c-1.4,8.1-5.4,14.4-12,19.1c-3.9,2.7-6.3,6-7.5,10.8c-1.8,7.1-6.6,12.1-13.7,14.5c-12.2,4.3-23.9,2.6-35.2-3
		c-12.5-6.3-22.4-15.2-28.3-28.2c-0.4-0.9-1-1.8-1.7-2.9c-4.3,4.1-8.3,8.1-12.5,11.8c-7,6.2-15,10.8-24.3,12.2
		c-17.5,2.7-31.4-4.5-42.5-17.2c-4.4-5-7.1-11.5-10.5-17.3c-1-1.7-1.6-3.6-2.6-5.9c-4.8,8.5-11.4,14.1-19.8,17.6
		c-14,5.8-29.9,0.1-36.9-13.4c-5.7-11-6.5-22.8-4.3-34.7c2.4-13.2,5.7-26.3,8.6-39.4c0.3-1.2,0.4-2.5-0.1-4.1
		c-3.2,2.8-6.4,5.5-9.4,8.4c-8.8,8.4-17.5,16.8-26.3,25.1c-0.8,0.8-2.1,1-3.2,1.4c0.3-1.2,0.2-2.7,1-3.4c7.6-7.5,15.2-14.9,23-22.3
		c4.2-3.9,8.5-7.7,12.8-11.5c5.1-4.5,6.6-9.5,4.9-17.4c-2.9,2.3-5.6,4.3-8.2,6.5c-3,2.5-5.6,5.3-8.8,7.5c-1.8,1.2-4.2,1.5-6.4,2.2
		c-0.3-2.1-1.2-4.4-0.8-6.4c1.3-6.8,3-13.5,4.6-20.3c0.3-1.3,0.5-2.5,1-4.9c-6.7,4.1-12.5,7.6-18.3,11.1c-5.6,3.3-11.1,6.7-16.7,10
		c-0.4-0.5-0.7-1-1.1-1.4c0.9-1,1.7-2.3,2.8-3c10.2-6.3,20.4-12.5,30.8-18.6c2.4-1.4,3.8-3,4.3-5.7c1.8-10.6,3.7-21.3,5.5-31.9
		c0.3-1.6,0.3-3.2,0.3-4.8c-0.1-6.3-0.9-7.2-7.1-8c-15.3-2.1-21.7-10.8-19.4-26.1c2.1-14.3,7.6-27.6,14.9-39.8
		c6.6-11.1,14.2-21.6,21.9-32c2.9-3.8,7.2-6.7,11.1-9.6c1.6-1.2,4-1.4,6-1.8c0.6-0.1,1.3,0.9,2,1.4c-0.5,0.5-1,1.4-1.6,1.5
		c-7.4,1.3-12.1,6.4-16.4,11.9c-12.4,15.8-23.5,32.4-30.1,51.6c-2.4,7.1-4.1,14.6-4.9,22.1c-0.9,9.2,4.3,15.1,13.3,17
		c1.9,0.4,3.9,0.6,5.9,0.9c5,0.8,7.3,2.3,7,7.4c-0.4,9.1-1.6,18.2-2.7,27.3c-0.6,4.6-1.6,9.1-2.7,14.6c6.4-3.6,11.8-7,17.5-9.8
		c6.7-3.3,13.5-6.1,20.4-8.9c1.5-0.6,3.4-0.4,5.1-0.3c0.6,0,1.1,0.9,1.7,1.4c-0.5,0.5-0.9,1.5-1.5,1.5c-16.2,0.7-27.5,12.2-41,18.6
		c-1.8,0.8-3.3,3.3-3.9,5.4c-2,7-3.5,14.2-5.2,21.4c-0.3,1.4-0.4,2.9-0.8,5.4c2.1-1.5,3.4-2.4,4.6-3.4c4.7-3.9,9.3-8,14.1-11.7
		c1.2-0.9,3.5-1.7,4.6-1.1c1.1,0.5,1.6,2.8,1.8,4.4c0.3,2.3,0.1,4.7,0.1,8c3.5-3,6.3-5.6,9.4-8c0.9-0.7,2.4-0.8,3.7-1.1
		c-0.5,1.1-1,2.2-1.5,3.3c-0.1,0.1-0.2,0.2-0.3,0.3c-10.2,6.2-14.5,15.7-16.3,27.2c-1.9,12.3-5.3,24.5-7.3,36.8
		c-1.6,9.6-0.2,19.2,4.4,28c6.5,12.6,20.6,17.7,33.6,12c7.2-3.1,13-7.7,16.9-14.7c0.8-1.3,2.5-3,3.7-3c1.1,0,2.7,1.9,3.3,3.3
		c4.2,10.1,8.9,19.6,17.6,26.8c17.2,14.3,36.9,14.8,54.4,0.9c4.3-3.4,8.3-7.2,11.9-11.2c4.7-5.2,6.5-5.2,9.5,1.3
		c5.6,12.2,14.9,20.6,26.6,26.6c10.6,5.4,21.7,7.2,33.2,2.9c6.3-2.4,10.5-6.9,11.8-13.5c0.9-4.2,2.8-7.4,6.3-9.7
		c11.9-7.9,15.2-19,12.3-32.4c-2.7-12.3-7.5-23.6-16.1-33C509.3,700,504.2,696.8,498.2,695.5z"/>
	<path d="M596.9,95.6c5.1,0.6,10.4,0.7,15.3,2.1c3.9,1.1,7.9,3.3,11,6c4.5,4,3.4,9.6-2,12.4c-5.9,3-12.1,4.9-18.8,4.7
		c-11.3-0.2-16.6-7.3-13.5-18.1c0.3-1,0.5-2,0.8-3.1c-26.8,2-56.1,12.7-62.3,29.8c2.2,1.3,4.7,2.4,6.6,4.1c1.1,1,1.4,3.1,2,4.6
		c-1.7,0.5-3.8,1.9-4.9,1.3c-2.6-1.3-4.7-3.6-7-5.5c-1.2-1-2.1-2.8-3.5-3.3c-27.3-8.2-69.9-2.1-88.8,32.4c-2,3.6-3.3,7.5-4.4,11.5
		c-0.5,1.6,0,3.8,0.8,5.3c2,3.5,0.2,4.6-2.8,5.1c-20.7,3.8-38.9,13.5-56.6,24.2c-5.5,3.3-10.6,7.3-12.1,14.2
		c-0.2,0.7-1.2,1.1-1.9,1.7c-0.4-0.8-1.2-1.6-1-2.3c0.5-2,0.9-4.4,2.3-5.8c3.7-3.9,7.5-8.1,12-10.9c17.3-10.7,35.3-19.9,55.5-24
		c0.4-0.1,0.7-0.3,1.3-0.6c-2.5-8,1-14.8,4.9-21.3c14.4-23.8,36.5-34,63.4-35.8c10.3-0.7,20.5,0.4,30.6,3.8
		c5.9-11.5,15.5-19,27.2-22.9c11.8-3.9,24.2-6.3,36.3-9.1c2.8-0.6,5-1.3,7-3.8c7.9-9.7,18.6-14.6,30.5-16.9
		c31.9-6,58.1,7.7,72.9,35.8c13.8,26.2,15.8,54.1,9.3,82.8c-2.8,12.1-5.9,24.1-13,34.6c-2.4,3.6-5.3,7-8.3,10.1
		c-1.3,1.3-3.4,2.5-5.2,2.6c-5.5,0.3-9.8,3.2-14.2,6c-7.9,5-15.7,10.2-23.8,14.7c-4.1,2.3-8.8,3.8-13.4,5.1
		c-10.4,2.9-19.1-0.7-26.8-7.5c-3.7-3.3-7.3-6.6-11.4-9.4c-7.5-5.2-12.4-4.4-19.6,1.1c-10.7,8.3-21.6,16.5-32.8,24.1
		c-3.8,2.6-8.8,3.7-13.4,4.8c-4.5,1.1-8.6-0.6-11.4-4.3c-3.3-4.5-6.2-9.3-9.3-13.9c-2.9-4.4-3.7-4.7-7.5-0.9
		c-5.4,5.4-10.4,11.1-15.7,16.5c-3.6,3.6-7.3,7.1-11.2,10.3c-2.3,1.9-5,3.6-7.7,5c-8.6,4.1-13.1,1.9-15.2-7.5
		c-0.8,0.9-1.5,1.6-2.1,2.4c-12.1,15.4-23.6,31.4-40,42.8c-6.3,4.4-13.1,8.6-20.3,10.8c-15.8,4.9-31.1-7.5-32.1-25.4
		c-0.8-14.5,3-28,10.2-40.5c3.5-6.2,9.3-9.4,15.8-11.5c0.8-0.3,1.8,0.3,2.8,0.5c-0.4,0.7-0.7,1.9-1.3,2.1
		c-16.9,5.4-19.8,20.2-23.2,34.5c-1.8,7.4-2,15.1,0.7,22.5c4.7,13.2,17,18.9,29.9,13.7c12.8-5.1,23.2-13.8,32.2-23.9
		c9.3-10.4,17.5-21.8,26.2-32.7c0.8-0.9,2-1.5,3-2.2c0.5,1.2,1.6,2.4,1.6,3.6c-0.4,11.6,6.1,11.7,12.6,6.6
		c9.3-7.3,17.4-15.9,26.1-24c2.8-2.6,5.3-5.6,8.4-8c3.4-2.7,5.6-2.2,8.1,1.3c2.4,3.5,4.5,7.3,6.7,10.9c5.4,8.7,10.2,10.9,19.3,6.3
		c8.5-4.2,16.4-9.9,24.3-15.3c4.9-3.4,9.3-7.6,13.9-11.5c7.1-5.9,13.3-6.7,21.3-1.9c3.9,2.3,7.4,5.3,10.7,8.3
		c13.1,11.7,22.5,13.2,38.1,4.9c8.2-4.4,16-9.7,23.8-14.6c5.1-3.2,9.9-6.7,16.3-7c1.5-0.1,3.4-1.3,4.3-2.6
		c4.4-6.3,9.7-12.3,12.5-19.3c11.2-28.1,14.2-57,5.3-86.5c-6.2-20.6-17.6-37.5-37.5-47.1c-19.4-9.4-46.7-7.5-64.1,7.4
		c-1.5,1.3-3.2,2.3-4.9,3.5C596.2,94.6,596.5,95.1,596.9,95.6z M599.5,98.8c-1.8,0.4-4.7,0.2-5.9,1.5c-5.7,6.2-2.3,15.8,6.1,17.1
		c7.4,1.2,14.3-0.9,20.7-4.5c2.7-1.5,3.3-4.6,0.9-6.7c-2.5-2.2-5.6-4.2-8.7-5.2C608.5,99.7,604.1,99.5,599.5,98.8z"/>
	<path d="M1183.4,135.8c6.9-4.6,13.1-9.1,19.7-13c19.7-11.8,39.5-23.3,59.2-35c6.3-3.7,12.5-7.6,18.9-11.3c1.2-0.7,3-0.5,4.5-0.6
		c-1,1.1-1.7,2.5-2.9,3.2c-27.2,16.3-54.5,32.5-81.7,48.8c-4.7,2.8-9,6.3-13.6,9.1c-3,1.8-4.5,4.2-4.8,7.7c-0.1,1.4-0.9,2.8-1.4,4.2
		c-0.5,0-0.9-0.1-1.4-0.1c-0.2-1.7-0.4-3.5-0.7-5.7c-2.1,1.5-4.2,2.9-6.2,4.4c-21.4,16.8-42.8,33.6-64.1,50.4c-1.7,1.3-3,3-4.7,4.3
		c-0.7,0.5-1.7,0.7-2.5,1c0-1-0.4-2.2,0.1-2.9c1.1-1.5,2.5-2.8,3.9-3.9c23.4-18.4,46.7-36.7,70.2-55c5-3.9,5.7-8.3,1-12.8
		c-2.2-2.2-5.1-4-7.9-5.2c-5.6-2.5-11.4-4.4-17.1-6.8c-8-3.3-9.5-7-6.4-15.1c1.4-3.7,3.1-7.4,4.4-11.2c6.8-20.8-6.3-39.9-28.2-39.7
		c-11.6,0.1-23.1,3.2-34.7,4.8c-5.5,0.8-11.1,1.9-16.6,1.9c-7.5,0.1-9.3-2.8-8.3-10c1.2-9.2,2.6-18.5,2.7-27.7
		c0.1-8.7-4-12.3-12.7-13.5c-12.1-1.7-23.9,0.4-35.8,2.1c-22.1,3.1-43.7,8.4-64.4,16.8c-1.5,0.6-3.4,0.2-5.1,0.3
		c1.3-1,2.4-2.5,3.8-3.1c25.8-10.6,52.9-16.3,80.6-19c6.7-0.7,13.6-0.7,20.3-0.3c10.9,0.7,16.5,6.3,16.5,17.2
		c0,8.6-1.6,17.2-2.5,25.8c-0.1,0.8-0.3,1.6-0.4,2.4c-0.6,4.6,0.2,5.9,5,5.9c4.6,0,9.3-0.4,13.9-1.3c13.2-2.6,26.2-6,39.9-5.3
		c25.9,1.3,34.7,26,29.7,41.7c-1.4,4.4-3.3,8.7-5,13.1c-2.5,6.6-1.7,8.8,4.8,11.5c5.2,2.1,10.5,3.8,15.6,6.1
		C1175.9,122.9,1182.4,126.7,1183.4,135.8z"/>
	<path d="M1196.3,218.5c-3.3-3.9-6-7.8-9.3-10.9c-7.1-6.7-14.6-13.1-22-19.6c-0.7-0.6-1.1-1.6-1.6-2.3c1-0.1,2.4-0.7,3.1-0.3
		c3.1,1.9,6.2,3.8,8.8,6.1c12.9,11.3,23.8,24.4,32.9,39c10.9,17.5,11.3,35.8,5.5,55c-8.4,28-28.1,44.3-55.2,52.2
		c-13.9,4-24.1-3.4-26.8-17.6c-0.2-1-0.4-2.1-0.6-3.1c-1.5-6.7-3.7-8.7-10.5-8.1c-6.2,0.5-12.4,2.2-18.6,2.6
		c-6.5,0.4-13.1,0.6-19.5-0.3c-13.1-2-17.9-9.6-15.1-22.6c0.2-1.1,0.4-2.3,0.7-4c-6.6,0.8-12.7,1.6-18.9,2.2
		c-11.8,1.1-23.4-0.1-34.6-4.3c-16-6-23.9-20.3-19.4-36.7c2.2-8.1,5.9-15.9,9.6-23.5c1.5-3,4.9-5.1,7.5-7.5c0.5-0.4,1.7,0,2.5,0.1
		c-0.3,0.8-0.3,1.9-0.9,2.3c-11.6,9.2-15,22.4-16.9,35.9c-1.5,10.8,6.2,21.5,17.5,26c14.1,5.7,28.6,5.6,43.3,3.6
		c3-0.4,6.1-0.9,9.1-1.4c3.5-0.5,4.7,1.2,4.2,4.4c-0.2,1.4-0.6,2.9-0.9,4.3c-2.1,9.9,1.2,15.2,11,17.8c9,2.3,18,1.1,27-0.4
		c4.6-0.8,9.2-1.6,13.8-1.8c6.2-0.3,9,1.9,11.1,7.7c0.9,2.6,1.3,5.4,1.9,8.2c2.1,9.2,8.8,14.4,18.2,13.8c2.4-0.1,4.8-0.4,7.1-1.2
		c24.9-8.8,43-24.3,50.7-50.6c6.4-21.9,2.7-41.5-11-59.6c-1.5-1.9-2.6-2.4-4.9-1.6c-12.7,4.7-25.5,9.3-38.3,13.9
		c-0.5,0.2-1,0.6-1.5,0.6c-1.2,0-2.4-0.1-3.6-0.2c0.8-0.9,1.3-2.1,2.3-2.6c2.8-1.3,5.7-2.3,8.6-3.3
		C1173.7,226.7,1184.7,222.7,1196.3,218.5z"/>
	<path d="M668,550.3c16.1,0.1,23.7,6.4,25.5,20c1,7.5-2.7,13.4-7.3,18.8c-11.7,13.7-24.6,26.2-39.4,36.7c-3.7,2.6-7.5,5-11.2,7.6
		c-1.3,0.9-3,3.3-3.4,3.1c-2-1.1-4.2-2.6-5.3-4.5c-9.1-15.5-18.1-31.1-26.9-46.7c-2.9-5.1-2.2-7.1,2.6-10.4
		c17.1-11.9,35.9-19.6,56.3-23.4C662.4,550.8,666,550.6,668,550.3z M631.2,632.4c3.1-2,6-3.6,8.7-5.5c16-11,30.3-24,42.9-38.7
		c2.3-2.7,4.5-5.7,6-8.9c4.9-10.1-1.2-22.7-12.2-25c-10.7-2.3-20.7,0.9-31.9,3.9c4.4,3.6,8.1,6.5,11.7,9.6c0.7,0.6,0.8,1.7,1.2,2.6
		c-1-0.1-2.4,0.2-3.1-0.3c-3.5-2.6-7-5.3-10.2-8.3c-2.2-2.1-4.2-2.3-6.8-1.1c-5.6,2.7-11.4,5.1-17,8.1c-6.7,3.5-13.1,7.4-20,11.4
		c9,16,17.7,31.4,26.6,47.3c1.9-2.1,3.2-3.5,4.4-4.9c15-17.3,30-34.7,45-52c1.6-1.8,3.3-3.5,5.1-5c0.7-0.5,1.8-0.5,2.8-0.7
		c-0.3,1-0.3,2.3-0.9,3c-17.4,20-34.9,39.9-52.4,59.8C629.6,629.5,629.1,631,631.2,632.4z"/>
	<path d="M222.3,316.9c-2.4,8.2-6.7,14.1-13,18.1c-9.4,6-19.5,6.4-29.3,1.2c-9.1-4.8-13.9-12.7-13.6-23.1c0.1-6.3,3.3-10.8,9.1-13.4
		c1.1-0.5,2.3-0.4,3.5-0.7c0.2,0.4,0.4,0.7,0.6,1.1c-0.7,0.7-1.4,1.6-2.2,2.1c-7.5,4.4-9.6,9.9-6.9,18.1
		c4.8,14.8,23.8,21.1,36.9,12.2c5.6-3.8,9.9-8.6,11.3-15.4c0.4-2.1-0.1-4.7-1.1-6.7c-5.4-10.9-16-12.7-26.5-14.5
		c-0.8-0.1-1.7,0.1-2.4-0.2c-0.8-0.4-1.5-1.1-2.3-1.7c0.8-0.5,1.7-1.4,2.5-1.3c4.3,0.6,8.6,1.4,12.9,2.3c1.7,0.3,3.3,1,6,1.8
		c-3.7-5.5-6.9-10.1-9.8-14.9c-0.9-1.5-1.1-3.5-1.7-5.2c1.4,1.1,3.1,2,4.1,3.4c6.3,8.1,12.4,16.2,18.5,24.5c1.8,2.4,2.6,5.5,4.4,8
		c6,8.4,12.3,16.7,18.9,25.7c0.8-1.7,1.3-2.8,1.8-3.9c3.3-6,6.3-12.3,10.2-18c2-3,5.5-5,8.4-7.2c0.5-0.4,1.7-0.1,2.5-0.1
		c-0.3,0.9-0.3,2.2-0.9,2.6c-10.4,6.2-14,17.1-18.7,27.2c-1.3,2.8,0.2,4.4,1.9,5.8c1,0.9,3.1,1.6,4.3,1.2c3.9-1.2,6.8-0.1,9,3.1
		c0.5,0.8,1.1,1.5,1.7,2.2c3.7,4.5,6.2,4.8,10.4,1.4c3.9-3.2,4.3-7.2,1.1-11.1c-0.8-1-1.8-2-2.8-3.1c-4.1,2.6-8.2,1.7-12.2,0
		c-0.8-0.3-1.3-1.3-2-2c1-0.3,2.1-0.9,3.1-0.8c1.7,0.2,3.3,0.8,4.9,1.3c0.2-0.6,0.4-0.8,0.3-1c-0.5-1.6-0.9-3.2-1.4-4.9
		c1.7,0.5,3.9,0.4,5,1.4c3.4,3.1,6.9,6.3,9.5,10.1c2.9,4.3,0.2,10.2-5.3,13.8c-4.2,2.8-8.4,2.2-12.1-1.9c-1.1-1.2-2-2.5-3-3.7
		c-1.6-2.1-3.5-2.8-6.4-0.9c2.8,3.1,5.5,6.1,8.2,9.1c0.8,0.9,1.8,1.7,2.4,2.7c0.4,0.8,0.4,1.8,0.6,2.8c-0.9-0.2-2.2-0.1-2.7-0.7
		c-3.2-3.2-6.3-6.5-9.2-10c-1.6-1.9-2.9-2.4-5.3-1.2c-4,2-7.4-0.6-5.9-4.9c1.7-5.1-0.3-8.2-3.2-11.8
		C231.8,329.9,227.4,323.7,222.3,316.9z"/>
	<path d="M840.9,662.1c0.5,0.6,1.1,1.2,1.5,1.9c0.9,1.9,1.1,4.3,2.5,5.7c19.5,20.8,39.5,41.1,58.8,62.1
		c41.1,44.6,87.3,83.8,131.9,124.7c13,11.9,26,23.7,39,35.5c0.6,0.5,1.3,1,1.7,1.7c0.5,1,0.6,2.2,0.9,3.3c-1-0.4-2.3-0.5-3-1.1
		c-9.8-8.8-19.6-17.7-29.4-26.5c-27.9-25.3-56.4-50.2-83.7-76.2c-25-23.8-49-48.6-73.1-73.3c-15.6-15.9-30.6-32.3-45.8-48.5
		c-1.4-1.5-2.9-3.3-3.7-5.2c-0.4-1.1,0.6-2.8,1-4.2C839.9,662,840.4,662.1,840.9,662.1z"/>
	<path d="M611.9,675.5c-5-5.3-4-12.7-8.7-19.3c-0.9,1.5-1.4,3-2.4,4c-10.7,10.2-21.4,20.3-32.3,30.3c-0.7,0.7-2,0.6-3.1,1
		c0.3-1,0.4-2.1,0.9-3c0.4-0.8,1.3-1.3,2-2c10.7-10.2,21.5-20.3,32.1-30.5c1.1-1,2-3.5,1.5-4.7c-8.5-18.7-17.2-37.2-26-56.2
		c-22.6,13.9-44.6,28.8-69.3,38.4c-0.3-0.5-0.7-1.1-1-1.6c1.7-1.2,3.3-2.5,5-3.5c15.4-8.4,30.9-16.7,46.3-25.3
		c5.2-2.9,10.1-6.4,15.3-9.5c2.2-1.3,2.6-2.5,1.6-4.8c-4.2-10.4-8.4-20.8-12.3-31.2c-1.6-4.2-3.1-8.7-3.4-13.1
		c-0.2-3.5,1.4-7.1,2.5-10.6c0.2-0.6,1.7-0.9,2.5-1.3c0,0.9,0.5,2.1,0.1,2.7c-3.5,5-2.7,10.3-0.7,15.3c8.5,21.4,17.1,42.8,26,64
		c7.2,17.2,14.9,34.2,22.2,51.3c1,2.4,1.5,5,2.2,7.6C613,674,612.6,674.4,611.9,675.5z"/>
	<path d="M1123.1,850.3c-1,0.5-1.8,1.3-2.3,1.2c-0.8-0.2-1.6-0.9-2.2-1.6c-26.9-26.1-54.6-51.3-80.3-78.5
		c-22-23.3-41.6-48.9-62.3-73.4c-10.7-12.7-21.5-25.5-32.3-38.1c-2.2-2.5-5-4.4-7.4-6.7c-0.5-0.5-0.4-1.6-0.6-2.4
		c0.7,0,1.6-0.4,2.2-0.1c1.4,0.8,2.8,1.7,3.8,2.9c11.6,13.2,23.5,26.2,34.6,39.8c22.3,27.4,43.6,55.6,68.6,80.7
		c19.2,19.2,39.1,37.8,58.7,56.7c5.7,5.5,11.3,11,16.9,16.5C1121.1,848.1,1121.8,849,1123.1,850.3z"/>
	<path d="M1259.4,843.8c-1.8-1.1-4.4-2.6-7-4.1c-4.4,10.7-7.2,12.5-13,8.2c-2.4,2.6-4.7,5.3-7.2,7.9c-1.3,1.4-2.5,2.9-4,3.9
		c-1.1,0.7-2.6,0.8-3.9,1.2c-0.4-1.4-1.3-2.9-1-4.3c0.4-2.2,1.2-4.4,2.2-6.4c3.9-7,7.7-14,12.2-20.6c1.4-2,4.8-3.5,7.4-3.6
		c2.4-0.1,5.2,1.3,5.8,5c0.2,1,2.7,1.9,4.3,2.4c3.8,1.3,7.8,2.3,11.6,3.7c0.9,0.3,1.8,1.3,2.3,2.1c1.4,2.2,2.6,4.6,4.2,7.4
		c-3.6,2.5-8.3,0.4-12.8,1.6c-0.6,4.8-5.1,4-8.3,5.3c-3.2,1.4-6.1,3.2-9.3,4.6c-1.3,0.6-2.8,0.5-4.3,0.7c0.5-1.2,0.6-3,1.5-3.6
		C1246.6,851.4,1253.1,847.6,1259.4,843.8z M1226.4,855.5c0.4,0.2,0.8,0.5,1.2,0.7c2.4-2.6,4.8-5.2,7.2-7.9c3.2-3.7,3.2-3.7,0.2-8.6
		C1232,845.2,1229.2,850.3,1226.4,855.5z"/>
	<path d="M571.5,524.9c-0.5-0.1-1.6-0.4-2.7-0.7c0.6-1.1,1-2.3,1.8-3.2c1.5-1.7,3.3-3.1,4.7-4.8c10.2-12.2,23.4-20.1,38.1-25.4
		c4.2-1.5,9.1-1,13.8-1.2c0.7,0,2.1,1.1,2.2,1.9c0.5,4.2,1.5,8.6-2.3,12c-4.9,4.5-9.9,9-14.8,13.4c-7.1,6.3-14.2,12.5-21.3,18.7
		c-1.4,1.2-2.8,2.5-4.3,3.5c-4,2.6-6.9,2-9.3-2.2C575.3,533,573.5,529,571.5,524.9z M587,508.1c0,0.5,0.1,1,0.1,1.4
		c4.4,3.6,8.8,7.3,13.3,10.7c0.5,0.4,2.1,0.2,2.7-0.3c7.3-6.2,14.6-12.5,21.7-18.8c2.4-2.1,2.3-4.8,1.2-8
		C612.9,498.1,600,503.1,587,508.1z M579.1,522.8c-4.5,1.5-3.4,4.1-2.3,6.6c0.9,2,2.3,3.9,3.3,5.9c1.3,2.4,3.2,2.4,4.9,0.9
		c4.7-4.1,9.2-8.3,14-12.7c-5.2-4.2-9.9-8.1-14.8-12.1c-2.9,3.1-5.7,6-8.6,9.1C576.7,521.1,577.5,521.7,579.1,522.8z"/>
	<path d="M394.6,923.8c0,3.5,0.1,6.9-0.1,10.4c0,0.8-0.9,1.6-1.4,2.4c-0.6-0.8-1.6-1.5-1.6-2.3c-0.2-4.9-0.3-9.9-0.1-14.8
		c0-1.1,1-2.8,1.9-3.2c9-3.3,18-6.6,27-9.5c5.2-1.7,7.6,0.3,6.4,5.7c-1.3,6-3.5,11.7-4.9,17.7c-0.5,2,0.1,4.3,0,6.5
		c-0.3,4.6,0.2,9.5-1.3,13.7c-2,5.9-8.6,6.4-12.4,1.5c-2.5-3.1-4.8-6.4-6.8-9.9c-1.3-2.3-1.8-4.6-1.5-7.7c0.4-3.5-2.5-7.4-4-11.1
		C395.5,923.4,395,923.6,394.6,923.8z M399,917.6c4.2,5.2,8.1,10.4,12.4,15.2c2.2,2.5,5.9,1.2,6.9-2c1.5-5,3.1-9.9,4.6-14.8
		c0.6-2,0.7-4.2,1.1-6.3c-0.4-0.3-0.7-0.6-1.1-0.9C414.3,912,405.7,915.2,399,917.6z M413.3,951.1c0.3-0.2,0.7-0.4,1-0.5
		c-1-9.3-5.1-16.9-12.1-22.9c-0.4,0.2-0.7,0.4-1.1,0.6C405.2,935.8,409.2,943.4,413.3,951.1z"/>
	<path d="M950.6,163.4c4.9-4.4,9.7-9.1,14.9-13.5c9.1-7.7,18.4-15.4,27.8-22.8c3.5-2.8,7.6-4.8,11.5-7.2c3.3-2,3.8-4.1,0.7-6.1
		c-7.5-4.8-15.2-9.3-22.9-13.7c-2.1-1.2-4.7-1.8-8.1-3.2c-3.7,5.8-7.6,12-11.5,18.3c-0.4-0.1-0.8-0.2-1.2-0.2
		c0.2-1.5-0.1-3.3,0.6-4.4c3.1-5.1,6.3-10.2,9.8-15c0.8-1.1,3.7-1.9,4.8-1.3c9.7,5,19.1,10.3,28.7,15.6c1,0.6,2,1.4,2.8,2.3
		c3.4,3.6,3.1,7.5-1.2,9.9c-20.3,11.4-36.7,27.6-53.7,43.2c-1.3,1.2-3.3,1.8-5,2.7c-0.7-1.9-2-3.8-1.9-5.6c0.9-19.8,1.9-39.6,3-59.4
		c0.1-1,1.1-2,1.7-2.9c0.4,1.1,1.3,2.3,1.2,3.4c-0.5,8.6-1.6,17.2-1.8,25.9C950.3,140.6,950.6,151.9,950.6,163.4z"/>
	<path d="M494.5,102.3c0.7-4.1,1.6-8.2,2.2-12.3c0.4-2.9,0.2-5.9,0.4-8.8c0.3-4,2.4-5.1,5.9-3c2.6,1.5,5.1,3.3,7.7,5
		c5.4,3.5,11.3,5.3,17.7,5.4c1.4,0,2.7-0.4,4.1-0.7c0.1-0.4,0.3-0.8,0.4-1.2c-1.7-1.3-3.3-2.9-5.2-3.7c-4.7-1.9-9.6-3.1-14.3-5
		c-4.7-1.9-9.3-3.9-13.6-6.5c-3.3-2-4.5-6.7-3.2-9.5c1.6-3.4,4.4-5.1,8-4.8c3.8,0.3,6.8,2.3,8.5,5.8c0.4,0.8,0,2.1,0,3.2
		c-0.8-0.5-1.7-0.9-2.5-1.5c-1.6-1.3-3-3.3-4.8-3.8c-1.5-0.5-4.1,0.2-5.2,1.3c-0.9,0.9-1,3.7-0.2,4.9c1.1,1.8,3,3.5,5,4.3
		c5.1,2.1,10.5,3.7,15.7,5.7c3.9,1.5,7.8,3.3,11.6,5.3c2.1,1.1,4,2.9,3,5.8c-1,2.9-3.4,3.7-6,3.6c-7.5-0.1-14.5-1.9-20.8-6.1
		c-2.6-1.7-5.3-3.4-8.3-5.3c-0.4,4.8-0.5,9.1-1.1,13.2c-0.4,3.1-1.1,6.3-2.3,9.3c-0.6,1.5-2.4,2.4-3.6,3.6c-1.2-1.4-3.2-2.7-3.5-4.3
		c-0.9-5.1-1.7-10.3-1.6-15.5c0.1-8.9,0.8-17.8,1.4-26.7c0.1-1.8,0.7-3.7,1.6-5.3c0.4-0.6,2.1-0.5,3.2-0.7c0.1,1.3,0.6,2.6,0.3,3.7
		c-0.4,1.5-1.9,2.7-2.1,4.1c-1.6,13.4-2.3,26.8,0.3,40.1C493.6,102.2,494.1,102.2,494.5,102.3z"/>
	<path d="M934.2,584.5c5.5-4.9,10.8-9.6,16.3-14.4c-1.1-0.3-2-0.6-3-0.8c0.6-2.4,1.1-4.7,1.8-6.8c0.3-0.8,1.1-1.9,1.8-2
		c5.2-0.6,10.5-1.3,15.7-1.2c2.5,0.1,3,3.5,0.3,5.1c-3.9,2.3-8.3,3.8-13,5.8c0.9,1.2,2.3,2.9,3.6,4.6c0.5,0.6,1.1,1.2,1.6,1.8
		c3.2,3.9,3.8,7.6,1.5,9.2c-2.2,1.5-7.7-0.2-9.8-3.5c-1.1-1.7-1.6-3.8-2.5-6.4c-2.4,2.2-4.7,4.5-7.1,6.6c-2.4,2.1-4.9,4.1-7.5,6
		c-0.7,0.5-2.3,0.7-2.9,0.2c-0.7-0.6-1.1-2-1.1-3.1c0-1.2,0.4-2.4,0.9-3.4c4.5-8.1,9-16.2,13.6-24.3c0.6-1.1,1.7-2.1,2.8-2.8
		c0.9-0.6,2-0.7,3.1-1c-0.3,1.1-0.3,2.5-1,3.2c-6.7,6.6-10.9,14.7-14.6,23.2c-0.4,0.8-0.6,1.8-0.9,2.7
		C933.8,583.3,934,583.6,934.2,584.5z M964.2,563.3c-0.1-0.4-0.2-0.7-0.3-1.1c-6.4-0.9-10.6,0.1-11.8,4
		C956.5,565.1,960.4,564.2,964.2,563.3z M952.9,573.6c-0.9,6.2,0.7,8.4,6.8,9C957.3,579.5,955.4,577,952.9,573.6z"/>
	<path d="M881.9,177.2c0.5,0.3,1.3,0.6,1.3,0.9c0,0.9-0.1,1.9-0.6,2.6c-5.1,8.3-10.1,16.6-15.3,24.8c-9.7,15.3-19.6,30.5-29.4,45.8
		c-7.2,11.3-13.1,23.2-17.4,35.9c-0.4,1.1-1.7,1.9-2.5,2.9c-0.1-1.3-0.7-2.8-0.3-3.9c5-15.9,13.3-30.2,22.3-44.1
		c12-18.8,23.7-37.7,35.6-56.5c1.4-2.3,3-4.4,4.6-6.6C880.5,178.3,881.2,177.8,881.9,177.2z"/>
	<path d="M671.9,753.4c0.2,0.9,0.9,1.9,0.7,2.6c-1.3,3.4-3.3,6.6-4.3,10.1c-7.8,26.9-9.7,54.4-6.8,82.2c0.9,9,1.7,18,2.4,27
		c0.1,0.9-0.7,1.8-1.1,2.7c-0.7-0.8-1.8-1.6-1.9-2.5c-1.1-10.6-2.2-21.2-3-31.8c-2.4-29,0.3-57.4,9.5-85.1c0.6-2,2-3.7,3.1-5.5
		C670.9,753.2,671.4,753.3,671.9,753.4z"/>
	<path d="M527,307.2c0.6,1.2,1.4,2.3,1.8,3.6c4.4,13.4,10.6,26,19.6,36.8c12.8,15.4,26.6,30.1,39.8,45.2c1.5,1.7,2.5,3.7,3.7,5.6
		c-2-1.1-4.3-1.9-5.9-3.5c-17.3-17.9-35.1-35.4-47.9-57c-4.9-8.3-8.3-17.5-12.3-26.3c-0.5-1.1-0.1-2.7-0.1-4.1
		C526.1,307.4,526.6,307.3,527,307.2z"/>
	<path d="M1076.4,992.3c-13.4,0.2-25.9-14.5-23-27.3c0.3-1.2,1.5-2.1,2.2-3.2c0.3,1.2,0.9,2.4,0.7,3.5c-1,9,2.6,15.9,10,20.8
		c7.2,4.8,14.5,4.1,21.2-1c4.3-3.3,8.2-7.1,12.3-10.7c0.6-0.5,1.5-0.7,2.3-1.1c0.2,0.9,0.8,1.9,0.7,2.7c-0.3,1.9-0.6,3.3-3.1,4.2
		c-3,1.1-5.3,3.9-8,5.9C1087.2,989.4,1082.4,992.3,1076.4,992.3z"/>
	<path d="M230.2,425.5c0-0.4-0.1-0.8,0.1-1.2c0.5-1.2,1.2-2.4,1.7-3.6c0.4,1.3,1.3,2.6,1.2,3.9c-0.3,5.1,2.9,8.7,8,7.8
		c5.7-0.9,11.1-2.9,13.3-9.3c0.3-0.7,1.4-1.2,2.1-1.8c0.3,0.9,1,2.1,0.7,2.8c-0.9,2-1.7,4.6-3.4,5.7c-3.9,2.4-8.1,4.8-12.5,5.7
		C235.3,437,230.1,431.9,230.2,425.5z"/>
	<path d="M1170.3,172.4c0.3,0.7,0.5,1.5,0.9,2.2c1.9,3.2,3.9,6.3,5.6,9.5c0.5,0.9,0.1,2.3,0.1,3.5c-1-0.4-2.4-0.6-2.9-1.4
		c-2-3.1-3.8-6.4-5.4-9.7c-0.4-0.9,0.1-2.2,0.2-3.3C1169.3,173,1169.8,172.7,1170.3,172.4z"/>
	<path d="M808.1,517.2c0.5,7.2,1.4,15.5-2.2,23.4c-1,2.3-2,4.7-3.3,6.8c-4,6.3-9,7.1-14.6,2c-2.7-2.5-5.3-5.3-7.4-8.4
		c-10.2-15.3-20.5-30.6-24.9-48.9c-2.2-9.1-3.7-18.3-1.2-27.6c0.5-1.8,1.1-3.6,1.9-5.3c2.9-6.3,7.3-8,13.7-5.3
		c10.3,4.4,18.2,11.8,24.2,20.9C802.3,487.3,809,500.5,808.1,517.2z M802.6,501.2c0.3-0.1,0.5-0.2,0.8-0.2c-1.2-3.1-2.2-6.2-3.5-9.2
		c-6-13.9-14.4-25.8-28-33.4c-8-4.4-11.3-2.9-14.1,5.8c-2.6,8.2-1.7,16.4,0.3,24.5c5.1,21.5,16.6,39.7,30.3,56.6
		c1.3,1.6,3.2,2.8,5.1,3.7c1.1,0.5,3.3,0.4,4-0.4c4.6-4.7,6.7-10.5,7.5-16.8c-4.1-2-8.8-0.2-12.1-3c0.1-0.6,0.1-1.1,0.2-1.7
		c4,0.2,8.1,0.5,12.1,0.7c0.2-0.8,0.3-1.1,0.4-1.5c0-0.5,0.1-1.1,0-1.6c-1.3-10.7-4.2-20.8-10-30.1c-0.7-1.2-0.7-2.8-1-4.2
		c1.2,0.8,2.7,1.4,3.4,2.5C799.7,495.5,801.1,498.4,802.6,501.2z"/>
	<path d="M884.8,469.4c-0.8,2.2-2.2,5.3-3.3,8.6c-0.3,1-0.2,2.3-0.1,3.4c1.2,8.2,0.8,16.2-1.6,24.1c-0.6,2-1.4,4-2.5,5.9
		c-2,3.3-4.5,3.6-7.1,0.7c-1.7-1.9-3-4.1-4.2-6.3c-10.6-18.7-18.2-38.3-17.2-60.2c0.3-5.8,1.8-11.9,4.1-17.3
		c2.9-6.8,8.5-7.6,13.6-2.1C877.4,438,882.9,452.2,884.8,469.4z M874.1,468c0.8-2.7,1.3-4.5,1.9-6.3c0.7,1.5,1.4,3.1,2.3,4.5
		c0.5,0.9,1.5,1.5,2.2,2.2c0.2-0.9,0.8-1.9,0.7-2.7c-1.5-12.5-6.4-23.6-13.7-33.7c-1.9-2.6-5.2-4-7.9-6c-2,2.9-4.7,5.5-5.8,8.6
		c-3.4,9.9-1.8,20-0.3,30c0.1,0.8,1.4,2.1,2.2,2.2C862,467.3,868.3,467.6,874.1,468z M873,510.6c0.5-0.1,1-0.1,1.5-0.2
		c0.8-1.8,1.7-3.6,2.3-5.4c2.5-8,3-16.2,1.4-24.5c-1.7-8.8-1.6-8.9-10.5-9.7c-4.3-0.4-8.6-0.5-13.6-0.8
		C859,485,864.7,498.4,873,510.6z"/>
</g>
</svg>
