<?xml version="1.0" encoding="utf-8"?>
<!-- Generator: Adobe Illustrator 22.0.1, SVG Export Plug-In . SVG Version: 6.00 Build 0)  -->
<svg version="1.0" id="Ebene_1" xmlns="http://www.w3.org/2000/svg" xmlns:xlink="http://www.w3.org/1999/xlink" x="0px" y="0px"
	 viewBox="0 0 1547.9 1049.4" enable-background="new 0 0 1547.9 1049.4" xml:space="preserve">
<g>
	<path d="M1546.9,857.7c-4.5,0-9.1-0.1-13.6,0c-34.5,0.8-68.9,1.7-103.4,2.5c-2.3,0.1-3.1,0.7-3.3,3.1c-1.4,25.6-3.7,51.2-1.2,76.8
		c1.5,16.2,3.8,32.3,5.5,48.4c0.5,4.1,0.7,8.3,0.6,12.4c-0.1,5-1.6,6.7-6.6,7.5c-4.5,0.8-8.9,1.6-13.4,2.1c-2.2,0.3-4.4,0.3-6.6,0
		c-4.6-0.6-6.6-2.9-6.8-7.6c-0.4-7.9-0.8-15.9-0.8-23.8c-0.2-27.3-0.5-54.6-0.3-81.9c0.1-11.7,1.5-23.3,2.4-35.4
		c-1.9,0-4.1-0.1-6.2,0c-35.1,1.5-70.2,3.1-105.3,4.6c-47.3,2-94.6,3.9-141.9,5.9c-27.4,1.1-54.9,2.1-82.3,3.5
		c-29.5,1.5-59,3.4-88.4,5.1c-24.9,1.4-49.9,2.8-74.8,4.2c-9.5,0.5-19,1.1-28.4,1.5c-2,0.1-2.7,0.9-2.7,2.9
		c-0.2,27.4-0.7,54.9-0.5,82.3c0.1,9.2,2.3,18.3,3.2,27.5c0.5,5.5,0.4,11.2,0.4,16.7c0,3.3-1.6,5-5.2,4.8
		c-5.5-0.3-10.9-0.5-16.4-0.7c-3.3-0.1-4.5-1.6-4.4-4.9c0.4-10.4,1-20.8,0.7-31.2c-0.3-11.4-1.7-22.8-2.3-34.2
		c-0.9-19-1.6-37.9-2.3-56.9c-0.1-1.4,0-2.8,0-4.5c-3.3,0.2-6.1,0.4-8.9,0.5c-10.1,0.5-20.3,1.1-30.4,1.6c-26.9,1.4-53.9,2.7-80.8,4
		c-38.3,2-76.6,3.9-115,5.9c-30,1.6-60,3.3-90,5c-9.1,0.5-18.2,1.1-27.3,1.6c-2.6,0.1-3.3,1.1-3.3,3.6c0.2,9,0.1,17.9,0.3,26.9
		c0,1,1,2.4,2,2.9c10.8,6,21.6,11.9,32.4,17.8c2.3,1.3,3.9,1.2,6.1-0.9c6.3-6.4,13.8-9.3,22.7-5.9c8.3,3.2,12.9,10.8,13,20.8
		c0,2.3,0.1,4.7,0.3,7c1,15.7-11.4,24.9-26.2,19.2c-6.3-2.4-11-6.8-14.6-12.5c-0.8-1.3-2.1-2.8-3.5-3.2
		c-12.7-4.1-25.5-7.9-38.1-11.8c-2.6,3.6-4.8,7.3-7.7,10.4c-6.9,7.2-15.4,9.8-25.3,7.8c-4.4-0.9-7.6-3.3-9.4-7.4
		c-3.6-8-4.4-16.2-2.1-24.7c0.3-1,0.6-1.9,1-3.3c-1.5-0.5-2.8-1.2-4.1-1.3c-19.3-1.8-38-6.2-56-13.2c-4-1.6-6.7-1.4-10.3,1.6
		c-8.8,7.4-19.1,7.7-29.3,2.9c-7.8-3.6-11.3-12.9-8.8-22.4c0.3-1.2,0.7-2.5,1.3-4.5c-10.6,0.7-20.9,1.3-31.7,2
		c0.7,4.1,1.3,7.8,2.1,11.4c2.5,11,4.4,22.4,10.9,31.9c3.6,5.4,8.8,9.8,13.2,14.7c1,1.1,1.7,2.6,2.5,3.8c-1.4-0.5-3.1-0.6-4.3-1.4
		c-11.8-8.3-18.1-20.2-21.7-33.7c-2.3-8.7-4.1-17.4-6.2-26.5c-9.8,0.5-19.7,0.9-30.1,1.4c0.4,12.4,1,24.4,7.4,35.2
		c0.3,0.4,0.8,0.8,0.9,1.3c0.2,1,0.3,2.1,0.4,3.1c-0.9-0.4-2.4-0.6-2.7-1.3c-2.2-4.5-4.8-9-6.1-13.8c-1.5-5.7-1.8-11.8-2.6-17.7
		c-0.3-2-0.3-4.1-0.5-6.2c-41.2,1.2-82.1,2.4-123.6,3.6c0.9,7,1.6,14,2.8,20.8c1.2,6.8,1.7,13.3-2.3,19.5c-1.1,1.8-1.6,4.2-1.7,6.3
		c-0.1,2.8-1.4,3.8-3.9,3.6c-5.3-0.3-10.7-0.2-15.9-1c-18-3-36-2.3-54.1-1.1c-4.7,0.3-9,1.2-13.7-2.2c-2.7-2-7.8-0.8-11.8-1
		c-10.6-0.6-10.5-0.6-11-11c-0.5-11-1.3-22-2-33.5c-1.8,0.2-3.5,0.1-5,0.4c-5.6,1.2-11.1,2.5-16.7,3.6c-0.7,0.1-1.4-0.1-2.1-0.2
		c0.2-0.8,0.2-2,0.7-2.3c1.6-0.8,3.3-1.6,5-1.9c6-1.2,12-2.1,18.2-3.2c0.5-7.1,1.3-14.2,1.6-21.3c0.4-9.6,0.5-19.2,1-28.8
		c0.1-1,2.1-2.5,3.4-2.7c8.1-1.2,16.2-2.2,24.3-3.2c3.3-0.4,6.6-0.8,9.6-1.2c-2.6-4.5-5.5-8.8-7.7-13.4c-4.3-8.8-5.2-18.1-4.2-27.8
		c1.1-9.8,1-19.8,2.8-29.5c1.7-8.7,4.6-17.4,8.2-25.5c6.3-14.4,17.7-24,32.9-27.5c14.9-3.5,31.6,6.2,37.9,20.5
		c4.1,9.3,5,18.7,2.3,28.5c-0.2,0.6-0.3,1.3-0.4,1.9c0,0.2,0.1,0.5,0.1,0.6c12-1.9,24.3-2.2,35.4-7.8c4.9-2.4,9.9-4.6,14.7-7.2
		c14.5-8,30.3-12.4,45.9-17.4c26.3-8.4,52.5-16.9,79.5-22.7c5.6-1.2,11.3-1.7,16.9-2.9c4.3-0.9,8.7-1.8,12.7-3.6
		c2.7-1.2,4.8-4,7.2-6.1c5-4.3,10.1-8.6,15-12.7c-1.8-12.2-3.6-24.3-5.4-36.3c-0.6-4.3-2.8-7.6-5.8-10.8c-8-8.7-10.3-19.1-7.9-30.4
		c1.5-6.9,4-13.5,8.4-19.1c0.9-1.1,1.3-2.8,1.3-4.3c0-43.2,0.6-86.4-0.2-129.6c-0.8-44.6-2.9-89.2-8.2-133.5c-1-8.5-1-8.3-9.6-9.3
		c-6.6-0.8-13-2.8-19.6-3.2c-14.1-1-28.2-1.8-42.4-0.3c-13,1.4-26.2,1.1-39.3,1.6c-5.3,0.2-10.6,0.4-15.9,0.8
		c-11,0.7-21.6-1-31.1-6.8c-2.4-1.5-4.4-2-7.2-1.1c-4.7,1.5-9.5,2-14.1-1.9c-1.1,2.3-2.4,4.2-2.9,6.4c-1.4,5.9-5.2,9.7-10.1,12.6
		c-18.2,10.6-37.6,15.5-58.7,13.6c-5.8-0.5-11.6-1-17.8-1.5c0,1.5,0.1,3.1,0,4.8c-0.2,2.7-0.1,5.5-0.7,8.1c-1.6,7.1-2.6,7.7-9.7,7.8
		c-5.2,0-10.4,0.5-15.5,0c-8.5-0.8-10.8-3.6-10.8-12.1c0-4.6,0.1-9.1,0.4-13.7c0.1-0.9,1.1-1.7,1.7-2.5c0.4,0.8,1.2,1.7,1.2,2.5
		c0,5.1,0.1,10.2-0.2,15.2c-0.3,4.3,2,6.4,5.7,7c3.8,0.6,7.7,0.6,11.6,0.7c1.8,0.1,3.6-0.3,5.4-0.4c5.9-0.1,6.9-0.8,7.6-6.7
		c0.4-3.2,0.4-6.5-0.1-9.7c-0.2-1.2-2.2-2.7-3.6-3c-9.4-1.8-18.3-4.9-26.7-9.6c-8.8-4.9-15.8-11.2-19.4-21c-0.9-2.6-2.8-5.4-5-6.8
		c-4.1-2.6-3.7-6-2.3-9.1c4.1-9.1,7.7-18.6,13.2-26.9c18.1-27.5,45-38.9,76.9-40c8.3-0.3,16.7,0.1,24.9,0.9
		c7.7,0.7,13.5,5.8,19.5,10.1c3.7,2.7,7.3,5.9,10.2,9.5c6.4,7.7,7.1,17.7,9.4,27c0.8,3.3,2.4,4.5,5.4,4c2.7-0.4,5.5-0.8,7.9-1.9
		c9.1-4.1,18.2-8.3,27.2-12.7c5.7-2.8,11.3-5.1,17.8-4.9c4.9,0.1,9.9-0.7,14.8-0.7c4.4,0,8.8,0.5,13.2,0.9c6.7,0.7,13.4,2,20.1,2.1
		c19,0.3,38,0,57,0.1c3.8,0,4.4-1.3,4.1-4.8c-2.2-27.2-4.2-54.5-6-81.7c-0.9-14.3-1.1-28.6-1.6-42.9c-0.1-1.8,0.2-3.7,0.7-5.4
		c0.2-0.8,1.4-1.7,2.2-1.7c0.8,0,1.9,0.9,2.2,1.7c0.3,0.7-0.2,1.8-0.6,2.6c-0.4,1.2-1.5,2.4-1.5,3.6c0,8.6,0,17.2,0.5,25.7
		c1.3,22.7,2.9,45.4,4.4,68.1c0.7,10.2,1.7,20.5,2.4,30.7c0.2,2.8,1.5,3.3,4,3.2c27.3-1.5,54.2-5.9,81.2-10.3
		c10.1-1.7,20.5-1.5,30.7-2.8c17.9-2.2,35.8-5.2,53.7-7.3c9.6-1.1,19.4-1.2,29.1-1.3c29.4-0.4,58.8-0.6,88.2-1
		c15.9-0.3,31.7-0.8,47.6-1.5c5.1-0.2,10.2-2,15.4-2.4c4.7-0.3,9.4,0.5,14.1,0.7c2.3,0.1,4.7-0.2,7-0.1c5.9,0.1,12-0.1,17.8,0.7
		c5.5,0.8,9.8,6.9,9.7,12.5c0,2.7-0.1,5.5-0.4,8.2c-0.1,0.6-1,1.2-1.5,1.8c-0.4-0.6-1.1-1.1-1.2-1.7c-0.1-2.1,0.1-4.2,0.1-6.2
		c0.1-7.2-3.2-11.4-10.3-12.1c-4.6-0.5-9.3,0-14-0.1c-7.5-0.1-15.2-1.6-22.5-0.3c-18.5,3.2-37,2.6-55.6,3.4
		c-20.9,1-41.9,1.7-62.8,2.1c-10.3,0.2-20.6,0.1-30.8-0.8c-13.7-1.2-26.9,1.1-40.4,2.8c-21.3,2.7-42.6,4.9-63.9,7.6
		c-12.1,1.5-24.1,3.9-36.2,5.4c-17.4,2.1-34.9,3.7-52.3,5.6c-1.9,0.2-3.8,0.5-6,0.9c0.4,3.5,0.7,6.6,1.1,9.9c0.8-0.1,1.4,0,1.8-0.1
		c2.9-0.9,6.3-1.3,7.7,1.7c1,2.1,0.4,5.2,0,7.7c-0.3,1.7-1.4,3.6-2.7,4.7c-5.2,4.5-4.8,10.1-3.9,16c0.6,4.2,1.1,8.5,1.4,12.8
		c0.1,2.6,1.1,3.3,3.6,3.2c8.2-0.2,16.4-0.4,24.6-0.1c24.6,0.9,49.1,2.4,73.7,3.1c14.9,0.4,29.9-0.4,44.9-0.5
		c8.8-0.1,17.7,0.4,26.5,0.3c22.6-0.2,45.2-0.5,67.9-1c13.1-0.3,26.3-0.6,39.4-1.7c17.3-1.5,34.6-3.9,51.9-5.8
		c4.4-0.5,8.8-1,13.2-1.1c12.3-0.1,24.7-0.2,37,0c2.9,0,3.8-1.1,4.4-3.6c2.9-11.5,2.6-23.2,2.5-34.9c0-2.2-0.2-4.4,0-6.6
		c0.1-0.9,0.9-1.8,1.4-2.7c0.5,0.9,1.5,1.8,1.5,2.8c0.1,8.2,0.3,16.4-0.1,24.6c-0.4,6.3-1.7,12.6-2.6,18.9c-0.5,3.4-2.3,5-6.2,4.9
		c-13.4-0.2-26.8-0.6-40.2,0.1c-10.1,0.5-20.1,2.6-30.2,3.7c-13.4,1.4-26.9,3.1-40.4,3.6c-29.5,1.2-59,1.9-88.5,2.4
		c-13.8,0.3-27.6-0.3-41.4-0.4c-15.3-0.1-30.7,0.4-46,0c-20.9-0.6-41.8-2.1-62.8-2.8c-10.9-0.4-21.8-0.1-33.2-0.1
		c9.2,90.8,11.4,181.2,9,272c1.1-0.2,1.7-0.2,2.2-0.5c14.7-8.1,24.6-3.1,34.8,7.2c2.5,2.5,4.6,4,8.2,4.5c6.6,1.1,13,3.5,19.5,5.3
		c1.1,0.3,2.2,0.6,3.1,0.9c9.2-13,18.3-25.7,27.3-38.6c5.2-7.5,11.4-14,19.1-18.8c3.6-2.3,8.1-2.9,12.2-4.5c1.2-0.5,2.8-1.4,3.1-2.5
		c2.1-6.5,1.5-13.1,0-19.6c-1.2-5-4.7-7.4-9.8-7.6c-3-0.1-6-0.3-9-0.5c-9.5-0.6-14.7-4.6-16.9-13.8c-1.5-6-2.1-12.3-3.1-18.4
		c-0.2-1.4-0.5-2.8-0.8-4c-1.9-0.6-3.8-1-5.3-1.8c-7.4-4.2-6.6-14.7,1.6-19.1c2.3-1.3,2.5-2.7,3.1-4.9c1.5-5.7,3.8-11.2,5.9-16.8
		c1-2.7,2.5-5.3,3.5-8c1.6-4.4,2.8-5,8-3.6c3.7-5.6,7.4-11.2,11.4-17.3c-3.7,1.1-7.1,2.1-10.5,2.9c-1.2,0.3-2.6-0.1-3.9-0.2
		c0.4-1.1,0.6-2.4,1.2-3.4c2.2-3.8,4.4-7.5,7-11.8c-3.8,0-6.7,0.3-9.6-0.1c-1.6-0.2-3.1-1.4-4.6-2.2c1.1-1.3,1.9-3.2,3.2-3.7
		c8.2-3,16.5-5.7,24.7-8.5c0.7-0.2,1.4-0.4,1.9-0.6c-0.3-6.3-0.8-12.4-0.9-18.5c0-1.4,0.7-3.6,1.6-3.9c1.3-0.4,3.2,0.2,4.5,1
		c5.6,3.6,11,7.4,16.6,11c1.7,1.1,3.7,1.6,5.5,2.3c0.5-0.6,0.7-0.7,0.8-1c0.6-1.6,1.2-3.2,1.8-4.8c1.4,1.2,2.9,2.3,4.3,3.6
		c2.7,2.5,5.2,5.2,7.9,7.5c4.1,3.5,4.4,3.4,8.5,0c7.2-6,14.4-11.9,21.7-17.8c1.5-1.2,3.2-2.2,5-3c0.9-0.4,2.7-0.5,3.2,0
		c0.6,0.8,0.9,2.4,0.5,3.5c-0.9,2.8-2.2,5.5-3.3,8.2c0.5,0.3,0.6,0.5,0.9,0.6c2.4,0.5,6.3,0.2,6.9,1.5c0.9,2-0.3,5-1.1,7.4
		c-0.7,1.9-2.2,3.5-3.2,5c1.7,2,4.2,3.8,4.6,5.9c0.3,1.9-1.6,4.2-2.9,7c1.9,1.3,4.4,3,6.9,4.7c4.6,3.2,9.3,6.2,13.8,9.5
		c1.1,0.8,1.8,2.3,2.7,3.4c-1.4,0.7-2.8,1.6-4.2,2.1c-1.9,0.6-4,0.9-6.9,1.5c1.8,1.7,2.9,2.9,4.2,3.9c3.5,2.5,7.1,4.9,10.5,7.5
		c1.2,0.9,2,2.5,2.9,3.8c-1.2,0.9-2.3,1.9-3.6,2.6c-1,0.6-2.1,0.9-3.8,1.6c1.3,1.2,2.2,2.1,3.2,3c3,2.5,6,5,8.9,7.6
		c2.5,2.3,2.4,4.2-0.8,5.6c-3.5,1.6-7.3,2.6-10.9,3.9c2.3,6.1,1.8,8.3-4,11.8c-2.5,1.5-1.8,3.1-1.1,4.9c1.3,3,1.8,5.5-1.1,8.3
		c-2.7,2.7-2.6,6.7-1.2,10.3c0.5,1.5,1.6,2.7,2,4.2c0.4,1.3,0.8,3.1,0.1,3.9c-0.6,0.7-2.5,0.6-3.8,0.3c-1.7-0.3-3.4-1.1-5.2-1.7
		c-1.6,5.2-3.1,10.1-4.5,15c-1.1,3.6-2.9,4.3-5.3,1.4c-2-2.3-3.4-5.2-5.4-8.5c-2.6,4-5.4,7.8-7.5,11.9c-0.6,1.2,0.5,3.5,1.3,5
		c1.5,2.7,3.4,5.2,5.4,8.3c1.6-1.5,2.9-2.8,4.3-4c0.7-0.6,1.9-1.3,2.6-1.1c0.6,0.2,1.1,1.6,1.3,2.5c1.2,8.5,2.3,17,3.3,25.5
		c0.1,0.9,0.3,2-0.1,2.6c-3.6,4.7-1.2,10.2-2.1,14.2c2.8-3.4,6-7.4,9.2-11.3c2.8-3.4,6.4-5.2,10.9-5c8.9,0.4,18.2-0.4,26.7,1.6
		c14.6,3.5,26.3,11.9,24.9,31c-1,13.3-3.8,26.2-7.7,38.9c-2.3,7.7-4.2,15.6-6.6,23.2c-3.5,10.9-7.2,21.7-11.3,32.4
		c-3.1,7.9-7.1,9.6-15.5,7.8c-0.1,0-0.3-0.1-0.4-0.1c-10.6-2-9.5-4.2-11.6,7.9c-3.5,19.8-5.6,39.9-9,59.7c-1.3,7.9-0.4,14,4.9,20.5
		c3.4,4.2,5.3,10.6,5.7,16.2c1,13.2-0.2,26.4-5.2,38.8c-5.1,12.8-13.5,22.6-28.1,24.9c-7.8,1.2-15.8,1.4-23.6,2.5
		c-13.8,2-27.5,4.1-41.2,6.6c-1.7,0.3-3.7,3.5-4.2,5.6c-0.7,3.3-0.2,6.9-0.2,10.7c4.7-0.2,9.3-0.4,13.9-0.6
		c46.1-2.6,92.2-5.3,138.3-7.8c31.7-1.7,63.4-3.1,95.1-4.7c19.7-1,39.5-2.1,59.2-3c2.7-0.1,3.2-1.2,3.2-3.5
		c0.6-20.5-1.2-40.8-3.5-61.1c-3.1-27-6.1-54-9.1-81c-2.7-23.4-5.4-46.8-8.1-70.1c-0.4-3.1-0.6-6.2-1.2-9.3
		c-0.4-1.8-1.3-3.6-1.9-5.4c-0.7-2.1-1.9-4.2-1.7-6.2c1.7-19.7-1.8-39.1-2.9-58.6c-1.1-18.7-2.7-37.4-3.6-56.1
		c-2-43-3.4-86.1-5.8-129c-1.4-26.1-4.2-52.1-6.5-78.1c-3.1-35.3-3.7-70.6-1.3-106c1.4-20.8,2.9-41.5,7.3-61.9
		c0.7-3.5,1.8-7.1,3.2-10.4c0.5-1.2,2.3-1.8,3.5-2.7c-0.2,1.3-0.4,2.5-0.7,3.8c-1.6,6.6-3.8,13-4.8,19.7c-6.4,43.9-8.8,88-5.7,132.3
		c2.1,31,5.3,61.9,7.6,92.9c1.4,18.7,1.8,37.4,2.7,56.1c2.3,44.4,4.5,88.9,6.9,133.3c0.7,13.6,2.2,27.2,3.3,40.9
		c33.5-1.7,66.6-3.5,100.3-5.2c-0.9-7.9-1.5-15.2-2.7-22.3c-1.3-7.3-0.6-8.8,7.1-10.2c15.1-2.7,30.2-5.2,45.4-7.8
		c0.5-0.1,1-0.2,1.6-0.3c-4.8-9.8-2.3-20.1-2.6-30.2c0-0.8,2-2.1,3.2-2.3c19.3-2.3,38.7-4.5,58-6.8c0.4,0,0.7-0.2,0.8-0.2
		c0.5-11,0.9-21.9,1.4-32.7c0.8,1.6,2.3,3.2,2.3,4.8c0.1,7.3-0.2,14.6-0.3,21.8c0,1.9,0.4,3.8,0.6,6c27.6-2.1,54.7-4.1,82.1-6.2
		c0-9.7,0-19,0-28.8c-14.3,0-28.6,0-44,0c0,9.5,0,18.8,0,28.1c0,1.3-0.3,2.5-0.4,3.8c-0.6,0-1.1-0.1-1.7-0.1
		c-2.6-10.5-1-21-0.4-31.4c-4.8,0-9.7-0.2-14.6,0.1c-7.9,0.5-15.8,1.3-23.6,1.9c-6.6,1.1-13.2,2.3-19.9,3.1c-6.1,0.8-7.2,1-7.4,7.1
		c-0.2,6.4,0.9,12.8,1.5,19.2c0.1,1.2,0.5,2.4,0.8,3.5c-0.3,0.2-0.6,0.4-1,0.6c-0.8-0.7-2-1.3-2.3-2.2c-3-9.2-4-18.6-0.5-27.9
		c0.5-1.4,2.8-2.6,4.4-2.9c16.1-2.1,32.3-3.9,48.4-5.8c0.4,0,0.7-0.3,0.5-0.2c0-7.8-0.1-15.3,0.1-22.8c0-1.6,0.9-3.2,1.3-4.8
		c0.7,0.1,1.3,0.2,2,0.3c0,8.8,0,17.6,0,26.8c12,0,23,0,34,0c0-10.4,0-20.7,0-31.5c-4.7,0-8.8-0.4-12.9,0.1
		c-15.4,1.6-30.8,3.2-46.1,5.3c-8.1,1.1-8.7,2.4-8.6,10.5c0.1,3.9,0.4,7.8,0.3,11.7c0,0.9-1,1.8-1.5,2.7c-0.7-0.7-1.7-1.3-1.9-2.1
		c-2.1-6.8-3.4-13.6-2.3-20.7c0.2-1,1-2,1.5-2.9c0.8,0.5,1.6,1,2.1,1.4c2.7-1.2,5.2-2.4,8.1-3.8c-0.1-1-0.2-2.1-0.4-3.2
		c-1.7-8.8-3.4-17.6-5.1-26.4c-0.7-3.4,0.4-5.2,4-5.7c2.9-0.3,5.9-0.9,8.6-1.3c-1.5-9.3-2.9-18.4-4.4-27.8c-2.2-0.1-4.3-0.3-6.5-0.4
		c-3.1-0.1-4.6-1.4-4.8-4.8c-0.5-6.1-1.6-12.1-2.3-18.2c-0.1-1,0.4-2,0.6-3c0.8,0.8,2.2,1.6,2.3,2.5c1,5.4,2.2,10.8,2.3,16.2
		c0.1,4.3,2.3,4.6,5.4,4.6c12.5-0.3,25-0.6,37.4-0.9c2.2-0.1,4.4,0,7.1,0c-0.1-7.9,1-15.4-1.7-22.7c-0.4-1-2.3-2.1-3.5-2.1
		c-7.4,0-14.8,0.2-22.2,0.7c-6.5,0.4-12.9,1.2-19.4,1.7c-1,0.1-2.1,0.2-3.1-0.1c-0.7-0.2-1.2-1.1-1.8-1.6c0.6-0.4,1.1-1.2,1.7-1.3
		c2.2-0.2,4.4-0.3,6.6-0.3c2.2-0.1,3.4-0.9,3.2-3.3c-0.3-4.7-0.5-9.3-0.7-14c-0.1-1.8,0-3.5,0-5.9c-3,0.5-6.1,1.2-9.2,1.7
		c-4.2,0.7-5.1,0-5.4-4.3c-0.3-5.2-0.8-10.3-0.9-15.5c-0.1-2.7,1.1-4.6,4.4-4.6c3.2,0,6.5-0.4,9.7-0.4c2.4,0,3.1-1.2,3.1-3.4
		c0-3,0.5-6,0.4-9c-0.2-4,1.5-6.1,5.5-6.4c1-0.1,2-0.4,3.5-0.7c-0.2-2.6-0.6-5.1-0.6-7.7c-0.1-12.7-0.1-25.5-0.1-38.2
		c0-2.8,1.1-3.1,3.7-2.4c10.7,3,21.1,7.5,32.5,7.5c1.2,0,2.4,1.1,3.6,1.6c-1.2,0.7-2.3,1.8-3.6,2.2c-9.9,2.7-19.8,5.3-29.7,7.9
		c-2.5,0.7-3.4,2.2-3.3,4.9c0.2,8,0.1,16.1,0.1,24.7c3.6,0,6.6-0.1,9.5,0c4.1,0.2,5.3,1.6,4.8,5.7c-0.4,3.5-0.9,6.9-1.4,10.9
		c2.1,0,3.8,0,5.4,0c4.4,0.1,5.4,1,5.2,5.3c-0.1,4.7-0.6,9.3-0.7,14c-0.1,5.6,0,5.6-5.7,5.5c-3.9,0-7.8,0-12.5,0
		c1.1,0.6,1.5,1,1.8,1c9.3,0.3,10.8,7.4,12.5,14.3c0.5,1.9,0.5,3.8,0.8,5.8c0.2,0.2,0.4,0.5,0.6,0.5c7.2,1,7.3,1,8.9,8.1
		c0.7,3.1,0.7,6.4,0.9,9.7c0.1,2.1-0.2,4.2-0.1,6.2c0.4,6.7,0.4,6.7-6.2,7.2c-0.8,8.5-0.3,17,3,25.1c0.4,0.9,2.5,1.5,3.9,1.6
		c6.9,0.3,7.6,1.1,7.8,8.1c0.2,7.4,0.9,14.7,1.4,22.1c0.2,2.4,1.4,3.2,3.9,3.1c35.4-0.5,70.8-0.9,106.1-1.3c3.1,0,6.2-0.4,9.2-0.6
		c0-11.2,0-22.1,0-33.3c-15.5,0-30.7,0-45.9,0c1.1,11.6,2.2,22.9,3.2,34.1c-0.6,0.1-1.2,0.1-1.7,0.2c-4.2-10.7-2.4-22.4-4.7-34.2
		c-12.4,0.7-25.5,1.3-39.4,2.1c0,5.1,0,10.1,0,15.1c0,3.8-0.1,7.5-0.4,11.3c-0.1,0.9-1.3,1.6-2,2.5c-0.6-0.9-1.7-1.8-1.7-2.6
		c0.2-9.1,0.5-18.2,1-27.3c0.1-0.9,1.6-2.5,2.5-2.6c6.6-0.4,13.2-0.4,19.8-0.5c14.3-0.4,28.6-0.8,42.9-1.3c1.4,0,2.8-0.1,3.9-0.2
		c-0.5-8.3-1.1-16.4-1.6-24.5c0-0.6-0.3-1.4,0-1.9c0.5-0.9,1.2-1.7,1.8-2.5c0.5,0.9,1.4,1.8,1.4,2.7c0.3,6,0.4,11.9,0.8,17.9
		c0.2,2.7,0.8,5.4,1.4,9.1c14.7-1.1,29.4-2.2,44.4-3.3c-1.3-10.5-2.5-20.1-3.7-29.8c-6.8,0-13.9-0.3-21,0.1
		c-18.3,1-36.6,2.4-54.9,3.5c-7.6,0.5-10.1,2.7-9.8,10.4c0.2,4.4,0.9,8.8,1.2,13.2c0.1,1.2-0.7,2.5-1.1,3.7c-0.8-1-2.1-1.9-2.2-3
		c-0.7-5.4-1.4-10.9-1.5-16.3c0-3.8,3.2-9.9,8.4-10.4c2.2-0.2,4.4-0.6,6.6-0.7c18.9-1.2,37.9-2.6,56.8-3.6c12.5-0.7,25-0.8,37.4-1.2
		c2.2-0.1,4.3-0.3,6.2-0.5c-1.3-9.1-2.6-17.8-3.7-26.5c-0.3-2.5-1.2-3.2-3.8-2.9c-11,1.1-22,2.2-33,2.8c-4.1,0.3-5.5,2.3-5.3,5.8
		c0.2,5.6,0.7,11.1,1,16.7c0,1-0.5,2-0.8,2.9c-0.7-0.8-2-1.5-2-2.4c-0.7-7.2-1.2-14.4-1.9-22c-3.3,0.4-7.2,0.9-11.2,1.2
		c-8.3,0.6-16.6,1.1-24.9,1.5c-2.5,0.1-3.8,0.9-3.5,3.3c0.7,6.2,1.5,12.4,2.2,18.5c0.2,1.6,0.2,3.1,0.3,4.7
		c-0.4,0.1-0.8,0.3-1.2,0.4c-0.6-0.9-1.6-1.8-1.7-2.7c-0.9-8.1-1.8-16.2-2.5-24.3c-0.3-3.1,0.8-3.6,4.2-3.4
		c6.6,0.5,13.3,0.1,19.8-0.5c14.5-1.2,29-2.8,43.9-4.3c-0.7-4.3-1.4-8.5-1.9-12.7c-0.4-3.2-0.7-6.5-0.7-9.7c0-1,1.2-2,1.8-2.9
		c0.4,1,0.9,2,1.1,3c0.9,7.2,1.6,14.4,2.5,22.1c4.1-0.3,7.5-0.6,11-0.9c7.9-0.7,15.8-1.5,23.7-2.1c2.4-0.2,3-1.1,3-3.4
		c0-5.3-1-10.2-3.7-15c-2.5-4.4-5.5-6.5-10.9-6.1c-21,1.3-41.9,2.2-62.9,3.2c-1.1,0.1-2.3,0.3-3.6,0.5c0.4,7.3,0.8,14.3,1.1,21.4
		c0,0.6-0.3,1.7-0.7,1.8c-0.6,0.1-1.8-0.2-2-0.6c-0.6-1.8-1.2-3.7-1.3-5.5c-0.2-5.2-0.1-10.4-0.3-15.5c-0.2-2.9,0.8-4.5,3.7-4.8
		c5.3-0.5,10.6-0.9,16.3-1.4c-0.8-5.3-1.5-10.3-2.4-15.2c-1.4-7.3-0.4-8.7,7-9.6c1.9-0.2,3.8-0.6,6-0.9c-0.6-4.2-1.2-8-1.6-11.9
		c-2.1-22.4-0.8-44.7,0.2-67c1-21.4,3-42.8,1-64.3c-0.9-9.8,0.1-19.8,0-29.6c-0.1-6.5,2.1-8.1,8.8-4.9c1.2-1.3,2.5-2.7,3.7-4.2
		c17.7-21.7,40.5-34.8,67.9-40.6c14.5-3.1,28.3-8.6,41.3-16c14.7-8.5,25.2-21.2,35.1-34.5c0.5-0.6,0.9-1.3,1.3-1.9
		c4.1-5.9,9.2-5.8,12.6,0.8c2.9,5.5,5.5,11.2,7.6,17.1c6.2,17.1,14.3,33.1,25,47.9c7.7,10.7,15.2,21.4,22.6,32.3
		c3.8,5.6,5.5,12,5.7,18.8c0.1,2.6-1,3.9-3.8,3.5c-19.3-2.8-38.1,0.2-56.6,5.4c-25.5,7.1-48.4,19.4-69.5,35.4
		c-6.1,4.6-12.3,9.1-18.5,13.7c-0.7,0.5-1.4,1.2-2.3,1.5c-1,0.3-2.1,0.2-3.2,0.3c0.5-0.9,0.7-2.1,1.4-2.7c2.9-2.4,6-4.5,9-6.8
		c16.7-12.7,33.8-24.9,52.9-33.6c20.7-9.4,42.3-16,65.3-16.8c7.1-0.3,14.2,0,21.9,0c0-6-1.6-11.8-5.1-16.9
		c-7.6-11-15.3-22-23.1-32.9c-10.2-14.3-18-29.8-24.2-46.1c-2.2-5.7-4.5-11.4-7.2-16.8c-1-2.2-3.2-3.8-5.3-6.1
		c-2.3,3.3-4.2,5.7-5.9,8.2c-18.1,26.8-44.1,41.4-74.8,49.2c-11.7,3-23.4,6.6-34.2,11.7c-13,6.1-23.3,16.2-33.1,26.9
		c-4.4,4.8-5.8,9.4-6,15.7c-0.4,13.1-2.1,26.2-3.2,39.2c-1.5,16.8-3.2,33.7-1.1,50.6c0.2,1.4,0.4,2.8,0.6,3.9
		c21.6-4.6,41.1-13.9,60.8-22.6c0.9-0.4,2,0,3.1,0c-0.6,0.9-1.1,1.8-1.7,2.7c-0.1,0.2-0.4,0.3-0.7,0.4
		c-17.2,6.7-34.3,13.5-51.5,20.1c-2.2,0.8-4.4,1.5-6.7,2c-3,0.6-3.4,2.6-3.2,5.2c1.1,15.2,2.3,30.3,3.2,45.5
		c0.3,5.5,0.1,11.1,0.1,17.1c3.7-0.6,6.9-1.3,10.2-1.7c3.6-0.4,7.2-0.7,10.9-0.8c4.1-0.1,5.3,1.1,5.3,5.4c0,5.5-0.2,10.9-0.4,16.4
		c0,1.7,0,3.3,0,5.7c2.9,0,5.7-0.4,8.3,0.1c2.1,0.4,4.6,1.3,5.9,2.9c4.7,5.3,7.6,11.4,7.3,18.8c-0.1,1.5,0,3.1,0,4.5
		c4.8,0,9,0.1,13.3,0c3.2-0.1,5.4,0.9,6.2,4c2,7.5,4.1,15,5.8,22.6c0.4,1.8-0.4,3.8-0.7,5.7c-0.6,0-1.1,0-1.7-0.1
		c-0.2-1-0.4-2.1-0.6-3.1c-1.8-7.8-3.5-15.7-5.6-23.4c-0.3-1.2-2.1-2.8-3.1-2.8c-11.2,0.7-22.4,1.7-34,2.6c1.4,10.3,2.8,19.9,4,28.8
		c8.5,0,16.3,0,24.1,0c8.6-0.1,17.2-0.4,25.7-0.2c8.9,0.2,15.5,7.7,15.4,16.7c-0.1,3.3,0.1,6.7,0.4,10c0.2,2.4,1.7,3.2,4,3.1
		c3.9-0.1,7.8,0.2,11.7,0.1c2.5,0,3.8,1.2,4.2,3.6c1.6,8,3.4,16,4.9,24c0.8,4.1,1.3,8.2,1.9,12.3c7,0,14.2,0,21.7,0
		c-0.6-7-0.9-13.3-1.6-19.6c-0.7-6.1-0.6-6.4,5.4-8c1-0.3,2-0.5,3.2-0.9c-0.6-8.7-1.2-17.4-1.7-25.9c-0.3-0.2-0.5-0.5-0.7-0.5
		c-9-1.1-9.1-1.1-11.5-9.8c-1.7-6.1-3.2-12.3-4.6-18.5c-0.2-0.7,0.4-1.5,0.6-2.3c0.7,0.4,1.8,0.7,2,1.3c0.8,1.9,1.3,3.9,1.8,5.9
		c1.4,5.4,2.8,10.8,4,16.3c0.6,2.7,1.9,3.8,4.5,3.7c10.1-0.3,20.3-0.7,30.4-0.9c2.5-0.1,5.1,0.7,7.6,0.6c1.2,0,3.4-0.9,3.5-1.5
		c0.4-8.2,0.5-16.3,0.6-24.5c0-2.6-1.7-3.3-3.9-3.2c-14.3,0.7-28.6,1.4-43,2.1c-1,0.1-2.1,0.2-3.1-0.1c-0.7-0.2-1.3-1-1.9-1.5
		c0.7-0.5,1.3-1.4,2-1.4c3.5-0.1,6.9-0.1,11.2-0.1c-1-5.5-1.8-10.2-2.6-14.8c-1.3-7.4-1.3-7.4-8.7-5.9c-1.5,0.3-3.1,0.7-4.6,0.7
		c-0.8,0-1.7-0.7-2.5-1.1c0.7-0.6,1.3-1.6,2-1.8c10.6-1.9,21.2-3.7,31.9-5.3c5.3-0.8,10.7-1.1,15.8-1.6c0-8.4,0-16.7,0-25.6
		c-4.5,0.4-8.6,0.8-12.7,1c-9,0.5-17.9,1-26.9,1.4c-7.8,0.4-7.8,0.3-7.9,8.1c-0.1,6.7,0,13.5,0,20.2c0,0.4-0.4,0.9-1.1,2.2
		c-1-1.7-2.1-2.7-2.1-3.8c0-8.3,0.3-16.6,0.5-25c0.1-3.2,1.9-4.2,4.8-4.4c3-0.2,5.9-0.6,9.8-1c-1.5-6.6-3-12.9-4.5-19.3
		c-0.4-0.1-0.9-0.2-1.3-0.3c1.2-0.6,2.3-1.3,3.5-1.6c2.1-0.5,4.4-0.7,6.5-1.1c8-1.5,6.4-0.4,6.3-7.6c-0.2-16.2-0.5-32.5-0.8-48.7
		c0-2.6,0-5.2,0-7.8c0.5-0.1,0.9-0.3,1-0.1c8.5,8.3,19.8,9,30.6,11.2c4.5,0.9,8.9,1.8,13.3,2.9c0.9,0.2,1.7,1.2,2.5,1.9
		c-0.9,0.6-1.7,1.5-2.7,1.6c-12.4,1.1-24.4,4-36,8.5c-0.8,0.3-1.8-0.1-2.8-0.2c0.7-0.9,1.2-2.4,2.1-2.7c7.2-2.3,14.4-4.4,21.7-6.5
		c1.7-0.5,3.4-0.7,5.5-1.1c-10.9-2.7-21.3-5.4-31.9-8c-1.6,4.8-0.9,46,1.4,54.7c1.9-0.2,3.8-0.6,5.7-0.6c0.8,0,1.7,0.8,2.5,1.2
		c-0.7,0.6-1.3,1.5-2.1,1.7c-5.7,1.1-11.5,2.1-17.3,3.1c-1.2,0.2-2.5,0.5-4,0.8c1.1,5.9,2.1,11.5,3.4,17c0.1,0.6,1.5,1.5,2.2,1.5
		c5.6-0.2,11.2-0.5,16.8-0.8c2.3-0.1,2.1-1.6,2.1-3.3c0.1-5.1,0.2-10.3,0.9-15.4c0.3-2.2,2.1-4.2,3.3-6.3c0.5,0.2,1.1,0.3,1.6,0.5
		c-0.2,1.3-0.1,2.8-0.7,3.7c-3.7,5.7-2.8,12-2,18.1c0.1,0.7,1.5,1.5,2.4,1.7c1.2,0.2,2.6-0.3,3.9-0.4c4.4-0.3,5.2,0.6,5.4,5
		c0.4,8,0.9,16,1.2,24c0,0.9-1,2.3-1.8,2.7c-1.3,0.6-3,0.6-4.4,0.8c1.4,8.1,2.8,15.8,4.2,23.7c1.4,0.2,2.7,0.3,4,0.5
		c2.7,0.4,4.3,2.1,4.3,4.7c0,7-0.2,14-0.3,21c0,1.2-0.6,2.4-0.3,3.5c1.1,3.7,0,5.8-3.2,6.1c1.3,6.6,2.7,13,4,19.4c0.4,2,1,3.2,3.4,4
		c4.8,1.5,8.2,4,8.4,10.1c0.2,5,2.5,10,3.7,15c0.3,1.1,0.1,2.3,0.1,3.5c-1-0.8-2.6-1.4-2.9-2.4c-1.6-5.3-3.1-10.7-4.2-16.2
		c-0.9-4.7-3.4-7.7-8.2-7.4c-11.5,0.8-23,1.8-34.5,3.2c-2.7,0.3-5.2,1.8-8.2,1.6c-1.6-0.1-3.7,0.3-3.4,3.1
		c0.7,6.8,1.3,13.7,1.9,20.9c1.8,0,3.4,0,5.1,0c10.7-0.2,21.3-0.3,32-0.5c7.9-0.1,15.9-0.3,23.8-0.6c3-0.1,4.2,0.9,4.7,4.1
		c1.3,8.3,3.3,16.5,5,24.8c0.3,1.5,0.3,3.1,0.4,5.1c2.9,0.2,5.9,0.5,8.8,0.5c3.4,0,5,1.3,6,4.7c2.4,7.9,5.3,15.7,8.3,23.4
		c0.3,0.8,2.2,1.3,3.4,1.6c11.5,2.1,23.1,3.6,34.4,6.3c9,2.1,10.9,5.4,10.5,14.6c-0.3,5.4-1,10.8-1.5,16.5
		c5.9,0.3,11.3,0.5,16.7,0.8c5.8,0.3,6.1,0.6,7.3,6.1c3.2,15.4,6.3,30.8,9.5,46.2c0.6,3.1,0,5.1-3.6,5.4c-1.7,0.1-3.3,0.9-5,0.9
		c-0.8,0-1.6-0.9-2.3-1.4c0.6-0.5,1.2-1.4,1.9-1.6c1.8-0.5,3.8-0.8,6-1.3c-1.4-7.8-2.7-15.4-4.2-23c-1.6-8.2-3.6-16.2-5.2-24.4
		c-0.5-2.3-1.2-3.9-3.9-3.8c-0.8,0-1.5-0.3-2.3-0.3c-9.4-0.6-19,0.8-28.3-2.1c-1.2-0.4-2.6-0.1-3.6-0.1c0,17.8,0,35.6,0,53.3
		c-0.2,0.2-0.5,0.3-0.7,0.5c-0.6-1.5-1.8-3-1.8-4.5c-0.1-6.5,0.2-13,0.1-19.5c-0.2-9.8-0.7-19.7-1-29.3c-8.1-1.8-27.5-0.1-29,1.7
		c-3.9-0.3-7.2-0.8-10.5-0.8c-17.8,0.4-35.6,0.9-53.4,1.4c-1,0-2.1,0.1-3.9,0.2c-0.5,3.8-1.5,7.6-1.3,11.3c0.4,12,1.3,23.9,1.9,35.8
		c0.1,1-0.7,2.1-1,3.2c-0.6-1-1.7-1.9-1.8-2.9c-1.5-15.6-3.5-31.2-1.2-47.7c-5.9,0.4-11.7,0.7-17.6,1.1c-7.8,0.4-15.5,1.1-23.3,1
		c-5.8-0.1-7.7-2.3-8.4-8.2c-0.7-6-1.3-12.1-1.7-18.2c-0.5-6.6-2.5-8.5-9.1-9.1c-21-1.7-41.8-0.9-62.7,0.9
		c-4.6,0.4-9.3,0.1-15.1,0.1c-0.1,6.5-0.3,12.8-0.1,19.1c0.2,9.4,0.6,18.7,1.1,28.1c0.5,9.1,1.3,18.2,1.9,27.2
		c0.1,2.2,0.9,3.1,3.2,3.3c31.3,3.2,62.5,7.2,93.9,9.6c23.3,1.8,46.8,1.9,70.2,2c35.3,0.3,70.5,0,105.8-0.2c5.6,0,11.2-0.7,16.7-0.9
		c4.6-0.2,5.5,0.8,5.4,5.4c-0.2,7.7-0.4,15.3-0.9,23c-0.4,6.1-2.9,7.8-9,8.1c-7.4,0.4-14.8,1.3-22.1,2c-13.3,1.3-26.6,2.6-40,3.8
		c-7.2,0.7-8.9,2-9.5,9.1c-2.2,27.8-6.8,55.5-6.3,83.5c0.3,15.1-0.9,30.2-0.9,45.3c0,9.2,1,18.4,1.6,27.6c0.5,9.1,1,18.1,1.6,27.7
		c1,0,2.3,0,3.7,0c34.5-0.9,68.9-1.8,103.4-2.6c4.1-0.1,8.3,0.5,12.4,0.8C1546.9,856.1,1546.9,856.9,1546.9,857.7z M415.5,711
		c-1-1-1.9-2.1-3.1-2.8c-7.8-4.7-15.8-9.1-23.5-13.9c-2.4-1.5-3.6-1.3-5.4,0.9c-8.4,10.1-17.4,19.7-28,27.6c-3.2,2.4-6.2,5-9.4,7.5
		c0.4,0.8,1.2,1.9,1,2.3c-1.8,2.7,0.1,4.6,1,6.8c0.5,1.3,1.1,2.7,1.6,4c5.4,13.3,10.2,27.1,23.8,34.8c0.5,0.3,0.5,1.3,0.7,1.9
		c-0.7,0.2-1.6,0.8-2,0.5c-2.5-1.3-5.3-2.4-7.1-4.4c-7.9-8.7-13.8-18.8-17.7-30c-1.5-4.2-3.3-8.3-4.8-12.1
		c-5.2,1.2-9.8,2.4-14.5,3.3c-6.6,1.3-13.4,1.9-19.9,3.7c-27.6,7.8-55.3,15.7-82.7,24.2c-12.4,3.8-24.5,8.7-36.2,14.3
		c-14.5,6.8-28.7,14.1-45.2,14.5c-6.1,0.1-9.9,4-12.6,8.7c-9.6,16.4-16.8,33.7-17.2,53.2c-0.1,3.4,0.8,4.9,4.2,4.7
		c2.8-0.2,5.7-0.2,8.5-0.6c4.6-0.7,9.2-2.1,13.8-2.4c15.5-1.2,31.1-2.5,46.7-2.9c6.8-0.2,13.6,1.6,20.4,2.6c2.3,0.3,4.6,1,6.9,1.2
		c9.1,0.9,18.1,1.7,27.2,2.6c1.3,0.1,2.7,0.3,3.9,0c7.2-2.1,14.6-3.6,21.5-6.5c20.5-8.6,42.1-14.4,62.4-23.8
		c11.7-5.4,25.6-6.2,38.5-9.3c5.9-1.4,11.7-3.1,17.6-4.7c0-0.6-0.1-1.3-0.1-1.9c-3.7-0.8-7.5-2.1-11.2-2.3c-6.1-0.4-12.2,0-18.3,0
		c-0.9,0-1.9-0.5-2.8-0.7c0.4-1,0.5-2.3,1.1-3c2.1-2.3,4.6-4.3,6.8-6.4c6.7-6.7,13.7-13.1,20-20.1c7.1-7.9,14-16.1,20.3-24.7
		c3.3-4.5,5.8-9.8,7.7-15.1c3.3-9.3,4.8-18.9,3.5-28.8C412.5,711.5,413.2,710.3,415.5,711c0.2,3.2,0.6,6.4,0.4,9.7
		c-0.7,16-3.8,31.3-15.7,43.3c-1.5,1.6-2.9,3.4-4.2,5.1c-10.1,13.1-20.8,25.7-33.5,36.4c-1.1,1-2.1,2-3.2,3.1
		c0.1,0.4,0.2,0.8,0.4,1.1c5.8,0,11.9-1.2,17.4,0.3c9,2.3,17.6,6.3,26.3,9.6c12.4,4.8,21.2,13.6,26.9,25.3c3.9,7.8,7,15.9,10.5,23.9
		c1.7,3.9,3.5,7.6,5.7,12.2c4.2-10.2,8.2-19.6,12-28.9c8.8-21.5,21.6-40,40.5-53.9c1.2-0.9,3.1-1,4.6-1.5c-1,1.3-1.7,3-3,4
		c-13.2,10.7-25,22.4-32.2,38.1c-5.5,11.9-10.7,24-15.9,36c-1.5,3.3-2.5,6.8-4,10.2c-0.3,0.8-1.4,1.6-2.2,1.8
		c-0.5,0.1-1.6-0.8-1.9-1.5c-2.6-6.2-4.8-12.6-7.7-18.7c-4.4-9.4-8.5-19-13.9-27.8c-6.2-10.2-16.8-15.1-27.6-19.4
		c-3.4-1.3-5.9-1.1-9.2,0.2c-5,2-10.3,3.6-15.5,4.8c-12.4,2.9-24.9,5.3-37.3,8.1c-3,0.7-5.9,2.1-8.6,3.7c-1.3,0.8-2.8,2.8-2.6,4.1
		c1.3,7.8,2.3,15.7,4.8,23.1c1.3,3.9,5.1,7.6,8.7,10c5,3.3,10.7,5.9,16.4,7.9c13.8,5,28,8.7,42.8,10.2c1.1,0.1,2,1.1,3,1.7
		c-1.2,0.4-2.4,1.2-3.5,1.2c-3.1-0.2-6.2-0.8-9.3-1.3c-16.6-2.7-32.7-7.3-47.8-14.9c-9.2-4.6-14.4-12-16.2-22.1
		c-1-5.4-2-10.8-3-16.4c-2.5,1-5,2-7.5,2.9c-12.5,4.5-25.1,8.4-37.4,13.5c-12.9,5.3-25.6,10.1-39.9,7.4c-10.4-1.9-21.3-1-31.6-4.6
		c-1.8-0.6-3.8-1-5.8-0.9c-15.1,0.4-30.2,0.7-45.2,1.7c-8.5,0.6-16.8,2.5-25.2,3.8c-0.2,0.4-0.3,0.9-0.5,1.3
		c1.1,1.2,2.2,3.5,3.3,3.5c5.3-0.1,5.2,3.4,5.6,7.1c1.3,14.1,2.7,28.2,3.8,42.3c0.2,2.8,1.1,3.7,4,3.7c35-1,70-1.9,105-2.8
		c5-0.1,10.1-0.6,15.2-0.9c0.6-5.2,0.8-10.1,1.8-14.9c0.5-2.4,2.6-4.5,4.2-6.6c0.3-0.4,1.6,0,2.4,0c-0.1,0.7-0.1,1.5-0.4,2.1
		c-0.8,1.1-2.4,2-2.7,3.2c-1,5.2-1.6,10.4-2.4,16.2c10.7-0.5,20.5-1,30.6-1.5c-0.2-1.7-0.3-3-0.5-4.3c-2-13.5,4.6-24.4,10.9-35.4
		c0.4-0.6,1.7-0.7,2.6-1.1c0,0.9,0,1.9-0.2,2.8c-0.2,0.7-0.8,1.4-1.1,2c-5.2,9.8-10.6,19.4-9.1,31.3c0.4,3.2,1,4.6,4.6,4.3
		c8.8-0.8,17.7-1,26.5-1.8c2.2-0.2,4.6-1.4,6.4-2.7c5.9-4.1,10.9-10.1,19.1-8.8c4.7,0.7,9.4,2,14,3.4c1.4,0.4,2.3,2,3.6,2.8
		c1.5,0.9,3.2,2.2,4.8,2.1c8.7-0.3,17.4-1,26.1-1.5c10.5-0.6,21-1,31.6-1.8c1.3-0.1,3.3-1.2,3.7-2.2c1.1-3.4,1.6-7,2.4-10.7
		c-1.1,0-2.3-0.2-3.4,0.2c-8.8,3.2-17.8,1.6-26.7,1.4c-1.6,0-3.2-0.9-4.7-1.4c1.7-0.5,3.4-1.5,5-1.4c8.7,0.3,17.3,0.5,26-1.4
		c8.4-1.9,17-2.7,25.5-3.8c4.6-0.6,9.4-0.5,14-1.1c26.4-3.6,52.8-7.4,79.1-11.1c8.4-1.2,15-5.2,20.3-11.8
		c7.2-9.1,9.9-19.7,10.8-30.8c0.6-7.1,1.5-14.5,0.3-21.3c-3-16.5-18.2-28.6-35-29.1c-2.8-0.1-5.8-0.2-8.5,0.6
		c-9.7,2.8-19.3,6.1-29,9c-0.9,0.3-2.1-0.6-3.2-1c0.8-0.6,1.6-1.6,2.5-1.8c7.6-2.3,15.2-4.4,22.8-6.7c4.3-1.3,7.7-3.9,8.8-8.4
		c1.7-6.9,2-13.6-1-20.5c-2.7-6.2-3.9-13.1-5.4-19.8c-1-4.8-1.3-9.7-2-14.6c-1.4,4.7-2.3,9.4-3.1,14.1c-0.8,4.9-1.8,9.7-2.4,14.6
		c-0.7,6.2-4.1,10.8-10.3,11.4c-4.3,0.4-9.2-0.2-13.2-1.8c-31.4-12.6-62.2-26.5-90.2-45.9C417,711.4,416.2,711.2,415.5,711z
		 M870.2,883.6c0.8,0,1.9,0.1,3,0c28.4-1.6,56.9-3.2,85.3-4.8c29.3-1.7,58.7-3.5,88-4.9c40-2,80-3.6,120.1-5.4
		c21.1-0.9,42.1-1.6,63.2-2.5c35.5-1.5,71-3,106.4-4.5c19.9-0.9,39.8-1.9,59.6-2.6c3.6-0.1,4.8-1.5,4.8-4.8c0-1.8,0.1-3.6,0.2-5.5
		c0.7-15.9,1.4-31.7,2.1-47.6c0.8-17.3,1.8-34.5,2.4-51.8c0.8-24.7,1.2-49.4,1.7-74.1c0.1-2.5,0.4-5,0.6-7.9
		c-8.7,0.6-16.7,1.3-24.7,1.6c-20.5,0.8-41.1,1.2-61.6,2.2c-27.8,1.3-55.6,3-83.4,4.4c-10.1,0.5-20.3,0.6-30.4,0.8
		c-26.9,0.5-53.8,1.4-80.7,1.3c-19.5-0.1-39-1.5-58.5-2.5c-18.7-1-37.4-2.2-56.1-3.3c-25.7-1.4-51.4-3.2-77.1-4.1
		c-27.3-1-54.6-1.1-81.9-1.6c-1.8,0-3.6,0-5.4,0c-0.2,2.6-0.5,4.9-0.6,7.2c-1.1,15.3-3,30.6-3,45.9c0,15.3,2.9,30.6,3,45.9
		c0.1,33.7-0.7,67.4-1.2,101.1c-0.2,15-1,29.9-0.4,44.9c0.9,20.9,3.2,41.7,4.1,62.6c0.6,13.2,0,26.5-0.3,39.8c-0.1,2.8,0.6,4,3.6,4
		c4.2,0,8.3,0.1,12.5,0.4c2.6,0.2,3.9-0.6,3.8-3.4c-0.3-5.7,0-11.5-0.7-17.1c-2.2-16.8-4.2-33.6-3.8-50.5
		c0.9-38.1,1.9-76.2,2.9-114.3c0.2-9.4,0.4-18.7,1.1-28.1c0.9-11.8,2.6-23.5,3.3-35.3c1-19.1,1.7-38.2,2.2-57.3
		c0.3-13.4,0.1-26.7,0.2-40.1c0-1.2,0.3-2.4,0.4-3.5c0.4-0.1,0.8-0.1,1.2-0.2c0.4,1,1.1,2,1.2,3c0.3,5,0.8,10.1,0.6,15.1
		c-0.7,25.4-1.3,50.7-2.4,76.1c-0.5,10.8-2.4,21.4-3,32.2c-1.1,19.5-1.7,39-2.3,58.5C870,862.8,870.2,873,870.2,883.6z
		 M1191.2,613.3c0,0.2,0.1,0.5,0.1,0.7c-1.4-0.7-2.8-2-4.3-2.1c-17.9-0.6-35.9-1.4-53.8-1.4c-15,0-30.1,1.3-45.1,1.7
		c-15.3,0.5-30.7,0.6-46,0.9c-16.5,0.3-32.9,0.4-49.4,1.2c-13.5,0.6-27,1.8-40.4,3c-18.7,1.6-37.3,3.1-55.9,5.2
		c-19.6,2.2-39.3,4.3-59.1,4.8c-19.1,0.5-38.1,2.5-57.2,3.7c-3.8,0.2-4.5,2.2-4.3,5.3c0.6,6.1,1.3,12.2,1.7,18.3
		c0.2,2.5,1.3,4,3.5,4.5c5.2,1.2,10.4,2.9,15.6,3.1c15.1,0.6,30.2,0.5,45.2,0.8c46.6,1.1,93.1,2.1,139.6,3.5
		c18.1,0.5,36.1,2.1,54.1,3c32.2,1.8,64.4,4.2,96.6,4.9c26.1,0.6,52.3-0.8,78.4-1.5c15.9-0.4,31.7-0.9,47.6-1.6
		c23.6-1.1,47.3-2.6,70.9-3.7c18.2-0.9,36.4-1.3,54.6-2.2c8-0.4,16-1.7,24-2.3c9.9-0.7,19.9-1,29.8-1.7c11.4-0.9,22.8-2.1,34.2-3.2
		c9.8-1,19.6-2.3,29.4-3.1c6.2-0.5,7.7-1.4,8-7.7c0.3-6.4,0.3-12.8,0.8-19.1c0.2-3.3-0.8-4.4-4.1-4.1c-7.1,0.6-14.3,1.3-21.4,1.3
		c-48.7-0.2-97.3-0.3-146-1.1c-19.2-0.3-38.4-2.4-57.6-4.1c-27.8-2.5-55.6-5.5-83.4-8.1C1195.4,612.3,1193.3,613,1191.2,613.3z
		 M566.7,580.7c-1.6,0-2.8,0-4.1,0c-11.2-0.1-22.4-0.1-33.5-0.3c-3.5,0-7.1-0.7-10.5-0.2c-7.8,1.1-14.7,3.6-21.2,9.1
		c-6.1,5.2-10.3,11.1-14,17.8c-4.9,8.9-6.6,18.6-8.3,28.5c-1.7,10.1-4.1,20.1-6.1,30.1c-0.3,1.3-0.3,2.7-0.4,3.8
		c0.6,0.4,0.7,0.5,0.8,0.5c0.8,0,1.5-0.1,2.3-0.2c9.3-0.3,18.8-1.9,27.3,3.7c1.5,1,2.7,2.6,4,3.9c-1.8-0.4-3.8-0.3-5.2-1.2
		c-8.9-5.5-18.6-3.4-28.1-3.1c-0.6,0-1.1,0.5-2.5,1.2c3.5,3.4,6.2,6.9,9.7,9.4c5.4,4,11.3,7.3,16.9,10.9c0.7,0.5,1.1,1.5,1.6,2.3
		c-0.9,0.2-2,0.7-2.7,0.4c-3-1.3-6.1-2.4-8.7-4.3c-10.6-7.5-20-16.3-28.2-26.4c-4.7-5.8-10.4-10.1-16.9-13.6
		c-5.7-3.1-10.9-1.8-14.5,3.5c-1.8,2.7-3.5,5.5-5.3,8.2c-4.8,7.2-9.7,14.5-14.6,21.6c-0.5,0.8-1.8,1.1-2.7,1.7
		c0.1-1.1,0.1-2.3,0.2-3.4c0-0.3,0.4-0.7,0.6-1c6.9-10.4,14-20.7,20.7-31.2c2.4-3.7,4.4-7.7,5.9-11.8c2-5.5,0.6-7.8-5-9.6
		c-5.5-1.7-11-3.2-16.5-4.8c-2.3-0.7-4.7-1.3-7.1-1.9c-0.8,1.9-1.5,3.3-1.9,4.7c-3.2,11.2-10.5,19.3-19.8,25.7
		c-4.6,3.1-10,4.9-15,7.5c-4.4,2.3-4.9,5.7-1.1,8.9c6.4,5.3,12.8,10.7,19.7,15.3c15.4,10.1,31.2,19.7,46.8,29.5
		c2.1,1.3,4.2,2.6,6.3,3.8c21.7,12.1,43.9,23.3,67,32.5c3.7,1.5,7.5,3,11.4,4.1c6.1,1.8,14.7-1.1,14.5-9.5c0-1.4,0.6-2.8,0.8-4.2
		c1.4-11.3,3-22.6,4.2-34c1-10.1,1.2-20.2,2.4-30.3c2.4-20.3,8-39.7,16.6-58.3c0.4-0.8,1-1.6,1.6-2.3c0.5,0.2,1,0.4,1.5,0.6
		c-0.6,7.8-5.9,14.2-7.8,21.6c-1.9,7.7-4.4,15.3-5.6,23.1c-1.3,7.8-1.7,15.8-2,23.7c-0.3,7.8-0.1,15.7-0.1,24.2
		c1.3-3.3,2.3-6.3,3.6-9.2c5.9-13.2,11.4-26.5,14.7-40.6c0.9-3.7,1.6-7.4,3.1-10.9c3.7-8.6,5.4-17.5,4.6-26.9
		c-0.1-1-0.1-2.1-0.1-3.1c0.4-12.6,0.8-25.1,1.2-37.7C567,582.3,566.8,581.7,566.7,580.7z M157.7,269.3c0.3-0.3,0.6-0.7,0.9-1
		c-1.1-2-1.7-4.3-3.2-5.9c-8.3-8.8-17.5-15.5-30.5-15.9c-16.6-0.5-33.1-1.2-48.8,5.2c-11.6,4.7-23.1,9.9-32,18.9
		c-11.2,11.2-18.8,24.8-23.9,39.8c-0.5,1.5,0.1,3.7,1,5.2c1.8,3.1,4.6,5.8,6,9c3.6,8.7,9.7,14.6,17.6,19.4
		c11,6.6,23.2,9.2,35.4,11.3c21.9,3.8,43.4,2.6,64.1-7c8.3-3.9,13.7-9.6,17.8-17.5c8-15.7,9-31.8,4.3-48.7c-1.7-6-5.4-8.5-10.4-9.8
		c-9.4-2.5-18.9-4.7-28.5-6.6c-9.4-1.9-18.9-4.1-28.6-2.3c-21.4,3.9-40.1,13.5-56.6,27.4c-6.2,5.2-10.8,11.7-10.4,20.5
		c0,0.7-0.9,1.5-1.3,2.3c-0.6-0.8-1.6-1.6-1.6-2.3c0.3-3.2,0.5-6.5,1.5-9.5c2.4-6.7,7.2-11.6,12.7-16c13-10.3,27.6-17.7,43.3-22.8
		c8.6-2.8,17.5-4.4,26.5-2.8c12.4,2.3,24.7,5,37.1,7.5C152.7,268.2,155.2,268.8,157.7,269.3z M778.6,661.7c0.2,2.3,0.4,4.1,0.6,5.9
		c2.5,20.5,5,41,7.3,61.5c2.9,25.7,5.4,51.4,8.4,77.1c3,26,6.4,51.9,5.7,78.1c0,0.9,0.1,1.8,0.2,3.2c14-0.7,27.8-1.5,42-2.2
		c0-1.8,0-3.1,0-4.4c0.7-25,1.5-49.9,2-74.9c0.5-20.8,0.6-41.6-2-62.3c-3-23.7-1.7-47.2,1.5-70.7c0.7-5.2-0.8-7.1-6.2-7
		c-6.8,0.1-13.5,0.6-20.3,0.4C804.7,666.1,791.7,666.2,778.6,661.7z M1057.9,540.1c-1.8,0.1-3.1,0.2-4.5,0.3
		c-12.4,0.9-24.9,2.1-37.3,2.7c-3.8,0.2-5.2,1.4-4.9,5c0.7,6.8,1.5,13.6,2.2,20.5c0.1,1-0.6,2-1,3c-0.7-0.8-1.8-1.5-1.9-2.4
		c-0.9-7.1-1.7-14.1-2.4-21.2c-0.1-1.2,0-2.5,0-4.3c-13.2,1.2-26,2.3-39.1,3.5c0.4,8.1,0.7,15.5,1,22.9c0,1.2-0.6,2.4-1,3.6
		c-0.7-1.1-1.8-2.2-1.9-3.3c-0.4-2.6-0.4-5.2-0.4-7.8c-0.1-4.8,0-9.5,0-14.4c-13.9,1.8-26.7,3.5-40.2,5.2c0.5,9.1,1,18.5,1.6,28.2
		c2.3-0.3,3.6-0.5,4.8-0.7c25.5-4.5,51.2-7.5,77.1-8.2c13.5-0.3,27-0.1,40.5-0.7c15.7-0.6,31.3-2.6,47.1-1.1
		c4.5,0.5,9.1,0.3,13.6,0.4c2.1,0,3.6,0.9,3.4,3.3c-0.9,8.8,2,16.9,4.5,25.2c0.3,1.1-0.3,2.5-0.4,3.7c-0.8-1-2.1-1.9-2.4-3
		c-2.1-8.4-4.1-16.8-6.2-25.9c-5.2-0.2-11.6-0.5-18.7-0.8c0.6,10.9,1.2,21.1,1.8,31.4c0.2,3.1,1.5,4,4.7,3.9
		c25.3-1.1,50.7-2.1,76-0.5c4.9,0.3,9.8,0,14.9,0c-0.6-11.5-1.1-22.8-1.8-34c0-0.8-1.2-2.2-1.9-2.2c-6.5-0.2-13.1-0.1-19.8-0.1
		c0.9,10.8,2.9,21.6,7.8,32c-2.5,1.4-4,0.3-4.6-2.1c-1.9-7.5-4.7-15.1-5.3-22.7c-1.1-13.3-0.8-26.7-1.1-40.1c0-1.5,0-3,0-5.3
		c-18.9,1.9-37.3,3.8-55.2,5.6c0,5.9,0.3,10.9-0.1,16c-0.4,4.9,1.8,9.9-0.6,14.8c-1.1-1.1-1.6-2.2-1.7-3.3
		c-0.3-5.6-0.5-11.2-0.8-16.7c-0.1-2.8-0.3-5.7-0.6-8.5c-0.3-2.4-1.5-3.5-4.2-3.4c-6.9,0.2-13.8,0.2-20.7,0.4
		c-5.4,0.2-10.8,0.8-16.9,1.3c0.3,7.7,0.7,15.1,1,22.5c0.1,1.9-0.4,3.8-0.7,5.7c-0.8-1.8-2.2-3.6-2.3-5.5
		C1058.5,555.3,1058.3,548,1057.9,540.1z M51.2,876.3c0.2,2.6-0.2,3.6-3.4,2.2c-3.1-1.4-6.6-2.4-10-2.6c-6.6-0.3-7.4,0.6-7.7,7.4
		c-0.6,11.3-1.6,22.6-1.6,33.9c0.1,15.6,0.9,31.2,1.6,46.7c0,0.8,1.4,2.2,2.2,2.3c5.8,0.6,11.6,0.9,17.7,1.4c0-3.4,0.1-6.3,0-9.3
		c-0.4-14.5-0.7-29.1-1.5-43.6c-0.4-7.9-1.9-15.7-2.8-23.6c-0.3-2.7-0.2-5.4,0.2-8.1c0.1-0.7,1.6-1.2,2.5-1.7
		c0.3,0.7,0.9,1.4,0.9,2.2c0,3.3-0.4,6.7-0.1,10c1.4,16.4,3.1,32.9,4.2,49.3c0.4,6.6-0.4,13.2-0.6,19.9c-0.2,7.6,0.2,7.9,7.7,7.7
		c14.7-0.4,29.4-0.9,44-0.7c8,0.1,16,1.7,24,2.6c3.1,0.3,6,0.4,6.1-4.1c0.1-1.8,0.9-4,2.1-5.4c3.4-4,2.4-8.3,1.9-12.8
		c-2.6-22.4-5-44.9-7.5-67.4c-0.4-3.5-0.7-7.1-1.1-10.7c-1.8,0-3,0-4.3,0c-7.8-0.2-15.8-1.7-23.3-0.4c-8.2,1.5-16.3,2.2-24.6,2.5
		C69.1,873.9,60.3,875.3,51.2,876.3z M516.6,392.7c-0.9,3.5-3.6,3.5-5.9,2.6c-3-1.1-5.9-2.7-8.6-4.4c-4.8-2.9-9.5-6.1-15.2-9.8
		c0.6,6.6,0.8,12.3,1.8,17.9c0.9,4.7,1.2,4.4-3.5,5.2c-3.7,0.6-7.3,1.9-10.9,3.1c-4.4,1.4-8.7,3-13,4.5c0.1,0.2,0.1,0.5,0.2,0.7
		c4.1,0,8.2,0,13,0c-2.7,5.1-5.1,9.7-7.5,14.3c8.7-2.5,15.1-9.6,24.2-10.5c-1.1,3.5-2.1,6.4-3.1,9.3c0.3,0.1,0.5,0.3,0.8,0.4
		c2-1.3,4.1-2.5,7.3-4.5c1.2,7.6,2.2,14.4,3.3,21.4c1.1-0.5,1.9-0.9,2.7-1.3c6.8-3.6,6.8-3.6,10,3.2c2.1-1.7,3.9-3.5,6-4.9
		c1.1-0.8,2.7-1,4-1.5c-0.2,1.4-0.3,2.9-0.7,4.3c-1.1,3.6-2.4,7.1-3.9,11.6c4.8-0.2,8.3-0.4,11.8-0.5c2.9-0.1,3.8,0.9,2.5,3.8
		c-1.5,3.3-2.6,6.7-4.1,10.8c3-1.8,5.2-3.2,7.5-4.3c0.9-0.4,2.1,0.1,3.2,0.1c-0.1,1,0.1,2.1-0.3,2.9c-0.8,1.6-2,3-2.9,4.6
		c-1.1,1.9-2.2,3.8-3.3,5.7c0.2,0.2,0.4,0.5,0.6,0.7c3.2-3.1,5.6-0.1,8.2,0.9c1.2,0.5,2.3,1.5,3.4,2.3c-0.9,1.1-1.7,2.4-2.9,3.3
		c-4.7,3.9-9.6,7.7-14.4,11.5c1.1,1,1.6,1,2,1.1c1.9,0.4,3.8,0.9,5.7,1.3c-0.7,1.7-1.4,3.5-2.1,5.2c-0.2,0.5-0.5,0.9-0.8,1.3
		c-2.3,3.5-3.4,7.2-2,12.1c1-2.1,1.4-3.9,2.5-5.1c1.1-1.2,2.8-2.7,4.1-2.6c1.4,0.1,3.2,1.8,3.7,3.2c0.9,2.4,0.7,5.1,1.4,7.6
		c1.1,4.1-1.3,9.7,5.5,11.5c1.5,0.4,2.3,3.8,3.5,6.1c2.7-3.9,5.1-7.9,7.9-11.6c3-3.9,5.3-3.4,7.3,1.2c0.8,1.9,1.8,3.7,3.2,6.5
		c1.5-4.6,2.9-7.8,3.6-11.2c1.7-7.6,1.6-7.6,8.8-5.4c0.2,0.1,0.4-0.1,0.9-0.3c-2.8-5.3-4-10.9-0.4-16.2c1.7-2.5,1.9-4.5,0.8-7
		c-1.5-3.3-1-5.8,2.7-7.6c4-1.9,4.2-3.5,2.2-7.6c-1.3-2.7-0.5-4.1,2.3-4.8c3.6-0.9,7.1-2,11.7-3.3c-3.8-3.2-6.6-5.6-9.5-7.9
		c-6.3-4.9-6.1-6.6,0.8-10c0.2-0.1,0.4-0.4,0.9-0.9c-2.7-1.9-5.5-3.8-8.1-5.8c-2.2-1.6-4.6-3.1-6.3-5.1c-2.5-2.8-1.6-5.3,2-6.5
		c1.6-0.5,3.2-0.8,5.6-1.3c-1.9-1.5-3.2-2.6-4.7-3.6c-5.2-3.5-10.5-6.8-15.6-10.4c-3.6-2.6-3.5-4.1-0.1-6.8c0.8-0.6,1.4-1.4,2.2-2.3
		c-0.8-0.8-1.3-1.4-1.9-1.8c-4.8-3.1-4.8-3.5-1.7-8.1c1.5-2.2,2.7-4.5,4.6-7.7c-2.4,0.2-3.7,0.3-4.9,0.3c-1.5,0-3.8,0.3-4.2-0.4
		c-0.7-1.2-0.5-3.1-0.1-4.7c0.5-2.1,1.5-4,2.2-6c-2.5,0.7-4.3,1.9-6,3.2c-6.8,5.6-13.7,11.2-20.4,17c-2.9,2.5-5.8,2.7-8.7,0.2
		C524,399.1,520.6,396.1,516.6,392.7z M562,682.5c0.7,2,1,6.5,3.3,9.1c3.2,3.7,7.6,6.9,12.2,8.7c7.7,3.1,15.7,5.2,23.8,7.3
		c6.5,1.7,9.3,0.5,11.7-5.8c4.2-11.2,8-22.5,11.7-33.9c2.7-8.3,5.1-16.7,7.4-25c3.4-12.2,6.3-24.4,6.6-37.2
		c0.2-7.5-2.3-13.9-8.2-18.5c-6-4.8-13.3-7-20.7-8.2c-4.3-0.7-8.8-0.5-13.2-0.6c-12.4-0.2-20.2,5-23.3,17.1
		c-2.3,8.7-3.1,17.7-4.4,26.7c-0.7,5-0.9,10.1-1.5,15.1C565.6,651.8,563.9,666.1,562,682.5z M55.5,830.4c0.4,13,4.4,25.4,15.7,34.2
		c3.2,2.5,7.7,5.1,11.4,4.9c8.8-0.5,18-0.4,25.8-6.1c2.1-1.5,3.3-2.6,3.3-5.4c-0.1-16.2,3.8-31.3,11.4-45.6
		c4.3-8.2,9.7-15.8,11.7-25.2c3.1-14.4-2-29.6-14-38c-8.2-5.7-17.2-8.2-26.9-4.5c-15.3,5.8-24.7,17.1-30.5,32.4
		C57,794,56.8,811.8,55.5,830.4z M1430.1,665c-5.4,0.5-10.8,1.1-16.1,1.5c-2.3,0.1-3.1,1-3.2,3.3c-0.1,5.2-0.4,10.4-0.6,15.6
		c-1.5,40.5-2.9,81.1-4.5,121.6c-0.7,17.8-0.9,35.7-2.7,53.4c-1.9,19.4-3.6,38.8-3.4,58.4c0.2,19,0.5,38,0.8,57
		c0.2,9,0.5,17.9,0.7,26.9c0.1,3.2,1.7,5,4.8,4.9c4.4-0.2,8.8-0.4,13.1-1.4c10.3-2.2,11-3.8,9.5-14.3c-2.1-15.1-4.2-30.1-5.6-45.3
		c-2.3-24.1-1.6-48.3,0.2-72.5c1-13.4,0.5-27,0.2-40.5c-0.3-10.8-2-21.5-1.9-32.3c0.2-25.4,1.1-50.7,1.8-76.1
		c0.1-5.1,0.4-10.2,1-15.2C1425.9,695.2,1428,680.3,1430.1,665z M1346,529.7c0-2,0.1-3.4,0-4.8c-0.8-7.9-1.8-15.8-2.5-23.7
		c-0.1-1.1,0.8-2.3,1.2-3.5c0.6,1.1,1.5,2.2,1.6,3.3c1.1,9.5,2,19,3.1,29.5c15.2-1.4,29.9-2.7,44.1-4c-0.5-7.6-0.9-14.8-1.4-22.1
		c-0.1-0.9-0.5-1.7-0.7-2.6c-0.2-1-0.1-2-0.2-3c1.1,0.7,2.8,1.1,3.1,2.1c0.7,2.3,0.8,4.8,1.1,7.3c0.5,5,0.8,10.1,1.5,15.1
		c0.1,1,1.5,2.7,2.2,2.6c8-0.7,16.3,1.5,24.1-1.8c0.1-0.3,0.1-0.5,0.1-0.6c-2.8-8.1-5.5-16.2-8.4-24.2c-0.3-0.7-1.8-1.3-2.8-1.4
		c-7.6-0.6-15.3-1.2-23-1.5c-5.2-0.2-10.4,0-15.6,0c-0.3,0.8-0.8,1.9-1.3,3c-0.8-0.7-1.5-1.6-2.4-2.1c-1.2-0.6-2.5-1.2-3.8-1.1
		c-17.8,0.3-35.6,0.6-53.4,1c-2.1,0.1-4.1,1.1-6.9,1.9c-3.6-4.7-9.2-0.1-13.6-1.1c0,7.3,0.1,14.3-0.1,21.3c0,1.5-1.1,3.1-1.7,4.6
		c-0.5-1.6-1.3-3.2-1.3-4.8c-0.1-6.8-0.1-13.7-0.1-20.8c-9.3,0.8-17.8,1.3-26.3,2.3c-22.8,2.7-45.5,5.4-68.5,4.2
		c-1.9-0.1-3.8,0-6.5,0c0,7.4,0.2,14.4-0.1,21.4c-0.1,3.8,0.9,5.2,5,5.1c12.2-0.5,24.4-0.6,36.7-0.9c2.8-0.1,5.6-0.5,8.2-0.8
		c-0.5-8.6-0.9-16.8-1.4-25.6c1.2,0.6,2.2,0.9,2.2,1.2c0.9,7.9,1.7,15.8,2.6,23.7c14.1,0,28.4,0.1,42.7-0.1c2.4,0,4.8-0.7,7.2-1.1
		c2,0.9,4.1,1.3,6.3,1.4c2.1,0.1,4.2-0.1,6.2-0.1c12.6,0.2,25.2,0.5,37.8,0.7C1342.8,529.7,1344.2,529.7,1346,529.7z M342.7,314.3
		c-0.3-0.1-0.6-0.3-0.9-0.4c-2.3,3.1-4.5,6.3-6.9,9.6c-7.1-7.2-11.7-15.4-16-23.8c-0.8-1.6-0.5-4.6,0.6-5.9c0.8-1,3.9-1,5.5-0.4
		c2.5,1.1,4.7,3.1,7.1,4.7c1.5-1.4,2.8-3,4.5-3.8c3.4-1.6,4.1-3.8,3.5-7.4c-1-6.3-0.8-6.2-7.1-6.2c-19.1,0.1-38.2,0.1-57.4-0.1
		c-4.3,0-8.7-0.3-12.8-1.4c-12.4-3.2-24.7-0.8-37.5-0.7c0,18.4,0,36.3,0,55.4c16-0.5,31.1-0.6,46-1.7c20.7-1.5,41.2-2.3,61.6,2.5
		c3.7,0.9,7.6,0.9,12,1.4C344.2,328.5,343.5,321.4,342.7,314.3z M531.9,470.9c-0.2-0.3-0.4-0.6-0.5-0.9c-7.8,7.1-17.5,8.4-27.3,9.5
		c-8.1,0.9-16.4,1-24.5,2.1c-10.1,1.3-20,2.9-30-0.5c-4-1.4-8.8,3-9.6,8.1c-0.5,3.4,2.4,6.7,6.7,7c2.5,0.1,3.4,1.1,3.8,3.4
		c1,6.8,1.9,13.6,3.4,20.4c2.1,9.5,6.3,13,15.9,13.4c9,0.4,17.9,0.7,26.9,0.8c3.3,0,7-0.1,9.9-1.3c5.6-2.4,10.7-5.8,16.2-8.5
		c3-1.5,3.8-3.6,3.4-6.6c-0.7-6,0.3-11.6,4.1-16.6c0.1-0.1-0.1-0.5-0.2-0.8c-0.4-0.1-0.7-0.1-1.1-0.2c-2.2-0.3-4.3-0.6-6.5-0.9
		c1.2-2,2.3-4.1,3.6-6c0.6-0.9,1.6-1.7,2.5-2.4c3.4-2.9,6.8-5.8,10.3-8.7c0-0.4-0.1-0.8-0.1-1.2c-1.7,0-3.5,0.1-5.2,0
		c-1.4-0.1-3.3-0.1-4.2-0.9c-0.7-0.7-0.5-2.7-0.1-3.9C529.9,474.3,531,472.6,531.9,470.9z M878.4,620.9
		c39.3-3.5,78.5-7.1,117.8-10.6c-0.9-11.1-1.9-22.3-2.9-33.7c-1.4,0-2.3-0.1-3.2,0c-13.8,1.5-27.6,3.1-41.4,4.7
		c-6.4,0.7-6.5,0.8-6.7,7.3c-0.3,6.9-0.3,13.8-0.6,20.6c0,0.8-0.7,1.7-1.1,2.5c-0.6-0.7-1.5-1.4-1.7-2.2c-0.3-1.9-0.2-3.9-0.2-5.8
		c0-6.8,0-13.7,0-20.6c0,0-0.6-0.1-1,0c-12.8,2.1-25.7,4.2-38.5,6.4c-6.8,1.2-13.6,2.4-20.3,3.7c-1.8,0.4-4.1,0.6-3.6,3.5
		C876.1,604.8,877.3,612.9,878.4,620.9z M1304.4,462.7c-0.4-4-0.4-7.1-1-10.1c-1.5-7.8-3.6-15.4-4.9-23.2c-0.6-3.6-1.6-5.1-5.5-4.9
		c-23.5,1.3-46.9,2.3-70.4,3.5c-4.6,0.2-9.3,0.6-14,1c1.1,12,2.2,23.6,3.2,34.3c17.3,0,33.7,0,50.3,0c-0.2-1.8-0.4-2.5-0.4-3.3
		c-0.5-9.8-1-19.7-1.2-29.5c0-1.2,1.3-2.5,2-3.8c0.3,1.3,1.1,2.6,0.9,3.9c-1,9.9-0.8,19.7,1.5,29.4c0.3,1.1,1.8,2.7,2.8,2.7
		C1279.6,462.8,1291.6,462.7,1304.4,462.7z M1179.2,501.8c0-8.6-0.1-16.8,0-25c0-1.6,0.4-3.4,1-4.9c0.2-0.6,1.7-0.8,2.6-0.8
		c0.2,0,0.8,1.2,0.7,1.8c-0.5,6.1-1.3,12.2-1.8,18.4c-0.2,3.3,0,6.7,0,10.3c16.5-0.3,32.2,0.9,47.9-1c0.7-11.5,1.3-22.6,1.9-34.4
		c-31.2,1.8-62.2,3.6-93.5,5.4c-2.5,9.6-3.1,19.5-2.4,29.5c0.2,2.1,1.3,2.8,3.4,2.7c7.1-0.4,14.3-0.6,21.4-1
		C1166.5,502.7,1172.6,502.2,1179.2,501.8z M574.8,786.7c4-26,8-52.4,12.1-79.2c-3.9-1.5-8.5-3.2-13-4.9c-2,8.6-4,17-6,25.3
		c-2,8.2-4.4,16.3-6.2,24.6c-1.8,8.1-3,16.2-4.4,24.3c-0.7-0.1-1.3-0.3-2-0.4c0.9-25.9,11.1-49.9,15.9-75.5c-0.7-0.5-2-1.6-3.3-2.5
		c-6.4-4.3-9.5-10-8.2-18c0.9-5.7,1.1-11.5,1.6-17.3c-2.1,6.5-4,13.2-6.4,19.6c-2.5,6.8-5.8,13.4-8.3,20.2
		c-2.3,6.1-5.6,12.3-5.7,18.5c-0.2,11.1,1.3,22.3,6.5,32.6c1.6,3.1,2.2,7,2.1,10.5c0,5-1.1,9.9-1.7,14.5c4.4,0.8,9.2,1.3,13.8,2.6
		C566,782.8,570.5,785,574.8,786.7z M1423.7,560.1c15.9,0,31.3,0,47,0c0.4-5.9,0.9-11.3,1.2-16.7c0.2-5.7-1.1-7.9-6.6-9.4
		c-7.1-2-14.4-3.6-21.6-4.9c-5.1-0.9-10.6-2.4-15.4-1.3c-5.6,1.3-11,0.8-16.5,0.9c-3.4,0.1-6.8,0.1-10.1,0.4c-1.5,0.1-3,1.2-4.6,1.3
		c-6.4,0.1-12.9,0.1-19.2,0.1c0.6,10.2,1.3,19.4,1.8,28.6c0.1,2.7,1.2,3.5,3.9,3.4c9.5-0.4,19-0.5,28.4-0.9c2.8-0.1,5.6-0.5,8.8-0.8
		c0-9-0.1-17.6,0.1-26.1c0-1.1,1.2-2.2,1.8-3.3c0.4,1.2,1,2.4,1,3.6C1423.8,543.3,1423.7,551.7,1423.7,560.1z M1232.7,500.6
		c24.3-2.4,47.7-4.6,71.1-6.9c-1-8.4-2-16.8-3-25.2c-0.3-2.4-1.3-3.5-4.1-3.4c-18.2,0.5-36.4,0.7-54.6,1.1c-6.9,0.1-7.2,0.1-7.8,6.9
		C1233.5,482.1,1233.2,491.2,1232.7,500.6z M484.9,888.7c-8.8,1.2-18.4,2.4-28,3.7c-2.3,0.3-4.6,1.3-6.8,1.1
		c-4.1-0.5-6.1,1.4-7.2,4.8c-0.7,1.9-1.2,4-1.4,6c-0.9,7.4-1.5,14.9-2.4,22.3c-0.6,5.4-0.1,7.1,5,9c5.8,2.1,11.8,4.3,17.9,5.2
		c5.7,0.8,11.6,0.1,17.4-0.4c3-0.2,4.8-2.4,4.8-5.6c0-8.6-0.2-17.1-0.1-25.7C484.1,902.2,484.6,895.5,484.9,888.7z M537.1,512.6
		c-0.7-0.2-1.3-0.4-2-0.6c-1.9,11.6-11.1,15.3-19.5,20.2c-8.9,5.2-18.6,5.2-29.1,4.7c4.4,5.8,4.6,11.7,4.9,17.5
		c0.2,3.2,0.7,6.3,1,8.5c8-0.5,14.9-1.1,21.8-1.2c11.2-0.1,22.4,0.3,33.3-2.6c3.7-1,7.3-2.7,11.2-4.2c-5-6.8-9.3-12.7-13.8-18.9
		c-2.2,1.7-3.5,0-4.1-2.7c-0.7-3-1.4-6.1-1.9-9.1C538.2,520.4,537.7,516.5,537.1,512.6z M1366.8,463.2c-21.1,0.7-42.1,1.4-63.3,2.2
		c1.1,8.8,2.2,17,3.1,25.3c0.3,2.6,1.4,3.4,4.1,3.3c10.9-0.2,21.8-0.1,32.8-0.3c8.4-0.2,16.8-0.6,25.2-1
		C1368,483,1367.4,473.6,1366.8,463.2z M347,640c0,8.7,3.1,17.7,6.8,21.5c1.3,1.3,2.4,2.6,4.6,1.1c3.3-2.2,6.8-4.5,10.5-5.9
		c11-4.3,18.5-12.3,24.5-22c2.2-3.6,3.9-8.4,1.3-11.8c-9.6-12.9-22.5-19.1-37.2-6.9C349.5,622.5,348,632.3,347,640z M1041.2,468.6
		c-0.2-8.2-0.5-16.3-0.4-24.4c0-3.7-0.9-5.6-4.9-5.4c-12,0.6-24.1,0.8-36.1,1.5c-4.7,0.3-9.4,1.4-14.5,2.2c2,10.8,4,21.1,5.9,31.3
		C1008.4,472,1025.1,470.3,1041.2,468.6z M1041.4,575.9c-14.8,0-29.3,0-44,0c-0.2,2.1-0.7,3.6-0.6,5.1c0.6,8.7,1.5,17.3,2.1,26
		c0.2,2.8,1,4.1,4.2,4c13.2-0.5,26.5-0.6,39.7-0.9c0.6,0,1.2-0.2,2.2-0.4C1043.8,598.5,1042.6,587.4,1041.4,575.9z M188.3,294.8
		c0.3,2.9,0.7,5.3,0.7,7.7c-0.3,7.1-0.9,14.2-1.1,21.3c0,1.3,0.9,3.3,2,4c8.5,5.4,18,7,28,6.6c0.8,0,1.7-0.9,2.4-1.4
		c3.3-2.2,2.2-5.6,2.2-8.7c-0.2-12.8-0.4-25.7-0.5-38.5c0-2.1,0.3-4.2,0.5-7.3C210.4,284.3,199.2,289.6,188.3,294.8z M569.2,577.6
		c-1.2-8.9-2.2-16.8-3.4-25.7c-10.7,11.4-23.9,12-37.1,12.4c-6.9,0.2-13.8-0.1-20.6,0.3c-4.2,0.2-8.8,0.5-12.5,2.2
		c-11.9,5.6-20.5,14.9-26.2,26.7c-1.1,2.3-1.5,4.8-2.5,8.1c1.3-0.9,1.9-1.1,2.3-1.6c4.7-4.9,10.5-7.4,16.8-9.3
		c3.5-1.1,6.9-3,9.9-5.1c6.8-4.7,14-8.2,22.3-8.4c13.4-0.2,26.7,0.2,40.1,0.3C561.8,577.6,565.2,577.6,569.2,577.6z M1088.1,573.8
		c-1-0.1-1.8-0.3-2.7-0.2c-12.6,0.5-25.2,1.1-37.8,1.6c-2.7,0.1-2.9,1.5-2.7,3.6c1.1,9.6,2.2,19.1,3.1,28.7c0.3,2.8,2,2.6,3.8,2.5
		c10.9-0.2,21.8-0.5,32.8-0.7c1.8,0,3.6,0,5.3,0C1089.3,597.3,1088.7,585.8,1088.1,573.8z M1052.7,503.6c15.1,0,29.2,0,42.9,0
		c0-10.9,0-21.3,0-31.5c-14.9,0-29,0-42.9,0C1052.7,483,1052.7,493.2,1052.7,503.6z M1208.9,464.5c-1.1-12.1-2.1-23.6-3.2-35.6
		c-12.2,1.4-24.4,2.7-36.6,4.2c-0.6,0.1-1.6,1.3-1.6,2.1c-0.1,10.6-0.1,21.2-0.1,32C1181.5,466.2,1195.3,465.4,1208.9,464.5z
		 M486.8,593.4c-3.6,1.6-7.4,2.6-10.3,4.7c-10.8,7.9-19.2,17.9-25,30.3c-3.1,6.6-3.2,14.5-9,20c-1.3,1.3-0.9,3,1.1,4.1
		c6.9,3.9,12.3,9.5,17.1,15.7c1,1.3,2.4,2.4,3.7,3.6c1.5-5.9,2.9-11.2,4.2-16.6c0.7-2.9,1-5.9,1.6-8.8c1.9-9.9,3.1-20,6-29.6
		C478.5,608.9,482.9,601.7,486.8,593.4z M374.5,934.9c5.7,2,11.7,4.7,18,6.2c15.2,3.4,30.5,6.3,45.7,9.3c0.6,0.1,1.3,0,1.8-0.3
		c3.8-2.8,7.6-5.7,11.3-8.6c-0.5-0.2-1.5-0.5-2.4-0.9c-5.2-2-10.9-2.9-13.5-9c-0.3-0.7-1.7-1-2.7-1.2c-11.8-3-23.6-6.1-35.5-8.9
		c-6.6-1.6-13.3-2.6-19.3-3.7C376.6,923.9,375.6,929.1,374.5,934.9z M1376.9,562.7c-0.7-11.1-1.3-21.1-1.9-30.1
		c-15.3,0-29.9,0-44.6,0c1.1,10.3,2.3,20.5,3.4,30.1C1348.4,562.7,1362.4,562.7,1376.9,562.7z M559.3,966.5
		c-1.9-7.2-7.6-12.5-14.2-13.3c-5.6-0.7-16.5,3.9-18.6,8.6c-6.2,13.9-3.9,28.8,13.1,34.2c10.7,3.4,20-2.1,20.6-12.7
		c0.3-4.4-1.5-8.9-2.7-13.3C557,968,556,966.4,559.3,966.5z M1193,427c15.1-1.1,29.3-2.1,43.4-3.1c-0.9-9.5-1.9-18.8-2.8-28.6
		c-14.7,0.7-28.9,1.4-44.1,2.2C1190.7,407.6,1191.8,417.2,1193,427z M437.6,964.3c1.1,5,2,10.1,3.5,15c1.4,4.6,5.1,6.6,9.7,7.1
		c10.7,1.1,18.5-3.6,24.4-12.2c0.4-0.6,1-1.4,1-2.1c-0.6-5.1-0.5-10.4-2.1-15.2c-3.1-9.3-11.7-13.6-21.1-11.6
		C444.9,947.1,437,955.2,437.6,964.3z M351,944.4c5.2-1.7,11.2-2.4,15.4-5.4c6.7-4.9,8.2-16.9,5.1-24.7c-2.1-5.5-6.5-6.7-11.4-8
		c-10.3-2.8-23.7,3.6-27.2,13.7c-1.1,3.1-1.6,6.7-1.1,9.9C333.2,939,339.7,943.5,351,944.4z M1113.1,507.1c-12,0-23.7-0.1-35.4,0.1
		c-0.8,0-2.1,1.8-2.2,2.8c-0.4,4.8-0.4,9.6-0.5,14.4c-0.1,3.7,0,7.4,0,11.3c14.7,0,28.4,0,42.2,0
		C1115.8,525.8,1114.5,516.8,1113.1,507.1z M1099.2,503.7c11.7,0,22.6,0,32.7,0c0.7-11,1.4-21.5,2.1-31.8c-11.5,0-23.5,0-34.7,0
		C1099.2,482.7,1099.2,493,1099.2,503.7z M1236.6,394.7c0.2,2.3,0.4,3.4,0.5,4.6c0.8,7.2,1.5,14.5,2.3,21.7c0.3,2.3,1.4,3.3,3.9,3
		c3.5-0.4,7-0.3,10.5-0.5c8.1-0.6,16.2-1.2,23.7-1.8c0-4.6,0-8.7,0-12.8c0.1-8.4-5.2-13.9-13.6-14c-3.6,0-7.3-0.1-10.9-0.1
		C1247.6,394.7,1242.3,394.7,1236.6,394.7z M464.8,602.2c-0.1-0.3-0.8-1.8-0.4-2.8c2.2-5.2,4.1-10.7,7.1-15.4
		c3.3-5.1,7.9-9.4,11.9-14.1c-0.1-0.3-0.2-0.6-0.3-0.9c-3.1,1.4-6.4,2.4-9.2,4.3c-7.2,4.8-13.3,10.8-18.3,17.9
		c-6,8.5-12.1,16.9-18.1,25.4c-3,4.2-5.8,8.5-8.6,12.7c7.2,6.3,2.7,12.8,0.9,19c3.2,0.3,6,0.5,8.9,0.8c2-3.3,4.3-6.5,5.8-9.9
		c2.1-4.7,3.1-10,5.6-14.4C454.5,617.1,459.7,610,464.8,602.2z M522.7,963c-9.5-5.4-19.2-10.9-28.9-16.4c-4.7-2.7-9-6.2-15.2-3.1
		c-2.6,1.3-6.2,0.8-10.1,1.2c7.2,5.6,9.8,13,12.1,20.6c0.4,1.3,2,2.7,3.3,3.2c6.5,2.2,13.1,4.2,19.7,6.2c5.5,1.7,11.1,3.3,16.3,4.8
		C520.9,973.5,521.8,968.1,522.7,963z M1206.9,331.4c0.3-7.1,0.5-13.8,1-20.5c0.2-3.3-1.2-4.5-4.4-4.1c-12.2,1.8-24.4,3.5-36.5,5.5
		c-0.9,0.1-2.2,2.1-2.1,3.2c0.5,4.9,1.6,9.7,2.2,14.6c0.4,2.7,1.5,3.7,4.3,3.5c9-0.7,18.1-1,27.2-1.5
		C1201.4,331.8,1204.1,331.6,1206.9,331.4z M523.8,473.2c-0.1-0.7-0.1-1.4-0.2-2.1c-13.5,1.2-25.9-3.1-38.4-7
		c-7.9-2.5-15.7-5.3-23.7-7.7c-1.4-0.4-4.2-0.4-4.5,0.3c-2.6,5.9-5,11.8-7.1,17.9c-0.3,0.9,1,3.2,2,3.6c3,1,6.3,2.1,9.4,1.9
		c10.8-0.5,21.5-1.2,32.2-2.4C503.7,476.5,513.7,474.7,523.8,473.2z M1214.5,610.2c-0.8-13.2-1.6-26-2.5-39.3
		c-7.3,0.4-14.6,0.8-22.3,1.2c0.7,11.7,1.3,23.1,2.1,34.5c0.1,0.9,1.1,2.3,1.8,2.4C1200.5,609.6,1207.5,609.9,1214.5,610.2z
		 M1116.2,507.1c1.1,8.2,2,15.7,3.2,23.3c0.3,2,0.8,4.3,3.7,4c9-0.8,18-1.7,27.4-2.5c-0.6-8.6-1.1-16.9-1.6-24.8
		C1137.5,507.1,1126.9,507.1,1116.2,507.1z M1185.1,504.8c-1.6,0.2-3.3,0.6-5.1,0.7c-8.4,0.3-16.8,0.4-25.2,0.9
		c-1,0.1-2.7,1.8-2.7,2.7c0.2,6.5,0.8,13,1.2,19.4c0.2,2.5,1.2,3.2,3.8,3c7.4-0.4,14.8-0.4,22.2-0.6c1.9,0,3.8,0,5.8,0
		C1185.1,522,1185.1,513.6,1185.1,504.8z M1211.7,533.9c-7.3,0-14.8,0-22.4,0c-3.1,11.4-1.1,22.3,0,33.2c0.1,0.7,1.6,1.7,2.4,1.7
		c6.7-0.2,13.4-0.6,20-1C1211.7,556.3,1211.7,545.2,1211.7,533.9z M1024.9,352.7c0.3-5.3,0.8-10.5,0.9-15.8c0-0.7-1.5-2.1-2.3-2.1
		c-2.5,0.1-4.9,1.1-7.4,1.2c-4.6,0.3-9.2,0-13.8,0.2c-7.6,0.4-15.2,1.1-22.4,1.7c0,6.1,0,11.9,0,17.2
		C995.1,354.3,1009.7,353.5,1024.9,352.7z M1400.6,492.8c-1.8-9.1-3.6-18.6-5.6-28.1c-0.1-0.7-1.4-1.7-2.1-1.7
		c-7.6-0.1-15.2-0.1-22.5-0.1c0,3.7-0.1,6.3,0,8.9c0.4,6.1,0.9,12.1,1.6,18.2c0.1,1,1.5,2.6,2.3,2.7
		C1382.9,492.9,1391.5,492.8,1400.6,492.8z M1027.7,435.4c-0.7-7.8-1.5-15.1-2-22.4c-0.2-2.5-0.8-3.4-3.4-3.3
		c-7.7,0.3-15.3,0.4-23,0.5c-1.6,0-3.3,0-5.6,0c1.5,9.4,2.9,18.1,4.3,26.7C1008.8,436.4,1018.5,435.9,1027.7,435.4z M1302.8,532.2
		c0.7,4.4,1.4,8.5,2,12.6c0.7,5.4,1,10.8,2,16.1c0.3,1.4,2.5,3.4,3.9,3.5c6.5,0.2,13.1-0.1,20.1-0.3c-1.2-11.2-2.4-21.6-3.5-32
		C1318.6,532.2,1310.5,532.2,1302.8,532.2z M1374.2,428.8c-1.6-6.2-3.1-12.5-4.9-18.8c-0.6-2.2-2.3-3-4.8-2.8
		c-4.4,0.2-8.8-0.2-13.2-0.1c-4.3,0.1-8.6,0.4-13.5,0.7c0.6,8.7,1.2,16.6,1.8,24.3C1351.1,431,1362.1,429.9,1374.2,428.8z
		 M507.5,442.4c-2.3,1.3-4.4,2.4-6.5,3.6c-3.6,2.1-4.6,1.5-5-2.8c-0.4-5.5-1.1-10.9-1.7-16.8c-1.6,1-2.4,1.6-3.3,2.2
		c-1.7,1-3.4,2-5.2,3c-0.2-2.1-0.4-4.1-0.7-6.2c0-0.2-0.3-0.3-0.7-0.8c-7.1,6.2-12.4,13.6-16.9,22.7c3.4,0.8,6.1,1.4,8.8,2
		c4.4,0.9,8.9,1.7,13.3,2.8c11,2.8,22,5.8,33,8.8c0.5,0.1,1,0.1,1.6,0.1c2.7,0.3,3.7-1,3.8-3.6c-3.1,0-6.1-0.1-9,0
		c-2.8,0.1-3.8-1.1-3.5-3.7c0.2-2.3,0.5-4.7,0.8-7c-2.4,1-4.3,1.8-6.3,2.6C509.2,447,508.4,444.9,507.5,442.4z M1184.4,534.2
		c-6,0-12.5,0-19.5,0c0,11.8,0,23.3,0,34.6c7.2,0,14,0,20.9,0C1185.3,557.3,1184.9,546.1,1184.4,534.2z M1364.8,371
		c-1.4-7.3-2.7-14.2-4.2-21c-0.2-0.9-1.7-2.3-2.5-2.2c-7.9,0.8-15.9,2-24.1,3c1.1,6.8,2,13.3,3.2,19.7c0.1,0.7,1.4,1.6,2.1,1.6
		C1347.5,371.9,1355.7,371.4,1364.8,371z M379.1,913.4c0,0.3-0.1,0.5-0.1,0.8c18.6,4.5,37.2,9,56,13.5c1.1-6,2-11.6,3.1-17.6
		C417.9,911.2,398.5,912.3,379.1,913.4z M995,360.4c0,6.8,0,12.9,0,19.2c9.2-0.7,17.7-1.3,27.3-2c-1.4-4.6-2.5-8.6-3.9-12.6
		c-0.5-1.4-1.6-3.3-2.7-3.5C1008.8,359.9,1001.8,358.6,995,360.4z M169.1,326.1c2.3,0.4,5.4,1.1,8.5,1.4c4.2,0.3,7.1-3,7.2-7.1
		c0.2-5.7,0.7-11.3,1-17c0.1-1.3,0.4-2.7,0-3.9c-0.2-0.8-1.5-1.8-2.3-1.8c-2.7,0.1-5.5,0.4-8,1.2c-1.2,0.4-2.6,2-2.8,3.2
		C171.3,309.7,170.3,317.3,169.1,326.1z M525.4,464.3c-8.4-1.8-16.6-3.3-24.8-5.4c-6.1-1.5-12.1-3.9-18.2-5.5
		c-6.4-1.7-12.9-3.1-19.3-4.4c-1.1-0.2-2.5,0.8-3.7,1.3c0.8,0.9,1.4,2.4,2.4,2.7c12.1,4,24.1,8.3,36.3,11.6c7.3,2,15,2.5,22.6,3.5
		C522.9,468.4,525.5,468.3,525.4,464.3z M383.1,691.3c-7.3-5.7-14-10.9-21.5-16.7c1.7,12.1,3.3,23,4.9,34.9
		C372.5,702.9,377.7,697.2,383.1,691.3z M996,333.8c6.2-0.6,11.8-1.1,17.4-1.8c0.6-0.1,1.5-0.8,1.6-1.3c0.6-4,1.1-8.1,1.6-12.4
		c-6.1,0-11.6-0.1-17.1,0.1c-1,0-2.6,1.2-2.7,2C996.3,324.6,996.3,328.9,996,333.8z M1177.6,235.5c-0.3,0-0.6-0.1-0.8-0.1
		c-0.4,4.9-0.9,9.8-1.1,14.7c-0.7,18.3-0.6,36.6,2.2,54.8c0.1,0.8,1,1.5,1.5,2.3c0.6-0.8,1.4-1.6,1.8-2.5c0.3-0.8,0.2-1.8,0.1-2.7
		c-0.8-13.8-1.8-27.7-2.6-41.5C1178.3,252.1,1178,243.8,1177.6,235.5z M322.1,295.3c-0.4,0.4-0.7,0.7-1.1,1.1
		c2.7,8.2,8.6,14.7,12.9,22.1c8-7.4,10.1-15.3,6.1-22.9c-1.2,0.8-2.4,1.6-3.4,2.5c-3.7,3.5-5.4,3.5-9.4,0.3
		C325.6,297.2,323.8,296.4,322.1,295.3z M1005.4,269.5c0,4.8,0,9,0,13.4c7.2-2.3,14.1-4.6,21.6-7
		C1019.4,273.7,1012.6,271.7,1005.4,269.5z M1178.4,173.6c0.5,0.1,0.9,0.1,1.4,0.2c0.6-11.3,1.3-22.7,1.7-34.1
		c0.1-2.7-1.2-5.4-1.8-8.1c-0.6,0.1-1.1,0.1-1.7,0.2C1177.5,145.7,1177.1,159.6,1178.4,173.6z M73.3,871.7c-2.8-4.3-6.1-4.8-9.8-3.6
		c-0.7,0.2-1.5,0.5-2.2,0.6c-9,0.9-18.1,1.7-27.1,2.6c-1,0.1-2,0.6-2.9,0.8c0.1,0.4,0.2,0.8,0.2,1.2
		C45.4,872.7,59.4,872.2,73.3,871.7z M344.9,304.6c0.3,0.1,0.6,0.2,0.9,0.4c1.5-2.4,3.2-4.8,4.3-7.3c0.6-1.3,0-3.1,0-4.6
		c-1.6,0.1-3.5-0.4-4.7,0.3c-0.9,0.5-1.4,2.5-1.4,3.8C344.1,299.6,344.6,302.1,344.9,304.6z M123.3,867.7c-1-1.6-1.5-3.4-2.4-3.6
		c-4.7-1.5-8.9-0.2-13.2,3.6C113,867.7,117.6,867.7,123.3,867.7z"/>
	<path d="M637.3,115.8c26,0,46.6,0,67.1,0c16.9,0,33.2,4,49.6,7.7c1.8,0.4,3.4,2.2,5,3.3c-1.9-0.1-3.8,0-5.6-0.4
		c-17.8-4-35.6-8.1-53.9-7.7c-44.5,1-88.9,2.2-133.4,3.6c-25.3,0.8-50.7,2.1-76,3.3c-33.6,1.6-67.3,3.4-100.9,5.1
		c-22,1.1-43.9,2.2-65.9,3.4c-26.1,1.4-52.2,3-78.3,4.3c-19.4,1-38.7,1.6-58.1,2.7c-31.7,1.8-63.4,3.5-95,6.1
		c-22.3,1.8-44.4,5.2-66.6,7.7c-1.2,0.1-2.6-0.6-3.9-0.9c1.4-0.8,2.7-2,4.1-2.2c10.7-1.4,21.4-2.4,32.1-4
		c35.1-5.2,70.4-6.6,105.7-8.6c36.9-2.1,73.8-3.7,110.7-5.6c34.5-1.8,69.1-3.7,103.6-5.4c43-2.2,86-4.3,129-6.4
		C552.1,119.7,597.4,117.6,637.3,115.8z"/>
	<path d="M479.9,314.6c1.6-0.7,3.1-1.6,4.7-2.1c0.8-0.3,1.8,0,2.7,0.1c-0.3,0.8-0.5,2-1,2.2c-2.6,1-5.4,2.4-7.9,2.1
		c-1.2-0.2-2.3-3.8-2.8-6c-0.5-2.3-0.3-4.8-0.5-7.3c-1.7,3.9-2.8,7.8-5,11c-1.2,1.9-4.3,3.9-6.2,3.6c-1.8-0.3-3.6-3.2-4.7-5.3
		c-1.3-2.7-1.8-5.8-2.7-8.7c-0.4,0-0.8,0-1.2,0c-1,2.3-1.8,4.7-2.9,6.9c-0.6,1.2-1.8,2.2-2.7,3.2c-0.3-1.3-1-2.5-1-3.8
		c0-6.1,0.2-12.2,0.1-18.3c0-1.5-0.7-2.9-1.3-5.1c-1.6,1.2-2.6,2.2-3.7,2.8c-0.7,0.4-1.6,0.3-2.4,0.5c0.1-0.8-0.2-2.1,0.2-2.4
		c1.8-1.3,3.8-3.3,5.7-3.2c1.4,0,3.5,2.6,3.9,4.4c0.9,4,0.9,8.2,1.2,12.3c4.6-1.6,5.9-1,7.5,3.7c0.8,2.3,1.3,4.8,2.1,7.1
		c0.4,1.1,1.3,2.7,2.2,2.8c1,0.1,2.6-1,3-2c1.5-3.3,3.3-6.6,3.7-10.1c0.7-5.5,0.5-11.1,0.5-16.7c0-3-1.7-3.5-4.2-2
		c-3.5,2-5.1,5.9-4.3,9.9c0.2,0.9-0.3,1.9-0.5,2.9c-0.8-0.7-2-1.3-2.4-2.2c-2.5-5.6,3.1-14.7,9.1-14.3c2.2,0.1,4.3,2.6,6.5,4.1
		c3.4-0.5,7.5-1.2,11.7-1.8c0.2,0.6,0.4,1.1,0.5,1.7c-1.2,0.7-2.3,1.7-3.6,2c-4.4,0.8-6.1,3.4-5.9,7.6c0.1,1.5-0.2,3.1-0.3,5.2
		c2.3-0.8,4.2-1.6,6.2-2.1c0.8-0.2,1.8,0.3,2.7,0.6c-0.5,0.7-0.9,1.8-1.7,2.2c-2.4,1.3-6.3,1.8-7,3.6c-1.2,3-0.3,6.8-0.3,10.3
		C478.9,314.1,479.4,314.3,479.9,314.6z"/>
	<path d="M678.5,280.4c-1.9,0.6-3.8,1.6-5.8,1.8c-4.2,0.4-5.2,2.4-4.2,6.2c0.7,2.5,1,5.1,1.5,7.9c2.6-1.1,4.8-2.2,7-3
		c0.6-0.2,1.6,0.4,2.4,0.6c-0.4,0.7-0.7,1.7-1.3,2c-1.5,0.9-3.2,1.6-4.9,2.4c-1.8,0.8-2.4,1.9-1.8,4c1.3,4,2.2,4.4,5.6,1.9
		c1-0.7,2.4-0.9,3.6-1.3c-0.5,1.2-0.7,2.6-1.6,3.5c-4.5,4.3-8.6,3.2-10.4-2.7c-0.4-1.4-0.8-2.9-1.3-4.7c-5.3,14.5-9.7,16.9-22.2,8.6
		c-1.3,1-2.6,2-3.8,2.9c-0.8-1.4-1.7-2.8-2.2-4.2c-1.6-4.4-3-8.9-4.5-13.3c-0.5-1.3-1.2-2.6-1.5-3.1c-2.1-0.6-4.3-0.6-4.7-1.5
		c-0.8-1.6-0.5-3.8-0.7-5.7c1.7,0.5,4.2,0.4,4.9,1.5c2.8,4.8,5.1,9.8,7.5,14.8c0.7,1.5,1,3.2,2.1,3.9c2.3,1.1,4.8,1.9,6.9,3.3
		c7.9,5.5,11.7,3.2,14.1-5.8c1.5-5.6-0.6-10.8-3.7-15.5c-1.8-2.8-4.7-2.5-7.2-0.7c-2.8,2-3.6,5.4-2,7.8c0.3,0.4,0.7,0.7,1,1.2
		c0.8,1.3,1.6,2.5,2.4,3.8c-1.6-0.6-3.4-0.8-4.6-1.8c-3.5-3-3.7-7.4-0.9-11.2c3-4.1,7.8-5.5,11.6-3c1.9,1.3,3.2,1.1,5.2,0.3
		c3.5-1.4,7.2-2.1,10.9-2.9c0.7-0.2,1.5,0.4,2.3,0.7C678.4,279.5,678.4,279.9,678.5,280.4z"/>
	<path d="M364.2,286.9c3.1-0.4,6.2-0.9,9.4-1.1c6.9-0.6,13.7-1.1,20.6-1.5c0.8,0,1.7,0.7,2.5,1.1c-0.7,0.6-1.5,1.7-2.2,1.6
		c-7.8-0.8-12.2,4.8-17.2,9.1c-1.5,1.3-2.7,2.9-4.2,4c-3.7,2.8-5,6.4-4.5,11.6c3.9-4.1,7.3-7.8,10.9-11.5c2.6-2.7,5.3-5.4,8.1-7.9
		c0.7-0.6,2-0.5,3-0.8c-0.3,1-0.3,2.2-1,2.9c-6.3,6.7-6.3,6.6-1.5,14.4c1.9,3.1,3.8,6.2,5.5,9.4c0.4,0.8,0.8,2.2,0.4,2.8
		c-0.3,0.6-1.8,0.7-2.7,0.6c-6.5-0.4-12.9-0.9-19.4-1.2c-5-0.2-7.5-3-7-8c0.6-6.1,1.1-12.1,1.3-18.2c0.1-2.1-0.8-4.2-1.2-6.3
		C364.7,287.7,364.5,287.3,364.2,286.9z M389.8,317.6c-2.9-4.8-5.8-9.4-8.8-14.4c-4.5,4.7-8.6,9.1-13.5,14.4
		C375.5,317.6,382.3,317.6,389.8,317.6z M369.4,299.3c4.3-4,7.8-7.3,12.1-11.2c-4.7,0.5-8.3,0.8-12.1,1.2
		C369.4,292.5,369.4,295.3,369.4,299.3z"/>
	<path d="M578.5,277.3c-6.7,1.2-13.3,2.4-20,3.8c-0.6,0.1-1.2,1.6-1.2,2.4c0.1,5.1,0.5,10.1,0.4,15.2c-0.1,4.9-0.6,9.8-1,15.4
		c10.9,0,21.9-1.8,33.4-0.2c-2.3,2.5-35.9,3.9-38.5,2.4c3.9-7,2.8-14.8,3.1-22.2c0.2-4.1-0.6-8.3-0.5-12.4c0-1.1,1.2-3.1,2.1-3.2
		c10.7-1.4,21.3-2.6,32-3.8c1.1-0.1,2.4-0.1,3.5,0.3c1.1,0.4,2,1.2,3,1.8c-1.1,0.4-2.1,0.8-3.2,1.1c-3,0.8-6.1,1.1-8.9,2.4
		c-6.2,2.8-12.1,6.1-18.2,9c-1.4,0.6-3.2,0.3-4.9,0.5c1.1-1,2.1-2.4,3.4-3c5.2-2.7,10.6-5.2,15.9-7.8
		C578.8,278.2,578.6,277.8,578.5,277.3z"/>
	<path d="M523.7,287.2c3.6-4.8,9.2-7,15.9-6.7c6.4,0.3,9.3,4.7,6.2,10.3c-2.2,4-5.3,7.6-8.4,11.1c-2.8,3-6.1,5.6-9.3,8.3
		c-2,1.7-4.4,2.6-6.6,0.2c-4.6-5-9.2-9.9-13.4-15.1c-1.7-2-2.7-4.7-3.6-7.3c-1.1-3-1.2-6,1.7-8.1c3-2.1,6.3-1.9,9.1,0.1
		C518.2,282.1,520.7,284.6,523.7,287.2z M524.6,309.4c4.7-4.3,9.1-8,13.1-12.1c2.2-2.3,4.1-5.1,5.5-7.9c1.8-3.4,0.4-5.4-3.5-5.7
		c-6.2-0.5-11.2,1.7-14.6,7c-1.7,2.6-3,2.2-4.6-0.2c-1.6-2.5-3.5-4.8-5.5-6.9c-1.8-1.8-4.6-3.1-6.6-1c-1.1,1.1-0.8,4-0.5,6
		c0.2,1.6,1.2,3.2,2.3,4.5C514.8,298.4,519.5,303.7,524.6,309.4z"/>
	<path d="M697.2,284.5c2.2-1.8,4.1-3.6,6.2-5c2.7-1.7,6.2-2.3,8.3,0c1.7,1.8,2.8,5.1,2.5,7.6c-0.4,3.5-2,6.9-3.6,10.2
		c-1.6,3.4-3.6,6.6-5.7,9.7c-0.7,1.1-2.1,1.8-3.1,2.6c-0.3-1-0.5-2-1-2.9c-0.5-0.9-1.3-1.6-1.9-2.4c-4.7-6.7-9.4-13.3-13.8-20.2
		c-0.9-1.4-0.5-3.6-0.8-5.4c1.8,0.4,3.8,0.4,5.4,1.1C692.3,281.2,694.6,282.9,697.2,284.5z M701.1,289.6c-0.8,0.5-1.8,1.2-2.9,1.9
		c-0.6,0.4-1.2,0.7-1.8,1c-0.3-0.6-0.9-1.2-1-1.9c-0.5-4.2-2.4-6.1-7-7.2c2.3,6.5,10.6,17.6,14.9,19.9c1.6-2.5,3.5-4.9,4.7-7.6
		c1.4-3.3,2.6-6.7,3.2-10.2c0.2-1.1-1.9-3.9-2.6-3.8c-2.4,0.5-4.8,1.5-6.8,3C701.1,285.4,701.4,287.7,701.1,289.6z"/>
	<path d="M1248.2,153.9c1.7,4.8,3.5,9.6,5.3,14.8c1.2-2.9,2.1-5.5,3.5-7.8c2-3.2,4.5-2.9,5.9,0.6c1,2.3,1.4,4.8,2.4,7
		c0.8,1.7,2.2,3.1,3.2,4.7c0.5,0.7,0.8,1.6,1.1,2.4c-1,0-2.3,0.5-2.8,0c-1.6-1.6-3.2-3.4-4.2-5.4c-1.2-2.3-1.7-4.8-2.5-7.3
		c-0.4-0.1-0.8-0.1-1.2-0.2c-0.6,2.2-1.6,4.4-1.6,6.7c-0.1,3.5,0.7,7,0.8,10.5c0,1-0.7,2-1.1,3c-0.8-0.7-2-1.2-2.3-2.1
		c-2.8-7.5-5.6-15.1-8.2-22.7c-0.4-1.1-0.1-2.5-0.1-3.8C1247.2,154.2,1247.7,154,1248.2,153.9z"/>
	<path d="M595.2,281.7c-4.9,2.8-9.8,5.6-14.8,8.4c5.6,7.1,11,14,16.4,20.8c-0.4,0.5-0.8,0.9-1.1,1.4c-1.3-0.9-2.9-1.5-3.9-2.7
		c-4.7-5.8-9.3-11.8-14.2-18.1c-4.2,2.4-7.9,4.7-11.8,6.8c-0.9,0.5-2.2,0.2-3.3,0.3c0.5-0.9,0.8-2.3,1.6-2.7
		c9.4-5.4,18.8-10.6,28.2-15.8c0.7-0.4,1.9,0.1,2.9,0.1C595.1,280.8,595.1,281.2,595.2,281.7z"/>
	<path d="M1279.2,163.1c-0.6,1.8-1.1,3.4-1.7,5c-1.5,3.7-4.2,4.3-7.3,1.7c-4.9-4.3-5.8-14.2-1.7-19.3c2.8-3.5,6.5-3.4,8.8,0.4
		c0.9,1.4,1.6,3,1.8,4.7c0.6,3.9,2.4,5.9,6.6,4.9c0.5-0.1,1.2,0.3,1.8,0.4C1286.3,164,1285.2,164.3,1279.2,163.1z M1273.9,168
		c2.8-5.2,0.8-10.6,0.3-15.8c0-0.1-2.4-0.5-3,0C1267.2,155.8,1268.8,165.3,1273.9,168z"/>
	<path d="M1241,155.1c-1,0.5-2.2,0.9-3.1,1.6c-2.1,1.6-5,2.9-5.9,5c-3,6.9-3.7,14.3-2.2,21.7c1.4,7,7.5,8.8,12.8,3.9
		c1.2-1.1,2.3-2.5,3.7-3.5c0.4-0.3,1.4-0.2,2,0.1c0.2,0.1,0.2,1.2,0,1.7c-2,4.7-9,8.2-14,7.1c-3.5-0.8-5.9-3-6.8-6.3
		c-2.6-9.5-1.7-18.9,2.7-27.6c1.2-2.4,5-3.7,7.7-5.2c0.7-0.4,2,0.2,3,0.4C1240.9,154.3,1241,154.7,1241,155.1z"/>
	<path d="M1261.7,107.2c0.4-1,0.9-1.9,1.2-2.8c0.4-1.1,0.8-2.2,1.1-3.3c0.9,0.8,1.7,1.6,2.8,2.7c0.4-0.3,1.5-0.5,1.9-1.2
		c0.7-1.2,1.1-2.7,1.6-4c-1.3-0.4-2.7-1.2-3.9-1c-5.3,0.9-9.4,3.6-11.5,8.8c-0.4,0.9-1.4,1.5-2.1,2.3c-0.2-1.1-0.9-2.4-0.7-3.4
		c1.6-6.1,10.3-11.9,16.4-10.7c1.8,0.3,4.3,1.9,4.6,3.3c0.4,1.9-0.3,5.5-1.7,6.2c-6,3.1-3.9,7.4-2.6,11.9c0.6,2.2,1.1,4.4,1.1,6.9
		C1264.2,119,1267.2,110.9,1261.7,107.2z"/>
	<path d="M414.8,480.4c0.7,4.1,1.3,7.9,1.9,11.8c0.1,0.8,0.3,1.6,0.2,2.3c-0.3,2.6-1.5,4.8-4.3,4.6c-1.3-0.1-3.1-1.8-3.6-3.2
		c-0.8-2.3-0.2-4.7,2.8-5.4c0.4-0.1,0.7-0.3,1.7-0.7c-0.9-3.3-1.7-6.7-2.7-9.9c-0.9-2.7-0.3-3.8,2.6-3.2c0.4,0.1,0.8,0.4,1.1,0.3
		c7.4-1.7,9.2,3.8,11.1,8.8c0.6,1.6,0.3,3.9-0.3,5.6c-0.2,0.6-2.8,1.2-3.7,0.7c-0.9-0.5-1.3-2.3-1.3-3.6c0-1.2,1.2-2.4,1.1-3.6
		C421.3,480.7,419.6,479.6,414.8,480.4z"/>
	<path d="M184.4,251c-0.9,1.6-1.5,3.6-2.8,4.9c-3.7,3.4-7.6,6.6-11.6,9.7c-0.7,0.5-2,0.3-3,0.4c0.4-1,0.6-2.2,1.3-2.8
		c3.2-2.8,6.6-5.3,9.9-8c0.8-0.6,1.6-1.4,2-2.3c0.4-0.9,0.8-2.2,0.4-2.8c-0.3-0.6-1.8-0.8-2.7-0.7c-6.6,1.2-13.2,2.7-19.9,3.7
		c-2.2,0.3-4.6-0.4-6.9-0.7c1-3.4,3.9-1.6,5.9-2.1c5.3-1.3,10.7-2.4,16-3.4c2-0.4,4.1-0.4,6.2-0.6
		C182.7,245.8,184.2,247.4,184.4,251z"/>
	<path d="M671.9,610.9c-0.1-1.3-0.4-2.7-0.2-3.9c2-9.3,0.3-18-4.2-26.3c-2.7-4.9-5.5-9.7-8.2-14.6c-0.4-0.8-1-1.6-1.1-2.5
		c-0.1-0.6,0.3-1.4,0.7-1.9c0.2-0.2,1.4,0.2,1.6,0.6c7.6,12.8,16.5,25.1,14.8,41.2c-0.2,1.8-0.6,3.6-1.1,5.3
		c-0.2,0.8-0.9,1.5-1.4,2.3C672.7,611.1,672.3,611,671.9,610.9z"/>
	<path d="M1226.6,129.9c0.3,2.8,0.7,5.6,0.8,8.4c0,1.1-0.8,2.2-1.2,3.3c-0.9-0.8-2.2-1.4-2.5-2.3c-2-5.9-3.9-11.8-5.5-17.8
		c-0.3-1.1,0.5-2.4,0.8-3.7c0.7,1,1.6,1.8,1.9,2.9c0.8,2.4,1.3,4.9,2.1,7.9c2-4.7,3.5-5,6.5-1.7c2.4,2.7,4.5,5.6,6.7,8.4
		c0.3,0.4,0.3,1.3,0.1,1.7c-0.3,0.4-1.3,0.7-1.7,0.5c-1.3-0.9-2.7-2-3.7-3.2c-1.2-1.5-2.1-3.2-3.1-4.8
		C1227.4,129.6,1227,129.8,1226.6,129.9z"/>
	<path d="M1406.7,617.1c-0.7-1.1-1.8-2-2-3.2c-0.9-3.9-2.1-7.8-2.2-11.8c-0.3-10.9-0.1-21.8-0.1-32.8c0-0.9,0.4-1.8,0.6-2.8
		c0.5-0.1,0.9-0.1,1.4-0.2c0.4,1.8,1.2,3.6,1.2,5.4c0.1,8.2-0.4,16.4-0.1,24.6c0.2,5.8,1.5,11.5,2.2,17.3c0.1,1,0,2.1,0,3.1
		C1407.4,616.9,1407,617,1406.7,617.1z"/>
	<path d="M1305.1,567.1c0.5,1.4,1.3,2.7,1.4,4.1c0.2,5,0,10.1,0.2,15.1c0.4,9,1,18,1.4,27.1c0,1.1-0.5,2.2-0.8,3.3
		c-0.7-0.9-2-1.8-2.1-2.8c-0.7-7.8-1.4-15.7-1.8-23.6c-0.3-6.6-0.1-13.2-0.1-19.8c0-1,0.1-2,0.1-2.9
		C1304,567.4,1304.5,567.2,1305.1,567.1z"/>
	<path d="M1305.6,145.7c6.6,0.6,8.3-0.2,10.4-5.1c-3.1-0.6-6-1.3-9-1.8c-1.6-0.3-3.6,0-4.9-0.8c-1.5-0.9-3.3-2.7-3.3-4.1
		c-0.1-1.5,1.5-3.6,2.9-4.4c1.4-0.8,3.7-0.5,5.4,0c0.8,0.2,1.2,1.9,1.8,3.2c-1.1,0.3-1.3,0.4-1.6,0.4c-1.6-0.1-3.3-0.3-4.9-0.4
		c-0.2,0-0.6,1.6-0.5,1.6c1.5,0.6,3,1.3,4.6,1.7c2.7,0.6,5.4,0.8,8,1.3c1,0.2,2.3,0.6,2.7,1.4c0.8,1.5,1.5,3.3,1.2,4.8
		c-0.6,2.9-5.8,6.4-9.2,6.2c-1.4-0.1-2.7-1.4-3.9-2.3C1305.3,147,1305.6,146.2,1305.6,145.7z"/>
	<path d="M1298,148.4c-0.7,1.9-1.6,5.1-3.2,7.9c-1,1.9-5.3,1.2-7.3-0.8c-3-3.1-3.6-10.3-1.1-13.8c1.7-2.3,3.9-3.5,6.7-2.5
		C1296.9,140.4,1298,143.4,1298,148.4z M1288.1,149.7c2.4,0.3,4.1,0.5,6,0.7c1.2-2.5,1.5-5.2-0.7-7.6c-0.6-0.6-2.7-0.8-3.4-0.3
		C1287.2,144.8,1287.4,147.9,1288.1,149.7z"/>
	<path d="M698.2,596.9c-0.5,1.6-1,3.1-1.5,4.7c-0.6-1.6-1.7-3.2-1.8-4.9c-0.7-9.2-2.9-17.9-7.7-25.8c-1.7-2.8-4.3-5-6.4-7.6
		c-0.5-0.6-0.6-1.4-0.9-2.1c0.8-0.1,2-0.7,2.4-0.4c2.1,1.8,4.5,3.6,5.9,5.9C694.1,575.9,697.5,585.8,698.2,596.9z"/>
	<path d="M1206.9,131.2c-1.9,2.1-3.4,3.9-5,5.5c-0.5,0.5-1.5,0.7-2.2,1c-0.1-0.9-0.6-2.1-0.2-2.7c3.7-5.6,9.3-8.9,15.1-11.9
		c0.5-0.2,1.3,0.3,2,0.5c-0.2,0.7-0.4,1.4-0.8,2c-0.2,0.3-0.6,0.4-0.9,0.7c-5.2,3.5-5.2,3.5-3,9.6c1.1,2.9,2.2,5.8,3.1,8.8
		c0.3,0.9-0.1,2.1-0.3,3.1c-0.9-0.7-2.2-1.3-2.5-2.2C1210.4,141.1,1208.8,136.4,1206.9,131.2z"/>
	<path d="M397.7,509.8c-2.3-2.4-4.4-4.5-6.5-6.7c-0.6-0.6-1.5-1.7-1.3-2.1c0.4-0.8,1.4-1.5,2.2-1.7c1.8-0.3,3.6-0.4,5.4-0.2
		c0.8,0.1,1.6,0.9,2.4,1.4c-0.8,0.5-1.5,1-2.3,1.4c-0.4,0.2-1,0.2-1.3,0.2c1.8,3.8,3.4,7.5,5.2,11.2c1.3,2.7,1,5.3-1.8,6.1
		c-1.6,0.5-4.5-0.6-5.6-2c-1.7-2.1-1.1-4.7,1.6-6.2C396.1,510.9,396.5,510.6,397.7,509.8z"/>
	<path d="M1279,101.2c1.7,4.4,3.2,8.5,4.7,12.5c3.3-3.4,1.4-6.5,0.9-9.6c-0.2-1.2,0.1-2.5,0.1-3.7c0.9,0.9,2.4,1.7,2.6,2.8
		c0.7,3.3,1.3,6.7,1.1,9.9c-0.2,3.6-3.5,4.8-6.2,2.7c-2.6-1.9-5.5-10.1-4.6-13.1C1277.7,102.4,1278.2,102.1,1279,101.2z"/>
	<path d="M1301.8,95.6c1.2-2.6,2.2-5.4,3.7-7.8c0.5-0.8,2.6-0.5,4-0.6c0.1,1.3,0.6,2.7,0.2,3.9c-0.4,1.1-1.8,1.8-2.4,2.9
		c-0.7,1.3-1.6,3-1.3,4.3c0.2,1.1,2,1.9,3.2,2.7c0.8,0.6,1.8,0.9,2.7,1.4c-1.1,0.6-2.3,1.6-3.4,1.6
		C1304.8,104,1302.5,100.7,1301.8,95.6z"/>
	<path d="M1234.2,121.7c0.4-0.6,1.3-2.3,2.7-3.4c0.6-0.4,3.1,0.3,3.2,0.9c0.4,1.7,0.7,3.9,0,5.4c-2.1,4.6-1.8,5.3,3.4,6.4
		c0.8,0.2,1.4,1,2.1,1.6c-0.8,0.4-1.7,1.2-2.5,1.3C1238,134.5,1234.1,129.6,1234.2,121.7z"/>
	<path d="M1298.2,95.9c-3.5,2.1-2.4,4.6-1,7.1c0.4,0.7,1,1.4,1,2.1c0.1,1.4-0.1,2.8-0.2,4.1c-1.1-0.8-2.4-1.3-3.1-2.4
		c-1.3-2.1-2.6-4.3-3.2-6.6c-0.3-1.2,0.7-3.2,1.7-4.2c0.9-0.9,2.6-1,4-1.5C1297.6,95.1,1297.9,95.5,1298.2,95.9z"/>
	<path d="M429.8,794.3c6.7-2,13.4-3.9,20.1-5.8c9.9-2.8,19.7-5.8,29.6-8.3c3.5-0.9,7.2-0.7,10.8-0.7c1,0,2,1.1,3,1.6
		c-0.9,0.6-1.7,1.6-2.7,1.7c-6.3,1-12.7,1.3-18.8,3c-10.9,2.9-21.6,6.7-32.5,9.7c-4.3,1.2-8.9,1.6-13.4,2.2
		c-0.9,0.1-2.2-0.5-2.9-1.3c-0.3-0.3,0.4-1.9,1-2.6c9.6-10.1,19.3-20,28.9-30c0.2-0.2,0.3-0.4,0.6-0.5c1-0.4,2-0.7,3-1.1
		c-0.3,1.1-0.2,2.5-0.9,3.2c-8.3,8.9-16.7,17.8-25.1,26.7c-0.4,0.4-0.8,0.9-1.2,1.4C429.4,793.6,429.6,794,429.8,794.3z"/>
	<path d="M157.2,841.1c-0.1-1.2-0.4-2.4-0.1-3.6c2.2-11.7,4.5-23.5,6.9-35.2c0.2-1.1,1.4-2.1,2.1-3.1c0.2,1.2,0.9,2.6,0.7,3.7
		c-2.1,11.2-4.3,22.5-6.5,33.7c-0.3,1.6-1,3.2-1.5,4.8C158.3,841.3,157.7,841.2,157.2,841.1z"/>
	<path d="M61.5,324.7c-7.7-1.1-15.6-2-23.4-3.4c-1.9-0.3-3.7-1.8-5.4-2.8c-0.4-0.2-0.5-1.3-0.3-1.7c0.2-0.4,1.2-0.8,1.5-0.6
		c15.5,7.2,31.8,5.1,47.9,3.4c15.7-1.6,31.6-2.9,46.8-7.8c4.3-1.4,8.6-2.9,12.8-4.7c6.2-2.6,11.8-6,16-11.4c0.6-0.9,2.3-0.9,3.6-1.3
		c-0.4,1.1-0.6,2.3-1.2,3.2c-4.8,6.6-11.6,10.2-18.9,13.2c-12.2,5-25,8-38.1,9.5C89.1,321.7,75.4,323.2,61.5,324.7z"/>
	<path d="M269.1,313.5c-1.3,0.8-2.4,1.5-3.5,2.3c-0.4-1.3-1-2.5-1.2-3.8c-0.8-3.9-1.4-7.9-2.3-11.8c-0.3-1.3-1.3-2.4-2-3.6
		c-0.4,0-0.9,0.1-1.3,0.1c-0.2,2.2-0.4,4.3-0.7,6.5c-0.1,0.9-0.5,1.8-0.8,2.6c-0.8-0.7-2.2-1.5-2.2-2.2c0.2-2.9,0.4-6,1.6-8.5
		c1.3-2.7,4.4-2.6,6.2,0.3c1.7,2.7,2.7,5.8,4.5,8.4c1.2,1.2,3,2.3,3.5,3.8c1.2,3.3,1.7,6.8,2.6,10.2c1.1,3.8,3,4.2,5.6,1.1
		c3.5-4.2,4.9-9.1,4.7-14.5c-0.2-3.5,0.2-7.3-3.3-10.7c-0.7,1.8-1,3.1-1.6,4.3c-0.4,0.8-1.1,1.4-1.7,2.1c-0.4-0.8-1.3-1.7-1.2-2.5
		c0.3-2.8,0.9-5.7,4.3-6.2c3.2-0.5,4.7,1.8,5.5,4.5c2.1,7.8,1.8,15.5-2.4,22.6c-1,1.6-2.3,3.2-3.8,4.3c-3.5,2.6-6.8,1.6-8.3-2.5
		C270.3,317.8,269.7,315.5,269.1,313.5z"/>
	<path d="M306,294.3c-1.8,0.5-3.6,1.3-5.5,1.5c-3.2,0.3-4.7,1.6-4,5c0.4,1.7,0.3,3.6,0.5,5.8c2.3-0.8,4.3-1.7,6.4-2.2
		c0.8-0.2,1.8,0.3,2.8,0.4c-0.6,0.8-1.1,1.9-1.9,2.4c-1.2,0.7-2.6,1.1-4,1.6c-4.3,1.7-4.6,2.7-2.1,7.7c1.5-0.9,2.9-2,4.5-2.7
		c0.6-0.3,1.4,0,2.1,0.1c-0.1,0.7,0,1.8-0.3,2c-2.4,1.2-5,3-7.4,2.9c-1.1,0-2.9-3.6-3.2-5.7c-0.7-5.8-0.8-11.6-0.9-17.4
		c0-1.7,0-3.8,3.1-2.8c1.7,0.5,3.8-0.1,5.7-0.2c1.3-0.1,2.6-0.1,3.9-0.2C305.7,293.1,305.9,293.7,306,294.3z"/>
	<path d="M459.8,517.6c-0.6-1.2-1.9-2.7-1.6-3.6c0.5-1.4,2.1-2.5,3.3-3.7c0.8,1.1,2.4,2.4,2.3,3.4c-0.2,1.4-1.7,2.7-2.6,4
		C460.7,517.6,460.2,517.6,459.8,517.6z"/>
	<path d="M472.6,466.3c5-0.1,7.8,2,9.8,5.1c0.4,0.7,0.1,1.9,0.1,2.9c-0.8,0-1.8,0.3-2.5-0.1c-3.2-1.9-6.5-3.1-10.3-2.1
		c-0.6,0.2-2-0.6-2.1-1.1c-0.2-0.8,0.2-2.2,0.8-2.6C470,467.3,471.8,466.7,472.6,466.3z"/>
</g>
</svg>
