<?xml version="1.0" encoding="utf-8"?>
<!-- Generator: Adobe Illustrator 22.0.1, SVG Export Plug-In . SVG Version: 6.00 Build 0)  -->
<svg version="1.0" id="Ebene_1" xmlns="http://www.w3.org/2000/svg" xmlns:xlink="http://www.w3.org/1999/xlink" x="0px" y="0px"
	 viewBox="0 0 1547.9 1049.4" enable-background="new 0 0 1547.9 1049.4" xml:space="preserve">
<g>
	<path d="M240.2,786.9c5.6-11.4,5-23.8,6.9-35.7c0,0-0.4-0.2-0.7-0.1c-8.7,1.1-13.1-4.6-15.4-11.3c-2.6-7.3-4.2-15.1-4.8-22.8
		c-0.6-8.8,0.2-17.7,0.9-26.5c0.1-1.8,2.4-4.2,4.2-5c6-2.4,12.3-4.3,18.5-6c4.9-1.3,5.2-2,2.1-5.9c-0.5-0.7-0.6-2.3-0.1-3.1
		c3.5-6.1,7.1-12.2,10.8-18.2c1.1-1.8,2.8-2.7,4.3-1.1c-4,6.7-7.8,13.1-11.5,19.2c0.9,2.3,1.8,4.3,2.6,6.4
		c69.6-11.1,138.7-27.6,210-29.5c0.1-0.4,0.1-0.8,0.2-1.2c-1.5-0.9-3.1-1.7-4.5-2.6c-4.4-2.7-4.8-4.6-2-8.9c1-1.5,1.6-3.3,2.4-5
		c-2.2-0.6-4.3-1.9-6.5-1.8c-10.3,0.3-10.3,2.2-14.8-11c-1.2-3.4-1.7-7.1-2.5-10.6c-3.9,1.8-9.7-1.9-9.9-6.4c0-0.5,0.3-1.3,0.5-1.3
		c0.7,0,1.7,0,2.1,0.5c1.2,1.4,2.3,3,3.4,4.5c0.4-0.1,0.8-0.2,1.1-0.3c0-4.6-0.1-9.3,0.1-13.9c0.1-1.9,0.9-3.7,1.5-5.5
		c0.8,1.7,2,3.4,2.3,5.1c1.2,7.5,2.1,15,3.2,22.5c0.1,1,0.4,2,0.7,3c2.7,10.3,2.7,10.2,13.2,10.4c1.8,0,3.7,0.2,5.3,0.9
		c3.8,1.4,4.7,4.9,2.4,8.2c-0.7,1-1.4,1.9-2.2,2.8c-1.4,1.7-1,3,0.9,4.1c5.8,3.1,11.3,7,18.6,6.1c3.3-0.4,6.9,0,10.1,0.8
		c4.6,1.2,8.4,4.3,9.7,8.9c2.7,9.4,7.1,18.4,8,28.3c0.9,10.1,2,20.2,3,30.3c0.7,7.4,1.4,14.8,2,22.2c0.3,4.6-0.9,5.6-5.4,4.9
		c-10.1-1.5-10.1-1.5-15.1,7.6c-2.4,4.3-4.7,8.7-7,13c1.8,0.7,3.9,1,4.7,2.1c0.9,1.3,1,3.4,1.1,5.2c0.1,4.8,0,9.5,0.5,14.5
		c4.9-7.6,9.8-14.4,20.9-8.6c-0.5-2.2-0.7-3.5-1.2-4.7c-2.2-6.1-4.6-12.2-6.5-18.4c-0.5-1.5,0.3-3.3,0.5-5c1.6,0.5,3.8,0.6,4.8,1.7
		c3.2,3.5,6.1,7.3,9.1,11.1c1.4,1.7,2.7,3.4,3.7,4.8c0-7,0.1-14,0-21.1c-0.1-6.4,0.4-12.9-0.7-19.2c-2.5-15.4,4.8-27.1,13.3-38.6
		c0.6-0.8,1.1-1.6,2-3c-2.6,0-4.6,0.1-6.7,0c-2.3-0.2-4.7-0.2-6.9-0.9c-4.5-1.5-5.4-4.8-2.3-8.4c2.5-3,5.4-5.6,8.9-9.2
		c-3.5,0.2-6.3,0.3-9.2,0.6c-2.2,0.2-4.4,0.7-6.6,1.1c-7.4,1.5-6.4,1.3-7.2-5.9c-0.6-5.6,2.2-8.9,4.3-13c3.9-7.6,7.7-15.3,11.6-23.2
		c-2.9,0.5-5.8,1.3-8.7,1.5c-10.4,0.8-20.8,1.6-31.2,2.2c-1.5,0.1-3.1-0.9-4.7-1.3c0.6-1.6,1-3.3,1.8-4.8c0.9-1.5,2.2-2.9,3.9-5
		c-3.4-0.4-6-0.7-8.7-0.9c-2.6-0.2-5.2-0.1-7.8-0.6c-1.3-0.3-3.4-1.3-3.6-2.2c-0.2-1.4,0.7-3.4,1.8-4.3c3.6-2.8,7.6-5,11.3-7.7
		c3-2.1,5.9-4.5,8.8-6.7c-0.2-0.4-0.3-0.8-0.5-1.2c-6.7-0.6-13.4-1-20-1.7c-3.1-0.3-6.2-0.8-9.2-1.5c-2.2-0.5-3.5-1.7-2.1-4.3
		c8.7,3.8,17.8,3,26.8,3.9c1.7,0.2,3.4,0.3,5,0.7c4.1,0.8,4.9,2.7,2,5.7c-3,3.1-6.5,5.6-10,8.1c-3.4,2.5-7.1,4.6-10.7,6.9
		c0.1,0.4,0.2,0.9,0.3,1.3c3.5,0.3,7.1,0.3,10.6,0.8c2.8,0.4,6.7,0.6,8.1,2.4c2.1,2.9-1.7,5.1-3.2,7.6c-0.2,0.3-0.4,0.7-0.8,1.5
		c1.3,0.1,2.4,0.2,3.4,0.3c14.2,0.4,28.1-1.8,41.9-4.9c0.8-0.2,1.5-0.5,2.3-0.4c0.7,0,1.9,0.5,1.9,0.8c0.1,0.8-0.2,1.9-0.8,2.3
		c-8.9,5.5-11.4,15.3-15.5,23.9c-1.8,3.7-2.8,7.7-4,11.7c-0.6,1.7-0.9,3.4-1.5,5.7c3.9-0.6,7.2-1.2,10.5-1.6
		c3.8-0.4,7.5-0.6,11.3-0.5c1.2,0,2.3,1.1,3.5,1.7c-0.6,1.1-1,2.3-1.9,3.1c-3,2.9-6.3,5.5-9.2,8.5c-2.4,2.5-1.8,4.1,1.7,4.6
		c3.2,0.4,6.5,0,9.7,0.3c1.7,0.2,3.3,1.1,5,1.7c-0.6,1.6-0.9,3.4-1.8,4.8c-3.8,6.4-8.1,12.4-11.5,19c-2.3,4.4-3.3,9.1-2.5,14.6
		c1.1,7,0.4,14.3,0.5,21.5c0.1,2.7,0.3,5.4,0.5,8.7c5.8-0.4,11.4-0.8,16.9-1c1.4-0.1,2.8,0.5,4.1,0.8c0,0.5-0.1,1-0.1,1.6
		c-5.4,0.4-10.7,1-16.1,1c-3.7,0-5.2,1.1-4.6,4.9c0.7,5,1.2,10.1,1.6,15.2c0.1,1-0.5,2.1-0.8,3.1c-0.9-0.7-2.2-1.2-2.8-2.1
		c-5.2-7.3-10.3-14.8-15.4-22.2c-0.4,0.2-0.8,0.5-1.2,0.7c2,5.7,4.1,11.4,6.1,17.2c0.5,1.5,1,3,1.3,4.5c0.7,4.1-0.8,5.4-4.8,4.2
		c-8.3-2.5-11.3-1.2-15.1,6.6c-0.7,1.5-1.2,3.2-2,4.7c-0.6,1-1.6,1.7-2.4,2.5c-0.7-1-1.8-1.8-2.1-2.9c-0.6-2.4-0.7-4.8-1.1-7.6
		c-3.3,6.4-6.4,12.4-9.8,18.8c1.3,0.2,1.9,0.4,2.5,0.4c22.3-0.4,44.6-0.9,66.9-1.3c12.3-0.2,24.6-0.8,36.8-0.2
		c27.1,1.3,54.2,1.1,81.2-2.1c13.3-1.6,26.8-1.7,40.2-2.6c17.3-1.1,34.6-2.6,51.9-3.4c12.1-0.6,24.3-0.5,36.4-0.5
		c1.6,0,3.1,0.9,4.7,1.4c-0.1,0.4-0.2,0.8-0.3,1.3c-3,0-6-0.1-9,0c-14.3,0.4-28.7,0.8-43,1.3c-7.8,0.3-15.6,0.7-23.4,1.2
		c-21.8,1.5-43.7,3.5-65.5,4.7c-22.1,1.2-44.3,3-66.4,2c-37.2-1.8-74.2,2.1-111.3,1.1c-1.3,0-3.1,0.8-3.9,1.8
		c-1.8,2.4-3.7,4.9-4.5,7.7c-3.6,11.7-12.7,19.1-20.8,27.4c-0.5,0.5-1,0.8-1.5,1.3c-0.2,0.2-0.2,0.5-0.5,1.5
		c2.6,0.6,5.2,1.4,7.8,1.8c3.5,0.6,4.8,2.5,2.7,5.3c-6.6,8.4-7,18.4-7.2,28.3c-0.4,23.5-0.3,47-0.8,70.4c-0.2,7.2-1.6,14.5-2.9,21.6
		c-2.3,12.3-2.9,24.6-2.3,37.4c15.8-33.3,43.4-54.5,72.2-75.5c0-0.2-0.3-1.2-0.6-2.2c0.3-0.3,0.5-0.6,0.8-0.9
		c1.2,0.9,3.2,1.6,3.4,2.7c0.3,1.2-0.8,3.4-1.8,4c-16.6,8.4-29,22-42.7,34c-9.4,8.2-16.8,18.3-23.2,28.9c-4.5,7.5-7.2,15.8-7.3,24.8
		c-0.1,7.4-0.7,14.8-1.1,22.2c0,0.3-0.4,0.6-1.2,1.6c-0.8-1.4-1.7-2.4-1.9-3.5c-0.3-1.9-0.2-3.9-0.2-5.9c0-12,0.2-23.9,0.1-35.9
		c-0.1-13,0.8-25.8,4.2-38.4c0.8-3.1,1.1-6.4,1.1-9.7c0.3-12.5,0.3-25,0.6-37.5c0.3-16.2,0.7-32.3,1.2-48.5
		c0.2-7.2,2.6-13.7,6.5-19.4c-3.3-1.4-6.5-2.8-9.8-3.9c-0.7-0.2-1.7,0.1-2.4,0.4c-5.4,2.6-10.8,5.1-16,8c-1.2,0.6-2.4,2.5-2.4,3.7
		c1.1,17.3-3.8,33.3-10.7,48.8c-1.5,3.3-4.2,6.3-6.8,8.9c-12.8,13.1-28.6,17.6-46.4,15.4c-8.5-1.1-14.9-5.9-19.8-12.8
		c-8.1-11.7-15.7-23.6-20.9-37c-2.8-7.2-7.7-13.5-11.7-20.3c-0.3-0.4-0.7-0.8-1.2-1c-8.4-4.7-16.8-9.5-25.5-14.4
		c-2.5,5.5-2.3,11.2-1.7,16.8c2.4,24.2,8.5,47.5,19,69.4c5.6,11.6,12.7,22.5,17.9,34.3c10.5,23.4,18.3,47.7,19.8,73.6
		c0.1,1.9,0.7,3.8,0.9,5.8c0.1,0.8-0.5,1.6-0.8,2.4c-0.8-0.4-2.1-0.6-2.4-1.3c-1.2-2.2-2.3-4.4-3-6.8c-5-16.6-14.6-30.8-24.4-44.8
		c-8.8-12.4-18.8-23.6-29.8-34.1c-2.9-2.8-5.9-5.8-9.4-7.6c-12.3-6.2-20.6-16.5-29.3-26.6c-1.2-1.4-2.4-2.7-3.6-4.1
		c-5-6.3-11.7-9.1-19.5-8.9c-3.4,0.1-4.6-1.5-4.1-4.5c0.4-2.2,1.1-4.3,1.8-6.3c2-5.6,4.2-11.2,6.3-16.8c2.9-7.8,3-15.9,1.5-23.9
		c-1.5-8.2,0.7-14.1,8-18.5c10-6.1,19.7-12.7,30.2-19.5c-6.6-10.4-13.2-20.9-19.7-31.2c-0.8,0.6-1.7,1.4-2.6,2.2
		c-0.8-1.1-2-2-2.4-3.2c-1.3-3.3-2.2-6.6-4.1-10.1c-0.9,3.6-2,7.2-2.8,10.9c-0.7,3.3-1.2,6.7-1.9,10c-0.2,1-1.2,1.8-1.8,2.7
		c-0.7-0.9-2-1.7-2.1-2.8c-1.1-6.9-1.9-14-3.1-20.9c-0.9-4.9-2.4-9.6-3.5-14.4c-0.6-2.7-2.1-3.5-4.9-2.9c-5.2,1-10.5,2-15.8,2.5
		c-1.3,0.1-2.8-1.5-4.2-2.1c-1.1-0.5-2.2-1.1-3.3-1.1c-7.8-0.1-15.7,0-23.5,0c-1.4,0-2.8-0.4-4.2-0.6c0-0.5,0-0.9-0.1-1.4
		c1.4-0.2,2.7-0.7,4.1-0.7c7.4-0.1,14.9-0.2,22.3,0c5.4,0.2,10-1,14.3-4.7c5.8-5,6.1-5-0.4-9.4c-5.1-3.4-10.2-6.8-15.2-10.4
		c-4.2-3.1-3.8-5.5,1.2-7.3c4.5-1.6,9.2-2.9,13.8-4.5c2.4-0.8,4.6-2.1,6.9-3.2c0-0.4,0-0.8,0-1.2c-4.9-1.6-9.9-2.9-14.6-4.8
		c-2.1-0.8-5.4-2.6-5.4-3.9c0.1-2.3,2.1-4.6,3.6-6.7c0.7-1,2.1-1.5,3.1-2.3c2.1-1.8,2.5-4,0.9-6.2c-1.6-2.2-3.7-4.1-5-6.5
		c-1.1-1.9-1.6-4.3-2.1-6.5c-0.1-0.5,0.8-1.2,1.2-1.7c0.5,0.5,1.3,0.8,1.6,1.4c1.7,3,3,6.2,5.1,8.9c5,6.7,4.6,10.2-2.1,14.9
		c-1.4,1-2.5,2.4-4.7,4.4c3.7,1.1,6.2,1.8,8.7,2.6c3.2,1,6.5,1.9,9.6,3.3c1.5,0.7,3.4,2.3,3.5,3.6c0.1,1.3-1.6,3.3-3,3.9
		c-5.5,2.4-11.2,4.3-16.8,6.4c-1.4,0.5-2.9,1-5.3,1.8c6.1,4.1,11.4,7.7,16.7,11.4c2,1.4,4.1,2.9,5.6,4.8c2.2,2.8,1.4,5.5-1.6,7.5
		c-3,1.9-5.8,4.1-8.6,6.2c0.2,0.4,0.4,0.8,0.6,1.2c3.3-0.7,6.5-1.2,9.7-2c8.2-2,9.9-1.2,12,7c2,7.9,3.5,16,5.3,24.5
		c0.8-2.9,1.5-5.6,2.2-8.2c0.6-2,1-4.1,1.9-5.9c0.6-1.1,2-2.4,3-2.4c0.9,0,2.2,1.5,2.7,2.7C238.9,781.6,239.5,784.3,240.2,786.9z
		 M497.1,740.4c-9.4-0.4-18.1-1-26.8-1.1c-21.9,0-43.8,0.3-65.7,0.3c-1.3,0-3-1-3.8-2c-1.8-2.3-2.8-5.3-4.8-7.4
		c-4.5-4.5-9.3-8.9-14.3-12.8c-15-11.8-27.8-3.9-31.9,11.1c-1.2,4.4-3.3,6.3-6.6,8c-17.8,9.2-36.6,14.2-56.8,13.7
		c-3.7-0.1-7.5,0-10.8,0c-0.7,1.9-1.1,3.1-1.5,4.3c-1.1-0.6-2.1-1.5-3.2-1.8c-1.6-0.5-3.7-1.3-5-0.7c-5,2.5-10,4.4-15.7,3
		c-0.2,0-0.4,0.3-0.6,0.4c-0.6,5.2-1.4,10.4-1.6,15.6c-0.2,4.5-3.3,9.1-0.1,13.7c0.2,0.2,0,0.8-0.2,1.1c-2.3,4.8-0.2,8.5,2.6,12.2
		c2.9,3.8,6.4,7.5,8.3,11.8c5.7,12.5,14.5,22.1,25.7,29.8c10.5,7.1,20.7,14.7,32.9,18.6c13.6,4.3,27.8,5.9,42.1,5.4
		c7.3-0.3,14.6-1,21.9-1c10.6,0,20.7-2.2,30.7-5.5c9.5-3.1,19.4-5.8,28.2-10.4c11.5-6,20.5-15.5,28.1-26.1c1-1.4,1.6-2.9,2.4-4.5
		c2.5-5.1,5-10.2,7.4-15.4c3.4-7.3,7-14.5,10.2-21.8c1.4-3.3,2.1-7,3-10.5c0.1-0.4-0.3-0.9-0.5-1.5c-0.7,0.2-1.2,0.4-1.7,0.4
		c-1.3,0-2.7-0.2-4-0.3c0.1-1.4,0.1-2.8,0.4-4.1c0.2-1,0.8-1.9,1.3-2.8C490.1,753.8,493.4,747.5,497.1,740.4z M241.7,710.5
		c7.4,13.6,17.2,25.3,28.1,35.9c0.9,0.9,2.8,1.1,4.3,1.1c6.9-0.1,13.8-0.5,20.7-0.6c17.6-0.5,33.7-6.2,49.1-14.3
		c1.1-0.6,1.9-2.2,2.2-3.5c3.5-12.4,12.5-23.6,28.7-19c5.7,1.6,9.7,5.6,13.7,9.4c4.8,4.5,9.7,9.1,13.8,14.2c1.7,2.1,2.8,3.1,5.4,3
		c23.5-0.1,46.9-0.1,70.4,0c6.1,0,12.2,0.4,18.4,0.8c3.3,0.2,3.9-2.3,4.4-4.4c0.1-0.5-2.4-1.8-3.8-2.4c-0.9-0.4-2.1-0.1-3.1-0.2
		c-5.3-0.5-6.8-2.6-4.7-7.6c1.5-3.5,3.7-6.9,6.2-9.8c3.5-4,5.5-7.7,3.9-13.5c-3.1-11.2-7-21.6-17.4-28.1c-0.7-0.5-1.6-1-2.4-1.1
		c-3.5-0.2-7-0.5-10.5-0.4c-16.7,0.8-33.3,1.6-50,2.8c-17.9,1.3-35.9,2.7-53.8,4.6c-10.1,1.1-20.1,3.2-30.1,4.7
		c-24.5,3.6-49,7.3-73.5,10.7c-4.8,0.7-8.5,2.7-11.6,6.6c3.7,2,2.4,4-0.2,5.7C247.6,706.9,244.9,708.5,241.7,710.5z M218,909.5
		c1.1,0.5,1.3,0.6,1.6,0.6c0.5,0.1,1,0.1,1.6,0.1c8.2,0.2,14.8,3.4,20.1,9.7c4.9,5.8,9.8,11.5,14.9,17.1c2.4,2.7,5,5.5,8.1,7.2
		c17.5,9.5,30.5,24.1,42.5,39.4c11.4,14.5,22.5,29.5,29,47.1c0.2,0.4,0.5,0.8,1.1,1.8c0.2-1.2,0.3-1.6,0.3-2.1
		c-0.1-1.8-0.1-3.7-0.4-5.4c-6.2-28.3-14.8-55.7-29.7-80.7c-2.7-4.5-5.4-9-7.5-13.7c-8.6-18.6-14.2-38.1-17.1-58.3
		c-1.3-9.4-2.5-18.9,0.3-28.3c0.3-0.8-0.9-2.4-1.8-3.3c-4.2-3.7-8.8-7-12.6-11.1c-2.8-3.1-5.1-2.7-7.9-0.8c-9.1,6-18.3,12-27.4,18.1
		c-4,2.7-6.1,6.3-5.3,11.3c0.4,2.6,0.7,5.2,1,7.8c1.4,13-3,24.7-8,36.2C219.7,904.6,218.9,907,218,909.5z M317.2,861.9
		c0.4,0.8,0.7,1.3,1,1.9c3.7,7,8,13.8,11.1,21c5.2,12.3,12.7,23,20.5,33.6c1.9,2.5,4.6,4.8,7.5,6.1c15.3,6.8,29.7,3.6,43.5-4.4
		c11.9-6.9,16.8-18.6,20.8-31c3.5-10.7,4.8-21.5,3.8-32.9C389.9,868.3,354,869.3,317.2,861.9z M250.2,688.8c0.1,0.5,0.1,0.9,0.2,1.4
		c2.5,0.1,5,0.7,7.4,0.3c6.4-1.1,12.7-3,19.2-3.9c19.9-2.8,39.8-5.1,59.7-7.8c10.2-1.4,20.3-3.6,30.5-4.7c16.9-1.7,33.8-3,50.7-4.2
		c18.2-1.2,36.4-2.1,54.6-3c2.7-0.1,5.5,0.2,8.2,0.1c3.7-0.2,6.6-3,5.9-5.7c-1.6-5.9-9-11.8-15.2-11.4c-11.8,0.7-23.7,1.5-35.5,2.5
		c-16,1.4-32,2.6-47.8,4.8c-14.4,2-28.7,5-43.1,7.6c-27.6,4.9-55.1,10.1-82.8,14.7C256,680.5,253.2,684.4,250.2,688.8z M259.9,740.9
		c-1.5-1.7-2.6-3-3.6-4.3c-5.5-7.6-11.1-15.1-16.3-22.9c-2.8-4.1-2.2-5.1,2.4-7.4c1.9-1,3.7-2.2,5.6-3.3c-0.3-0.2-0.7-0.3-1-0.5
		c0-2.1,0-4.2,0-6.6c-5.9,1.3-11.8,2.6-18.5,4.1c0.3,6.6,0.2,13.9,1.2,21.1c0.8,6.2,2.3,12.4,4.4,18.1c1.9,5.1,5.2,9.4,12,8.7
		c2.2-0.2,4.6,0.8,6.9,1.3c1.3,0.2,2.6,0.4,4.1,0.7C254.7,740.8,254.7,740.8,259.9,740.9z M487.5,670.6c0.1,0.4,0,0.7,0.2,0.9
		c7.7,6.1,11,14.7,14,23.5c2.5,7.4,3.2,14.4-3.8,20.1c-1.9,1.6-3.2,4.1-4.5,6.3c-0.9,1.5-1.2,3.3-1.9,5.2c3.9,0.6,7.4,0.6,10.4,1.8
		c4.6,1.9,2,5.6,1.2,9.1c3.3,0.6,6.4,1.1,9.9,1.7c0-2.4,0.2-4.4,0-6.3c-0.9-8.7-1.9-17.3-2.9-26c-1.2-10.7-2.5-21.5-3.9-32.2
		c-0.1-1.1-1-2.8-1.7-2.9C498.9,671.3,493.2,671,487.5,670.6z M488.5,667.5c5,0.4,9.7,0.8,14.5,1.2c-2-17.2-8.8-20.3-20.5-18.3
		C486.2,655.3,492.3,659.2,488.5,667.5z M248.5,692.4c-4.5-4.3,1.1-6.5,2.2-10.9c-6.8,2.5-12.8,4.5-18.6,7c-1,0.4-1.8,3-1.5,4.3
		c0.4,1.6,1.3,3.6,4.1,2.8C239,694.3,243.5,693.5,248.5,692.4z M266.6,748.2c-2.8-1.6-4.9-2.7-7.7-4.3
		C260.6,750,260.7,750.1,266.6,748.2z"/>
	<path d="M130.6,42.4c0,1.9,0,3.8,0,5.9c8.2,0,16.2,0.8,24-0.1c33.7-3.8,67.3-8.4,100.9-12.1c36.8-4,73.6-8,110.5-10.9
		c27.7-2.2,55.5-2.8,83.2-4.1c22.9-1.1,45.9-2.4,68.8-3.1c33.3-1,66.5-1.3,99.8-2.4c22.8-0.8,45.6-2.7,68.4-3.9
		c24.6-1.2,49.3-2.1,73.9-3.1c36.6-1.5,73.2-3.1,109.9-4.4c19.4-0.7,38.9-1,58.3-1.1c91.6-0.5,183.2-1.1,274.8-1.3
		c23.5,0,46.9,1.7,70.4,2.1c25.4,0.5,50.9,0.5,76.3,0.8c2,0,3.9,0.7,5.9,1c0,0.4-0.1,0.8-0.1,1.2c-0.7,0.2-1.4,0.6-2,0.6
		c-27.3-0.2-54.6,0.3-81.8-1C1193.9,2.9,1116,5,1038.2,5c-47.5,0-95,0.4-142.5,1.4c-41.1,0.9-82.1,2.8-123.2,4.3
		c-24.4,0.9-48.8,1.8-73.1,3c-25.9,1.3-51.8,3.2-77.8,4.2c-26.5,1.1-53,1.4-79.4,2.2c-32.6,1.1-65.2,2.4-97.8,3.6
		c-18.1,0.7-36.3,0.9-54.4,2.1c-23.4,1.5-46.8,3.7-70.2,5.9c-18.7,1.7-37.4,3.5-56,5.8c-24.3,3-48.5,7.1-72.9,9.8
		c-18.9,2.1-37.9,3-56.9,4.1c-3.3,0.2-4.7,1-4.9,4.3c-0.6,12-2,24-1.8,35.9c0.5,31,1.4,62.1,2.8,93.1c1.2,25.9,2.9,51.8,5,77.7
		c2.1,27.2,5.1,54.3,7.4,81.4c2.9,34,6.4,68.1,8,102.2c2.2,48,2.9,96,4.1,144c0.6,24.3,1,48.5,1.6,72.8c0.1,3.1,0.4,6.2,0.7,9.3
		c14-1.2,27.6-2.3,41.4-3.5c0,0.1,0.2-0.4,0-0.8c-3.5-13-7-25.9-10.7-38.8c-1.3-4.4-3.2-8.5-4.6-12.9c-0.5-1.5-0.2-3.1-0.3-4.7
		c1.5,0.4,3.1,0.6,4.4,1.4c3.9,2.2,7.5,4.7,11.4,6.8c2.5,1.3,4,0.3,4-2.6c0-5.9-0.2-11.7,0-17.6c0-1.5,1-3,1.5-4.5
		c1.5,0.8,3.1,1.4,4.4,2.4c1.8,1.3,3.5,2.8,5.2,4.2c1.3-2.1,3.2-4.1,3.9-6.4c2.3-7.1,4.2-14.3,6.4-21.4c0.4-1.3,1.6-3.1,2.7-3.3
		c1-0.2,2.6,1.3,3.6,2.4c1.9,2.1,3.6,4.4,6.1,7.6c1.1-3.5,1.7-6.1,2.7-8.4c0.7-1.4,2-2.6,3.3-3.6c1.3-1.2,3.1-1.8,4.3-3.1
		c3.3-3.8,6.4-7.9,9.7-11.8c2.7-3.2,4.6-3.1,7.5-0.2c0.3,0.3,0.5,0.6,0.8,0.9c4.4,5.6,7.5,7.2,14.8,0.2c2.8-2.7,5.7-3.4,9.4-3.7
		c8.5-0.9,17-2.4,25.4-3.9c0.8-0.1,2-2.6,1.6-3.4c-4.5-9.2-8.4-18.9-16.3-25.9c-0.5-0.4-1.2-0.7-1.5-1.3c-0.4-1-0.5-2-0.7-3.1
		c1.1,0,2.6-0.4,3.1,0.1c3.6,4.3,8.9,5.1,13.7,7.1c9.9,4,19.9,7.9,29.6,12.3c4.2,1.9,8,4.8,11.9,7.4c8.4,5.6,12.6,4.5,18.8-3.3
		c4.6-5.9,10.1-11.2,15.3-16.6c1-1.1,2.5-2,4-2.4c1.3-0.4,3.4-0.6,4.2,0.2c0.8,0.7,0.9,2.9,0.5,4.2c-1.2,3.8-2.8,7.5-4.8,12.5
		c3.5-1,6.1-1.4,8.5-2.5c6.7-2.9,13.2-6.2,20-9c1.6-0.7,3.6-0.3,5.5-0.4c-0.2,2,0.1,4.2-0.9,5.8c-1.9,3.2-4.4,6.1-6.7,9.1
		c-1.3,1.7-2.6,3.5-4.8,6.3c2.8,0,4.5,0.1,6.2,0c7.9-0.6,15.8-1.4,23.8-2c1.5-0.1,3.1,0.8,4.6,1.3c-0.7,1.6-1,3.6-2.2,4.6
		c-4.2,3.6-8.7,6.9-13.8,10.7c2.9-0.2,5.2-0.5,7.6-0.5c5.2-0.1,10.4-0.5,15.6-0.2c4.5,0.2,5.4,2.6,2.6,6.2c-1.7,2.3-3.8,4.2-6.3,7.1
		c5.8,0,10.9,0,16,0c0.9,0,1.9-0.3,2.7-0.1c0.7,0.2,1.4,0.8,2.1,1.3c-0.6,0.6-1.2,1.6-1.8,1.6c-3,0.3-6,0.3-9,0.3
		c-3.4,0-6.8,0.1-10.2-0.3c-1.3-0.1-3-1.3-3.5-2.4c-0.3-0.7,0.9-2.6,1.8-3.5c2.1-2.1,4.5-3.8,7.4-6.3c-7.2-2.7-13-1-18.7-0.6
		c-2.9,0.2-5.7,0.5-8.6,0.3c-1.2-0.1-2.3-1.2-3.5-1.9c0.8-1.2,1.3-2.8,2.4-3.5c4-2.7,8.1-5.1,12.2-7.8c1.1-0.7,2-1.8,2.7-3.6
		c-6.4,0.6-12.8,1.1-19.3,1.7c-2.6,0.2-5.2,0.6-7.8,0.4c-1.7-0.1-4.2-0.8-4.6-1.9c-0.6-1.4,0.1-3.8,1.1-5.3c1.8-2.8,4.2-5.3,6.2-8
		c1.3-1.7,2.5-3.5,3.7-5.3c-0.2-0.3-0.4-0.6-0.6-0.8c-4.3,2-8.6,4-13,5.8c-4.7,2-9.3,4.2-14.2,5.4c-5.2,1.3-6.9-1-5.1-6
		c1.2-3.3,2.6-6.5,3.3-10.4c-1.3,0.8-2.9,1.4-4,2.5c-4.9,5.2-10.1,10.2-14.4,15.8c-6.9,9-13.2,10.6-22.3,4
		c-7.1-5.1-14.9-8.4-22.9-11.7c-6.3-2.6-12.5-5.3-18.7-7.9c-1.4-0.6-2.8-1-5.2-1.9c3.1,5.5,5.8,10.1,8.2,14.8
		c1.4,2.6,2.6,5.4,3.3,8.3c0.7,2.8-0.7,4.9-3.7,5.4c-9.4,1.5-18.8,2.7-28.2,4.2c-1.8,0.3-3.6,1.2-5.1,2.1c-1.5,0.9-2.7,2.5-4.2,3.5
		c-5.2,3.6-9.6,3.1-14-1.3c-1.3-1.3-2.5-2.6-4.1-4.3c-3.3,4.1-6.2,8-9.6,11.6c-2,2.2-4.8,3.8-7,5.8c-0.8,0.7-1.2,1.8-1.6,2.8
		c-1.2,3-0.8,7.5-4.7,8.3c-4,0.9-5.5-3.3-7.7-5.7c-0.6-0.7-1.1-1.4-2.2-2.7c-1.4,4.6-2.6,8.6-3.8,12.6c-1.1,3.8-2.1,7.5-3.2,11.3
		c-0.9,3.2-2.6,5.8-5.9,6.7c-3.3,0.9-4.9-1.7-6.7-3.8c-0.3-0.4-0.5-0.9-0.7-1.4c-0.3,0.2-0.7,0.3-1,0.5c0,4.7,0,9.5,0,14.2
		c0,9.7-3.2,11.5-11.7,6.9c-2.2-1.2-4.2-2.6-6.3-3.8c-0.2,0.2-0.5,0.4-0.5,0.6c4,14.2,8.1,28.3,12.2,42.5c1.5,5.4,2,11.6,9.9,12.4
		c-0.2,0.6-0.5,1.1-0.7,1.7c-2.1,0-4.2,0.2-6.2,0c-4.3-0.6-8.6-2.1-12.9-2c-7,0.1-14,1.2-21,2.1c6.9,2.9,14.1,2.9,21.4,2.9
		c1.8,0,3.6,1,5.5,1.5c-1.8,0.5-3.6,1.6-5.4,1.5c-10.1-0.9-20.2-2.1-30.3-3.2c-0.6-0.1-1.3-0.1-2.4-0.1c2.9,26.2,5.7,52.2,8.5,78.2
		c-0.5,0.2-1,0.3-1.5,0.5c-0.7-1.6-1.7-3.1-1.9-4.7c-0.8-8.3-1.3-16.6-2.2-24.9c-1.8-15.8-3.2-31.7-6-47.3c-0.7-4.2,0.1-8-0.4-12
		c-0.5-4.3-0.6-8.6-0.7-12.9c-0.6-35.5-0.9-71-1.8-106.5c-1-38.6-2-77.2-4-115.8c-1.5-28.5-4.8-56.9-7.3-85.3
		c-2.4-27.3-5.2-54.5-7.3-81.8c-2.6-34.2-4.6-68.4-6.7-102.7c-2.1-33.4-2.3-66.8-0.2-100.1c0.4-5.7,1.6-11.3,2.5-17
		c0.1-0.8,0.7-1.5,1-2.3C129.8,42.3,130.2,42.3,130.6,42.4z"/>
	<path d="M689,500.7c125.2-19,250.5-38,376.3-57.1c-0.4-7-0.8-14-1.3-21c-1.2-16.6-3.1-33.2-3.5-49.9c-0.3-14.9,1-29.9,1.6-44.9
		c0.1-4,1.3-6.5,5.8-7.4c14.7-3.1,29.2-6.7,43.9-9.7c9.8-2,19.7-3.6,29.7-5c6.4-0.9,7-0.2,10,5.4c1.1,2,3,3.6,4.1,5.7
		c1,2.1,2.1,4.7,1.7,6.7c-0.4,1.4-3.2,2.5-5.2,3.1c-8.1,2.4-16.3,4.5-24.5,6.9c-13,3.9-25.9,8-38.9,11.9c-2.8,0.9-4.1,2.4-3.6,5.4
		c0.2,1.4,0.1,2.9,0.3,4.3c0.8,8.4,0.8,8.6,9.4,8c8.1-0.6,16.1-1.5,24.1-2.6c5.6-0.7,7.4,0.6,7.8,6.2c0.2,2.1,0.6,4.1,0.9,6.2
		c0.7,4.7-0.5,6.1-5,7c-9.1,1.8-18.1,3.9-27.1,5.9c-3.2,0.7-4.6,2.4-4.2,5.8c0.5,4.8,0.7,9.6,1.1,14.4c0.2,2.5,1.1,4,4.2,3.7
		c12.7-1.5,25.4-2.7,38-4.4c3.1-0.4,4.6,0.4,4.8,3.3c0.5,6,1.4,12,1.1,17.9c-0.1,2.5-2.7,4.9-3.8,6.6c2.8,0,6.6,0.1,10.4,0
		c2.5-0.1,3.7,1,4,3.3c0.2,2.3,0.3,4.7,0.4,7c0.5,9.9,1.1,19.7,1.5,29.6c0,0.7-1.6,2.3-2.4,2.2c-21-2.2-41.6,1.1-62.4,3
		c-14.8,1.3-29.7,2.1-44.4,4c-18.1,2.3-36.1,5.5-54.1,8.2c-58.9,9.1-116.8,23.5-175.2,35.3c-29,5.8-58.1,11.1-87.2,16.5
		c-1.2,0.2-2.5-0.2-3.7-0.3c0-0.5,0-1,0-1.6c3.6-0.7,7.3-1.5,10.9-2.1c63.9-11.6,127.3-25.6,190.9-38.7c38.4-8,77.2-14.1,116-19.7
		c24.7-3.6,49.8-4.8,74.8-6.7c10.3-0.8,20.6-0.6,30.9-0.9c0.8,0,1.5-0.1,1.6-0.1c0-11.2,0-22.1,0-33c0-3.1-1.8-3.3-4.1-3.1
		c-15.3,1.7-30.6,2.9-45.8,5.2c-31.3,4.6-62.6,9.7-93.9,14.5c-45.3,7-90.7,14-136,20.9c-33.9,5.1-67.8,10.1-101.7,15.1
		c-24.1,3.6-48.2,7.2-72.3,10.7c-1.9,0.3-3.8-0.2-5.7-0.4C688.9,501.5,689,501.1,689,500.7z M1136.5,408.8
		c-14.1,1.3-27.4,2.6-40.7,3.9c-4,0.4-5.9-1.3-6.3-5.1c-0.5-5.3-0.9-10.6-1.3-16c-0.4-5.7,0.5-7.3,5.9-8.8c7.5-2,15.1-3.9,22.8-5.5
		c7.5-1.6,7.6-1.5,6.8-9.5c-0.4-4.7-0.9-4.8-5.6-4.3c-9.8,0.9-19.7,1.5-29.6,2.2c-3.3,0.2-5.3-1.4-5.7-4.6c-0.4-3.5-0.4-7-0.9-10.5
		c-0.6-4.2,0.7-6.7,4.9-8c21.4-6.3,42.7-12.7,64.1-18.9c4.4-1.3,4.7-1.9,1.9-5.6c-1.8-2.4-3.2-5.1-5-7.4c-0.8-1-2.3-2.2-3.5-2.2
		c-4.2,0.1-8.4,0.3-12.4,1.1c-15.4,3.2-30.8,6.8-46.2,10.1c-4.7,1-9.5,1.8-14.2,2.7c-5.7,1.1-5.9,1.3-6.2,6.9
		c-0.3,5.8-0.5,11.7-0.7,17.5c-0.3,14.1-1,28.1-0.6,42.2c0.4,12.2,2.2,24.4,3.3,36.6c0.5,5.4,0.7,10.8,1,16.6c2-0.3,3.4-0.4,4.7-0.6
		c19.8-3.8,39.6-7.6,59.5-11.4c2.7-0.5,5.2-1.6,5-5C1137.3,419.9,1136.9,414.3,1136.5,408.8z"/>
	<path d="M432,218.7c1.9-16,3.9-32,5.8-48c0.3-0.1,0.7-0.2,1-0.3c0.8,1.2,2,2.2,2.5,3.5c6,16.8,13.1,33.3,14.3,51.4
		c0.2,3,1,5.9,1.8,8.8c1.7,6.6,3.5,13.3,5.2,19.9c4.5-0.9,9.3-1.9,14.4-2.9c-0.2-1-0.2-2-0.5-3c-7.5-21.4-11.6-43.5-14.2-66
		c-1.8-16-4.7-31.9-7-47.9c-0.5-3.3-1.9-3.9-4.9-3.5c-5,0.7-10.1,1.2-15.2,1.3c-3.3,0.1-4.4,1.5-4.5,4.4c-0.3,8.5-0.7,16.9-1,25.4
		c-0.3,9.8-0.4,19.5-0.8,29.3c0,1.1-0.9,2.2-1.5,3.3c-1.1-0.6-2.5-0.8-3.3-1.7c-5.6-6.3-11.3-12.7-14.5-20.7
		c-3.9-9.8-9.5-18.5-16.9-26.1c-4.5-4.7-4.2-5-10.4-3.2c-1.9,0.5-3.8,0.8-5.8,1c-0.6,0-1.3-0.9-2-1.3c0.5-0.5,0.9-1.4,1.5-1.5
		c3.8-1.2,7.7-2.5,11.6-3.1c1.3-0.2,3.3,1,4.4,2.1c1.6,1.6,2.5,4.1,4.2,5.6c8.3,7.7,12.4,17.9,17.4,27.6c3,5.8,7.1,11,10.8,16.4
		c0.3-0.2,0.7-0.4,1-0.6c0.4-8.4,0.8-16.8,1.2-25.2c0.4-9.6,0.7-19.3,1.1-28.9c0.2-3.6,1.8-5.7,5.8-5.9c6.2-0.3,12.5-0.9,18.7-1.6
		c3.5-0.4,5,1.1,5.5,4.4c1.7,13,3.3,26.1,5.5,39.1c3.4,20.2,7.1,40.3,11,60.3c1.1,5.6,3.5,10.9,5.1,16.4c1.5,4.9,0.5,6.2-4.5,7.2
		c-3.7,0.7-7.4,1.6-11,2.5c-2.5,0.6-4.5,0.5-5.1-2.5c-2.1-10.2-5.2-20.2-6.2-30.5C451,209,445,195,440.1,180.5
		c-1.2,8.5-2.3,17-3.5,25.5c-0.7,5-1.5,10-2.5,15c-0.2,1.1-1.3,2.4-2.3,2.7c-0.6,0.2-2.1-0.8-2.7-1.6c-5.9-7.6-11.6-15.4-17.5-23.1
		c-1.8-2.3-3.7-4.6-5.5-6.9c-0.5,0.2-1,0.4-1.5,0.5c2.9,18.5,5.9,36.9,8.8,55.4c0.2,1.2,0.4,2.3,0.5,3.5c0.6,7.8,0.5,7.8-7,10.1
		c-1.9,0.6-3.6,1.4-5.4,2.3c-2.7,1.3-4.5,0.7-5.4-2.2c-3.7-11.4-7.9-22.7-11-34.2c-5.6-21.3-10.6-42.7-15.6-64.2
		c-1.1-4.6-1-9.6-1.2-14.4c0-0.7,1-1.6,1.5-2.3c0.5,0.6,1.4,1.3,1.4,1.9c-0.6,12,3.4,23.2,6,34.6c5.7,25.2,11.9,50.2,20.8,74.5
		c0.4,1.2,1,2.4,1.5,3.5c3.5-1.1,6.9-1.9,10.2-3.2c0.8-0.3,1.6-2,1.6-3c-0.3-3.4-0.9-6.7-1.4-10.1c-2.1-14.7-4.2-29.4-6.4-44
		c-0.7-4.8-1.7-9.5-2.4-14.3c-0.1-1,0.3-2.1,0.5-3.1c0.9,0.5,2.2,0.8,2.8,1.5c7.1,9.3,14.2,18.7,21.3,28.1c1.6,2.1,3.3,4,4.9,6
		C431,218.9,431.5,218.8,432,218.7z"/>
	<path d="M792.9,798.8c1.1-0.4,2.2-1.1,3.3-1c36,1.2,72,2.6,107.9,3.8c9.2,0.3,18.5-0.1,27.8-0.2c15.9-0.2,31.9,0,47.7-0.9
		c17.2-0.9,34.3-3,51.4-4.4c6.2-0.5,12.5-0.5,18.8-0.9c28.5-2,57-3.3,85.6-2.8c25.7,0.5,51.4,0.3,77.1-0.1
		c44.5-0.6,89-1.4,133.4-2.4c13.9-0.3,27.9-1.4,41.8-2.2c2-0.1,3.9-0.8,5.2-1.1c-1.2-5.5-2.5-10.3-3.3-15.2c-0.8-4.9-2.4-9.3-6-12.9
		c-0.8-0.8-1.3-1.9-1.9-2.9c0.3-0.3,0.6-0.6,0.9-0.9c1.3,0.8,2.6,1.5,4.2,2.5c0.2-4.2,0.5-8.3,0.7-12.3c0.5,0,1,0,1.5-0.1
		c0.3,1.2,0.8,2.5,0.8,3.7c0.1,3.1-0.1,6.3,0.1,9.4c0.2,2,0.5,4.3,1.5,5.9c11.2,18.2,12.8,37.7,6.9,57.6
		c-3.3,10.9-8.9,21.1-13.5,31.5c-0.5,1.1-1.5,1.9-2.3,2.8c-0.4-0.2-0.7-0.3-1.1-0.5c0.3-1.1,0.3-2.2,0.8-3.1
		c8-13.6,14.5-27.8,16-43.7c0.7-7,0.1-14.2,0.1-20.6c-5.4,1-9.8,2.6-14.3,2.7c-36.1,1-72.2,1.7-108.4,2.5
		c-40,0.8-80.1,1.8-120.1,2.4c-16.4,0.2-32.9-0.6-49.3-0.4c-13.2,0.2-26.3,1.3-39.4,2c-14.3,0.8-28.8,0.6-42.9,2.5
		c-35.2,4.6-70.5,4.3-105.9,4.6c-16.2,0.1-32.3-1.1-48.5-1.6c-18.4-0.6-36.8-1-55.2-1.5c-7.1-0.2-14.2-0.5-21.3-0.8
		C793.1,799.7,793,799.2,792.9,798.8z M1395.9,784.5c0.5-0.2,1-0.3,1.4-0.5c-1-3.2-2.1-6.4-3.1-9.6c-0.5,0.2-1,0.3-1.5,0.5
		C1393.8,778.1,1394.8,781.3,1395.9,784.5z"/>
	<path d="M1404.7-0.6c-5.5,26-9.8,52.2-11,78.8c-0.8,16.4-0.8,32.9-0.8,49.3c0,45.5-0.4,91.1,0.6,136.6
		c1.9,83.9-1.3,167.8-0.9,251.7c0.2,40.8,1.4,81.7,2,122.5c0.4,25.2,0.4,50.4,0.6,75.6c0,2.5,0.3,5.1,0.4,7.6
		c-0.5,0.1-0.9,0.3-1.4,0.4c-0.5-1.5-1.5-3.1-1.5-4.6c-0.2-10.2,0-20.4-0.1-30.5c-0.9-53.2-2.6-106.5-2.7-159.7
		c-0.1-60.1,1.7-120.3,1.8-180.4c0.1-55.5-1.3-110.9-1.6-166.4c-0.2-34.3,0.3-68.6,1.1-102.9c0.5-20.1,3.5-40,7.3-59.7
		c1-5,1.7-10,2.8-15c0.3-1.4,1.6-2.7,2.5-4C1404.1-1.2,1404.4-0.9,1404.7-0.6z"/>
	<path d="M1060.7,741.6c-4.5-1.6-9-3.2-13.5-4.9c-2.7-1-5.6-1.7-8-3.1c-1.6-0.9-3.5-2.9-3.5-4.5c0-1.6,1.7-3.8,3.3-4.7
		c2.9-1.7,6.2-2.7,9.4-3.8c9.7-3.5,19.4-6.9,29.2-10.3c1.3-0.4,2.7-0.4,4.1-0.6c0.1,0.4,0.3,0.9,0.4,1.3c-0.9,0.5-1.8,1.1-2.7,1.4
		c-11.8,4.2-23.6,8.3-35.4,12.6c-2.1,0.8-3.8,2.4-5.7,3.7c1.8,1.3,3.4,2.9,5.4,3.7c8,3.2,16,6.4,24.1,9.1c2.9,1,6.3,0.8,10.4,1.3
		c-1.1-2.5-1.8-4-2.5-5.5c-3.4-8.1-1.2-18.5,4.9-23.3c2.5-2,3.4-1.9,5.2,0.2c-11.7,5.1-10.7,19.2-5.5,26.2c0.8,1.1,2.8,1.8,4.3,1.9
		c13.3,0.3,26.6,0.3,39.9,0.4c38.9,0.3,77.8,0.6,116.6,1.1c21.3,0.3,42.5,1.3,63.8,1.2c16.8-0.1,33.6-1.5,50.4-2.1
		c8.3-0.3,16.7-0.1,25.1-0.1c1.2,0,2.4,0.2,3.6,0.3c0,0.4,0.1,0.9,0.1,1.3c-1.3,0.3-2.6,0.7-4,0.7c-12.7,0.2-25.3,0.3-38,0.6
		c-24.4,0.5-48.8,1.7-73.1,1.6c-37.3-0.1-74.6-0.9-111.9-1.4c-25.2-0.3-50.4-0.6-75.5-0.7c-1.7,0-3.3,1-4.9,2.2
		c-9.3-3.8-19.2-2.3-28.9-2.2c-34.1,0.3-68.1,1.2-102.2,1.5c-42.7,0.4-85.3,0.5-128,0.8c-1.1,0-2.3-0.1-3.4-0.2
		c-0.1-0.4-0.2-0.9-0.3-1.3c1.3-0.3,2.6-1,3.9-1c30.7,0,61.3,0.4,92,0.1c49.6-0.6,99.2-1.6,148.7-2.5c0.6,0,1.2-0.1,1.9-0.2
		C1060.5,742.2,1060.6,741.9,1060.7,741.6z"/>
	<path d="M776.4,472.6c5.5-0.8,10.5-1.4,15.5-2.4c0.9-0.2,2-1.4,2.2-2.3c0.6-3,1.2-6.2,1.1-9.3c-0.3-14.2-0.8-28.4-1.2-42.6
		c0-1.2,0.9-2.4,1.4-3.6c1.1,0.6,2.3,1,3.2,1.8c6.3,5.9,12.4,11.9,18.8,17.7c3.4,3.2,9.1,1.1,10.2-3.5c1.4-6.4,3-12.7,4.2-19.1
		c0.6-3.3,0.4-6.7,0.8-10.1c0.1-0.8,1-1.5,1.6-2.3c0.6,0.7,1.7,1.3,1.8,2.1c0.6,3.9,0.7,7.8,1.5,11.6c1.4,7,3.3,13.9,4.6,20.9
		c1,5.2,1.3,10.6,1.9,15.9c0.2,1.7,0.1,3.4,0.2,5.1c0.5,6.2,1,6.6,7.1,5.6c1.8-0.3,3.6-0.3,5.5-0.5c5.4-0.4,6.3-1.4,5.6-6.9
		c-0.8-6.2-1.7-12.4-3-18.5c-3.8-18.5-4.9-37.5-10.7-55.5c-2.5-7.7-5.2-15.3-7.7-23c-0.7-2.2-1.5-4.5-1.5-6.8
		c-0.1-3.3-1.6-3.8-4.5-3.6c-8.3,0.6-8.3,0.5-10.1,8.8c-3.2,14.8-5.3,29.8-4.5,45c0.1,1.2-0.7,2.5-1.1,3.8c-1.2-0.8-2.8-1.4-3.5-2.5
		c-8.5-13.4-16.9-26.9-25.2-40.5c-1.2-2-1.9-4.2-2.8-6.4c-2.5,1.1-4.9,2.3-7.3,3.3c-0.6,0.2-1.5-0.5-2.3-0.8
		c0.5-0.6,0.8-1.5,1.5-1.9c1.8-1.2,3.9-2.1,5.6-3.4c2.4-1.8,4.5-1.3,5.4,1.2c5.3,14.9,15.2,26.9,23.5,39.9c0.8,1.2,1.5,2.4,3.3,3.6
		c0-3.1,0.1-6.3,0-9.4c-0.3-13.1,3.3-25.5,5.8-38.2c0.7-3.7,3-5.6,6.9-5.3c2.5,0.1,5,0,7.4-0.2c2.8-0.2,3.9,1.2,4.6,3.7
		c2.5,8.9,5.1,17.7,7.7,26.6c4.1,14,7.9,28,9.2,42.7c0.7,8.5,3.3,16.9,4.6,25.3c0.9,5.3,1.3,10.6,1.5,15.9c0.1,4.3-1.4,5.5-5.6,5.9
		c-3.6,0.4-7.2,0.8-10.9,1.3c-4.7,0.6-6.2-0.4-7.1-5c-0.3-1.4-0.4-2.9-0.3-4.3c0.4-13-3.8-25.1-7.4-37.5c-1.1,4.7-2.2,9.4-3.1,14.1
		c-1.3,6.9-9.8,9.9-15.1,5.2c-6-5.3-11.8-10.9-18.6-17.3c0.4,8.5,1,15.8,1.1,23.1c0.1,8.8,0.4,17.7-0.4,26.5
		c-0.5,5.9-1.8,6.1-7.6,6.9c-4.1,0.6-8.2,1.4-12.2,2.5c-3.8,1-4.4,0.7-4.3-3.2c0.2-9.8,0.6-19.5,0.5-29.3
		c-0.3-15.6-1.2-31.3-1.4-46.9c-0.1-9.8,0.4-19.6,1-29.3c0.1-2.3-0.2-5.5,3.9-6.9C772.6,398.3,778.8,435.4,776.4,472.6z"/>
	<path d="M985.4,407.9c7.2-0.3,13.6-0.4,19.9-1c4.2-0.4,6.2,1.4,7.5,5.2c3,8.8,1.6,15.6-4.6,20.1c-7,5.1-16.2,5.2-22.9-0.3
		c-12.9-10.7-19.4-29.3-8.8-46.7c4.5-7.4,10.1-13.5,19-15.9c10-2.8,19.8-6.6,29.8-9.2c5.5-1.4,6.4-4.5,4.7-10.5
		c-0.3-0.9-0.1-2-0.1-3c1,0.6,2.4,1,3,1.9c3.3,5.6,0.7,12.1-5.5,14c-11.2,3.5-22.4,6.9-33.5,10.7c-13.6,4.7-23.3,24.9-18.4,38.5
		c2.6,7.2,6,13.9,12.6,18.4c6.6,4.5,16.7,2.9,21.3-3.6c2.4-3.5,2.1-12.8-0.8-15.6c-0.7-0.7-2.4-0.9-3.5-0.8
		c-5.7,0.2-11.5,0.5-17.2,0.8c-3.6,0.2-5.5-1.1-5.1-4.9c0.4-3.9,0.6-7.8,1.3-11.6c0.6-3.1,2.8-4.7,6.2-4.8c12-0.4,24-0.9,36-1.4
		c0.4,0,0.8,0,1.2,0c10,0.2,11,1.3,11.8,11c0.7,8.8,1.8,17.6,2.4,26.5c0.3,4.4-0.5,8.8-0.8,13.2c0,0.5-0.3,1-0.5,1.5
		c-1.3,2.5-7.8,4.3-12.5,3.4c-3.3-0.7-4.4-2.7-4.4-5.9c0-1.8-0.5-3.5-0.9-5.7c-0.7,0.5-1,0.7-1.2,1c-7,14.7-22,21.4-37.8,16.6
		c-4.2-1.3-8.4-2.9-12.3-5c-9.9-5.3-16.2-13.3-19.3-24.4c-6-21.4-3.7-41.3,9.2-59.6c3.1-4.4,6.4-8.6,9.4-13
		c11.4-16.6,36.9-21.9,54.2-14.1c1.8,0.8,3.8,1.2,5.4,2.2c0.9,0.5,1.3,1.9,1.9,2.9c-1-0.1-2.1,0.2-3-0.2c-9.2-3.9-18.7-6.9-28.9-4.8
		c-10.3,2.1-19.7,6-26.2,14.9c-4.2,5.8-8.7,11.4-12.5,17.5c-12.6,20.2-12.6,41.3-2.8,62.4c2.4,5,7.6,9.3,12.5,12.5
		c10,6.7,21.1,9.4,33.1,5.1c8.9-3.2,13.6-9.6,15.4-18.6c0.3-1.4,1.3-2.6,1.9-3.8c1,1.2,2.4,2.3,2.8,3.6c0.9,3.4,1.5,6.9,2,10.3
		c0.3,2.4,1.3,3.3,3.8,3.3c7-0.1,9.2-1.8,8.9-9c-0.4-7.8-1.6-15.5-2.3-23.3c-0.4-4.2-0.6-8.3-0.6-12.5c0-2.4-0.9-3.7-3.3-3.9
		c-2.6-0.2-5.2-0.6-7.8-0.6c-11,0.3-21.9,0.7-32.9,0.9c-3.3,0.1-5.2,1.5-5.6,4.7C986.1,400.4,985.9,403.7,985.4,407.9z"/>
	<path d="M1342,892.4c-4.7-9-16-13.8-26.9-11.1c-15.3,3.8-25.7,13.9-33.4,27.1c-5.5,9.3-8.7,19.2-6.9,30.3c0.1,0.5-0.3,1.1-1.5,2
		c-0.5-1.2-1.3-2.5-1.4-3.7c-0.2-2.7-0.1-5.5,0.1-8.2c0.2-2.4-0.8-3.6-3.1-3.2c-6.7,1-13.5,1.7-19.9,3.4c-6.9,1.8-13.6,4.6-20.2,7.2
		c-1.1,0.4-1.8,1.8-2.7,2.8c1.2,0.5,2.4,1.6,3.6,1.5c4.4-0.4,8.8-1.2,13.1-1.8c5.1-0.8,10.1-1.5,15.2-2.3c0.2,0.4,0.3,0.8,0.5,1.2
		c-0.7,0.5-1.3,1.2-2.1,1.4c-8.7,1.5-17.4,3.3-26.2,4.3c-5.5,0.6-8-2.3-6.4-6.3c0.4-1.1,1.5-2.3,2.5-2.7
		c12.3-4.7,24.5-10.4,37.8-10.9c7-0.3,9.7-2.6,11.9-8.9c3.2-9.3,9.2-17.2,16.7-23.8c0.9-0.8,1.4-2.6,1.5-3.9
		c0.6-12.2-6.4-19.9-15.8-26c-1.3-0.9-3.1-1.1-5.8-2.1c0.7,2.9,0.9,5,1.8,6.7c1.9,3.6,4.1,6.9,6.2,10.4c2.1,3.7,4.2,7.4,6.3,11.2
		c0.2,0.5,0,1.2,0,1.8c-0.3,0.2-0.6,0.4-1,0.6c-1.2-1.5-2.5-2.9-3.5-4.5c-2.8-4.5-5.6-9.1-8-13.8c-1.6-3.1-3-6.4-3.7-9.8
		c-0.8-3.7,0.6-4.9,4.2-4.5c1.5,0.2,3.2,0.5,4.4,1.3c9.8,6.3,17.4,14.2,17.8,26.8c0,0.4,0.2,0.7,0.4,1.7c1.3-0.8,2.5-1.5,3.6-2.2
		c9.1-5.6,18.7-7.9,29.2-4.7c4.8,1.4,8.8,3.7,12,7.6c1,1.1,2.7,2.1,4.1,2.3c14.3,1,22.6,8.8,24.3,23.4c0.3,2.4,0.4,4.9,0.7,7.9
		c17.4-8.7,36.8-10.5,53.7-19.9c-17.9,0.4-34.5,6.5-51.4,11.2c-0.2-0.3-0.4-0.7-0.6-1c1.1-0.8,2-1.9,3.2-2.3
		c8.4-2.5,16.7-5.1,25.2-7.2c6.9-1.7,14-2.8,21-4.1c0.8-0.1,1.7-0.3,2.3,0.1c1.4,0.7,3.4,1.5,3.7,2.7c0.3,1-1.2,3.2-2.4,3.7
		c-5.1,2.4-10.2,4.6-15.5,6.4c-12.1,4.1-24.3,7.9-36.4,11.8c-1,0.3-2,0.4-3.3,0.6c0.2,8.6-2.2,16.5-7.3,23.4
		c-1.2,1.7-2.4,3.6-4.1,4.7c-4.1,2.5-3.9,5.9-2.7,9.8c4.5,15,8.9,30,13.2,45c0.2,0.8-0.1,1.8-0.1,2.8c-0.9-0.3-2.2-0.3-2.7-0.9
		c-9.9-11.4-20.7-22.2-26.2-36.7c-0.4-1.1-0.6-2.3-0.1-3.8c6.3,12,13.6,23.2,23.7,33.1c-3.9-14.7-7.7-28.9-11.4-43
		c-6.4,2.1-12.2,4.4-18.1,6c-6.1,1.6-12.3,1-18.3-0.7c0-0.5-0.1-1-0.1-1.6c1.4-0.1,2.8-0.4,4.1-0.2c15.8,2.8,34.5-4.8,42.2-18.6
		c7.8-13.9,8.1-28.4-0.4-42.4c-4.1-6.8-10.6-8.3-18-7.5C1343.7,892.1,1342.8,892.2,1342,892.4z"/>
	<path d="M1093.5,173.8c-0.7-11.6-1.5-23.2-2-34.7c-0.3-7.8-0.5-15.7-0.2-23.5c0.2-6,1.4-6.6,7.3-6.1c3.5,0.3,7,0.6,10.5,0.9
		c3.7,0.3,5.6,2,5.6,6c0.2,20.1,0.2,40.2,1,60.2c0.5,12.3,2.5,24.6,4,36.9c0.3,2.5,1.7,4.9,2.8,7.2c1.2,2.5,0.5,3.7-2.2,4
		c-4.8,0.7-9.5,1.3-14.3,2.1c-3.4,0.5-4.4-1.8-5.6-4.3c-8.3-17.8-16.7-35.5-25.9-53.3c-0.2,7.4-0.5,14.8-0.4,22.2
		c0.1,7.6,0.9,15.1,1,22.7c0.1,9.3-7.5,14.2-15.9,10.3c-1-0.5-1.9-2.2-1.9-3.4c0-8.2,0.4-16.4,0.2-24.6c-0.2-10-0.6-20.1-1.4-30.1
		c-1.2-13.2-2.9-26.4-4.3-39.6c-0.1-0.7,0.2-1.5,0.3-2.2c0.4-0.2,0.8-0.3,1.1-0.5c0.6,1.3,1.7,2.5,1.8,3.8c1.4,11.6,3.2,23.3,3.8,35
		c0.9,17.9,1,35.9,1.4,53.9c0,1.5,0.2,3.1,0.4,4.7c3,0,5.9,0.5,8.3-0.2c1.4-0.4,2.9-3,3-4.6c0.3-4.5-0.2-9.1-0.2-13.7
		c0-12.1-0.1-24.2,0.1-36.4c0-1.4,1.3-2.8,1.9-4.2c1.2,1.1,2.8,1.9,3.5,3.3c4.7,9.8,9.1,19.6,13.8,29.4c3.5,7.4,7.2,14.7,10.8,22.1
		c1.1,2.2,1.9,5.4,3.7,6.3c1.8,0.9,4.7-0.5,7.2-0.9c1.9-0.3,3.8-0.5,5.2-0.6c-1.5-10.3-3.3-20.4-4.2-30.5
		c-0.8-8.4-0.5-16.9-0.7-25.4c-0.4-16.2-0.9-32.3-1.3-48.5c-0.1-3.1-1.4-4-4.3-4.1c-2.9,0-5.8-0.2-8.5-0.9c-3.7-0.9-4.7,0.7-4.6,4
		c0.2,8.5,0,17,0.4,25.4c0.7,12.8,1.9,25.5,2.8,38.2c0.1,1.4-0.7,2.8-1,4.2c-1-0.9-2.3-1.7-2.8-2.8c-7.3-15-14.8-29.9-21.8-45
		c-3-6.5-6.2-12.4-14.1-13.8c-1-0.2-1.8-1.8-2.7-2.7c1.2,0,2.5-0.2,3.7,0c8.2,1.4,12.2,7,15.3,14.1c5.1,11.9,10.6,23.5,16,35.3
		c0.7,1.6,1.7,3.1,2.5,4.7C1092.9,173.9,1093.2,173.8,1093.5,173.8z"/>
	<path d="M690.6,230.9c1.6-5.1,2-9.4-1.3-13.5c-4.8-6-9.8-11.9-14.1-18.2c-2.3-3.4-4.1-7.1-7.7-9.6c-2.7-1.8-2.9-4.7-1.3-7.3
		c3.8-6.1,7.9-11.9,11.8-17.9c4-6.2,8-12.5,11.6-19c2.3-4.1,1.5-4.7-3-6.2c-3.9-1.3-7.6-3.2-12-5.1c-4.2,6.8-8.7,13.8-12.9,21
		c-3,5.2-5.6,10.6-8.3,15.9c-1.5,3-4,3.7-6.5,2c-3.3-2.3-6.3-5-9.1-7.8c-6.6-6.8-12.9-13.9-19.7-21.3c-3.8,5.7-7.1,10.7-10.4,15.7
		c-0.4-0.1-0.8-0.3-1.2-0.4c0.1-1.1-0.2-2.5,0.3-3.3c2.9-4.8,6-9.5,9.1-14.1c1.4-2.1,2.8-1.7,4.4,0c7.5,8.3,15.1,16.5,22.7,24.8
		c0.3,0.3,0.6,0.6,0.8,0.8c4.8,4.3,5.4,4.1,8.5-1.4c6-10.5,12.1-21,18.4-31.4c2.9-4.8,3.8-4.7,8.7-1.9c2.8,1.6,5.8,2.9,8.9,3.9
		c5.6,1.7,7.1,3.9,4.4,9.2c-3.5,6.9-7.8,13.5-12,20.1c-3.6,5.6-7.5,11-11.2,16.5c-1.7,2.5-1.1,4.3,1.3,6.3c2.4,2.1,4.1,4.9,6,7.4
		c5,6.5,9.9,13.1,14.9,19.5c3.8,4.8,3.8,10.1,1.9,15.5c-0.9,2.6-2.6,3.7-5.5,2.3c-8.8-4.2-15.3-11.1-21.5-18.3
		c-3.8-4.4-7.4-9.1-11.6-14.3c-0.9,2.8-1.7,5-2.3,7.1c-2.9,11.1-7.7,21.3-14.4,30.6c-0.8,1.1-2.1,2.3-3.2,2.4
		c-5.8,0.7-11.7,1.3-17.5,1.6c-5,0.3-6.2-1.1-4.5-5.7c5.6-15.5,11.3-30.9,20.6-44.6c1.1-1.6,2.1-3.3,3.6-5.5
		c-6.8-4.9-13.4-9.6-20-14.3c-2.6-1.8-5.4-3.2-7.9-5c-0.7-0.5-0.9-1.8-1.4-2.7c1,0,2.1-0.3,2.8,0.1c5.1,2.9,10.2,5.8,15,9.1
		c4.5,3.1,8.6,6.7,12.9,10.1c2.4,1.9,1.3,3.9,0.1,5.9c-3.8,6.7-8.1,13.1-11.5,20c-4,8.2-7.2,16.8-10.6,25.2
		c-0.5,1.2-0.7,2.5-1.2,4.6c6.6-0.6,12.7-1.1,18.7-1.8c0.8-0.1,1.5-1.3,2.1-2.1c7.9-10.4,11.7-22.6,15.3-34.9
		c0.4-1.4,1.4-2.6,2.1-3.9c1.4,0.8,3.1,1.3,4.1,2.5c3.8,4.3,7,9.1,11,13.2c5.4,5.6,11.2,10.9,17,16.1
		C686.9,230,688.7,230.2,690.6,230.9z"/>
	<path d="M511.6,249.2c23.1-4,45.8-8,68.9-12.1c-3.4-7.9-6.9-15.7-10.6-24.2c-12.3,3.5-24.8,7.1-37.3,10.6c-2.9,0.8-5.8,1.4-8.7,2.1
		c-3.9,0.9-6-1.1-6.7-4.7c-1.8-8.5-3.6-17.1-5.4-25.6c-0.8-4,0.7-6.8,4.6-7.8c9.2-2.4,18.4-4.8,27.7-6.6c3.2-0.6,4.3-1.7,3.7-4.8
		c-0.9-4.6-1.6-9.2-2.4-14.1c-5.9,1.5-11.5,3.1-17.2,4.4c-3.5,0.8-7.2,1.3-10.8,1.9c-3.6,0.6-6-0.9-6.8-4.2c-1-4-1.7-8.2-2.1-12.3
		c-0.1-1,1.6-2.7,2.8-3.1c4.6-1.5,9.2-2.9,13.9-3.8c9.3-1.8,18.7-3.3,28.1-4.9c0.9-0.1,2,0.5,2.9,0.8c-0.8,0.7-1.5,1.9-2.4,2.1
		c-7.9,1.6-15.9,2.9-23.8,4.5c-6,1.2-11.9,2.5-17.4,3.6c-0.4,1-0.7,1.2-0.6,1.4c1.1,16.1,1.5,13.6,14.5,11.2
		c5.5-1,10.9-2.7,16.3-4.2c4.6-1.2,5.6-0.5,6.1,4c0.6,4.5,1.5,9,2.1,13.5c0.6,4.8-0.2,5.5-4.9,6.5c-9.3,2-18.5,4.3-27.7,6.5
		c-3.2,0.7-4.1,2.7-3.4,5.8c1.7,7.9,3.3,15.8,5,23.7c0.5,2.4,1.7,3.7,4.4,2.9c2.5-0.7,5-1.2,7.5-1.9c9.4-2.6,18.8-5.1,28.2-7.7
		c3.1-0.9,6.3-1.7,9.3-2.8c2.2-0.9,3.2-0.4,4.1,1.8c2.7,6.9,5.5,13.8,8.5,20.6c2.8,6.3,2.1,7.9-4.5,9c-18.6,3.1-37.3,6.2-55.9,9.4
		c-2.7,0.5-5.3,1.3-8,2c-3.1,0.8-4.8,0-5.4-3.5c-5.5-32.1-11.2-64.2-16.9-96.2c-0.8-4.3-2.5-8.3-3.6-12.5c-0.2-0.7,0.2-1.6,0.3-2.5
		c0.9,0.2,2.3,0,2.7,0.5c0.9,1.4,1.5,3.1,1.8,4.7c2.3,12.6,4.3,25.2,6.7,37.7c3.4,18.2,7,36.3,10.5,54.5
		C510.5,240,510.9,244.7,511.6,249.2z"/>
	<path d="M523.9,372.4c1.5-0.9,2.6-2,3.7-2.2c25.6-5.4,51.6-7.5,77.2-1.9c23,5,39.7,18.9,45.6,42.8c4.6,18.5,3.4,36.8-3.3,54.9
		c-5.4,14.5-16.1,21.5-30.6,24.1c-11.3,2-22.6,4.1-33.9,5.8c-12.9,1.9-25.8,3.5-38.7,5.2c-3.8,0.5-5.2-1.6-5.6-4.9
		c-2.1-18-4.2-36-6.3-53.9c-1.3-10.9-1.8-21.9-4-32.6c-2-10-5.8-19.7-8.8-29.5c-0.2-0.7-0.1-1.6-0.1-2.4c0.9,0.2,2.2,0.2,2.7,0.7
		c0.8,0.9,1.1,2.3,1.6,3.5c5.6,14.3,8.2,29.2,9.6,44.5c2.1,22.7,5.5,45.3,8.1,67.9c0.4,3.3,1.8,3.7,4.6,3.2
		c20.6-3.3,41.2-6.3,61.7-9.7c7.1-1.2,14.2-3,21.2-5.1c5-1.5,8.6-5.4,11.3-9.8c6.5-10.8,9.4-22.5,9.8-35c0.2-8.5-0.2-16.8-1.8-25.2
		c-4.7-23.8-30-40.5-47.6-42.5c-22.3-2.5-44.5-2.8-66.5,2c-2.8,0.6-5.6,0.8-8.5,1.2C525.2,373.5,525,373.2,523.9,372.4z"/>
	<path d="M677.9,548.2c5.8,0.4,11-3.4,16.4-1.7c0,0.5,0.1,0.9,0.1,1.4c-4.6,1-9.1,2.1-13.7,2.9c-2.7,0.5-3.7,1.8-3.9,4.4
		c-1.1,19-0.1,37.8,2.7,56.6c0.3,1.8,0.2,3.7-0.6,5.6c-4.5-21.3-5.9-42.8-4.3-65c-29.1,5-57.8,10-86.9,15
		c4.1,20.9,10.8,41.2,11.3,62.4c-0.5,0.1-1,0.2-1.5,0.3c-0.3-1.2-0.8-2.3-0.9-3.5c-1.4-19.1-6.8-37.4-10.8-56
		c-0.5-2.5-1.7-3.2-4.1-2.5c-1.6,0.5-3.3,0.6-5,0.7c-0.6,0-1.2-0.7-1.7-1c0.4-0.5,0.9-1,1.3-1.6c0.1-0.1,0.3,0,0.4-0.1
		c2.5-0.6,5.8-0.5,7.1-2.1c1.2-1.4,0.1-4.7-0.1-7.2c-0.4-5.1,1-10.3-1.5-15.3c-1.4-2.9,1.1-5.4,3.8-6.3c8.8-2.7,17.7-5.2,26.6-7.4
		c3.6-0.9,7.5-1,11.3-0.8c2.5,0.1,4.9,1.4,7.3,2c1.3,0.3,2.8,0.7,4,0.4c10-2.8,20.3-3.5,30.6-3.2c1.7,0.1,3.4,0.2,5,0.5
		c7.5,1.4,8.3,2.7,7.5,10.1C678.2,540.6,678.1,544.2,677.9,548.2z M676.3,536.8c-4.7,0.8-8.5,1.4-12.3,2.2
		c-25.4,5.1-50.8,11.2-77.4,9.2c0,4.2,0,8.7,0,13.2c0,2.5,1.3,2.9,3.6,2.5c6.8-1.2,13.6-2.1,20.4-3.3c20.3-3.5,40.5-7.1,60.7-10.7
		c1.4-0.3,3.6-1.3,3.8-2.4C675.9,544.3,675.9,540.9,676.3,536.8z M628,529.9c-3.9,0-7.4-0.1-10.9,0c-10.2,0.3-19.8,3.2-29.1,7.2
		c-1.4,0.6-3.4,2.2-3.3,3.3c0.1,1.5,1.6,3.5,2.9,4.1c3,1.1,6.3,2.3,9.4,2c15.4-1.6,30.8-3.4,46.1-5.7c10.2-1.5,20.2-3.8,30.3-5.9
		c1.2-0.2,2.2-1.4,3.2-2.2c-0.9-0.8-1.7-2-2.8-2.4c-1.9-0.7-4-1.2-6.1-1.2c-11.1-0.3-22.2-0.2-32.9,3.1c-2.6,0.8-5.4,0.8-9.1,1.3
		C626.8,531.8,627.3,531.1,628,529.9z"/>
	<path d="M237.6,190.2c-7.6,2.3-15.2,4.7-22.7,7.1c-7.3,2.3-14.7,4.6-21.9,7.1c-6.2,2.2-7.9,1.3-8.7-5.2c-0.1-1.2-0.4-2.3-0.6-3.5
		c-0.6-3.2,0.6-4.9,4-5.9c27.1-7.6,54.1-15.5,81.2-23.1c5.4-1.5,10.9-2.5,16.4-3.7c2.6-0.6,4.6,0.3,4.9,3c0.6,5.2,1,10.4,1.3,15.6
		c0.2,2.6-1,3.6-3.8,4.3c-8.3,2.1-16.5,4.8-24.6,7.4c-0.8,0.3-1.7,2.2-1.6,3.3c0.5,11.5,2.2,22.8,5.1,34c3.4,13,6.3,26.1,9.3,39.1
		c0.4,1.8,0.4,3.6,0.4,5.4c-0.1,5.7-0.4,6.1-6.1,7.6c-1,0.3-2,0.5-3,0.9c-5,1.9-5.7,1.5-6.4-3.8c-2.1-16.6-4.1-33.2-10.4-48.8
		c-4.8-11.9-9.2-23.8-12-36.3c-0.3-1.5-0.5-3.1-0.8-4.6c2.9-0.2,3.3,2.1,3.8,4.1c2.4,7.9,4,16,7.1,23.5c6.1,14.5,10.9,29.3,12.8,45
		c0.7,6.1,2,12.2,3,18.3c9.5-2.3,10.2-3.3,8.2-12.6c-0.2-1-0.5-2-0.7-3c-3-12.3-6.4-24.5-8.8-36.8c-2.2-11.2-3.5-22.6-4.9-34
		c-0.1-1.1,1.5-3.1,2.7-3.5c8.4-2.8,16.8-5.3,25.2-8c1-0.3,2.4-1.5,2.4-2.2c-0.2-4.9-0.8-9.7-1.4-15.5c-10,2.8-19.3,5.3-28.6,7.9
		c-21.7,6.1-43.5,12-65.1,18.3c-7.1,2.1-7,2.5-5.6,9.9c0.1,0.3,0.4,0.6,0.7,1.1c0.7-0.2,1.5-0.3,2.2-0.5
		c12.8-4.2,25.5-8.3,38.3-12.5c2.1-0.7,4.3-1.1,6.4-1.6C237.3,187.4,238,188.2,237.6,190.2z"/>
	<path d="M760.5,230.8c5.8-0.5,11.4-0.9,17.6-1.4c-0.4-1.9-0.7-3.4-0.9-4.9c-2.7-14.1-5.4-28.1-7.9-42.2c-0.8-4.7,0.2-5.6,5.1-6.2
		c7.9-0.9,15.9-1.3,23.7-2.4c9-1.3,18-2.8,26.9-4.7c12.6-2.7,18.1-12.7,22.6-23.5c1.4-3.3,2.2-7,2.9-10.5c1.3-6.3-1.2-11.1-6.7-14.5
		c-6.9-4.3-14.6-5.5-22.4-5.9c-18.4-1-36.7,1-55,3.4c-4.4,0.6-8.8,0.8-13.2,1c-0.8,0-1.7-1.1-2.6-1.6c0.8-0.5,1.6-1.3,2.4-1.4
		c16.9-1.6,33.7-3.5,50.6-4.4c9.7-0.5,19.6,0.1,29.2,1.5c5.3,0.8,10.6,3.7,15.2,6.7c5.1,3.3,6.5,8.9,5.6,14.9
		c-1.5,9.9-5.7,18.7-11.3,26.8c-4.2,6.1-10.7,9.5-17.7,10.7c-14.9,2.6-29.9,4.5-44.9,6.3c-8.2,1-8.4,0.9-7,9.1
		c1.4,7.8,2.4,15.7,3.9,23.5c0.9,4.7,2.5,9.3,3.8,13.9c1.7,6.1,0.7,7.4-5.5,7.7c-4.2,0.2-8.3,0.6-12.4,1.2c-4.6,0.8-5.2,0.3-5.8-4.6
		c-1.8-14.7-4.1-29.4-5.8-44.1c-1.9-16.3-3.5-32.6-5-48.9c-0.3-3.1,0.3-6.2,0.7-9.3c0.1-0.8,1.1-1.4,1.6-2.1
		c0.4,0.7,1.1,1.4,1.2,2.2c0.1,1.1-0.1,2.3-0.2,3.5c-1,11.9,0.9,23.7,2.4,35.4c1.9,14.5,3.4,29,5.3,43.4
		C757.8,216.5,759.2,223.5,760.5,230.8z"/>
	<path d="M660.5,482.9c5.8-1.5,10.7-2.8,15.6-4c1.5-0.4,3-0.9,4.5-1.2c6.2-1.2,6.9-1.4,7.7-7.8c1.2-9,2-18.1,2.4-27.3
		c0.2-4.1,1.5-6.6,5.5-7.2c5.7-0.9,11.4-1.7,17.1-2c1.3-0.1,3.2,1.7,3.9,3.1c5.4,11.6,10.5,23.3,15.7,35c5.3-1.4,10.5-2.8,16.3-4.3
		c-0.5-4.7-2.4-9.1-4.9-13.4c-8.7-14.8-17.8-29.5-25.9-44.6c-5-9.3-8.4-19.4-12.6-29c-1.7-4.1-3.5-8.1-5.5-12
		c-0.4-0.8-2.1-1.4-3-1.2c-2.6,0.5-5.2,1.7-7.8,2.2c-0.9,0.2-1.9-0.7-2.9-1.1c0.8-0.6,1.6-1.4,2.5-1.7c2.5-0.9,5.2-1.6,7.7-2.5
		c4-1.4,5.4,0.8,6.9,4.1c7.1,16.2,14,32.5,22,48.3c6.3,12.4,14.3,24,21.1,36.1c2.3,4.1,3.8,8.8,5.3,13.4c0.9,2.9-0.1,4.9-3.6,5.5
		c-4.5,0.8-8.8,2.1-13.2,3.4c-2.5,0.7-4.3,0.6-5.5-2c-3.6-8.1-7.3-16.1-11-24.2c-0.6-1.4-1.3-2.8-2-4.3c-3.3-7.5-3.3-7.5-11.4-7
		c-10.7,0.7-11.2,1.4-11.9,11.9c-0.5,7.8-1.5,15.6-2.5,23.3c-0.7,4.8-3.2,7.6-8.6,8.4c-6.4,0.9-12.6,3.2-19,4.7
		c-5.1,1.2-6.3,0.2-5.4-4.8c4.8-25.9,8.4-52,16-77.3c2-6.7,3.4-13.7,5.2-20.5c0.3-1.1,1.1-2,1.7-3c0.4,1.3,1.4,2.7,1.1,3.9
		c-1.2,5.6-2.6,11.2-4.1,16.7c-6.5,23.3-11.4,46.9-14.9,70.7C662.5,474.7,661.5,478.3,660.5,482.9z"/>
	<path d="M565,733.2c0.6-4.7,0.6-9.6,1.9-14.1c7-23.2,14.2-46.4,21.8-69.4c1.9-5.7,5.7-10.8,8.8-16c0.5-0.8,1.5-1.2,2.3-1.8
		c0.3,0.3,0.6,0.6,0.9,0.8c-2.5,3.9-5,7.9-7.4,11.8c0.2,0.3,0.4,0.6,0.7,0.8c1.5-0.4,3.1-0.9,4.6-1.3c23.7-6.6,47.5-12,72.3-11.2
		c3.1,0.1,6.3,1.3,9.3,2.5c1.2,0.5,1.8,2.2,2.3,3.7c-10.6-6.9-21.9-3.7-32.9-3.1c-3.7,0.2-7.4,1.1-11.3,1.6
		c-0.4,4.4,2.1,7.3,4.5,10.1c0.7,0.8,2.9,0.7,4.3,0.4c10.1-2,20.1-4.2,30.2-6.3c1-0.2,1.9-0.2,3.1,0.4c-10.8,5.1-22.7,6.2-34.7,8.8
		c8,20.4,23.5,35.1,36.8,51.4c-0.3,0.4-0.6,0.7-0.9,1.1c-1.5-1-3.2-1.7-4.3-3c-6.2-7.2-12.5-14.3-18.1-22
		c-5.2-7.3-9.5-15.2-14.2-22.9c-1.2-1.9-2-4.4-4.9-3.4c-3.2,1.1-8.1-0.8-9,4.8c-3.2,19-9.5,37.4-10.3,56.8c0,0.8-0.5,1.5-0.8,2.3
		c-0.3,0-0.7,0-1,0c-0.2-1.4-0.9-2.8-0.7-4.1c1.3-8.8,2.6-17.5,4.2-26.2c2-10.3,4.3-20.6,6.6-31.6c-4.2,0.4-7.8,0.9-11.5,1.1
		c-8.8,0.4-17.7,0.4-26.5,0.9c-1.1,0.1-2.7,1.4-3.1,2.4c-4,12.4-7.8,24.9-11.6,37.3c-1.6,5.2-3.3,10.5-4.6,15.8
		c-1.4,5.5-2.5,11.1-3.8,16.7c-0.4,1.8-1,3.5-1.5,5.2C566.1,733.4,565.6,733.3,565,733.2z M635.7,638.1c-5.4,1-10.7,1.8-15.8,3.1
		c-8.7,2.1-17.4,4.5-25.9,7.1c-1.4,0.4-2.2,2.7-3.3,4.2c1.4,0.5,2.7,1.5,4,1.4c10.9-0.6,21.8-1.3,32.6-2.3c1.3-0.1,2.9-1.8,3.7-3.1
		C632.7,645.3,634,641.9,635.7,638.1z M640.7,649.5c-1.6-2.6-2.7-4.4-4.5-7.2c-1.2,3.2-2.1,5.6-3.3,8.7
		C636,650.4,638,650,640.7,649.5z"/>
	<path d="M1040.4,195.6c-9.8,1-18.8,1.8-27.8,2.8c-3.3,0.4-5.5-0.8-6.1-3.9c-1.5-7.2-2.8-14.5-3.8-21.9c-0.2-1.2,1.9-3.6,3.3-3.9
		c5.8-1.2,11.8-2,17.7-2.7c4.7-0.5,7-4.9,4.5-9c-0.4-0.7-1.7-1.2-2.6-1.3c-5.1-0.1-10.1-0.1-15.2,0c-5.3,0.1-7.4-1.7-7.8-7
		c-0.8-10.9-0.6-11.2,10.2-13c4.1-0.7,8.3-0.9,12.5-1c2.9-0.1,4.7-1.3,5.5-4c3.5-10.9,4.1-10.6-6.6-9.9c-7.5,0.4-15.1,1-22.6,1.4
		c-0.4,0-0.8,0.2-1.2,0.1c-2-0.6-3.9-1.2-5.9-1.8c1.2-3.2,3.6-0.9,5.3-1.1c9.6-0.7,19.2-1.3,28.9-1.7c7-0.3,8.6,2,6.6,8.8
		c-0.4,1.3-0.8,2.5-1.2,3.7c-1.9,6.1-3.4,7.1-9.8,7.5c-5.4,0.4-10.8,1.3-16.3,2c-2.4,0.3-3.1,1.8-2.9,4.2c0.5,8.5,0.5,8.5,9,8.4
		c4-0.1,8.1-0.1,12.1,0.2c3.6,0.2,5.4,2,5.5,6.1c0.1,9.8,0,10-10.1,10.5c-4.5,0.2-9,1-13.5,1.9c-1,0.2-2.5,1.9-2.4,2.7
		c0.9,6.3,2,12.6,3.2,18.8c0.4,2.4,2,3.1,4.4,2.7c8.2-1.2,16.5-2.3,24.7-3.6c3.3-0.5,5.3,0.4,5.2,3.8c-0.2,5.2-0.6,10.3-1.5,15.4
		c-0.3,1.5-2.4,3.5-3.8,3.7c-13.7,1.9-27.4,3.7-41.1,5.2c-4.9,0.5-6-0.9-6.1-5.3c-0.3-19.9-0.9-39.8-0.9-59.8
		c0-9.1,1.1-18.2,1.9-27.3c0.1-0.9,1.1-1.7,1.6-2.6c0.5,1.1,1.4,2.2,1.3,3.2c-3.5,22.8-1.1,45.5-0.3,68.3c0.2,5.5-0.2,10.9-0.5,16.4
		c-0.2,3,0.6,4.4,3.9,4c11.1-1.5,22.2-2.9,33.3-4.3c0.4,0,0.8-0.2,1.2-0.2c7.2-1,8.1-2.1,8.3-9.5
		C1040.4,200.3,1040.4,197.9,1040.4,195.6z"/>
	<path d="M564.3,735.6c0.4,0.2,0.6,0.2,0.7,0.3c3.4,9.4,11.7,10.9,19.7,11.1c15.8,0.4,31.6,0,47.3-0.8c10-0.5,19.9-2.1,29.9-3.2
		c16.2-1.8,32.3-3.6,48.5-5.3c4.4-0.5,8.8-0.8,13.2-1.5c4.9-0.8,6.7-3.1,6.9-8c0.3-8-0.3-15.8-4.1-23.2c-2.1-4.1-3.1-8.9-5.2-13
		c-2.4-4.7-5.5-9.1-8.5-13.6c-4.8-7.3-9.8-14.4-14.6-21.7c-4.5-6.8-8.8-13.8-13.1-20.8c-2.6-4.2-4.9-8.6-7.2-13
		c-0.5-0.9-0.5-2.1-0.7-3.2c0.3-0.2,0.6-0.3,0.9-0.5c0.6,0.7,1.2,1.3,1.7,2c3.5,5.8,7,11.5,10.4,17.4c4.3,7.3,8.4,14.7,12.9,21.9
		c3.1,5,6.3,9.9,10,14.4c6.2,7.5,10.5,15.8,13.9,24.8c3.1,8.3,6.9,16.4,6.1,25.6c-0.3,3.3-0.9,6.6-1.4,10.3c2.7,0,5.7,0,8.7,0
		c0.2,0.4,0.3,0.9,0.5,1.3c-1,0.5-2,1.4-2.9,1.4c-6.5-0.3-12.5,1.7-18.7,3.4c-7.7,2.1-15.9,2.6-23.9,3.4
		c-18.4,1.7-36.9,3.5-55.3,4.5c-16.1,0.9-32.3,0.9-48.5,1.2c-2.5,0.1-4.9,0.1-7.4,0c-3.3,0-6.9,1.3-9.2-2.8
		c-0.7-1.2-3.3-1.3-4.9-2.1C565.7,743.9,563.1,739.2,564.3,735.6z"/>
	<path d="M1290.7,104c-3.1-0.6-5.7-1.2-8.4-1.7c0-0.5,0-0.9,0-1.4c1.1-0.3,2.2-0.8,3.2-0.8c7.4,0.4,14.8,0.9,22.2,1.5
		c5.9,0.5,7.5,2,7.2,7.9c-1,17.8-2.5,35.6-3.3,53.5c-0.3,7.5,0.7,15,1.3,22.5c0.2,2.5,1.8,3.4,4.4,2.8c11.4-2.6,22.9-5.1,34.3-7.8
		c3.4-0.8,5.6-0.7,7.4,2.9c2,4,4.6,7.6,7,11.3c3.2,5.2,2.1,7.2-3.7,8.1c-19.7,2.9-39.4,5.8-59.1,8.9c-3.6,0.6-4.7-0.5-5.6-3.8
		c-4.2-15.4-4.3-31.2-5.2-46.9c-0.4-8.2-1.8-16.3-2.2-24.5c-0.4-8.6,0-17.2,0.1-25.7C1290.4,108.4,1290.6,106.2,1290.7,104z
		 M1364.8,198.6c-2.8-4.6-5.6-8.9-8.2-13.4c-1.1-2-2.3-2.2-4.4-1.6c-10.1,2.5-20.2,5.1-30.4,7c-10.2,2-11.8,0.5-13-10
		c0-0.1,0-0.3,0-0.4c0.4-11.8,0.8-23.7,1.3-35.5c0.5-11.8,1.2-23.7,2-35.5c0.2-3-1.1-4.4-3.9-4.5c-4-0.2-8.1-0.4-12.1-0.3
		c-0.7,0-2.1,1.3-2.1,2c-0.4,9.1-0.9,18.2-0.7,27.3c0.1,5.2,1.4,10.3,1.7,15.5c0.9,13.4,1.3,26.8,2.4,40.2
		c0.6,6.5,2.4,12.9,3.6,18.8C1322.4,204.9,1343.2,201.8,1364.8,198.6z"/>
	<path d="M1238,214.1c4.4-0.7,8.8-1.3,13.1-2.3c0.7-0.1,1.4-1.7,1.4-2.6c0.2-8.3,0.5-16.7,0.2-25c-0.1-3.6,1.1-5.1,4.5-5.3
		c1.2-0.1,2.3-0.2,3.5-0.4c3.4-0.7,5,0.8,6,3.9c2.5,8.4,5.2,16.7,7.8,25c0.1,0.5,0.4,0.9,0.6,1.3c4.2-0.5,8.1-1,13-1.6
		c-0.4-3.6-0.5-7.4-1.4-10.9c-2.8-10.7-6.9-21.2-8.7-32c-3.4-20.8-10.1-40.7-16.6-60.6c-1.3-4-4.3-2.4-6.8-2.6
		c-1.2-0.1-2.4-0.5-3.7-0.8c1.2-0.8,2.3-2,3.6-2.2c6.2-1.1,8.5,0.3,10.3,6.4c4.9,16.6,9.9,33.2,14.5,49.9
		c3.5,12.8,6.7,25.7,9.7,38.6c1,4.4,1.5,9,1.9,13.5c0.3,3-1.3,4.4-4.5,4.5c-3.3,0.1-6.7,0.7-10,1.3c-2.4,0.4-3.8-0.3-4.5-2.5
		c-2.6-8.2-5.5-16.3-7.6-24.7c-1.1-4.2-3.6-3.2-6.2-3.1c-3.2,0.2-2.2,2.5-2.2,4.4c-0.1,8.3-0.2,16.7-0.2,25c0,2.6-1.6,3.5-4,3.9
		c-4,0.6-8,1.3-11.9,2.1c-3.9,0.8-4.9,0.1-5.3-3.9c-2.2-18.4-2-36.6,0.8-54.9c2.4-15.7,3.5-31.6,8.8-46.8c0.5-1.3,1.5-2.4,2.3-3.6
		c0.2,1.5,0.9,3.1,0.6,4.4c-7.7,28.1-11.4,56.7-10.7,85.8c0.1,4.8,0.9,9.6,1.4,14.4C1237.6,213,1237.9,213.5,1238,214.1z"/>
	<path d="M904.8,148.4c6-0.6,11.1-1.1,16.3-1.6c2.1-0.2,4.2-0.4,6.2-0.5c5.2-0.2,6.7,0.8,7.2,5.9c0.8,7.5,1,15.1,1.5,22.6
		c0.9,15.6,1.7,31.2,2.6,46.8c0,0.5,0.2,1,0.3,1.8c5.2-0.7,10.3-1.3,15.3-2.4c0.8-0.2,1.6-2.8,1.5-4.3c-0.8-9.9-1.9-19.7-2.8-29.6
		c-1-11.7-1.9-23.4-2.9-35c-0.2-2.9,1.5-4.3,3.9-5.1c6.7-2.1,13.5-4,20.2-6.2c1.3-0.4,3.2-1.5,3.4-2.6c0.8-4.3,1.1-8.7,1.3-13.1
		c0-0.6-1.7-1.9-2.5-1.9c-18.2,0.4-36.5,1-54.7,1.6c-2.8,0.1-5.7,0.1-8.5-0.2c-0.7-0.1-1.3-1.3-2-1.9c0.8-0.3,1.5-0.9,2.3-0.9
		c20.6-0.5,41.2-1,61.7-1.5c6.4-0.1,7,0.4,7.1,6.7c0,0.8,0,1.6,0,2.3c-0.4,11.2-1.4,12.5-11.8,15.9c-4.5,1.4-8.9,2.9-13.5,4
		c-2.9,0.8-4,2.2-3.7,5.2c1.5,14.1,2.9,28.2,4.2,42.4c0.6,7,1.2,14,1.4,21.1c0.1,5-1.3,6.2-6.1,6.7c-3.7,0.4-7.5,1.1-11.2,1.7
		c-4.8,0.8-5.8,0.2-6-4.5c-1-17.8-1.9-35.7-2.8-53.5c-0.3-4.8-0.6-9.6-0.9-14.4c-0.2-3.4-1.6-5.1-5.5-4.6
		c-6.2,0.8-12.4,1.4-18.7,1.7c-5,0.3-5.9-1-5.5-6c0.5-6.9,0.8-13.7,1.3-20.6c0.1-0.9,1-1.8,1.5-2.7c0.5,0.9,1.5,1.8,1.5,2.7
		c-0.2,6.4-0.6,12.7-0.9,19.1C905.4,144.9,905.2,146.1,904.8,148.4z"/>
	<path d="M1163.4,979.1c0.4-1.5,0.6-3.2,1.4-4.4c4.2-6,8.5-11.9,12.9-17.7c20.1-26.7,36.9-55.3,49.4-86.3c4.3-10.6,9.2-21,13.7-31.6
		c0.7-1.7,0.6-3.7,1-6.3c0.6-0.3,2-1.1,2.6-1.4c2.8,0.9,4.9,1.8,7,2.2c33.2,6.8,66.4,13.3,99.6,20.4c22.9,4.9,45.7,10.5,68.5,16.1
		c4.8,1.2,9.3,3.3,13.9,5.2c0.8,0.3,1.3,1.5,1.9,2.3c-0.9,0.1-2,0.6-2.7,0.3c-23.2-9.9-48-14.1-72.4-19.4
		c-23.8-5.2-47.6-10.5-71.5-15.4c-13.1-2.7-26.5-4.6-39.6-7.1c-3.3-0.6-4.2,0.7-5.4,3.3c-11.1,24.5-21,49.5-33.8,73.1
		c-10.6,19.5-24.5,37.2-37,55.6c-2.7,3.9-5.4,7.8-8.1,11.7C1164.3,979.4,1163.8,979.2,1163.4,979.1z"/>
	<path d="M878.5,435.4c1.5-10.4,2.9-20.8,4.4-31.3c1.3-9.6,2-19.2,4.1-28.6c2.2-9.9,5.8-19.5,8.7-29.2c0.2-0.5,0.4-1,0.6-1.5
		c2.1-5.6,2.4-5.7,8.4-5c1.8,0.2,3.7,0.2,5.4,0.8c1.3,0.5,2.8,1.6,3.3,2.8c10.3,26.8,20.5,53.7,30.6,80.5c2,5.2,3.6,10.6,5.1,16
		c0.3,1.1-0.6,2.5-0.9,3.8c-1.1-0.5-2.5-0.7-3.3-1.5c-7.8-7.7-15.6-15.4-23.2-23.2c-1.5-1.6-2.7-1.7-4.7-0.9
		c-4.2,1.8-8.5,3.2-12.8,4.7c-2.1,0.8-2.9,2.1-2.8,4.5c0.3,4.7,0.4,9.4,0.3,14.1c-0.1,4.6-2.4,6.7-7,7.2c-3.1,0.3-6.1,1.1-9.2,1.6
		c-4.4,0.6-5.5-0.1-5.7-4.6c-0.2-3.4,0-6.8,0-10.2C879.4,435.5,878.9,435.5,878.5,435.4z M943.7,437.4c0.4-0.2,0.7-0.5,1.1-0.7
		c-0.1-0.7-0.2-1.5-0.5-2.2c-3.1-7.7-6.2-15.5-9.5-23.1c-9-20.8-13.1-43.4-23.6-63.7c-0.9-1.7-0.3-4.3-3.5-4.2
		c-2.1,0.1-4.1-0.5-6.2-0.4c-0.6,0-1.5,1-1.8,1.8c-3.3,9.8-7.4,19.3-9.4,29.4c-3.1,15.6-4.7,31.4-7.2,47.1
		c-1.4,8.7-0.7,17.3,0.1,26.1c3.8-0.7,7.1-1.6,10.4-1.8c4-0.2,5.3-2.2,5.2-5.7c-0.1-4.6-0.3-9.1-0.6-13.7c-0.2-2.7,0.9-4.6,3.4-5.5
		c4.5-1.8,9.3-2.9,13.4-5.3c4.6-2.7,7-0.5,9.9,2.6C931.1,424.7,937.5,431,943.7,437.4z"/>
	<path d="M648.1,1018c-0.6-1.3-1.4-2.5-1.6-3.8c-1.1-7.1-3.9-13.4-8.1-19.3c-10.7-14.9-20.8-30.4-32-44.9
		c-18.3-23.6-37.9-46.2-63.7-62.3c-9.8-6.2-20.8-8.6-32-12.4c-4.5,18.4-4.8,35.6,6.7,51.3c0.7,1,0.8,2.4,1.2,3.6
		c-1.2-0.6-2.7-0.8-3.4-1.7c-7.4-8.5-9.9-18.9-10.3-29.7c-0.2-6.4,1.3-12.9,1.7-19.4c0.6-8.3,4.8-15.7,6.3-23.8
		c0.6-3.5-0.5-5-3.4-6.3c-7.4-3.3-14.7-6.7-22-10c-0.5-0.2-1-0.4-1.3-0.8c-0.6-0.7-1.1-1.5-1.6-2.3c0.9-0.2,2-0.7,2.7-0.4
		c8.5,3.9,17,7.8,25.5,11.8c2.9,1.4,4.2,3.7,3.3,7.1c-1.5,5.8-2.9,11.6-4.5,17.7c5.5,1.8,10.9,3.3,16,5.3c5.3,2.1,10.9,4,15.6,7.1
		c16.4,10.7,31.2,23.3,44.4,38c20.6,22.9,36.7,49,55,73.5c3.7,5,4.8,12,6.9,18.1c0.3,1,0,2.2,0,3.3
		C649.1,1017.7,648.6,1017.8,648.1,1018z"/>
	<path d="M640.5,331.7c1.1,6.8,2.2,13.6,3.2,20c41.9-5.9,83-11.8,124.6-17.6c-1.5-4.3-3-8.7-4.4-13.1c-3-9.3-3-9.8-12.7-8.4
		c-21.2,2.9-42.3,6.4-63.4,9.7c-13,2.1-26,4.4-38.9,6.6c-1.7,0.3-3.3,0.9-4.9,1.1c-1,0.1-2.1-0.2-3.1-0.4c0.8-0.8,1.4-2.2,2.3-2.4
		c4.6-1.1,9.2-2,13.8-2.8c19.1-3.4,38.2-6.9,57.4-9.9c14.7-2.3,29.5-3.8,44.2-5.8c3.3-0.4,5.1,0.8,6.1,4c2.1,6.6,4.2,13.2,6.5,19.7
		c1.2,3.4,0.3,4.9-3.1,5.3c-10.3,1.3-20.7,2.4-31,3.9c-26.7,3.8-53.4,7.8-80.1,11.7c-3.7,0.6-7.4,1.4-11.1,2
		c-2.8,0.4-5.3,1.2-5.1-3.7c0.2-5.2-1.5-10.5-2.2-15.8c-0.2-1.3,0.3-2.6,0.5-3.9C639.5,331.8,640,331.7,640.5,331.7z"/>
	<path d="M576.2,478c-5.1,0-10.1,0.2-15.2-0.1c-1.1-0.1-2.8-1.6-3.1-2.7c-2.3-10.3-4.6-20.6-6.3-31c-2.3-14-4.1-28.1-6.2-42.2
		c-0.5-3.2-1.6-6.3-2.1-9.5c-0.2-0.9,0.6-2,1-3c0.7,0.8,1.7,1.5,1.9,2.4c1.9,11.2,3.5,22.4,5.5,33.5c1.7,10,3.8,20,5.7,29.9
		c1,5.5,2.3,10.9,3.1,16.5c0.4,2.4,1.1,3.6,3.6,3.4c13.5-0.8,27.1-1.1,40.6-2.6c10.4-1.1,24.9-12.1,27-25.6
		c2-12.7,2.3-25.2-1.8-37.5c-2-6.2-6.3-10-12.3-12.9c-12.4-5.9-25.9-7.2-39.1-8.8c-5.7-0.7-11.6,1.3-17.4,1.7
		c-1.9,0.1-3.9-0.7-5.9-1.2c1.8-0.6,3.6-1.3,5.4-1.8c1-0.3,2.1-0.1,3.1-0.3c18.2-3.5,35.3,0.7,52.4,6.4c11.7,3.9,17,12.3,18.9,23.6
		c1.8,11.3,1.7,22.4-0.8,33.8c-2.9,13.2-19.9,25.3-31.3,26c-8.8,0.5-17.7,1.3-26.5,1.9C576.2,478.1,576.2,478,576.2,478z"/>
	<path d="M1127.1,141.6c4.3,0,8,0.2,11.8-0.1c3.5-0.2,5.7,1.1,6.3,4.4c3.6,19,9.8,37.6,9.5,57.3c-0.1,6.4,1.5,12.8,2.3,19.5
		c3.5-0.5,6.4-0.6,9-1.5c0.9-0.3,1.8-2.7,1.6-3.9c-1.1-8.3-2.6-16.5-3.8-24.7c-1.6-11.6-3.1-23.2-4.6-34.8
		c-0.7-5.2-1.1-10.4-2.1-15.5c-0.7-3.5,0.4-5.4,3.5-6.7c9.1-3.9,18.6-6.8,28.5-8.2c2.6-0.3,5.1-1.1,7.5-1.6
		c-0.5-4.5-0.8-8.7-1.6-12.9c-0.2-1-1.8-2.3-2.9-2.5c-2.3-0.3-4.7,0.1-7,0c-1.2,0-2.4-0.4-3.5-0.6c-0.3-0.5-0.5-1-0.8-1.5
		c0.7-0.3,1.4-0.7,2.2-0.8c4-0.2,8.1-0.5,12.1-0.2c1.1,0.1,2.5,2.2,2.8,3.6c1.1,4.8,2,9.7,2.5,14.5c0.1,1-1.6,2.9-2.8,3.2
		c-4.1,1.1-8.5,1.6-12.6,2.7c-7.4,2-14.7,4.4-22.1,6.5c-2.4,0.7-3.1,2.3-2.7,4.7c3.4,23.6,6.7,47.2,10,70.8c0.1,0.4,0.1,0.8,0.1,1.2
		c1,8.8,1,8.8-7.7,10.3c-7.6,1.3-8.1,1.4-9.2-6.5c-1.3-9.3-1.5-18.7-2.9-27.9c-1.5-10.4-3.9-20.7-5.8-31.1c-0.7-3.6-1.4-7.2-2-10.8
		c-0.5-2.9-1.7-4.4-4.9-4c-3.1,0.4-6.3,0.1-9.4,0.3c-3.3,0.2-4.6-1.4-4.4-4.4c0.5-6.7,1.1-13.5,1.8-20.2c0.1-0.6,0.9-1,1.4-1.5
		c0.6,0.8,1.6,1.5,1.6,2.3c-0.2,3.8-0.7,7.5-1.1,11.3C1127.4,135.4,1127.3,138.5,1127.1,141.6z"/>
	<path d="M758,274.4c0.8-0.1,1.6-0.1,2.3-0.2c5-0.2,6,0.7,5.3,5.5c-0.7,5.2-1.5,10.3-2.7,15.4c-0.3,1.2-2.3,2.7-3.8,2.9
		c-26.1,4-52.3,7.7-78.4,11.6c-10.7,1.6-21.4,3.3-32.1,5c-1,0.2-2.1,0.2-3.1,0.3c-4.9,0.2-6.2-1.1-5.5-6c0.7-4.4,2-8.6,3-12.9
		c0.4-1.7,2.4-3.4-0.3-4.9c0.7-0.8,1.2-2.3,2-2.4c4.2-0.6,8.6-0.8,12.8-1.3c30.9-4,61.7-8.2,92.6-12.2
		C752.8,274.8,755.4,274.6,758,274.4C758,274.4,758,274.4,758,274.4z M763.2,277.1c-4.9,0.4-8.9,0.6-12.9,1.1
		c-33.3,4.3-66.7,8.7-100,13.1c-1,0.1-2.4,1.1-2.7,1.9c-1.6,4.8-3.1,9.7-4.2,14.6c-1,4.2-0.5,4.6,3.7,3.9
		c36.9-5.5,73.7-11.1,110.6-16.7c0.9-0.1,2.3-1,2.5-1.8C761.3,288.2,762.1,283.1,763.2,277.1z"/>
	<path d="M98.2,1023.5c1.3-12.9,6.5-23.9,12.1-34.9c15.4-30.7,37.7-56.2,60.8-81.1c13-14,28.6-25,44.9-35c1.6-1,3.6-1.4,5.5-1.8
		c0.5-0.1,1.2,0.7,1.9,1c-0.4,0.6-0.6,1.4-1.2,1.7c-9.6,6.1-20,11.3-28.8,18.4c-10.6,8.6-20.6,18.1-29.6,28.4
		c-12.6,14.2-25,28.8-35.7,44.5c-9.2,13.5-17.7,27.7-23.2,43.3c-2.1,6.1-4.4,12.3-2.9,19.1c0.1,0.6-0.6,1.5-1,2.2
		c-0.6-0.6-1.6-1-1.8-1.7C98.6,1026.3,98.5,1024.7,98.2,1023.5z"/>
	<path d="M901.7,194.4c-0.1,16.1-8.8,28.6-23.9,34.2c-17.4,6.5-33.4-1.9-38.2-20c-2.8-10.5-3.2-21-1.8-31.7
		c1.3-9.8,14.7-19.2,22.2-20.3c1-0.1,2.7-0.1,2.9,0.4c1.6,3.5,5.1,2.5,7.8,3.4c13.6,4.4,25.2,11.2,29.8,25.9
		C901.3,188.9,901.3,191.7,901.7,194.4z M840,188.4c-0.2,0-0.4,0.1-0.6,0.1c0.9,5.8,1.4,11.6,2.7,17.3c4.2,18.9,19,26.5,36.7,19.2
		c14.3-5.9,22.8-22.1,18.9-37.1c-3.6-13.6-14.5-19.6-26.5-24.1c-3.5-1.3-7-2.5-10.5-3.6c-0.8-0.2-1.8-0.1-2.6,0.2
		c-10.1,4.2-17.9,10.8-18.1,23C840,185,840,186.7,840,188.4z"/>
	<path d="M1280.6,737.6c0.6-1.2,1.1-2.6,1.9-3.7c5.6-8.2,5.5-17.1,2.9-26.2c-0.9-3.1-3.4-4.7-6.9-4.6c-30.4,0.6-60.8,0.5-91.2,1.8
		c-29.3,1.2-58.5,3.8-87.8,5.6c-4.4,0.3-8.9-0.2-13.3-0.5c-1-0.1-2-0.8-2.8-2.2c0.8-0.2,1.5-0.6,2.3-0.6c11.7-0.1,23.5,0.2,35.1-0.4
		c17.6-0.9,35.2-2.1,52.7-3.7c35.2-3.2,70.4-2.1,105.6-2.6c4.3-0.1,6.9,2,8.6,5.5c4,8,1.8,24.1-4.1,30.7c-0.5,0.5-1.1,0.9-1.7,1.4
		C1281.4,738,1281,737.8,1280.6,737.6z"/>
	<path d="M1160.7,979.4c11.1,3.7,21.9,8.3,33.2,11c18.1,4.3,36.5,7.6,54.8,10.9c28.1,5.1,56.2,9.9,84.3,14.7
		c10.4,1.8,20.8,3.5,31.2,5.3c2.3,0.4,4.9,0.8,5.5,4.4c-3.2-0.8-6.1-1.7-9.1-2.2c-20.2-3.5-40.4-6.7-60.5-10.3
		c-33-5.9-66-11.4-98.8-18.1c-13.1-2.7-25.6-8-38.3-12.3c-1.2-0.4-2.1-1.9-3.1-2.9C1160.2,979.6,1160.4,979.5,1160.7,979.4z"/>
	<path d="M375.8,590.2c0.4-6.8,0.7-7.1,7.2-7c7.3,0.2,13.6,3.2,19.9,6.5c3.7,2,7.7,3.4,11.8,5.2c0.8-2.8,1-4.6,1.8-6.2
		c1.7-3.9,6.4-4.5,8.8-1.1c0.4,0.6,0.3,1.6,0.5,2.4c-0.8-0.1-1.8,0.1-2.4-0.2c-3.2-1.6-4.2-1.1-4.7,2.5c-0.7,4.7-1.9,5.9-6.4,4.6
		c-4.2-1.2-8.3-3.1-12.2-5.1c-5.9-3-11.8-5.7-18.6-5.3c-0.8,0-1.5,0.2-3.4,0.5c1.4,2.9,2.7,5.3,3.8,7.8c0.4,1,0.4,2.1,0.6,3.2
		c-1.1-0.2-2.6-0.1-3.3-0.8c-4-3.4-8.2-6.4-14.2-7.6c0.6,2.6,0.8,4.9,1.6,7c5,14.7,10.2,29.3,15.2,44c0.8,2.3,0.7,4.8,0.9,7.2
		c-2-1.2-4.1-2.4-6-3.8c-6.7-4.9-13.3-10-19.9-15c-1.4-1-2.9-1.7-4.3-2.7c-0.4-0.3-0.7-1.5-0.6-1.6c0.5-0.4,1.3-0.8,1.9-0.7
		c0.9,0.1,1.7,0.7,2.4,1.2c7.3,4.8,14.5,9.6,21.6,14.2c-0.2-0.5-0.6-1.7-1-2.9c-4.8-14.5-9.6-28.9-14.2-43.5
		c-0.6-1.8-0.6-5.1,0.3-5.7c1.5-0.9,4.2-0.4,6.2,0C371.2,587.9,373.3,589.1,375.8,590.2z"/>
	<path d="M1190.2,159c0.4,16.4,3.3,32.3,8.2,48c0.2,0.6,0.4,1.5,0.1,1.7c-2,1.9-0.4,3.1,0.8,4.1c1.7,1.5,3.7,4,5.3,3.9
		c3.5-0.3,6.9-2,10.3-3.4c0.4-0.2,0.6-1.7,0.5-2.5c-3.5-19.6-7-39.2-10.8-58.7c-1.3-6.7-2.5-6.9-8.7-4c-0.7,0.3-1.3,1-2,1.1
		c-0.7,0.1-1.4-0.2-2.1-0.3c0.2-0.7,0.2-1.9,0.6-2c3.6-1.3,7.2-2.8,10.9-3.4c0.9-0.1,3,2.8,3.4,4.6c2.4,10.1,4.5,20.3,6.5,30.5
		c1.9,10.2,3.5,20.5,5.3,30.8c1,5.5,0.9,5.7-4.3,7.8c-1.2,0.5-2.4,1-3.6,1.4c-7.3,2.7-11.7,1.1-15.1-5.8c-0.8-1.6,0-3.9-0.5-5.8
		c-5.2-19.1-8.6-38.4-7.6-58.3c0-0.8-0.1-1.6,0.1-2.3c0.2-0.8,0.9-1.4,1.3-2.1c0.6,0.7,1.7,1.4,1.7,2.2c0.1,3.3-0.1,6.5-0.2,9.8
		C1190.2,157.2,1190.2,158.1,1190.2,159z"/>
	<path d="M764.2,136.7c3.1,8.8,3.8,18.2,5.6,27.4c0.6,0,1.1,0.1,1.6,0c16.4-3.2,32.7-6.4,49.1-9.6c7.6-1.5,12.1-8.5,9.4-15.8
		c-0.7-1.8-2.6-3.8-4.4-4.5c-3.2-1.2-6.9-2-10.3-1.9c-13.6,0.7-27.3,1.8-40.9,2.7c-2,0.1-4.1-0.5-6.1-0.8c1.8-0.7,3.7-1.9,5.6-2
		c13.5-1.2,27-2.3,40.5-3c4.2-0.2,8.5,1,12.6,2.2c4.5,1.3,6.7,5,6.7,9.6c0.1,9.1-3.4,15-13.6,16.7c-16.1,2.6-32,6.2-47.9,9.5
		c-3,0.6-5,0.7-5.6-3.1c-1.2-8-2.7-15.9-4.1-23.9c-0.2-1,0-2.1,0-3.2C763,137,763.6,136.8,764.2,136.7z"/>
	<path d="M334.4,268.4c5.3-1,10.3-1.9,15.2-3.1c0.7-0.2,1.4-2.8,1.1-4c-1.5-5.4-3.6-10.6-5.2-16c-1-3.4-1.6-6.9-2.4-10.3
		c0.5-0.2,1-0.4,1.4-0.6c0.7,0.9,1.6,1.6,1.9,2.6c2.4,7.4,4.7,14.9,7,22.4c0.3,1,0.5,2,0.7,3c0.7,4.6-0.3,5.7-4.9,6.3
		c-4.4,0.6-8.7,1.7-13,2.7c-3.2,0.8-4.7-0.6-5.3-3.5c-0.1-0.4-0.1-0.8-0.1-1.2c-2.1-27.8-9.8-54.5-16.9-81.3c-2-7.5-3.2-15.3-4.6-23
		c-0.2-1-0.2-2.2,0.1-3.1c0.2-0.6,1.3-1.1,2.1-1.2c0.3,0,1.1,1.1,1.1,1.7c-0.1,10.9,3.5,21,6.1,31.3c3.5,13.9,6.4,27.9,10.2,41.8
		c2.8,10.3,4.2,20.6,4.7,31.2C333.5,265.5,334,266.9,334.4,268.4z"/>
	<path d="M292,620.4c7.8-6,7.8-6,11.8-6.2c0.3-1.3,0.6-2.7,1.1-4.6c1.9,1.6,3.3,2.8,4.7,4c-0.3,0.1-0.7,0.2-1,0.3
		c2,7.2,4,14.4,6,21.6c3.6-10.2,7.1-19.7,20.4-15.5c-0.6-2.6-1.2-5.1-1.7-7.6c2.4,0.7,4.9,1.3,7.2,2.4c0.4,0.2,0,2.3-0.1,4.4
		c0.4,0.4,1.7,1.3,2.7,2.4c0.6,0.6,0.7,1.5,1.1,2.3c-0.9,0.3-1.9,1-2.7,0.8c-3.2-0.5-6.3-1.6-9.5-2c-6.2-0.8-8.7,0.6-11,6.3
		c-1.2,3-1.5,6.3-2.4,9.4c-0.4,1.3-1.5,2.4-2.2,3.6c-1.1-0.8-2.7-1.4-3.2-2.4c-1.4-3.1-2.3-6.4-3.3-9.6c-1-3-1.7-6-2.8-9
		c-1.7-4.6-6.1-5.2-9.3-1.4c-4.2,4.9-5.1,5.1-10.1,2.2c-1.1,2.5-2.2,4.9-3.4,7.3c-3.3,7.1-5.3,7.5-11.4,1.9
		c-1.2,3.7-2.4,7.1-3.6,10.6c-0.4,1.2-0.5,2.6-1.1,3.8c-0.7,1.4-1.8,2.5-2.7,3.8c-0.1-1.5-0.6-3.1-0.2-4.5c1.4-5.2,3-10.3,4.5-15.4
		c1.1-3.5,2.8-3.9,5.2-1.2c1.1,1.2,2.2,2.4,3.9,4.4c1.7-3.5,3.1-6.4,4.4-9.3C285.5,618.2,287.3,617.5,292,620.4z"/>
	<path d="M1390,1024.8c0.5-1.5,0.7-3.1,1.4-4.5c14.6-31.7,31.1-62.6,43.6-95.3c4.7-12.3,10.7-24,16.2-36c0.5-1.1,1.5-2,2.8-2.6
		c-19.6,47-39,93.9-62.5,139C1391,1025.2,1390.5,1025,1390,1024.8z"/>
	<path d="M1281.6,963.1c-1.2,3.4-2.3,6.8-3.5,10.2c-0.5-0.1-0.9-0.2-1.4-0.4c-1.3-3.9,2.1-7.3,2-11.4c-2.6-1.4-5.3-2.8-8.5-4.5
		c-1.3,2.1-3.3,4-3.7,6.2c-0.5,2.2-0.4,5.9,1,7c9.2,7.6,19.9,12.6,31.5,15.8c3.4,0.9,4-0.8,4.5-3.4c1-4.8,2.1-9.6,3.4-14.3
		c0.3-1,1.6-1.7,3-2c-1.1,4-2.2,8-3.2,12.1c-0.6,2.4-0.7,4.9-1.3,7.3c-0.7,2.6-2.2,4-5.2,3.3c-12.8-2.8-24.2-8.6-34.6-16.5
		c-3.2-2.4-3.7-6.9-1.5-11.1c2.3-4.2,5-8.3,7.7-12.3c0.6-0.9,1.8-1.3,2.7-1.9c0.3,0.3,0.6,0.6,0.9,0.9c-0.8,1.2-1.5,2.5-2.4,3.6
		c-1.4,1.9-1.1,3.3,1,4.3c0.9,0.5,1.9,0.9,2.8,1.5c2.3,1.4,3.9,1.2,5.3-1.4c0.9-1.6,2.7-2.6,4.1-3.9c-0.6,1.7-1.2,3.3-1.8,5
		c-0.3,0.8-0.8,1.6-1.1,2.3c4.2,3.6,7.6,2.9,10.3-2.5c0.3,0.4,0.7,0.9,1,1.3c-2,5.3-4,10.6-6,15.9c-0.4,0-0.8,0-1.2-0.1
		c-0.1-1.2-0.5-2.5-0.2-3.6C1289,964.2,1289,964.2,1281.6,963.1z"/>
	<path d="M164.5,764.7c0.3,2.6,0.8,5.1,0.9,7.7c0.1,8.9,0.2,17.7,0.1,26.6c-0.1,5.7,3.1,9.9,6.5,13.7c1,1.1,3.3,1.5,5,1.4
		c15-0.7,29.9-1.7,44.9-2.4c8.1-0.4,16.1-0.6,24.2-0.7c1.3,0,2.7,0.8,3.8,2.2c-4.6,0.2-9.2,0.5-13.8,0.7c-20.3,0.9-40.6,1.8-61,2.6
		c-1.8,0.1-4.2-1-5.4-2.3c-4-4.4-6.9-9.4-7-15.7c-0.1-10.7-0.3-21.4-0.4-32.1c0-0.6,0.4-1.1,0.6-1.7
		C163.4,764.8,164,764.7,164.5,764.7z"/>
	<path d="M313.3,156.6c0.7-1,1.2-2.4,2.1-2.8c4.3-1.6,8.6-2.9,13-4.1c4.6-1.3,6.6,0.1,7,5c0.8,9.9,0.9,19.8,2.1,29.6
		c1.5,12.4,3.6,24.7,5.5,37.1c0.3,1.8,0.2,3.6,0.3,5.5c-0.5,0.1-1,0.2-1.5,0.4c-0.5-1.1-1.3-2.1-1.6-3.3
		c-4.5-20.4-6.4-41.2-7.2-62.1c-0.1-3.1-0.7-6.1-1.2-10c-6.2,1.9-12,3.7-17.7,5.5C313.9,157.2,313.6,156.9,313.3,156.6z"/>
	<path d="M489.2,128.4c1.1-0.4,2.2-1,3.3-1.2c20.1-2.9,40.2-5.8,60.3-8.5c10.4-1.4,11.4-0.4,12.2,10c0.2,2.9,0.5,5.7,0.6,8.6
		c0,3.3-1.6,4-4.7,2.1c3.4-5.4,0.5-11,0.3-16.5c0-0.5-2.3-1.5-3.5-1.4c-7.4,0.7-14.7,1.6-22.1,2.6c-14,1.9-28.1,4-42.1,5.9
		c-1.3,0.2-2.6-0.1-3.9-0.2C489.4,129.4,489.3,128.9,489.2,128.4z"/>
	<path d="M1246.2,156.3c1.4-7.8,2.6-15.6,4.2-23.4c0.3-1.6,1.7-3,2.5-4.5c0.5,1.1,0.6,2.5,1.4,3.3c6.4,5.9,5.6,14.7,9.1,21.7
		c0.3,0.7,0.4,1.5,0.5,2.3c0.7,4.5-0.7,6.5-5.2,7.4c-2.4,0.5-4.9,0.9-7.3,1.4c-3.4,0.7-5-0.6-4.7-4.1c0.1-1.3,0-2.6,0-3.9
		C1246.6,156.3,1246.4,156.3,1246.2,156.3z M1253.8,133.8c-0.4,0-0.8-0.1-1.2-0.1c-1.1,9.1-2.1,18.1-3.3,27.9
		c3.7-0.6,6.1-1.2,8.5-1.4c3-0.3,3.7-2.2,3-4.7C1258.6,148.2,1256.2,141,1253.8,133.8z"/>
	<path d="M192.2,1028.3c-0.5-1-1.3-2.1-1.4-3.1c-1.7-20.2-1.9-40.4,4.8-59.9c1.3-3.9,3.4-7.6,5.3-11.3c0.3-0.6,1.4-0.7,2.1-1.1
		c0.2,0.8,0.7,1.8,0.4,2.4c-0.9,2.1-2.3,4.1-3.2,6.3c-4.4,10.6-6.8,21.7-7.1,33.1c-0.3,9.9,0.4,19.8,0.6,29.7c0,1.3-0.2,2.6-0.4,3.8
		C193,1028.1,192.6,1028.2,192.2,1028.3z"/>
	<path d="M565.1,1045.5c-0.4,0.5-1.1,1.1-1.7,1.8c-0.6-0.9-1.5-1.7-1.7-2.7c-1.6-9.9-3-19.8-4.6-29.7c-2-12.8-5.3-25.2-10.3-37.1
		c-0.3-0.6,0.2-1.6,0.3-2.4c0.8,0.3,1.8,0.4,2.2,1c1,1.4,1.8,2.9,2.3,4.5c4.9,14.7,8.6,29.7,10.2,45.2
		C562.6,1032.4,564,1038.6,565.1,1045.5z"/>
	<path d="M693.7,388c1.9,4.6,3.8,9.1,5.7,13.7c-0.5,0.3-1.1,0.5-1.6,0.8c-1.7-2.4-3.4-4.8-5.5-7.8c-1.8,7.6-3.4,14.6-5.2,22.1
		c5-0.2,9.1-0.3,13.2-0.8c0.6-0.1,1.5-1.5,1.6-2.4c0.1-1.1-0.7-2.2-0.8-3.4c-0.1-0.7,0.5-1.5,0.8-2.3c0.6,0.4,1.4,0.6,1.8,1.1
		c3.6,5.2,1.6,9.5-4.6,10c-3.4,0.3-6.7,0.5-10.1,0.7c-3.1,0.2-4.8-1.4-4.2-4.5c1.2-6.2,2.4-12.5,4-18.6c0.8-3.2,2.5-6.1,3.8-9.1
		C692.9,387.7,693.3,387.8,693.7,388z"/>
	<path d="M641.3,671c0.8,0.3,1.2,0.5,1.5,0.6c5.8,2.9,5.7,2.9,3.7,9.6c-1.3,4.5-2.5,9-3.8,13.5c-0.5,1.5-1.3,2.9-2.5,4.2
		C638.8,689.6,636.5,680.3,641.3,671z"/>
	<path d="M621.1,717.8c2.4-0.5,4.9-1.2,7.4-1.6c16.5-2.6,32.9-5.1,49.4-7.6c1.2-0.2,2.3-0.6,3.4-0.7c0.8,0,1.5,0.4,2.3,0.6
		c-0.5,0.6-0.9,1.7-1.6,1.9c-2.8,0.5-5.7,0.7-8.5,1.2c-15.7,2.5-31.3,5-47,7.5c-1.7,0.3-3.4,0.3-5.1,0.4
		C621.2,718.9,621.2,718.4,621.1,717.8z"/>
	<path d="M759.8,735.9c1.2-0.5,2.4-1.4,3.6-1.4c15.6-0.4,31.2-0.8,46.9-1c2.5,0,5.4-0.3,6.9,3.1c-19.3,0-38.2,0-57,0
		C760.1,736.4,759.9,736.1,759.8,735.9z"/>
	<path d="M1338.2,934.9c-8.9-1.3-12.6-7.6-9.2-14.7c3.2-6.6,8-9.7,14-8.7c4.4,0.7,6.7,4.9,4.8,7.8c-1.9-1.7-3.6-4.2-5.9-5
		c-4.1-1.5-8.7,2.3-10.8,8c-1.6,4.3-0.4,6.8,4.4,9.4c1.2,0.7,2.3,1.6,3.4,2.4C1338.7,934.3,1338.5,934.6,1338.2,934.9z"/>
	<path d="M1166.4,108.6c0.5,0,1.1-0.2,1.6-0.1c0.9,0.3,1.7,0.8,2.6,1.1c-0.7,0.6-1.4,1.5-2.2,1.6c-5.9,0.8-11.9,1.4-17.8,2.1
		c-5.7,0.7-11.4,1.4-17,2c-1,0.1-2-0.5-3-0.8c0.9-0.7,1.7-1.9,2.7-2.1c11.1-1.5,22.2-2.8,33.3-4.2
		C1166.4,108.5,1166.4,108.6,1166.4,108.6z"/>
	<path d="M1303.5,926.3c-2.8-2.5-3.1-6.2-3.6-9.6c-1.6-9.8,6.4-18.5,15.3-16.9c3.9,0.7,5.5,2.9,4.3,6.3c-1.6-1.2-2.9-2.9-4.7-3.5
		c-4.1-1.3-7.9,0.7-10.2,4.6c-2.7,4.6-2.6,9.4-1,14.3c0.5,1.4,0.8,2.8,1.2,4.2C1304.4,926,1303.9,926.2,1303.5,926.3z"/>
	<path d="M1311.2,932.1c-0.3,3.9-0.8,7.2-0.8,10.4c0,3.1-1.2,4.5-4.2,3.9c-2.5-0.5-5.1-1-7.4-2.1c-3.3-1.7-3.6-6.6-0.3-8.3
		c3.8-1.9,8-2.9,12-4.2C1311.1,931.8,1311.7,932.3,1311.2,932.1z M1307.8,935.2c-2.7,1.1-4.5,1.5-6.1,2.4c-1,0.6-1.7,1.9-2.5,2.9
		c2.1,1.1,4,2.3,6.2,3c0.5,0.2,2.1-1.2,2.2-2.1C1308,939.7,1307.8,937.8,1307.8,935.2z"/>
	<path d="M539.4,531.6c1.5,5.1,2.6,9.6,4.1,13.9c2.1,6.3,4.5,12.5,6.6,18.8c0.3,0.9-0.1,2-0.2,3.1c-0.3,0-0.7,0-1,0
		c-0.7-1.5-1.6-2.9-2.2-4.5c-3-8.7-5.9-17.5-8.7-26.3C537.3,534.8,536.6,532.4,539.4,531.6z"/>
	<path d="M541.5,517.3c9.6,5.7,18.6,0.3,27.6,0c0.8,0,1.5-0.3,2.3-0.3c0.2,0,0.5,0.2,1.5,0.6c-1.1,0.9-1.8,2-2.6,2.2
		c-7.2,1.2-14.4,2.3-21.6,3.1C544.6,523.2,542.5,521.5,541.5,517.3z"/>
	<path d="M480.7,835.5c-3.5-2.4-7-4.6-10.3-7c-0.2-0.2-0.2-1.2,0.1-1.4c0.4-0.3,1.3-0.6,1.7-0.4c3.1,1.8,6.2,3.7,9.2,5.8
		c0.5,0.3,0.6,1.3,0.6,2C481.9,834.8,481.2,835.1,480.7,835.5z"/>
	<path d="M643.6,706.3c-1.3,1.5-2.2,2.5-3.1,3.6c-1.1-1.3-2.8-2.4-3-3.8c-0.1-0.9,1.9-2.1,3-3.2
		C641.3,703.8,642.2,704.8,643.6,706.3z"/>
	<path d="M405.7,773c-4.2-6.3-10.3-7.7-16.9-8.1c-3-0.1-6,0.1-9-0.2c-16.5-1.8-30.7,3.9-44.2,12.7c-9.4,6.1-12.4,15.1-11.6,25.6
		c0.7,10.5,5.4,18.6,15.7,22.2c4.7,1.6,9.8,2.8,14.8,3.3c14.6,1.4,28.7-0.8,41.5-8.3c5.3-3.1,10.1-7.4,14.4-11.9
		c1.6-1.7,1.1-5.3,1.6-8c0.2-1,0.7-1.9,1.1-2.9c0.6,0.9,1.7,1.6,1.8,2.6c0.7,4.2,0.3,8.2-3,11.6c-12,12.6-27,19.1-44.1,19.9
		c-8.1,0.4-16.5,0.1-24.4-1.7c-15-3.3-22.5-13.9-22.6-29.2c0-11.8,4.9-20.3,14.9-27c18.1-12.2,37.9-13.7,58.5-10.9
		c3.8,0.5,7.4,2.9,10.9,4.9C406.9,768.5,408.2,770.4,405.7,773z"/>
	<path d="M366.2,742.5c-3-1-6.1-1.5-8.5-3c-4.3-2.7-3.9-8.5,0.6-10.8c0.8-0.4,1.9,0,2.8,0c-0.3,0.8-0.4,1.9-1,2.5
		c-3.2,3.1-2.8,5.8,1.5,6.8c2.9,0.7,6.2,0.6,9.1,0.2c3.2-0.5,6.2-1.9,9.3-2.8c1-0.3,2-0.1,3.1-0.2c-0.6,1-1,2.6-1.9,2.9
		C376.3,739.6,371.3,741,366.2,742.5z"/>
	<path d="M464.2,698.2c2.8,0.3,4.7,0.2,6.4,0.7c1,0.2,1.7,1.3,2.6,1.9c-0.9,0.5-1.8,1.4-2.7,1.5c-11.1,1.3-22.3,2.5-33.4,3.8
		c-1.2,0.1-2.4,0.1-3.5,0.5c-4.2,1.6-7.5-0.9-10.9-2.5c-0.8-0.4-1.1-1.7-1.7-2.7c1.1-0.6,2.1-1.6,3.2-1.7c7.6-1.1,15.2-2,22.9-3.1
		c6.2-0.9,12.4-1.9,18.6-2.6c1.5-0.2,3,0.5,4.6,0.8c-1.3,0.9-2.6,1.8-4,2.7C466,697.8,465.6,697.8,464.2,698.2z"/>
	<path d="M273.5,719.6c1-4.7,3.4-5.9,6.8-6.4c12.9-1.8,25.7-4.1,38.6-5.9c1.4-0.2,4.3,0.7,4.4,1.3c0.3,2.3-0.4,4.5-3.5,5.1
		c-10.1,2-20,4.7-30.2,6.3C284.4,720.8,279,719.8,273.5,719.6z"/>
	<path d="M895.4,389.4c1.2-5,2.3-10.1,3.6-15c0.2-0.8,1.3-1.4,2-2c0.7,0.7,1.5,1.3,2,2.1c1.6,2.9,3.4,5.9,4.6,9
		c0.9,2.4,1.2,5,1.2,7.6c0,1-1.4,2.3-2.5,2.8c-1.9,1-4.1,1.5-6.2,2.3c-2.6,1-4,0.4-3.9-2.6c0-1.3,0-2.6,0-3.9
		C895.9,389.5,895.6,389.5,895.4,389.4z M899.1,392.2c0.3,0.3,0.7,0.6,1,0.9c1.9-1.3,4.7-2.3,5.3-4.1c1.1-3.2-1.9-7.3-5.7-8.7
		C899.6,384.3,899.4,388.3,899.1,392.2z"/>
	<path d="M865.4,172.8c5.7,4.2,11.3,7.7,16.1,12.1c5.4,4.8,6.4,16,2.9,22.2c-3.9,6.9-12.1,10.6-20,9.2c-4.6-0.8-7.6-3.9-9.6-7.4
		c-5.6-9.4-8-19.5-3.9-30.2c2.2-6,6.9-9.2,12-8.7C865.5,170.1,866.6,171,865.4,172.8z M860.2,173.4c-2.8,0.5-5.2,2.9-6.7,7.1
		c-3.4,9.4-1.1,18.2,3.7,26.2c5,8.4,13.1,9.2,20.6,3c7.1-5.8,8-16.8,1.2-23c-4-3.7-8.9-6.2-13.4-9.3
		C864,176.3,862.4,175,860.2,173.4z"/>
</g>
<path d="M721.5,639.5c2.2-10.8,7.2-21,15-28.7c7.9-7.8,20.8-12.8,30.1-4.3c1.4,1.3,3.5-0.8,2.1-2.1c-8.7-8-21.2-6.1-30.1,0.6
	c-10.7,8-17.4,20.8-20,33.7C718.3,640.5,721.1,641.3,721.5,639.5L721.5,639.5z"/>
<path d="M709.8,629.3c3.6,6.8,5,14.1,4.5,21.7c-0.1,1.4,1.6,1.8,2.5,1c5-4.5,10.5-8.3,16.4-11.5c1.7-0.9,0.2-3.5-1.5-2.5
	c-6.1,3.4-11.7,7.4-16.9,12c0.8,0.3,1.7,0.7,2.5,1c0.6-8.1-1.1-16-4.9-23.2C711.5,626.2,709,627.7,709.8,629.3L709.8,629.3z"/>
<path d="M793.8,594.9c-3.6-5.8-12.6-3-13.1,3.6c-0.3,3.7,1.8,7.2,4.9,9.1c2.3,1.4,5,2,7.2,3.6c0.9,0.5,1.6,1.2,2,2.1
	c-0.7,3.5-2,4.8-4,3.6c-1.4-0.3-2.7-1.5-3.9-2.3c-1.5-1.2-3,1.4-1.5,2.5c2.5,1.9,6,4.1,9.3,3c2.8-0.9,4-3.8,3.3-6.5
	c-0.9-3.6-4-5.4-7.2-6.7c-3-1.3-6-2.6-7-6c-1.3-4.3,4.3-9.3,7.3-4.6C792.2,597.9,794.8,596.5,793.8,594.9L793.8,594.9z"/>
<path d="M798.9,575.9c1.8,8.9,3.7,17.8,5.5,26.6c1,4.6,1.4,11.2,6.9,12.6c1.8,0.5,2.6-2.4,0.8-2.8c-5.1-1.3-5.6-13.9-6.4-17.9
	c-1.3-6.4-2.7-12.9-4-19.3C801.3,573.3,798.5,574.1,798.9,575.9L798.9,575.9z"/>
<path d="M796.9,600c5.8-2,11.6-3.2,17.7-3.7c1.9-0.1,1.9-3.1,0-2.9c-6.3,0.5-12.5,1.7-18.5,3.8C794.3,597.8,795.1,600.6,796.9,600
	L796.9,600z"/>
<path d="M816,590.6c0.8,7.7,2.9,15.1,6.4,22c0.9,1.7,3.4,0.2,2.5-1.5c-3.3-6.5-5.3-13.3-6-20.6C818.7,588.7,815.8,588.7,816,590.6
	L816,590.6z"/>
<path d="M816.4,574.6c-0.5,1-1,2-1.5,3c-0.4,0.7-0.2,1.6,0.5,2c0.7,0.4,1.7,0.2,2-0.5c0.5-1,1-2,1.5-3c0.4-0.7,0.2-1.6-0.5-2
	C817.7,573.7,816.7,573.9,816.4,574.6L816.4,574.6z"/>
<path d="M823.8,569.2c0.2,12.6,3.2,24.7,8.9,35.9c0.9,1.7,3.4,0.2,2.5-1.5c-5.5-10.8-8.4-22.4-8.5-34.4
	C826.7,567.4,823.8,567.4,823.8,569.2L823.8,569.2z"/>
<path d="M830.1,569.6c2.6,9.5,4.5,19.6,8.1,28.8c2,5.2,5.4,10.2,11.4,10.3c1.9,0,1.9-2.9,0-2.9c-7.3-0.1-9.3-9.8-10.8-15.4
	c-2-7.2-3.9-14.4-5.9-21.5C832.5,567,829.6,567.8,830.1,569.6L830.1,569.6z"/>
<path d="M864.5,585.6c7.3,2,14.2-5.1,12.1-12.3c-0.2-0.6-0.8-1.1-1.4-1.1c-9-0.2-16.2,8.5-14.9,17.4c1.4,9.9,12,15.4,21.3,14.3
	c1.9-0.2,1.9-3.2,0-2.9c-7.3,0.9-15.7-2.5-18-10.1c-2.3-7.5,3.8-15.9,11.6-15.7c-0.5-0.4-0.9-0.7-1.4-1.1c1.5,5.1-3.3,10.1-8.5,8.7
	C863.5,582.3,862.7,585.1,864.5,585.6L864.5,585.6z"/>
<path d="M878.1,580.3c6.7,6.6,15.3,10.3,24.7,10.6c1.9,0.1,1.9-2.9,0-2.9c-8.7-0.3-16.4-3.7-22.6-9.8
	C878.9,576.9,876.8,578.9,878.1,580.3L878.1,580.3z"/>
<path d="M897.2,571.2c-7.3,6.7-12.2,15.3-14.1,25c-0.4,1.8,2.5,2.6,2.8,0.8c1.9-9.3,6.4-17.3,13.4-23.7
	C900.7,572,898.6,570,897.2,571.2L897.2,571.2z"/>
<path d="M904.2,575.3c0.5,13.7,2.8,27.1,7.1,40.1c0.6,1.8,3.2,1.1,2.8-0.8c-2.2-10.4-3.5-21-3.8-31.7c-0.1-1.6-0.9-6.3,0.1-7.6
	c2.4-3.5,6,0,7.2,2.3c3.1,5.7-0.1,15.8-8,12.6c-1.8-0.7-2.5,2.1-0.8,2.8c13.8,5.5,18.1-19.4,4.8-22c-7.2-1.4-6.3,7.5-6.2,12
	c0.3,10.9,1.7,21.8,3.9,32.5c0.9-0.3,1.9-0.5,2.8-0.8c-4.2-12.8-6.5-25.9-7-39.3C907,573.5,904.1,573.4,904.2,575.3L904.2,575.3z"/>
<path d="M916.5,552.5c0.3,13.3,4,26,10.9,37.3c1,1.6,3.5,0.1,2.5-1.5c-6.6-10.9-10.2-23.1-10.5-35.8
	C919.3,550.6,916.4,550.6,916.5,552.5L916.5,552.5z"/>
<path d="M936.7,580.9c1.8,2.2,4.7,2.3,7.1,0.8c3.2-2,3.6-5.7,2.6-9.1c-1.1-3.8-2.7-6.6-7-6.5c-3.9,0.2-7.2,2.8-8.8,6.2
	c-2.9,5.8-2.8,18.3,4.6,21.1c5.1,1.9,11.1-4.2,7.2-8.8c-1.2-1.4-3.3,0.6-2.1,2.1c2.6,3-3.5,4.3-4.7,3.7c-1.2-0.6-2.3-2.5-2.8-3.8
	c-1-2.7-1.1-5.8-0.8-8.6c0.4-3.4,1.9-7.4,5.5-8.5c3-0.9,5.5,0.8,6.1,3.8c0,1.5,0,3-0.1,4.5c-1.3,2-2.9,2.3-4.8,0.9
	C937.6,577.4,935.5,579.5,936.7,580.9L936.7,580.9z"/>
<path d="M962,564.1c-5.7,0.7-14.6,3-13.4,10.7c0.4,2.5,2.1,4.1,4.4,5c1.7,0.7,3.4,0.8,5.1,1.2c0.8,0.2,1.9,0.4,2.5,0.9
	c3,2.5-0.3,6.9-3.3,5.2c-1.7-0.9-3.1,1.6-1.5,2.5c4.5,2.5,11-2.3,8.9-7.4c-1.1-2.8-4.2-3.6-6.9-4.2c-3.1-0.6-6.2-1.2-6.3-5.3
	c0-4.4,7.4-5.3,10.4-5.7C963.9,566.8,963.9,563.9,962,564.1L962,564.1z"/>
<path d="M966.3,561.7c1,8.6,2,17.2,3,25.9c0.2,1.9,3.2,1.9,2.9,0c-1-8.6-2-17.2-3-25.9C969,559.8,966,559.8,966.3,561.7L966.3,561.7
	z"/>
<g>
	<g>
		<path fill="#2B2B2B" d="M960.7,554c0.5,0,1,0,1.5,0c0.8,0,1.5-0.7,1.5-1.5c0-0.8-0.7-1.5-1.5-1.5c-0.5,0-1,0-1.5,0
			c-0.8,0-1.5,0.7-1.5,1.5C959.2,553.3,959.8,554,960.7,554L960.7,554z"/>
	</g>
</g>
<path d="M971.7,562.3c4.7,7.4,9.3,14.9,14,22.3c0.7,1.1,2.2,0.8,2.7-0.4c3.4-8.7,6-17.6,7.8-26.7c0.4-1.8-2.5-2.6-2.8-0.8
	c-1.8,9.2-4.4,18-7.8,26.7c0.9-0.1,1.8-0.2,2.7-0.4c-4.7-7.4-9.3-14.9-14-22.3C973.2,559.2,970.7,560.7,971.7,562.3L971.7,562.3z"/>
<path d="M1003.7,567.7c6.4-0.9,10.9-6,11.4-12.4c0-0.5-0.3-1-0.7-1.3c-9.6-5.7-15.8,8.4-14.1,16c2.3,10.3,13.9,14.7,23,10.2
	c1.7-0.8,0.2-3.4-1.5-2.5c-8.7,4.3-19-1.5-19-11.4c0-2.4,0.6-5,2-7c1-1.4,3.8-4.2,5.7-3.5c3.2,1.2-0.2,5.1-1.4,6.3
	c-1.7,1.7-3.8,2.4-6.1,2.8C1001,565.1,1001.8,567.9,1003.7,567.7L1003.7,567.7z"/>
</svg>
