<?xml version="1.0" encoding="utf-8"?>
<!-- Generator: Adobe Illustrator 22.0.1, SVG Export Plug-In . SVG Version: 6.00 Build 0)  -->
<svg version="1.0" id="Ebene_1" xmlns="http://www.w3.org/2000/svg" xmlns:xlink="http://www.w3.org/1999/xlink" x="0px" y="0px"
	 viewBox="0 0 1547.9 1049.4" enable-background="new 0 0 1547.9 1049.4" xml:space="preserve">
<g>
	<path fill="#020202" d="M139.5,47.3c0,1.9,0,3.8,0,5.8c8.1,0,16,0.7,23.7-0.1c33.2-3.8,66.3-8.3,99.6-11.9
		c36.3-4,72.6-7.9,109-10.8c27.3-2.2,54.7-2.7,82.1-4c22.6-1,45.2-2.4,67.9-3.1c32.8-1,65.6-1.3,98.4-2.4
		c22.5-0.8,44.9-2.7,67.4-3.8c24.2-1.2,48.3-2,72.5-3c36.3-1.5,72.5-3,108.8-4.3c19.2-0.7,38.3-1,57.5-1.1
		c90.4-0.5,180.7-1.1,271.1-1.3c23.1,0,46.3,1.6,69.4,2.1c25.1,0.5,50.2,0.5,75.3,0.8c1.9,0,3.8,0.7,5.7,1c0,0.4-0.1,0.8-0.1,1.2
		c-0.7,0.2-1.3,0.6-2,0.5c-26.9-0.2-53.8,0.3-80.7-1c-76.9-3.7-153.9-1.6-230.9-1.7c-46.7,0-93.4,0.4-140.2,1.4
		c-40.5,0.9-81,2.8-121.5,4.3c-24.2,0.9-48.4,1.8-72.5,3c-25.6,1.2-51.1,3.1-76.7,4.2c-23.3,1-46.6,1.3-69.8,2.1
		c-34.9,1.2-69.7,2.4-104.5,3.7c-17.7,0.6-35.5,0.9-53.2,2c-23.2,1.5-46.4,3.7-69.6,5.8c-18.3,1.7-36.6,3.4-54.9,5.6
		c-24.1,3-48.1,7-72.3,9.7c-18.6,2.1-37.4,2.9-56.2,4c-2.9,0.2-4.5,0.6-4.7,3.9c-0.5,11.4-2,22.9-1.8,34.3c0.5,31,1.4,62,2.7,93
		c0.9,22.2,2.4,44.5,4.2,66.6c2.4,30.1,5.4,60.2,8.1,90.3c2.2,24.6,4.7,49.2,6.5,73.8c3.9,56.1,4.7,112.4,5.5,168.6
		c0.1,3.4,0,6.9,0,10.3c0.4,0.1,0.8,0.2,1.2,0.3c1.8-2.2,3.8-4.3,5.3-6.7c4.2-6.3,8.5-12.5,12.1-19.1c2.4-4.3,1.5-5.4-3.3-6.3
		c-0.8-0.1-1.6-0.2-2.2-0.5c-1.1-0.7-2.8-1.4-3-2.4c-0.2-1,0.7-2.6,1.6-3.5c3.1-3.2,6.5-6.2,9.7-9.2c-0.1-0.3-0.2-0.7-0.3-1
		c-1.7,0-3.5,0.2-5.1-0.1c-1.3-0.3-2.5-1.2-3.8-1.9c0.7-1.4,1.1-3.2,2.3-4c6.1-4.1,12.3-7.9,18.5-11.9c1.1-0.7,2.2-1.6,3.9-2.8
		c-2.8-1-5-1.5-7-2.5c-1.6-0.8-2.9-2.2-4.4-3.3c1.2-1.5,2.2-3.5,3.8-4.4c5.1-2.9,10.6-5.4,15.8-8.1c4.1-2.2,8-4.5,12.1-6.8
		c-3.2-4.7-3-5.3,2-7.2c9.4-3.5,18.8-7,28.2-10.6c1.2-0.4,2.2-1.1,4-2c-2.9-0.8-5.1-1.1-7-1.9c-1.3-0.6-2.4-1.9-3.5-2.9
		c1.1-1,2-2.5,3.2-2.8c8.5-1.8,17-3.9,25.7-4.9c5.3-0.6,10.8,0.1,16.1,0.6c1.8,0.2,3.5,1.5,5.1,2.5c0.4,0.3,0.4,1.3,0.6,2
		c-0.7,0.1-1.5,0.6-2,0.4c-11.8-5.5-23.7-2.4-35.5-0.4c-2.6,0.4-5,1.4-7.4,3.1c2.3,0.5,4.7,0.9,7,1.6c1.2,0.4,2.3,1.3,3.4,2
		c-0.8,1-1.4,2.5-2.5,3c-6.6,2.9-13.2,5.7-19.9,8.3c-4.7,1.8-9.4,3.3-14.5,5.1c2.6,3.9,0.3,6-2.5,7.5c-8,4.4-16.1,8.6-24.2,12.9
		c-1.3,0.7-2.6,1.5-4.8,2.8c3,1,5.2,1.6,7.3,2.5c1.5,0.7,4,1.8,4,2.7c0,1.6-1.3,3.6-2.6,4.6c-5.8,4.1-11.8,7.8-17.8,11.6
		c-0.9,0.6-1.8,1.3-3.6,2.6c2.6,0,4.1-0.2,5.5,0.1c1.3,0.3,3,0.9,3.4,1.8c0.4,0.9-0.2,2.8-1,3.7c-3.1,3.4-6.5,6.5-10.2,10.1
		c1.4,0.4,2.2,0.7,3,0.8c6,1,7.8,3.7,5.5,9.4c-1.9,4.7-4.4,9.3-7.3,13.5c-3.5,5.2-7.7,10-11.5,15c-0.6,0.7-1.4,1.3-1.6,2.2
		c-0.4,1.3-0.6,2.7-0.4,4c0.1,0.4,2.1,0.7,3.1,0.5c7.1-1.4,14.1-2.9,21.1-4.4c1.9-0.4,3.7-1.2,5.6-1.4c1.4-0.1,3.5,0,4.1,0.9
		c0.7,0.9,0.5,3.1-0.1,4.3c-2.9,5-6.1,9.8-9.2,14.7c-1.8,3-3.5,6.1-5.2,9.1c0.3,0.3,0.7,0.7,1,1c1.3-0.5,2.7-0.8,3.9-1.5
		c3.7-2,7.3-4.2,11.1-6.1c0.9-0.5,2.3-0.1,3.4-0.2c-0.3,1.2-0.2,2.6-0.9,3.5c-4.5,6.3-9.6,12.1-13.7,18.7
		c-5.2,8.5-9.7,17.5-14.3,26.4c-0.7,1.3-0.9,2.9-1.5,4.9c2-0.5,3.4-1,4.8-1.3c3.6-0.7,5.5,1,5.2,4.6c-0.3,3.9-0.8,7.8-1.2,12
		c4-1.2,7.4-3.1,11-3.3c5-0.3,3.7,5.3,6.3,8.5c2.5-1.2,5.1-2.4,7.7-3.7c5.9-3.1,7.2-2.7,9.8,3.5c1.4,3.3,2.7,6.7,4,10
		c1.3,3.3,3.4,4.8,7.2,4.2c4.5-0.7,5.8,0.4,6.7,4.8c0.7,3.3,1.1,6.6,1.2,9.9c0,1-1.4,2-2.2,3c-0.3-0.2-0.7-0.3-1-0.5
		c-0.6,7-1.3,13.9-1.9,20.9c0.3,0.2,0.7,0.4,1,0.6c3.1-2.8,6.1-5.6,9.2-8.4c2.2-2,4.4-4,6.7-5.8c2.1-1.6,4-1.6,5.5,0.9
		c1.9,3.2,4.3,3.1,7.2,1.4c3.5-2,7-3.9,10.5-5.7c1.2-0.6,2.8-0.6,4.2-0.9c0.2,0.4,0.3,0.9,0.5,1.3c-0.7,0.6-1.4,1.3-2.2,1.7
		c-3.3,1.8-6.6,3.5-9.9,5.3c-6.8,3.7-7.8,3.6-13.9-2c-5.6,5.1-11.2,10.2-17.6,16.1c14.2-0.8,27.5-1.5,41.1-2.3
		c0-3.3-0.1-6.4,0.1-9.4c0.1-1.1,0.8-2.3,1.5-3.2c0.3-0.3,1.6,0.3,2.4,0.5c-0.3,1-0.6,2-0.9,3c-0.1,0.4-0.3,0.8-0.2,1.1
		c0.6,10.3,2.8,20,10.5,27.8c4.1-2.5,4.3-7,6-10.6c0.7-1.3,1.9-2.4,2.9-3.6c1,1.2,2.5,2.2,2.9,3.6c2.1,7.3,3.9,14.7,5.9,22
		c0.4,1.4,1.2,2.7,2.1,4.8c1.4-2,2.6-3.2,3.2-4.6c2.2-4.8,4.1-9.7,6.3-14.5c0.6-1.4,1.9-2.5,2.8-3.7c1.1,1.3,2.7,2.4,3.2,3.9
		c1.8,5.6,3.3,11.4,4.9,17c0.3,1.2,0.9,2.3,1.2,2.9c2.9-8.9,5.7-17.9,8.8-26.8c1.1-3.2,2.2-7.4,6.4-7.4c4.1,0,5,4.2,6.6,7.2
		c1.1,2,1.8,4.2,3,6.9c1.4-1.5,2.6-2.7,3.8-4c-1-0.8-1.8-1.5-2.6-2.1c0.5-0.7,1-1.7,1.6-1.9c7.2-2.3,8.5-9.1,11.5-14.6
		c0.6-1.1,1.2-2.3,1.7-3.4c0.5,0.2,1.1,0.4,1.6,0.6c-1.3,4.1-2.6,8.1-4.1,12.6c3.8-1.1,7.6-2.3,11.4-3.4c0.2,0.3,0.5,0.5,0.7,0.8
		c-0.9,0.9-1.6,2.2-2.7,2.7c-1.6,0.8-3.4,1.3-5.1,1.8c-5.1,1.5-9.6,3.7-11.9,8.9c-0.4,0.8-1.1,1.5-1.6,2.1c-3.8,4.3-6,3.9-8.2-1.3
		c-1.4-3.5-3.2-6.8-4.9-10.2c-0.4,0-0.9,0.1-1.3,0.1c-0.9,1.6-2,3.2-2.7,4.9c-4.3,9.6-7.1,19.6-8.5,30c-0.1,0.5,0,1.1-0.2,1.5
		c-0.6,1.1-1.4,2.2-2.1,3.3c-0.9-0.9-2.3-1.7-2.6-2.8c-2.2-6.7-4.2-13.5-6.2-20.3c-0.4-1.2-0.7-2.4-1.4-4.5c-2.2,5-3.9,9.3-5.9,13.3
		c-1.5,3-2.4,7.2-6.7,7c-4.6-0.2-4.6-4.7-5.6-7.8c-1.9-6.2-3.4-12.6-5-19c-0.3-0.1-0.7-0.2-1-0.3c-1.8,6.3-3.7,12.6-5.5,19
		c9.2,5.3,17.9,10.5,26.7,15.5c16,9.1,33.9,9.8,51.5,11.9c18.1,2.2,36.2,0.4,54.3-1.1c3.8-0.3,7.7-0.8,11.5-0.9
		c2.2-0.1,2.7-1.1,3.4-3.1c2.6-7.9,5.8-15.6,8.7-23.4c0.1-0.3,0.7-0.5,2-1.5c-0.7,2.9-1.1,4.7-1.5,6.6c5.2-6.5,11.3-12.3,10.7-21.8
		c-0.6-9.5,3-18,8.4-25.5c1.3-1.9,4.2-3.5,6.5-3.7c7-0.7,12.2-5,17.3-8.8c8.8-6.7,16.7-14.5,22.3-24.3c1.3-2.3,1.8-5.4,1.5-8.1
		c-1.8-17.4-3.8-34.7-6-52.1c-0.7-5.2-2.3-10.3-3.8-15.3c-0.7-2.2-0.7-3,1.5-4.5c6-3.9,12.1-9.6,9.7-17.8c-1.2-4.1-4.8-8.8-7.9-9
		c-4.3-0.3-8.2,2.6-9.9,7.5c-1.3,3.6-4,4.3-6.7,1.5c-2.2-2.3-4.2-4.9-5.8-7.6c-1.3-2.2-2.7-3-5.2-2.9c-4.4,0.1-5-0.8-4.8-5.2
		c0.3-4.8,0.4-9.6-3-13.3c-8.1,5.3-16,10.4-24.3,15.8c1.8,1.3,3.4,2.2,4.9,3.5c1,0.8,1.7,2,2.5,3c-1.2,0.7-2.3,1.7-3.5,2
		c-4.6,0.8-9.2,1.3-13.7,1.9c-1,0.1-2,0.2-3.5,0.4c2.5,4.9,5.2,9.4,7.1,14.2c4.1,10.5,8,21.2,11.7,31.8c0.5,1.5-0.1,3.4-0.3,5.1
		c-1.7-0.6-3.6-0.8-5.1-1.7c-2.7-1.6-5.2-3.6-8.7-6.1c0,9.6,0.2,18.3-0.1,26.9c-0.3,9.3-1,18.5-1.7,27.7c-0.1,1.1-0.8,2.8-1.6,3
		c-0.9,0.2-2.3-0.7-3.2-1.5c-2.1-1.9-3.9-4-5.8-5.9c-3.3,0.7-2.6,3-2.5,5c0.5,16.5,1,32.9,1.5,49.4c0,0.9,0.2,1.8-0.1,2.7
		c-0.3,1.3-0.9,2.5-1.3,3.7c-1.3-0.7-3-1-3.7-2.1c-2.3-3.1-4.3-6.4-6.3-9.7c-0.9-1.4-1.6-2.8-2.5-4.5c-2.5,2.5,2.2,8.7-5,8.1
		c-0.5,7.2-1,14.4-1.5,21.6c-0.3,4.9-0.6,9.8-1.1,14.6c-0.1,1.2-0.9,3.1-1.8,3.3c-1,0.3-2.9-0.6-3.5-1.6c-3-4.8-5.9-9.7-8.5-14.6
		c-2-3.7-3.7-7.7-5.3-11.6c-0.3-0.8,0.1-2,0.3-3c0.8,0.6,2,1,2.4,1.9c3.4,6.8,6.7,13.6,10.1,20.4c0.7,1.4,1.5,2.6,3.2,3.9
		c0.5-5.5,1.1-11,1.5-16.5c0.4-5.3,0.5-10.5,1-15.8c0.3-2.7,0-5.8,3.5-7.1c0.6-0.2,0.6-2.2,1-3.3c0.6-1.7,1.3-3.3,1.9-5
		c1.5,1.1,3.5,2,4.6,3.5c2.3,3.4,4.2,7.1,6.3,10.6c0.3,0.5,0.8,0.9,1.7,1.9c0-5.3,0.1-10,0-14.7c-0.4-13-1-26-1.1-39
		c0-2.7,1.4-5.5,2.3-8.2c0-0.1,2.5,0.2,3.1,0.9c2.4,2.5,4.5,5.2,7.3,8.6c0.4-2.4,0.8-3.7,0.8-5.1c0.7-11.2,1.4-22.3,1.9-33.5
		c0.2-5-0.4-10-0.5-15c0-1.4,0.5-2.9,0.8-4.3c1.3,0.6,2.8,1,4,1.8c2.9,1.9,5.6,4,9.4,6.8c-0.6-2.4-0.9-3.9-1.4-5.2
		c-4-10.4-8.1-20.9-12.3-31.2c-1.3-3.1-3.4-5.8-4.9-8.7c-1.7-3.5-0.7-5.4,3.3-5.8c4.7-0.5,9.4-0.8,14.1-1.2c0.1-0.4,0.2-0.8,0.3-1.2
		c-3.7-2.5-7.7-4.7-11.1-7.5c-9.3-7.9-18.5-15.9-27.3-24.3c-4.5-4.2-4.2-7.3-0.6-12.3c1.4-2,3.1-3.8,4.8-5.6c0.6-0.6,1.7-0.7,2.6-1
		c-0.2,1,0,2.2-0.5,3c-1.3,1.9-3,3.5-4.4,5.4c-2.2,2.9-2.7,5.7,0.3,8.5c4,3.8,7.9,7.6,12,11.7c11.4-7.8,22.4-15.3,33.5-22.9
		c8.6-5.9,12.7-5.2,18.6,3.6c0.8,1.1,1,2.6,1.5,3.9c-0.3,0.2-0.6,0.5-0.9,0.7c-0.7-0.5-1.6-0.9-2.2-1.5c-0.5-0.4-0.7-1.1-1.1-1.6
		c-5.8-7.6-6.6-7.7-14.4-2.3c-9.9,6.8-19.8,13.5-29.7,20.2c-0.9,0.6-1.8,1.3-3.4,2.6c5.7,4.1,11,8,16.3,11.7
		c0.7,0.4,2.3,0.1,3.1-0.4c9.6-6.7,19.2-13.3,28.5-20.4c2-1.5,2.4-4.9,3.9-8.1c3,5.6,5.9,11.6,9.3,17.3c3.5,5.9,7.5,11.6,11.4,17.7
		c0.2-0.1,1.2-0.4,2.1-0.8c7.9-3.7,14.4,2,15.8,7.6c2.7,10.4,2.6,12.5-7.8,22c-1.9,1.8-2.1,3-1.6,5.5c2.6,14.5,5,29.1,7.1,43.7
		c0.9,6.4,0.8,12.9,1.8,19.2c1.1,7.3-1.5,13.1-6,18.4c-8.7,10.4-18.3,19.9-30.5,26.2c-1,0.5-2.1,1.1-3.2,1.1
		c-5.8,0.2-9.1,3.5-11.2,8.8c57.9,3.5,115.3-4,173.4-4.3c0-3,0.1-5.7,0-8.4c-0.2-3,1.2-4.1,4-4.4c3.2-0.3,6.4-0.8,9.5-1.3
		c0.8-0.2,1.9-0.8,2.3-1.5c3.6-6.6,6.5-13.7,10.8-19.9c10.3-14.6,20.3-29.4,29.5-44.7c7.8-13,16.9-25.2,25.4-37.8
		c4.9-7.3,9.9-14.5,14.2-22c4.1-7,7.4-14.5,11-21.7c0.4-0.8,0.8-1.7,1.4-2.3c0.5-0.4,1.4-0.4,2.1-0.3c0.2,0,0.5,1.2,0.3,1.7
		c-2.7,5.5-5.3,11-8.3,16.4c-3.7,6.4-7.6,12.7-11.6,18.9c-10.7,16.5-21.6,32.9-32.4,49.3c-11.8,18-23.7,36.1-35.4,54.2
		c-1.6,2.5-2.8,5.4-4.4,8.5c1.3,0.3,2,0.5,2.7,0.5c20.5-1.7,40.6,0.8,60.5,5.3c6.5,1.5,12.9,3.3,19.3,5c1,0.3,2,0.8,2.7,1.5
		c0.6,0.6,0.8,1.6,1.1,2.4c-0.8,0.1-1.8,0.4-2.4,0.1c-17.7-7.5-36.4-9.5-55.2-11c-7.9-0.6-15.9-0.8-23.9-0.5
		c-6.5,0.3-13,1.6-19.9,2.5c0,3.1-0.1,6.2,0,9.2c0.2,4.8-0.2,5.4-5,5.5c-1.3,0-2.6,0-4.2,0c0,2.9,0,5.8,0,8.7c0,2.8-1,5.1-3.6,6.3
		c-5.9,2.9-10.1,7.7-14.7,12.3c-5.6,5.6-11.9,10.6-18,15.8c-7.2,6.2-14.7,12.1-21.4,18.7c-3.6,3.5-6.2,8.2-8.7,12.6
		c-3.4,6.2-6.2,12.7-9.4,19c-0.5,1-1.3,1.9-2,2.9c-0.5-0.2-1-0.4-1.5-0.6c0.5-1.6,0.8-3.3,1.5-4.8c3.5-7.4,7.1-14.8,11.1-22.8
		c-3,0.4-5.1,0.6-7.2,1.1c-13.5,3.3-27,6.5-40.4,10c-4.3,1.1-8.3,3.5-12.6,4.4c-26.4,5.5-50.8,16.5-75.3,27
		c-9.8,4.2-19.3,8.9-29,13.2c-4.6,2-9.2,3.8-13.9,5.6c-0.5,0.2-1.6,0.1-1.7-0.1c-0.2-0.6-0.4-1.8,0-2c1.3-0.9,2.8-1.7,4.3-2.4
		c7.9-3.4,15.7-6.7,23.6-10c-0.1-0.6-0.2-1.1-0.3-1.7c-7.6,0-15.3-0.1-22.9,0c-28.1,0.4-54.5-6.9-79.8-18.4
		c-16.3-7.4-32.9-13.8-49.8-19.5c-3-1-6.3-0.8-9.4-1.4c-2.6-0.5-5-1.7-7.6-2.3c-3.1-0.8-5.9-1.4-9.1,1c-3.6,2.7-8.8,3.4-12.3,6.2
		c-6,4.7-11.7,10-16.7,15.8c-9.9,11.5-20.3,22.7-28.5,35.4c-9.3,14.4-17.3,29.9-24.4,45.5c-9.7,21.5-18.4,43.6-27,65.6
		c-5.7,14.6-10.5,29.6-15.5,44.4c-1.1,3.4-1.5,7-2.5,10.5c-0.3,1-1.6,1.7-2.4,2.6c-0.5-0.3-0.9-0.6-1.4-0.9c2.4-8.9,4.3-18,7.4-26.6
		c15.9-44.7,32.4-89.3,55.6-130.9c5.5-9.8,12.6-18.8,19.6-27.6c8-10,16.6-19.6,25.1-29.2c5.4-6.1,12.2-10.2,20.8-11.9
		c0.4-2.9,0.8-5.9,1.3-9.6c-6.2,0.4-11.7,0.9-17.1,1.2c-10.8,0.5-21.6,1-32.4,1.2c-1.7,0-3.9-0.9-5-2.1c-3.8-4.3-6.9-9-7-15.1
		c-0.1-10.8-0.3-21.6-0.5-32.4c0-0.4,0.3-0.9,0.8-2c0.7,1,1.5,1.5,1.6,2.2c0.4,2.1,0.6,4.3,0.7,6.5c0.1,8.1,0.3,16.2,0,24.3
		c-0.2,6,2.6,10.4,6.2,14.5c1,1.1,3.2,1.8,4.8,1.8c11.7-0.4,23.4-1.1,35.1-1.7c2.8-0.1,5.7-0.7,8.5-0.5c5.8,0.4,10-2.4,13.6-6.5
		c7.1-8,15.9-13.8,25-19.2c5.9-3.5,12.3-2.9,18.8-0.5c1.4-2.3,2.7-3.8-1.1-6c-5.6-3.3-8.1-9.6-9.9-15.6c-1-3.4-2.6-4.1-5.7-3.9
		c-21.8,1.2-43.7,2.4-65.5,3.4c-9.6,0.4-19.3,0.3-28.9,0.4c-1,0-2-0.5-2.9-1.5c6.1-1.7,12.2-1,18.3-1.2c6.4-0.2,12.9-0.2,19.3-0.5
		c6.3-0.3,12.6-0.8,18-1.2c0.6-8.1,1.2-15.8,1.7-23.5c0.2-3.7,0.2-7.4,0.3-11.1c0-0.7,0.3-1.4,0.5-2.1c0.3-0.7,0.7-1.4,1-2
		c-0.9-0.3-1.7-1-2.6-1c-6.9,0.3-8.4-0.6-11.1-6.9c-1.7-4.1-3.4-8.3-5.3-13c-3.2,1.6-6,3.1-8.9,4.4c-5.2,2.4-7.1,1.6-8.6-3.9
		c-0.8-3-2.2-3.8-4.9-2.5c-1.6,0.8-3.2,1.6-4.9,2.3c-4,1.7-6.3,0.2-6-4.2c0.2-2.7,0.8-5.3,1.1-8c0.1-1.2,0-2.5,0-4.5
		c-2.2,0.8-3.9,1.6-5.7,2.1c-1.3,0.4-2.6,0.4-3.9,0.7c-0.1-1.3-0.6-2.7-0.3-4c2.7-11,7.8-20.9,14.2-30.2c4.1-5.9,8.5-11.6,12.3-17.9
		c-2.4,1.4-4.6,3.1-7.2,4.1c-2.1,0.7-5,1.3-6.6,0.4c-2.6-1.6-1.6-4.7-0.2-6.9c3.3-5.4,6.8-10.6,10.1-15.9c1.1-1.8,2.1-3.7,3.4-6
		c-11,2.3-21.2,4.5-31.5,6.7c-3.3,46.8,6.1,93,9.4,139.6c-0.4,0.1-0.8,0.3-1.1,0.4c-0.6-1.5-1.6-2.9-1.8-4.4
		c-0.8-7.5-1.1-15.1-1.9-22.7c-1.6-14.2-3.8-28.3-5-42.5c-1.2-14.2-1.7-28.5-2.3-42.8c-0.4-8.5,0-17-0.6-25.5
		c-1.2-15.3,0.1-30.6-0.7-45.9c-0.8-15.3-0.5-30.6-1.1-45.9c-1.6-38.8-2.8-77.7-5.4-116.4c-2.1-31.9-6.1-63.7-9-95.6
		c-2.2-24.6-4.1-49.2-5.7-73.9c-2.2-35.7-4.3-71.4-5.7-107.1c-0.7-16.8,0.2-33.7,0.8-50.6c0.3-9,1.7-17.9,2.7-26.8
		c0.1-1.2,0.6-2.3,1-3.4C138.6,47.2,139.1,47.3,139.5,47.3z M478.7,834.1c-1.6-1.9-3.3-3.3-4.4-5.1c-4.4-7.8-11.3-12.9-18.7-17.5
		c-2-1.2-4.5-2.5-6.7-2.3c-10.5,0.6-21,1.6-31.5,2.5c-7.4,0.6-14.8,1.8-22.2,2c-6.1,0.2-12.3-0.3-18.4-0.9c-14-1.5-28.2-2.5-42-5.2
		c-8.9-1.7-18.2-2.9-25.8-9.8c-5.5-5-12.8-8-19.4-11.7c-1.5-0.9-3.7-0.8-4.9-1.9c-5-4.9-10.8-3.6-15.6-1
		c-9.1,4.8-17.6,10.7-24.6,18.5c-2.2,2.5-4.7,4.7-7,7c-0.7,0.8-2,2.1-1.9,2.4c0.7,1.1,1.8,2.3,2.9,2.6c6.6,1.8,13.4,3.1,19.8,5.2
		c11.7,3.8,23.3,7.9,34.8,12.4c10.9,4.2,21.5,9,32.3,13.4c3.4,1.4,7.1,1.8,10.7,2.9c6.6,2,13,5.4,19.7,6.2c16.2,1.9,32.5,3,48.8,3.8
		c10.7,0.5,21-1.5,31.1-6c13.5-6.1,27.4-11,41.2-16.5C477.4,834.8,477.9,834.5,478.7,834.1z M443,795.5c2.2,0.1,3.4,0.2,4.5,0.2
		c45-0.5,90.1-1.1,135.1-1.7c1.3,0,3-0.3,3.9-1.1c8.4-7,16.9-13.9,24.8-21.5c4.6-4.3,8.6-9.2,14.3-12.1c1.2-0.6,2.4-2.4,2.6-3.8
		c0.4-3.5,0.1-7.1,0.1-11.3c-13.4,0.5-26,0.8-38.6,1.4c-24.7,1.1-49.3,2.7-74,3.5c-14.7,0.5-29.3,0-44,0c-11.7,0-12.4,0-12.4,12.1
		c0,9.8-3.8,17.6-9.6,24.9C447.6,788.8,445.6,791.8,443,795.5z M439.2,806.7c3.8-0.2,7.3-0.5,10.9-0.7c1.1,0,2.5-0.2,3.3,0.4
		c4.1,2.6,8.5,5,12,8.4c5.3,5.1,10,10.9,15.1,16.3c0.9,0.9,2.9,1.6,4.1,1.3c7.1-1.8,14-4.2,21.1-6c18.3-4.8,36.6-9.4,54.9-14
		c3.6-0.9,7.6-0.9,9.4-5.2c0.5-1.2,2.3-1.9,3.5-2.9c2.7-2.2,5.4-4.4,8.1-6.5c-0.2-0.3-0.3-0.7-0.5-1c-1.5,0-3,0-4.5,0
		c-15.4,0.4-30.9,1-46.3,1.2c-28.3,0.3-56.6,0.5-85,0.5c-3.8,0-5.5,1.3-5.6,5C439.8,804.4,439.5,805.4,439.2,806.7z M491.5,602.8
		c3.3-5.6,2-10.1-0.8-14.4c-4.5-6.9-9.1-13.7-13.7-20.6c-1.5,1.3-3.2,2.7-4.9,4.2C477.2,583.1,483.9,593,491.5,602.8z"/>
	<path fill="#020202" d="M524.8,1029c0.1-1.1,0-2.4,0.4-3.4c6.6-15.2,17.2-27.4,28.7-38.8c1.3-1.3,4-1.2,5.9-2
		c12.4-5.7,24.7-11.4,37.1-17.1c14.1-6.5,28.4-12.8,42.4-19.6c6.8-3.3,13-7.7,19.6-11.4c5.4-3,10.7-7.2,16.4-8.1
		c8.9-1.4,12.8-8.5,18.8-13.1c13.8-10.6,22.9-25.5,33.5-39.1c13.3-17.2,24.5-36,40.1-51.3c5.8-5.6,12.3-10.5,18.6-15.5
		c4.4-3.4,6.1-7.5,6.6-13.1c0.5-5.7,3.1-11.2,5.2-16.6c2.1-5.5,4.9-10.7,7.2-16.1c3-7.3,5.4-14.7,8.5-21.9
		c2.9-6.8,6.4-13.4,9.6-20.1c9-18.9,18.3-37.7,28.8-55.9c4.3-7.5,7.3-15.9,10.5-24c5.8-14.5,12.4-28.5,20.7-41.7
		c3.7-5.9,1.1-11.6-5.6-13.1c-1.5-0.3-3-0.8-4.4-1.4c-14-5.3-28.8-4.4-43.3-6.1c-15-1.8-30.2-2.7-45.2-3.8c-2-0.2-4.2,0.6-6.8,1
		c-1.3-0.3-3.4-1-5.4-1c-6.6,0-13.1,0.4-19.7,0.5c-1.4,0-2.8-0.3-4.2-1.2c8.8-3.5,18.1-2.2,27.2-2.4c-0.5-12.2-1.1-23.9,2.3-35.3
		c0.5,0,1-0.1,1.5-0.1c0.1,1.4,0.6,2.9,0.3,4.2c-2.6,9-1.8,18.1-1.2,27.2c0.2,2.7,1,3.7,3.9,3.9c18.6,1.3,37.1,2.8,55.7,4.4
		c8.7,0.7,17.5,1.3,26,2.8c6.3,1.1,12.4,3.4,18.3,5.6c4.7,1.8,6.6,10,3.9,15.2c-1.6,3.1-3.8,5.9-5.3,9c-6.5,14-12.7,28.1-19.4,42
		c-5.5,11.3-11.4,22.4-17.2,33.6c-2.3,4.5-4.9,8.8-7,13.3c-6.2,13-12.2,26.1-18.3,39.2c-0.3,0.7-0.5,1.4-0.9,2.4
		c79.6,2.3,158.9-2,238.2-1.9c0.1-0.4,0.1-0.7,0.2-1.1c-4.4-1.6-8.8-3.2-13.3-4.8c-2.8-1-5.7-1.8-8.2-3.2c-1.5-0.8-3.2-2.7-3.2-4.2
		c0-1.5,1.4-3.7,2.8-4.5c3.5-1.8,7.3-3.1,11.1-4.5c9-3.2,17.9-6.4,26.9-9.5c1.4-0.5,2.9-0.6,4.4-0.8c0.1,0.5,0.3,0.9,0.4,1.4
		c-0.9,0.5-1.7,1.1-2.6,1.4c-11.7,4.2-23.5,8.3-35.2,12.6c-2,0.7-3.6,2.5-5.4,3.8c1.8,1.1,3.4,2.6,5.3,3.4c7.9,3.1,15.8,6.3,23.8,9
		c2.9,1,6.2,0.8,10.3,1.3c-1.1-2.4-1.7-3.9-2.4-5.3c-3.4-8-1.3-18.2,4.8-23c2.5-2,3.3-2,5.3,0.1c-9.5,6-11.6,14.5-6.3,24.6
		c1.2,2.3,2.7,3.3,5.4,3.3c19.4,0,38.9,0.2,58.3,0.3c30,0.3,60,0.5,89.9,0.9c20.5,0.3,40.9,1.5,61.4,1.3c27-0.2,54-1.4,81-2.2
		c1.4,0,2.9,0.1,4.3,0.2c0.1,0.5,0.1,0.9,0.2,1.4c-1.3,0.3-2.5,0.7-3.8,0.7c-13.4,0.3-26.8,0.4-40.1,0.7c-23,0.5-46,1.6-69,1.5
		c-36.9-0.1-73.9-0.9-110.8-1.4c-24.8-0.3-49.7-0.6-74.5-0.8c-1.6,0-3.8-0.9-4.3,1.9c0,0.2-1.8,0.3-2.7,0.1c-5.3-0.7-10.6-2-15.9-2
		c-36,0.3-72.1,1.1-108.1,1.4c-41.7,0.4-83.4,0.6-125.1,0.7c-3.7,0-5.4,1.2-6.7,4.6c-3,7.8-6.5,15.4-9.7,23.1
		c-2.3,5.5-4.4,11.1-6.5,16.7c-0.5,1.4-0.7,2.9-1.2,4.9c5.9,0.3,11.4,0.6,16.8,0.8c29.8,1.1,59.7,2.9,89.5,3
		c31.1,0.1,62.3-0.9,93.4-2.2c23.4-1,46.7-3,70-5.2c25.5-2.4,50.9-1.1,76.4-1c25.5,0,51-0.7,76.4-1.1c32-0.5,64.1-0.9,96.1-1.6
		c21-0.5,41.9-1.5,62.9-2.3c2.1-0.1,4.2-0.8,5.7-1.1c-1.2-5.4-2.5-10.3-3.3-15.3c-0.8-4.7-2.3-8.9-5.7-12.3c-0.8-0.8-1.3-1.9-2-2.9
		c0.3-0.3,0.5-0.6,0.8-0.9c1.3,0.7,2.6,1.4,4.3,2.4c0.2-4.1,0.4-8.1,0.5-12.1c0.4,0,0.9-0.1,1.3-0.1c0.4,0.8,0.9,1.6,1,2.5
		c0.2,1.9,0.2,3.9,0,5.8c-0.4,5.3,1.1,9.9,3.7,14.6c7.5,13.3,9.1,27.7,7,42.6c-2.1,15-8.1,28.6-15.8,41.5c-0.6,1-1.6,1.7-2.4,2.6
		c-0.3-0.2-0.7-0.4-1-0.6c0.4-1.1,0.5-2.3,1.1-3.2c8-13.7,14.3-28,15.8-43.9c0.6-6.6,0.1-13.3-0.4-20.1c-5.5,3.5-11.1,3.5-16.7,3.6
		c-54.4,1.3-108.8,2.8-163.2,3.8c-30.1,0.6-60.2,0.4-90.3,0.4c-17.9,0-35.7-0.2-53.6,1.7c-15.5,1.6-31.2,0.8-46.6,2.8
		c-34.1,4.5-68.3,4-102.5,4.4c-16.4,0.2-32.9-1.1-49.4-1.7c-14.1-0.5-28.3-0.9-42.4-1.3c-8.2-0.2-16.5-0.5-24.7-0.5
		c-1.1,0-3,1.2-3.2,2.1c-1.9,9.9-9.3,15.3-16.7,20.8c-3.2,2.4-5.6,5.8-8.5,8.6c-1.6,1.5-3.9,2.3-5.2,3.9c-7.3,9-14.5,18-21.6,27.2
		c-13,16.9-26,33.9-38.6,51.1c-3.1,4.2-7.1,7-11.1,9.8c-6.5,4.7-11.3,11.8-19.3,14.4c-3.5,1.2-7.2,1.9-10.5,3.5
		c-6,2.9-11.8,6.3-17.6,9.5c-6.4,3.5-12.7,7.4-19.3,10.4c-19.1,8.8-38.1,17.6-57.4,25.6c-19.9,8.2-32.4,23.3-41.8,41.7
		c-1,2-2.1,3.9-3.1,5.9C525.9,1029.4,525.3,1029.2,524.8,1029z M1386,769.5c-0.5,0.2-1,0.4-1.6,0.6c1.1,3,2.2,6.1,3.2,9.1
		c0.4-0.2,0.9-0.3,1.3-0.5C1388,775.6,1387,772.6,1386,769.5z"/>
	<path fill="#020202" d="M781.6,528.1c1.4-3.2,2.8-6.4,4-9.3c-1.8-1.5-4.8-2.7-5.1-4.4c-0.9-4.9-1.7-10,1.3-14.6
		c0.7-1.1,1.4-2.1,2.1-3.1c-0.3-0.3-0.5-0.6-0.7-0.6c-20.9-0.1-41.8,1-62.5,4c-22.5,3.3-45.2,5.3-67.8,8c-24,2.9-48,5.8-71.9,9.1
		c-15.3,2.1-30.4,5.1-45.6,7.5c-12.1,1.9-24.1,3.7-36.2,5.2c-4,0.5-5.8,1.9-5.3,6c0.3,2,0.3,4.1,0.3,6.1c0,0.6-0.5,1.3-0.8,1.9
		c-0.7-0.4-2-0.8-2-1.3c-0.1-4.2-0.3-8.4,0.2-12.6c0.1-1,2.4-2.1,3.9-2.6c2.8-0.8,5.8-1.2,8.7-1.6c23.6-3.7,47.1-7.9,70.8-11.1
		c30.1-4,60.2-7.2,90.4-10.8c14.4-1.7,28.8-4,43.2-5.6c18.9-2.1,37.8-3.9,56.8-5.6c3.8-0.3,7.7,0.1,11.5,0.5
		c7.9,0.9,14.4-3.7,21.7-5.3c2.4-0.5,4.8-1,7.1-1.8c1.5-0.5,3-1.4,4.1-2.5c4.1-4.3,8.3-8.4,12-13.1c5.1-6.6,12.3-9.3,20.4-11.8
		c-2.5-14.7-4.9-29.4-7.4-44.1c-0.5,0-1,0-1.6,0c-1.1,4.8-2.2,9.6-3.1,14.4c-1.2,6-9.6,9.2-14.3,5.2c-5.5-4.8-10.8-9.9-16.2-14.9
		c-0.6-0.6-1.3-1.1-2.7-2.3c0.4,8,1,15.3,1.1,22.5c0.1,8.7,0.4,17.5-0.4,26.2c-0.5,5.8-1.8,6-7.6,6.8c-4.2,0.6-8.4,1.5-12.4,2.6
		c-3,0.9-3.9,0.2-3.9-2.9c0-21.2-0.1-42.4-0.2-63.6c0-12.6,0-25.2,0.1-37.8c0-2.2,0.3-4.4,0.8-6.5c0.3-1.1,1.2-2.1,2.6-3
		c-3.9,36.8,2.1,73.3-0.2,110.2c5.5-0.8,10.7-1.5,15.8-2.4c0.7-0.1,1.6-1.4,1.8-2.2c0.5-3,1.1-6.1,1-9.1
		c-0.3-13.9-0.8-27.8-1.1-41.7c0-1.3,0.7-2.5,1.1-3.8c1.3,0.7,2.7,1.1,3.7,2.1c6.2,5.8,12.3,11.7,18.6,17.4c2.8,2.6,8.8,0.6,9.5-3.1
		c1.8-9.7,3.3-19.4,5.1-29.1c0.2-0.9,1.1-1.7,1.6-2.5c0.6,0.8,1.6,1.7,1.7,2.6c1.1,11.6,3.1,22.9,6.4,34c1.7,5.7,1.1,12,1.5,18
		c0.5,6.4,0.9,6.8,7.2,5.8c2-0.3,4.1-0.3,6.1-0.5c4.4-0.4,5.3-1.4,4.7-6c-0.8-6.4-1.7-12.7-3-19c-3.7-18.2-4.8-37-10.6-54.8
		c-2.4-7.5-5-14.9-7.5-22.3c-0.6-1.9-1.5-4-1.4-6c0.1-4.5-2.2-4.8-5.8-4.5c-7,0.6-7,0.4-8.5,7.5c-3.2,15-5.5,30.1-4.6,45.5
		c0.1,1.2-0.8,2.4-1.2,3.6c-1.1-0.7-2.6-1.2-3.2-2.3c-8.5-13.5-16.9-27-25.2-40.6c-1.1-1.8-1.7-3.9-2.5-5.9
		c-2.3,1.1-4.4,2.3-6.6,3.1c-0.8,0.3-1.9-0.5-2.9-0.7c0.6-0.7,1.2-1.4,1.9-1.9c1.6-1.1,3.3-1.9,4.9-3c2.7-1.9,4.8-1.4,6,1.7
		c4.1,10.4,9.6,20.1,16.4,29c3.2,4.1,5.8,8.7,9.1,13.9c0.2-3.3,0.5-5.8,0.4-8.3c-0.7-13.1,3-25.5,5.4-38.1c1.1-6,2.2-6.4,8.5-6.7
		c9.2-0.3,8.8-0.2,11.2,8.5c2.5,8.9,6.1,17.5,8.6,26.4c3.8,13.3,6.6,26.9,8,40.8c1.1,10.7,3.6,21.3,5.4,31.9c0.3,1.6,0.2,3.3,0.1,5
		c-0.2,4.2-1.5,5.4-5.7,5.7c-2.8,0.2-5.6,0.5-8.2,0.8c2.6,2.2,5.1,4.3,7.7,6.4c-0.4,0.5-0.8,0.9-1.2,1.4c2.3-2,4.5-4.2,7-5.8
		c1.7-1.1,4.1-1.3,6.2-1.5c0.6-0.1,1.3,0.8,2,1.3c-0.6,0.5-1.2,1.4-1.9,1.4c-4.4,0-7.1,2.7-9.6,5.7c-3.7,4.5-2.4,9.3,3.1,10.8
		c4.5,1.2,9.4,1.7,14.1,1.7c5.6,0,11.3-0.9,16.9-1.4c9.9-0.9,15.5,7.7,15.7,15.1c0.2,7.9-8.8,15-16.9,13.7c-7.9-1.2-14.9,1-21.9,4.4
		c-2.9,1.4-6.4,1.6-9.3,3c-7.5,3.7-15,7.6-22.3,11.6c-2.8,1.5-4,0.9-4.6-2.1c-0.1-0.5-0.2-1.1-0.5-1.5c-5-6-2.3-11.6,1.1-17
		c2.5-4,5.7-7.5,8.2-11.5c3.5-5.4,8.7-9.9,9.8-16.8c0.7-4.6,1.3-9.1-2.2-12.8c-4.2-4.5-9.7-4.3-14.7-2.7c-3.9,1.2-8,3.4-10.7,6.4
		c-10.9,12-21.4,24.3-31.8,36.7c-1.6,1.9-1.9,4.9-3.2,7.2c-2.6,4.9-5.5,9.6-8.2,14.4C782.6,528.6,782.1,528.4,781.6,528.1z
		 M838.7,511.3c15.5-1.8,30.9-3.6,45.6-5.3c-0.6-3.7-1.8-7.1-1.4-10.2c0.4-3.2,2.5-6.3,3.9-9.4c-10.6-1.7-20.9,0.5-31.3,2.2
		c-1,0.2-2.5,1.1-2.6,1.9c-0.5,2.4-2,3.4-4,4c-0.8,0.3-1.7,0.9-2.1,1.6C844.1,501,841.5,505.9,838.7,511.3z M886.4,498.3
		c0.2,2.8,1.2,5.6,4.4,6.6c3.3,1,6.8,0.3,8.5-2.9c1.8-3.3,2.8-7.1,3.9-10.7c0.7-2.2-0.7-3.5-2.8-4.3
		C893.4,484.6,886.3,490.1,886.4,498.3z M803.6,490.7c-0.2-0.2-0.3-0.5-0.5-0.7c-2.2,0.6-4.3,1.4-6.5,1.9
		c-9.3,2.4-14.5,9.8-13.6,19.3c0.1,1.1,1.2,2.2,1.8,3.3c1-0.7,2.3-1.3,3-2.3c2.9-3.9,5.5-7.9,8.4-11.9
		C798.6,497.1,801.1,493.9,803.6,490.7z M839.3,524c5.7-3.1,11.1-6.1,16.4-9c-4.3-0.1-8.3,0.5-12.3,1.1
		C837.5,516.9,837.2,517.4,839.3,524z M863.3,484.1c-2.3-1.5-4.2-2.7-6.3-4c-0.7,1.7-1.4,3.3-2.4,5.6
		C857.9,485.1,860.4,484.6,863.3,484.1z"/>
	<path fill="#020202" d="M436.1,222.3c0.8-4.1,1.6-7.2,2-10.3c1.3-11.6,2.4-23.2,3.7-34.9c0.1-1.1,1-2.1,1.6-3.1
		c0.8,0.8,2,1.4,2.3,2.3c6.1,16.4,12.8,32.6,14.5,50.2c0.4,3.9,1.3,7.9,2.3,11.7c1.4,6,3.1,11.9,4.7,18c4.4-0.9,9.2-1.8,14.7-2.9
		c-14.5-38.3-15.4-78.9-22.6-118.8c-7.3,0.6-14.3,1-21.3,1.9c-0.9,0.1-2.1,2.7-2.2,4.2c-0.5,8.1-0.8,16.2-1.1,24.3
		c-0.3,9.8-0.4,19.5-0.7,29.3c0,1.1-0.8,2.3-1.3,3.4c-1.2-0.6-2.7-0.9-3.5-1.8c-6.4-6.8-11.9-14.2-15.4-22.9
		c-3.2-7.8-7.3-15-13.5-20.9c-2.2-2.1-3.8-4.8-5.8-7.3c-3.4,1-6.8,2.1-10.3,2.8c-1.1,0.2-2.4-0.6-3.7-1c1.1-0.6,2.1-1.5,3.2-1.9
		c2.9-1,5.9-1.7,8.8-2.7c2.5-0.9,4.1-0.3,5.5,2c1.2,2,2.4,4.1,4,5.6c7.8,7.2,11.7,16.7,16.4,25.9c3.1,6.1,7.3,11.7,11,17.5
		c0.6-0.2,1.2-0.3,1.9-0.5c0-5.4-0.1-10.8,0-16.2c0.4-11.8,0.9-23.6,1.4-35.5c0.3-6.1,1.3-7.1,7.2-7.5c5.6-0.4,11.3-0.9,16.9-1.5
		c3.3-0.4,5.1,0.8,5.6,4.2c1.7,12.9,3.3,25.7,5.4,38.5c3.3,19.9,7,39.7,10.9,59.5c1.1,5.6,3.5,11,5.2,16.6c1.4,4.6,0.4,5.9-4.4,6.8
		c-3.8,0.7-7.5,1.6-11.2,2.5c-2.3,0.6-4.2,0.4-4.8-2.3c-2.1-9.9-5.1-19.7-6.1-29.7c-1.6-15.1-7.2-28.9-11.6-43.1
		c-0.1-0.3-0.5-0.6-0.8-0.9c-1.4,10.3-2.7,20.4-4.1,30.5c-0.4,3.2-1,6.4-1.8,9.5c-0.3,1.1-1.2,2.6-2.1,2.8c-0.8,0.2-2.3-0.8-3-1.7
		c-6.1-8-12.1-16-18.1-24c-1.4-1.8-2.9-3.5-5.1-4.9c1.3,11.8,2.5,23.6,4.1,35.3c1.2,8.5,3.2,16.9,4.4,25.4c0.7,5.3-0.2,5.9-5.2,7.1
		c-2.3,0.6-4.6,1.5-6.8,2.6c-2.9,1.4-4.6,0.7-5.6-2.4c-3.5-10.9-7.6-21.6-10.5-32.7c-5.6-21.3-10.6-42.7-15.6-64.1
		c-1.1-4.7-1-9.7-1.2-14.5c0-0.7,1.1-1.4,1.6-2.1c0.4,0.7,1.2,1.4,1.2,2.1c-0.5,11.7,3.3,22.6,5.9,33.7c5.7,25.1,11.9,50,20.7,74.2
		c0.4,1,0.8,1.9,1.2,2.8c3.5-1.1,7-1.9,10.3-3.2c0.8-0.3,1.5-2.1,1.3-3.1c-0.4-3.8-1.2-7.6-1.8-11.4c-2-13.3-3.8-26.7-5.8-40
		c-0.8-5.2-1.7-10.4-2.4-15.6c-0.1-1,0.2-2.1,0.3-3.1c1,0.5,2.4,0.8,3,1.6c7.1,9.2,14,18.5,21,27.7
		C432.1,217.8,433.8,219.7,436.1,222.3z"/>
	<path fill="#020202" d="M1385.7,717.4c-0.4-1.7-1.2-3.4-1.2-5.1c-0.3-25.6-0.4-51.2-0.8-76.8c-0.6-37.8-2.1-75.7-2-113.5
		c0.1-58,1.8-116.1,1.8-174.1c0.1-55-1.3-109.9-1.5-164.9c-0.2-33.8,0.3-67.7,1.1-101.5c0.5-19.8,3.5-39.4,7.2-58.9
		c0.9-4.8,1.6-9.6,2.6-14.4c0.3-1.5,1.5-2.8,2.3-4.1c0.5,0.2,0.9,0.5,1.4,0.7c-0.5,1.7-1.2,3.4-1.5,5.1c-2.6,16.2-6.1,32.4-7.5,48.8
		c-5.2,60.6-3.4,121.4-2.6,182.1c0.8,57.9,1,115.8,0.1,173.7c-0.8,52.5-0.9,105-0.6,157.5c0.3,46.6,1.6,93.2,2.5,139.7
		c0,1.7,0.3,3.5,0.5,5.2C1386.8,717.1,1386.3,717.3,1385.7,717.4z"/>
	<path fill="#020202" d="M982.7,407.9c7.1-0.3,13.4-0.5,19.7-1c3.9-0.3,5.9,1.1,7.2,4.7c3.1,8.8,1.7,15.7-4.4,20.2
		c-7,5.2-16.1,5.2-22.8-0.6c-12.7-10.8-18.7-28.8-8.4-45.8c4.5-7.3,9.9-13.3,18.7-15.7c9.9-2.7,19.5-6.5,29.4-9
		c5.3-1.4,6.3-4.3,4.6-10.4c-0.3-0.9-0.1-2-0.1-3c1,0.6,2.4,1,2.9,1.9c3.3,5.5,0.6,11.9-5.4,13.8c-11,3.5-22.1,6.8-33,10.6
		c-13.4,4.6-22.9,24.6-18.1,38c2.5,7.1,5.9,13.7,12.4,18.2c6.5,4.5,16.4,2.8,21-3.6c2.4-3.4,2.1-12.6-0.8-15.4
		c-0.7-0.7-2.3-0.8-3.5-0.8c-5.7,0.2-11.3,0.5-17,0.8c-3.6,0.2-5.4-1.1-5-4.9c0.4-3.8,0.6-7.7,1.3-11.4c0.6-3,2.8-4.7,6.1-4.8
		c11.7-0.4,23.4-0.9,35.1-1.4c0.5,0,1,0,1.5,0c9.8,0.2,10.9,1.3,11.6,10.9c0.7,8.7,1.8,17.4,2.3,26.1c0.3,4.3-0.5,8.6-0.8,13
		c0,0.4-0.2,0.7-0.4,1.1c-1.3,2.9-6.7,4.5-12.1,3.7c-3.4-0.5-4.7-2.6-4.7-5.9c0-1.7-0.5-3.5-0.9-5.6c-0.7,0.6-1,0.7-1.1,1
		c-6.8,14.3-21.7,21-36.9,16.4c-4.2-1.3-8.3-2.8-12.1-4.9c-9.9-5.2-16.3-13.2-19.4-24.2c-5.8-21-3.7-40.5,8.9-58.5
		c3.1-4.4,6.4-8.7,9.5-13.2c11.2-16.4,36.4-21.6,53.5-13.9c1.8,0.8,3.7,1.2,5.4,2.1c0.9,0.5,1.2,1.9,1.8,2.9c-1-0.1-2.1,0.2-3-0.2
		c-10.5-4.5-21.2-7.2-32.6-3.9c-9.3,2.7-17.3,7.1-22.9,15.3c-3.8,5.6-8.2,10.9-11.7,16.8c-11.8,19.7-11.7,40.2-2.1,60.5
		c2.3,5,7.5,9.1,12.3,12.3c9.9,6.6,20.8,9.2,32.7,5c8.8-3.2,13.4-9.5,15.1-18.3c0.3-1.3,1.3-2.5,1.9-3.8c0.9,1.2,2.3,2.3,2.7,3.6
		c0.9,3.3,1.5,6.8,2,10.2c0.3,2.4,1.3,3.3,3.8,3.2c6.9-0.1,9.1-1.8,8.7-8.9c-0.4-7.7-1.6-15.3-2.3-23c-0.4-4.1-0.6-8.2-0.6-12.3
		c0-2.4-1-3.7-3.3-3.9c-2.6-0.2-5.1-0.6-7.7-0.5c-10.8,0.2-21.6,0.7-32.4,0.9c-3.3,0.1-5.1,1.5-5.5,4.6
		C983.4,400.5,983.2,403.8,982.7,407.9z"/>
	<path fill="#020202" d="M1056.5,375c0.7-15.3,1.4-30.7,1.9-46.1c0.1-4.2,1.6-6.5,6-7.4c14.3-3,28.6-6.5,42.9-9.5
		c9.6-2,19.2-3.6,28.9-4.9c6.8-1,7.1-0.4,10.4,5.6c1.1,2,3.1,3.5,4.1,5.6c1,1.9,2.1,4.5,1.5,6.2c-0.5,1.5-3.1,2.6-5,3.1
		c-8,2.4-16.1,4.4-24.1,6.8c-12.9,3.9-25.8,7.9-38.7,11.8c-2.7,0.8-3.8,2.3-3.3,5.1c0.3,1.8,0.2,3.6,0.4,5.4c0.7,7,0.7,7.3,7.9,6.9
		c8.3-0.5,16.6-1.5,24.9-2.5c5.7-0.7,7.4,0.4,7.9,6.3c0.2,2,0.6,4.1,0.9,6.1c0.6,4.4-0.6,5.8-4.8,6.6c-8.8,1.8-17.6,3.8-26.3,5.6
		c-3.6,0.8-5.1,2.7-4.6,6.5c0.6,4.7,0.8,9.5,1.1,14.2c0.2,2.3,1.3,3.3,3.8,3c12.6-1.5,25.3-2.7,37.9-4.3c2.9-0.4,4.3,0.4,4.5,3.1
		c0.5,6,1.1,12,1.3,18.1c0.1,3.8-2.9,5.7-6.2,6.4c-20.8,4.1-41.6,8.2-62.4,12.1c-4.3,0.8-5.4-0.4-5.8-4.8
		c-1.3-16.4-2.8-32.8-4.1-49.2C1056.8,385.6,1056.7,380.4,1056.5,375z M1131.7,408.8c-13.9,1.3-27.1,2.5-40.2,3.9
		c-4,0.4-5.8-1.4-6.1-5.1c-0.5-5.2-0.9-10.5-1.3-15.8c-0.4-5.5,0.5-7.2,5.9-8.6c7.3-2,14.7-3.8,22.1-5.4c7.8-1.7,7.8-1.6,7.1-9.4
		c-0.4-4.6-0.9-4.6-5.6-4.2c-9.3,0.9-18.7,1.7-28,2.1c-5.2,0.3-6.9-1.2-7-6.4c-0.3-15.6-5.1-13.6,12.6-19.2
		c18.5-5.9,37.3-10.7,56-16c2.7-0.8,3.1-2,1.6-4.1c-1.3-1.8-3.4-3.2-4-5.2c-1.9-6.4-6.6-6-11.6-5.3c-2,0.3-4.1,0.5-6.1,0.9
		c-16.2,3.6-32.4,7.2-48.6,10.7c-4.5,1-9,1.9-13.6,2.7c-2.4,0.5-3.4,1.7-3.4,4.2c-0.1,6.4-0.5,12.8-0.7,19.2
		c-0.4,10.9-1.4,21.9-1,32.7c0.6,15,2.5,30,3.7,44.9c0.4,5.3,0.7,10.7,1,16.3c2-0.2,3.4-0.3,4.7-0.6c19.6-3.7,39.1-7.5,58.6-11.3
		c2.7-0.5,5.1-1.6,4.9-4.9C1132.5,419.6,1132.1,414.1,1131.7,408.8z"/>
	<path fill="#020202" d="M1252,930.7c-1.9,0.6-3.8,1.4-5.8,1.8c-6.6,1.1-13.2,2.2-19.8,3.1c-1.6,0.2-3.5,0.4-4.9-0.2
		c-1.6-0.6-3.8-2.2-3.8-3.3c0-1.8,1.3-4.7,2.7-5.2c12.3-5,24.6-10.5,38-10.9c6.5-0.2,8.6-2.4,10.6-8c3.3-9.3,9-17.3,16.5-23.9
		c1-0.9,1.6-2.7,1.7-4.1c0.6-12-6.4-19.6-15.6-25.7c-1.3-0.9-3-1.1-5.8-2.1c0.8,3.1,1,5.2,2,7c2,3.7,4.5,7.2,6.6,10.9
		c2,3.4,3.8,6.9,5.6,10.5c0.2,0.3-0.1,0.9-1.1,2c-1.2-1.5-2.5-2.8-3.5-4.4c-2.7-4.5-5.5-8.9-7.9-13.6c-1.6-3-2.9-6.3-3.7-9.6
		c-0.8-3.6,0.6-4.8,4.2-4.4c1.5,0.2,3.2,0.5,4.4,1.3c9.7,6.2,17.1,14,17.5,26.5c0,0.4,0.2,0.7,0.4,1.7c1.3-0.8,2.5-1.4,3.6-2.1
		c8.8-5.4,18.1-7.7,28.4-4.8c4.8,1.4,9,3.7,12.2,7.6c0.9,1.1,2.7,2.1,4.1,2.2c14.1,1,22.2,8.7,23.9,23.1c0.3,2.4,0.4,4.8,0.7,7.8
		c17.1-8.6,36.4-10.3,53-19.7c-17.6,0.4-34,6.4-50.7,11.1c-0.2-0.3-0.4-0.7-0.6-1c1.1-0.8,2-1.9,3.2-2.3c8.4-2.5,16.7-5.1,25.2-7.1
		c6.7-1.6,13.6-2.7,20.4-3.9c0.7-0.1,1.7-0.3,2.3,0.1c1.4,0.7,3.4,1.5,3.7,2.7c0.3,1-1.2,3.1-2.4,3.7c-5,2.3-10.1,4.5-15.3,6.3
		c-11.9,4-23.9,7.8-35.9,11.7c-0.9,0.3-2,0.4-3.2,0.6c0.2,8.5-2.1,16.3-7.2,23.1c-1.2,1.6-2.4,3.6-4,4.6c-4,2.5-3.8,5.8-2.7,9.6
		c4.4,14.8,8.7,29.5,13,44.3c0.2,0.8-0.1,1.8-0.1,2.7c-0.9-0.3-2.1-0.3-2.7-0.9c-9.7-11.3-20.4-21.9-25.8-36.2
		c-0.4-1.1-0.5-2.2-0.1-3.7c6.3,11.8,13.4,22.9,23.4,32.6c-3.9-14.5-7.6-28.5-11.3-42.4c-6.3,2.1-12,4.4-17.9,5.9
		c-6,1.6-12.1,1-18-0.7c0-0.5-0.1-1-0.1-1.6c1.4-0.1,2.8-0.4,4.1-0.1c15.5,2.8,34-4.8,41.7-18.4c7.7-13.7,8-28-0.4-41.8
		c-4.1-6.7-10.5-8.2-17.8-7.4c-0.8,0.1-1.5,0.2-2.3,0.3c-0.1,0-0.2-0.1-0.4-0.1c-4.5-8.6-15.7-13.4-26.5-10.7
		c-15.1,3.7-25.3,13.7-32.9,26.7c-5.4,9.2-8.5,19-6.7,29.9c0.1,0.5-0.3,1.1-1.5,1.9c-0.5-1.2-1.3-2.5-1.4-3.7
		c-0.2-2.7-0.1-5.4,0.1-8.1c0.2-2.4-0.8-3.4-3.1-3.2c-4.8,0.6-9.8,0.7-14.5,2c-8.6,2.5-17.1,5.6-25.5,8.7c-1,0.3-1.5,1.7-2.3,2.6
		c1.1,0.5,2.1,1.5,3.2,1.5c3.3-0.2,6.6-0.6,9.9-1.1c5.3-0.8,10.6-1.9,15.9-2.8c0.8-0.1,1.7,0.1,2.6,0.2
		C1251.8,929.8,1251.9,930.3,1252,930.7z"/>
	<path fill="#020202" d="M1049.9,127.9c0.6,1.1,1.5,2.2,1.7,3.4c1.1,6.6,2.5,13.2,3,19.8c1.5,21.4,3.5,42.8,2,64.4
		c-0.2,2.4,0.2,4.9,0.4,7.3c0,0.4,0.3,0.7,0.5,1.1c2.7,0,5.6,0.7,7.9-0.2c1.5-0.6,2.9-3.5,2.9-5.4c0-8.1-0.6-16.2-0.7-24.3
		c-0.1-7.7,0.1-15.4,0.5-23.1c0.1-1.7,1.1-3.5,1.7-5.2c1.4,1.3,3.3,2.3,4.1,3.9c4.8,10,9.3,20.1,14,30.1c3.9,8.4,7.8,16.7,11.9,25
		c0.3,0.7,1.6,1.4,2.4,1.3c4.1-0.5,8.1-1.3,12.3-2c-5-17.5-6.1-35.2-5.8-53.1c0.2-9.5,0.2-19,0-28.5c-0.2-7.2-0.9-14.4-1.1-21.6
		c-0.1-2.4-1-3.4-3.5-3.5c-3.2-0.1-6.4-0.4-9.6-1c-3-0.6-4.1,0.5-4.1,3.3c0.1,8.7-0.1,17.5,0.4,26.2c0.7,12.6,1.9,25.1,2.7,37.7
		c0.1,1.2-0.7,2.4-1.1,3.6c-0.9-0.8-2.1-1.5-2.6-2.5c-7.2-14.8-14.6-29.5-21.5-44.4c-3-6.5-6-12.5-14.1-13.9c-1-0.2-1.7-1.8-2.5-2.7
		c1.1,0,2.3-0.3,3.4-0.1c8.1,1.4,12.3,6.9,15.4,14.1c5,11.7,10.5,23.2,15.8,34.8c0.7,1.6,1.6,3.1,3.2,4.4
		c-0.4-6.8-0.8-13.7-1.1-20.5c-0.5-11.1-0.8-22.1-1.3-33.2c0-0.5,0-1,0-1.5c0.3-8.3,1.6-9.3,9.8-8c2.8,0.4,5.6,0.4,8.4,0.7
		c3.3,0.4,5,2,5.1,5.6c0.2,19.7,0.2,39.4,1,59c0.5,12.4,2.4,24.8,4,37.2c0.3,2.3,1.5,4.6,2.6,6.8c1.3,2.5,0.9,3.9-2,4.2
		c-4.6,0.6-9.2,1.2-13.7,2c-3.8,0.6-4.7-1.9-5.9-4.6c-8.1-17.4-16.4-34.8-24.6-52.2c-0.4,0-0.8,0-1.2,0c0,7.3-0.1,14.7,0,22
		c0.2,7.6,0.9,15.2,1,22.7c0.1,8.7-7.8,13.5-15.8,9.7c-1-0.5-1.8-2.2-1.8-3.4c0-8.1,0.4-16.2,0.2-24.3c-0.2-10.1-0.7-20.3-1.5-30.4
		c-1.1-12.8-2.8-25.5-4.2-38.3c-0.1-0.7,0.2-1.4,0.4-2.1C1049.1,128.2,1049.5,128.1,1049.9,127.9z"/>
	<path fill="#020202" d="M384.9,462.1c-5.2,3.2-6.7,2.8-8.8-2.9c-2.2-5.9-4.2-11.9-6.3-17.8c-0.7-1.9-1.6-3.7-2.4-5.6
		c-4.7,9.7-9.1,19-13.6,28.2c-0.6,1.2-1.9,2.2-2.9,3.2c-0.9-1.1-2-2.1-2.7-3.3c-2.3-3.5-4.5-7-7.3-11.5c-1.8,4.6-4.5,4.4-7.3,3.5
		c-7.9-2.7-15.7-5.5-23.6-8.3c-2.5-0.9-5-1.7-8.4-2.9c2.7,5.1,5,9.2,7.2,13.4c1,1.8,2,3.6,2.6,5.6c0.4,1.2,0.2,2.6,0.2,3.9
		c-1.2-0.4-2.5-0.6-3.7-1.2c-1.5-0.8-2.9-1.8-4.7-2.9c-1.4,4.3-2.6,8-3.8,12c-2.7-0.8-2.5-2.7-2-4.6c0.8-3,1.6-6,2.7-8.8
		c0.3-0.8,1.8-1.5,2.8-1.6c1.2-0.1,2.4,0.6,4.4,1.2c-2.8-5.1-5.3-9.4-7.5-13.8c-0.7-1.5-0.6-3.3-0.9-5c1.7-0.2,3.5-0.9,5-0.4
		c6.1,2.1,12,4.6,18.1,6.7c4.7,1.7,9.5,3,14.2,4.5c1.7-5.7,2.9-6.1,6.7-2.2c3,3.1,5.6,6.6,8.9,10.5c2.8-5.7,5.7-11.5,8.3-17.4
		c1.7-3.6,2.9-7.4,4.5-11.1c0.5-1.2,1.7-2,2.6-3c0.9,1,2.1,1.8,2.5,3c3.1,7.9,6,15.9,9,23.8c0.5,1.2,1.2,2.4,1.8,3.8
		c5.2-5.6,5.1-5.6,8.1,1.2c1.7,3.8,3.7,7.5,5.6,11.3c0.4,0,0.9,0,1.3,0c1.1-3,2.9-6,3.2-9.1c0.9-8.1,1.2-16.4,1.8-24.6
		c0.1-0.8-0.3-1.6,0-2.3c0.3-0.9,0.9-1.6,1.4-2.4c0.7,0.6,1.7,1.2,1.9,1.9c2.6,11.8,6.2,23.4,5.9,35.6c-0.2,6.7-1.5,13.4-2.5,21.1
		c6.8-4.9,15.3-6.4,19.1-14.4c0.3-0.6,1.3-1,1.9-1.5c0.4,0.8,1.3,1.7,1.2,2.5c-0.6,4.3-1.1,8.7-2.2,12.9c-0.9,3.5,0.1,4.8,3.5,5.3
		c10,1.7,20,3.7,30.2,1.9c0.8-0.2,1.9,0.8,2.8,1.2c-0.7,0.8-1.3,2-2.2,2.2c-13.4,4.1-26.8,8-40.2,12c-0.9,0.3-2.1,0.6-2.6,1.3
		c-5.4,7.6-13.5,11.8-20.9,16.9c-0.7,0.5-1.3,1-2.1,1.6c5.5,1,10.8,1.9,16,2.9c0.6,0.1,1.4,0.1,1.9,0.5c1.6,1.2,3.2,2.4,4.8,3.7
		c-1.7-0.2-3.4-0.4-5-0.6c-6.5-0.9-12.9-1.9-19.4-2.8c-1.1-0.2-2.4,0.1-3.4-0.2c-0.9-0.2-1.6-1.1-2.3-1.6c0.6-0.8,1-1.7,1.8-2.2
		c4.3-2.8,8.6-5.7,13-8.3c11.6-6.8,18.7-16.5,20.5-30c0.4-3.4,1.3-6.8,2-10.5c-4.9,2.8-9.4,5.4-13.9,8c-0.4,0.3-0.8,0.7-1.3,0.8
		c-2,0.5-4.1,0.9-6.1,1.3c0-2-0.2-4,0-5.9c0.4-5.9,1.3-11.7,1.4-17.6c0.1-5.3-0.3-10.7-0.6-16c-0.1-1.1-0.6-2.2-0.9-3.5
		c-1.3,5.5-2.1,10.8-3.8,15.8c-1,2.8-3.4,5.2-5.1,7.7c-2-2.3-4.4-4.4-6.1-7C387.3,467.8,386.2,464.9,384.9,462.1z M449.3,505.7
		c0-0.2-0.1-0.4-0.1-0.6c-6.6-1.2-13.3-2.4-19.9-3.4c-1.2-0.2-3.4,0.3-3.7,1.1c-1.3,3.1-2.1,6.4-3.3,10.7
		C431.7,510.7,440.5,508.2,449.3,505.7z"/>
	<path fill="#020202" d="M617.9,242.1c6.5-0.6,12.2-1,17.9-1.7c0.9-0.1,1.9-1.2,2.5-2.1c6.2-8.5,10.5-18,13.1-28.2
		c0.7-2.5,1.4-4.9,2.1-7.4c1-3.4,2.8-3.9,5.1-1.3c4,4.5,7.5,9.6,11.6,13.9c5.3,5.6,11,10.7,16.7,15.9c1,1,2.8,1.2,4.1,1.7
		c2.4-3.8,2.5-8.7,0-12c-2.7-3.6-5.7-6.9-8.5-10.5c-2-2.5-4.1-5-5.7-7.7c-2.2-3.9-4.2-7.8-8.2-10.4c-2.5-1.7-2.6-4.5-1.1-6.9
		c3.8-6,7.8-11.8,11.6-17.7c3.9-6.2,7.9-12.3,11.5-18.7c2.3-4.1,1.5-4.7-2.8-6.2c-3.8-1.3-7.5-3.2-11.8-5c-1.8,2.8-4,5.8-5.8,9
		c-5.1,9-10.2,18.1-15.2,27.3c-1.6,2.9-3.9,3.8-6.4,2.1c-3.3-2.2-6.3-4.8-9-7.7c-6.5-6.7-12.7-13.7-19.5-21.1
		c-3.7,5.6-7,10.5-10.2,15.4c-0.4-0.1-0.8-0.3-1.2-0.4c0.1-1.2-0.1-2.6,0.4-3.5c2.8-4.6,5.8-9.1,8.8-13.6c1.5-2.3,2.9-1.7,4.6,0.2
		c7.5,8.3,15.1,16.5,22.7,24.7c0.5,0.6,1.2,1,1.8,1.5c3.7,2.9,4,2.7,6.3-1.4c6.2-10.8,12.5-21.6,18.9-32.3c2.7-4.5,3.7-4.4,8.3-1.7
		c2.6,1.5,5.5,2.9,8.4,3.7c6.1,1.9,7.6,4.1,4.6,9.8c-3.5,6.7-7.7,13-11.7,19.4c-3.5,5.5-7.4,10.8-11,16.3c-1.6,2.4-0.8,4,1.3,5.9
		c2.3,2.1,4,4.8,5.9,7.3c4.9,6.4,9.7,12.9,14.7,19.2c3.7,4.6,3.8,9.7,2.2,15c-0.9,2.9-2.6,4.3-5.8,2.7c-8.5-4.4-15.1-10.9-21.2-18.1
		c-3.7-4.4-7.2-8.9-11.3-13.9c-1.7,5.3-2.7,10-4.7,14.2c-3.7,8-8,15.8-12.1,23.6c-0.5,0.9-2,1.8-3.1,1.9c-5.7,0.7-11.5,1.2-17.3,1.5
		c-4.6,0.2-5.8-1.2-4.2-5.6c5.5-15.3,11.2-30.4,20.3-44c0.9-1.3,1.7-2.6,2.5-3.9c0.3-0.4,0.4-0.9,0.9-2.2c-8.9-6-17.8-11.9-26.7-18
		c-1-0.7-1.5-2-2.2-3c1.3,0.2,2.8,0,3.8,0.6c8.9,6,17.7,12.2,26.6,18.4c2.5,1.8,1.4,3.8,0.3,5.8c-3.8,6.6-8,12.9-11.3,19.7
		c-3.9,8.1-7.1,16.6-10.5,24.9C618.7,238.6,618.5,239.9,617.9,242.1z"/>
	<path fill="#020202" d="M515.3,251.4c22.7-4,45.1-7.9,67.9-11.9c-3.3-7.7-6.7-15.4-10.4-23.9c-12.3,3.5-24.7,7.1-37.2,10.6
		c-2.6,0.7-5.2,1.3-7.8,1.9c-3.9,0.9-6.2-0.8-7-4.6c-1.8-8.4-3.6-16.9-5.3-25.3c-0.8-3.9,0.7-6.7,4.5-7.6c9.1-2.3,18.1-4.7,27.3-6.5
		c3.2-0.6,4.2-1.7,3.6-4.7c-0.9-4.5-1.6-9-2.4-13.9c-5.8,1.5-11.4,3-17,4.3c-3.6,0.8-7.3,1.3-11,1.9c-3.2,0.5-5.4-0.9-6.2-3.9
		c-1-4.1-1.8-8.3-2.2-12.5c-0.1-1,1.6-2.7,2.7-3c4.5-1.5,9.1-2.9,13.7-3.8c9.2-1.8,18.5-3.3,27.7-4.8c0.9-0.1,1.9,0.5,2.9,0.8
		c-0.8,0.7-1.5,1.9-2.4,2c-7.8,1.6-15.7,2.9-23.5,4.4c-5.9,1.1-11.8,2.4-17.2,3.6c-0.4,1-0.6,1.2-0.6,1.4
		c1.1,15.8,1.5,13.5,14.3,11.1c5.5-1,11-2.8,16.4-4.2c4-1.1,5.1-0.3,5.6,3.7c0.6,4.6,1.5,9.1,2.1,13.7c0.6,4.7-0.2,5.4-4.8,6.4
		c-9,2-18,4.1-27,6.3c-3.1,0.7-4.5,2.5-3.7,5.9c1.8,7.8,3.3,15.6,4.9,23.4c0.5,2.4,1.7,3.6,4.4,2.8c2.5-0.7,5-1.2,7.4-1.9
		c9.3-2.5,18.6-5,27.9-7.6c3.1-0.9,6.2-1.6,9.2-2.8c2.2-0.9,3.2-0.3,4,1.8c2.7,6.8,5.4,13.6,8.4,20.3c2.7,6.2,2.1,7.7-4.4,8.8
		c-18.4,3.1-36.8,6.1-55.1,9.3c-2.5,0.4-5,1.2-7.5,1.8c-4.1,1-5,0.4-5.7-3.7c-5.7-32.7-11.4-65.3-17.3-98c-0.5-3.1-2.1-5.9-2.9-9
		c-0.2-0.7,0.4-1.7,0.7-2.6c0.9,0.3,2.2,0.4,2.5,1c0.9,2,1.6,4.1,2,6.2c2.1,11.8,4,23.6,6.2,35.3c3.3,17.9,7,35.8,10.3,53.8
		C514.3,242.3,514.7,246.9,515.3,251.4z"/>
	<path fill="#020202" d="M527.5,372.9c1.5-0.9,2.5-2,3.6-2.2c25.5-5.4,51.4-7.5,76.9-1.7c22.4,5.1,38.5,18.7,44.3,42
		c4.5,18.3,3.4,36.3-3.2,54.2c-5.3,14.3-15.9,21.3-30.2,23.8c-11,2-22,4-33,5.6c-12.8,1.9-25.7,3.5-38.6,5.2
		c-3.8,0.5-5.2-1.5-5.6-4.7c-2.1-17.7-4.2-35.5-6.2-53.2c-1.3-10.8-1.8-21.8-4-32.5c-2-9.8-5.7-19.2-8.6-28.7
		c-0.2-0.7-0.1-1.6-0.1-2.4c0.9,0.2,1.9,0.2,2.7,0.6c0.5,0.2,0.7,1,0.9,1.6c4.3,12.9,9.1,25.6,9.4,39.6c0.2,8.8,2,17.6,3.1,26.4
		c1.9,15.6,3.8,31.1,5.7,46.7c0.2,2.1,0.4,3.8,3.3,3.4c17.5-2.7,35.1-5.3,52.6-7.9c5.1-0.8,10.1-1.7,15.2-2.3
		c16.9-2,27.9-11,32.4-27.5c4.8-17.6,6.1-35.4-0.5-52.7c-7.8-20.4-23.6-31.8-44.7-35.2c-21.8-3.5-43.8-3-65.6,1.7
		c-2.7,0.6-5.6,0.8-8.3,1.2C528.9,374,528.6,373.7,527.5,372.9z"/>
	<path fill="#020202" d="M245.1,193.1c-7.5,2.3-15,4.6-22.4,7c-7.2,2.3-14.5,4.5-21.6,7c-6.1,2.2-7.8,1.3-8.6-5.1
		c-0.1-1.1-0.4-2.3-0.6-3.4c-0.6-3.2,0.6-4.8,3.9-5.8c26.7-7.5,53.4-15.2,80.1-22.8c5.3-1.5,10.8-2.5,16.2-3.7
		c2.6-0.6,4.5,0.3,4.8,3c0.6,5.1,1,10.2,1.3,15.4c0.2,2.5-1,3.5-3.7,4.2c-8.2,2.1-16.3,4.7-24.3,7.3c-0.8,0.3-1.6,2.1-1.6,3.2
		c0.5,11.3,2.1,22.5,5,33.5c3.4,12.8,6.2,25.7,9.2,38.6c0.4,1.7,0.4,3.6,0.4,5.4c-0.1,5.7-0.4,6-6,7.5c-1,0.3-2,0.5-2.9,0.9
		c-4.9,1.9-5.6,1.5-6.3-3.8c-2.1-16.3-4-32.8-10.2-48.1c-4.7-11.7-9.1-23.5-11.9-35.8c-0.3-1.5-0.5-3-0.8-4.5c2.9-0.2,3.2,2.1,3.8,4
		c2.3,7.8,3.9,15.8,7,23.2c6,14.3,10.8,28.9,12.6,44.4c0.7,6,2,12,3,18.1c9.4-2.2,10-3.2,8-12.4c-0.2-1-0.5-2-0.7-3
		c-2.9-12.1-6.3-24.1-8.7-36.3c-2.2-11.1-3.5-22.3-4.9-33.5c-0.1-1.1,1.4-3.1,2.6-3.5c8.2-2.8,16.6-5.2,24.9-7.9
		c1-0.3,2.4-1.5,2.4-2.2c-0.2-4.8-0.8-9.6-1.4-15.3c-9.9,2.7-19,5.2-28.2,7.8c-21.4,6-42.9,11.9-64.2,18.1c-7,2-6.9,2.4-5.5,9.7
		c0.1,0.3,0.4,0.6,0.7,1.1c0.7-0.2,1.5-0.3,2.2-0.5c12.6-4.1,25.2-8.2,37.8-12.3c2.1-0.7,4.2-1,6.4-1.5
		C244.8,190.4,245.5,191.2,245.1,193.1z"/>
	<path fill="#020202" d="M760.4,233.2c6-0.5,11.6-0.9,17.8-1.4c-0.4-2.1-0.8-3.7-1.2-5.4c-2.6-14.1-5.2-28.2-7.8-42.4
		c-0.7-3.8,2.2-4.4,4.7-4.7c7.9-0.9,15.9-1.4,23.8-2.5c9-1.3,18-2.8,26.9-4.7c12.3-2.7,17.6-12.5,22-22.9c1.4-3.4,2.3-7.1,3-10.8
		c1.2-6.1-1.2-10.8-6.5-14c-7-4.4-14.9-5.6-22.9-6c-18.2-0.9-36.2,1.1-54.2,3.5c-4.1,0.6-8.2,0.8-12.3,0.9c-0.9,0-1.8-1-2.7-1.5
		c0.9-0.5,1.7-1.4,2.6-1.5c16-1.5,32-3.4,48-4.2c10.1-0.5,20.3,0,30.3,1.4c5.2,0.7,10.4,3.7,15,6.6c5,3.1,6.5,8.5,5.7,14.3
		c-1.3,10-5.6,19-11.4,27.2c-4.1,5.9-10.4,9.1-17.2,10.3c-14.8,2.5-29.7,4.5-44.6,6.3c-7.7,0.9-8.2,0.9-6.7,8.4
		c2.5,12.8,5.2,25.6,7.9,38.4c1.1,5.1,0.1,6.3-5.2,6.6c-4.2,0.2-8.5,0.5-12.7,1.2c-4.7,0.8-5.3,0.3-5.9-4.3
		c-1.9-14.8-4.1-29.5-5.9-44.3c-1.8-15.8-3.4-31.7-4.8-47.5c-0.3-3.2,0.3-6.4,0.7-9.6c0.1-0.7,0.9-1.3,1.4-1.9
		c0.5,0.7,0.9,1.3,1.4,2c0.1,0.1,0,0.3,0,0.4c-1.7,23.6,3.6,46.5,6.4,69.7C757.7,211.6,759.1,222.4,760.4,233.2z"/>
	<path fill="#020202" d="M733.7,470.7c5.6-1.5,10.6-2.8,16.8-4.4c-1.9-4.5-3.5-9.2-5.9-13.4c-8.3-14.6-17.4-28.9-25.3-43.8
		c-5-9.4-8.5-19.6-12.7-29.4c-1.6-3.8-3.2-7.5-5.2-11.2c-0.4-0.7-2.1-1.2-3.1-1.1c-2.5,0.5-4.8,1.6-7.3,2.1
		c-0.9,0.2-2.1-0.8-3.1-1.2c0.9-0.5,1.7-1.2,2.6-1.6c2.5-0.9,5.1-1.6,7.6-2.5c3.8-1.3,5.1,0.8,6.6,3.8c8.6,17.1,13.5,35.9,24,52.1
		c6.7,10.5,13,21.3,19.2,32.2c2.2,3.9,3.4,8.3,4.8,12.5c0.9,3-0.4,4.7-3.7,5.3c-4.3,0.8-8.5,2-12.6,3.2c-2.5,0.7-4.5,0.7-5.7-2
		c-3.5-7.7-7-15.4-10.5-23.1c-1.5-3.3-2.9-6.6-4.2-10c-0.7-1.8-1.6-2.6-3.7-2.2c-4.4,0.8-8.9,1.1-13.4,1.7c-2.6,0.3-3.4,1.9-3.6,4.5
		c-0.7,9.2-1.5,18.4-2.6,27.6c-0.6,5.7-3.3,9.1-9.7,9.8c-5.9,0.7-11.7,2.9-17.6,4.4c-5.3,1.3-6.5,0.3-5.5-4.8
		c4.8-25.4,8.3-51,15.7-75.9c2.1-6.9,3.4-14,5.2-20.9c0.2-0.9,1.1-1.6,1.7-2.4c0.4,1.1,1.3,2.3,1.1,3.2c-1.3,5.9-2.7,11.8-4.3,17.6
		c-6.4,22.8-11.2,46-14.6,69.4c-0.5,3.5-1.5,7-2.3,11c1.7-0.2,2.8-0.2,3.8-0.5c6.4-1.5,12.8-2.9,19.1-4.8c1.5-0.4,3.2-2.3,3.6-3.8
		c1.2-5.2,2-10.6,2.6-16c0.5-5.1,0.7-10.3,0.8-15.4c0.1-2.9,1.1-4.8,4-5.3c6.1-1,12.2-2,18.3-2.5c1.2-0.1,3.1,1.7,3.7,3.1
		C723.5,447.6,728.5,459.2,733.7,470.7z"/>
	<path fill="#020202" d="M1036.6,198.5c-9.2,0.9-18,1.7-26.8,2.7c-3.7,0.4-5.9-0.9-6.6-4.3c-1.4-6.9-2.5-13.9-3.7-20.8
		c-0.4-2.6,1.4-3.9,3.5-4.3c5.8-1,11.6-1.9,17.5-2.5c4.5-0.5,6.9-5.1,4.3-8.9c-0.5-0.7-1.7-1.2-2.6-1.2c-4.9-0.1-9.7-0.1-14.6,0
		c-5.7,0.1-7.7-1.7-8-7.3c-0.6-10.4-0.5-10.6,9.8-12.3c4.3-0.7,8.7-0.9,13.1-1.1c2.6-0.1,3.9-1.4,4.9-3.6c4.1-9.4,3.6-10.4-6.4-10
		c-7.4,0.3-14.9,0.9-22.3,1.4c-0.5,0-1.1,0.3-1.5,0.1c-1.8-0.6-3.6-1.2-5.3-1.9c1.7-0.3,3.3-0.9,5-1c9.5-0.6,19-1.2,28.5-1.6
		c7.4-0.3,8.9,1.9,6.6,9.1c-0.4,1.2-0.7,2.5-1.1,3.7c-1.8,5.5-3.4,6.5-9.2,6.9c-5.4,0.4-10.7,1.2-16,1.9c-2.4,0.3-3.4,1.7-3.2,4.3
		c0.6,8.3,0.5,8.3,9,8.2c3.9-0.1,7.7-0.2,11.6,0.1c4.5,0.4,5.5,1.6,5.6,6.1c0.3,9.5,0,9.8-9.6,10.3c-4.2,0.2-8.4,0.9-12.6,1.5
		c-2.7,0.4-4,1.7-3.3,4.8c1.2,5.4,1.9,10.8,2.9,16.3c0.5,2.7,2.1,3.8,5,3.3c8-1.3,16-2.3,24-3.5c2.7-0.4,5-0.1,4.9,3
		c-0.1,5.3-0.5,10.7-1.4,16c-0.2,1.4-2.4,3.4-3.8,3.6c-13,1.9-26,3.5-39,5.1c-0.9,0.1-1.8,0.1-2.7,0.1c-3.4,0-4.9-1.6-4.8-5
		c0.1-10.1,0.1-20.3,0-30.4c-0.2-12.7-0.7-25.5-0.7-38.2c0-5.9,0.9-11.8,1.6-17.7c0.1-0.9,1.1-1.7,1.7-2.5c0.4,0.9,1.4,2,1.2,2.8
		c-3.6,23.4-1.1,46.7-0.1,70.1c0.2,4.1-0.3,8.2-0.6,12.3c-0.3,5.5-0.3,5.8,4.9,5.3c10.6-1.1,21.1-2.7,31.7-4.1
		c0.5-0.1,1-0.2,1.5-0.3c6.4-0.8,7.3-1.8,7.6-8.3c0.1-2.1,0-4.1-0.1-6.2C1036.8,199.7,1036.6,198.9,1036.6,198.5z"/>
	<path fill="#020202" d="M1283.9,108.1c-3.2-0.7-5.8-1.2-8.4-1.8c0-0.5,0.1-1,0.1-1.5c1.1-0.2,2.3-0.6,3.4-0.6
		c7.2,0.4,14.4,0.9,21.5,1.4c6,0.5,7.6,2,7.3,8c-1,17.6-2.5,35.1-3.3,52.7c-0.3,7.2,0.7,14.5,1.2,21.8c0.2,2.7,1.9,3.5,4.6,2.9
		c11.1-2.6,22.3-4.9,33.4-7.6c3.5-0.9,5.7-0.6,7.5,3c1.9,3.9,4.6,7.4,6.9,11.2c3,4.9,1.9,6.9-3.6,7.7c-19.5,2.8-38.9,5.7-58.3,8.8
		c-3.8,0.6-4.8-0.6-5.8-4c-4.1-15.2-4.2-30.8-5-46.3c-0.4-7.9-1.8-15.8-2.1-23.8c-0.4-8.4,0-16.9,0.1-25.4
		C1283.5,112.6,1283.7,110.4,1283.9,108.1z M1356.9,201.4c-2.7-4.4-5.5-8.7-8-13.1c-1.2-2.2-2.5-2.2-4.7-1.7
		c-10,2.5-19.9,4.9-30,6.9c-9.7,1.9-11.2,0.5-12.5-9.4c-0.1-0.4-0.1-0.8-0.1-1.2c0.4-11.5,0.7-23.1,1.3-34.6c0.5-11.7,1.2-23.4,2-35
		c0.2-2.8-0.8-4.5-3.7-4.6c-4.6-0.1-9.2,0-14.6,0c-0.2,8.9-1,17.9-0.6,26.9c0.8,16.2,2.1,32.3,3.6,48.4c0.9,9.1,2.6,18.2,3.9,26.8
		C1314.9,207.6,1335.5,204.6,1356.9,201.4z"/>
	<path fill="#020202" d="M1231.6,216.8c4.6-0.8,8.8-1.4,12.9-2.3c0.7-0.2,1.7-1.5,1.7-2.4c0.2-8.3,0.4-16.7,0.3-25.1
		c-0.1-3.3,0.9-4.9,4.2-5c1.2-0.1,2.3-0.2,3.4-0.4c3.7-0.8,5.4,0.9,6.3,4.3c2.4,8.5,5.1,17,7.7,25.5c4.4-0.5,8.4-1,13.4-1.6
		c-0.6-4.1-0.8-8.1-1.8-12c-2.6-9.9-6.5-19.6-8.2-29.7c-3.4-20.7-10-40.4-16.4-60.2c-0.7-2.3-2-3.2-4.2-2.9
		c-1.4,0.1-2.8,0.4-4.2,0.4c-0.6,0-1.3-0.5-1.9-0.8c0.3-0.6,0.5-1.4,1-1.8c4.3-2.8,10.7-0.6,12.1,4.3c5,16.9,10.1,33.7,14.8,50.7
		c3.5,12.6,6.6,25.3,9.6,38.1c1,4.2,1.4,8.6,1.8,12.9c0.3,3.1-1.2,4.7-4.6,4.7c-3.2,0-6.4,0.5-9.5,1.2c-2.5,0.5-4-0.1-4.7-2.5
		c-2.5-8.1-5.3-16.1-7.5-24.3c-1.1-4.2-3.7-3-6.2-2.9c-2.8,0.1-2.1,2.3-2.1,4c0,8.2-0.1,16.4-0.2,24.6c0,2.5-1.2,3.7-3.7,4.1
		c-4.2,0.6-8.4,1.3-12.5,2.3c-3.1,0.7-4.4-0.5-4.7-3.4c-1.8-16.5-2.6-33,0-49.6c1.5-9.1,2-18.4,3.7-27.5c1.6-8.6,4-17,6.2-25.4
		c0.2-0.7,1.2-1.3,1.9-1.9c0.3,0.9,1.1,1.8,0.9,2.6c-0.4,2.3-1.4,4.4-1.8,6.7c-2.3,12.8-4.6,25.5-6.7,38.3
		c-2.3,13.9-3.5,27.8-2.5,41.9C1230.4,206.6,1231.1,211.6,1231.6,216.8z"/>
	<path fill="#020202" d="M903.2,151.9c5.9-0.6,11-1.1,16.1-1.6c2-0.2,4.1-0.4,6.2-0.5c5.1-0.2,6.6,0.8,7.1,5.9
		c0.8,8.1,1,16.2,1.5,24.3c0.9,14.9,1.7,29.8,2.5,44.7c0,0.4,0.2,0.7,0.4,1.3c4.9-0.7,9.9-1.2,14.7-2.3c0.9-0.2,1.9-2.9,1.8-4.4
		c-0.7-9.7-1.8-19.4-2.7-29.2c-1-11.5-1.9-23-2.9-34.6c-0.2-2.9,1.5-4.2,3.9-5c6.5-2,13-4.1,19.6-5.9c2.5-0.7,3.9-1.8,4.2-4.3
		c0.4-3.6,0.6-7.1,0.9-10.7c0.2-1.9-0.6-2.8-2.7-2.7c-18,0.6-36,1.1-54,1.7c-2.2,0.1-4.4,0.4-6.5,0.2c-1.4-0.1-2.7-1-5.1-2
		c1.8-0.9,2.3-1.3,2.9-1.3c13.9-0.2,27.7-0.4,41.6-0.7c7.2-0.1,14.4-0.4,21.6-0.8c3.9-0.2,5.5,1.5,5.4,5.2c0,1.2,0.1,2.3,0,3.5
		c-0.3,11.2-1.3,12.7-11.7,16c-4.5,1.5-9.1,2.9-13.7,4.1c-2.6,0.7-3.5,2-3.3,4.7c1.5,14.1,2.9,28.1,4.2,42.2
		c0.6,6.9,1.1,13.8,1.3,20.8c0.1,4.9-1.3,6.1-6.1,6.6c-3.7,0.4-7.4,1.1-11,1.7c-4.7,0.8-5.6,0.2-5.9-4.4c-1-17.6-1.8-35.2-2.8-52.8
		c-0.3-4.9-0.7-9.7-1-14.6c-0.2-3.1-1.6-4.5-5-4.1c-6.2,0.8-12.5,1.3-18.8,1.7c-4.9,0.3-5.7-1-5.4-6c0.5-6.8,0.8-13.6,1.3-20.3
		c0.1-0.9,1-1.8,1.5-2.6c0.5,0.9,1.4,1.8,1.4,2.7c-0.2,6.3-0.6,12.6-0.9,18.8C903.8,148.5,903.6,149.7,903.2,151.9z"/>
	<path fill="#020202" d="M1158.2,971.2c0.5-1.5,0.7-3.2,1.6-4.5c4.1-5.9,8.4-11.7,12.7-17.5c19.8-26.2,36.2-54.3,48.5-84.8
		c4.3-10.7,9.3-21.2,13.9-31.8c0.6-1.4,0.4-3.2,0.7-5.7c0.5-0.3,1.9-1,2.5-1.4c2.7,0.8,4.7,1.7,6.8,2.1
		c32.9,6.7,65.8,13.2,98.6,20.2c22.6,4.8,45.1,10.4,67.6,15.8c4.7,1.1,9.2,3.3,13.7,5.1c0.7,0.3,1.2,1.3,1.8,2
		c-0.9,0.2-1.9,0.8-2.6,0.5c-26.2-10.9-54.1-15.3-81.6-21.2c-20.2-4.3-40.4-9.1-60.7-13.3c-12.8-2.6-25.8-4.4-38.7-6.9
		c-3.3-0.6-4.4,0.6-5.6,3.4c-9.7,21.9-19,43.9-29.5,65.4c-10.7,21.8-25.1,41.3-39.7,60.6c-3,3.9-5.7,8.1-8.6,12.1
		C1159.1,971.4,1158.6,971.3,1158.2,971.2z"/>
	<path fill="#020202" d="M877.2,435.3c1.5-10.7,3.1-21.3,4.6-32c1.3-9,1.9-18.2,3.9-27.1c2.2-9.7,5.6-19.2,8.5-28.8
		c0.2-0.6,0.5-1.2,0.7-1.8c2-5.3,2.2-5.4,7.9-4.8c1.8,0.2,3.6,0.3,5.3,0.8c1.2,0.3,2.7,1,3.1,1.9c2.2,4.6,4.5,9.2,6.2,13.9
		c6.2,17.6,12,35.3,18.3,52.9c3.2,8.9,6.9,17.7,10.4,26.5c0.4,1.1,0.9,2.2,0.9,3.3c0,1-0.5,2.1-0.8,3.1c-1.1-0.4-2.5-0.4-3.3-1.2
		c-7.6-7.5-15.1-15-22.6-22.6c-1.6-1.6-2.8-2.4-5.2-1.3c-3.8,1.8-7.9,3-11.9,4.3c-2.6,0.9-3.5,2.4-3.3,5.2c0.4,4.3,0.4,8.7,0.3,13.1
		c-0.1,4.8-2.3,6.8-7.1,7.3c-2.9,0.3-5.8,1.1-8.7,1.5c-4.6,0.7-5.6-0.1-5.8-4.6c-0.1-3.2,0-6.4,0-9.6
		C878.1,435.4,877.6,435.3,877.2,435.3z M882.1,446.9c3.5-0.6,6.8-1.6,10-1.7c4.2-0.1,5.3-2.4,5.2-5.9c-0.1-4.1-0.2-8.2-0.6-12.3
		c-0.3-3.5,1.1-5.6,4.3-6.8c5.1-2,10.2-4.2,15.4-5.9c1.1-0.4,3.1,0.4,4,1.3c3.2,3.1,6.1,6.6,9.3,9.8c3.9,4,8,7.8,12.1,11.6
		c0.5-1.4,0.5-2.3,0.2-3.1c-2.9-7.1-5.7-14.3-8.8-21.4c-9.1-20.8-13.2-43.5-23.7-63.9c-0.9-1.7-0.2-4.3-3.4-4.2
		c-2,0-4.1-0.4-6.1-0.4c-0.6,0-1.4,0.8-1.6,1.3c-3.3,10.2-7.2,20.4-9.7,30.8c-2.3,9.9-2.8,20.1-4.5,30.1
		C881.9,419.6,879.7,432.9,882.1,446.9z"/>
	<path fill="#020202" d="M768.4,335c-2.2-6.8-4.2-13.5-6.6-20.1c-0.3-1-2.7-1.8-4-1.7c-9.3,0.9-18.7,1.8-28,3.3
		c-26.5,4.3-53,8.9-79.5,13.4c-1.6,0.3-3.2,0.9-4.9,1.2c-0.9,0.1-1.8-0.3-2.7-0.4c0.6-0.8,1.1-2.1,1.9-2.3c4.7-1.1,9.5-2.1,14.3-2.9
		c18.9-3.3,37.7-6.8,56.6-9.8c14.5-2.3,29.1-3.8,43.6-5.7c2.9-0.4,4.6,0.7,5.5,3.5c2.2,6.8,4.4,13.7,6.8,20.5c1.1,3-0.2,4.2-2.8,4.5
		c-8.2,1.1-16.3,1.9-24.5,3.1c-30.3,4.5-60.5,9.1-90.7,13.6c-3.2,0.5-6.8,1.7-9.4,0.6c-1.6-0.7-1.9-5.1-2.3-7.9
		c-0.6-4.4-0.9-8.9-1.2-13.4c0-0.5,0.5-1.1,0.8-1.6c0.4-0.1,0.8-0.1,1.2-0.2c1.1,6.7,2.2,13.4,3.2,19.7
		C687,346.5,727.7,340.7,768.4,335z"/>
	<path fill="#020202" d="M635.9,429.8c-1.2-6.1-2.3-13.5-4.2-20.7c-1.6-5.9-5.9-9.5-11.5-12.2c-12.4-5.9-25.7-7.2-39-8.8
		c-5.6-0.7-11.4,1.3-17.2,1.7c-1.9,0.1-3.9-0.8-5.8-1.2c1.8-0.6,3.5-1.2,5.3-1.8c0.6-0.2,1.3,0,1.9-0.1c13.4-3.7,26.6-0.6,39.7,2.1
		c7,1.4,13.7,4.3,20.2,7.5c7.2,3.5,9.9,10.8,11.3,18.1c2.2,11.6,2.2,23.1-0.3,34.8c-2.8,13-18.6,24.8-29.9,25.8
		c-12,1.1-24.1,1.6-36.2,2.3c-2.3,0.1-4.6-0.1-6.9-0.7c-0.9-0.2-2.1-1.5-2.3-2.5c-1.9-8.8-3.9-17.5-5.4-26.4
		c-2.3-13.9-4.1-28-6.3-41.9c-0.6-4.1-1.8-8-2.5-12.1c-0.2-1.3,0.5-2.7,0.7-4c0.7,1.1,1.8,2,2,3.2c2.1,12.9,3.9,25.9,6.1,38.8
		c1.4,8.3,3.6,16.6,5.3,24.9c1,4.6,1.9,9.3,2.5,14c0.3,2.4,0.8,3.9,3.6,3.7c13.3-0.8,26.8-1.1,40-2.5c10.3-1.1,25-11.8,26.5-25.3
		C634.2,441.3,635,436.3,635.9,429.8z"/>
	<path fill="#020202" d="M1152,225.3c3.5-0.5,6.1-0.8,8.7-1.3c3.2-0.7,1.8-3.4,1.6-5c-1.3-8.6-3-17.2-4.2-25.9
		c-1.5-10.7-2.7-21.4-4-32.1c-0.6-5-1-10-2.1-14.9c-0.8-3.7,0.5-5.5,3.7-6.9c9-3.8,18.3-6.7,28.1-8c2.5-0.3,5-1.1,7.2-1.6
		c-0.5-4.3-1.1-8.2-1.3-12.2c-0.1-2.6-1.3-3.3-3.6-3.1c-2.6,0.2-5.1,0.2-7.7,0.1c-0.7,0-1.3-0.8-2-1.3c0.6-0.5,1.2-1.5,1.9-1.5
		c3.7-0.2,7.5-0.4,11.2-0.1c1,0.1,2.5,1.8,2.8,3c1.1,5,2.1,10,2.7,15.1c0.1,0.9-1.5,2.6-2.6,2.9c-3.7,1.1-7.6,1.5-11.3,2.4
		c-7.2,1.9-14.3,4.1-21.5,6c-3.8,1-4.6,3.1-4,7.1c3.5,24,6.8,48.1,10,72.1c0.8,5.9,0,6.6-6.1,7.1c-1,0.1-2,0.3-3,0.5
		c-5.8,1.4-6.6,1.1-7.4-4.7c-1.1-8.1-2.2-16.3-2.5-24.5c-0.4-12.4-3.8-24.1-6.5-36c-0.8-3.5-1.4-7.1-2-10.6
		c-0.5-2.6-1.6-4.1-4.7-3.7c-3.3,0.4-6.7,0.2-10,0.3c-2.4,0.1-3.8-1-3.6-3.4c0.5-7,1.1-14.1,1.7-21.1c0-0.5,1-0.9,1.5-1.3
		c0.5,0.7,1.4,1.4,1.3,2.1c-0.2,3.7-0.7,7.4-1,11.1c-0.3,3-0.4,6.1-0.6,9.2c4.1,0,7.8,0.2,11.5-0.1c3.6-0.3,5.8,1.2,6.4,4.6
		c3.5,18.8,9.6,37.1,9.3,56.6C1149.5,212.6,1151.1,218.9,1152,225.3z"/>
	<path fill="#020202" d="M779.4,513.7c-1.3,0.5-2.5,1.3-3.8,1.5c-10.3,1.1-20.7,2.1-31,3.2c-15.3,1.6-30.7,3.2-46,5
		c-28.5,3.4-56.9,7.1-85.3,10.5c-28.7,3.4-57.5,6.6-86.2,9.7c-9.5,1-19,1.6-28.5,2.2c-1,0.1-2-1-3-1.5c0.9-0.5,1.8-1.3,2.8-1.4
		c24.7-2.3,49.5-4.1,74.1-7c32.4-3.8,64.7-8.5,97.1-12.6c12.5-1.6,25-3,37.5-4.2c17.8-1.7,35.6-3.2,53.4-4.9
		c4.9-0.5,9.7-1.3,14.5-1.9c1.3-0.2,2.7,0,4,0C779.1,512.8,779.2,513.3,779.4,513.7z"/>
	<path fill="#020202" d="M758.2,276.2c0.3,0,0.5,0,0.8-0.1c7-0.5,7.8,0.2,6.8,7.1c-0.6,4.4-1.3,8.9-2.5,13.2
		c-0.3,1.3-2.2,2.9-3.5,3.1c-30.9,4.7-61.7,9.2-92.6,13.7c-6.6,1-13.2,2.1-19.8,2.8c-4.4,0.5-5.8-0.9-5.2-5.3
		c0.6-4.3,1.8-8.5,2.8-12.8c0.4-1.9,2.8-3.8-0.1-5.6c0,0,0.5-1.7,1.1-1.9c1.1-0.5,2.5-0.6,3.8-0.8c33.8-4.3,67.5-8.6,101.3-12.9
		C753.3,276.6,755.8,276.4,758.2,276.2C758.2,276.2,758.2,276.2,758.2,276.2z M763.5,279c-3,0.2-5.2,0.1-7.3,0.4
		c-34.7,4.4-69.4,8.9-104,13.4c-1,0.1-2.3,1.1-2.6,2c-1.6,4.7-3,9.5-4.2,14.4c-1,4.2-0.5,4.5,3.7,3.8c36.4-5.4,72.7-10.9,109-16.4
		c0.9-0.1,2.2-1.1,2.4-1.8C761.6,289.8,762.4,284.7,763.5,279z"/>
	<path fill="#020202" d="M962.4,520.1c-0.3-1.1-0.8-1.8-0.5-2.2c3.4-6.1,1.3-12.3,0.3-18.4c-1-5.8-2.5-11.6-4.4-17.2
		c-0.7-2.2-2.9-4.3-5-5.4c-2.6-1.5-5.8-2-9-3c-0.8,5.4,0.8,9.9,2.6,14.3c0.9,2.2,1.7,4.6,2.3,6.9c0.2,0.6-0.6,1.5-0.9,2.2
		c-0.6-0.5-1.6-0.9-1.8-1.5c-2.1-6.6-4.4-13.1-5.8-19.8c-1.9-8.9-13.1-15-21.4-11c-1.7,0.8-3,2.2-4.5,3.3c4.1,5,7.7,8.9,10.6,13.3
		c4.1,6.1,8,12.7,4.2,20.2c-2.2,4.3-5.6,8-8.5,11.9c-0.3,0.4-1.3,0.4-2,0.5c-0.1-0.7-0.6-1.6-0.3-2.1c1.3-2.2,2.5-4.5,4.3-6.4
		c8-8.3,5.3-12.1,0.9-21c-2.1-4.3-6-7.6-9.1-11.4c-1.3-1.6-3-2.9-1.3-5.4c0.3-0.5-0.7-2.4-1.5-3c-5.4-4-10.9-7.8-18.2-7
		c-6.5,0.7-13,1-19.6,1.5c-0.7,0-1.4-0.3-2.1-0.4c-0.1-0.4-0.3-0.8-0.4-1.1c1.5-0.7,3.1-1.9,4.6-2c7.4-0.5,15-1.6,22.3-0.7
		c4.9,0.6,9.6,4,14.1,6.6c1.9,1.1,3.2,1.3,5.2,0.5c8.9-3.6,16.5-1.3,22.5,6.4c0.8,1,2.2,1.7,3.4,2c18.1,4.3,16.3,5.8,20.3,21.5
		c1.7,6.8,2.1,13.9,3,20.9C967,516.2,965.6,518.3,962.4,520.1z"/>
	<path fill="#020202" d="M836.1,191.8c0.2-3.3,0.4-6.7,0.6-10c0.9-11.5,14.5-20.5,22.3-21.8c0.8-0.1,2.3-0.2,2.5,0.3
		c2,3.7,5.8,2.6,8.7,3.7c12.9,4.5,24.4,11,28.5,25.1c5,17.2-4.5,35.3-21.3,41.6c-18.9,7.1-35.1-1.8-39.2-21.7
		c-1.2-5.6-1.7-11.4-2.5-17.1C835.9,191.9,836,191.8,836.1,191.8z M839.4,191.6c-0.4,0.1-0.7,0.1-1.1,0.2c1.6,7.5,2.5,15.2,4.8,22.5
		c3.2,10.1,15.5,18.5,24.4,16.5c14.1-3.2,27.2-10.8,29.2-29.4c0.8-7.1,0.2-14.3-4.8-19.7c-7.1-7.7-15.2-14.2-26.3-15.5
		c-1.7-0.2-3.3-1.2-5-1.7c-1.2-0.3-2.7-1-3.7-0.6c-9.5,4-16.8,9.9-17.5,21.2C839.3,187.2,839.4,189.4,839.4,191.6z"/>
	<path fill="#020202" d="M1273.9,733.1c0.5-1.2,0.9-2.5,1.7-3.6c5.7-8.1,5.5-16.9,3-25.8c-0.9-3.2-3.4-4.8-7.1-4.7
		c-29.7,0.6-59.5,0.6-89.2,1.7c-23.4,0.9-46.7,3.3-70.1,4.7c-9.6,0.6-19.3,0.4-28.9,0.5c-1.4,0-2.8-0.8-4.3-1.2
		c0.1-0.4,0.1-0.7,0.2-1.1c0.7-0.2,1.3-0.5,2-0.5c11.6-0.1,23.1,0.2,34.7-0.3c17.6-0.9,35.2-2.1,52.7-3.7c34.4-3.2,68.9-2,103.4-2.5
		c4.2-0.1,6.8,1.8,8.6,5.3c4,7.8,1.9,23.9-3.9,30.3c-0.5,0.6-1.3,1-1.9,1.5C1274.5,733.5,1274.2,733.3,1273.9,733.1z"/>
	<path fill="#020202" d="M1155.7,971c2.2,0.9,4.4,1.8,6.6,2.8c21.2,9.2,43.7,13.3,66.3,17.2c30.6,5.3,61.3,10.7,91.9,16
		c11.8,2,23.6,3.9,35.4,5.9c2.4,0.4,5.2,0.7,5.9,4.4c-3.2-0.8-6.1-1.7-9-2.2c-19.9-3.4-39.8-6.7-59.7-10.2
		c-32.6-5.8-65.4-11.3-97.8-18c-12.9-2.6-25.2-7.9-37.7-12.2c-1.1-0.4-1.9-1.8-2.8-2.8C1155.1,971.6,1155.4,971.3,1155.7,971z"/>
	<path fill="#020202" d="M1184.7,162.3c0.4,16.2,3.3,31.9,8.1,47.3c0.2,0.6,0.4,1.5,0.2,1.7c-2,1.8-0.4,3,0.7,4.1
		c1.6,1.5,3.6,4,5.2,3.8c3.5-0.3,6.8-2,10.1-3.3c0.4-0.2,0.7-1.6,0.5-2.4c-3.5-19.3-6.9-38.7-10.7-57.9c-1.3-6.6-2.5-6.8-8.6-4
		c-0.7,0.3-1.3,0.9-2,1.1c-0.6,0.1-1.4-0.2-2.1-0.3c0.2-0.7,0.2-1.8,0.6-2c3.5-1.3,7.1-2.8,10.8-3.4c0.9-0.1,2.9,2.8,3.3,4.5
		c2.3,10,4.5,20,6.4,30.1c1.9,10.1,3.4,20.3,5.2,30.4c0.9,5.4,0.9,5.7-4.2,7.7c-1.2,0.5-2.4,0.9-3.6,1.4c-7.2,2.6-11.5,1.1-14.9-5.7
		c-0.8-1.6,0-3.9-0.5-5.7c-5.1-18.8-8.4-37.9-7.5-57.5c0-0.8-0.1-1.6,0.1-2.3c0.2-0.8,0.8-1.4,1.3-2.1c0.6,0.7,1.6,1.4,1.7,2.1
		c0.1,3.2-0.1,6.4-0.2,9.6C1184.7,160.5,1184.7,161.4,1184.7,162.3z"/>
	<path fill="#020202" d="M764.5,140.4c3.1,8.7,3.7,18,5.5,27.1c0.7,0,1.2,0,1.6-0.1c16-3.1,32-6.5,48-9.3c8.6-1.5,10.9-7.6,9.7-15
		c-0.3-1.8-2.2-4-3.9-4.7c-3.1-1.3-6.7-2.3-10-2.2c-13.3,0.6-26.6,1.7-40,2.4c-2.4,0.1-4.7-0.5-7.1-0.7c1.2-3.3,4.2-1.8,6.3-2
		c12.9-1.1,25.8-2.1,38.8-2.9c3-0.2,6.2,0.3,9.2,0.9c7.3,1.6,10.4,5.6,10.2,12.4c-0.3,7.9-4.4,13.3-11.3,14.5
		c-10.9,1.9-21.8,3.5-32.7,5.5c-5.8,1.1-11.5,2.8-17.2,4.3c-3,0.8-4.5,0-5.1-3.2c-1.2-7.9-2.7-15.7-4-23.6c-0.2-1,0.1-2.1,0.1-3.1
		C763.4,140.6,764,140.5,764.5,140.4z"/>
	<path fill="#020202" d="M185.6,885.7c-0.3,1.2-0.4,2.5-0.9,3.6c-7.5,19.3-11.2,39.5-15,59.7c-0.3,1.7,0.7,3.7,1.1,5.5
		c0.1,0.5,0.3,1,0.1,1.4c-1.9,7.2-3.7,14.4-5.7,21.6c-5.8,21.4-11.7,42.9-17.6,64.3c-0.5,1.8-0.6,4.1-3.8,2.6
		c2.7-10,5.4-20.1,8.1-30.1c4-14.7,8.6-29.4,11.8-44.3c3.1-14.4,4.2-29.2,7.3-43.6c2.9-13.3,7.4-26.2,11.2-39.3
		c0.3-0.9,1.5-1.6,2.3-2.4C184.9,885.1,185.3,885.4,185.6,885.7z"/>
	<path fill="#020202" d="M340.5,270.4c5.7-1.2,10.8-2.4,16.7-3.7c-0.6-2.3-1-4.7-1.7-7c-1.9-6.1-3.9-12.3-5.7-18.4
		c-0.4-1.3-0.2-2.8-0.3-4.2c0.4-0.1,0.8-0.3,1.2-0.4c0.6,0.9,1.4,1.8,1.7,2.8c2.3,7.1,4.5,14.2,6.7,21.3c0.3,0.9,0.5,1.7,0.7,2.6
		c1.1,5.5,0.1,6.5-5.3,7.2c-4.1,0.5-8,1.6-12,2.6c-3.3,0.8-4.9-0.5-5.4-3.6c0-0.3-0.1-0.5-0.1-0.8c-2.1-28.4-10.1-55.5-17.4-82.8
		c-1.8-6.7-2.7-13.6-3.9-20.4c-0.2-1-0.1-2.1,0.2-3c0.2-0.5,1.2-1,1.8-1c0.5,0.1,1.2,0.9,1.3,1.5c1.7,9.3,3.1,18.7,5.2,27.9
		c3.3,14.8,6.9,29.5,10.8,44.2c2.7,10.1,4.2,20.3,4.7,30.8C339.7,267.3,340.2,268.6,340.5,270.4z"/>
	<path fill="#020202" d="M1381.7,1016.3c0.5-1.5,0.7-3.1,1.4-4.5c14.4-31.3,30.7-61.7,43-94c4.6-12.1,10.6-23.7,16-35.5
		c0.5-1.1,1.5-2,2.8-2.6c-19.4,46.3-38.5,92.7-61.6,137.1C1382.7,1016.7,1382.2,1016.5,1381.7,1016.3z"/>
	<path fill="#020202" d="M1268.7,940.7c-1.1,1.9-2.2,3.8-3.6,6.3c2,1.2,3.9,2.2,5.7,3.3c2.1,1.3,3.3,0.6,4.6-1.4
		c1-1.6,2.8-2.6,4.3-3.9c-0.7,1.8-1.4,3.5-2.1,5.3c-0.2,0.6-0.6,1.1-0.9,1.9c4.1,2.9,7.7,3.8,10.3-3.3c0.3,0.7,0.6,1.4,0.9,2.1
		c-2,5.2-4,10.5-6,15.7c-0.4-0.1-0.9-0.1-1.3-0.2c0.1-1.3-0.2-2.8,0.2-4c2.4-5.7,1.5-5.2-3.8-6.9c-0.5-0.2-1-0.2-2-0.4
		c-1.2,3.5-2.4,6.9-3.6,10.3c-0.5-0.1-0.9-0.3-1.4-0.4c-1.4-3.9,2.2-7,1.8-11.3c-2.3-1.2-5.1-2.7-8.3-4.4c-1.3,2.2-2.9,4.1-3.8,6.3
		c-0.9,2.4-1.4,5.1,1.1,7.1c9.4,7.2,19.8,12.3,31.2,15.3c3.2,0.9,3.7-0.8,4.2-3.2c1-4.8,2.1-9.7,3.4-14.5c0.3-0.9,1.6-1.6,2.8-2.7
		c-1.5,7.3-2.8,13.7-4.3,20.1c-0.6,2.6-2.3,3.7-5.2,3.1c-12.6-2.8-23.9-8.5-34.1-16.4c-3-2.3-3.6-6.6-1.4-10.6
		c2.3-4.3,5-8.4,7.7-12.4c0.5-0.8,1.8-1.1,2.8-1.7C1268.2,940.2,1268.5,940.5,1268.7,940.7z"/>
	<path fill="#020202" d="M278.6,653.7c-2.5-0.9-5.1-1.9-7.7-2.9c-0.7,1.5-1.3,3.1-2.2,4.5c-3,5.2-5.1,5.4-8.9,1
		c-2.6-3-5-6.1-7.7-9.6c-2.2,7.5-4.1,14.5-6.3,21.4c-0.4,1.3-1.6,2.4-2.4,3.6c-0.7-1.4-1.8-2.7-1.9-4.1c-1.7-13.2-3.2-26.5-4.7-39.8
		c-0.2-1.7,0-3.4,0-5c0.6-0.1,1.1-0.2,1.7-0.4c0.4,1.3,1.1,2.6,1.3,4c1.5,11.4,3,22.9,5,34.6c1.3-4.6,2.4-9.1,3.9-13.7
		c0.5-1.7,1.7-3.2,2.5-4.8c1.5,1.1,3.2,2,4.4,3.3c2.8,3.3,5.4,6.7,8.8,11c1.3-2.8,2.6-4.7,3.2-6.8c0.9-3,2.5-3.7,5.2-2.3
		c2.3,1.2,4.5,2.6,6.8,3.9C279.1,652.5,278.8,653.1,278.6,653.7z"/>
	<path fill="#020202" d="M352.7,577.7c-4.6-2-8.2-3.3-11.6-5.1c-1.2-0.6-2.5-2.3-2.4-3.3c0.1-1,1.9-2.3,3.2-2.6
		c7.4-1.6,14.8-3,22.5-4.6c-0.7-0.6-1.5-1.3-2.2-2c-4.8-5-9.5-10-14.2-15.1c-0.8-0.9-1.5-2.2-1.6-3.4c0-0.7,1.2-1.6,1.8-2.3
		c0.6,0.6,1.5,1.1,1.9,1.9c0.8,1.4,1.1,3.1,2,4.3c5.2,6.2,10.5,12.3,17.9,16.2c0.7,0.4,1,1.5,1.5,2.3c-1,0.5-1.9,1.2-2.9,1.4
		c-8.1,1.4-16.2,2.6-24.3,3.9c-0.4,0.1-0.7,0.2-2,0.7c3.6,1.5,6.6,2.5,9.4,3.9c1.5,0.7,3.7,2.2,3.7,3.2c-0.1,1.5-1.7,3.3-3.1,4.2
		c-4.9,2.8-5,3.1-0.3,6.4c1.1,0.8,2.1,1.7,3.2,2.7c-2.5,1.3-7.2-0.4-8.8-3.4C343.1,581.2,348.3,579.8,352.7,577.7z"/>
	<path fill="#020202" d="M884.8,585.3c1.2-1.2,2.3-2.7,3.7-3.5c4.8-2.6,10.3-4.3,14.6-7.6c9.1-6.9,17.6-14.6,26.3-22
		c10.7-9,18.7-20.4,27.2-31.4c1.4-1.8,2.4-3.9,3.8-6.2c-2.1,18.5-51.7,65.9-74.7,71.5C885.5,586,885.2,585.6,884.8,585.3z"/>
	<path fill="#020202" d="M347.8,229.7c-0.5-1.2-1.1-2.3-1.4-3.5c-4.6-20.3-6.3-40.9-7-61.6c-0.1-2-0.7-4.1-0.7-6.1
		c-0.1-2.7-1.5-2.9-3.6-2.2c-4.1,1.4-8.3,2.8-12.5,4c-0.7,0.2-1.7-0.3-2.5-0.5c0.4-0.8,0.7-2.1,1.4-2.3c4.9-1.6,9.7-3.3,14.7-4.5
		c3.4-0.8,5.1,0.7,5.4,4.7c0.6,6.4,1.4,12.8,1.5,19.2c0.2,15.9,2.9,31.5,5.9,47c0.4,1.8,0,3.7,0,5.6
		C348.7,229.6,348.2,229.6,347.8,229.7z"/>
	<path fill="#020202" d="M564.8,143.5c0.2-3.2,0.5-5.7,0.6-8.2c0-0.9-0.3-1.8-0.4-2.7c0-7.8,0.6-8.2-9-7c-15.9,1.9-31.7,4.7-47.6,7
		c-4.8,0.7-9.7,1.1-14.6,1.6c-0.2-0.6-0.3-1.1-0.5-1.7c1-0.5,2-1.4,3.1-1.5c20.1-2.9,40.2-5.7,60.2-8.6c1-0.1,2-0.2,3.1-0.2
		c6.3-0.2,7.4,0.7,8,7c0.4,3.8,0.7,7.7,0.9,11.5C568.7,144,567.3,144.7,564.8,143.5z"/>
	<path fill="#020202" d="M370.1,1044.2c0.7-1.2,1.3-2.4,2.2-3.5c15.7-18.4,31.1-37,49.1-53.3c2-1.8,4.2-3.4,6.5-4.9
		c1-0.6,2.4-0.6,4.5-1c-0.7,1.5-0.9,2.2-1.3,2.5c-13.8,9.5-24.5,22.2-35.6,34.5c-7.3,8.1-14.2,16.6-21.3,24.9c-0.8,0.9-2,1.3-3.1,2
		C370.7,1045,370.4,1044.6,370.1,1044.2z"/>
	<path fill="#020202" d="M1239.8,159.7c1.5-8.2,3-16.4,4.7-24.5c0.2-1.1,1.5-2.1,2.3-3.1c0.3,0.9,0.4,2.1,1,2.8
		c0.8,1,2.5,1.4,2.8,2.4c2.4,7.4,4.9,14.9,6.7,22.5c0.9,3.8-0.8,5.7-4.7,6.5c-2.4,0.5-4.8,1-7.2,1.3c-4.4,0.7-5,0.1-5-4.3
		c0-1.2,0-2.3,0-3.5C1240.3,159.8,1240.1,159.7,1239.8,159.7z M1243,164.9c3.7-0.6,6-1.2,8.4-1.4c3-0.3,3.7-2.2,2.9-4.6
		c-2.2-7.2-4.6-14.3-6.9-21.4c-0.4,0-0.8-0.1-1.1-0.1C1245.2,146.2,1244.2,155.1,1243,164.9z"/>
	<path fill="#020202" d="M490.7,989.3c-0.6,0.8-0.9,1.5-1.4,1.9c-14.2,10.9-24.5,25.2-35,39.4c-1.8,2.4-3.3,4.9-5.1,7.2
		c-0.6,0.7-1.8,1-2.7,1.4c0.1-1-0.2-2.3,0.3-3.1c1.8-3,3.8-5.8,5.8-8.6c9.7-13,19.4-26.1,31.9-36.6
		C486.2,989.7,487.7,987.5,490.7,989.3z"/>
	<path fill="#020202" d="M693.6,394.8c-1.8,7.5-3.4,14.3-5.2,21.8c4.8-0.3,9-0.4,13.1-0.8c0.6-0.1,1.4-1.3,1.5-2.1
		c0.1-0.9-0.6-1.9-0.7-2.9c-0.1-0.9,0.2-1.8,0.4-2.8c0.8,0.6,2,1,2.3,1.8c0.6,1.8,1.3,3.8,1,5.5c-0.2,1.2-1.8,3.1-3,3.2
		c-4.3,0.6-8.7,0.7-13,1c-3.2,0.2-4.6-1.6-4.1-4.5c1-5.4,2.1-10.8,3.5-16.1c0.9-3.3,2.3-6.5,3.6-9.7c0.2-0.5,0.9-1,1.4-1
		c0.5,0,1,0.7,1.3,1.2c1.4,3,2.7,6,3.9,9c0.4,1.1,0.3,2.4,0.4,3.6c-0.4,0.1-0.8,0.3-1.2,0.4C697.3,400.1,695.6,397.7,693.6,394.8z"
		/>
	<path fill="#020202" d="M660.1,752.9c7.1,1.7,14.2,2.4,20.5,5.1c9.6,4.2,19.4,7.4,29.6,9.7c1.5,0.3,2.8,1.7,4.2,2.7
		c-1.6,0.1-3.2,0.5-4.7,0.2c-10.6-2.2-20.7-5.6-30.7-10c-5.8-2.5-12.5-2.9-18.7-4.3c-0.9-0.2-1.7-1-2.6-1.5
		C658.4,754.1,659.2,753.5,660.1,752.9z"/>
	<path fill="#020202" d="M222.8,545.2c3.3-0.3,6.6-0.5,10-0.8c-1.8,3-11,5.1-13.1,3.9c-2.3-1.2-1.7-3.1-0.4-4.5
		c2.1-2.3,4.2-4.5,6.6-6.4c6.3-5.1,12.7-10.1,19-15.1c0.5-0.4,1-0.9,1.6-1c0.9-0.1,1.8,0,2.8,0.1c-0.4,0.8-0.6,1.9-1.3,2.4
		c-5.2,4.2-10.5,8.2-15.7,12.4c-3.4,2.7-6.6,5.6-9.9,8.3C222.5,544.7,222.6,545,222.8,545.2z"/>
	<path fill="#020202" d="M421.6,518.3c1.9-0.3,3.3-1.1,4-0.6c8.6,6,18.6,10.2,24.9,19.1c2,2.8,4,5.7,5.7,8.6
		c0.4,0.8-0.1,2.1-0.2,3.1c-5.4-6.1-9.8-12.1-15.2-16.9C435.2,526.7,428.6,523,421.6,518.3z"/>
	<path fill="#020202" d="M481.2,713.7c-10.3-0.8-19.8-1.5-29.4-2.2c-5.6-0.4-9.2-3.6-11.5-8.4c-0.4-0.8,0-2.1,0.1-3.2
		c0.8,0.5,2.1,0.9,2.4,1.6c2.5,5.4,6.9,7.1,12.5,7.3c8.3,0.4,16.6,1,25,1.7c0.9,0.1,1.7,1.1,2.6,1.7
		C482.2,712.8,481.6,713.4,481.2,713.7z"/>
	<path fill="#020202" d="M1340.3,912.4c-1.8-1.8-3.3-4.2-5.3-5c-4.3-1.7-8.9,1.7-11.2,7.6c-1.7,4.3-0.5,6.9,4.1,9.3
		c1.3,0.7,2.4,1.7,3.3,2.8c-7,0.6-12-5.5-10.3-11.6c2.1-7.5,8-11.9,14.4-11C1339.6,905.2,1341.9,909,1340.3,912.4z"/>
	<path fill="#020202" d="M1126.4,120.9c-0.2-0.8-0.9-1.8-0.6-2.5c0.3-0.8,1.3-1.6,2.1-1.7c4-0.7,8.1-1.4,12.2-1.8
		c7.3-0.8,14.6-1.5,21.8-2.1c1.1-0.1,2.2,0.6,3.3,1c-0.9,0.6-1.8,1.6-2.9,1.8c-5.9,0.8-11.7,1.4-17.6,2c-5.7,0.7-11.5,1.3-17.2,2
		C1127.2,120,1126.8,120.4,1126.4,120.9z"/>
	<path fill="#020202" d="M1296.3,919.3c-2.6-2.6-3-6.2-3.5-9.6c-1.5-9.7,6.5-18.2,15.2-16.6c3.9,0.7,5.4,3,4.2,5.9
		c-1.8-1.1-3.5-2.9-5.5-3.2c-5.8-1-10.7,3.5-11.2,10.5c-0.2,3,0.8,6,1.3,9c0.2,1.2,0.5,2.3,0.8,3.5
		C1297.2,918.9,1296.8,919.1,1296.3,919.3z"/>
	<path fill="#020202" d="M1304,925.5c-0.3,3.2-0.7,6.5-0.7,9.7c0,3.1-1.2,4.4-4.1,3.9c-2.5-0.5-5.1-1-7.3-2.1
		c-3.3-1.7-3.5-6.5-0.2-8.2c3.7-1.9,7.9-2.8,11.9-4.1c0.4-0.1,1.1,0.4,1.6,0.6C1304.8,925.4,1304.4,925.5,1304,925.5z M1300.3,936.3
		c0-2.8,0-5.3,0-8.9c-2.9,2.9-8.2,1.5-7.8,5.9C1292.8,936.5,1296.9,936.4,1300.3,936.3z"/>
	<path fill="#020202" d="M353,682.3c-3.5-0.2-6.3-0.4-10-0.7c0.6,5.7,1.3,11.4,1.8,17.2c0.1,1.1-0.3,2.2-0.4,3.2
		c-0.8-0.8-2.3-1.5-2.4-2.4c-0.9-6.6-1.6-13.2-2.2-19.8c-0.1-0.7,1.2-2.1,1.6-2c3.6,0.6,7.2,1.5,10.7,2.4
		C352.3,680.2,352.4,680.8,353,682.3z"/>
	<path fill="#020202" d="M320.5,681.7c0.7,0.7,1.3,1.4,1.9,2c3.9,4.2,7.7,8.6,11.8,12.7c1.8,1.7,4.3,2.7,6.3,4.2
		c0.6,0.4,0.7,1.4,1,2.1c-0.7,0.2-1.5,0.7-2,0.5c-1.7-0.6-3.6-1.1-4.8-2.3c-5.1-5-10-10.3-14.9-15.5c-0.6-0.6-0.6-1.8-0.7-2.7
		C319.1,682.4,319.9,682.1,320.5,681.7z"/>
	<path fill="#020202" d="M940.4,512.9c2-4.1,4-8.2,6.1-12.3c0.3-0.5,1.2-0.6,1.8-0.9c0.2,0.8,0.9,1.7,0.6,2.3
		c-1.6,4.3-3.4,8.5-5.2,12.7c-0.2,0.5-1.1,0.8-1.7,1.1C941.6,515,941.2,514.2,940.4,512.9z"/>
	<path fill="#020202" d="M497.6,661.5c-1.9-3.4-0.5-6.1,1.2-8.3c1.5-2,2.8-5,6.7-4.1C502.9,653.3,500.4,657.1,497.6,661.5z"/>
	<path fill="#020202" d="M907.6,389.3c-0.1,3-1,4.8-4.2,5.1c-1.1,0.1-2.2,0.7-3.3,1.1c-5.3,2.2-5.8,2-5.4-3.8
		c0.4-5.6,1.6-11.1,2.6-16.6c0.2-0.9,1.4-1.5,2.2-2.3c0.6,0.7,1.4,1.4,1.9,2.2c1.4,2.6,2.9,5.1,4.1,7.8
		C906.4,384.8,906.9,387.1,907.6,389.3z M897.6,392.2c0.4,0.3,0.9,0.7,1.3,1c1.7-1.4,4.5-2.6,4.9-4.4c0.8-3.5-2-7.2-5.7-8
		C898,384.7,897.8,388.5,897.6,392.2z"/>
	<path fill="#020202" d="M864,176.4c4.2,2.6,8.1,4.8,11.8,7.3c7.5,5,10.2,12.1,9,21c-0.8,5.6-7,12.4-13,14
		c-7.3,1.8-13.8-0.3-17.9-7.2c-5.5-9.1-7.7-19-3.9-29.5c2.2-6.1,6.9-9.4,12-8.9C864.6,173.4,865.5,174.4,864,176.4z M858.9,176.4
		c-3,0.5-5,3.5-6.3,6.9c-3.6,9.3-1,18.1,3.5,26.2c2,3.5,5,6.5,9.8,6.7c5.7,0.2,12.5-3.7,14.8-8.7c2.5-5.2,1.5-13.8-2.9-17.6
		c-4.1-3.6-9-6.3-13.5-9.5C862.8,179.4,861.3,178.1,858.9,176.4z"/>
</g>
</svg>
