<?xml version="1.0" encoding="utf-8"?>
<!-- Generator: Adobe Illustrator 22.0.1, SVG Export Plug-In . SVG Version: 6.00 Build 0)  -->
<svg version="1.0" id="Ebene_1" xmlns="http://www.w3.org/2000/svg" xmlns:xlink="http://www.w3.org/1999/xlink" x="0px" y="0px"
	 viewBox="0 0 1547.9 1049.4" enable-background="new 0 0 1547.9 1049.4" xml:space="preserve">
<g>
	<path d="M1545.4,885.4c-5.3,0-10.6-0.2-16,0c-32.6,0.8-65.2,1.6-97.7,2.5c-0.5,0-1,0.1-2.3,0.3c0.4,5.6,0.4,11.3,1.2,16.9
		c1.7,11.3,3.9,22.4,2.9,34c-1.1,12.2-0.6,24.6-1.1,36.9c-0.2,4.5-1.1,9-1.7,13.5c-0.3,2.4-1.7,3.4-4.1,3.8
		c-7.8,1.2-15.6,2.6-23.3,4.1c-4.4,0.9-6.4-0.2-6.4-4.6c0-26.6,0.1-53.2,0.1-79.8c0-7.6,0-15.3,0-23.5
		c-175.9,8.1-351,13.1-526.4,25.5c0.3,3.1,0.9,6.4,0.9,9.7c0.4,15.2,0.4,30.4,1,45.5c0.3,6.4,1.5,12.8,2.4,19.2
		c0.8,5.4,0.4,6.3-4.8,5.9c-6.6-0.5-12.5,1.6-18.5,3.7c-5.9,2.1-7,1.8-8.8-4.1c-1.3-4.2-2.4-8.6-2.6-12.9
		c-0.4-12.1-0.4-24.1-0.4-36.2c-0.1-9.7,0-19.4,0-29.2c-4.7,0-9.1-0.2-13.6,0c-7.4,0.3-14.8,0.9-22.2,1.3
		c-43.9,2.2-87.8,4.2-131.6,6.5c-39.3,2.1-78.5,4.4-117.8,6.6c-22.5,1.3-45.1,3.2-67.7,3.6c-10.5,0.2-21,1.2-31.5,1.5
		c-16.3,0.5-32.5,2-48.7,3c-0.3,0-0.7,0.3-1.2,0.5c6.6,6.6,14.8,11.8,17.1,21.9c4,3,8.7,6,12.9,9.6c6,5.1,10.3,11.4,10.4,19.7
		c0,9.6-6.7,16.3-16.8,16.9c-13.8,0.8-27.8-9.8-30.7-24.2c-1.3-6.4-4.5-11-9.7-14.3c-9.1-5.8-18.4-11.2-27.6-16.8
		c-1.1-0.7-1.7-2-2.5-3.1c1.3,0.1,2.7-0.2,3.7,0.4c6.1,3.4,12.2,6.9,18.2,10.6c5.8,3.6,11.4,7.6,17.2,11.5
		c2.9-10.8,10.6-13.9,21.9-11.7c-1.6-2.4-2.9-5.2-5-7c-8.1-6.9-16.3-13.5-24.6-20.1c-4.5-3.5-9.2-6.7-13.7-10.2
		c-4.1-3.2-8.3-5.3-13.6-6.5c-7.6-1.8-15.3-4.8-21.2-10.7c6.1,2.2,12.2,4.2,18.2,6.7c3.3,1.4,5.8,1.8,8.3-1.1
		c5.7-6.6,12.2-12.8,17-20c6-9,10.8-18.8,16.5-29c-14.3-10.5-28.1-20.7-42.4-31.2c-2.4,2.8-4.6,4.9-6.2,7.2
		c-4.7,6.7-9.4,13.4-13.9,20.2c-3.4,5.2-6.4,10.7-9.6,16c-2.5,4.2-2.6,8.2-2.3,13.2c0.5,7.2,4.4,10.2,9.2,13.6
		c1.9,1.3,3.5,3,5.3,4.5c-0.7-0.2-1.5-0.3-3.5-0.8c14.4,11.7,15.4,26.3,12.4,42.2c4.4-5.1,8.2-10.3,9.8-16.9
		c0.2-0.9,0.2-1.8,0.6-2.7c0.2-0.5,0.9-0.8,1.3-1.2c0.4,0.5,1.2,1.1,1.2,1.6c0,1.5,0,3.2-0.5,4.6c-2.7,8.6-8.1,15.9-14.5,21.8
		c-2.3,2.1-4.7,4.4-7,6.6c-10,9.5-24.7,8.2-34.7-3.4c-2.2-2.6-3.5-6-5.6-8.8c-0.8-1.1-2.5-2.4-3.7-2.3c-23.7,1-47.5,2.4-71.2,3.2
		c-26.6,0.9-53.2,1.4-79.8,2c-1.8,0-3.6,0-5.8,0c-0.1,1.7-0.3,3.1-0.2,4.4c0.2,11.6,0.4,23.1,0.8,34.7c0.1,3.3-0.6,5.2-4.2,5.3
		c-5.2,0.2-10.3,0.7-15.5,0.8c-14.7,0.3-29.3,0.5-44,0.6c-3.4,0-7-0.6-10.3-1.5c-5.2-1.4-10.2-3.8-15.5-4.7
		c-4.7-0.8-9.7-0.1-14.6-0.1c-1.7,0-3.5-0.5-4.2-0.6c0.9-3.7,2.3-6.6,2.2-9.5c-0.6-12.2-2.2-24.3-2.4-36.5
		c-0.2-16.1,0.6-32.2,1-48.2c0-1.2,0.4-2.8,1.2-3.6c0.6-0.6,2.8-0.7,3.1-0.3c2.9,5,8,7,12.9,8.9c3.6,1.4,5.9,3.4,6.5,7.4
		c11.1-4.7,22.6-4.2,34.2-3.6c16.3,0.8,32.7,1.3,49,1.7c1.6,0,3.4-1.6,4.9-2.7c0.6-0.4,0.7-1.5,1.2-1.9c1-0.8,2.2-1.3,3.3-2
		c-0.2,1.1-0.1,2.5-0.6,3.4c-8.3,13.8-8.1,29.2-8.9,44.9c53.3-0.2,106-2.4,158.1-5.2c0-4.9-0.5-9.4,0.1-13.7
		c0.8-5.7,2.6-11.3,3.7-16.9c0.4-1.8,0.5-4.1-0.3-5.6c-3.7-7-9.1-12-16.8-14.8c-7.2-2.5-14.1-6-21.2-8.9c-3.4-1.4-6.7-2-10.4-0.6
		c-10.2,3.6-25.1-0.8-31.8-9.5c-6.2-8.1-6.2-17.2-2.1-26.2c3.6-8,10.2-12.3,19.1-12.6c4.7-0.2,8.5,1.9,11.7,5.2
		c1.4,1.5,2.7,2.1,5,2.5c5.4,0.9,10.7,3,14.3,7.9c0.8,1,2,2.1,3.2,2.3c19.2,3.5,35.1,12.9,49.1,26.2c0.3,0.3,0.6,0.4,1.1,0.7
		c0.4-0.7,0.9-1.3,1.3-1.9c6.1-9.7,11.7-19.6,18.3-28.9c4.1-5.9,3.9-11.8,2.8-18.1c-0.6-3.1-1.2-6.2-2-9.2c-0.2-0.8-1.1-1.4-1.8-2
		c-13.5-11.6-27.1-23-40.4-34.9c-9.6-8.5-17.2-18.5-18.1-32.1c-0.5-6.8-0.2-13.5,4-19.8c-1.8-0.4-3.5-0.7-5.2-1.2
		c-8.1-2.5-14.6-7.5-18.6-14.9c-9.3-17.5-20.7-33.6-32.2-49.6c-5.4-7.5-5.3-11.7,0.3-19c10.7-13.9,23.3-25.8,37.7-35.8
		c7.1-4.9,14.4-9.3,21.1-14.7c7.1-5.7,13.3-12.5,16.9-21c4.5-10.5-3.1-24.7-15.2-28.9c-15.2-5.2-29.7-3.3-41.8,7
		c-19.4,16.4-26.9,37.9-23.6,63c0.6,4.9,2.7,8.9,7.6,11c0.7,0.3,1.1,1.2,1.4,2.7c-1.1-0.1-2.3,0.1-3.3-0.3c-4.5-1.8-7.2-5.4-7.9-9.9
		c-1-6.2-2.1-12.7-1.4-18.9c2.5-22,10.7-41.2,30.4-53.5c12.2-7.6,25.3-8.7,38.9-4.3c18.2,5.9,24.7,25.6,13.5,41
		c-1.5,2-3,3.9-4.3,5.4c6.1,10.3,12.3,20.4,18.1,30.6c8.8,15.4,19.5,29.1,33,40.6c0.5,0.4,1,0.7,2,1.3c0-4.1-0.1-7.7,0-11.2
		c0.5-17.6,1.6-35.3,1.4-52.9c-0.6-46.9-1.2-93.7-3-140.6c-1.1-28.6-4.2-57.2-6.3-85.8c-0.2-3.4-1.3-4.8-5-5.2
		c-8.1-0.8-16.1-3.2-24.2-3.5c-13.8-0.6-27.7-0.4-41.6-0.1c-13.1,0.2-26.2,0.9-39.2,1.4c-5.5,0.2-11.1,0.5-16.6,0.8
		c-11,0.6-21.5-1.1-31-7c-2.1-1.3-3.9-1.9-6.4-1.1c-4.9,1.7-9.9,2.1-14.6-1.7c-1.7,3.9-2.8,7.9-5,11.1c-2,3-4.9,5.8-8,7.7
		c-18,10.8-37.5,15.6-58.5,13.7c-5.8-0.5-11.6-1-17.9-1.6c0,1.2,0,2.5,0,3.9c-0.1,2.6,0.1,5.2-0.4,7.7c-1.5,8-2.7,8.9-10.7,9
		c-5,0-10.1,0.4-15.1-0.1c-8.2-0.8-10.5-3.7-10.5-11.9c0-4.2,0-8.3,0.3-12.5c0.1-1.3,1.1-2.5,1.7-3.8c0.4,1.2,1.2,2.4,1.2,3.6
		c0.1,4.9,0,9.9-0.2,14.8c-0.1,3.3,1.4,5.4,4.4,5.9c4.1,0.7,8.2,1,12.3,1.2c2.6,0.1,5.2-0.5,7.8-0.3c3,0.2,4.6-1,4.9-3.7
		c0.5-4.3,0.8-8.7,0.7-13.1c0-0.9-2.1-2.4-3.4-2.7c-9.5-1.8-18.5-4.9-27-9.7c-8.6-4.9-15.5-11.1-19.1-20.7c-1-2.6-2.7-5.4-5-6.8
		c-4.1-2.5-3.8-5.9-2.4-9.1c3.8-8.7,7.4-17.5,12.2-25.6c15-24.9,38.9-36.5,66.5-40.6c12-1.8,24.7-1.1,36.8,0.6
		c6.6,0.9,12.8,5.8,18.7,9.7c3.9,2.5,7.3,5.9,10.3,9.4c6.3,7.6,7.1,17.4,9.3,26.5c0.9,3.9,2.8,5,6.2,4.4c2.4-0.4,4.9-0.9,7.1-1.9
		c9-4,18-8.1,26.8-12.5c5.9-3,11.7-4.9,18.5-5.2c13-0.5,25.8-0.6,38.7,1.9c6.4,1.2,13.2,0.6,19.8,0.6c15.5,0,30.9-0.1,46.4,0
		c3.3,0,4.1-1,3.8-4.4c-2.2-27.8-4.3-55.6-6-83.5c-0.9-13.9-1.1-27.8-1.5-41.6c-0.1-1.8,0.3-3.6,0.8-5.3c0.2-0.7,1.5-1.4,2.4-1.4
		c0.6,0,1.7,0.9,1.9,1.6c0.2,0.8-0.2,1.8-0.5,2.7c-0.4,1.2-1.5,2.4-1.5,3.5c0,8.6,0,17.1,0.5,25.7c1.3,22.9,2.9,45.9,4.5,68.8
		c0.7,10.1,1.6,20.2,2.5,30.3c0.1,0.9,0.4,1.7,0.7,2.9c9.2-0.6,18.2-0.8,27.2-2c21.2-2.8,42.3-6.4,63.6-9.1
		c18.5-2.4,37.2-3.8,55.7-5.9c12.6-1.4,25.2-3.9,37.8-4.7c10-0.7,20.2,0.8,30.3,0.7c28.7-0.5,57.4-1.4,86.1-2.1
		c10.8-0.3,21.5-0.4,32.3-1c5.1-0.3,10.2-2,15.3-2.4c4.7-0.3,9.4,0.5,14.1,0.6c2.3,0.1,4.7-0.2,7-0.1c6.1,0.2,12.2,0,18.2,0.8
		c4.9,0.6,9.2,6.6,9.4,11.6c0.1,2.9-0.1,5.7-0.3,8.6c-0.1,0.8-1,1.5-1.5,2.2c-0.4-0.8-1.2-1.6-1.2-2.5c-0.1-1.9,0.1-3.9,0.1-5.8
		c0.1-6.4-3.2-10.7-9.5-11.7c-3.9-0.6-8-0.3-12-0.4c-5.5-0.2-11.1-0.5-16.6-0.6c-2.8-0.1-5.9-0.4-8.5,0.3c-11.2,3.1-22.7,2.3-34,2.8
		c-25,1-50.1,1.9-75.1,2.3c-15.4,0.3-30.9-1-46.3-0.5c-13,0.5-26,2.6-39,4c-18.8,2.1-37.7,4.1-56.4,6.5c-12.7,1.6-25.4,4-38.1,5.5
		c-17.4,2.1-34.8,3.7-52.2,5.6c-1.9,0.2-3.8,0.5-6,0.8c0.4,3.5,0.7,6.6,1,9.9c0.8,0,1.3,0,1.8-0.1c2.9-0.9,6.3-1.3,7.6,1.6
		c1,2.2,0.4,5.4-0.2,8c-0.4,1.8-1.6,3.7-2.9,5c-3.8,3.7-4.7,7.9-3.7,13c0.9,4.8,1.3,9.8,1.6,14.7c0.1,2.9,1.1,3.7,4,3.7
		c12.7-0.1,25.5-0.3,38.2,0.1c20.1,0.7,40.2,2.3,60.3,2.8c14.6,0.4,29.3-0.4,44-0.5c7.9-0.1,15.9-0.2,23.8,0.2
		c36,1.8,71.9-0.4,107.8-2.6c19.6-1.2,39.2-4.3,58.8-6.6c2.6-0.3,5.2-0.4,7.8-0.4c12.5,0,24.9-0.1,37.4,0.1c2.9,0,3.8-1.1,4.4-3.6
		c2.9-11.6,2.6-23.4,2.5-35.2c0-2.3-0.2-4.7,0-7c0-0.7,0.9-1.3,1.3-2c0.5,0.6,1.4,1.3,1.5,1.9c0.3,4,0.7,8.1,0.4,12.1
		c-0.8,10.7-2,21.4-3.1,32.1c-0.4,3.7-2.6,5-6.5,4.9c-13.5-0.2-27-0.6-40.5,0.1c-9.9,0.5-19.8,2.6-29.7,3.7
		c-13.3,1.4-26.6,3.1-39.9,3.6c-29.4,1.2-58.9,1.9-88.3,2.4c-13.9,0.3-27.8-0.3-41.7-0.3c-15.2-0.1-30.4,0.4-45.5,0
		c-20.9-0.6-41.7-2.1-62.6-2.8c-10.9-0.4-21.8-0.1-33.2-0.1c0.6,6.6,1.3,12.6,1.7,18.6c1.7,22,4.2,44,5,66
		c1.6,45.8,2.5,91.6,3.4,137.5c0.2,10.5-0.6,21-0.8,31.5c-0.3,14.1-0.5,28.2-0.5,42.2c0,1.7,1.1,4,2.5,5.1
		c10.2,8.4,21.4,15.1,34.3,18.7c10.9,3.1,20,9.2,28.1,16.9c2.1,2.1,4.5,3.9,7,5.6c9.6,6.3,20.3,11.5,25.4,24
		c20.4-24.9,45.2-43,71.8-60.2c-5.8-4.5-11-9.5-17.1-13c-4.8-2.8-9.1-5.8-12.7-10c-4.4-5.2-8.9-10.5-14-15
		c-10.8-9.6-23.6-9.9-36.7-6.2c-4.3,1.2-8.3,2.6-12.8,2c-5.3-0.7-10.2,0.6-15,3.2c-1.5,0.8-3.6,0.5-5.4,0.7c0.1-1.8-0.3-3.8,0.2-5.4
		c8-23.2,20.6-44.2,31.8-65.8c2.2-4.2,5.5-7.9,8.5-11.6c3.3-4.1,3.2-7.5-0.9-10.8c-0.9-0.7-1.9-1.4-3-1.9
		c-16.4-8.1-45.3-7.6-60.8,11c-8.7,10.5-8.8,22.3,0.7,32.1c7.4,7.7,15.5,14.7,25.3,19.2c2.3,1,4.6,1.8,7,2.7c-0.1,0.5-0.1,1-0.2,1.5
		c-1.9-0.1-4.1,0.3-5.7-0.4c-12.8-5.5-23.5-14-31.9-24.9c-7.5-9.8-6.3-21.9,2-31.5c13.5-15.7,31-19.8,50.7-16.8
		c3.6,0.5,7.1,1.5,10.5,2.7c5.1,1.8,9.8,4.4,11.7,10.8c3.7-4.2,6.9-8.1,10.4-11.7c1.3-1.3,3.5-2.7,5.1-2.5c1.1,0.1,2.3,2.8,2.7,4.5
		c1.5,6.3,2.6,12.7,4.1,19c0.5,2,2.1,3.7,2.9,5.6c0.5,1.3,0.3,2.9,0.4,4.4c-0.3,0.3-0.7,0.6-1,0.9c11.9,4.4,23.8,8.7,35.8,13.1
		c0,0.3,0,0.5,0,0.8c-1.5,0.1-3.2,0.6-4.6,0.3c-4.1-1-8.3-2-12.3-3.5c-6.8-2.6-13.4-5.6-20.1-8.3c-0.7-0.3-2.1,0.1-2.6,0.6
		c-13.5,16.3-27.4,32.3-36.4,51.8c-0.7,1.6-1.1,3.4-1.9,5.6c3.8-0.7,7.1-1.2,10.3-1.8c16.4-3.1,29.5,2.7,40.2,14.9
		c2.9,3.3,5.5,6.9,8.5,10.2c2.1,2.2,4.6,4.2,7.1,6c6.3,4.7,13.1,8.8,19.1,13.9c3.3,2.8,5,7.3,8.1,10.3c6.3,6.1,13.1,11.7,19.8,17.5
		c2.6,2.2,5.4,4.1,8,6.3c0.6,0.5,0.7,1.7,1,2.6c-0.9-0.1-2.1,0.2-2.8-0.3c-4.6-3.4-9.1-6.9-14-10.6c-1.1,1.4-2.3,2.6-3,4.1
		c-4.4,9.5-8.9,19-13.1,28.7c-3.3,7.6-6.6,15.2-9.1,23.1c-2.9,9-5.4,18.2-7.5,27.4c-3.8,16.6-7,33.2-10.7,49.8
		c-0.8,3.6-2.2,7.2-3.7,10.6c-4.6,10.6-8.9,21.2-8.6,33.2c0.2,7.7-1.3,15.5-2,23.2c-0.2,2.2,0,4.3,0,6.8c1.4-0.1,2.2,0.1,2.8-0.2
		c8-3.6,16.4-3.9,24.8-3.3c12.5,0.9,24-1,35.2-7.4c8-4.6,17.1-7.4,25.9-10.4c3.6-1.2,7.8-1,12.2-1.4c-0.3-4.5-0.5-9.7-0.8-15
		c-1.1-17.1,2.3-33.1,9.4-48.8c7.8-17.4,18.7-32.9,28.8-48.9c9.5-15,19.7-29.6,28.8-44.8c4.9-8.3,8.4-17.5,12.1-26.5
		c3.3-7.8,2.4-16.6,0.1-23.8c-3.3-10.4-5.7-21.5-12.6-30.7c-4.2-5.6-9-10.2-14.9-13.4c-10.2-5.6-20.2-11.8-32.2-13.3
		c-5.6-4.8-12.9-2.8-19.1-5.2c-7.6-3-15.3-5.8-23-8.5c-5.5-2-7.3-2.9-10,5.1c-1.2,3.7-2.9,7.2-4.6,10.7c-0.5,1-1.8,1.6-2.8,2.4
		c0.1-1.3-0.2-2.7,0.2-3.9c1.7-4.8,3.9-9.4,5.4-14.2c0.5-1.5-0.2-3.6-0.9-5.2c-0.7-1.6-2.3-2.9-2.9-4.6c-2.6-6.4-7.6-8.4-13.9-8.4
		c-3.6,0-7.2-0.5-10.8-1c-1.2-0.2-2.2-1-3.4-1.5c0.1-0.5,0.2-0.9,0.3-1.4c1.5,0,3.1-0.1,4.6,0c4,0.4,8,1.1,12,1.2
		c5.9,0.2,10.4,2.6,12.8,7.9c2.4,5.3,6.3,7.7,11.9,9.2c8.4,2.2,16.3,5.9,24.5,8.6c4.9,1.6,10,2.8,15.1,3.8c1.5,0.3,3.7-0.3,4.9-1.2
		c3.7-2.9,7.8-5.7,10.2-9.5c2.8-4.3-2.5-7.9-3.2-12.2c-1.6-9.3-4.8-18.4-5.7-27.8c-1-11.2-0.4-22.6,4-33.3c1.2-3,3.8-5.5,5.9-8
		c0.4-0.5,1.6-0.4,2.4-0.5c0,0.8,0.3,2-0.2,2.4c-9.6,8.9-9,21.1-9.2,32.4c-0.3,21.5,6.1,41.2,19.3,58.4c5.6,7.2,13.4,10.9,22,13
		c4.6,1.1,9.4,2.1,14.1,2.3c3.3,0.1,6.7-1.3,10-2c1.4-0.3,2.9-0.7,4.5-1.1c-1.9,4.7-3.9,8.5-4.8,12.5c-1.3,5.6,0.1,10.6,5.5,13.8
		c2.4,1.4,4.9,2.9,7.6,3.8c3.7,1.3,6.9,1.5,10.3-2.1c5-5.2,11.1-9.3,17.1-14.1c-1.3-4.4-2.7-9-4.3-14.3c-2.4,2-4.4,3.7-6.5,5.4
		c-4.4,3.6-8.7,7.5-13.4,10.7c-1.6,1.1-4.5,1.3-6.4,0.7c-0.8-0.3-1.3-3.7-0.9-5.5c1.3-5.7,3.2-11.2,5-17.3c-1.7,0.7-3.3,1.6-5.1,2.1
		c-1.2,0.4-2.6,0.3-3.9,0.4c0.1-1.3-0.2-2.8,0.3-4c2-4.2,4.3-8.3,6.6-12.7c-0.4-0.2-0.9-0.5-1.3-0.9c-0.8-0.8-2.1-1.7-2-2.4
		c0.1-0.8,1.3-1.9,2.3-2.2c5.5-1.9,11.1-3.5,17.2-5.5c-2.2-2.1-4.4-4.1-6.4-6.4c-0.9-1-1.7-2.4-1.6-3.6c0-0.6,2-1.3,3.1-1.6
		c7.8-2.5,15.6-5,23.4-7.4c2.2-0.7,2.9-1.8,2-4c-0.9-2.2-1.8-3.8-4.5-2.4c-4.4,2.2-8.8,4.5-13.2,6.5c-1.1,0.5-2.5,0.5-3.8,0.8
		c0.1-1.3-0.2-2.8,0.3-3.9c0.9-2.1,2.3-4,3.7-6.3c-5.4,0.9-10.4,1.4-15.2,2.7c-7.3,1.9-13.4,0.4-18.3-5.3
		c-6.4-7.3-12.9-14.6-18.7-22.4c-2.6-3.5-4.1-8.1-5.6-12.3c-2.5-7.1-4.9-14.3-9.9-20.1c-1.1-1.3-2.9-2.3-4.6-2.8
		c-2.4-0.7-4-1.5-4.9-4.2c-0.6-2.1-2.3-4.2-4.1-5.4c-2-1.3-5-2.8-6.9-2.1c-1.7,0.6-2.9,3.8-3.6,6.1c-0.6,2-0.8,4.5-0.3,6.5
		c0.9,3.9,2.4,7.7,3.7,11.9c-1.5,0.8-4.1-0.1-5.1-3.1c-2.1-6.3-2.5-12.8-0.7-19.2c1.5-5.5,6.9-7.4,12.2-4.5c1.7,0.9,3.1,2.3,4.8,3.6
		c4.9-7.7,12.2-12.7,19.8-17.3c0.6-0.4,1.6-1,1.6-1.5c-0.3-5.7,3.7-4.5,7-4.4c0.9,0,1.8,0.2,2.7,0.4c5.4,1.3,5.4,1.3,10.5-1.2
		c-1.5-2.6-0.4-3.6,2.4-4c2.5-0.4,4.9-1.6,7.5-2.2c4.1-0.9,4.9,0,4.5,4.1c-0.2,2.7-0.1,5.5-0.3,8.2c-0.2,2.8,0.9,3.7,3.6,3.5
		c6.1-0.4,12.2-0.6,18.3-0.7c5-0.1,5.3,0.7,3.2,5.4c-1.8,4.1-3,8.6-4.8,12.7c-1,2.4-2.6,4.6-4.3,7.6c6.1-1.3,11.4-2.5,16.7-3.4
		c1.4-0.2,2.9,0.4,4.4,0.6c-0.4,1.4-0.6,2.9-1.1,4.2c-1.6,4-3.4,8-5.2,12.2c2.5,1.1,6.1-2.2,6.4,2c0.2,2.3-1.3,4.6-2.2,7.5
		c2.5-0.2,4.8-0.6,7.2-0.6c3,0,3.7,1.2,2.4,3.9c-3.8,8-8.8,15.4-13.8,22.7c-3.1,4.5-5.2,9.9-8.1,15.6c4.9-1.9,8.8-3.6,12.8-5
		c3.6-1.2,5.2,0.3,7,5.7c1,3,0.8,5.3-2.7,6.4c-8.1,2.6-16.2,5.4-25.1,8.4c2.5,2.3,4.8,4.3,6.9,6.6c1,1,1.3,2.6,2,3.9
		c-1.2,0.5-2.5,1.1-3.7,1.4c-4.9,1.2-9.8,2.2-15.9,3.6c4.9,2.5,3.6,4.2,1.3,6.7c-2.3,2.5-3.7,5.8-6.1,9.8c2.8-1,4.5-1.8,6.3-2.2
		c1-0.2,2.6-0.1,3.2,0.5c0.5,0.6,0.4,2.2,0.1,3.2c-1.8,5.5-3.8,11-5.6,16.6c-0.4,1.1-0.4,2.4-0.8,4.7c2.3-1.3,3.8-2,5-3
		c5.4-4.4,10.7-9,16.2-13.4c4.6-3.7,5.7-3.2,7.1,2.3c1,4,2.3,7.9,3.6,12.2c3.4-3.6,6.2-7.2,9.5-10.1c3-2.7,6.3-5,9.7-7
		c4-2.4,8.2-1.8,12.4,0.9c-0.5-2.5-1-4.6-1.3-6.8c-0.5-3,0.9-4.3,3.9-4.2c4.9,0.2,9.8,0.3,14.7,0.2c2.1,0,4.2-0.8,6.7-1.3
		c-1-4-1.8-7.5-2.7-11c-0.8-2.9,0-4.5,3.3-5.2c3.6-0.8,7-2.4,10.8-3.8c-2.3-3.9-4.3-7.3-6.2-10.8c-1.7-3.1-0.8-5.1,2.6-6.2
		c5.4-1.8,10.7-3.9,17.1-6.2c-4.6-4.2-8.5-7.7-12.4-11.1c-3.6-3.2-3.5-5.1,0.7-7.6c2.5-1.4,5.1-2.7,7.9-4.2c-2.6-4.1-6.5-4.5-9.9-6
		c-2-0.9-4-2-5.9-3.1c1.7-1.7,3.1-3.6,5-4.9c3.5-2.4,7.2-4.4,10.2-6.3c-2.9-3-5.6-6.2-8.7-8.9c-3.6-3-7.7-5.3-11.4-8.2
		c-3.4-2.6-3.1-4.5,1.4-6.7c-4-1.8-7.5-3.6-11.2-4.9c-3.5-1.2-4.6-3.3-3.8-6.8c0.7-3.2,2-6.3-2.2-8.8c-1-0.6-0.5-4.8,0.3-7
		c1.8-4.5,4.3-8.7,6.6-13c-0.3-0.2-0.5-0.5-0.8-0.7c-5.2,1.6-10.3,3.1-15.5,4.7c-2.2,0.7-4.5,1.4-6.8,1.9c-3.8,0.8-5.1-0.4-4.7-4.3
		c0.3-2.3,0.6-4.6,0.9-7.2c-3.5-0.1-7.1,0-6.6-4.6c0.3-3.1,1-6.1,1.7-10.3c-4,1.9-7.4,3.3-10.6,5c-2.1,1.1-3.9,2.5-5.9,3.8
		c-3.4,2.2-4,1.9-5.8-1.7c-3-6.3-6.2-12.5-9.8-19.8c-2.5,4.5-4.8,8.4-6.9,12.5c-1,1.9-1.7,4.1-2.5,6.1c-2,5.4-9.2,7.9-14.1,4.8
		c-0.5-0.3-0.7-1.2-1-1.8c0.6-0.3,1.3-0.9,1.9-0.9c2.9-0.1,6.5,1.1,8.6-0.2c2-1.2,2.2-5.1,3.5-7.6c2.7-5,5.4-10,8.4-14.9
		c2-3.2,3.5-2.9,5,0.5c3.2,6.8,6.4,13.6,9.7,20.8c3.4-2,6.3-4,9.4-5.5c3-1.5,6.2-2.7,9.4-3.5c3.5-0.9,4.5,0.4,3.7,4
		c-0.7,3.1-1.4,6.2-2.1,9.3c6.3,1.4,6.3,1.4,6.2,12.7c5-1.5,9.7-2.9,14.4-4.6c0.7-0.3,1.2-2.2,1.2-3.3c-0.8-13.9-1.4-27.7-2.6-41.6
		c-3.6-43.7-9.2-87.3-7.4-131.3c1.2-29.7,2.5-59.4,8.5-88.7c0.8-3.8,2.1-7.5,3.5-11.1c0.4-0.9,2-1.4,3.1-2c-0.1,1.1-0.1,2.3-0.4,3.4
		c-1.7,6.7-4,13.2-5,19.9c-5.5,36.4-8.1,73.1-6.6,109.9c1.1,28,4.2,55.9,6.2,83.9c1.3,17.7,2.3,35.5,3.4,53.2c0.1,2,0.3,4.1,0.5,6.5
		c2.3-0.7,4.1-1.3,5.9-1.7c0.9-0.2,2.5-0.2,2.8,0.3c0.5,0.8,0.5,2.2,0.1,3.1c-2.1,5.2-4.4,10.2-6.6,15.4c-0.7,1.7-0.7,2.8,0.6,4.7
		c1.5,2.1,1.7,5.6,1.3,8.3c-0.4,3.1,0.1,4.7,3.2,5.7c5.5,1.9,10.9,4.2,16.3,6.5c0.8,0.3,1.4,1.3,2,2c-0.9,0.6-1.7,1.5-2.7,1.6
		c-2,0.2-4,0.1-6.1,0.1c-0.1,0.4-0.2,0.7-0.3,1.1c3.3,2.4,6.5,4.7,9.7,7.2c1.3,1,2.4,2.3,3.7,3.4c2.5,1.9,5.1,3.6,7.6,5.5
		c1.3,1,2.4,2,3.6,3.1c-1.1,0.9-2.1,2-3.4,2.7c-4.5,2.5-9,4.9-14.3,7.8c4,1.6,7.2,2.5,9.8,4.2c1.9,1.2,4.5,3.6,4.4,5.2
		c-0.2,2-2.8,3.9-4.6,5.5c-1.6,1.3-3.6,1.9-6.2,3.2c3.5,3.1,6.7,6,9.8,8.7c6.8,5.9,6.7,7.3-1.3,10.8c-4.4,1.9-8.9,3.5-14.1,5.5
		c2.2,3.5,4.1,6.8,6.3,9.9c2.5,3.7,2.4,4.5-1.6,6.3c-3.6,1.5-7.2,3-11.4,4.7c0.7,2.7,1.3,5.8,2.1,8.9c1.3,4.9,1,5.5-3.8,6.9
		c-1.6,0.5-3.2,0.9-5.4,1.4c0.6,7.6,1.2,15.2,2,22.8c0.1,0.9,1.5,2,2.5,2.4c8.4,3.1,14.4,9.3,19.9,15.7c2.4,2.8,2.4,7.9,3,12.1
		c0.7,4.5,0.8,9,1.1,13.6c0.2,2.7,1.4,4.2,4.4,4c12.6-0.6,25.1-1.1,37.7-1.5c6.1-0.2,12.2,0.1,18.2-0.1c11.7-0.4,23.5-1.8,35.2-1.6
		c29.1,0.5,58.1,1.8,87.2,2.7c5.8,0.2,11.7,0,17.5-0.6c15.6-1.8,31.1,0.7,46.6,0.9c18.3,0.2,36.6-0.4,54.9-1.1
		c21.4-0.8,42.8-1.9,64.2-3c17.8-0.9,35.5-2.1,53.3-2.6c13.9-0.4,27.8-0.2,41.7,0c12.1,0.2,24.1,1.1,36.2,1
		c13.8-0.1,27.5-1.2,41.3-1.5c14.1-0.3,28.3-0.6,42.4-0.3c27.3,0.5,54.5,1.3,81.8,2.1c11.5,0.3,23.1,1,34.6,1.4
		c2.3,0.1,4.7-0.2,7-0.5c5.1-0.7,6.8-1.7,6.7-6.7c-0.1-8-1.1-16-1.9-24c-0.1-0.7-1.8-1.6-2.8-1.7c-13.6-1.3-27.1-2.4-41-3.6
		c-0.3,0.7-0.7,1.7-1.1,2.9c-0.6-0.2-1.4-0.3-1.5-0.6c-0.9-3.7-3.9-3.6-6.7-3.7c-27.1-0.5-54.2-1.5-81.4-1.5
		c-33.8,0-67.5,0.9-101.3,1.2c-13.4,0.1-26.8-0.6-40.1-0.3c-11.4,0.2-22.8,1.5-34.2,2.1c-14.8,0.7-29.6,1-44.4,1.7
		c-18.8,0.9-37.6,2.3-56.4,3.2c-15.5,0.8-31.1,1.6-46.7,2c-20.6,0.5-41.3,1.1-61.9,0.9c-13.2-0.2-26.4-2-39.5-2.6
		c-6.9-0.3-13.9,0.5-20.9,0.9c-3.4,0.2-6.7,0.6-10.1,0.6c-16-0.1-31.9-0.6-47.9-0.3c-9.6,0.2-19.1,1.4-28.6,2.2
		c-12.4,1.1-24.8,2.2-37.1,3.2c-0.9,0.1-1.9-0.6-2.9-0.9c0.8-0.7,1.5-1.5,2.4-2.1c0.5-0.3,1.3-0.3,1.9-0.3c12.1-1,24.2-2.1,36.3-3.1
		c11.9-0.9,23.7-1.8,36.1-2.7c-0.4-1.5-0.9-2.9-1.2-4.3c-1.4-7-2.8-14-4-21c-0.6-3.3,1-5,4.4-5.3c17.7-1.4,35.4-3,53.2-4.2
		c6.4-0.4,12.9-0.1,19.6-0.1c0.7-11.8,1.4-22.6,2.1-33.8c-9.8,0.5-19.4,1-29.1,1.5c-0.3,8.9-0.7,17.8-1.1,26.7
		c-0.1,1.2-0.9,2.3-1.4,3.4c-0.5-1.2-1.6-2.4-1.5-3.5c0.2-7.8,0.7-15.6,0.8-23.4c0-1.7-0.6-3.4-1.2-6c0.9-0.1,2.4-0.5,4-0.6
		c11.7-0.5,23.3-0.9,35.6-1.4c0-6.7,0-12.9,0-19.1c0-1.8,0-3.6,0.2-5.4c0.5-4.5,2.5-6.8,6.9-7.7c3-0.6,6.1-1.3,9.2-1.4
		c3.5-0.1,4.1-1.9,3.8-4.8c-0.6-5.4-1-10.9-1.5-16.3c-0.1-0.8-0.1-1.6-0.1-2.3c0.3-11.5-2.2-10.1,10.8-11.7c2.3-0.3,4.6-0.5,6.9-0.8
		c0.1-0.8,0.2-1.2,0.1-1.5c-3.7-9.8-3.9-20-3.4-30.3c0.3-6.9,0.2-6.9,7.5-9.5c-0.8-4.8-1.5-9.9-2.5-14.9c-0.4-2-1-4-1.9-5.9
		c-0.7-1.5-1.9-2.8-3.4-4.9c1.3-0.4,2.9-1.2,4.4-1.3c13.2-0.2,26.5-0.3,39.7-0.5c3.1-0.1,4.4,1.4,5.1,4.2c1.4,5.9,2.8,11.9,4.3,17.8
		c0.6,2.4,1.7,3.9,4.7,4.2c1.6,0.1,4,2.2,4.5,3.8c1.9,6.2,3.2,12.5,4.5,18.9c0.8,4.2,0.9,8.5,1.7,12.7c0.2,1,1.6,2.5,2.5,2.5
		c4.5,0,9-0.4,13.2-0.7c-1.9-6.6-4-12.9-5.3-19.3c-1-4.9-0.8-10.1-1.1-15.1c-0.2-3.2,1.2-4.8,4.5-4.9c6.1-0.1,12.2-0.3,18.3-0.5
		c1.5,0,3.1,0,5.1,0c0.2-8.7,0.6-16.9,0.6-25.1c0-2.8,0.3-4.2,3.5-4.6c26.4-3,52.8-6.2,79.5-7.1c28.4-1,56.7-3.6,85.1-5.4
		c4.9-0.3,9.9-0.3,14.8-0.5c2.6-0.1,4.1,0.8,4.6,3.5c1.9,9.8,3.8,19.6,6,29.3c0.3,1.1,2,2.6,3.2,2.8c4,0.6,8,0.6,12,0.8
		c2.3,0.1,3.5,1,3.6,3.5c0.1,11.5,0.5,23.1,0.6,34.6c0.1,6.6,0,6.7,7.3,5.9c-0.9-10.6-1.7-21.3-2.7-31.9c-0.4-4.3,0.1-5,4.5-5
		c3.3,0,6.7,0,10.7,0c-0.9-5.9-1.7-11.4-2.6-16.8c-0.5-3.1-1.3-6.1-1.8-9.2c-0.1-0.9,0.4-1.9,0.6-2.8c0.9,0.8,2.3,1.4,2.5,2.4
		c1.1,4.8,1.8,9.7,2.7,14.5c0.5,2.8,1,5.6,1.3,8.5c0.2,2.5,1.6,3.4,3.8,3.4c10,0,19.9,0,30.4,0c-0.8-3.7-1.6-6.7-2.1-9.7
		c-0.5-3.3-1-6.7-0.9-10c0.1-3.8-1.4-5-5-4.9c-6.6,0.3-13.2,0.3-19.9,0.4c-0.8,0-1.6,0.3-2.3,0c-0.9-0.4-1.7-1.1-2.6-1.7
		c0.8-0.5,1.6-1.3,2.5-1.3c7.1-0.2,14.3-0.4,21.4-0.3c8.5,0.1,8.4,0.5,9,9.2c0.3,5,1.6,10,2.4,14.9c0.3,2.2,1.4,2.9,3.7,2.9
		c8.5-0.1,8.1,0,8.9,8.6c1,10.6,2.6,21.1,4,31.6c0.1,0.9,1.5,2,2.4,2.3c2.8,0.7,5.6,1.1,8.4,1.5c2.6,0.4,3.9,1.9,3.8,4.5
		c-0.1,2.7-0.4,5.4-0.4,8.2c0.1,6,0.2,11.9,0.4,17.9c0.1,2.1,1.1,3.2,3.5,3.1c3.5-0.1,7,0.1,10.5,0.1c2.9,0,4.1,1.4,3.5,4.2
		c-0.7,3.7-1.9,7.3-2.3,10.9c-0.3,2.8,0.5,5.6,0.9,8.7c3.2,0,6.1,0,9.1,0c10.5-0.2,21-0.3,31.5-0.5c3.6-0.1,5.5,1.3,5.8,5.1
		c0.3,2.9,1,5.9,2.2,8.6c3.4,8.1,4.5,16.3,3.1,25c-0.2,1.5,0,3.1,0,5c2,0.2,3.7,0.4,5.5,0.5c3.6,0.2,7.3,0.3,10.9,0.4
		c3.3,0.2,4.5,1.8,4.8,5.2c0.7,6.8,2.1,13.6,3.2,20.3c0.3,1.7,0.6,3.3,0.8,5c0.7,7,0.7,7,7.7,7.8c8.4,0.9,8.4,0.9,9.7,9.1
		c1.3,7.9,2.9,15.8,0.5,23.9c-1,3.5-3.2,5-6.3,5.4c-3.6,0.5-7.2,0.7-10.9,0.6c-22.1-0.8-44.1-1.7-66.2-2.5c-1.2,0-2.3,0-2.7,0
		c-0.2,5.1-0.5,9.9-0.7,14.7c-0.3,9.5-0.9,19-0.7,28.4c0.2,10.6,1.5,21.2,1.8,31.8c0.2,9.6-0.5,19.2-0.4,28.8
		c0.2,11.5,1,23.1,1.2,34.6c0.2,7.3-0.4,14.5-0.2,21.8c0.3,14.5,1,29,1.5,43.5c0,0.5,0.2,1,0.3,1.5c6.7,0,13.3,0.1,19.9,0
		c29.1-0.6,58.2-1.3,87.2-1.9c2.8-0.1,5.7,0.5,8.5,0.7C1545.4,883.8,1545.4,884.6,1545.4,885.4z M1423.3,678.4c-11,0-21,0-31,0
		c-20.1,0.1-40.2,0.1-60.4,0.3c-12.8,0.2-25.7,1.1-38.5,1.1c-23.6-0.1-47.3-1.4-70.9-0.8c-35.8,0.9-71.6,3-107.4,4.7
		c-10.4,0.5-20.7,1.4-31.1,1.6c-14.4,0.3-28.8,0.9-43.2,0.1c-13.6-0.7-27.2-1.9-40.8-0.5c-5.1,0.5-10.4,0.5-15.5,0.4
		c-11.9-0.2-23.9-0.6-35.8-0.9c-10.6-0.3-21.3-0.2-31.9-0.7c-16.3-0.8-32.7-1.9-49,0.4c-1.9,0.3-3.2,0.5-3.2,2.9
		c-0.2,13-0.7,26-0.7,38.9c-0.1,16.3,0.7,32.7-0.1,49c-1,23.3,0.3,46.4,4.2,69.3c1.4,8.1,2.2,16.4,2.4,24.7
		c0.4,12.1,0.2,24.1,0.2,36.2c0,1.9,0,3.8,0,6.1c9.2-0.4,17.9-0.8,26.5-1.3c42.1-2.5,84.2-5.1,126.3-7.5c32-1.8,64.1-3.3,96.1-4.6
		c51.6-2.2,103.3-4.2,154.9-6.3c38.9-1.6,77.8-3.3,116.7-4.9c1.5-0.1,3-0.4,3.9-0.5c0.8-9.4,1.7-18.3,2.3-27.2c0.4-7,0.8-14,0.6-21
		c-0.2-8.7-1.4-17.3-1.4-26c-0.1-15.4,0.5-30.9,0.5-46.3c0.1-9.7,0.4-19.5-0.6-29.2c-1.8-17.9-3.7-35.7-0.1-53.5
		c0.2-0.9,1-1.8,1.5-2.6c0.5,0.9,1.2,1.8,1.3,2.8c0.2,1.1-0.3,2.3-0.3,3.5c-0.3,10.9-1.2,21.7-0.8,32.6c0.6,14.6,3.3,29.1,2.1,43.9
		c-0.5,5.8-0.5,11.7-0.4,17.5c0.4,20.9-1,41.7,1.2,62.6c1,9.2-1.8,18.8-1.9,28.2c-0.2,14.5,0.6,29.1,0.6,43.6
		c0,8.7-0.8,17.4-0.8,26.1c0.1,16.7,0.5,33.5,0.8,50.2c0,1,0.3,1.9,0.5,3c6.7-1.3,13-2.8,19.4-3.7c8.3-1.2,8.9-1.5,9.5-10
		c0.1-1.2,0.1-2.3,0.1-3.5c0-9.6-0.6-19.2,0.2-28.8c1.1-12.6,1.9-25-1-37.5c-2.3-10.1-2.2-20.5-2.1-30.9c0.1-10.4-0.8-20.7-1.1-31.1
		c-0.2-11.3-0.1-22.6-0.3-33.9c-0.2-14-0.6-28-0.8-42c-0.1-7.4,1.1-15-0.2-22.1c-3.5-20.5-0.7-40.9-0.3-61.4
		C1423.9,686.1,1423.5,682.6,1423.3,678.4z M300.1,594.2c-2.3,2-3.9,3.7-5.8,5c-9.7,6.7-19.7,12.9-29.3,19.8
		c-12.3,8.9-22.7,19.8-31.8,31.9c-3.2,4.3-3.3,7.6-0.4,12.2c0.8,1.2,1.6,2.4,2.4,3.5c11.2,15.3,21.7,31.1,30.9,47.7
		c5.4,9.7,14,16.1,25.7,14.8c15.1-1.7,29.6,0.6,43.7,5.4c13.5,4.6,26.5,10.9,40.1,14.9c21.6,6.4,40.2,17.8,57.7,31.5
		c5.6,4.4,11,9.3,17.1,12.8c11.9,6.8,22.7,15,32.4,24.7c1.9,1.9,4.7,2.9,7.2,4.1c2,0.9,4.2,1.4,6.2,2.3c0.5,0.2,0.6,1.2,1,1.9
		c-0.7,0.3-1.4,0.9-1.9,0.7c-5.6-2-11.3-3.4-16.1-7.9c-8-7.5-17-13.9-25.8-20.6c-4.5-3.4-9.7-6.1-14.1-9.6
		c-20.4-16.3-41.5-31.2-67.3-37.8c-1.6-0.4-3.1-1.4-4.7-1.9c-14.8-5.2-29.5-10.6-44.5-15.4c-8.6-2.7-17.6-3.2-26.6-2.1
		c-4.4,0.6-8,2.5-8.7,7c-0.8,4.8-1.3,9.8-0.8,14.7c1.3,12.6,9.2,21.5,18.2,29.4c10.4,9.2,20.9,18.2,31.5,27.2
		c5.3,4.5,10.7,9.1,16.4,13.2c19.7,14.3,39.6,28.4,59.4,42.7c6.6,4.8,13.8,8.2,21.7,10.3c3.5,0.9,7.1,2,10.2,3.8
		c7.7,4.4,15,3.9,22.3-0.9c5.6-3.7,11.3-7.4,17.1-10.9c1.3-0.8,2.9-0.9,5.1-1.6c-0.6,1.6-0.6,2.1-0.9,2.3
		c-8.8,5.4-17.6,10.9-26.6,16c-3.8,2.2-8.2,2.1-12.4,0.3c-5.2-2.2-10.5-4.5-16-6.1c-8.4-2.4-16-6-23-11.2c-1.8-1.4-3.7-2.7-6.2-4.4
		c-8.8,18.9-18.1,36.8-34,50.5c9.5,6.9,18.6,13.5,27.9,19.9c1.9,1.3,4.5,2.2,6.7,2.1c14.5-0.5,28.9-1.3,43.4-2.1
		c8.1-0.5,16.3-1.1,24.4-1.8c6.1-0.5,12-1.2,18.2-1.3c22.8-0.3,45.6-2.2,68.4-3.4c39.9-2.2,79.8-4.6,119.8-6.7
		c38.5-2,77-3.8,115.5-5.6c2.4-0.1,3.6-0.7,3.4-3.3c-1-18.3-1.3-36.6-2.9-54.8c-2.1-23.1-5.4-46.1-8-69.2c-2.8-25.1-5.3-50.3-8-75.5
		c-0.4-4.2-1.2-8.3-1.9-13c-2.6,1.9-4.6,3.4-6.5,4.9c-21.6,16.6-42,34.7-66.6,47.2c-10.9,5.5-21.7,9.8-34.2,7.8
		c-1.2-0.2-2.9,0.4-3.8,1.2c-7.7,7.3-15.7,14.4-22.9,22.2c-14.3,15.4-28.2,31.2-42,47c-3.6,4.1-6.5,9.1-6.9,14.8
		c-0.5,7.8-0.6,15.5-0.6,23.3c0,4.7,0.7,9.3,0.9,14c0.1,2.6-0.8,3.2-3.6,2.4c-3.2-0.9-7.1-1.7-10.1-0.7c-9.8,3.4-19.6,7-28.8,11.7
		c-8.6,4.4-17.4,6.7-26.9,6.5c-10.9-0.2-21.8-1.4-32.2,3.4c-2.9,1.3-5.2-0.1-5.4-3.5c-0.2-3.6-0.3-7.3-0.1-10.9
		c0.5-6.2,1.8-12.4,1.7-18.6c0-9.1,1.6-17.8,5.3-26.1c3.9-8.8,7.8-17.6,9.1-27.2c0.1-1.1,0-2.8-0.7-3.3c-4.8-3.9-7.6-8.8-8.8-14.7
		c-2.2-10.2-6.4-19.3-12.7-27.7c-10.7-14.5-20.7-29.5-31.3-44c-2.9-4-6.9-7.4-10.8-10.4c-5.8-4.6-12.4-8.2-17.9-13
		c-7.9-6.8-16-12.8-26.1-15.7c-17.5-5.1-31.8-15.3-45.2-27.3c-14.4-13-25.8-28-34.9-45C310.2,610.2,305.2,602.6,300.1,594.2z
		 M1249.6,567.4c-10.7,0-21.6,0.1-32.5,0c-2.9,0-3.9,0.9-3.8,3.8c0.5,11.5,0.4,23.1,1.5,34.6c0.9,10.5,3.1,20.9,4.7,31.5
		c25.2,0,50.3,0,75.7,0c0-4.7-0.1-9.1,0-13.5c0.2-4.1-1-8.5,1.3-12.5c0.9,1.1,1.3,2.3,1.3,3.5c0.2,6.5,0.2,13,0.5,19.5
		c0.1,1.2,1.3,3.3,2,3.3c8.1,0.2,16.3,0.2,24.8,0.2c-0.8-10-3.3-19.3,0.1-28.5c1,1.5,1.2,3,1.3,4.6c0.5,6.7,1,13.4,1.3,20.2
		c0.1,3,1.5,3.5,4.2,3.4c11.8-0.4,23.6-0.5,35.4-0.8c3.3-0.1,6.7-0.3,10.7-0.5c-1.3-10.2-2.6-19.9-3.8-29.5c-1.2-0.1-2-0.2-2.7-0.1
		c-19.1,0.7-38.1,1.3-57.2,2.1c-6.2,0.2-12.4,0.8-18.6,1.1c-0.9,0-1.8-0.8-2.8-1.3c0.9-0.6,1.7-1.5,2.6-1.7c1.7-0.4,3.6-0.3,5.5-0.4
		c0-5.2-0.1-10.1,0.1-15c0-0.8,0.7-1.6,1.1-2.5c0.6,0.7,1.6,1.4,1.7,2.2c0.3,3.3,0.7,6.7,0.5,10.1c-0.3,3.7,0.8,4.9,4.7,4.7
		c13.2-0.8,26.5-1.4,39.7-1.6c28.9-0.6,57.9-0.9,86.8-1.3c0.5,0,1-0.2,1.4-0.2c0.4-13.3,2.9-26.4-0.3-39.5
		c-15.3,0.4-30.4,0.8-46,1.3c0.3,5.6,0.4,10.9,0.8,16.2c0.4,5.7,1.2,11.4,1.6,17c0.1,0.8-1,1.7-1.5,2.6c-0.5-0.8-1.4-1.5-1.5-2.4
		c-0.7-5.5-1.2-11.1-1.7-16.6c-0.5-5.6-0.8-11.3-1.1-16.7c-14.6,0-28.8,0-43.5,0c1.7,12.5,3.3,24.4,4.9,36.4c-3.2,0.3-3.6-0.4-4-4.5
		c-1.2-10.5-2.6-21-3.9-32.1c-13.7,1.3-26.8,2.5-40.1,3.7c0.8,5.1,2.2,9.6,0.3,14.3c-1.2-1.4-1.7-2.8-2-4.3
		c-0.4-2.3-0.5-4.6-0.9-6.9c-0.5-2.7-2-4.5-5-4.5c-13.1,0.2-26.2,0.4-39.2,0.6c0.1,0.4,0.2,0.7,0.3,1.1c-0.7,1.1-1.4,2.1-2.1,3.2
		C1251.5,570,1250.7,569,1249.6,567.4z M158.8,298.1c0.3-0.3,0.7-0.6,1-0.9c-1-2-1.6-4.3-3.1-5.9c-8.2-8.9-17.4-15.5-30.3-15.9
		c-16.5-0.5-33-1.2-48.8,5.1c-11.4,4.6-22.6,9.6-31.5,18.2c-11.7,11.3-19.4,25.3-24.6,40.6c-0.5,1.4,0.1,3.5,0.9,4.8
		c1.9,3.2,4.7,6,6.1,9.4c3.5,8.4,9.4,14.2,17,18.9c11,6.8,23.3,9.4,35.6,11.5c22.3,3.9,44.1,2.6,65.1-7.4
		c7.7-3.7,12.7-9.2,16.6-16.5c8.3-15.7,9.3-31.9,4.6-49c-1.6-5.9-5.3-8.6-10.2-10c-9.6-2.6-19.4-4.8-29.2-6.8
		c-9-1.8-18.1-3.9-27.4-2.3c-19.2,3.3-36.2,11.7-51.7,23.2c-8.5,6.3-16.1,13.4-15.6,25.3c0,0.5-0.8,1.1-1.2,1.7
		c-0.6-0.4-1.4-0.8-1.6-1.4c-0.3-0.8-0.3-1.8-0.3-2.7c0.2-9.4,5.5-16.1,12.1-21.8c14.4-12.1,31-20.3,49-25.7c13.5-4,26.8-1.7,40,1.1
		C140.7,293.8,149.7,296,158.8,298.1z M797.1,681.1c-4.9,4.6-9.7,9.3-14.8,13.6c-2.3,1.9-2.8,3.8-2.4,6.7
		c2.4,18.5,4.6,37.1,6.7,55.6c2.6,23.1,4.7,46.2,7.4,69.3c3.3,28.6,7.5,57.1,6.6,86.1c0,0.7,0.1,1.5,0.2,2.8
		c13.2-0.7,26.2-1.4,39.2-2.1c1-19.1,1.5-37.4-1.4-56c-2.5-16.2-2.4-32.8-2.8-49.3c-0.5-20.5-0.3-41-0.2-61.5
		c0-11.5,0.1-23.1,0.9-34.6c0.6-8.8,2.2-17.6,3.3-26.6c-1.3,0-2.6,0-3.9,0c-10.4,0.3-20.7,0.6-31.1,0.9
		C800.6,686.1,797.3,685.3,797.1,681.1z M705.4,651.9c0,2.7,0.4,4.3-0.1,5.6c-2.4,6.8-4.9,13.7-7.6,20.4c-0.7,1.8-2.1,4.4-3.6,4.7
		c-2,0.4-4.5-0.9-6.6-1.8c-1.1-0.4-1.9-2-3-2.1c-5.6-0.5-10.3,3.9-11.3,9.6c-0.7,4.5-1.6,9-3.2,13.2c-4.8,13.1-11.4,25.3-19.8,36.5
		c-2.9,3.9-5.6,8.1-8.9,13c3.1,1.2,5.7,2.9,8.5,3.2c9,1.2,18,2.5,27,2.7c4.9,0.1,10.1-1.1,14.6-3c14-5.8,27-13.3,39-22.4
		c14.8-11.2,29.4-22.7,43.9-34.2c4.8-3.8,9.3-7.9,13.6-12.2c7.4-7.2,9.8-19.8,5.8-29.2c-0.5-1.1-1.3-2.3-2.3-3.1
		c-6.4-4.6-11.5-10.6-19.7-13.3c-12.3-4.1-24.6-5.9-37.4-5.8c-2.3,0-5.1,0.3-6.6,1.6c-3,2.7-5.9,4.9-9.7,6.7
		C713.3,644.4,709.2,648.8,705.4,651.9z M1259,494.9c0-3.3,0.1-6.1,0-9c-0.3-8-0.7-16.1-0.9-24.1c0-1.5,1.1-3,1.7-4.6
		c0.5,1.6,1.2,3.2,1.3,4.8c0.5,10.9,0.9,21.7,1.4,33.1c15.6,0,30.7,0,45.6,0c0-12.9,0-25.7-0.1-38.5c0-0.7-1.6-1.9-2.6-1.9
		c-22.8-0.9-45.6-1.8-68.5-2.4c-2.8-0.1-5.6,1.2-8.4,1.9c-2.1-0.3-4.2-0.9-6.3-0.7c-15.5,1.6-30.9,3.9-46.5,4.9
		c-20.3,1.3-40.7,1.6-61.1,2.4c-1.9,0.1-3.8,0-6.4,0c0,11.1,0.1,21.6-0.1,32.1c-0.1,3.8,1.5,4.5,4.9,4.4c10.6-0.4,21.3-0.4,31.9-0.6
		c1.4,0,2.8-0.1,4.1-0.2c0-11.9,0-23.5,0-35.2c0.8,0.2,1.5,0.2,1.7,0.4c4.8,11.3-1.2,23.4,2.7,34.8c15.5,0,31,0,46.8,0
		c0-11.8-0.1-23.1,0.1-34.3c0-1.5,1.1-3,1.7-4.5c0.4,1.6,1.3,3.2,1.3,4.8c-0.1,7.7-0.5,15.3-0.5,23c0,3.7,0.5,7.4,0.7,11.5
		C1222.2,496,1240.5,495.5,1259,494.9z M871.9,991.2c0-0.1,0.1-0.9,0-1.7c-3.4-15.8-3.1-31.7-2.6-47.7c0.1-1.8-0.1-3.6-0.1-5.4
		c0.2-10.7-2.5-21.2-1.9-32c0.6-10.9-0.3-21.8,0.1-32.7c0.7-15.6-3.8-30.6-4.9-46c-0.5-7.2-2.1-14.4-2.2-21.6
		c-0.2-10.9,0.6-21.8,0.6-32.7c0.1-24.7,0-49.3,0-74c0-4.2,0.4-8.4,0.6-13c-4.8,0-9.1,0.3-13.3-0.1c-4-0.4-5.7,1.4-6.2,5.1
		c-1.1,9.5-3,19-3.3,28.6c-0.6,18.3-0.4,36.6-0.5,54.9c0,7.8-0.2,15.6,0,23.4c0.5,16.6,1.2,33.2,1.9,49.8c0.1,3.1,0.3,6.2,0.8,9.3
		c2,12.3,3.8,24.6,3.1,37.2c-0.8,12.7-1.1,25.4-1.3,38.1c-0.2,14.7-0.1,29.3,0.2,44c0.2,7.6,0.1,15.3,3.8,21.9
		C855.2,994.8,863.3,993.1,871.9,991.2z M1398.8,536.1c0-7.4,0-14.3,0-21.1c0-2.2,0.4-4.5,0.1-6.6c-0.2-1.1-1.4-2.9-2.4-3
		c-5.6-1-11.2-1.9-16.8-3c-6.6-1.2-13.4-1.5-20.1-1.8c-16.9-0.7-33.7-0.9-50.6-1.6c-34.9-1.5-69.8-0.6-104.5,0.8
		c-0.7,1.1-1.3,2.1-1.9,3.1c-0.7-0.7-1.3-1.4-2.1-2c-0.7-0.5-1.5-1.1-2.2-1.1c-8.2-0.1-16.3-0.1-25-0.1c0,10.8,0,21.2,0,31.2
		c16.2,0,32,0,46.8,0c0.7-9.6,1.2-18.5,2-27.4c0.1-0.9,1.3-1.8,2-2.6c0.3,1,0.8,2,0.9,3.1c0.1,0.6-0.3,1.3-0.3,1.9
		c-0.3,7-0.7,14-0.9,21c-0.1,3,1.3,4.9,4.7,4.5c1.1-0.1,2.3,0,3.5,0.1c30.6,0.5,61.3,1,91.9,1.5c5.2,0.1,10.3,0,14.9,0
		c0-9.3,0-18.3,0-27.4c0-0.7-0.5-1.5-0.5-2.2c0-1,0.2-1.9,0.3-2.9c0.9,0.5,2.3,0.8,2.7,1.5c0.6,1.2,0.6,2.7,0.6,4.2
		c0.1,7.1,0,14.3,0.2,21.4c0.2,5.5,0.9,5.9,6.2,6.2c3.6,0.2,7.3,0.4,10.9,0.6C1372.5,534.9,1385.7,535.5,1398.8,536.1z M138.1,994.1
		c-0.3-28.6-3.6-56.5,4.4-84.8c-6.3,0-11.9,0-17.4,0c-22.6,0.1-45.4-4.6-67.1,1.7c0,8.3-0.3,16.2,0.1,24.1
		c0.8,15.9,1.8,31.8,3.1,47.7c0.7,8.5,3.4,10.8,12.1,11.5c1.3,0.1,2.6,0.1,3.9,0.1c15.7-0.1,31.4-0.2,47.1-0.3
		C128.6,994.1,133,994.1,138.1,994.1z M332.9,326.9c2.9-2.5,6.8-4.4,7.9-7.3c1.1-2.9-0.5-6.9-0.9-10.4c-3.5,0.2-6.3,0.4-9.1,0.4
		c-17,0-34,0.1-51-0.1c-5.4-0.1-11-0.2-16.2-1.5c-12.3-3.1-24.5-0.6-37.2-0.7c0,18.3,0,36.2,0,54.1c1.5,0.3,2.1,0.5,2.7,0.5
		c14.4-0.2,28.8,0.1,43.1-0.9c20.8-1.5,41.4-2.3,61.9,2.6c3.7,0.9,7.5,0.9,11.7,1.3c-0.8-7.9-1.5-14.9-2.3-21.9
		c-0.3-0.1-0.6-0.2-0.8-0.4c-2.3,3.1-4.5,6.2-7,9.6c-7.1-7.2-11.8-15.5-16.1-24c-0.8-1.5-0.5-4.5,0.5-5.6c1-1,3.9-1.2,5.5-0.5
		C328.3,323.2,330.4,325.2,332.9,326.9z M509,783.8c8-31.9,19.8-61.7,34.9-90c-4.3-4.7-9.1-9.3-13.2-14.4c-1.7-2.2-2.9-2.7-5-1.3
		c-5.7,3.9-11.2,8-17,11.6c-18.3,11.6-33.5,26.6-48.2,42.2c-1.1,1.1-2.1,3.6-1.6,4.7c1.8,4.1,3.9,8.2,6.5,11.9
		c4.9,6.9,9.9,13.7,15.3,20.2c7.9,9.6,13.3,20.3,15.8,32.6c0.4,2,1.1,4.1,2.1,5.8c1.3,2.2,3.1,4.1,4.7,6.1c0.3-0.2,0.7-0.3,1-0.5
		c1.7-8.4,3.3-16.7,4.6-23.1c-2.7-5.1-4.6-8.6-6.4-12.2c-1.9-3.7-3.5-7.6-5.3-11.3c-1.9-3.7-3.8-7.4-6-10.9
		c-2.1-3.3-4.6-6.4-6.9-9.6c0.4-0.4,0.8-0.7,1.2-1.1c1.1,0.8,2.6,1.4,3.4,2.5c3.4,5,7,10,9.9,15.3
		C502.6,769.4,505.7,776.6,509,783.8z M1313.2,536c-12.6-1.1-153.2-3-162.8-0.5c0,8.6,0.1,17-0.1,25.4c-0.1,3.1,1,4,4,4
		c11.2-0.1,22.3,0,33.5,0.1c1.1,0,2.2-0.2,3.2-0.2c0-7.8,0-15.3,0-22.9c0-1.4,0.4-2.8,0.6-4.2c0.8,1.4,1.8,2.7,2.5,4.2
		c0.4,0.9,0.2,2.1,0.2,3.1c0,6.5,0,12.9,0,19.9c6.3-0.6,12.3-0.1,18.6-1.5c5.8-1.3,12.4,0.5,18.6,0.7c6.3,0.2,12.6,0,18.9,0
		c0.4-7.6,0.7-14.6,1.2-21.6c0.1-1.9-1.3-4.6,1.9-5.5c0.3,2,1,4.1,0.9,6.1c-0.2,6.8-0.6,13.6-1,21c3-0.1,5.4-0.3,7.8-0.3
		c11.3-0.2,22.6-0.3,33.8-0.4c5.3,0,10.6,0.3,15.9,0c5.7-0.3,5.9-0.8,5-6.6C1315,549.9,1314.1,543,1313.2,536z M1071.8,534.5
		c-0.9-7.1-1.7-12.8-2.4-18.4c-0.4-3.7-0.8-7.5-0.9-11.2c0-0.8,0.9-1.6,1.4-2.4c0.5,0.7,1.5,1.4,1.6,2.2c0.9,7.3,1.7,14.7,2.5,22
		c0.3,2.3,0.6,4.5,0.9,7.1c31.9-0.7,63.4-1.3,95.2-2c0-11,0-21.3,0-31.9c-14.7,0-29.6,0-44.8,0c-0.1,1.7-0.4,3.2-0.4,4.7
		c0.2,7.6,0.5,15.3,0.7,22.9c0,1-0.8,2.1-1.2,3.1c-0.6-0.9-1.6-1.8-1.6-2.7c-0.4-6.5-0.8-12.9-1-19.4c-0.1-2.8,0.2-5.6,0.4-9
		c-11.6,1-22.6,0.7-33.6,1.1c-11.1,0.4-22.3,1.1-33.4,1.7c-11.2,0.7-22.4,1.5-33.5,2.3c-0.2,0.8-0.4,1.2-0.4,1.6
		c0.5,8.8,1,17.6,1.5,26.4c0.1,2.5,1.8,2.7,3.8,2.6c8.3-0.3,16.6-0.6,24.9-0.7C1058.1,534.5,1064.7,534.5,1071.8,534.5z M1165.9,640
		c-0.9-9.8-1.5-19.9-2.9-29.9c-1.4-10.6-3-21-1.8-31.7c0.4-3.4,0.6-6.9,0.9-10.9c-16.6,0.7-32.6,1.5-49.7,2.2
		c0.6,9.3,0.9,18.1,1.8,26.8c0.6,5.5,2,10.9,3,16.4c0.8,4.7,1.5,9.4,2.4,14.1c0.9,4.6,2.1,9.2,3.1,13.8c-0.6,0.2-1.2,0.5-1.7,0.7
		c-0.7-1.1-1.6-2.1-2-3.3c-0.7-2.2-1-4.5-1.5-6.8c-1.1-5.8-2.5-11.6-3.3-17.5c-0.5-4-1.5-5.5-5.6-5.7c-6.2-0.4-12.4-0.7-18.7-1.1
		c-1.8-0.1-3.5-0.3-5.7-0.5c0,12.9-2.4,25.5,2.4,38.1C1112.8,643.1,1138.7,641.6,1165.9,640z M1492,641.8c0.1-1.5,0.3-2.3,0.2-3
		c-1.4-9.9-2.9-19.7-4.5-29.5c-0.1-0.8-2-1.9-3.1-1.9c-10.1-0.6-20.2-1.2-30.3-1.5c-9.7-0.2-19.4-0.1-29.9-0.1
		c1,8.4,1.9,16.5,2.8,24.5c0.1,1.1-0.3,2.2-0.4,3.3c-0.9-0.8-1.8-1.6-2.5-2.5c-0.4-0.5-0.4-1.2-0.4-1.9c-0.6-6.2-1.3-12.4-1.7-18.6
		c-0.2-3.8-1.4-5.4-5.6-5.3c-11.7,0.4-23.4,0.4-35,0.6c-1.1,0-2.2,0.2-3.9,0.4c1.3,10,2.5,19.7,3.7,29c26.7,0.7,53.1,1.4,79.8,2
		c0-1.6-0.1-3.4,0-5.2c0.3-6.2,0.5-12.4,1.1-18.6c0.2-2.1-0.1-5,3.6-5.8c0,1.4,0.1,2.4,0,3.4c-0.5,8.1-1.2,16.3-1.6,24.4
		c-0.1,1.1,1,3,1.8,3.1C1474.5,639.9,1483,640.8,1492,641.8z M1040.4,537.6c0,6.1-0.2,11.4,0.1,16.7c0.1,3.7,0.7,7.5,1.2,11.2
		c0.4,3,2,4.3,5.4,4.1c12.3-0.7,24.6-1.1,36.9-1.7c2.3-0.1,4.6-0.4,6.2-0.6c0-8.9-0.1-17.4,0.1-25.9c0-1,1.3-1.9,2.1-2.9
		c0.3,1.1,0.8,2.2,0.8,3.2c0.1,7.1,0.1,14.2,0.3,21.3c0.1,3.2,1.8,4.6,5.1,4.3c4.5-0.4,9-0.6,13.5-0.8c8.5-0.4,17.1-0.8,25.6-1.2
		c3.1-0.2,6.1-0.4,9.5-0.6c0-10,0-19.6,0-29.4C1111.3,536.2,1075.8,536.9,1040.4,537.6z M1181.9,454.6c15.6-1.7,30-3.3,44-4.8
		c0.7-7.2,1.3-13.8,2.1-20.5c0.2-1.7,1.5-3.2,2.3-4.8c0.2,1.7,0.8,3.5,0.5,5.2c-0.9,6.5-2.6,12.9-0.7,19.1
		c19.8,0.4,39.2,0.8,58.8,1.2c0-1.7,0.3-3.4,0-5c-1.6-7.7-3.5-15.4-5-23.2c-0.5-2.8-1.7-3.6-4.4-3.4c-11,0.9-22,1.8-33,2.5
		c-20.6,1.2-41.2,2.2-61.8,3.3c-1.1,0.1-2.2,0.3-2.8,0.4C1181.9,434.7,1181.9,444.4,1181.9,454.6z M882.1,645.4
		c17.3-0.8,34.1,1.3,51.2-0.7c11.7-1.4,23.8,0.1,35.7,0.2c2.3,0,4.6,0,7.8,0c-0.7-11.4-1.4-22.4-2.1-33.5c-17.1,0.7-33.1,1.4-49.1,2
		c-0.6,0-1.3,0.2-2.1,0.3c-0.1,1.3-0.4,2.6-0.4,3.8c0.1,6.9,0.4,13.7,0.5,20.6c0,2,0,4.1,0,6.1c-0.8,0-1.6,0.1-2.3,0.1
		c-1.3-10.1-2.4-20.1-0.9-31c-13,1.2-25.5,2.2-37.9,3.6c-5.8,0.6-6.1,1.2-5.1,7.1c0.1,0.4,0.2,0.8,0.2,1.1
		C878.9,631.7,880.4,638.3,882.1,645.4z M679.9,507.2c-7.2-9.4-14.2-18.5-21.2-27.7c-0.3-0.4-0.6-1-1-1.2c-1.1-0.4-2.7-1.2-3.3-0.7
		c-5.8,4.3-11.7,8.5-17,13.4c-3.1,2.9-1.4,7.2,2.6,8.8c1.6,0.6,3.1,1.9,4.2,3.2c5.2,6.3,8.2,13.7,10.7,21.4c1.3,4,2.7,8.3,5.2,11.6
		c5.8,7.6,12.2,14.8,18.5,22c4.2,4.8,9.4,6.6,15.7,4.4c2-0.7,4.3-0.8,6.5-1.1c6.7-0.9,13.4-1.6,16.1-9.4c0.2-0.6,0.6-1.2,1-1.7
		c1.9-2.3,1.3-3.8-0.8-5.8c-6.4-6.2-12.6-12.6-18.9-19c-2.6-2.7-5.1-5.4-8.5-8.8c0.2,2,0.3,2.7,0.4,3.4c0.6,4.5,1.6,9,1.8,13.5
		c0.4,7.4-5.1,11.9-12.4,10.5c-6.1-1.1-11.3-4-13.6-9.8c-2-5.2-3.2-10.9-4.2-16.4c-0.3-1.8,0.9-4,1.7-5.8c0.2-0.5,1.5-0.5,2.3-0.8
		c0.1,0.7,0.4,1.5,0.2,2.1c-2.6,7.5-0.1,14.3,3.4,20.8c2.5,4.6,7,6.5,11.9,7.2c4.2,0.6,7.7-2.5,7.6-6.8c-0.2-4.4-0.8-8.8-1.5-13.1
		c-0.8-4.5-3-8.3-7.2-10.6C677.5,509.4,677.8,508.2,679.9,507.2z M349.1,934.1c-0.4-2.9-0.7-5.9-1.2-8.8c-1.4-8.2-7-13.6-12.6-19
		c-7.5-7.2-20.1-6.7-26.3,1.7c-2.1,2.8-3.9,6-5,9.3c-3.8,10.8-3.3,21.7,1.1,32.2c2.8,6.5,8,10.8,14.4,13.5
		c10.9,4.5,24.8-3.4,27.6-15.7C348,942.9,348.4,938.5,349.1,934.1z M1036.5,538c-0.9,0-1.8,0-2.7,0c-14.2,0.8-28.5,1.5-42.7,2.6
		c-7.5,0.6-14.9,1.9-22.4,2.9c-2.6,0.4-5.7,0.9-5.8,4.1c-0.3,8.2-0.1,16.5-0.1,24.4c10.6,0,21.3,0,32.4,0c-0.2-1.8-0.3-2.8-0.4-3.8
		c-0.6-7.5-1.3-15-1.8-22.5c-0.1-1.1,1-2.3,1.5-3.4c0.5,1.2,1.3,2.3,1.4,3.5c0.7,7.4,1.3,14.7,1.8,22.1c0.2,2.7,1.2,3.8,4.1,3.6
		c11-0.5,22.1-0.8,33.1-1.2c1.5-0.1,3-0.4,3.7-0.5C1037.9,559.1,1037.2,548.8,1036.5,538z M1319.5,561.7c32.1-0.4,63.8-0.8,94.6-1.2
		c0.6-7.3,1.2-14,1.8-21c-16.7-0.5-33.9-1.1-51.1-1.6c0.9,6.1,1.8,11.8,2.6,17.4c0.1,1.1-0.4,2.3-0.6,3.4c-0.7-0.9-2-1.7-2.1-2.6
		c-0.7-3.9-1.2-7.9-1.7-11.9c-0.6-5.5-2-6.8-7.3-7c-10-0.4-20-0.9-29.9-1.3c-2.8-0.1-5.6,0-9.2,0
		C1317.4,544.8,1318.5,553.5,1319.5,561.7z M1058.7,499.1c-2.1-11-4.1-21.5-6.2-32c-0.4-2.2-1.5-3.6-4.1-3.7
		c-16.9-1-33.7,0.1-50.4,2.9c-1,0.2-2.5,1.6-2.5,2.5c-0.3,10.6-1.2,21.3,2.8,31.6c1,2.5,1.9,3,4.4,2.8c5.5-0.6,11.1-0.9,16.7-1.3
		C1032.1,500.9,1044.7,500,1058.7,499.1z M1102.5,431.5c-0.4,7.8-0.7,15.2-1.2,22.6c-0.2,2.8,0.5,4,3.6,3.7
		c4.5-0.4,9.1-0.3,13.6-0.4c6.6,0,13.2,0,20,0c-0.7-8.4-1.5-16.1-2.1-23.8c-0.1-1.2-0.1-2.4,0.1-3.6c0-0.2,1.6-0.5,1.6-0.4
		c0.6,1.2,1.2,2.5,1.3,3.8c0.5,5.2,0.7,10.4,1.3,15.5c1,8.3,1.1,8.3,9.4,7.9c9.7-0.5,19.4-1.1,28.3-1.6c0-10.7,0-20.5,0-30.5
		C1152.7,424.4,1127.8,428.8,1102.5,431.5z M1384.5,499.5c-0.4-3.3-0.7-6.1-1.1-8.8c-1.1-8.3-2.4-16.7-3.1-25
		c-0.3-3.6-1.4-4.6-4.6-4.1c-1,0.1-2,0.2-2.9,0.3c-0.3,1.6-0.5,2.9-0.7,4.2c-0.4,0.1-0.8,0.2-1.1,0.3c-0.8-1.5-1.6-3-2.4-4.4
		c-16.4,0-32.6,0-48.5,0c0.4,9.9,0.8,19.3,1.2,28.7c0,0.4,0.2,0.8,0.2,1.1c0.5,3.1,2,4.6,5.5,4.6c8-0.1,16.1,0.1,24.1,0.6
		C1361.9,497.7,1372.8,498.6,1384.5,499.5z M474.1,534.4c-1.5,1.6-2.5,2.6-3.4,3.7c-3.8,4.6-7.1,9.7-11.4,13.6
		c-5.6,5-9.7,10.8-13,17.2c-7.9,15.3-15.9,30.7-23.5,46.1c-2.6,5.3-4.4,11.1-6.5,16.6c0.3,0.2,0.5,0.5,0.8,0.7
		c6.5-4.9,13.9-4.6,20.9-4.1c8.7-25.9,27.1-44.9,42.8-64.5C478.5,553.9,476.4,544.6,474.1,534.4z M1031.4,647.1c0-8.3,0-15.9,0-23.5
		c0-3,0.1-6-0.2-8.9c-0.7-7.4-0.7-7.4-8.2-6.8c-1.2,0.1-2.4,0-3.5,0.2c-2.5,0.5-5,1.2-7.4,1.7c-1.1,0.2-2.4-1-3.7-0.9
		c-10.3,0.6-20.7,1.5-30.4,2.2c0.4,10.7,0.6,21,1.2,31.3c0.1,2.6,1.6,4.4,4.8,4.5c14.1,0.1,28.3,0.4,42.4,0.6
		C1028.3,647.5,1030.2,647.2,1031.4,647.1z M1035,646.9c16.6-0.5,32.3-1,48.8-1.6c-4.5-13.3-2.6-26-2.3-38.5c-16.3,0-32.2,0-47.7,0
		C1034.2,620.6,1034.6,633.6,1035,646.9z M956.3,576.2c-0.7,10.3-1.3,20.1-2,29.9c-0.1,2.1,0.4,3.4,3.1,3.2
		c12.5-0.9,25.1-1.7,37.6-2.6c4.9-0.3,9.7-0.8,14.6-1.2c-0.2-4.9-0.4-9.3-0.7-13.7c-0.2-4-0.3-8.1-0.9-12c-0.4-2.2-0.2-5.5-4.1-5.3
		C988.3,575.1,972.7,575.6,956.3,576.2z M36.9,897.8c-0.3,0.4-0.5,0.6-0.5,0.8c-0.2,16.1-0.8,32.1-0.5,48.2
		c0.2,10.7,1.8,21.4,2.5,32.1c0.2,2.7-0.4,5.5-0.5,7.8c7.3,0.8,14.1,1.5,21.2,2.3c-0.4-2.5-1.1-5.3-1.2-8.1
		c-1.3-24.2-2.6-48.4-3.9-72.6c-0.1-0.9-0.3-2.3-0.9-2.6C47.7,903,42.4,900.5,36.9,897.8z M1010.9,574.5c0.6,9.7,1.2,18.9,1.7,28
		c0.1,2.1,0.9,2.9,3.1,2.7c11.6-0.7,23.3-1.3,35-1.8c4.2-0.2,8.5,0,13.1,0c-0.6-11,1.3-21.5-1.7-31.7
		C1044.8,572.7,1028,573.6,1010.9,574.5z M220.1,856.8c-0.1,7.7,1.9,13.4,6.1,16.6c13.8,10.6,28.1,11.2,39.3-3.6
		c3.7-4.9,6.9-9.4,2.2-15.9c-3.1-4.4-8.4-8.7-13.7-8.9c-1.6-0.1-3.7-1-4.8-2.2c-5.1-5.4-10.9-6.8-17.6-3.6
		C223.7,843.1,220.5,850,220.1,856.8z M325.9,897.7c-1.4-4.2-2.7-8.1-4.1-11.9c-0.6-1.7-1-3.8-2.2-5c-11.1-11.2-24.4-18.7-39.3-23.5
		c-2.3-0.7-4.7-1-7.6-1.6c2.1,10.9-5.3,16.6-11.4,23.4c7.3,3.1,14.3,6.6,21.6,9.1c9.6,3.3,17.3,8.7,22.1,17.7c0.1,0.2,0.4,0.2,1,0.5
		C311.1,899.9,318,897.3,325.9,897.7z M189.5,323.6c0.2,2.9,0.7,5.5,0.6,8c-0.3,6.8-0.7,13.7-1.3,20.5c-0.2,2.7,0.9,4,3,5.1
		c7.8,4.3,16.2,6,25,6c4.6,0,6.9-2.3,6.8-7c-0.2-13.2-0.5-26.4-0.7-39.6c0-2.8,0.3-5.5,0.6-9.3C211.6,313,200.4,318.4,189.5,323.6z
		 M1066.5,570.6c0,11.6,0,21.9,0,31.9c15.6,1,30.3,1.9,45.2,2.8c0.1-1.5,0.3-2.5,0.2-3.5c-0.6-9.4-1.2-18.8-2.1-28.2
		c-0.1-1.1-2-2.8-3.1-2.9C1093.1,570.6,1079.5,570.6,1066.5,570.6z M400.6,975.4c0.2,15.6,11.8,28.6,25.4,29.4
		c6.2,0.4,12.1-1.2,15.3-7.2c3.1-5.9,2-12-1.9-17.2c-2.6-3.4-6.1-6.2-9.5-9c-2.5-2-5.7-3.1-8.2-5.1c-4.6-3.8-9.7-4.5-14.8-2.2
		C401.9,966.5,400.7,971.5,400.6,975.4z M982.4,538.1c12.7-0.9,25-1.8,37.7-2.7c-0.6-10.4-1.2-20.2-1.9-30.8
		c-12,1.2-23.6,2.2-35.1,3.5c-0.9,0.1-2.3,2.1-2.3,3.1C981.2,520.2,981.8,529.1,982.4,538.1z M1105.5,460.7
		c-1.5,0.4-2.9,1.1-4.3,1.1c-8.2,0-16.5-0.1-24.7-0.2c-2,0-3,0.6-3.1,2.9c-0.2,11.1,1.7,21.7,6.8,31.6c0.4,0.8,1.4,1.8,2.1,1.8
		c7.6-0.2,15.2-0.5,23.3-0.8C1105.5,484.9,1105.5,473.1,1105.5,460.7z M597.9,827.3c21.2-22.9,42.2-45.4,62.7-67.5
		c-6.4-1.7-13.5-3.6-21.4-5.7C626.1,778,607.6,799.9,597.9,827.3z M1466.9,602.9c-0.2-3.8-0.4-7.3-0.5-10.9c0-1.1,0-2.2,0-3.4
		c0.1-1.7,0.8-3.4,0.4-4.9c-1.6-6.3-3.4-12.5-5.4-18.6c-0.3-0.9-1.4-2.1-2.1-2.1c-6.5-0.2-12.9-0.1-18.8-0.1c0,13.4,0,26.6,0,40.1
		C1449.3,602.9,1457.8,602.9,1466.9,602.9z M1003.2,461.8c13-0.8,26.2-1.6,39.6-2.4c-1.5-6.5-3-13.3-4.8-20.1
		c-0.2-0.8-2.1-1.7-3.3-1.8c-7.8-0.2-15.6-0.3-23.3-0.2c-4.2,0-8.5,0.5-13,0.7C1000.1,446.3,1001.6,453.9,1003.2,461.8z M1165,568.2
		c-0.1,1.7-0.3,3.5-0.3,5.3c-0.1,8.5-0.2,17.1,0,25.6c0,1.2,1.4,3.3,2.2,3.3c7.7,0.2,15.5,0.2,23.3,0.2c0-3.3,0-6,0-8.6
		c0-6.7,0.2-13.5,0.1-20.2c0-2.2-0.1-5.2-3-5.3C1179.8,568,1172.5,568.2,1165,568.2z M1191,640c1.7-11.2,1.7-21.8-0.2-32.3
		c-0.1-0.8-1.1-1.9-1.8-1.9c-7.6-0.1-15.2-0.1-23-0.1c1,12,2,23.5,3,35.4C1176.2,640.7,1183.6,640.3,1191,640z M658.2,472.1
		c17.3,27.3,40.1,49.6,62.6,72.5c4.8-5.8,4.5-5.6,0.2-10.4c-10-11.2-21.4-21.1-29.6-34c-4.4-6.9-10.4-12.9-16-19
		C670.8,476.4,664.7,474,658.2,472.1z M702.8,656.9c-11.1,0.9-18.7-3.7-26-9.7c-5.5-4.6-11.8-8.1-18.5-9.6
		c3.9,8.6,7.9,17.2,11.8,25.7c1.5,0.8,3.3,1.6,5,2.6c1.8,1.1,3.3,2.6,5.1,3.4c4.1,1.9,7.2,4.7,9.4,8.7c0.5,1,2.2,1.8,3.4,1.8
		c0.7,0,1.6-1.7,2.1-2.7c0.9-2,1.5-4.1,2.3-6.1C699,666.5,700.8,662.1,702.8,656.9z M1211,604.7c-5.5,0.3-11.2,0.5-16.3,0.8
		c0,11.9,0,22.9,0,34.1c7-0.7,13.8-1.3,21.7-2.1C1214.6,626.5,1212.9,615.9,1211,604.7z M1210.5,568.1c-6.6,0-12.3,0-17.1,0
		c0,11.7,0,22.8,0,34.3c6.4-0.4,12-0.7,17.1-1C1210.5,590,1210.5,579.1,1210.5,568.1z M685.2,467.6c-3.5,1.3-6.6,2.4-9.5,3.6
		c-3.6,1.5-3.6,2.8-0.8,5.5c3.5,3.3,6.9,6.6,10,10.3c4.8,5.7,9.3,11.7,14.7,18.6c4-8.6,7.8-16.5,12-25.4c-2.6,0-3.9-0.1-5.1,0
		c-4.8,0.2-9.6,0.6-14.4,0.7c-5.7,0.2-7-1.1-6.9-6.7C685.2,472.3,685.2,470.4,685.2,467.6z M676.8,629.2
		c-22.8,0.1-42.6-5.4-53.4-28.4c-4.1,3.8-7.8,7.1-11,10.1c9.3,4.3,18.6,8.5,27.7,13c5.6,2.8,10.8,6.5,16.5,9.4
		c6.2,3.1,12.6,5.7,18.7,8.4C675.8,637.4,676.3,633.3,676.8,629.2z M732.4,629.6c12.5,1.6,24.8,3.1,37.5,4.7
		c-0.5-6.5-1-13.6-1.6-20.6c0-0.5-0.9-1.5-1.4-1.5c-3.7-0.1-7.3-0.1-11.2-0.1c0.1,0.7,0,1.6,0.4,2.2c2,3.9,4.2,7.7,6.2,11.6
		c0.5,1,0.5,2.3,0.7,3.5c-1.3-0.2-2.9,0-3.8-0.7c-2.2-1.7-4-4.1-6.3-5.7c-2-1.4-4.8-3-6.8-2.6C740.3,621.6,735.8,625.2,732.4,629.6z
		 M170.2,354.9c2.6,0.4,5.8,1.1,9.1,1.3c3.2,0.2,6.4-2.9,6.6-5.8c0.4-6.6,0.7-13.1,1.2-19.7c0.2-3-0.1-5.2-4.1-4.1
		c-2.1,0.6-4.4,0.4-6.5,1.1c-1.1,0.4-2.4,1.8-2.6,3C172.5,338.3,171.5,346.1,170.2,354.9z M341,324.3c-1.2,0.8-2.4,1.5-3.4,2.4
		c-4.1,3.7-5.4,3.7-9.7,0.3c-1.5-1.2-3.3-2-5-3c-0.3,0.3-0.6,0.7-1,1c2.7,8.3,8.5,14.8,12.8,22C342.2,341.1,344.8,333.9,341,324.3z
		 M721.1,502.1c-7.2,1.8-13.7,3.4-21.4,5.3c6.7,6.9,12.7,13.1,19.1,19.7c1.2-2.6,2.1-4.6,3-6.5c-1.9,0-4.3,0.5-4.6-0.1
		c-0.7-1.4-0.9-3.5-0.5-5C717.8,511.3,719.4,507.2,721.1,502.1z M671.9,667.8c0.4,4,0.8,8.1,1.2,11.9c3.5-1.5,6.7-3,10.4-4.6
		C679.4,672.5,675.5,670,671.9,667.8z M345.8,333.4c0.4,0.1,0.8,0.3,1.2,0.4c1.6-3,3.4-5.8,4.5-8.9c0.3-0.8-1.3-2.4-2-3.6
		c-1.6,0.9-4.4,1.7-4.5,2.8C344.6,327.1,345.4,330.3,345.8,333.4z M356,829.8c-2.9-2-5.7-4-9.1-6.3c1.1,4.8,2.1,8.9,3.1,13
		C351.9,834.3,353.8,832.1,356,829.8z M729.4,528.4c-3.1,0.5-5.4,0.8-8.1,1.3c1.7,1.9,3.2,3.5,4.9,5.4c0.8-1.4,1.2-2.1,1.6-2.9
		C728.2,531.1,728.6,530.1,729.4,528.4z"/>
	<path d="M1293.8,100.2c-6.6-5.1-12.3-9.8-18.4-13.9c-17.9-12.2-34.9-25.7-51.2-40c-1.3-1.1-3.8-1.5-5.6-1.3
		c-18.9,2.5-36.2,9.9-53.6,17c-22.7,9.3-43.7,21.7-64.2,35c-10.7,7-18.1,17-25.2,27.3c-5.7,8.2-11.2,16.6-16.8,24.8
		c-2.3,3.3-2,6.2,0.2,9.6c5.6,8.7,14.2,14,22.5,19.3c24.5,15.8,47.1,33.6,65.7,56.2c7.8,9.5,17,18.2,21.9,29.6
		c3.7,8.5,6.2,17.5,9.2,26.4c0.3,0.9,0.3,2.1,0.2,3.1c-0.2,2.7-1.8,3.4-3.9,1.7c-1.3-1.1-2.3-2.5-3.2-3.9c-1.3-2.1-2.9-4.1-3.6-6.4
		c-4.3-14-15.1-22.5-26.1-30.5c-9.1-6.6-16.7-14.5-24.4-22.7c-19.8-21.2-39.4-42.8-63.8-59.2c-10.5-7-18.7-16.4-25.5-27
		c-1.6-2.5-3.9-5.4-1.5-8.2c2.4-2.8,5.6-0.8,8.2,0.4c7.1,3.2,13.9,7,19,13.3c5-7.4,10.2-14.3,14.5-21.8c13.4-22.7,33.2-38,55.9-50.5
		c22.9-12.5,46.3-23.5,71.1-31.4c8.1-2.6,16.6-4.1,25-5.8c1.5-0.3,3.8,0.4,4.9,1.5c20.2,18.6,42.9,34.1,64.8,50.4
		c2.1,1.5,4,3.4,5.7,5.2c1.9,2,1.7,3.8-1.2,4.6c-2.1,0.6-4.3,1.1-6.4,1.6c-19.4,4-36.4,13.3-52.9,23.8
		c-24.4,15.6-48.5,31.8-69.7,51.7c-8,7.5-14.9,16.3-21.9,24.7c-2.1,2.5-3.1,5.9-4.8,8.8c-0.5,0.8-1.7,1.2-2.5,1.8
		c-0.1-0.9-0.6-2-0.3-2.7c1.8-3.6,3.2-7.6,5.7-10.5c7.8-9.1,15.4-18.7,24.4-26.7c28.4-25.4,59.6-46.9,93.5-64.2
		c9.1-4.7,19.5-6.8,29.4-10C1290.2,101.1,1291.5,100.8,1293.8,100.2z M1174.1,290.1c-2.1-15-7.7-28.2-17.3-39.5
		c-9.7-11.5-19.5-23-30.1-33.7c-13.7-13.9-29.8-24.9-46.1-35.6c-7.4-4.9-15.6-8.7-20.8-16.4c-2.4-3.5-4.9-7-7.4-10.5
		c-5.8-8-14.1-12.1-23.3-15c0.3,1.8,0.8,3.3,1.7,4.7c6.5,9.8,14,18.7,23.8,25.4c26.6,18.2,48.2,41.6,69.6,65.3
		c3.6,4,7.6,7.9,11.7,11.3c6.3,5.3,12.9,10.4,19.5,15.4c5.8,4.4,10,10,12.8,16.8C1169.9,282.4,1172.2,286.2,1174.1,290.1z"/>
	<path d="M637.2,144.9c26.6,0,47.4,0,68.2,0c16.6,0,32.7,4.1,48.7,7.6c1.8,0.4,3.3,2.2,5,3.3c-1.9-0.1-3.8-0.1-5.6-0.5
		c-17.7-4-35.5-8.1-53.8-7.7c-44.4,1-88.8,2.2-133.1,3.6c-25.4,0.8-50.8,2.1-76.3,3.3c-33.4,1.6-66.9,3.4-100.3,5.1
		c-21.9,1.1-43.8,2.2-65.7,3.4c-26.1,1.4-52.1,3-78.2,4.3c-19.2,1-38.4,1.6-57.6,2.7c-31.7,1.8-63.5,3.5-95.2,6.1
		c-22.2,1.8-44.3,5.1-66.5,7.7c-1.2,0.1-2.5-0.4-3.8-0.5c1.2-0.9,2.4-2.3,3.8-2.5c10.8-1.5,21.7-2.5,32.4-4
		c35-5.1,70.3-6.6,105.5-8.6c36.8-2.1,73.6-3.7,110.5-5.6c34.5-1.8,69-3.6,103.4-5.4c42.9-2.2,85.8-4.3,128.7-6.4
		C552.6,148.8,597.8,146.7,637.2,144.9z"/>
	<path d="M1209.4,381.3c1.2,0.4,2.7,0.5,3.5,1.3c3.7,3.7,7.4,7.3,10.6,11.4c2.4,2.9,4.5,3.3,7.5,1.1c5.1-3.8,10.7-7,15.4-11.2
		c12.9-11.9,25.4-24.2,37.9-36.4c1.5-1.4,2.4-3.4,4-5.8c-3.4-0.7-5.8-1-8.1-1.8c-5.5-1.8-11.1-3.5-16.3-5.9c-5-2.3-5.9-2.5-9.9,1.2
		c-4.8,4.5-10,8.7-14.7,13.3c-5.2,5.1-10,10.5-14.9,15.8c-0.9,0.9-1.5,2.2-2.5,2.9c-0.8,0.6-2,0.6-3,0.8c0.3-1,0.4-2.1,0.9-3
		c9.1-14,23.4-22.8,34.7-34.5c2.6-2.7,5.8-2.1,8.3-0.5c7.4,4.8,15.7,6.5,24.2,8.1c4,0.7,4.9,2.3,3.2,6.1c-1.1,2.5-3,4.8-5,6.8
		c-7.4,7.5-15,14.8-22.5,22.1c-1,1-2,2-2.7,3.6c1.8-0.6,3.6-1,5.3-1.8c6.1-3.1,12.2-6.4,18.3-9.6c3.5-1.9,4.6-1.5,5.3,2.5
		c1.4,7.9,2.7,15.8,3.7,23.7c0.2,1.3-1.1,3.8-2.2,4.2c-10.5,4.1-21.1,7.9-31.7,11.8c-2.2,0.8-4.4,1.5-6.6,2.3
		c-2.1,0.8-3.8,0.1-4.2-2c-1.1-5.2-2-10.4-2.7-15.7c-0.1-0.8,0.8-1.8,1.3-2.6c0.4,0.1,0.7,0.1,1.1,0.2c1,5.6,1.9,11.2,3.1,17.7
		c13.3-5,26-9.8,39.5-14.8c-1.2-8-2.4-16.2-3.7-25c-6.6,3.3-12,6.2-17.7,8.9c-3.3,1.5-6.7,3-10.2,3.7c-3,0.6-5.3,2-7.7,3.9
		c-6.2,4.9-12.6,9.5-19.1,14.1c-3.3,2.3-5.3,7.4-3.5,10.8c1.7,3.2-0.2,3.4-2.3,3.5c-16.7,0.7-33.4,1.3-50.1,2.2
		c-3.4,0.2-5.1-0.6-5.3-4.3c-0.2-3.5-1-6.9-1.1-10.4c0-1.3,1.2-2.6,1.8-4c0.4,1.3,1,2.5,1.2,3.8c0.6,3.7,0.9,7.4,1.4,11.6
		c16.8-1,33.5-2,50.4-3c1.2-4.5,1.8-8.8-2.7-12.6c-3.9-3.2-7.1-7.2-10.4-11c-0.8-1-1-2.5-1.5-3.7L1209.4,381.3z"/>
	<path d="M1209.6,381.2c-2.8,2.8-5.7,5.6-8.4,8.5c-3.2,3.4-6.3,6.9-9.5,10.3c-1.6,1.7-3.2,2.1-5.6,1c-6.2-2.9-12.6-5.6-18.9-8.3
		c-1.3-0.6-2.6-1-4.3-1.7c0,7.5,0,14.4,0,21.4c0,5.4-0.1,5.5-5.3,5.5c-11.3,0-22.6,0.5-33.7-2.2c-0.8-0.2-1.7-0.1-2.2-0.5
		c-1.1-0.9-2-2-2.9-3c1.3,0,2.5-0.1,3.8,0.1c4.5,0.7,8.9,2,13.4,2.2c7.7,0.4,15.5,0.1,23.6,0.1c0-7.2,0-14.2,0-21.9
		c-15.8-1.1-31.3-2.2-47.5-3.4c2.2,9.4-1.4,18.5,0.6,27.8c-2.3,1.2-4,0.3-3.8-3.4c0.2-5.3,0.7-10.6,1-15.9c0.1-1.9-0.1-3.9-0.1-5.8
		c-0.1-3.5,1.7-5.7,5.2-5.5c10.6,0.6,21.2,1.4,31.8,2.1c3.6,0.2,7.2,0.5,11.3,0.8c-5.5-3.3-10.7-6.4-16-9.4
		c-8.2-4.7-8.4-6.1-2.5-13.5c5.2-6.5,10.4-13,15.6-19.5c0.9-1.1,1.7-2.3,2.9-3.2c0.9-0.7,2.2-0.8,3.3-1.1c-0.4,1.1-0.5,2.4-1.2,3.2
		c-6.5,8.1-13,16.2-19.6,24.2c-2.1,2.5-2,4,1.1,6.1c13.2,8.7,28.2,13.7,42.3,20.6c3.7,1.8,6.3,1.2,9-2c6.1-7.3,12.5-14.2,18.8-21.3
		c1.1-1.2,1.9-2.7,3.2-4.6c-6.3-2.2-12-4.3-17.8-6.2c-11.4-3.8-22.9-7.5-34.3-11.4c-0.9-0.3-1.6-1.4-2.3-2.2c1.1-0.2,2.3-1,3.2-0.7
		c16.9,5.6,33.7,11.3,50.5,17.2c4.1,1.4,4.6,3.4,2,7.1c-2,3-4.4,5.7-6.6,8.6C1209.4,381.3,1209.6,381.2,1209.6,381.2z"/>
	<path d="M453.4,330.5c4.2-1.9,5.7-1.3,7.3,3c1,2.7,1.6,5.5,2.5,8.2c0.9,2.8,3,3.3,4.4,0.8c1.9-3.4,3.8-7.2,4.3-11
		c0.8-5.3,0.6-10.9,0.5-16.3c-0.1-3.2-1.6-3.7-4.4-2c-3.5,2.1-4.8,5.7-3.9,10c0.2,0.8-0.3,1.7-0.5,2.6c-0.8-0.5-1.9-0.9-2.3-1.6
		c-1.5-3.3-0.9-6.6,1.1-9.6c2-3,4.6-5.8,8.4-5.2c2.1,0.3,3.8,2.7,6.2,4.6c2.7-3.1,7.2-1.4,11.4-2c0.2,0.4,0.3,0.9,0.5,1.3
		c-1.2,0.7-2.3,1.8-3.5,2c-4.6,0.8-6.2,3.6-6.1,7.9c0,1.4-0.2,2.8-0.3,4.6c3.1-0.8,5.9-1.4,8.7-2.1c0.2,0.6,0.4,1.1,0.7,1.7
		c-1.4,0.7-2.7,1.7-4.2,2.2c-5.7,2.2-5.7,2.1-5.1,8.3c0.2,1.6,0.4,3.3,0.6,5.5c3-1,5.4-1.9,8.3-2.9c-1,3.6-4.5,6-7.8,5.7
		c-3.3-0.2-3.8-2.7-4-5.3c-0.3-2.8-0.4-5.6-0.5-8.7c-1.6,3.8-2.5,7.6-4.6,10.6c-1.4,2-4.4,4-6.8,4c-1.5,0-3.4-3.4-4.4-5.5
		c-1.2-2.6-1.8-5.5-2.6-8.3c-0.4,0-0.8-0.1-1.2-0.1c-1.1,2.7-2,5.4-3.2,8c-0.4,0.9-1.5,1.5-2.2,2.2c-0.4-1-1.2-1.9-1.2-2.9
		c0-6.3,0.2-12.7,0.2-19c0-1.5-0.8-3.1-1.4-5.3c-1.6,1.3-2.5,2.2-3.6,2.9c-0.7,0.4-1.6,0.5-2.4,0.7c0.1-0.9-0.2-2.3,0.3-2.7
		c1.8-1.3,3.9-3.2,5.8-3c1.4,0.1,3.3,2.8,3.7,4.6C453.1,322.2,453.1,326.2,453.4,330.5z"/>
	<path d="M670.4,324.8c3.2-1.1,6.1-2.2,8.9-3.2c0.3,0.6,0.6,1.2,0.8,1.8c-1.9,1.1-3.8,2.3-5.8,3.2c-2.2,1.1-3.6,2.2-2.5,5.1
		c1.3,3.3,2.1,3.6,5,1.7c1.2-0.8,2.8-1,4.2-1.5c-0.8,1.3-1.4,3-2.5,4c-4.2,3.5-7.7,2.4-9.4-2.8c-0.5-1.6-1-3.2-1.6-5.5
		c-1.9,5.4-3.1,10.8-8.4,12.9c-5.5,2.2-9.5-2.2-14-4.6c-0.4,0.5-0.6,0.9-0.9,1.3c-0.8,0.7-1.6,1.4-2.4,2.1c-0.7-0.9-1.6-1.6-2-2.6
		c-1.7-4.8-3.1-9.6-4.7-14.4c-0.5-1.6-1.4-3-2.2-4.5c-0.2,0.3-0.5,0.6-0.7,0.9c-1.4-0.8-3.4-1.2-4-2.4c-0.7-1.3-0.1-3.3,0-5
		c1.6,0.5,4,0.5,4.6,1.5c2.8,4.8,5.2,9.8,7.6,14.8c0.7,1.5,1,3.2,1.2,3.8c3.1,1.4,5.6,2.1,7.7,3.5c8,5.2,14,2.6,14.4-7
		c0.2-4.5-1.8-9.3-3.5-13.6c-1.2-3-5-3.2-7.6-1.1c-2.9,2.3-3.5,5.7-1.5,8.2c0.3,0.4,0.8,0.7,1.1,1.1c0.7,1.1,1.4,2.2,2,3.3
		c-1.4-0.4-3.2-0.4-4.3-1.3c-3.8-3-4.2-7.5-1.5-11.4c3-4.3,7.8-5.7,11.9-3c1.8,1.2,3,1,4.8,0.2c3.5-1.4,7.2-2.1,10.8-2.9
		c0.7-0.2,1.5,0.6,2.3,0.9c-0.6,0.7-1.1,1.6-1.8,2c-0.7,0.4-1.7,0.4-2.6,0.7c-6.2,1.6-5.9,0.1-4.9,7.3
		C669.3,320.3,669.9,322.6,670.4,324.8z"/>
	<path d="M1238.8,317.8c-7.8-4.2-15.5-8.2-23.1-12.4c-3.4-1.9-6.8-3.8-10-6c-2.8-2-4.9-2.1-7.4,0.5c-6.3,6.6-12.8,12.9-19.1,19.4
		c-0.9,0.9-1.1,2.4-1.7,3.6c-0.7-0.5-1.5-1-2.2-1.5c0.3-1.1,0.2-2.6,0.9-3.3c7.3-7.5,14.8-14.9,22.3-22.3c1.7-1.7,3.7-1.9,6-0.6
		c11.9,6.6,23.9,13,35.8,19.6c3.2,1.8,3.3,3.2,0.6,5.6c-8.4,7.3-16.9,14.6-25.3,22c-2.2,2-4.3,2.6-7,1.2c-8.3-4.3-16.5-8.6-24.8-13
		c-2.9-1.5-5.8-3-8.5-4.7c-1.2-0.8-2-2.2-3.1-3.3c1.4,0.2,3-0.1,4.2,0.6c9.6,5.1,19.1,10.4,28.8,15.5c6.5,3.4,6.5,3.2,12-1.8
		c6.7-6,13.5-11.8,20.2-17.7C1238.1,318.7,1238.4,318.2,1238.8,317.8z"/>
	<path d="M365,315.7c2.9-0.3,5.7-0.8,8.6-1c7-0.6,14-1.1,21-1.5c0.9-0.1,1.9,0.7,2.9,1c-0.8,0.6-1.7,1.8-2.5,1.7
		c-6.4-0.8-10.3,3.4-14.5,6.9c-2.3,1.9-4.2,4.3-6.5,6.1c-3.6,2.8-4.9,6.4-4.5,11.7c3.9-4.1,7.4-7.8,10.9-11.5
		c2.6-2.7,5.3-5.4,8.1-7.9c0.7-0.6,2.2-0.4,3.3-0.6c-0.5,1-0.7,2.1-1.4,2.8c-6.2,6.2-6.2,6.2-1.5,13.8c2,3.3,4,6.7,5.9,10.1
		c0.4,0.7,0.7,2.1,0.3,2.4c-0.6,0.6-1.8,0.7-2.7,0.7c-6.2-0.4-12.4-1-18.6-1.2c-6.1-0.2-8.4-2.7-7.8-8.7c0.6-5.8,1-11.6,1.2-17.4
		c0.1-2.1-0.8-4.2-1.2-6.3C365.5,316.5,365.3,316.1,365,315.7z M390.6,346.3c-2.9-4.7-5.8-9.4-8.8-14.3c-4.4,4.7-8.5,9.1-13.5,14.3
		C376.4,346.3,383.2,346.3,390.6,346.3z M382.4,316.9c-4.7,0.5-8.5,0.8-11.8,1.2c0,3.5,0,6.3,0,9.8
		C374.6,324.1,378,320.9,382.4,316.9z"/>
	<path d="M995.7,410c6.5,1.4,12.6,2.3,18.3,4.2c6.4,2.1,12.4,5.1,18.6,7.5c3.8,1.4,7.8,2.5,11.7,3.5c0.6,0.2,1.7-0.5,2.2-1.1
		c3.4-3.9,6.9-7.7,10.1-11.9c3.3-4.3,2.9-5.8-2.1-7.7c-13.2-4.9-26.6-9.5-39.9-14.2c-0.9-0.3-2-0.2-3-0.1c-0.9,0.1-1.8,0.4-2.7,0.6
		c0-0.7-0.4-1.6,0-2.1c0.6-0.9,1.5-1.7,2.4-2.1c0.7-0.3,1.8,0.1,2.6,0.4c14.3,5,28.6,9.9,42.8,15.2c5.5,2.1,6.6,5,3.3,10
		c-3.8,5.5-8.5,10.4-12.9,15.5c-0.6,0.6-2,1.1-2.8,0.9c-4.9-1.5-10.1-2.6-14.5-5.1c-6.5-3.6-13.3-5.8-20.4-7.2
		c-4.8-1-9.6-2.3-14.3-3.7c-3.7-1.1-4.1-2.7-1.7-5.6c3.7-4.4,7.3-8.8,11.1-13c0.8-0.9,2.3-1,3.6-1.5c-0.4,1.1-0.6,2.5-1.3,3.4
		C1003.6,400.5,999.9,404.8,995.7,410z"/>
	<path d="M1339.7,387.4c4.9,1.9,9.6,3.7,14.3,5.4c9.2,3.4,18.5,6.7,27.7,10.2c4,1.5,4.3,2.5,2,6c-3.7,5.9-7.6,11.8-11.3,17.7
		c-1.5,2.3-3.1,3.1-5.8,1.7c-13.5-6.8-27.2-13.5-40.8-20.1c-3.3-1.6-3-4.1-1.5-6.5c1.3-2,3.3-3.6,4.8-5.5c2.9-3.9,5.6-8.1,8.5-12
		c0.7-0.9,2-1.5,3-2.2c-0.1,1.3-0.3,2.6-0.4,3.8C1340.1,386.2,1340,386.5,1339.7,387.4z M1338.2,390.2c-3.2,3.6-6.8,7.7-10.4,11.7
		c-1.6,1.8-1.8,3.3,0.8,4.4c2.8,1.3,5.5,3,8.3,4.3c9.5,4.7,19.1,9.4,28.7,13.9c1.2,0.6,3.7,0.9,4.1,0.3c4.1-5.9,7.8-12.1,12.1-18.9
		C1366.9,400.6,1352.5,395.4,1338.2,390.2z"/>
	<path d="M559.5,317.4c6.6-3.3,13.1-6.6,19.7-10c-0.1-0.5-0.2-0.9-0.4-1.4c-6.7,1.2-13.4,2.4-20.1,3.8c-0.5,0.1-1,1.4-1,2.2
		c-0.1,10.1,0,20.2,0,30.5c2.2,0,4.9,0,7.6,0c7.1-0.1,14.3-0.4,21.4-0.5c1,0,2.1,0.9,3.1,1.4c-1,0.5-2.1,1.4-3.1,1.4
		c-10.4,0.5-20.7,0.8-31.1,1.1c-1.2,0-2.4-0.3-3.3-0.4c4.2-11.7,2.9-23.2,2.3-34.7c-0.1-2.1-0.2-3.6,2.3-3.9
		c10.5-1.2,21.1-2.5,31.6-3.7c0.8-0.1,1.6-0.1,2.3,0.1c1.5,0.5,2.9,1.2,4.3,1.8c-1.4,0.4-2.8,0.8-4.2,1.2c-2.7,0.8-5.5,1.3-8.1,2.5
		c-6.2,2.9-12.3,6.2-18.5,9.2c-1.3,0.6-2.8,0.7-4.2,1C560,318.6,559.8,318,559.5,317.4z"/>
	<path d="M1350.7,341.9c-8.5,3.5-18.4,5.7-25.9,13c-0.7,0.7-2,0.7-3,1c0.3-1.1,0.3-2.7,1.1-3.2c4.5-3,8.9-6.1,13.7-8.6
		c4.1-2.1,8.7-3.4,13-5.1c2.7-1.1,4.6-0.3,5.5,2.5c2,6.4,4.8,12.3,9.9,16.9c1.1,1,1.8,2.6,2.4,3.9c1.8,3.9,1.2,5.2-2.7,6.8
		c-10.5,4.3-21,8.8-31.6,13.1c-4.8,1.9-5.7,1.4-7.8-3.2c-2.5-5.8-6.2-11.2-5.1-18c0.2-1.2,1.1-2.2,1.7-3.3c0.5,1.1,1.4,2.2,1.3,3.2
		c-0.9,6.6,2.8,11.7,5.1,17.2c0.9,2.3,2.4,1.8,4.1,1.1c9.5-3.9,18.9-7.8,28.4-11.8c1.3-0.5,2.6-1.1,4.4-1.9
		C1360.4,357.6,1355.7,350,1350.7,341.9z"/>
	<path d="M1090.4,377.4c-1.1,2.8-1.6,5.2-2.9,7c-3.5,4.7-7.3,9.1-11.2,13.4c-0.5,0.6-3,0.6-3.4,0c-8.4-11.1-21.1-17.1-31.1-26.2
		c-3.4-3.1-3.5-4.6,0.5-6.9c5.1-3.1,10.2-6.2,15.3-9.2c2.8-1.6,5.8-1.7,7.7,1c5.3,8.1,14,11.7,21.5,16.9
		C1088.2,374.3,1089.2,376,1090.4,377.4z M1042.4,368c11.4,9.1,22,17.6,33.2,26.5c3-3.9,6.6-8,9.7-12.4c1.9-2.7,1.9-5.1-1.6-7.3
		c-7.6-4.6-15.9-8.4-20.7-16.6c-0.4-0.6-2.7-0.7-3.7-0.2C1053.8,361.1,1048.4,364.4,1042.4,368z"/>
	<path d="M1078.6,340.9c-0.4-1-0.9-1.9-1-2.9c-1.1-8.2-5.9-13.7-13-17.3c-8.4-4.2-17-8.1-25.5-12.1c-0.7-0.3-1.1-1.2-1.6-1.9
		c0.7-0.4,1.6-1.2,2.1-1.1c2.6,0.8,3.3-1.2,3.9-2.7c3.4-8.7,6.7-17.4,10.2-26.1c0.5-1.1,1.6-2,2.4-3c0.5,1.2,1.3,2.4,1.4,3.6
		c1,11.6,1.9,23.3,2.6,34.9c0.1,2.3,1.2,3.4,3.1,4.3c5.4,2.4,10.4,5.6,13.5,10.8c1.7,2.9,2.7,6.4,3.6,9.7c0.3,1.1-0.3,2.5-0.5,3.7
		C1079.4,340.8,1079,340.9,1078.6,340.9z M1057.2,313.2c-0.8-9.9-1.6-18.9-2.4-27.8c-0.3,0-0.6,0-0.9-0.1
		c-2.8,7.2-5.7,14.3-8.6,21.5C1048.9,308.8,1052.6,310.7,1057.2,313.2z"/>
	<path d="M448.7,451.9c1.5,0.3,3.1,0.3,4.6,0.9c32.1,11.8,60.2,29.5,82.5,55.7c3.9,4.6,7.7,9.4,11.3,14.3c0.5,0.7,0.2,2.1,0.3,3.1
		c-0.9-0.5-2.1-0.7-2.7-1.4c-16.1-21.9-35.3-40.4-59.4-53.3c-10.9-5.8-22.5-10.6-33.8-15.8c-1.2-0.5-2.3-1.2-3.4-1.8
		C448.3,453,448.5,452.4,448.7,451.9z"/>
	<path d="M590.8,520.5c-1.1,1.5-1.8,2.4-2.5,3.4c-0.5-0.9-1.2-1.8-1.4-2.7c-1.5-5.5-2.1-11.3-4.4-16.5
		c-9.4-21.1-19.9-41.7-33.2-60.7c-5.4-7.7-12-14.6-18.1-21.9c-0.7-0.8-1.4-1.6-1.9-2.5c-0.2-0.4,0.1-1.2,0.4-1.7
		c0.2-0.2,1.1-0.3,1.4,0c0.9,0.7,1.8,1.5,2.6,2.4c13,13.5,23.7,28.6,32.4,45.1c6.2,11.7,12.4,23.4,17.9,35.4
		C587.1,507,588.6,513.9,590.8,520.5z"/>
	<path d="M523.6,316.9c4.2-5.6,9.8-7.8,16.4-7.5c6.4,0.3,9.2,4.6,6.3,10.3c-1.7,3.3-4,6.4-6.5,9.1c-3,3.2-6.5,6-9.7,8.9
		c-4.5,4.1-5.9,4-9.9-0.4c-2.9-3.2-6.1-6.1-8.6-9.5c-2.6-3.5-4.7-7.4-6.6-11.3c-1.3-2.7-1-5.7,1.7-7.7c2.7-1.9,5.7-2,8.4-0.3
		c2.2,1.3,4,3.3,5.8,5.1C521.9,314.4,522.5,315.5,523.6,316.9z M525.1,338.2c4.6-4.2,8.7-7.7,12.5-11.5c2.2-2.2,4-4.8,5.5-7.4
		c2.5-4.4,1.1-6.5-3.8-6.7c-5.8-0.2-10.3,2-13.6,6.7c-2.2,3-2.8,2.8-4.9-0.3c-1.7-2.4-3.4-5-5.7-6.7c-1.6-1.1-4.2-0.7-6.3-1
		c-0.2,1.9-0.7,3.9-0.4,5.8c0.3,1.7,1.3,3.5,2.4,4.8C515.3,327.2,520.1,332.5,525.1,338.2z"/>
	<path d="M1487.6,273.9c-1.7,0.2-2.9,0.7-3.8,0.4c-9-3.1-18.1-6.2-27-9.6c-3.8-1.5-6.4-0.7-9,2.5c-4.8,6.1-10.1,11.8-15.2,17.7
		c-0.7,0.8-1.5,1.5-2.4,2c-0.6,0.3-1.4,0.1-2.1,0.2c0.1-0.8,0.2-1.6,0.3-2.4c0-0.1,0.2-0.2,0.3-0.3c8.8-9.5,17.6-19,26.4-28.5
		c1.5-1.6,2.8-3.4,3.9-5.3c1.3-2.4,2.9-2.8,5.1-1.4c2,1.3,4.1,2.4,5.7,4.1c5.5,5.8,10.9,11.8,16.2,17.8
		C1486.3,271.6,1486.6,272.3,1487.6,273.9z M1454.6,260.9c7.8,2.3,15.2,4.5,22.7,6.7c-5.2-5.2-7.7-13-15-15.6
		C1459.7,255,1457.3,257.8,1454.6,260.9z"/>
	<path d="M52.6,888.2c5.3,0.3,10.6,0.8,15.9,0.9c15.2,0.2,30.3,0.2,45.5,0.2c2,0,4.1-1,6-0.8c3.4,0.5,6.8,1.7,10.2,2.5
		c1.6,0.4,3.3,0.7,5,0.6c5.9-0.3,8.6,3.1,9.9,8.3c0.2,0.8-0.1,1.6-0.2,2.5c-0.8-0.4-2.3-0.7-2.4-1.2c-1.3-7-7.1-6.2-12-7.1
		c-17.8-3-35.7-0.9-53.6-1.5c-11.7-0.4-23.3-0.6-35-1c-0.9,0-1.7-0.7-2.6-1.1c0.8-0.6,1.6-1.8,2.4-1.9c3.6-0.2,7.3-0.1,10.9-0.1
		C52.6,888.4,52.6,888.3,52.6,888.2z"/>
	<path d="M1102.9,156c-1.5-0.5-3.1-0.7-4.3-1.6c-4.9-3.4-9.6-7-14.8-10.8c-1.3,1.6-2.4,3.2-3.7,4.4c-0.9,0.8-2.1,1.2-3.2,1.8
		c0.2-1.1,0.1-2.6,0.8-3.4c4.2-4.7,8.6-9.2,13.6-14.4c-0.4-0.2-1.6-0.8-2.4-1.7c-0.6-0.7-0.5-2-0.8-3c0.9,0.2,2,0.2,2.7,0.7
		c4.9,3.4,9.7,6.8,14.6,10.2c0.3,0.2,0.7,0.2,1.2,0.3c-0.2-2.2-1-4.4-0.5-6.2c0.7-2.4,1.9-5.4,3.8-6.6c2.8-1.7,5.3,0.5,7.2,2.9
		c2,2.3,4.2,4.4,6.5,6.9c-1,1.8-3.1,2.2-5.2,0.1c-1.4-1.5-2.3-3.5-3.8-4.9c-1-1-2.5-1.4-3.8-2.1c-0.6,1.3-1.8,2.8-1.6,4
		c0.4,2.9,1.6,5.6,2.3,8.5c0.4,1.5,0.3,3.1,0.4,4.6c-1.5-0.6-3.1-0.9-4.4-1.7c-4.6-3.2-9-6.5-13.4-9.7c-2.8,2.4-5.3,4.4-8.1,6.9
		c6,4.5,11.8,8.8,17.6,13.1C1103.4,154.9,1103.2,155.5,1102.9,156z"/>
	<path d="M1115.2,372.8c-2.5-7.6-7.2-13.6-13-19c-1.5-1.4-3.8-2.6-1.9-5.9c1.7,1.6,3.3,3,4.8,4.4c5.4,5.2,10,10.9,12.5,18.1
		c1.4,3.8,0.6,4.8-3.2,6.4c-3.9,1.7-7.6,3.8-11.2,6.1c-2,1.3-2.8,1.5-3.9-1.1c-1.6-3.6-4-6.9-6-10.4c-2.8-4.9-5.5-9.9-8.3-14.9
		c-1.1-1.9-2.2-3.8-3.4-5.6c-1.1-1.8-1.1-3.4,1.1-4c6.4-1.5,12.9-2.9,19.4-4.1c1.1-0.2,2.4,0.5,3.7,0.8c0,0.4,0,0.7,0,1.1
		c-6.9,1.5-13.8,3-21,4.6c2.8,5.7,5.1,11,7.9,15.9c2.8,4.8,6.2,9.2,9.3,13.8C1106.3,377.1,1110.5,375.1,1115.2,372.8z"/>
	<path d="M1171.5,89c0.3,1.6,0.7,3.3,0.9,4.9c0.2,3.2,0.1,6.8-3.3,8c-2.1,0.8-4.9-0.2-7.6-0.4c-0.1,5.3-3.4,9.3-9.9,11.3
		c3.2,3.6,6.2,6.8,9,10.2c0.7,0.9,0.7,2.4,1.1,3.7c-1.2-0.4-2.8-0.5-3.5-1.4c-4.6-5.3-9.3-10.7-13.6-16.3c-2.6-3.5-4.7-7.4-1.5-11.7
		c2.4-3.2,7.3-4,12.6-2.2c0.8,0.3,1.7,0.6,2.9,1.1c-0.1-0.8-0.3-1.4-0.2-1.9c0.2-0.8,0.7-1.5,1-2.2c0.7,0.5,1.5,0.9,1.9,1.5
		c1.2,1.7,2.1,3.6,3.4,5.1c1.6,1.8,3.2,1.3,4.2-0.9c1.5-3.1,0.2-6.8-2.9-9.1c-0.8-0.6-1.1-1.7-1.6-2.5c1.1,0,2.3-0.4,3.2,0
		c1.5,0.7,2.7,2,4,3C1171.6,89.1,1171.5,89,1171.5,89z M1150.2,97.2c-2.5,0.2-5.2,0.7-5.6,4.3c-0.3,2.9,3.7,8.4,5.8,8.3
		c3.9-0.2,7.7-3.9,7.7-7.5C1158.1,99.2,1155.1,97.2,1150.2,97.2z"/>
	<path d="M697.4,313.3c2.2-1.8,4.1-3.6,6.2-4.9c2.7-1.7,6.2-2.3,8.3,0.1c1.7,1.8,2.8,5.1,2.5,7.6c-0.4,3.5-2.1,6.9-3.6,10.2
		c-1.6,3.4-3.6,6.6-5.6,9.7c-0.7,1.1-2.1,1.7-3.1,2.6c-0.3-1-0.5-2-1-2.9c-0.5-0.9-1.3-1.6-1.9-2.4c-4.7-6.8-9.5-13.5-14-20.5
		c-0.8-1.3-0.4-3.3-0.6-5c1.6,0.2,3.3,0.1,4.7,0.8C692.1,309.8,694.6,311.6,697.4,313.3z M701.1,318.4c-0.7,0.6-1.8,1.6-2.9,2.5
		c-0.4,0.3-1.2,0.6-1.3,0.5c-0.5-0.5-1.2-1.2-1.1-1.8c0.9-5.6-4.1-5.4-6.5-7.8c-0.4,0.3-0.9,0.7-1.3,1c4.8,6.6,9.6,13.3,14.8,20.5
		c2.2-3.4,3.9-5.6,5-8c1.5-3.5,2.9-7.2,3.7-10.9c0.3-1.1-1.6-3.9-2.1-3.8c-2.5,0.5-5.1,1.4-7.2,2.8
		C701.3,314.1,701.5,316.3,701.1,318.4z"/>
	<path d="M658.6,594.1c0-1-0.1-2,0-3c1.7-10.1-0.9-19.3-6-27.9c-3.7-6.2-9.1-9.3-16.4-9.2c-3.5,0-5.6,1.6-6.9,4.6
		c-3.3,7.8-1,16.9,5.8,22.2c0.4,0.3,0.5,0.8,0.8,1.2c-2.6,1.5-4.8,0.9-7-2.2c-3.9-5.4-4.8-11.5-3.7-17.8c1.8-9.7,6.3-13.9,19.5-9.3
		c3.7,1.3,7.3,4.7,9.6,8c6.3,8.9,8.6,19,7.4,29.9c-0.2,1.4-1,2.7-1.6,4.1C659.7,594.5,659.2,594.3,658.6,594.1z"/>
	<path d="M1423.3,320.8c-8.3-3.9-15.6-7.2-22.9-10.6c-0.7-0.3-1.7-0.4-2.1-0.9c-0.9-0.9-1.4-2.1-2.1-3.2c1.1,0.2,2.4,0,3.4,0.5
		c7.3,3.3,14.7,6.5,21.8,10.2c5.8,3,5.9,3.8,1.5,8.3c-4.8,4.9-9.8,9.6-14.8,14.3c-2.5,2.4-4.9,2.5-7.4-0.2c-1.1-1.2-2.7-2-3.9-3.2
		c-0.8-0.9-1.3-2.2-1.9-3.3c1.2,0.3,2.6,0.4,3.7,1c1,0.5,2.1,1.2,2.8,2.1c2.2,2.7,4.1,2.1,6.4-0.1
		C1412.6,330.9,1417.5,326.3,1423.3,320.8z"/>
	<path d="M595.8,310.3c-5,2.8-9.9,5.7-15,8.6c5,6.4,9.8,12.4,14.4,18.6c0.6,0.8,0.6,2.1,0.9,3.2c-1.1-0.4-2.6-0.6-3.3-1.4
		c-5-6.1-9.8-12.4-14.9-18.9c-4.2,2.4-7.9,4.7-11.8,6.8c-0.9,0.5-2.2,0.3-3.3,0.4c0.5-0.9,0.8-2.3,1.6-2.7
		c9.3-5.3,18.7-10.6,28.2-15.7c0.7-0.4,1.8-0.1,2.7-0.1C595.4,309.4,595.6,309.8,595.8,310.3z"/>
	<path d="M1180.7,136.8c-0.2,1.9-0.2,3.9-0.8,5.7c-1.2,4.3-5.5,5.5-8.9,2.6c-3.6-3.1-5.5-7.2-5.3-12.1c0.2-5.6,4.7-8.2,9.1-4.7
		c3.9,3.1,7.4,6.5,12.9,5.9c0.4,0,0.9,0.8,1.3,1.2c-0.6,0.6-1.2,1.6-1.8,1.6C1185.1,137.2,1182.9,136.9,1180.7,136.8z M1172.2,143.5
		c1.3-1.8,1.7-3,2.4-3.2c3.4-1.1,2.2-3.3,1.3-5.2c-0.6-1.2-1.6-2.3-2.7-3.2c-0.9-0.7-2-1.1-3.1-1.6c-0.5,1.1-1.7,2.4-1.4,3.3
		C1169.5,136.7,1170.8,139.7,1172.2,143.5z"/>
	<path d="M1152.8,155.2c-0.3-3.3-1-6.6-0.7-9.9c0.1-1.7,1.6-4.2,3.1-4.8c1.4-0.5,3.8,0.8,5.3,1.9c2.7,1.9,5.1,4.2,7.6,6.4
		c0.5,0.5,0.8,1.2,1.2,1.7c-0.8,0.3-1.8,1.1-2.2,0.9c-2.3-1.4-4.5-2.9-6.6-4.5c-1.4-1.1-2.6-2.6-3.9-3.9c-0.5,0.2-1.1,0.4-1.6,0.6
		c0.2,2.9,0.3,5.9,0.8,8.8c0.4,2.1,1.6,4.1,2.1,6.2c0.3,1-0.2,2.2-0.3,3.3c-1.2-0.3-2.6-0.2-3.4-0.8c-2.5-2.1-4.7-4.4-7-6.7
		c-2.1-2.1-4.2-4.2-6.2-6.4c-0.6-0.7-0.7-1.8-1.1-2.8c1,0.2,2.4,0,3.1,0.6c2.1,1.8,3.9,3.7,5.7,5.8c1.3,1.4,2.3,3,3.4,4.6
		C1152.4,155.8,1152.6,155.5,1152.8,155.2z"/>
	<path d="M180.4,274.7c1,0.4,3.6,0.7,3.9,1.8c0.6,2,0.9,5.3-0.3,6.5c-4.2,4.3-9,8.1-13.6,11.9c-0.4,0.3-1.5-0.2-2.2-0.4
		c0.4-0.9,0.6-2,1.3-2.5c3.3-2.7,6.6-5.3,10-8c0.7-0.6,1.4-1.2,1.8-2c0.5-1,0.6-2.1,0.9-3.2c-1-0.3-2.1-0.9-3.1-0.7
		c-6.5,1.1-13,2.4-19.5,3.7c-0.5,0.1-1,0.4-1.5,0.3c-1.8-0.3-3.7-0.8-5.5-1.2c1.6-0.6,3.2-1.4,4.9-1.8c5.4-1.2,10.9-2.3,16.4-3.3
		C175.7,275.3,177.6,275.1,180.4,274.7z"/>
	<path d="M677.4,455.2c-6.2-1.4-11.9-2.5-17.5-3.9c-1.2-0.3-2.2-1.4-3.3-2.1c1.1-0.7,2.1-1.7,3.3-1.9c5.4-0.7,10.8-1.1,16.3-1.5
		c1-0.1,2.1,0.2,4.2,0.5c-3.7,4-8.1,2-11.5,4.4c2.8,0.3,5.6,0.5,8.4,0.8c3.8,0.3,4.6,1.6,3.2,5c-0.7,1.8-1.5,3.6-2.5,5.3
		c-0.3,0.5-1.2,0.6-1.9,0.9c-0.2-0.7-0.8-1.4-0.6-2C675.9,458.7,676.8,457,677.4,455.2z"/>
	<path d="M1374.5,325.7c3.3,1.1,5.8,1.8,8.1,2.8c1,0.4,1.8,1.4,2.8,2.2c-1.2,0.2-2.6,0.9-3.7,0.6c-2.9-0.8-5.7-1.7-8.4-3.1
		c-0.9-0.4-1.7-3-1.3-3.6c5.8-7.4,11.6-14.8,18-21.7c2.7-2.9,4.9-2,5.4,0.3c-3.1,2.3-6.2,4-8.5,6.6
		C1382.8,314.6,1379,319.9,1374.5,325.7z"/>
	<path d="M1181.3,121.1c0.9-2.1,1.5-4.4,2.8-6.2c0.9-1.2,2.7-2,4.3-2.2c3.2-0.4,6.6,3.3,7.3,7.4c1.1,6.6-0.1,9.6-4.2,10.8
		C1186.4,132.4,1181.8,127.8,1181.3,121.1z M1189.9,128c0.4-1.1,0.6-2.1,1.2-2.9c2.2-2.7,2-6.6-0.8-8.5c-0.9-0.6-3.1-0.5-3.9,0.3
		C1183,120.1,1185,126.7,1189.9,128z"/>
	<path d="M1131.9,153c-1.1,2.2-2.7,4.4-3,6.7c-0.8,5.9,2.7,9.7,7.3,12.6c4.2,2.6,7.8,1.4,11.4-1.4c0.8-0.6,2.2-0.4,3.3-0.6
		c-0.6,1-0.9,2.4-1.7,3.1c-5.4,4.6-11.2,4.5-16.9,0c-6-4.7-8.4-12.6-5.6-18.3C1128,152.4,1129.4,151.9,1131.9,153z"/>
	<path d="M1208.6,108.2c-2.8-0.2-5.7-0.1-8.4-0.7c-1.7-0.4-4.4-2.3-4.2-3c0.4-2,1.7-4.3,3.4-5.4c1.5-1,4-0.6,6-0.6
		c0.2,0,0.4,1,0.6,1.4c-2.5,1-4.8,1.9-7.1,2.8c0.1,0.5,0.2,1,0.3,1.6c2.9,0.3,5.8,0.6,8.7,0.8c4,0.3,5.6,2.5,3.7,5.9
		c-1.5,2.7-3.9,5.1-6.1,7.3c-0.6,0.6-2.2,0.1-3.4,0.1c0.6-0.9,1-1.8,1.7-2.6c1.9-2.2,3.8-4.3,5.8-6.4
		C1209.1,109,1208.9,108.6,1208.6,108.2z"/>
	<path d="M1183,81.6c1.1-2.1,1.8-4,3-5.7c0.9-1.3,2.2-2.9,3.6-3.2c1.6-0.3,3.5,0.6,5.3,1c-0.5,1.6-0.7,3.5-1.6,4.7
		c-1.2,1.4-3,2.3-4.8,3.6c1.1,3.1,3.4,2.1,5.6,1.8c1.5-0.2,3,0,4.6,0c-1.3,1-2.4,2.3-3.8,2.9c-3.8,1.5-7.1,1-9.4-2.9
		C1184.9,82.9,1183.9,82.4,1183,81.6z"/>
	<path d="M1121.6,125.6c2.6,5.4,7.2,1.2,10.6,2.6c-1.9,3.7-7.5,5-10.6,2c-2.2-2.2-3.7-5.5-4.6-8.6c-0.4-1.2,1.5-3.6,2.9-4.7
		c0.7-0.5,3.8,0.3,3.9,0.9c0.3,1.8-0.1,3.8-0.6,5.6C1123.1,124.3,1122.2,124.9,1121.6,125.6z"/>
	<path d="M30,951.4c-0.9,0.4-1.8,0.9-2.7,1c-7.6,1.5-15.2,2.9-22.8,4.2c-0.7,0.1-1.4-0.2-2.1-0.3c0.3-0.8,0.3-1.8,0.8-2.3
		c0.9-0.7,2-1.3,3.1-1.5c6.8-1.1,13.5-2.1,20.3-3.1c1-0.1,2.2,0.4,3.3,0.6C30,950.6,30,951,30,951.4z"/>
	<path d="M1171.6,89.1c-1.3-3.9,1.7-2.6,3.4-2.7c0.1-2-0.1-4,0.5-5.8c0.4-1.1,1.9-1.8,3.1-2.5c0.2-0.2,0.9,0.3,1.3,0.5
		c-0.4,0.9-1.2,1.9-1.3,2.8c-0.1,1.9,0,3.9,0.4,5.9c0.2,1.1,1.3,1.9,1.7,3c0.3,0.9,0.3,1.9,0.4,2.8c-1.1-0.1-2.3,0.2-3.1-0.2
		c-2.3-1.1-4.4-2.6-6.6-3.9C1171.5,89,1171.6,89.1,1171.6,89.1z"/>
	<path d="M63.1,353.4c-7.7-1.1-15.5-2-23.3-3.3c-1.9-0.3-3.7-1.7-5.5-2.8c-0.4-0.3-0.4-1.4-0.3-2c0-0.2,1.2-0.6,1.6-0.4
		c12.7,6.1,26.3,5.4,39.7,4.1c15.3-1.6,30.7-3.5,45.8-6.2c7.6-1.3,14.9-4.4,22.1-7.2c6-2.3,11.3-5.7,15.3-11
		c0.7-0.9,2.4-1.1,3.6-1.6c-0.4,1.2-0.6,2.5-1.3,3.5c-4.7,6.5-11.4,10-18.6,13c-12.2,5.1-24.9,8.1-38,9.5
		C90.6,350.4,77,351.9,63.1,353.4z"/>
	<path d="M1285.9,531.3c-0.5-1.2-1.4-2.5-1.5-3.7c-0.1-8.1-0.1-16.3,0-24.4c0-1,1.2-1.9,1.8-2.9c0.4,1,1.2,1.9,1.2,2.9
		c0.1,8.8,0.2,17.6,0.2,26.4c0,0.5-0.3,0.9-0.4,1.4C1286.7,531.1,1286.3,531.2,1285.9,531.3z"/>
	<path d="M281.5,322.2c-0.7,2-1,3.4-1.6,4.7c-0.3,0.7-1.1,1.1-1.7,1.7c-0.4-0.7-1.3-1.5-1.2-2.1c0.2-2.8,0.6-5.7,3.9-6.5
		c3.4-0.8,5.1,1.6,5.8,4.4c2.1,7.9,1.8,15.7-2.7,22.9c-1.1,1.7-2.6,3.3-4.3,4.4c-3.1,2.1-6,1-7.5-2.5c-0.5-1.2-0.8-2.5-1.2-3.7
		c-0.4-1.2-0.7-2.4-1-3.3c-1.3,0.8-2.4,1.6-3.5,2.3c-0.4-1.3-1-2.5-1.2-3.8c-0.8-3.9-1.4-7.9-2.3-11.8c-0.3-1.3-1.3-2.4-2-3.6
		c-0.4,0-0.9,0.1-1.3,0.1c-0.2,2.2-0.4,4.3-0.7,6.5c-0.1,0.9-0.5,1.8-0.8,2.6c-0.8-0.7-2.2-1.5-2.2-2.2c0.2-2.9,0.4-6,1.6-8.5
		c1.3-2.7,4.4-2.6,6.2,0.3c1.7,2.7,2.7,5.8,4.5,8.4c1.2,1.2,3,2.3,3.5,3.8c1.2,3.3,1.7,6.8,2.6,10.1c1.1,3.8,3,4.2,5.6,1.1
		c3.5-4.2,4.9-9.1,4.7-14.5C284.7,329.5,285,325.8,281.5,322.2z"/>
	<path d="M299.1,345.2c1.4-0.9,2.7-1.9,4.2-2.6c0.7-0.3,1.6,0,2.4,0c-0.2,0.8-0.2,2-0.7,2.3c-2.3,1.1-4.9,2.9-7.2,2.7
		c-3-0.3-3.2-3.6-3.3-6.2c-0.3-5.5-0.7-11.1-0.8-16.6c0-2.1,0.1-4.3,3.6-2.9c1.5,0.6,3.5-0.2,5.3-0.4c1.2-0.1,2.4-0.2,3.7-0.3
		c0.2,0.4,0.3,0.8,0.5,1.1c-0.9,0.7-1.8,1.7-2.8,2c-7.6,2.2-7.7,2.2-5.9,11.1c2-0.7,3.8-1.5,5.8-2c1-0.2,2.1,0.2,3.1,0.3
		c-0.6,0.8-1.1,1.8-2,2.3c-1.2,0.7-2.6,1.1-4,1.6C297,339.2,296.6,340.4,299.1,345.2z"/>
	<path d="M672.4,523.2c1.8-1.7,2.9-2.7,3.9-3.8c1.1,1.4,2.6,2.8,3,4.4c0.2,0.8-1.6,2.2-2.4,3.3C675.6,525.9,674.3,524.8,672.4,523.2
		z"/>
</g>
</svg>
