<?xml version="1.0" encoding="utf-8"?>
<!-- Generator: Adobe Illustrator 22.0.1, SVG Export Plug-In . SVG Version: 6.00 Build 0)  -->
<svg version="1.0" id="Ebene_1" xmlns="http://www.w3.org/2000/svg" xmlns:xlink="http://www.w3.org/1999/xlink" x="0px" y="0px"
	 viewBox="0 0 1547.9 1049.4" enable-background="new 0 0 1547.9 1049.4" xml:space="preserve">
<g>
	<path fill="#020202" d="M402.2,197.3c-3.8,12-7.6,24-11.6,36.8c2.2-2.9,3.8-5.4,5.8-7.6c1-1.2,3.2-2.9,3.8-2.5
		c1.4,0.8,2.7,2.6,3.1,4.2c2.1,8.7,3.9,17.4,5.7,26.1c0.2,0.7,0.4,1.5,1.5,2.4c1.5-4,2.5-8.4,4.6-12c4.9-8.7,3.7-18.2,4.7-27.4
		c1.2-10.8,2.9-21.6,4.5-32.4c0.1-0.8,1.1-1.6,1.7-2.3c0.4,0.9,1.3,1.9,1.1,2.8c-1.4,10.8-3.1,21.6-4.5,32.4
		c-0.8,6.4-1.5,12.8-2,19.3c-0.1,1.6,0.4,3.5,1.1,5c7.5,15.5,18.3,28.5,31.3,39.5c19.5,16.7,42.4,27.4,66.6,35.6
		c17.6,6,35.4,10.7,54.3,10.3c23.3-0.5,43.8-8.1,62-22.4c13.8-10.9,26.4-22.9,36-37.7c2.9-4.4,5.4-9.2,7.4-14.1
		c1-2.4,1.3-5.7,0.5-8.1c-4-11-4.3-22.4-5-33.9c-0.4-6.4-1-12.7-2-19.1c-0.3-1.8-1.7-4.1-3.3-4.9c-8.3-4.2-16.8-8-25.2-11.9
		c-1.9-0.9-3.4-1.2-5.3,0.5c-1.4,1.3-4,1.3-6,2.1c-14.6,5.7-29.3,11.4-43.9,17.1c-3,1.2-6,2.3-9.1,3.1c-1.1,0.3-2.8-0.2-3.5-0.9
		c-0.6-0.6-0.6-2.5,0-3.3c3.2-4.1,5-9.3,11.8-10c4.3-0.4,8.3-3.2,13.7-5.4c-2.8-0.4-4.5-0.8-6.3-0.9c-14.8-0.1-28.2-4.6-40.8-12.3
		c-5.4-3.3-11.3-6-17-8.9c-1.4-0.7-3-0.9-3.7-1.1c3.5,7.1,7.1,14.3,10.6,21.5c0.4,0.7,0.8,1.5,0.9,2.2c0.2,2.6,0.2,5.3,0.2,7.9
		c-2.5-0.4-5.2-0.3-7.4-1.4c-19.1-8.8-36.7-20-52.8-33.6c-4.7-4-9-8.4-14.1-13.1c-3.3,4.7-6.7,9.5-10.1,14.4
		c-1.8,2.6-3.5,5.4-5.7,7.7c-3.8,3.9-6.7,3.3-8.7-1.7c-0.6-1.3-1-2.7-1.7-4.8c-6.2,6.6-12,12.9-17.8,19.2c-0.3-0.1-0.5-0.3-0.8-0.4
		c1-2.2,1.5-4.7,3-6.4c4.2-5,8.7-9.7,13.2-14.4c3-3.1,4.4-2.7,5.7,1.5c0.7,2.1,1.5,4.2,2.5,7.3c2.2-2.4,3.9-4,5.3-5.9
		c3.9-5.4,7.5-11,11.4-16.4c3-4.1,5.2-4.2,8.6-0.3c17.9,20.1,40.6,33.1,64.4,44.9c0.7,0.3,1.5,0.5,2.5,0.8c0-1,0.2-1.8,0-2.5
		c-3.7-9-6.8-18.3-14.1-25.3c-0.4-0.4-0.8-0.7-1-1.2c-0.8-1.6-1.5-3.2-2.3-4.8c1.7,0.2,3.3,0.3,5,0.7c11.2,2.2,20.6,8.5,30.3,14.1
		c10.3,5.9,21.3,9,33.1,9.2c3.4,0.1,6.8,0.8,11.4,1.3c-6-6.2-11.4-11.7-16.7-17.4c-1-1.1-1.6-2.5-2.4-3.7c1.6-0.3,3.3-1.2,4.7-0.9
		c9.4,2.6,18.8,5.1,27.9,8.3c11.3,4,22.4,8.5,33.5,13.1c6.1,2.5,12,5.7,18.2,8.7c0.6-0.8,1.2-1.8,1.9-2.8c0.4,0,0.8,0,1.1-0.1
		c0.5,2.8,1.2,5.7,1.4,8.5c1.4,13.8,2.6,27.6,4,41.3c0.4,4.4,1.3,8.4,4.7,11.9c2.6,2.7,3.8,6.7,5.7,10c1.2,2.1,2.7,4.1,4.1,6.2
		c0.3-0.2,0.7-0.3,1-0.5c-0.8-3-1.6-6-2.5-9c-4.7-15.4-2.7-31,0.2-46.3c0.9-4.9,2-9.8,2.8-14.8c0.4-2.5,1.4-3.6,3.8-3.5
		c2.4,0,4.8,0,8.7,0c-3.4-5.2-6-9.6-8.9-13.7c-3-4.1-2.8-4.8,2.1-5.8c2.2-0.4,4.4-1.1,6.6-1.6c3.2-0.8,4-2.9,2.1-5.3
		c-3.3-3.9-7.1-7.5-10.7-11.2c-0.8-0.8-1.4-1.7-2.1-2.6c1-0.8,1.8-2,2.9-2.2c4.1-1,8.3-1.8,13.6-2.8c-2-1.3-3.2-2.2-4.6-2.8
		c-14.8-6.1-29.6-12.2-44.3-18.3c-3-1.2-5.8-2.7-9.6-4.4c3.6-1.5,6.4-2.7,10.5-4.4c-4-1.9-7-3.6-10.2-4.7
		c-5.5-1.9-11.2-3.4-16.7-5.4c-1.6-0.6-2.6-2.5-3.9-3.8c1.5-0.8,2.9-2,4.5-2.5c5.1-1.3,10.3-2.3,16.7-3.7c-2.6-0.8-4-1.4-5.5-1.6
		c-10.1-1.4-20.3-2.6-30.5-4c-1.5-0.2-2.9-0.8-4.4-1.2c0.7-1.5,1-3.3,2.1-4.4c9.3-9.6,21-15.8,32.2-22.8c1.1-0.7,2.2-1.3,3.4-2
		c-7.3,0-14.5-0.6-21.5,0.1c-13.8,1.5-27.5,3.3-41.1,6c-6.7,1.4-13,5.2-19.5,7.9c-1,0.4-2.1,0.4-3.2,0.5c0.2-1.1,0-2.5,0.6-3.2
		c6.5-7.7,13.1-15.4,19.7-23c0.9-1.1,2.1-1.9,2.8-3.8c-4.8,0.7-9.6,1-14.3,2.1c-32.1,7.6-62.7,19-90.6,37.1
		c-9.6,6.3-17.9,13.9-23.6,24c-0.7,1.1-2,1.9-3,2.9c-0.4-0.3-0.8-0.5-1.2-0.8c1.5-2.8,2.4-6.2,4.5-8.4c6-6.4,11.8-13.3,18.9-18.2
		c30.3-20.8,64.2-33.4,100.1-40.5c6.5-1.3,13.3-1.2,19.9-1.6c0.9-0.1,1.9,1,2.8,1.5c-0.6,0.6-1.1,1.7-1.7,1.7
		c-9.3,1.4-14.5,8.5-20.6,14.4c-2.6,2.5-4.7,5.6-7.4,9c29.9-10.2,59.9-11.4,90.4-10.2c-16.2,7.8-31.3,17-45.3,29.2
		c9.3,1.3,17.8,2.1,26.1,3.6c5.9,1.1,11.6,3,17.3,4.7c0.9,0.3,1.5,1.5,2.3,2.3c-1.1,0.6-2,1.5-3.2,1.7c-7.3,1.1-14.6,2-22,3
		c0,0.5-0.1,1-0.1,1.5c3,0.9,6,1.6,8.9,2.8c6.1,2.5,12.2,5.1,18.1,7.9c1.1,0.5,1.7,2.1,2.6,3.2c-1.2,0.7-2.3,1.5-3.5,2.2
		c-0.8,0.4-1.6,0.6-3.3,1.2c7,2.8,13.1,5.2,19.2,7.7c9.1,3.8,18.2,7.6,27.2,11.5c1.6,0.7,3.3,1.4,4.5,2.5c1.3,1.1,2.1,2.8,3.1,4.3
		c-1.5,0.9-2.9,2.2-4.5,2.6c-3.2,0.9-6.5,1.3-10.7,2.1c1.6,1.5,2.9,2.5,4,3.8c2.6,3.2,5.5,6.2,7.4,9.8c1.9,3.5,0.5,6.2-3.3,7.5
		c-2.6,0.9-5.3,1.5-8.3,2.4c2.3,3.7,4.6,7.1,6.5,10.6c3.7,6.9,2.5,8.7-5.1,8.8c-1.3,0-2.6,0-4.1,0c-0.4,2.3-0.8,4.3-1.2,6.5
		c1,0.5,1.9,1,2.8,1.5c0,0.5,0,0.9-0.1,1c-7.4,6.6-6.1,15.6-7.2,24.1c-1.8,14.2,1.7,27.5,5.9,40.8c0.2,0.8,0.7,1.5,0.7,2.3
		c-0.1,1.3-0.4,2.6-0.6,3.9c-1.1-0.7-2.4-1.2-3.2-2.1c-3.6-4.4-7.1-9-11-14c-0.9,0.9-2.4,1.8-3,3.1c-11.1,23.9-29.3,41.3-50.2,56.4
		c-9.3,6.7-19.4,11.7-30.4,14.9c-1.2,0.3-2.6,1.5-3,2.6c-2.4,7,1.2,18.3,7,22.5c1.6,1.1,3.6,1.7,5.3,2.6c1.9,1,2.9,2.3,0.5,3.8
		c-5.9,3.7-11.7,7.4-17.7,10.8c-1,0.6-2.5,0.1-3.7,0.2c0.8-0.9,1.3-2.2,2.3-2.8c4.8-3.2,9.6-6.2,15-9.6c-11.2-6.6-12.9-17-12.1-28.8
		c-25.1,5.2-49.1,1.7-73-6.9c0.3,3.5,1.3,6.6,0.6,9.2c-1.5,5.4-3.6,10.8-6.2,15.8c-1.5,2.8-2.1,5-0.4,7.7c4,6.2,8.7,11.8,15.9,14.7
		c1.3,0.5,2.5,1.5,3.7,2.3c-0.1,0.5-0.3,0.9-0.4,1.4c-1.4-0.2-2.8-0.2-4.1-0.6c-7-2.4-12.2-7.3-15.9-13.4c-2.6-4.4-5.7-7.1-10.7-7.4
		c-4.7-0.3-9.3-0.5-14-0.7c-0.1,0.4-0.2,0.9-0.4,1.3c4,4.4,7.5,9.4,12,13.1c12.4,10.1,25.8,18.8,41.4,23.6c5.9,1.8,11.4,5,17.1,7.4
		c6.5,2.7,13.1,5.3,19.6,7.8c0.9,0.3,2.4-0.1,3.4-0.6c16.2-8.7,30.5-19.6,40.8-35c3.2-4.8,5.5-10.2,8.7-16.2
		c-5-0.1-8.8,0.6-12.5,2.6c-0.9,0.5-2.1,0.6-3.2,0.9c0.4-1.2,0.6-3,1.3-3.4c3.1-1.3,6.4-2.6,9.8-3.1c2.6-0.4,5.4,0.2,8.1,0.4
		c-0.8,2.3-1.4,4.6-2.4,6.8c-9.2,22.3-26.5,36.9-46.8,48.5c-0.3,0.2-0.6,0.5-1,0.8c3.5,2.4,6.9,3.1,11.2,1.9
		c15.2-4.4,30.6-8,45.7-12.9c5.9-1.9,11.7-5.6,16.2-9.9c9.1-8.5,17.4-18,25.9-27.1c1.3-1.4,2.2-3.3,3.3-5c2.6-4.3,5.5-8.1,10.8-9.3
		c1.6-0.4,3.2-1.7,4.4,0.8c0.1,0.3,2.3,0.2,2.7-0.4c1.6-2.2,2.9-4.7,4.7-7.9c-6.6-0.9-12.7-2.3-18.8-2.6
		c-13.2-0.4-26.4-0.3-39.6-0.3c-3,0-6.2,0.2-9.1,0.9c-11.6,2.7-23.3,2.4-35,2.4c-2.2,0-4.4,1.3-6.6,1.8c-1,0.2-2.1-0.2-3.1-0.3
		c0.3-0.9,0.4-2.3,1-2.6c2-0.9,4.2-1.8,6.3-2.1c3.4-0.3,6.9,0.1,10.4-0.2c8.7-0.6,17.5-1.5,26.2-2.2c5.8-0.5,11.7-1,17.5-1.1
		c8.9-0.1,17.9-0.4,26.8,0.2c8.3,0.6,16.6,2.2,24.8,3.3c1.2,0.2,2.7,0.2,3.7-0.4c16.6-9.6,33.8-8.9,50.9-2.1
		c11.4,4.6,22.3,10.4,30,20.5c1.9,2.5,3.7,5.3,4.5,8.3c2,6.8,2.7,13.9,5.2,20.5c1.8,4.9,2.2,10.3,7.7,14.1
		c13.7,9.3,26.6,19.9,40,29.7c3.5,2.5,7.8,4.1,11.8,5.7c10.9,4.3,21.9,8.5,32.9,12.5c8,2.9,10.4,10.6,5,17.1
		c-3.2,3.9-6.8,7.5-10.4,11.1c-8.9,9-18.2,17.7-26.8,26.9c-10.3,11-20.1,22.4-29.9,33.8c-0.7,0.8-0.5,3.2,0.2,4.4
		c14.9,26.3,32.5,50.7,53.8,72.3c12.9,13.1,26.1,26,39.1,38.9c1.2,1.2,2.6,2.2,4.5,3.8c10.5-20.9,25.7-34.9,50.6-34.2
		c-2.2-9.2-1.9-18.1,1-26.9c0.5-1.4,1.9-2.5,2.9-3.8c1.2,1.1,2.9,2,3.5,3.3c2.5,5.3,4.6,10.7,7.1,16.6c2-1.1,3.4-1.9,4.9-2.7
		c7-3.8,14-7.6,21.2-11.2c1.1-0.6,2.7-0.1,4-0.2c-0.2,1.4-0.2,2.8-0.7,4.1c-2.1,5.8-4.4,11.6-6.8,18c4.8-0.6,8.4-1.3,12-1.4
		c1.8-0.1,4.5,0.2,5.3,1.4c0.7,1.1-0.5,3.5-0.9,5.4c-0.1,0.5-0.3,1-0.8,2.2c3.2,0,6.1-0.1,8.9,0.1c1.2,0.1,2.3,0.8,3.5,1.2
		c-0.6,1.2-0.9,2.7-1.9,3.6c-2,2-4.3,3.8-7.3,6.4c7.9,1.4,14.8,2.6,21.6,3.8c0.8,0.1,1.7,0,2.4,0.3c1.2,0.5,2.2,1.1,3.4,1.7
		c-0.9,1-1.6,2.4-2.7,3c-2.7,1.5-5.6,2.7-9.5,4.6c2.1,0.5,2.9,0.5,3.7,0.9c0.8,0.4,2.1,1.4,2,1.5c-1.6,2.9,0.4,6.3-0.8,8.7
		c-0.9,1.9-3.9,3-6.2,3.8c-2.4,0.8-5.1,0.9-7.8,0.8c2.1-5,8.1-2,10.6-5.6c-0.3-1.9-0.7-3.9-1.1-6.2c-5.2-2.8-4.8-3.9,4.5-10.4
		c-5.4-1-10.3-1.9-15.2-2.8c-0.4-0.1-0.8,0-1.2-0.1c-2.3-0.9-4.5-1.8-6.8-2.7c1.3-2,2.4-4.2,3.8-6.1c0.7-0.9,1.9-1.3,2.9-2
		c-0.2-0.4-0.4-0.8-0.7-1.3c-1.5,0-3.1,0-4.6,0c-4.8-0.1-6-2-4-6.3c0.4-0.8,0.9-1.6,1.9-3.5c-4.7,0.8-8.4,1.3-12.1,2.1
		c-4.9,1.1-6.3-0.1-5.2-5c0.6-2.7,1.4-5.4,2.3-8.1c0.8-2.5,1.8-5,3-8.3c-1.8,0.7-3.1,1.1-4.2,1.8c-5.7,3.2-11.3,6.5-17,9.8
		c-4.4,2.6-5.9,2.2-8.1-2.2c-1.2-2.4-2.3-4.8-3.4-7.2c-1-2.3-1.9-4.5-3.2-7.7c-3.1,8.1-3.1,15.4-1.9,22.8c0.4,2.5,0,5.6,2.9,7.3
		c0.3,0.2,0.2,1.4,0,2.1c-0.1,0.2-1.3,0.4-1.7,0.1c-5.9-4.4-12.3-2.5-18.4-0.8c-10,2.8-18.4,8.3-24.5,17
		c-7.1,10.2-13.4,20.8-15.2,33.5c-1.8,12.5,0.4,23.9,7.6,34.2c9.1,13,19.7,24.5,33.1,33.2c14.8,9.7,35,9.3,49.1-1.5
		c3.6-2.8,6.1-6.9,9.2-10.3c1-1.1,2.4-1.7,3.9-2.1c-3.1,8-8.3,14.2-15.8,18c-10.1,5.1-20.8,7.3-32.1,5.7c-1.1-0.2-2.3,0.4-3.5,0.6
		c0,0.4,0.1,0.8,0.1,1.2c4.9,1,9.9,1.7,14.6,3.2c4.9,1.5,10.5,2.7,14,6c6.5,6,12,13.1,17.4,20.2c8.1,10.5,8.4,23.1,9,35.6
		c0.3,5.3,1.7,10.6,2.2,16c0.4,4.5,0.3,9,0.1,13.5c-0.1,3.4,1.5,4.2,4.7,4.1c42.1-1.1,84.2-2.3,126.3-3.2c45.7-0.9,91.4-1.5,137.2-2
		c14.5-0.2,29.1,0.3,43.6,0.7c3.4,0.1,6.7,1.1,10,1.6c-0.1,0.6-0.2,1.1-0.3,1.7c-1.8-0.3-3.7-0.8-5.5-0.8c-14-0.4-28-1.2-42-1.1
		c-46.7,0.4-93.3,1.1-140,1.8c-15.3,0.2-30.7,0.5-46,0.9c-28,0.7-56,1.5-83.9,2.3c-0.9,0-1.8,0.2-3.6,0.4c0.5,4.3,0.7,8.5,1.4,12.6
		c1.6,8.8,3.4,17.5,5.2,26.2c0.5,2.2,0.9,4.7,2.2,6.3c3.2,3.7,3.3,7.9,3.4,12.3c0.1,4.1,0.5,8.2,0.8,12.3
		c1.2,13.8-6.2,23.1-16.1,31.1c-2.8,2.2-5.9,4.1-9.1,6.3c1.9,3.4,3.7,6.9,5.7,10.3c6.2,10.8,5,25.2-5.9,34.8
		c-7.9,6.9-16.6,10.5-27.1,11c-15.3,0.8-30.4,0.9-45.2-3.4c-7.9-2.3-15.4-5.1-21.4-11.1c-5.9-5.9-8.3-13-6.3-21.2
		c1.5-6,3.6-11.8,5.6-18.1c-5.2,0.2-11,0.5-17.5,0.8c0.8,1.1,1.3,1.9,1.9,2.5c7.1,7.8,7.9,22.4-4.2,29.1
		c-23.1,12.9-47.4,15-72.6,6.9c-6.2-2-11.6-5.3-16.1-10c-7.6-8-7.9-17.9-0.4-26.1c2.8-3,6.1-5.5,9.3-8.3c-4-4.3-9.1-8.2-12-13.4
		c-4.2-7.3-10.3-10.1-17.9-12.3c-9.7-2.8-19.5-6-28.4-10.6c-9.9-5.1-18.9-11.9-28.2-18c-4.8-3.2-9.2-6.8-14-10
		c-6.2-4.1-11.7-8.9-15.7-15.2c-1.3-2.1-3-3.1-5.6-2.8c-24,2.1-48,4.2-72.1,6.2c-2.9,0.2-3.5,1.4-3.4,4c0.1,13.9,0.2,27.7,0.1,41.6
		c0,1.5-0.3,3.3-1.1,4.5c-8,11.6-17.8,15.7-32.1,14c-2.2-0.3-4.2-1.9-6.5-3c-0.5,9.6,0,19.2,3.7,28.3c3.8,9.2,12,14,19.9,18.9
		c10,6.3,21.1,7.9,32.6,7.7c5.6-0.1,11.3,0.2,16.8-0.8c15.6-2.8,28.8-10.4,38.7-22.9c5-6.3,6.1-13.6,2.6-21.4
		c-7.1-15.8-18.3-27.1-35.4-30.7c-9.8-2.1-20.1-2.2-30.2-3.2c-2.3-0.2-4.6-0.6-6.9-0.9c0-0.5,0-1,0-1.5c0.9-0.3,1.9-0.8,2.7-0.8
		c12.6,1.2,25.6,0.9,37.6,4.1c19.2,5,31.2,18.7,36.8,37.7c2,6.9-0.5,13.5-4.9,18.7c-12.2,14.6-27.6,23.8-47.1,24.5
		c-8.1,0.3-16.3,0.3-24.3-0.6c-15-1.6-27-9.5-37.2-20.1c-2.9-3-5.2-7.4-6-11.5c-1.7-9.3-2.8-18.9-3.3-28.4c-1-16.5-1.4-33-2.1-49.5
		c-0.1-1.4,0-2.8,0-4.8c-6.1,0.4-11.7,0.8-17.2,1.1c-14.8,0.9-29.5,2-44.3,2.7c-3.9,0.2-5.1,1.7-5.2,5.6c-0.5,15-1.3,30.1-2.3,45.1
		c-0.4,5.5-4.9,9.7-10.5,9.3c-4.3-0.3-9-1-12.6-3.2c-9.3-5.5-16.2-13.6-19-24.2c-1.1-4.2-3.4-5.3-7-5.3c-8.4,0-16.8,1-23.8,5.6
		c-6.9,4.6-13.7,9.8-19.2,16c-9.3,10.3-6.9,26.1,4.6,36.3c11.8,10.5,25.8,16.2,41.3,18.7c15.6,2.5,30.1-1,43.2-9.2
		c4.9-3.1,8.8-8,12.7-12.5c1.2-1.3,1.6-4.2,1.1-6c-1.6-6.4-3.7-12.7-5.6-19.1c-0.3-1.1-0.1-2.3-0.1-3.4c0.9,0.6,2.2,1,2.7,1.8
		c4.2,7.3,5.8,15.4,6.3,23.7c0.1,1.8-1.1,3.8-2.2,5.4c-9.8,14.1-24.2,20.5-40.4,22.4c-23,2.7-43.5-4.4-61-19.5
		c-14.8-12.6-15.5-31.3-1.6-44.8c14.4-14,22.2-17.5,43.4-19.1c0-5.9,0.1-11.9-0.2-17.8c0-0.7-2.2-2-3.3-2c-12,0.5-24,1.1-35.9,1.7
		c-14.4,0.7-28.7,1.6-43.1,2c-42.2,1-84.5,1.5-126.7,2.8c-24.1,0.7-48.1,2.6-72.2,3.9c-2.3,0.1-4.5,0-6.8,0c0-0.5,0-0.9-0.1-1.4
		c0.9-0.2,1.8-0.5,2.8-0.6c20.5-1.2,41-2.5,61.4-3.7c3.2-0.2,6.4-0.3,9.6-0.4c34-0.6,68-0.9,102-1.8c33-0.9,66.1-2.6,99.1-4
		c3.2-0.1,6.4-0.7,9.6-0.6c3.1,0,4.1-1.2,4.1-4.3c-0.1-20-0.4-40,0.1-60c0.8-33,2.1-66.1,3.4-99.1c0.2-6.2,1.6-12.4,2.3-18.6
		c0.1-1.1,0.3-2.5-0.2-3.4c-4.5-7.3-7.8-14.8-6.1-23.9c-4.1,8-11.1,11.6-19.1,13.1c-5,0.9-10.4,0.9-15.4,0.3
		c-4.6-0.5-9.1-2.1-13.5-3.6c-26.4-9.2-33.2-34.8-23.8-57.4c2.6-6.2,7.1-11.9,11.6-17c5.2-5.8,11.4-10.8,17.7-16.6
		c-6.6-2.8-13-5.9-19.7-8.2c-21.1-7.3-42.5-14.1-63.6-21.6c-5.4-1.9-10.4-5.4-15.5-8.2c-8.9-4.9-17.8-9.7-26.6-14.7
		c-5.2-3-10.2-6.3-15.3-9.4c-13.1-8.1-26.3-16.2-39.3-24.4c-3.2-2-6.2-4.5-9.3-6.9c-2.3-1.8-2.7-4-1-6.7
		c11.3-18.7,22.3-37.6,33.9-56.1c7.2-11.5,15.2-22.5,23.1-33.6c2.3-3.2,2.6-5.8,0.4-9c-2.6-3.8-5.2-7.7-7.5-11.8
		c-9-16.3-7.9-32.1,2.7-47.4c5.1-7.4,11.9-12.9,19.5-17.4c0.9-0.5,2-0.6,3-0.8c0.3,0.4,0.5,0.9,0.8,1.3c-1.6,1.3-3.1,2.8-4.8,3.9
		c-8.4,5.1-14.9,12-19.5,20.7c-6.4,12.1-6.1,24.4,0.1,36.4c3.2,6.3,7.1,12.2,10.5,18.4c0.6,1,0.3,3.1-0.4,4.1
		c-15.4,23.4-31,46.6-46.3,70c-4.3,6.6-7.5,13.8-11.6,20.5c-2.4,3.8-0.7,6,2.1,7.8c6.7,4.4,13.5,8.6,20.3,12.8
		c7.6,4.7,15.2,9.3,22.8,13.9c8.3,5.1,16.3,10.8,24.9,15.1c15.2,7.6,28.9,18.1,45.5,23.1c15.6,4.7,31,9.9,46.3,15.1
		c7.5,2.6,14.8,5.8,22.3,8.8c2.1,0.8,4.3,1.3,6.3,2.3c0.9,0.4,1.8,1.5,2.1,2.5c0.1,0.4-1.2,1.4-2,2c-17.4,11.6-32.8,24.7-34.2,47.6
		c-1,15,4.7,26.8,18,34.5c8.7,5,18.2,7.5,28.2,7.8c13,0.4,22.9-7.6,25.3-20.3c0.2-1.3,0.3-3.1-0.4-4.2c-7.3-12.2-9.4-25.9-11.6-39.6
		c-0.4-2.2-1.1-4.4-1.7-6.5c-0.8-2.5,0.4-4.6,3.1-5c2.3-0.3,4.7-0.6,7.6-1c-2.2-4.5-4.4-8.3-6-12.3c-2.3-5.5-4.2-11.2-6.1-16.8
		c-1.5-4.4-2.8-8.9-4.2-13.3c-1.3-3.9-4.5-6.3-8.1-7c-13.6-2.6-25.7-8.4-37.3-15.7c-4.8-3-10.2-5.4-15.6-6.9
		c-13.7-3.7-25.7-11-38-17.6c-10.9-5.9-22-11.4-33-17.1c-5.1-2.6-10.1-5.5-15.1-8.1c-1.7-0.9-3.5-1.7-5.4-2.6c0.1-0.4,0-1,0.3-1.4
		c9.1-12.4,13.3-26.9,18-41.2c4.1-12.4,3.1-10.1,13.9-10.2c16.1-0.2,30.2-5.7,42.4-16.1c4-3.4,10.2-2.5,13.4,2.1
		c7.7,11.1,15.5,22.2,23.2,33.4c6.7,9.8,12.4,20.2,16.2,31.5c1.6,4.8,4,9.3,5.8,14c4,10.4,8,20.8,12,31.3
		c4.2,11.1,8.4,22.1,12.3,33.3c1.3,3.7,1.9,7.7,2.5,11.6c1.5,10.3,8,18.5,11.8,27.9c0.3,0.8,2.5,1.3,3.7,1.2
		c4.8-0.5,9.5-1.1,14.3-1.9c11.4-1.8,22.6-1.1,34.1-0.1c15,1.2,30,4.5,45.4,1.6c5.7-1.1,11.9,0.2,17.9,0.6c11.1,0.9,22.2,2,33.4,2.9
		c9.4,0.8,18.8,1.5,28.6,2.3c1.9-4.8,4.1-9.6,5.9-14.6c4.4-12.4,9.5-24.6,12.9-37.3c6.8-25.2,17.1-49.1,27.1-73
		c6.5-15.5,14.6-30.2,22-45.3c1.4-2.7,2.8-5.5,4.4-8.1c2.9-4.6,3.5-4.4,8.2-2.1c12.8,6.4,26.3,7.4,40.1,4.8c8.4-1.5,16.7-3.7,23.7-9
		c5.6-4.2,6.2-4.3,10.6,1.5c3.8,5.1,9,8.1,14.3,11.2c8.7,5.1,17.6,9.3,27.6,11.4c2.3,0.5,4.2,2.4,7.1,4.2
		c-6,5.8-11.3,11.1-16.9,16.2c-22.6,20.5-46.3,39.7-67.7,61.6c-12.9,13.2-27.2,25.2-40.9,37.6c-8.7,7.9-17.6,15.5-26.4,23.2
		c-1.4,1.2-3.1,2.1-4.7,2.9c-0.6,0.3-1.9,0.2-2.1-0.2c-1.6-3.4-4.5-2.2-7-2.1c-7.3,0.5-13.7,3.1-20,7.1c-5.1,3.2-9.3,6.5-11.4,12.2
		c-0.3,0.9-0.4,2.1,0,2.9c2.3,4.5,2,9,0.6,13.6c-2.2,7.5-4.3,15.1-6.7,22.6c-2.3,7.1-1.3,14,2.6,19.7c7.6,11.2,16.4,20.7,31.1,23.5
		c11.2,2.1,21.6,2.3,31.8-2.9c6.3-3.2,10.6-8,12-15.1c1.6-8.3,1.2-16.3-2-24.3c-2.6-6.4-4.6-13.1-6.8-19.6c-0.3-0.9,0.1-2,0.2-4.2
		c1.4,1.6,2.3,2.2,2.5,2.9c3.4,10.4,7.8,20.5,9.7,31.2c2.1,11.5,0,23-11,30.1c-9.8,6.4-20.7,8.1-32.2,5.9c-1.3-0.2-2.6-0.8-3.9-1
		c-20.4-3.2-31.3-16.8-38.5-34.8c-4.2,0.8-8.8,1.7-13.4,2.6c-0.5,5.5-0.6,11.4-1.7,17c-1.8,9.4-2.8,18.8-2.7,28.4
		c0.1,8.9,2.4,16.8,7.5,24.3c3.6,5.3,6.3,11.5,8.2,17.6c2.4,7.5,5.8,14.2,11.4,19.9c9,9,14,20.7,20.1,31.6
		c3.6,6.5,7.6,12.9,12.1,18.8c11,14.7,22.4,29.2,33.8,43.6c2.8,3.5,5.9,6.9,9.5,9.6c11.6,8.7,23.3,17.4,35.5,25.3
		c6.8,4.4,14.4,7.5,21.9,10.5c8.6,3.4,17.6,5.9,26.8,9c3.9-15.2,7.5-29.8,11.5-44.3c3.7-13.6,8.3-27,11.6-40.7
		c5.1-21.6,6.4-43.7,5.7-65.9c-0.6-17.3-1.3-34.6-5.5-51.5c-0.9-3.6,0.4-5.6,3.8-7.2c3.5-1.7,6.8-4.2,9.8-6.8
		c11.2-9.5,22.2-19.1,33.3-28.7c0.7-0.6,1.4-1.2,1.5-1.3c-3.3-6-6.6-11.6-9.6-17.3c-8.7-17.2-17.5-34.4-25.8-51.9
		c-3.2-6.8-5.3-14.2-7.7-21.4c-3.2-9.3-6-18.8-9.3-28c-1.1-3.1-3.6-4.6-7.1-4.9c-7.1-0.7-13,1.6-19.2,5.2
		c-12.5,7.3-17,18.7-18.2,32.2c-2,21.5,6.6,39.6,18.6,56.4c7.4,10.4,15.2,20.6,22.7,31c4.9,6.8,9.5,13.8,14.2,20.7
		c0.6,0.9,1.5,1.6,1.9,2.6c0.3,0.8,0,1.8,0,2.8c-0.8-0.3-1.9-0.4-2.3-1c-3.4-4.2-7.4-8.2-10-13c-8.2-14.8-19.1-27.6-28.9-41.2
		c-9.5-13.4-17.4-27.7-19.1-44.7c-1.3-12.3,0.5-24.1,5.6-35.1c2-4.3,6.6-7.5,10.5-10.7c6.8-5.5,14.2-9.8,23.7-8.6
		c6.1,0.8,9.4,3,11.3,8.9c8.6,27,17.2,54,31.1,79c4.9,8.8,9.2,18,14,26.9c1.7,3.1,4,5.9,5.9,8.7c0.8-0.1,1.1-0.1,1.3-0.2
		c4.9-4.5,5.7-4.2,8.4,1.9c6.4,14.5,14.8,27.5,28.4,36.4c2.4,1.6,4.6,3.6,7.2,5.6c2.5-3.1,4.8-6,7.2-8.9c-2.6-3.8-5.4-7.4-7.7-11.3
		c-9.3-15.2-8.8-31.2-2.7-47.2c1.2-3.2,0.8-4.7-1.7-7c-32.5-30-63.6-61.2-87-99.2c-3.2-5.2-6.3-10.5-9.7-16.2
		c-4.7,4.3-9.5,8.1-13.6,12.5c-16.3,17.3-35.8,30.7-54.5,45c-15,11.4-29.7,23.1-44.5,34.6c-1.4,1.1-2.7,3.1-4.7-0.1
		c1.4-1.2,2.8-2.5,4.4-3.7c25.9-19.9,52-39.5,77.5-59.9c11.4-9.1,21.8-19.6,32.2-30c8.1-8.2,15.3-17.3,23.2-25.7
		c11.4-12.1,23.1-23.9,34.7-35.8c4.4-4.5,8.8-9,13-13.6c5.3-5.8,3.9-10.7-3.5-13.6c-13.2-5.1-26.3-10.2-39.4-15.5
		c-2.3-0.9-4.5-2.3-6.5-3.8c-9.4-6.6-18.8-13-28-19.9c-5.9-4.5-11.5-9.5-17-14.5c-1.4-1.3-2-3.6-2.4-5.6c-2.1-9.1-3.5-18.3-6.3-27.1
		c-1.3-4.1-4.9-8.1-8.5-10.9c-14.5-11.2-30.4-19.2-49.5-18.4c-9.5,0.4-18.1,3.5-25.4,9.7c-1.7,1.5-3.3,3.7-4,5.9
		c-0.8,2.6-2.3,3.3-4.7,3.2c-1.9,0-3.7,0.4-5.6,0.3c-3.3-0.2-5.1,1.6-6.8,4c-11.5,16.9-24.9,32-42.6,42.6
		c-11.1,6.7-23.8,9.2-36.2,12.3c-9.9,2.5-20,5-30.1,6.1c-7.3,0.8-14.9-0.2-22.2-1.1c-15.8-2.1-31.7-4.3-47.4-7.2
		c-6.6-1.2-12.8-4.5-19.1-7c-11.2-4.5-20.2-12.8-30.5-18.8c-11.7-6.9-24.6-12-37.2-17.4c-2.8-1.2-6.6-0.9-9.8-0.6
		c-5.6,0.6-7.6-0.9-7.7-6.4c-0.1-2.7-0.1-5.3-0.5-8c-1.2-8.6-5.5-14.8-12.9-19.6c-10.1-6.5-20.7-11.6-32.6-13.4
		c-11.3-1.7-22.3,0.1-33,3.7c-1.2,0.4-2.6,0.1-3.9,0.1c1-1,1.8-2.5,3-3c21.2-7.5,41.6-5.7,61.2,5.5c2.3,1.3,4.4,3,6.8,4.3
		c7.7,4.4,12.7,10.8,14.3,19.7c0.1,0.8,0.4,1.5,0.7,2.5c8.6-1.7,17-3.6,25.5-4.9c10.7-1.6,21.4-2.8,32.1-4c13.1-1.4,26.2-2.6,39.3-4
		c1.6-0.2,3.2-0.4,4.7-0.7c5.1-0.9,5.2-1.5,4.5-6.8c-0.6-4.2-2.4-6.2-6.5-7.7c-24.5-8.5-47.3-20.3-66.5-38.1
		c-5.4-5.1-10.3-10.8-14.9-16.7c-4.6-5.8-8.5-12.2-12.9-18.5c-1.7,4.3-3.5,8.8-5.3,13.2c-0.5,1.2-1,2.5-1.8,3.6
		c-0.7,0.8-1.8,1.3-2.7,2c-0.6-0.9-1.6-1.8-1.9-2.8c-2.3-10.7-4.5-21.3-6.7-32c0-0.2-0.3-0.4-1.1-1.3c-4.5,6.8-9,13.3-13.4,19.9
		c-0.5,0.8-0.7,1.8-1.4,2.4c-1,1-2.3,1.7-3.5,2.5c0-1.3-0.4-2.8,0-3.9c4.5-12.3,9.5-24.4,13.6-36.7c2.3-6.8,3.3-14,5-20.9
		c0.2-0.8,1-1.5,1.5-2.3c0.5,0.8,1.5,1.6,1.5,2.4c0,2.3-0.4,4.5-0.6,6.8L402.2,197.3z M977.9,892l0.1,0.1
		c-3.7-11.5-5.1-23.3-4.9-35.1c-3.2-0.7-6.2-0.9-8.9-1.9c-3.2-1.2-6.2-3.2-6.1-7.1c0.2-9,0.6-18,1-27c0-0.9,1-1.8,1.5-2.8
		c0.5,0.9,1.5,1.8,1.5,2.8c0.1,7.7,0.2,15.5-0.2,23.2c-0.3,6.2,0.6,8.1,6.8,9c2.4,0.4,5.2,0.4,7.5-0.4c11.1-3.6,22.3-7.2,33.2-11.5
		c8-3.1,15.4-7.9,24.8-7.9c1.1-9.2-0.1-18-1.5-26.8c-0.5-3.4-1.6-6.8-3.1-9.8c-1.3-2.6-1.1-3.6,1.9-3.8c-4.8-13-12.4-23.5-22.7-32.2
		c-4-3.4-8.8-5-14-5.1c-3-0.1-6.2,0.8-8.8-1.9c-0.6-0.7-2.4-0.8-3.4-0.5c-6.9,1.8-13.8,3.8-20.6,5.8c-7.2,2.1-14.3,4.4-21.5,6.3
		c-4.4,1.2-8.8,0.8-12.4-2.6c-6.5-6.1-8.4-17.1-4-25c2.2-3.9,4.9-7.5,7.9-12c-17.2-10.7-29.8-25.6-36.9-45.3
		c-2.6,2.4-4.6,4.3-6.7,6.1c-11.6,10-23.1,20.1-34.8,30c-3.1,2.6-6.9,4.5-10.1,7c-1,0.8-1.9,2.8-1.7,4.1c0.7,4.7,2,9.4,2.7,14.1
		c3.4,22,3.1,44.2,2.2,66.4c-0.5,12.4-2.3,25-5.3,37.1c-6.3,25.6-13.6,51-21,76.3c-2.3,7.9-0.6,14.1,4.6,19.6
		c4.8,5.1,9.1,10.4,15.7,13.8c4.5,2.3,8.7,4.4,13.7,4.6c4.8,0.2,9.6,0.1,14.4-0.1c21.5-1.1,43-2.2,64.5-3.3c0.8,0,1.5,0.3,2.3,0.6
		c6.2,2.1,12.2,4.5,18.5,6.1c6.5,1.7,13.2,3.7,19.7,3.6c18.1-0.4,35.8-3.3,52.2-12.2c6.4-3.4,11.9-7.3,16.6-12.6
		c1.2-1.3,1.9-3.2,2.4-4.9c0.5-1.6,0.4-3.5,0.8-5.1c1.2-5.1,3.4-10.2,3.5-15.3c0.2-9.8-2.8-18.6-11.8-24.3c-0.6-0.4-0.7-1.5-1-2.2
		c0.9-0.1,2.1-0.6,2.8-0.2c1.5,0.7,2.8,1.8,4.3,2.8c-2.9-18.5-5.7-36.7-8.7-55.9c-2.4,0.3-5.7,0.3-8.8,1.1c-3.2,0.8-6.2,2.4-9.3,3.6
		c-11.2,4.3-22.3,8.7-33.6,12.7c-7.2,2.5-7.9,3.2-7.3,11c0,0.5,0.1,1.1,0.2,1.6c1.2,7.5,2.4,15,3.8,22.4
		C980.5,891.1,980.3,892.2,977.9,892z M655.5,615.4c5.1-5.2,10.2-9.8,17.2-12.5c7.6-3,15.3-4.8,23.3-3c2.2,0.5,3.3,0.3,4.9-1
		c8.8-7.8,17.6-15.5,26.4-23.2c10.3-9,20.9-17.9,30.9-27.2c18.4-17.1,36.5-34.6,54.9-51.8c2-1.9,2.4-3.4,1.6-5.8
		c-3-9.5-5.7-19.1-8.7-28.7c-2.6-8.3-5.4-16.6-8-24.5c-5.9,2.4-11.5,5.2-17.4,7c-16.1,5.1-32.3,4.9-48.1-1.4
		c-6.2-2.5-6.2-2.7-9.4,3.3c-0.8,1.5-1.6,3.1-2.4,4.6c-5.8,12-12.1,23.8-17.3,36c-9,21.2-17.6,42.5-26,64
		c-2.2,5.5-3.1,11.6-4.6,17.4c-0.3,1-0.7,2-1.1,3c-1.8,4.1-4,8-5.5,12.2c-3.5,9.9-6.8,19.9-10.1,29.9
		C655.8,614.2,655.7,614.8,655.5,615.4z M479.1,669.7c-4.3,10.5-1.5,26,7.6,34.8c9,8.8,16.3,18.6,21.1,30.3
		c2.2,5.3,4.3,10.6,6.9,15.7c3.7,7.1,8.5,12.5,17.8,10.8c2-0.4,4.3,0,6.3,0.5c14,3.3,28.2,4.2,42.4,4.1c3.2,0,6.4-0.1,9.6-0.6
		c1.2-0.2,3-1.6,3.3-2.7c3.1-11.4,5.9-22.9,8.8-34.4c4.3-16.9,10-33.2,20.7-47.3c1.5-2,2.7-4.2,4.7-7.4c-5.2,0.3-9.4,0.5-13.6,0.7
		c-8.8,0.5-17.5,1.6-26.3,1.3c-24.5-0.9-48.9-2.3-73.4-3.7C503.1,671.4,491.3,670.5,479.1,669.7z M463,617.8
		c0.5,2.6,0.8,4.1,1.1,5.7c2.3,11.9,3.3,24,8.7,35.1c1.8,3.7,4.4,6.3,8.4,7.1c5.5,1,11.1,2.1,16.6,2.5c9.3,0.8,18.6,1.2,27.9,1.6
		c8.4,0.3,16.8,0.1,25.2,0.5c15.8,0.7,31.6,2.2,47.5,2.5c9.3,0.1,18.5-1.6,27.8-2.2c3.4-0.2,6.9,0.6,10.3,0.2
		c3.8-0.4,8.3-0.1,9.8-5.1c3-10.1,6.2-20.1,8.9-30.3c2.3-8.6-1.2-12.5-10.2-13.4c-15.5-1.5-31.1-2.1-46.6-3.3
		c-4.1-0.3-8.1-1.7-12.2-2c-6.1-0.3-12.2-0.1-18.3-0.1c-8,0-15.9,0.1-23.9-0.3c-7.7-0.3-15.4-1.2-23-1.8c-5.9-0.4-11.9-1.3-17.8-1
		c-6.8,0.3-13.5,1.6-20.2,2.5c-3.8,0.5-7.5,1.3-11.3,1.7C468.9,618,466.2,617.8,463,617.8z M450.7,562.9c-0.4-1.5-0.5-2.2-0.7-2.8
		c-1.7-4.7-3.7-9.3-5.2-14.1c-1.3-4.2-1.6-8.7-3.3-12.7c-7.1-17.6-14.6-35.2-21.9-52.7c-0.4-0.9-0.9-1.6-1.4-2.4
		c-10.5-15.7-21-31.4-31.5-47c-2.4-3.5-5.9-3.7-8.9-0.9c-1.2,1.1-2.4,2.1-3.7,3c-13.3,9.3-27.9,14.3-44.3,13.5
		c-3.5-0.2-4.9,1.1-5.9,4.3c-4.8,15.1-9.5,30.2-18,44c5.9,3.1,11.6,6.2,17.4,9.2c11.1,5.8,22.3,11.3,33.3,17.3
		c12.5,6.8,24.7,14.2,38.8,17.8c5.1,1.3,9.9,3.9,14.5,6.5c7.9,4.6,15.5,9.8,24.7,11.9C439.8,558.8,444.8,560.9,450.7,562.9z
		 M630,679.7c-0.6-0.2-1.2-0.4-1.8-0.6c-4.3,7.3-9.2,14.3-12.7,22c-8.7,19-12.3,39.6-17.7,59.7c-1.7,6.4-1.1,6.5-7.4,8.1
		c-0.7,0.2-1.4,0.5-1.8,0.6c0,7.9-0.8,15.6,0.2,23.1c2.7,19.5,5.9,39,5.9,58.8c0,10.8-0.2,21.5,0.1,32.3c0,1.8,1.2,4.4,2.6,5.3
		c5.9,3.7,12.4,6.4,19.6,5.2c3.8-0.6,7.5-1.7,11.3-2.4c1.3-0.3,2.8,0,4.2,0c0,0.5,0,1.1,0,1.6c-12.6,5.5-25.1,6-37.9-2.1
		c0,6.8-0.2,12.7,0.1,18.5c0.3,7,0.7,14.1,1.8,21.1c0.7,4.4,3.2,8.6,8.2,9.3c11.1,1.6,20.6-1.7,27.4-11c0.9-1.2,1.6-2.9,1.6-4.3
		c-0.3-23.2-0.5-46.4-1.3-69.5c-0.8-24.8-3-49.5-3.3-74.3c-0.2-19.6-1.7-39.1-3.1-58.6c-0.6-8.1,0.8-16.4,1.6-24.6
		C628,691.7,629.1,685.7,630,679.7z M584.7,769.8c-10.9-0.8-21.4-1.4-31.9-2.4c-7.4-0.7-14.7-2.2-22.1-3c-5.3-0.5-5.6-0.3-5.9,5.2
		c-0.6,12.8-1.4,25.6-1.3,38.3c0.3,24.6,1.3,49.2,1.9,73.9c0.1,2.7,1.1,3,3.4,2.9c11.3-0.7,22.6-1.3,33.9-2
		c8.4-0.5,16.7-1.2,25.1-1.8c2.5-0.2,3.7-1,3.8-3.9c0.4-24.3-0.5-48.5-4.5-72.5c-1.8-10.8-3.8-21.5-2.1-32.5
		C585.2,771.3,584.9,770.5,584.7,769.8z M483.1,707.8c-5.5,57.3-5.5,113.6-5.4,170c6.7,1.6,13.3,2.7,19.6,4.8
		c7.2,2.4,14.2,2.7,21.6,1c2.8-0.7,3.9-1.8,3.8-4.5c0-7.7,0.3-15.5-0.2-23.2c-1.9-29.9-3.8-59.8-0.4-89.8c0.1-0.9-0.4-2.3-1.1-2.9
		c-5-4.4-8.8-9.6-11.4-15.7c-2.8-6.5-5.2-13.2-8.8-19.2c-3.8-6.3-8.6-12.1-13.2-17.9C486.9,709.4,485.3,709,483.1,707.8z
		 M713.7,870.8c-0.7-1.3-1-1.9-1.4-2.4c-8.7-11.1-17.6-22.1-26-33.4c-4.7-6.3-9.1-12.9-12.9-19.7c-6.6-11.9-12.6-24-22-34.1
		c-4.2-4.5-6.4-10.8-9.2-16.5c-2.6-5.4-4.6-11-7-16.5c-0.8-1.8-2.2-3.3-3.3-4.9c-0.2,18.6,0.2,36.7,1,54.7
		c1.1,25.1,2.5,50.3,3.6,75.4c0.1,3.1,1.1,3.8,4.1,3.5c12.1-1.1,24.2-1.9,36.2-2.9C688.8,873,700.9,871.9,713.7,870.8z
		 M984.7,1011.6c6.3-0.3,12.3-0.8,18.3-0.9c11.6-0.2,20.3-6,27.1-14.7c2.1-2.6,3.4-6.1,4.1-9.3c2.3-9.6-3-17.2-7.5-24.9
		c-1.4-2.4-2.8-2.3-5.2-1.5c-10.1,3.2-20.2,7-30.6,8.9c-8.3,1.5-17.1,1.5-25.4,0.4c-7.6-1-15.1-4.2-22.4-7c-3.4-1.3-5.8-0.9-7.2,2.3
		c-1.7,3.9-3.2,7.9-4.3,11.9c-2.9,11.4,0.7,19.7,11.2,25.4C956,1009.2,970.3,1011.2,984.7,1011.6z M519.3,335.3
		c-7.3,0.7-13.1,1.3-18.9,1.8c-17.6,1.8-35.2,3.3-52.8,5.5c-8.3,1-16.4,3.3-24.7,4.7c-3.6,0.6-7.6-0.1-8.9,4.6
		c-0.4,1.4-1.1,3-0.6,4.1c0.3,0.8,2.3,1,3.6,1.1c4.1,0.4,8.6-0.5,12.2,1c12.5,5.2,25.2,10.4,36.9,17.2c10.5,6.1,19.6,14.7,31.1,19.2
		c6.8,2.6,13.6,5.9,20.7,7.2c16.4,3,32.9,5.1,49.4,7.3c5.8,0.8,11.7,0.8,17.6,1.2c0.1-0.4,0.1-0.9,0.2-1.3c-4.8-2-9.7-3.8-14.4-5.9
		c-8.1-3.6-16.1-7.4-24.3-10.9c-3.7-1.6-7.7-2.2-11.4-3.8c-17.8-7.8-33.6-18.3-46-33.6c-1.7-2.2-3.8-4.1-5.6-6.3
		c-0.6-0.7-0.5-1.8-0.7-2.8c0.8,0,1.7,0.1,2.5,0.1c1.1,0.1,2.3,0.4,3.4,0.4c7.3,0.2,14.6,0.3,21.9,0.4c0.9,0,2.3-0.3,2.7-0.9
		C515.2,342.6,516.9,339.4,519.3,335.3z M920.1,977.6c-0.5-2.5-0.7-5-1.5-7.4c-1.2-4-7-8.9-10.5-8.8c-10.7,0.3-21.3,0.5-32,1.1
		c-11.2,0.6-22.6,2.4-33.1-2.6c-5.6-2.7-9-0.8-12.7,2.5c-1.5,1.3-3,2.7-4.2,4.3c-5.3,6.7-5.3,13.7,0.5,19.9
		c2.9,3.1,6.5,6.2,10.4,7.8c6,2.5,12.4,4.1,18.7,5.4c20.6,4.5,39.6-0.3,57.5-10.6C917.5,986.7,920.4,983,920.1,977.6z M477.7,881.1
		c0,8.5,0.1,16.8,0,25.1c0,2.8,0.3,5.2,3.3,6.5c0.9,0.4,1.7,1.7,1.9,2.7c1.7,11.6,9,19.4,18.3,25.3c2.9,1.9,7,2.3,10.7,2.6
		c4.2,0.3,7-2.4,7.6-6.5c0.6-4.3,1.1-8.7,1.2-13.1c0.4-10.5,0.6-21,1-31.5c0.1-1.9,0.2-3.8,0.4-5.9c-1.6,0.2-2.7,0.2-3.7,0.4
		c-7.5,1.8-14.7,1.1-22-1.3C490.4,883.6,484.2,882.6,477.7,881.1z M944,717.5c-5.4,6.7-10.7,13.1-15.8,19.8
		c-5.1,6.8-4,13.7,0.1,20.5c2.5,4.2,6,5.8,10.9,4.7c4.5-1,9-2.3,13.4-3.6c7-2.1,13.9-4.5,20.9-6.4c3.5-0.9,4.9-3.3,6.5-6.1
		C965.6,739.7,954.4,729.5,944,717.5z M818.6,492.3c10.1-10.3,21.7-18.1,30.8-29.5c-18.4-4.6-34.4-11.8-48-25.5
		C807.2,455.9,812.7,473.6,818.6,492.3z M593.5,158.1c5.7,5.9,10.8,11.4,16,16.6c0.8,0.8,2.4,1.6,3.4,1.4c6.5-1.3,13-2.9,19.7-4.4
		C620.4,165.1,601.6,158.4,593.5,158.1z M580.1,194.1c0.2,0.4,0.4,0.7,0.7,1.1c15.1-6.2,30.3-12.5,45.9-18.9
		c-14.4,3.1-28.2,6.4-40.9,13C583.6,190.3,582,192.4,580.1,194.1z"/>
	<path fill="#020202" d="M402.1,197.4c2.2-10.5,4.3-21,6.6-32.5c-2,1.3-3.5,2.3-5,3.2c-5.5,3.7-11.1,7.4-16.7,11.1
		c-1.2,0.8-2.6,1.5-4,1.8c-0.9,0.2-2.3,0-2.8-0.6c-0.5-0.6-0.4-2.1,0-2.9c0.7-1.4,1.7-2.7,2.8-3.9c12.3-13.1,24.5-26.3,37.1-39.2
		c7.5-7.7,15.6-14.9,23.6-22.1c1.5-1.4,3.3-3.8,6.4-1.4c-23.6,19.2-43.6,41.7-64.1,63.6c0.3,0.4,0.6,0.7,0.9,1.1
		c4.9-3.3,9.8-6.7,14.7-10c2.2-1.5,4.4-3,6.9-3.9c2.3-0.9,4.2,0.1,3.5,2.9c-2.7,10.5-5.5,21-8.3,31.5c-0.2,0.7-0.7,1.4-1.1,2.1
		c-0.2-0.4-0.4-0.8-0.7-1.1C402.2,197.3,402.1,197.4,402.1,197.4z"/>
	<path fill="#020202" d="M1032.1,730.5c1.6,0.4,2.6,0.4,3.4,0.8c8.2,3.8,23.3-3.8,25.3-12.6c1.1-4.9-2.1-11.7-6.5-13.9
		c-6-3-9.7-1.5-12.6,5.4c1.1,0.2,2.1,0.3,3,0.5c5.2,1.2,7,4.7,6.4,12c-0.3,3.5-2.4,5-7.7,4.9c-1.9,0-3.8-1-5.6-1.5
		c1.7-0.5,3.4-1,5.1-1.3c2.5-0.5,5.4-0.2,5.2-4.3c-0.3-4.8-1.3-6.5-5.3-6.8c-1.7-0.1-3.4,0-6,0c1.2-2.9,1.8-5.3,3-7.4
		c6.1-10.7,6.7-22.3,6.3-34.1c0-0.8-0.2-1.6-0.1-2.4c0.1-0.5,0.7-1,1.1-1.5c0.5,0.4,1.5,0.8,1.6,1.4c0.3,1.8,0.6,3.7,0.5,5.5
		c-0.5,8.2-1.2,16.4-1.9,24.8c0.4,0,1.5,0.1,2.7,0.2c7.2,0.9,11.5,5.1,13.5,11.8c1.8,6.2,0.6,11.9-4.3,16c-5.8,5-13.1,7-20.7,7.5
		C1035.6,735.8,1033.3,734.4,1032.1,730.5z"/>
	<path fill="#020202" d="M640.4,461.3c0.7,8.1,1.3,16.1,2,24.2c-0.5,0.1-1.1,0.3-1.6,0.4c-0.6-1.5-1.5-3-1.6-4.5
		c-0.7-7.9-1.3-15.9-1.8-23.9c-0.2-3-0.5-6.1-0.5-9.1c0-1.7,0.5-3.3,1.6-5.1c3.5,13.8,10.2,25.8,18.8,37.3
		c1.9-10.3,3.8-20.6,5.7-30.9c0.4-2.1,0.4-4.3,1-6.3c0.3-1.1,1.3-2,1.9-3c0.4,1.1,1.2,2.3,1.1,3.4c-1.1,7.5-2.4,15-3.6,22.4
		c-1.1,6.3-2.2,12.6-3.4,18.8c-0.2,0.9-1,1.6-1.6,2.5c-0.9-0.6-2.2-1-2.7-1.9c-4.9-8-9.7-16.2-14.5-24.3
		C640.8,461.4,640.6,461.3,640.4,461.3z"/>
	<path fill="#020202" d="M515.4,462.8c0,7.6,0.1,15.1-0.1,22.7c0,1.2-0.8,2.4-1.3,3.6c-0.6-1.1-1.6-2.1-1.6-3.2
		c-0.3-8.6-0.3-17.3-0.8-25.9c-0.2-3.7-1.3-7.3-1.8-11c-0.1-0.6,0.3-1.4,0.5-2.1c0.8,0.3,1.8,0.4,2.4,0.9c0.6,0.5,0.8,1.3,1.1,2.1
		c4.4,10,8.8,19.9,13.3,29.9c0.1,0.3,0.5,0.6,0.9,1c2.9-11.3,1.3-23.4,5.7-34.2c0.6,0,1.1,0.1,1.7,0.1c0.1,1,0.4,2,0.2,3
		c-1.4,12.5-2.9,25.1-4.5,37.6c-0.2,1.3-1,2.5-1.5,3.7c-0.8-1-2-1.9-2.5-3.1c-3.7-8.5-7.3-17-10.9-25.5
		C516,462.6,515.7,462.7,515.4,462.8z"/>
	<path fill="#020202" d="M465.1,168.9c13.1,1.1,24.7,5.5,35.5,12.2c0.3,0.2,1,0.4,0.9,0.7c-0.1,5.1,4.9,5.4,7.3,8
		c1,1,1.5,2.5,2.2,3.8c-1.4,0.3-3.1,1.3-4.3,0.9c-10.9-3.7-21.9-7.4-32.7-11.5c-3.9-1.5-7.6-3.8-11.1-6.3c-1.7-1.2-2.6-3.6-3.9-5.4
		C461.1,170.5,463.1,169.7,465.1,168.9z M503,190.4c-3.5-3.6-9-4.7-10.6-10.1c-8.6-5.7-18.5-6.6-28.5-7.3
		C475.8,181.5,489.3,186.4,503,190.4z"/>
	<path fill="#020202" d="M615.4,484.5c-0.3-2.6-0.3-4.6-0.8-6.5c-2.2-9.7-1.9-19.3,1.8-28.6c0.2-0.6,0.5-1.3,1-1.7
		c1.8-1.4,3.8-4,5.5-3.8c2,0.3,4.3,2.6,5.2,4.6c3.1,6.8,2.9,14,0.8,21.1c-1,3.4-2.3,6.8-3.9,10C621.9,486.1,622,485.1,615.4,484.5z
		 M619.2,479.8c7.7-6.5,9.8-20.1,6.5-29.1c-0.5-1.4-1.8-2.5-2.8-3.7c-1.1,1-2.7,1.8-3.3,3.1c-4,9-4.3,18.3-1.7,27.7
		C618.2,478.5,618.8,479.1,619.2,479.8z"/>
	<path fill="#020202" d="M458.9,467.6c-2.8,1-4.9,1.8-7.1,2.3c-0.7,0.2-1.6-0.4-2.4-0.6c0.4-0.7,0.8-1.5,1.3-2.1
		c0.1-0.2,0.5-0.3,0.7-0.4c2.3-1,5.8-1.5,6.5-3.2c1.1-2.6,0.3-6,0.3-9.6c-2.2,0.8-4,1.5-5.8,2c-1.1,0.3-2.3,0.3-3.4,0.4
		c0.7-1.1,1.3-2.9,2.3-3.2c4.8-1.6,9.7-2.9,14.6-4c3-0.7,6.1-0.8,9.1-1.1c0.8-0.1,1.6,0.5,2.4,0.8c0,0.5,0.1,0.9,0.1,1.4
		c-2.8,0.6-5.6,1.4-8.4,1.8c-7.7,1-8.5,2-7.1,10.5c4.3-0.8,8.6-1.7,12.9-2.5c0.2,0.6,0.4,1.3,0.5,1.9c-1.4,0.6-2.8,1.3-4.2,1.7
		c-8.8,2.3-8.9,2.2-8.7,11.2c0.1,4.1,0.4,8.3,0.4,12.4c0,1-0.8,2-1.2,3c-0.6-1-1.7-1.9-1.8-3c-0.3-3.2-0.1-6.4-0.2-9.6
		C459.5,474.5,459.2,471.3,458.9,467.6z"/>
	<path fill="#020202" d="M490.3,487.4c4.1-3.7,4.9-7.6,5.4-11.5c1-8.2,1.6-16.4,2.5-24.6c0.1-1,1-1.9,1.5-2.8
		c0.5,0.9,1.6,1.9,1.5,2.8c-1.2,10.3-2.3,20.6-3.9,30.8c-0.6,3.6-2.3,8-6.8,7.7c-4.6-0.3-4.4-5.2-4.7-8.6
		c-0.9-9.4-1.5-18.8-2.2-28.3c-0.1-1.2,0-2.5,0.4-3.6c0.3-0.8,1.3-1.3,1.9-2c0.4,0.8,1,1.5,1.1,2.3c0.7,10.3,1.2,20.7,1.9,31
		C489,482.7,489.7,484.6,490.3,487.4z"/>
	<path fill="#020202" d="M575.1,448c-6.3-1-9.6-0.1-11.5,4c-1.3-1.5-2.5-2.7-3.6-3.9c1.3-0.9,2.6-2.4,4-2.5
		c8.8-0.7,17.5-1.1,26.3-1.5c0.8,0,1.6,0.6,3.4,1.2c-5.3,3.1-10.4,1.1-14.6,2.4c0.4,7.2,0.9,14.2,1,21.3c0.1,6.4-0.2,12.8-0.5,19.2
		c0,0.7-0.8,1.4-1.3,2.1c-0.6-0.6-1.6-1-1.8-1.7c-0.3-1.1-0.1-2.4-0.1-3.6c-0.2-11.3-0.4-22.6-0.7-33.9
		C575.7,450,575.3,449,575.1,448z"/>
	<path fill="#020202" d="M556.2,449.5c-4.6-2.4-6.8,0.8-8.7,4c-6.1,9.9-6.7,20.3-2.7,31.1c2.2,6,7.2,7,11.9,2.8
		c0.8-0.7,2.1-0.8,3.2-1.2c-0.4,1.2-0.4,2.6-1.1,3.4c-4.7,5.5-12.5,4.6-16.1-1.7c-6.2-10.8-4.2-29.7,4.2-38.8
		c1.4-1.5,3.3-2.8,5.2-3.6C554.8,444.3,556.6,446,556.2,449.5z"/>
	<path fill="#020202" d="M972.3,694.1c-3.7-2.7-7.6-4.9-10.7-7.9c-1.9-1.9-2.7-5-3.8-7.7c-0.2-0.4,0.8-1.3,1.3-2
		c0.5,0.5,1.4,0.9,1.5,1.5c2.1,7.5,7.7,10.8,14.6,12.5c2,0.5,3.1,1.6,1.8,3.3c-3.2,4-6.6,8.2-12.4,8.4c-4.2,0.2-7.6-1.4-9.6-5.1
		c-2.3-4.1-2-8.4-0.4-12.7c0.2-0.4,1.1-0.9,1.6-0.8c0.5,0.1,1,0.9,1.1,1.4c0.1,0.8-0.2,1.6-0.3,2.3c-1,5.9,0.4,9.5,4.4,11.2
		C964.9,700.2,968.9,698.6,972.3,694.1z"/>
	<path fill="#020202" d="M515.4,217.9c-0.8,0.8-1.4,2.1-2.3,2.4c-14.7,4.9-29.5,8-44.8,2.9c-1.7-0.6-3.4-1.5-4.9-2.5
		c-0.6-0.4-0.7-1.5-1-2.3c0.8-0.1,1.8-0.6,2.4-0.3c15,7.9,30,4.2,45,0.1c1.7-0.5,3.4-0.9,5-1.4C514.9,217.2,515.1,217.5,515.4,217.9
		z"/>
	<path fill="#020202" d="M1006.6,666.4c3,0,7.9,6.3,7.9,10.2c0,4.5-4.1,8.4-8.8,8.5c-4.7,0.1-8.3-4.4-8.3-10.7
		C997.4,670.1,1001.5,666.5,1006.6,666.4z M1005.3,682.4c2.7-2.9,5.1-4.5,5.9-6.7c0.8-2.3-2.6-5.1-5.2-4.8c-3.1,0.3-5,2.5-4.8,5.4
		C1001.4,678,1003.4,679.6,1005.3,682.4z"/>
	<path fill="#020202" d="M1001.8,621.6c1.3-0.2,2.7-0.7,3.9-0.4c2,0.5,4.2,1.1,5.9,2.3c9.2,6.1,17.6,13.3,24.5,22.1
		c0.4,0.5,1,1,1.1,1.6c0.2,1.2,0.2,2.4,0.3,3.6c-1-0.6-2.3-1.1-2.9-2c-5.9-8.6-14.1-14.8-22.2-21.1c-2.3-1.8-5.5-2.4-8.3-3.5
		c-0.9-0.4-1.6-0.9-2.5-1.4C1001.7,622.4,1001.7,622,1001.8,621.6z"/>
	<path fill="#020202" d="M602.1,487.3c-0.5-1.4-1.5-2.9-1.4-4.3c0.4-12.7,0.9-25.5,1.6-38.2c0.1-1,1.3-2,2-3c0.4,1.1,1.1,2.3,1,3.4
		c-0.6,10.6-1.5,21.2-2,31.8c-0.2,3.2,0.5,6.5,0.7,9.7C603.4,487,602.8,487.1,602.1,487.3z"/>
	<path fill="#020202" d="M575,215.3c10.8,6.8,21.8,4.9,32.9,2.7c2.3-0.5,4.6-1.4,6.9-1.9c0.9-0.2,2,0.3,3,0.5
		c-0.7,0.8-1.3,2.2-2.2,2.4c-5.4,1.3-10.8,2.9-16.3,3.5c-7.4,0.8-14.9,1-22-2.3C575.6,219.4,573.3,218.5,575,215.3z"/>
	<path fill="#020202" d="M584.5,368.6c-3,7.5-9.1,10.4-16.2,11.4c-8.7,1.3-16.7-1.2-24.5-4c0.1-0.6,0.2-1.2,0.3-1.8
		c1.3,0,2.6-0.2,3.8,0c3.1,0.6,6.2,1.6,9.3,2.2c8.2,1.5,15.9,0.7,22.6-4.8C581.2,370.5,582.9,369.7,584.5,368.6z"/>
	<path fill="#020202" d="M983.3,650.4c0,4.9-3.4,8.2-8.7,8.3c-4.2,0.1-6.8-2.7-6.9-7.5c-0.1-4.9,3.4-8.8,7.8-8.8
		C979.9,642.5,983.2,645.9,983.3,650.4z M974.7,654.5c2.8-0.3,5.2-1.3,5.2-4.5c0-2.6-1.4-4.6-4.2-4.9c-2.4-0.2-5.4,2.5-5.4,4.9
		C970.3,652.9,972.1,654.2,974.7,654.5z"/>
	<path fill="#020202" d="M550.3,239.8c-4,0.3-7.3,0.2-10.4,1c-1.2,0.3-1.9,2.7-2.8,4.1c1.6,0.9,3.1,2.2,4.8,2.7
		c1.4,0.4,3.1-0.4,4.7-0.4c0.6,0,1.3,0.6,1.9,1c-0.4,0.6-0.8,1.6-1.2,1.7c-3.1,0.2-6.5,1-9.4,0.2c-4.6-1.3-5.5-7.6-1.9-10.7
		c3.4-2.9,7.4-4.3,11.8-2.4C549,237.5,549.7,239.1,550.3,239.8z"/>
	<path fill="#020202" d="M515.8,270.2c0.2-0.3,0.9-1.3,1.6-2.2c0.5,0.9,1.4,1.7,1.5,2.7c0.8,6.6,3.9,8.2,9.6,4.6
		c1.6-1,2.8-2.5,4.3-3.5c0.6-0.4,1.6-0.2,2.4-0.2c-0.1,0.7,0.1,1.6-0.2,2.2c-1.8,3.4-8.8,7.1-12.6,6.6
		C518.4,279.8,515.7,276.1,515.8,270.2z"/>
	<path fill="#020202" d="M971.3,677c-3.9,1.9-5.6-0.1-6.8-2.3c-1.5-2.6-1.8-5.9,0.9-7.6c1.7-1.1,4.8-1,6.8-0.3
		c2.1,0.8,2.9,3.1,1.2,6.3c-1-1.2-1.4-2.2-2.1-2.6c-1.1-0.6-2.4-0.9-3.6-1.3c-0.1,1.4-0.7,3.1-0.1,4.2
		C968.1,674.7,969.6,675.5,971.3,677z"/>
	<path fill="#020202" d="M718.9,638.2c-1-2.6-2-5.1-2.9-7.8c-0.1-0.3,0.4-1.1,0.7-1.2c0.5-0.1,1.6,0,1.7,0.3c1,2.6,1.9,5.2,2.9,7.9
		C720.5,637.7,719.7,638,718.9,638.2z"/>
	<path fill="#020202" d="M977.9,892c3.8,3.2,8.4,4.2,13.1,3.1c12.1-3.1,24.1-6.6,36.2-9.9c2.5-0.7,3.6-1.8,3.2-4.8
		c-1.4-10.5-2.3-21.1-3.7-31.6c-0.4-2.9-1.7-5.7-2.6-8.8c3.3-1.1,5-0.5,5.4,3.1c1.3,12.3,2.7,24.6,4,36.8c0,0.1,0,0.3,0,0.4
		c3.2,5.4-1.1,6.5-4.6,7.5c-12.8,3.7-25.6,7.2-38.5,10.5c-5.6,1.4-10.7-1.2-15.6-3.5c-0.7-0.4-1-1.8-1.7-3.2c2.2,0.3,3.6,0.5,5,0.7
		C978.1,892.1,977.9,892,977.9,892z"/>
	<path fill="#020202" d="M964,926.7c0.3,1,0.6,2,0.9,3c1,4,1.6,8.1,2.9,11.9c1.9,5.5,4.8,10.4,10.3,13.2c0.7,0.4,0.9,1.8,1.4,2.7
		c-1,0-2.2,0.3-2.9-0.2c-2.4-1.6-5.1-3.1-6.8-5.4c-4.5-6.2-7.5-13.2-7.8-21c-0.1-1.4,0.5-2.8,0.7-4.2
		C963.1,926.7,963.6,926.7,964,926.7z"/>
	<g>
		<g>
			<path fill="#2B2B2B" d="M875.6,775.3c-3.8,13.6-7.5,27.1-11.3,40.7c-0.5,1.9,2.4,2.7,2.9,0.8c3.8-13.6,7.5-27.1,11.3-40.7
				C879,774.2,876.1,773.4,875.6,775.3L875.6,775.3z"/>
		</g>
	</g>
	<g>
		<g>
			<path fill="#2B2B2B" d="M877.5,811.7c6.7-7.5,10.6-16.4,11.8-26.3c0.2-1.7-2.5-2-2.9-0.4c-2.6,9.9-3.8,20.1-3.5,30.3
				c0,1.3,1.6,2,2.6,1.1c6.9-7.4,12.1-15.8,15.6-25.3c0.7-1.8-2.2-2.6-2.9-0.8c-3.3,9-8.3,17-14.8,24c0.9,0.4,1.7,0.7,2.6,1.1
				c-0.3-10,0.8-19.8,3.4-29.5c-1-0.1-2-0.3-2.9-0.4c-1.1,9.1-4.8,17.4-10.9,24.2C874.1,811,876.2,813.2,877.5,811.7L877.5,811.7z"
				/>
		</g>
	</g>
	<g>
		<g>
			<path fill="#2B2B2B" d="M909.5,793.7c-1.6,5.2-3.1,10.5-4.7,15.7c-0.7,2.5-1.5,4.9-2.2,7.4c-0.4,1.2-0.7,2.5-1.1,3.7
				c-0.2,0.6-0.4,1.2-0.6,1.9c-0.5,0.8-0.3,1.6,0.4,2.3c-0.5,0.4-1,0.7-1.4,1.1c0.2,0,0.3,0,0.5,0c1.9-0.2,1.9-3.2,0-3
				c-0.2,0-0.3,0-0.5,0c-0.7,0.1-1.3,0.4-1.4,1.1c-1.1,3.8,3.2,3.9,4.8,1.1c2.2-4,2.9-9.5,4.2-13.9c1.7-5.6,3.3-11.1,5-16.7
				C913,792.6,910.1,791.8,909.5,793.7L909.5,793.7z"/>
		</g>
	</g>
	<g>
		<g>
			<path fill="#2B2B2B" d="M900.5,797c6.8-1.5,13.6-2,20.5-1.7c1.9,0.1,1.9-2.9,0-3c-7.2-0.4-14.3,0.2-21.3,1.8
				C897.8,794.5,898.6,797.4,900.5,797L900.5,797z"/>
		</g>
	</g>
	<g>
		<g>
			<path fill="#2B2B2B" d="M901.6,810.3c7,0,14,0,21,0c1.9,0,1.9-3,0-3c-7,0-14,0-21,0C899.6,807.3,899.6,810.3,901.6,810.3
				L901.6,810.3z"/>
		</g>
	</g>
	<g>
		<g>
			<path fill="#2B2B2B" d="M927.4,799.5c-1.4,10.5-2.8,21-4.3,31.5c-0.3,1.9,2.6,2.7,2.9,0.8c1.4-10.5,2.8-21,4.3-31.5
				C930.5,798.4,927.6,797.6,927.4,799.5L927.4,799.5z"/>
		</g>
	</g>
	<g>
		<g>
			<path fill="#2B2B2B" d="M930.5,803.4c4.9,6.6,9.8,13.2,14.7,19.7c1.1,1.5,3.7,0,2.6-1.5c-4.9-6.6-9.8-13.2-14.7-19.7
				C932,800.4,929.4,801.9,930.5,803.4L930.5,803.4z"/>
		</g>
	</g>
	<g>
		<g>
			<path fill="#2B2B2B" d="M943.2,804.1c-4.5,8.5-9.4,16.8-14.5,24.9c-1,1.6,1.6,3.1,2.6,1.5c5.1-8.1,10-16.5,14.5-24.9
				C946.7,803.9,944.1,802.4,943.2,804.1L943.2,804.1z"/>
		</g>
	</g>
	<path d="M954.8,406.6c6.8-4.9,2.9-15.5,0.9-22c-3.2-10.4-8.1-20-14.5-28.8c-0.8-1.1-2.3-0.9-2.7,0.4c-2.2,6,1.4,11.5,4.3,16.6
		c3.9,6.8,7.9,13.6,11.8,20.4c7.7,13.5,15.2,27.2,21,41.6c2.8,6.9,5.2,13.9,7,21.1c1.8,7.1,4,15.2,3.4,22.6c-0.2,3.1-1.3,8-5.3,8.2
		c-4,0.2-8.7-4.8-11.3-7.3c-5.3-5-9.5-11-13.4-17.1c-2.3-3.6-7.7-9.8-3.1-13.3c1.5-1.1,4.6-1.5,6.4-2.1c2.4-0.8,4.8-1.6,7.3-2.4
		c9.1-3,18.2-6.1,27.2-9.1c1.8-0.6,1-3.5-0.8-2.9c-9.7,3.2-19.4,6.5-29.1,9.7c-4.4,1.5-9.6,2.5-13.8,4.6c-2.1,1-3.3,2.2-3.2,4.7
		c0.1,3,2.5,5.9,4,8.3c2.4,3.9,4.8,7.7,7.4,11.3c4.6,6.3,9.9,12.4,16.6,16.5c4.2,2.6,9.2,3,12-1.7c3.3-5.4,2-12.3,1.1-18.2
		c-2.8-18-9.5-35.2-17.6-51.4c-4.7-9.4-9.8-18.5-15.1-27.6c-2.6-4.5-5.3-9.1-7.9-13.6c-3-5.1-8.4-11.9-6.2-18
		c-0.9,0.1-1.8,0.2-2.7,0.4c4.9,6.7,9,14,12,21.7c2.1,5.4,8.7,20.6,2.7,25C951.7,405.2,953.2,407.8,954.8,406.6L954.8,406.6z"/>
	<path d="M977,408.5c4.8-0.8,5.9-2.3,7.8-7c1.8-4.4,2.3-9.2,1.7-13.9c-0.2-1.5-2.6-2.2-2.9-0.4c-1.7,10.2,1.3,23,10.3,29.3
		c8.8,6.2,13.5-5.4,14.2-12.5c0.2-1.9-2.8-1.9-3,0c-0.3,2.8-0.8,6.2-2.5,8.6c-3.9,5.4-8.9,0.3-11.6-3.6c-4.2-6.1-5.7-13.7-4.5-21
		c-1-0.1-2-0.3-2.9-0.4c0.8,6.2,0.1,16.7-7.3,18C974.3,405.9,975.1,408.8,977,408.5L977,408.5z"/>
	<path d="M983.1,353.1c5.2,15.6,14.7,29.2,27.7,39.3c1.5,1.2,3.6-0.9,2.1-2.1c-12.6-9.8-21.9-22.8-26.9-38
		C985.4,350.5,982.5,351.3,983.1,353.1L983.1,353.1z"/>
	<path d="M997.3,387.1c3.5-3.5,6.9-7.1,10.4-10.6c1.4-1.4-0.8-3.5-2.1-2.1c-3.5,3.5-6.9,7.1-10.4,10.6
		C993.9,386.4,996,388.5,997.3,387.1L997.3,387.1z"/>
	<path d="M988.3,332.9c6,9,12.1,18,18.1,26.9c1.1,1.6,3.7,0.1,2.6-1.5c-6-9-12.1-18-18.1-26.9C989.8,329.8,987.2,331.3,988.3,332.9
		L988.3,332.9z"/>
	<path d="M1027.1,341.7c-3.7-6.4-14.4-5.2-14.4,3c0,3.2,1.9,6.4,5,7.5c3.4,1.3,7.3-0.4,10.6,1.3c6.7,3.5,3.7,12-2.6,13.3
		c-1.9,0.4-1.1,3.3,0.8,2.9c7.1-1.4,11.2-9.3,6.9-15.5c-1.8-2.6-4.6-4.1-7.7-4.4c-3.8-0.4-8.8,0.8-9.8-4.1c-1.1-5.5,6.3-6.5,8.7-2.3
		C1025.5,344.8,1028.1,343.3,1027.1,341.7L1027.1,341.7z"/>
	<path d="M1020.1,442.2c8.4,12.9,16.7,25.9,25.1,38.8c1,1.5,3,0.5,2.7-1.2c-1-6.8-2-13.6-3-20.5c-0.5-3.4-1.4-7-1.3-10.4
		c0.1-5.3,4-13,10.2-7c4.7,4.5,7.2,12.3,7.9,18.6c0.3,3.1,0.3,6.2-0.3,9.3c-0.6,3.4-3.7,12.8-8.8,7.5c-1.3-1.4-3.5,0.7-2.1,2.1
		c6.6,6.8,12.7-2.9,13.8-8.9c1.7-9.9-0.7-20.9-6.8-28.9c-4.8-6.3-13.4-6.7-16.2,1.8c-1.8,5.2-0.1,11.4,0.7,16.7c1,6.8,2,13.6,3,20.5
		c0.9-0.4,1.8-0.8,2.7-1.2c-8.4-12.9-16.7-25.9-25.1-38.8C1021.7,439.1,1019.1,440.6,1020.1,442.2L1020.1,442.2z"/>
	<path d="M1060.5,434.7c3.3-7.4,2.1-15.5-3.2-21.6c-0.6-0.7-1.9-0.5-2.4,0.3c-5.2,8.8,0.5,18.4,6.4,25.3c4.2,4.9,14.3,12.7,18.1,2.9
		c0.7-1.8-2.2-2.6-2.9-0.8c-2.1,5.3-8.3,0.9-10.6-1.4c-2.1-2.1-4-4.5-5.6-6.9c-3.5-5.2-6.3-11.6-2.8-17.6c-0.8,0.1-1.6,0.2-2.4,0.3
		c4.3,5.1,5.4,11.9,2.7,18C1057.1,434.9,1059.7,436.4,1060.5,434.7L1060.5,434.7z"/>
	<path d="M1096.9,411.4c2.2-6.5,2.8-13.3,1.3-20c-1.1-5.3-3.7-13-9.1-15.3c-11.2-4.9-8.7,18-7.5,23c1.3,5.4,9.4,26.3,17.7,18
		c4-4,3.6-11.6,3.1-16.7c-0.7-6.9-2.9-13.4-6.4-19.4c-1-1.7-3.6-0.2-2.6,1.5c4.2,7.2,9.3,13.7,15.5,19.4c1.4,1.3,3.5-0.8,2.1-2.1
		c-5.9-5.5-10.9-11.7-15-18.8c-0.9,0.5-1.7,1-2.6,1.5c4.6,7.9,7,17,6,26.1c-0.2,1.7-0.7,5.3-2.2,6.4c-3.5,2.4-5.8-2.2-7.2-4.2
		c-2.3-3.4-4-7.1-5.1-10.9c-1.1-3.9-1.6-7.9-1.5-12c0-1.5-0.2-6.1,0.9-7c1.8-0.3,3.6-0.6,5.3-0.8c1,1,1.8,2.1,2.4,3.4
		c4.8,8.2,4.9,18.4,1.9,27.1C1093.4,412.4,1096.3,413.2,1096.9,411.4L1096.9,411.4z"/>
	<path d="M1102.6,311.6c12.7,22.6,30.8,41.7,52.6,55.7c1.6,1,3.1-1.6,1.5-2.6c-21.4-13.7-39.1-32.4-51.6-54.6
		C1104.2,308.4,1101.6,309.9,1102.6,311.6L1102.6,311.6z"/>
	<path d="M1066.6,342c5.7-13.8,13.8-26.6,24.1-37.5c9.2-9.8,20.8-17.3,28.5-28.5c1.1-1.6-1.5-3.1-2.6-1.5
		c-8.4,12.3-21.7,20.4-31.4,31.7c-9,10.5-16.2,22.3-21.5,35.1C1062.9,343,1065.8,343.7,1066.6,342L1066.6,342z"/>
	<path d="M1139,336.3c6.7-9.1,5.8-21.9-2-30c-0.9-1-2.5-0.2-2.6,1.1c-0.7,11.7-1,25.9,9.4,33.7c6.8,5.2,16.8,4.5,21.9-2.6
		c1.1-1.6-1.5-3.1-2.6-1.5c-6,8.3-17.2,4.2-21.9-3c-5-7.9-4.4-17.7-3.8-26.6c-0.9,0.4-1.7,0.7-2.6,1.1c6.9,7.2,7.5,18.4,1.6,26.4
		C1135.3,336.3,1137.9,337.8,1139,336.3L1139,336.3z"/>
	<path d="M1157.6,323c2.6,2.7,6.9,2.2,9.1-0.9c3.3-4.6,0.5-12-1.6-16.5c-2.2-4.8-16.2-23.3-17.8-9c-0.8,7.1,1.2,14.9,4,21.4
		c1.5,3.5,4.7,11.7,9.1,12.6c4.8,1,6-7.2,6.4-10.3c0.7-6-0.8-11.9-3.9-17.1c-0.8,0.6-1.6,1.2-2.4,1.8c4.8,4.5,9.7,9,14.5,13.4
		c1.4,1.3,3.5-0.8,2.1-2.1c-4.8-4.5-9.7-9-14.5-13.4c-1.2-1.1-3.3,0.3-2.4,1.8c2.9,4.8,6,14.6,2.5,19.9c-2.9,4.3-6.1-2.6-7.3-4.8
		c-1.7-3.3-3-6.8-3.9-10.5c-0.8-3.4-1.2-6.8-1.3-10.2c0-1.8,0.6-4.2,3.2-3.7c1,0.2,2.6,2.3,3.3,3.2c2.3,2.6,4.3,5.5,5.7,8.6
		c0.8,1.7,1.5,3.6,1.9,5.4c0.1,0.5,0.2,1,0.3,1.5c1.2,3.6-0.5,5.9-5.1,6.9C1158.4,319.5,1156.2,321.6,1157.6,323L1157.6,323z"/>
	<path d="M1157.1,282.8c8.1,7.1,15.3,15,21.7,23.6c1.1,1.5,3.4,0.3,2.6-1.5c-4-8.4-8.2-16.7-12.1-25.1c-2.1-4.6,0.5-2.6,2.7-1.4
		c2.1,1.1,4.1,3.2,5.9,4.7c3.5,2.7,6.9,5.5,10.4,8.2c1,0.8,3.1,0.1,2.5-1.5c-1.8-4.7-3.4-9.4-4.8-14.1c-0.8-2.8-5.8-17.8,1.2-14.1
		c4.1,2.1,7.3,7.1,10.2,10.6c3.6,4.2,7,8.6,10.3,13c1.1,1.5,3.7,0,2.6-1.5c-4.6-6.2-9.4-12.2-14.5-17.9c-2.9-3.2-7.1-9-12.2-7.9
		c-4.7,1-3.7,6.2-2.9,9.6c1.8,7.9,4.4,15.6,7.2,23.2c0.8-0.5,1.7-1,2.5-1.5c-5.7-4.5-11.4-9-17.1-13.5c-1.9-1.5-5.4-4.9-7.7-1.9
		c-2.4,3.1,1.5,8.6,2.8,11.2c3.5,7.2,6.9,14.4,10.4,21.5c0.9-0.5,1.7-1,2.6-1.5c-6.6-8.8-14-16.9-22.2-24.2
		C1157.7,279.4,1155.6,281.5,1157.1,282.8L1157.1,282.8z"/>
	<path d="M1219.8,259.3c2.6,3,5.3,6,7.9,9.1c1.3,1.5,3.4-0.7,2.1-2.1c-2.6-3-5.3-6-7.9-9.1C1220.6,255.7,1218.5,257.8,1219.8,259.3
		L1219.8,259.3z"/>
	<path d="M1094.3,461.3c12.5,20,26.1,39.2,40.8,57.7c1,1.2,2.8-0.1,2.5-1.5c-2.2-8.5-4.3-17-6.5-25.5c-0.9-3.7-2.2-7.4-2.3-11.2
		c-0.1-3.1,0-9.2,5.2-7.4c1.4,0.5,3.1,2.5,4.1,3.6c11.4,12.6,7.4,32-7.5,39.7c-1.7,0.9-0.2,3.5,1.5,2.6c17.5-9.1,21.1-33.3,6-46.5
		c-2.3-2-5.5-4.5-8.6-2.5c-3.2,2.1-3.9,7.1-3.7,10.6c0.3,5.9,2.4,11.8,3.8,17.5c1.7,6.7,3.4,13.4,5.1,20.1c0.8-0.5,1.7-1,2.5-1.5
		c-14.5-18.3-27.9-37.3-40.3-57.1C1095.9,458.2,1093.3,459.7,1094.3,461.3L1094.3,461.3z"/>
	<path d="M1145.4,461.7c6.7,6.7,12.7,13.8,18.2,21.4c0.7-0.7,1.4-1.4,2.1-2.1c-4.3-3.2-8.2-6.9-11.5-11.1c-1.6-2-3.1-4.2-4.5-6.4
		c-0.7-1.2-1.4-2.4-2-3.6c-0.2-0.4-3.8-9.9,0-7c1.5,1.2,3.6-0.9,2.1-2.1c-1.8-1.4-4.2-1.6-5.9,0.2c-2.4,2.6-0.8,6.3,0.5,8.9
		c4.6,9.4,11.6,17.3,19.9,23.6c1.2,0.9,2.9-0.9,2.1-2.1c-5.6-7.8-11.9-15.2-18.7-22C1146.1,458.2,1144,460.3,1145.4,461.7
		L1145.4,461.7z"/>
	<path d="M1171,463c9.7-0.3,9.5-11.5,5.7-17.8c-2.3-3.9-13.2-15.7-17.9-9.3c-2.2,3.1-0.3,8,0.8,11.1c1.9,5.5,4.6,10.7,8.2,15.3
		c1.7,2.3,5.5,6.7,9,4.7c3-1.8,2.8-8.7,2.6-11.7c-0.1-1.9-3.1-1.9-3,0c0.1,1.7,0.6,7.2-0.9,8.2c-1.2,0.8-3.5-1-4.3-1.7
		c-1.1-1-2-2.6-2.8-3.8c-2.9-4.4-5.2-9.2-6.6-14.3c-0.3-0.9-1-2.5-0.8-3.5c-0.5-1.3,0.2-1.8,1.9-1.6c1-0.8,1.9-0.9,2.7-0.2
		c2.1,0.6,4.2,2.8,5.6,4.3c1.8,1.9,3.2,4,4.2,6.4c1.6,3.9,1.6,10.5-4.3,10.7C1169.1,460,1169.1,463,1171,463L1171,463z"/>
	<path d="M1159.7,394.6c10,17,22.2,32.6,36.3,46.5c1.4,1.4,3.5-0.8,2.1-2.1c-13.9-13.7-25.9-29.1-35.8-45.9
		C1161.4,391.4,1158.8,392.9,1159.7,394.6L1159.7,394.6z"/>
	<path d="M1171,429c5.8-5.5,11.6-11,17.4-16.5c1.4-1.3-0.7-3.5-2.1-2.1c-5.8,5.5-11.6,11-17.4,16.5
		C1167.5,428.2,1169.6,430.3,1171,429L1171,429z"/>
	<path d="M1168.6,384.3c9.1,13.5,19.6,25.9,31.6,36.9c1.4,1.3,3.5-0.8,2.1-2.1c-11.8-10.9-22.2-23-31.1-36.3
		C1170.1,381.2,1167.5,382.7,1168.6,384.3L1168.6,384.3z"/>
	<path d="M1211.1,424.1c-6.6-9.5-10.8-20.2-12.1-31.7c-0.9,0.4-1.7,0.7-2.6,1.1c3.6,3.4,7.2,6.8,10.8,10.2c2.5,2.4,5,5.5,7.9,7.4
		c4.5,2.9,7.9-0.4,9.1-4.9c3.5-13.4-2.2-28.5-11.4-38.2c-0.5-0.5-1.6-0.6-2.1,0c-4,4.9-4.1,11.3-1.3,16.8
		c2.7,5.3,9.2,12.3,15.4,13.3c6.3,1.1,10.5-4.9,10.8-10.6c0.2-4.5-1.4-9-2.5-13.3c-1.3-4.8-2.6-9.6-3.9-14.3c-0.8,0.5-1.7,1-2.5,1.5
		c5.9,6.9,12.1,13.3,18.8,19.4c1.2,1.1,3.2-0.3,2.4-1.8c-5.8-10.2-13.1-19.3-21.9-27c-0.2,0.8-0.4,1.7-0.7,2.5
		c5.6-1.5,10.5-4,15-7.6c1.5-1.2-0.6-3.3-2.1-2.1c-4.1,3.2-8.6,5.5-13.7,6.8c-1,0.3-1.5,1.7-0.7,2.5c8.6,7.6,15.8,16.4,21.4,26.4
		c0.8-0.6,1.6-1.2,2.4-1.8c-6.7-6.1-13-12.5-18.8-19.4c-1-1.2-2.9,0.1-2.5,1.5c1.3,4.8,2.6,9.6,3.9,14.3c1.5,5.5,4.9,13.7,0.1,18.4
		c-5.2,5.1-12.5-2.5-15.8-6.5c-3.9-4.8-5.9-11.6-1.7-16.8c-0.7,0-1.4,0-2.1,0c7.5,7.8,11.7,18.2,11.4,29c-0.1,2.4,0.2,5.8-1.3,7.8
		c-2.6,3.5-6.5-0.7-8.7-2.8c-4.5-4.2-9-8.5-13.5-12.7c-0.9-0.8-2.7-0.3-2.6,1.1c1.4,12.1,5.6,23.3,12.6,33.3
		C1209.7,427.1,1212.3,425.7,1211.1,424.1L1211.1,424.1z"/>
</g>
</svg>
