<?xml version="1.0" encoding="utf-8"?>
<!-- Generator: Adobe Illustrator 22.0.1, SVG Export Plug-In . SVG Version: 6.00 Build 0)  -->
<svg version="1.0" id="Ebene_1" xmlns="http://www.w3.org/2000/svg" xmlns:xlink="http://www.w3.org/1999/xlink" x="0px" y="0px"
	 viewBox="0 0 1547.9 1049.4" enable-background="new 0 0 1547.9 1049.4" xml:space="preserve">
<g>
	<path d="M470.5,614.4c-1.2,4.6-2.1,9.3-3.5,13.9c-5.9,18.2-12.2,36.2-17.9,54.5c-3.3,10.5-5.7,21.3-8.5,31.9
		c-1.8,6.5-4.2,12.6-9.7,16.9c-5.2,4-7.6,3.8-12-1.2c-6.8-7.8-15-14.8-19.9-23.6c-6.9-12.3-17.9-20.9-25.4-32.4
		c-2.2-3.3-4.4-6.7-6.6-10.1c-26.2,5.7-51.4,3.2-73.3-15.5c-5.4,4.6-5.7,5.2-2.9,11c1.5,3.2,3.5,6.2,5.9,8.9
		c9.1,10.4,19,20.2,27.3,31.1c6.3,8.3,11.2,17.7,16,27c5.1,9.7,9.8,19.7,14.2,29.8c8.9,20.8,11.3,42.4,7.2,64.7
		c-1.1,6-2.1,12-3.6,18c-1.6,6.7-1,12.9,2.4,18.8c1.1,2,2.2,4,3,6c0.3,0.7-0.2,1.6-0.3,2.4c-0.8-0.3-1.9-0.4-2.3-1
		c-4.8-8.1-8.5-16.2-6.2-26.3c2.5-10.8,4.7-21.9,5.4-32.9c1.1-19.1-2.4-37.5-11.6-54.6c-7.2-13.3-13.6-27-20.8-40.3
		c-2.9-5.3-6.4-10.4-10.3-15.1c-7.6-9-16.1-17.3-23.6-26.4c-3-3.6-4.7-8.4-6.8-12.8c-1.4-3.1-2.4-6.3-3.5-9.3
		c-3.4,9.2-5.5,26-4.8,35.7c1.3,19.2,2.3,38.4,3.5,57.7c0.2,3.3,0.8,6.6,1.1,9.9c0.1,1.2,0.2,2.5,0.4,3.7c-0.5,0.2-0.9,0.4-1.4,0.6
		c-0.6-1.1-1.7-2.2-1.9-3.4c-0.9-8-1.7-16.1-2.2-24.2c-0.9-13.5-1.6-27-2.5-40.6c-0.8-12.3,0.2-24.4,3.4-36.3
		c0.5-1.9,0.8-3.8,0.5-5.9c-12.2,21-22,42.9-29.2,66.5c5.6-1.6,5.9-1.9,8.8-7.2c0.5-0.9,1.6-1.5,2.3-2.3c0.5,1.1,1.4,2.2,1.3,3.2
		c-0.5,3.8,1.3,4.6,4.6,4.3c1.3-0.1,2.7,0.6,4,1c-0.6,1.2-1,2.7-1.9,3.6c-2.1,2.1-2.4,4-0.3,6.1c0.3,0.3,0.5,0.6,0.6,1
		c0.4,2,0.7,3.9,1.1,5.9c-1.7-0.2-3.6-0.1-5.2-0.8c-3.1-1.4-5-0.7-7,2.1c-1.3,1.8-3.7,2.8-5.6,4.2c-0.4-2.4-1.4-4.8-1.1-7.1
		c0.3-2.8,0-4.4-3.4-4.7c-0.3,1-0.7,2-1,3.1c-5.8,23.2-11.5,46.4-17.4,69.5c-0.5,1.9-1.9,3.7-2.8,5.5c-0.1-2-0.6-4.2-0.1-6.1
		c7.2-29.4,14.6-58.7,21.9-88.1c0.2-0.6,0.2-1.3-0.2-2.3c-3.9,4.6-7.8,9.1-11.6,13.7c-13.6,16.9-27.1,33.8-40.7,50.6
		c-5.9,7.3-12.5,14.2-18,21.8c-5.2,7.3-9.5,15.3-13.6,23.3c-2.8,5.4-4,6.4-9.9,4.3c-3.5-1.2-7-2.5-10.4-3.9c-3.3-1.4-5.1-4.2-4-7.7
		c1.3-4.4,2.8-8.9,5.1-12.9c17.5-29.6,33.3-60.2,53.3-88.3c0.4-0.5,0.7-1.1,0.5-0.9c-8.2-6.2-16-12.5-24.3-18.2
		c-18.5-12.7-36.7-25.9-55.9-37.5c-23-14-46.9-26.5-70.5-39.6c-9.5-5.3-19.2-10.3-28.8-15.4c-3.4-1.8-6.9-3.4-10.4-5
		c-2.7-1.3-7.2-2-7.9-3.9c-1.4-4.4-1.7-9.5-0.9-14.1c0.9-5.1,3-10.3,5.6-14.8c22.5-39.7,46.5-78.4,75.4-113.8
		c9.3-11.4,19.1-22.4,28.8-33.5c3.8-4.3,8.3-7.7,14.5-6.5c2.6,0.5,5.1,1.5,7.5,2.6c28,13.3,55.4,27.9,80,46.8
		c33.3,25.6,70.4,45,106,67.1c5.1,3.1,10.3,6,15.5,8.9c3,1.6,5.4,1.1,8-1.7c9.8-10.8,20-21.3,29.8-32.1c4.8-5.3,10.2-7.5,17.3-6.2
		c3.6,0.7,7.4,0.1,11.1-0.2c3.7-0.3,5.2,1.6,4.2,4.7c-1.2,3.6-2.7,7.2-4.9,10.3c-7,9.9-14.3,19.5-21.5,29.2c-0.7,1-1.3,1.9-2.3,3.4
		c1.3,0.2,2.3,0.4,3.3,0.4c24-1,48-2.2,72-2.9c13.1-0.4,26.3,0.2,39.4,0.4c0.8,0,1.6,1.3,2.5,2.1c-1.1,0.3-2.3,0.7-3.4,0.7
		c-14.2,0.1-28.4-0.2-42.6,0.1c-13.3,0.3-26.5,1.7-39.8,2c-27.3,0.7-54.6,1-81.9,1.6c-11,0.2-22,0.8-33,1.3
		c-15.3,0.6-30.5,1.2-45.8,1.8c-5,0.2-10,0.2-14.9,0.3c-1.6,0-3.2,0.4-4.7,0.5c-16.8,0.9-33.7,1.6-50.5,2.6
		c-9.1,0.6-18.1,1.6-28,2.5c1.2,1,1.6,1.4,2.1,1.7c13.4,7.6,13.3,17.8,9.1,29.3c-0.8,2.2-1.6,4.3-2.5,6.8c1.4,0.1,2.2,0.2,3,0.1
		c17.1-0.7,34.1-1.5,51.2-2.1c17.6-0.7,35.3-1.3,52.9-1.9c2.2-0.1,3.9-0.2,5.1-2.7c5.2-10.8,13.3-19.3,22.8-26.2
		c7.6-5.5,15.9-10.7,25.6-11.2c11.6-0.7,23.3-0.7,34.9-0.1c9,0.4,18.3,0.7,26.6,5c8.2,4.2,16.4,8.6,24.6,12.9
		c5.3,2.8,11,4.8,13.6,9.7c5.4-0.6,10.2-1.4,15-1.7c5.4-0.3,10.9,0,16.3-0.5c14.8-1.3,29.6-2.9,44.4-4.3c9.1-0.8,18.2-1.4,27.4-2.1
		c0.8-3.2,1.8-6.3,2.4-9.6c1.6-8.7-1.4-13.2-10.2-14.5c-4.8-0.7-9.8-0.1-14.6-0.4c-1.7-0.1-3.4-1.1-5.1-1.7c6.6-2.5,13.4-2.3,20-1
		c12.2,2.4,14.7,7.8,13,18.1c-0.5,3.3-1.4,6.5-1.9,9.7c-0.5,3-3,2.8-4.9,2.9c-6.9,0.5-13.8,0.6-20.7,1.1
		c-14.3,1.1-28.5,2.5-42.8,3.7c0,0.4-0.1,0.7-0.1,1.1c1.6,0.4,3.3,0.8,4.9,1.3c3.9,1.2,8,2.1,11.7,3.7c1.3,0.6,2.5,3.2,2.4,4.8
		c-0.6,9.1-1.2,18.3-2.6,27.3c-0.6,4.1,0.1,6.9,2.8,9.6c5.9,5.7,12.1,11.2,17.6,17.4c5.7,6.4,10.5,13.7,15.9,20.3
		c8.7,10.7,17.6,21.2,26.9,32.4c7.7-16.3,14.7-31.5,22-46.7c15.5-32.4,39.6-56.8,70.4-74.9c5.9-3.5,11.5-8,18.7-8.3
		c6.7-0.2,13.4,0.4,20.2,0.6c0.9,0,1.8,0.2,1.9,0.2c1.9-2.8,3.2-5.4,5.2-7.4c6.5-6.4,13.8-11,23.6-10.4c4.4,0.3,8.8-1,12.8-1.6
		c-7-7.4-14.1-14.2-20.2-21.7c-17.5-21.7-33.5-44.3-42-71.3c-0.4-1.4-1.6-2.9-2.8-3.6c-13.5-8.4-21.3-20.7-25.5-35.8
		c-4.1-14.7-8.7-29.3-13.2-43.8c-0.9-2.9-2.2-5.7-3.3-8.5c-0.9-2.4-2.2-3.8-5.2-2.2c-0.2-0.3-0.4-0.6-0.6-1c0.7-1.1,1.2-3,2.1-3.2
		c1.3-0.3,3.4,0.2,4.1,1.1c1.8,2.6,3.4,5.4,4.4,8.4c5.2,16.6,10.4,33.2,15.3,49.9c3.6,11.9,9.3,22.3,19.8,29.5
		c0.4,0.3,0.9,0.6,2,1.3c-0.3-1.6-0.5-2.7-0.8-3.7c-6.9-22.4-12.6-45-16-68.2c-0.5-3.1-0.7-6.3-0.7-9.5c0-1.2,0.8-2.4,1.2-3.6
		c0.3,0,0.7,0.1,1,0.1c0.3,0.8,0.7,1.6,0.8,2.4c2.3,28.7,10,56.1,18.7,83.3c0.5,1.6,2,3.2,3.5,4c5.1,2.8,10.4,5.4,15.6,8
		c10,5,20.6,5.3,31.5,3.7c29.8-4.3,52.8-19.5,70.9-43.1c4.4-5.8,6.8-11.6,6.4-19c-0.4-6.9,2-13,8.9-15.9c3.9-1.6,8.1-2.3,12.3-3.3
		c6.7-1.6,13.3-0.5,19.4,2.1c2.2,0.9,3.9,3.4,5.2,5.5c1.4,2.2,2.2,4.8,2.9,7.4c3.3,12.5,12.8,19.2,23.5,23.8
		c7.4,3.2,15.8,4.6,23.9,5.7c15.6,2,31.4,3.1,47.1,4.8c11.1,1.2,21.4-1,31.1-6.4c1.3-0.8,2.7-2.3,3.1-3.8c2.6-9.2,5.8-18.3,7.1-27.7
		c1.3-9.1,0.1-18.3-6.3-25.9c-1.4-1.7-2.2-3.9-3-6c-0.4-0.9-0.3-2.6,0.2-3.2c0.6-0.6,2.2-0.6,3.2-0.2c4.2,1.5,8.4,3.2,12.5,4.8
		c0.3-0.2,0.7-0.5,1-0.7c-2.7-5.4-4.9-11-8.2-16c-3.1-4.9-5.3-9.6-5-15.5c0.3-5.1-2.1-6.9-7-6.3c-16.6,1.7-33.3,3.5-49.9,5
		c-28.9,2.6-57.9,4.6-86.8,7.6c-19.5,2-38.9,5.5-58.3,8.2c-21.7,3-43.3,6.4-65.1,8.5c-13.2,1.3-26.5,0.4-39.8,0.5
		c-4.6,0-9.2,0-14.5,0c1.3,3.7,2.4,6.7,3.3,9.7c0.3,1-0.3,2.3-0.5,3.5c-1-0.5-2.3-0.7-2.9-1.5c-3-3.5-5.8-7.1-9-11.1
		c-4.8,0.4-10.2,0.9-15.6,1.1c-8,0.3-11.4-2.6-12.7-10.5c-0.4-2.3-0.5-4.8-0.4-7.1c0.1-0.8,1.3-1.6,2-2.4c0.3,0.9,0.8,1.7,0.9,2.6
		c0.2,1-0.1,2.1,0.1,3.2c1.1,10,2.9,11.5,12.9,11c5.6-0.3,11.1-0.7,16.7-1.1c0.2,0,0.4-0.3,0.9-0.6c-0.4-2.3-0.8-4.8-1.1-7.2
		c-0.5-3.7,0.2-4.3,4.6-3.8c-0.1-2.4-0.3-4.6-0.4-7.5c-2.3,0.6-4,1-5.8,1.5c-7.4,1.9-14.9,3.8-22.3,5.6c-0.7,0.2-1.6-0.3-2.4-0.4
		c0.4-0.8,0.5-2,1.1-2.2c2.7-1,5.5-1.9,8.3-2.6c6.4-1.6,12.9-3,19.3-4.5c0.2-0.4,0.3-0.8,0.5-1.2c-1.4-1.2-2.8-2.3-4-3.6
		c-0.6-0.6-0.7-1.7-1.1-2.6c0.8,0,1.8-0.4,2.5,0c2.1,1.1,4,2.5,6.1,3.6c1.4,0.8,3.1,1.2,4.7,1.8c-1.6-5.5-3.7-10.5-4.2-15.6
		c-0.6-6,0.2-12.2,0.5-18.2c0.1-0.9,1.2-2.5,1.9-2.5c1.1,0,2.4,0.8,3.4,1.6c3.2,2.9,6.2,5.9,9.3,8.9c0.5-0.2,0.9-0.4,1.4-0.6
		c0.2-2.5,0.6-5.1,0.5-7.6c0-13.6-0.2-27.1-0.2-40.7c0-1.3,0.8-2.7,1.3-4c0.9,1,2,1.9,2.6,3c6.6,13.1,13.1,26.3,19.5,39.5
		c0.8-0.3,1.2-0.4,1.2-0.5c5-12.7,10-25.5,15-38.1c0.5-1.2,1.7-2.1,2.5-3.1c0.9,1,1.9,2,2.6,3.1c0.6,1,0.9,2.1,1.8,4.5
		c3.1-3.5,5.8-6.2,8-9.4c3-4.2,5.4-8.9,8.2-13.2c2.4-3.6,4.1-3.6,7.3-0.7c1.2,1,2.9,1.4,4.4,2.2c0.8,0.4,1.5,1.1,2.3,1.6
		c-0.8,0.5-1.8,1.6-2.4,1.5c-2.8-0.8-5.4-2-8.7-3.3c-1.7,2.7-3.6,6.3-6,9.6c-2.9,4.1-5.8,8.3-9.3,11.8c-3.5,3.5-5.5,2.9-8.8-1.6
		c-4.6,12-9,23.6-13.6,35.1c-1,2.4-2.6,4.6-3.9,6.9c-1.2-2-2.5-4-3.6-6.1c-5.6-10.5-11.1-21-17.2-32.4c0,2.2,0,3.6,0,5
		c0,10.8,0.3,21.5,0,32.3c-0.1,2.7-1.7,5.3-2.6,8c-2.5-1-5.2-1.6-7.4-3c-2.3-1.4-4.1-3.6-6.4-5.7c-1.7,9.6-1.8,18.5,2.6,27.1
		c1.5,2.9,3.2,4,6.9,3.6c12.7-1.2,25.5-1.5,38.2-2.5c13-1.1,25.8-2.9,38.8-3.8c10.6-0.8,21.3-0.3,31.8-1.1c13.9-1,27.7-3.1,41.6-4.2
		c13.6-1,27.3-1.1,41-2.1c16.3-1.2,32.5-3,48.8-4.4c17.3-1.5,34.6-3.5,52.1-1.5c1,0.1,2.1,0,3.5,0c-1.1-3.3-1.8-6.2-5.3-7.5
		c-3.2-1.2-5-3.5-4.9-7.4c0.2-4-0.1-8-0.6-11.9c-0.5-4.4-1.8-5-5.8-3.2c-0.1,0.1-0.2,0.1-0.4,0.2c-9.3,4.3-9.4,4.4-13.6-4.6
		c-1.4-2.8-3.3-3.7-6.3-3.6c-6.4,0.2-6.7-0.2-6.4-6.7c0.2-4.5,0.4-9,0.6-13.5c0-1.3-0.2-2.6-0.4-5.1c-2.7,3.8-4.7,6.5-6.5,9.4
		c-5.1,8.1-10.1,16.3-15.4,24.2c-1,1.5-3.5,2.1-5.4,3c-0.9-1.8-2.3-3.5-2.5-5.3c-0.9-10.8-1.4-21.7-2.1-32.6c-0.1-1.7-0.3-3.3-0.4-5
		c-0.6-0.5-1.2-0.9-1.8-1.4c-0.7,1.4-1.2,3-2.2,4.1c-3.6,3.9-7.3,7.7-11.3,11.2c-1.4,1.2-3.9,1.8-5.7,1.4c-0.9-0.2-1.6-2.9-1.9-4.6
		c-0.9-4.2-1.6-8.4-2.6-13.8c-2.4,2.2-3.8,3.4-5.1,4.6c-4.3,3.9-8.3,8.3-13,11.7c-5.2,3.8-8.7,2.2-10.1-4
		c-1.6-7.1-2.8-14.3-4.3-21.5c-0.5-2.5-1.4-4.9-2.2-7.4c-0.8-0.4-1.5-0.8-2.3-1.3c-0.8,1.5-1.5,3.1-2.4,4.6
		c-8.2,12.2-16.5,24.4-24.8,36.6c-2.1,3.1-4,6.3-6.4,9.1c-3.3,3.9-6.3,3.5-8-1.2c-2.2-6.1-3.9-12.4-5.8-18.6
		c-1.1-3.6-2.3-7.1-3.2-10.7c-0.2-0.9,0.2-2.1,0.4-3.1c0.8,0.7,2.1,1.2,2.4,2c1.7,5.2,3.1,10.4,4.7,15.6c1.5,5,3.1,10,5.1,16.3
		c2.3-2.8,3.9-4.4,5.1-6.3c7.4-11.2,14.6-22.5,22-33.7c2.3-3.4,4.9-6.6,7.7-9.7c3.9-4.4,7.5-3.8,9.4,1.9c1.2,3.6,1.6,7.5,2.4,11.3
		c1.1,5.2,2.1,10.4,3.4,15.6c0.9,3.7,2.1,4.3,5.3,2c3.8-2.8,7.2-6.3,10.7-9.5c1.3-1.2,2.4-2.5,3.6-3.7c4.4-4.3,7.4-3.7,9.2,2.2
		c1.2,4,1.6,8.3,2.5,13.1c1.5-1,2.8-1.7,3.9-2.7c3.3-3.3,6.3-6.8,9.8-9.9c1.8-1.6,4.5-3.8,6.5-3.5c3.4,0.5,2.7,4.3,2.9,7
		c0.3,6.4,0.2,12.8,0.5,19.1c0.3,5.5,1,11,1.6,16.5c0.3,0.1,0.7,0.2,1,0.3c1.8-2.6,3.8-5.2,5.5-8c5.3-8.3,10.4-16.7,15.9-24.8
		c1.3-1.9,3.8-2.9,5.7-4.3c0.6,2.2,1.6,4.3,1.7,6.5c0.2,6.2,0.1,12.4,0.1,18.7c0.2,0.2,0.4,0.5,0.6,0.5c7.2-0.9,11.3,2.5,13,9.3
		c0.6,2.6,2.1,2.6,4.1,1.4c1.6-0.9,3.3-1.8,5-2.5c5.3-2.3,8.1-1.1,9.2,4.7c0.8,4.4,0.5,9,0.9,13.5c0.2,2.2,0,5.1,3.8,3
		c0.4-0.2,2.2,1.1,2.7,2.1c1.2,2.1,2.2,4.3,2.9,6.5c1,3.3,3.1,3.8,6.1,3.4c11.3-1.7,22.5-3.4,33.8-5c1.7-0.2,3.6-0.9,5.1-0.4
		c1.5,0.5,3.6,2.3,3.5,3.4c-0.3,4.4-0.8,8.9-2.3,13.1c-0.5,1.4-3.8,2.5-5.8,2.7c-9.3,0.8-18.7,1.3-28.1,1.8
		c-0.4,8.8,0.1,16.1,5.2,23.1c3.9,5.4,5.8,12.1,8.5,18.3c0.3,0.8,0.3,2.4-0.3,2.8c-0.5,0.5-2,0.3-2.9-0.1c-4.5-1.6-8.9-3.3-13.3-4.9
		c-0.3,0.4-0.6,0.8-1,1.1c3.1,3.1,6.2,6.2,9.5,9.6c-0.1,0.1-0.8,0.6-0.9,1.2c-0.2,1.3,0,3.7,0.1,3.7c4.1,0.1,2.8,3.2,2.4,4.9
		c-2.2,11.3-4.7,22.6-7.1,33.9c-0.3,1.3-0.6,2.5-1,4.2c10.8-6.7,19.5-14.1,21.5-27.1c0.7-4.1,2.4-8.1,3.7-12.2
		c3.7-11.1,6.9-22.4,7.2-34.2c0.1-3.2-0.7-5.7-3.3-7.5c-0.6-0.5-1.4-0.9-1.8-1.6c-1.1-2-2.1-4-3.1-6c2-0.7,3.9-1.5,5.9-2.2
		c0.4-0.1,0.7-0.2,1.1-0.3c0.3-2,0.5-3.9,0.7-5.9c0.5-0.1,1-0.1,1.5-0.2c0.6,2,1.2,3.9,2.1,6.6c6.6-0.5,13.4-1,21.3-1.5
		c-2.3-3.3-3.7-5.7-5.5-8c-6.5-8-12.6-16.5-19.8-23.8c-5-5.1-11.6-8.7-17.4-13.1c-2.3-1.8-4.6-3.7-6.4-5.9c-1-1.1-1.7-3.3-1.2-4.5
		c0.5-1.2,2.5-2.5,4-2.5c5.2-0.3,10.3-0.2,15.5-0.2c1.8,0,3.7,0.2,6.3,0.3c-0.9-1.3-1.4-2.1-2.1-2.8c-4.7-4.6-9.5-9.2-14.3-13.9
		c-1.2-1.2-2.6-2.3-3.6-3.7c-2.5-3.3-1.2-6.4,3-6.6c4.8-0.3,9.6-0.1,14.3-0.2c4.2-0.1,8.4-0.5,12.9-1.3
		c-17.3-16.7-39-27.3-57.7-43.3c3.7-2.6,7.5-5.3,11.9-8.5c-7.8-1.7-15.2-3.1-22.4-4.9c-4-1-8-2.1-11.6-4.1c-5.5-3-5.3-7.6,0.4-9.9
		c6.1-2.5,12.6-4,18.9-5.9c0.7-0.2,1.4-0.3,2.1-0.9c-6.9-1-13.8-2-20.7-3c-12.2-1.6-23.2-6.4-33.8-12.3c-1.1-0.6-2.4-1-3.7-1.2
		c-1.6-0.2-3.2-0.1-4.8-0.1c-9-0.2-10.6-2.7-6.6-10.7c0.6-1.3,1.2-2.6,2.2-4.8c-2.5,0.6-4.2,0.9-5.8,1.4c-4.3,1.4-8.5,3.2-12.9,4.1
		c-2,0.4-4.4-0.7-6.6-1.1c0.6-2.3,0.6-5.2,1.9-6.8c4.6-5.5,9.7-10.5,15.1-16.1c-1.2,0.4-2,0.5-2.7,0.8
		c-14.7,7.4-29.4,14.8-44.1,22.3c-8.3,4.3-16.8,6.3-26.1,3.6c-2.5-0.7-5.3-0.3-7.9-0.4c-5.2-0.1-5.9-0.8-6.1-6
		c0-1.2-0.2-2.3-0.4-4.3c-2,1.2-3.6,2-5,3c-3.5,2.7-6.7,5.7-10.3,8.2c-2.1,1.5-4.5,2.9-7,3.6c-3.8,1.2-5.4-0.2-5.8-4.2
		c-0.1-1.7-0.2-3.4-0.3-6.4c-1.9,2.7-3.1,4.6-4.5,6.4c-3.1,4-6.1,3.8-8-0.8c-3.4-8.5-6.3-17.2-9.5-25.8c-0.3-0.9-0.6-1.9-2-3.2
		c-9.9,17.7-19.8,35.4-29.6,53.2c-2.3,4.2-4.2,8.6-6.3,12.9c-3.4,6.6-7.4,7.8-14.2,4.5c-2.7-1.4-5.4-2.9-8.1-4.2
		c-2.8-1.3-4.5-0.9-5.6,2.5c-1.2,3.7-3.3,7.2-5.1,10.8c-3.2,6.5-8.6,8.7-15.6,7.5c-3.9-0.7-7.8-1.5-12.1-2.3
		c-0.4,3.8-0.7,7.3-1.1,10.8c-0.1,1.5-0.2,2.9-0.5,4.4c-2.2,11-8.1,14.7-18.7,11.1c-8.5-2.9-16.7-6.7-25.1-10.1
		c-1.8-0.7-3.6-1.4-6.2-2.4c0.4,2.5,0.7,4.3,1,6c4.3,20.1,8.6,40.2,12.9,60.3c0.1,0.6,0.5,1.4,0.4,1.9c-0.2,0.9-0.8,1.7-1.2,2.6
		c-0.6-0.7-1.7-1.3-1.9-2.2c-1.3-6-2.4-12-3.7-17.9c-3.2-14.8-6.5-29.5-9.6-44.4c-0.6-2.8,0-5.8,0.1-8.7c2.9,0.5,5.9,0.5,8.6,1.6
		c7.6,2.9,14.9,6.2,22.5,9.2c2.3,0.9,4.8,1.6,7.3,2c4.7,0.8,8-0.9,9.2-5.5c1.3-5.2,1.8-10.7,2.3-16.1c0.5-5.4,1.7-6.4,7.1-5.3
		c3.9,0.8,7.8,1.5,11.7,2c4,0.5,7-1.3,8.9-4.7c2.2-4.1,4.3-8.2,6.1-12.5c1.6-4,3-5.2,7.1-4.1c2.7,0.7,5.1,2.1,7.7,3.3
		c1.2,0.6,2.3,1.4,3.5,1.9c5,2.1,6.9,1.3,9.5-3.4c12-21.9,24.1-43.7,36.2-65.5c0.7-1.3,2.6-2.9,3.8-2.8c1.1,0.1,2.4,2.1,2.9,3.6
		c2.8,7.9,5.4,15.8,8.2,23.7c0.7,1.9,1.8,3.7,3.1,6.6c2.2-3.6,3.7-6.5,5.6-9.1c0.8-1.1,2.3-1.8,3.5-2.7c0.7,1.1,1.9,2.2,2.1,3.4
		c0.5,3,0.6,6,1,10c2.7-1.4,5.2-2.3,7.2-3.8c3.6-2.7,7-5.7,10.6-8.5c1.2-1,2.6-1.9,4-2.6c3.6-1.7,5.4-0.6,6,3.4
		c0.9,5.9,0.9,5.7,6.9,5.9c3.8,0.1,7.6,1.1,11.4,1.4c6.4,0.6,12.2-1.6,17.9-4.5c16.4-8.4,33-16.6,49.5-24.9c1.2-0.6,2.4-1.2,3.7-1.4
		c1.2-0.2,2.4,0.2,3.6,0.3c-0.4,1.2-0.5,2.6-1.3,3.4c-4.2,4.2-8.7,8.2-12.9,12.4c-3.2,3.2-6.2,6.7-9.2,10.1c0.3,0.5,0.6,1,0.9,1.5
		c3.1-0.8,6.2-1.4,9.2-2.4c3.5-1.1,7-2.7,10.6-3.5c4.3-0.9,6,1.3,4.4,5.5c-0.8,2-1.8,3.8-2.7,5.8c-1.1,2.4-0.5,4.1,2.4,3.8
		c6.7-0.7,12.3,1.7,18,4.8c16.3,9,34.3,10.7,52.3,12c2.3,0.2,6-1.1,6.3,2.3c0.4,3.6-3.6,3.2-5.9,3.8c-7.6,1.9-15.2,3.6-22.7,5.6
		c-1.7,0.4-3.2,1.6-5,2.6c2,3.8,5.2,4.7,8.3,5.5c8.4,2,16.9,3.7,25.2,5.8c1.8,0.4,3.3,2.1,4.9,3.2c-1.2,1.5-2.3,3.4-3.8,4.5
		c-1.9,1.4-4.2,2.2-6.8,3.5c2.2,1.9,4.1,3.8,6.2,5.3c12.9,9.1,26,18,38.9,27.1c3.3,2.4,6.5,5.1,9.4,8c1.2,1.1,2.5,3.4,2.1,4.6
		c-0.4,1.2-2.8,2.4-4.4,2.5c-7.4,0.5-14.9,0.7-22.3,1c-1.5,0.1-3.1,0.1-5.7,0.3c1.7,1.9,2.7,3.2,3.9,4.3
		c5.4,5.3,10.9,10.5,16.2,15.9c1.2,1.3,1.6,3.3,2.3,5c-1.8,0.5-3.7,1.4-5.5,1.4c-6,0.1-11.9-0.3-17.9-0.3c-1.1,0-2.2,0.3-3.3,0.5
		c-0.2,0.4-0.3,0.7-0.5,1.1c3.3,2.8,6.2,6.2,9.9,8.2c13.9,7.6,23.4,19.4,32.5,31.8c2.4,3.3,4.9,6.6,7,10.2c2.3,3.9,1.2,5.9-3.3,6.4
		c-6.4,0.7-12.9,1.3-19.8,1.9c0,3.6-0.2,7,2.6,10.5c4.7,5.9,8.6,12.4,12.6,18.8c0.9,1.4,0.6,3.5,0.8,5.3c-1.7,0.1-3.5,0.4-5.2,0.4
		c-4.3,0.1-8.7,0-13.8,0c2,4.3,3.9,8.1,5.6,12.1c1.9,4.2,3.8,8.5,5.2,12.9c1.3,4.2,0,5.4-4.3,4.7c-5.6-0.9-6.5-0.4-6.1,5.4
		c0.3,4.6,1.8,9.1,2.7,13.6c0.6,2.9,1.2,5.7,1.6,8.6c0.1,0.7-0.6,1.9-1.2,2.1c-0.6,0.2-1.7-0.4-2.3-1c-5.8-6.8-6.8-6.7-10.8,1.6
		c-2.7,5.7-4.2,11.7-4.1,18.1c0.1,5.7-0.1,11.4-0.6,17.1c-0.1,1.7-1.5,3.3-2.3,5c-1.3-1.2-3.3-2.2-3.9-3.7
		c-3.3-8.3-6.7-16.6-9.4-25.2c-1.4-4.4-1.6-9.3-2.3-13.9c-0.4-0.1-0.9-0.1-1.3-0.2c-0.7,1.4-1.6,2.8-2.2,4.3
		c-5.2,13.1-9.6,26.5-15.6,39.2c-5.7,12.2-12.9,23.7-19.7,35.5c-2.9,5.1-6.4,9.8-9.5,14.7c-9.3,14.6-22.1,25.7-35.6,36.1
		c-0.7,0.6-2.1,0.3-3.1,0.5c0.4-1,0.6-2.3,1.4-2.9c2.8-2.5,5.6-4.9,8.6-7.1c11.9-9.1,21.3-20.3,29.2-32.9c4.7-7.6,9.6-15,14.4-22.5
		c12-18.9,19.2-39.9,26.8-61.1c-0.8,0-1.3-0.1-1.7,0.1c-10.1,4.7-20.6,6.4-31.8,5c-11-1.4-22.3-1.2-33.3-2.7
		c-11-1.4-22-3.7-32.7-6.3c-9.7-2.3-17.6-8.3-23.7-16c-3.4-4.2-5.6-9.7-7-15c-2-7.8-8.1-9.4-14.2-9.4c-6.6,0-13.4,1.6-19.9,3.3
		c-4.3,1.1-6.4,5.1-7,9.4c-0.6,4.7-0.6,9.4-0.9,14.5c2.3-1.4,4.1-2.7,6-3.7c0.7-0.3,1.8,0.4,2.7,0.7c-0.5,0.7-0.8,1.6-1.5,2
		c-3.3,2-6.9,4.1-6.1,8.4c0.8,4.5,5.3,5.4,9,6c9,1.4,17.5-0.3,25.2-5c2.3-1.4,3.8-4.2,5.1-6.7c1.3-2.6,0.7-4.9-2.6-5.8
		c-0.8-0.2-1.4-1.5-2.1-2.2c1.1-0.2,2.2-0.7,3.1-0.5c3.9,0.7,5.5,3.1,5.2,7.1c-0.4,4.5-2.4,8.2-6.3,10.5c-9.9,5.7-20.4,8.2-31.7,4.8
		c-5.8-1.7-7.8-4.5-8.4-10.8c-1,1.3-1.9,2.2-2.6,3.2c-10.4,14.1-22.4,26.5-38,34.6c-17.7,9.2-36.6,15-56.7,11.9
		c-8-1.3-15.5-5.9-23.2-9c-1.4-0.6-2.8-1.4-5-2.5c0.7,2.2,1.1,3.6,1.6,4.9c8.4,23.8,23.1,43.8,38.5,63.4c3.9,5,8,10.1,12.7,14.2
		c5.1,4.4,9.8,10.4,18.6,7.8c-0.5,1.7-0.8,2.6-1.2,3.7c19.2,11.2,38.2,22.4,61,26c27,4.3,51.9-0.5,76-12.5c1-0.5,2.5-0.1,3.8-0.2
		c-0.8,0.9-1.3,2.2-2.3,2.8c-13.1,7.2-27.1,10.9-41.8,13.4c-22.6,3.7-43.8-0.4-64.6-8.6c-4.9-2-6.3-1.4-6.4,3.9
		c-0.1,6.4-0.4,12.8,0.3,19.1c1.8,14.9,9.6,26.1,23.6,31.5c26.7,10.2,54.1,13,81.9,4.5c1.3-0.4,2.6-0.7,3.8-1
		c7.9-1.8,11.7-5.6,12.4-13.8c1.2-12.6,1.5-25.1-0.9-37.7c-0.6-3.2-0.8-6.6-0.9-9.9c0-0.8,0.9-1.6,1.3-2.4c0.6,0.8,1.6,1.5,1.7,2.3
		c0.9,7.5,2.2,15,2.4,22.5c0.3,8.7,0.4,17.6-0.8,26.2c-0.7,4.8-4.2,9.2-6.6,13.7c-0.4,0.7-1.5,1.1-2.4,1.3
		c-12.4,2.3-24.7,5.8-37.2,6.6c-20.8,1.3-41.3-1.9-60-11.2c-14.3-7.1-21.5-20.1-22.1-36.2c-0.2-5.4,0-10.9,0-16.3
		c0-3.8-1.7-5-5.2-3.4c-1.4,0.7-2.6,1.8-3.8,2.8c-13.6,11.9-20.7,27.1-21.8,45c-1.7,26.1-0.6,52,2.8,77.9c2.5,19.5,4.6,39,4.6,58.7
		c0.1,22.7,1.7,45.4,2.7,68.1c0,0.5,0.2,1.1,0.1,1.6c-0.4,1.1-1,2.1-1.6,3.2c-0.7-0.8-1.8-1.6-2-2.5c-1.6-5.8-2.9-11.6-4.3-17.4
		c-4.9-20.2-6.3-40.9-9-61.4c-1.5-11.5-5-22.8-8.4-33.9c-2.4-7.9-9-13-14.6-18.6c-4.9-4.9-10.4-9.2-15-14.3
		c-5.6-6.2-10.7-12.8-15.6-19.5c-4.9-6.8-9.7-13.6-17.1-18c-4.1-2.4-3.8-3.7,0.2-6.3c11.3-7.5,21.4-16.6,28-28.4
		c3.4-6,4.2-13.5,5.9-20.5c0.5-2.3,0.1-4.8,0.1-7.2c0-8.3-0.9-9.1-9.4-9.8c-11.3-1-21,2.2-30.9,7.9c-23.9,13.8-42.9,32.5-58.7,54.6
		c-3.9,5.5-6.9,11.6-9.9,17.7c-7,14.4-14,28.9-20.5,43.6c-2.3,5.1-3.3,10.3,1.4,15.6c8.5,9.4,13.8,20.7,17.3,32.9
		c0.5,1.6,1.4,3.1,1.9,4.8c0.2,0.8-0.1,1.8-0.1,2.8c-0.9-0.4-2-0.7-2.5-1.4c-0.9-1.3-1.5-2.8-2-4.3c-3.3-11-7.8-21.5-15.1-30.5
		c-1.4-1.7-2.7-3.5-4.1-5.2c-0.3,0.1-0.7,0.2-1,0.3c1.2,11.8,2.4,23.6,3.5,35.4c-0.7,0.2-1.3,0.4-2,0.6c-0.5-1.3-1.4-2.6-1.5-4
		c-1.1-13.1-2.1-26.2-3.2-39.3c-0.1-1.4-0.6-3-1.4-4c-5.9-7.1-12.2-13.8-18-21c-5.4-6.7-9.9-14.2-15.5-20.7
		c-6.3-7.4-13.3-14-20-21.1C475.5,620.2,473,617.3,470.5,614.4c-2.7-1.8-2.1-4.4-1.8-7.1c1.1-8.9,1.9-17.9,2.9-26.9
		c0.3-2.5-0.5-4-3.2-4.9c-14-5.1-28.2-6.5-43-4.2c-5,0.8-6.8,3.4-8.4,7.5c-3.4,9.1-6.1,18.5-10.9,26.9c-9.7,17-20.6,33.4-31.1,49.9
		c-4.6,7.3-4.1,9.8,0.8,16.9c8,11.3,18.9,20.2,25.8,32.6c4.8,8.7,13.2,15.4,19.5,23.4c2.7,3.4,4.8,2.8,7.6,0.7
		c5.5-4.3,7.3-10.5,9.2-16.8c5.5-18.6,11.1-37.1,16.6-55.6c3.9-12.9,7.8-25.9,11.5-38.8C466.8,615.4,468.1,614.4,470.5,614.4z
		 M91.3,552.9c4.6,6.9,6.6,13.8,3.8,21c-1.1,2.9-3.9,5.1-6,7.5c-0.3,0.4-1.6-0.1-2.5-0.2c0.3-0.8,0.3-1.8,0.9-2.3
		c6.8-6.2,7.5-16.5,1.6-23.4c-3.2-3.7-6.4-3.6-8.5,0.6c-3.9,7.9-5.2,16.5-4,25.2c0.5,3.9,3.2,5.2,7,4c1.5-0.5,3-1.1,4.5-1.5
		c0.5-0.1,1.4,0.4,1.5,0.8c0.2,0.4-0.2,1.6-0.5,1.6c-3.4,0.9-6.9,2.3-10.2,2.2c-3.3-0.2-5-3.4-5.4-6.6c-1.4-9.6,0.2-18.8,4.4-27.5
		c1.4-2.9,3.9-4.9,7.6-5c6.4-0.2,12.7-0.3,19-1c39-4.6,78.1-9.1,117.4-9.7c8.4-0.1,13.2-3.1,17.4-10c6.9-11.3,14.6-22.1,22.1-33.1
		c0.5-0.7,1.7-0.8,2.5-1.2c0.1,0.8,0.5,1.8,0.2,2.5c-1.1,2.4-2.4,4.8-3.9,6.9c-7.5,10.9-15.2,21.8-22.7,32.7
		c-0.2,0.4-0.2,0.9-0.3,1.5c1.9,0,3.5,0.1,5,0c29.3-1.3,58.6-2.5,88-3.9c2.2-0.1,4.3-2,6.6-3.2c-7.3-4.2-13.8-7.8-20.1-11.7
		c-34.3-21.5-70.4-39.9-102.7-64.8c-25.3-19.5-53.3-34.8-82.2-48.6c-8.8-4.2-12.5-4-19,3.5c-12.5,14.3-25,28.6-36.7,43.5
		C52,483.6,31.7,517,12.1,550.8c-3.1,5.4-5.4,11.2-7.6,17c-1.4,3.8-2.8,8.1,0.8,11.6c3.3,3.2,7.6,2.1,11.3,0.9
		c18.9-6,35.8-15.5,47-32.3c10.5-15.7,20.2-31.9,29.9-48c7.9-13.1,15.7-26.2,23.1-39.5c6.1-11,11.7-22.3,17-33.7
		c1.6-3.3,1.5-7.4,2.3-11.2c0.2-1.1,0.9-2.1,1.4-3.2c0.6,1,1.8,2.1,1.6,3.1c-0.7,4.5-1.3,9.2-2.8,13.5
		c-5.3,14.7-13.6,27.9-21.7,41.1c-13.9,22.8-27.3,45.9-40.9,68.9c-9.3,15.8-21.4,28.8-38.1,36.9c-7.1,3.4-14.5,6.2-21.3,9.1
		c41.7,23.2,84.1,46.8,126.1,70.2c2.2-3.4,4.2-7.1,6.9-10.3c14.7-18.2,29.6-36.2,44.4-54.3c1-1.2,1.9-2.4,3.4-4.4
		c-7.2,0.3-13.4,0.6-19.5,0.9c-30.1,1.6-60.3,0.5-90.2,5.8c-1.1,0.2-2.4-0.8-3.6-1.2c1-0.6,2-1.5,3.1-1.7
		c18.6-3.8,37.4-4.3,56.3-4.8c4.4-0.1,8.7,0,12.5,0c1.3-3.7,2.2-6.5,3.3-9.1c7.7-17.8-7-29-20.1-28
		C121.9,549.1,106.9,551.2,91.3,552.9z M338,541.6c-15,0.3-25.3,1-36.8,8.3c-15.7,9.9-28.9,21.7-33.2,40.9c-0.1,0.3-0.1,0.5-0.2,0.8
		c-2.5,6.6-2.5,13.4,0.2,19.8c2.1,5,4.8,9.7,7.7,14.3c6.5,10.2,15.9,17.4,25.3,24.7c6.1,4.8,12.8,7.8,20.1,10.1
		c12,3.7,24.1,3.4,36.3,2.9c4-0.2,8-2.5,12-4c0.6-0.2,0.8-1.3,1.2-1.9c6-9.8,11.7-19.9,18.2-29.4c8.8-12.9,17.2-25.8,22.1-40.8
		c1.3-3.9,3.6-7.5,5.2-11.4c0.3-0.8-0.3-2.1-0.7-3.1c-0.2-0.5-1.2-0.9-1.1-1.3c0.8-4.2-2.3-5.6-5.1-7.1c-8.7-4.8-17.3-9.8-26.3-14
		c-7.5-3.5-14.9-7.5-24.1-6.8C352,544,344.9,542.3,338,541.6z M637.1,627.5c8.8,5.3,14.1,13.3,19.6,21.1
		c4.8,6.6,10.1,12.9,15.8,18.9c6.6,7,13.9,13.5,20.7,20.4c4.5,4.5,7.3,9.9,9.4,16c6.4,18.9,8,38.6,10,58.3c1.2,11.9,3.9,23.6,6,35.4
		c0.9-1.9,1-3.6,0.9-5.3c-0.7-18.3-1.4-36.6-2.3-54.9c-0.8-14-1.3-28.1-3.1-42c-3.8-28.8-5.5-57.6-4.1-86.6
		c0.8-17.2,6.2-32.8,18.8-45.3c3.9-3.9,7.5-8.5,14.9-8.6c-9.1-5.2-17.1-10-25.3-14.2c-2.2-1.1-5.4-0.7-8.1-0.5
		c-4.4,0.4-8.9,2.1-13.2,1.9c-9.6-0.4-16.4,4.5-22.4,10.9c-1,1-1.7,2.8-1.7,4.2c-0.1,5.8,0.4,11.6,0.1,17.4
		c-0.4,8.7-2.2,17.3-7.2,24.5c-5.3,7.8-11.4,15-19,20.8C643.6,622.2,640.5,624.7,637.1,627.5z M266.6,583.8
		c-0.4-0.2-0.7-0.4-0.9-0.4c-21.1,0.7-42.2,1.4-63.3,2.3c-1.5,0.1-3.4,1-4.4,2.2c-16.7,20.3-33.3,40.6-49.9,61.1
		c-1.6,1.9-2.8,4.2-3.6,6.6c-0.4,1.1,0.4,3.4,1.4,4.1c15.1,11.3,30.3,22.4,45.5,33.5c2.2,1.6,4.7,3.1,7.1,4.4
		c2.6,1.4,4.4,0.9,6.3-1.7c5-7.4,10.2-14.5,15.5-21.7c13.8-18.8,29.7-36.2,39.9-57.5c0.7-1.5,2.7-2.4,4.1-3.6
		c-0.5-4.4-1.8-9.5-1.4-14.4C263.3,593.6,265.3,588.7,266.6,583.8z M265.1,615.7c-1,1.4-2.3,3-3.4,4.7c-3.9,6.5-7.2,13.4-11.6,19.5
		c-16.1,22.3-32.7,44.2-48.8,66.4c-19.6,27.1-34.7,56.9-51.7,85.5c-2.2,3.6-3.7,7.6-5.3,11.5c-1.4,3.3-0.4,5.7,3.1,6.8
		c3,1,6.1,2,9,3.3c3.2,1.4,4.5,0.1,6-2.8c4.3-8,8.5-16.2,13.8-23.6c5.4-7.7,12-14.5,18-21.8c18.8-23,37.6-46.1,56.3-69.2
		c1.2-1.4,2.2-3,3-4.7c4.7-10.3,9.2-20.6,13.9-30.9c3.7-8.1,7.3-16.2,13.8-22.3C275.7,630.7,270.5,623.4,265.1,615.7z M632.4,334.6
		c0.6,6.1,0.6,6,6.3,6c12.1,0,24.2,0.1,36.2,0c5,0,10.1,0.2,15.1-0.4c28-3.6,56.1-7.1,84-11.4c28.2-4.4,56.5-7.8,85-9.9
		c13.1-1,26.2-1.8,39.3-3c14.5-1.3,29-3,43.5-4.5c3.1-0.3,6.2-0.5,9.8-0.8c-0.9-2-1.5-3.5-2-4.9c-1.4-4-3.9-5.7-8.5-6.1
		c-21.6-2.1-42.9,1.2-64.3,2.7c-13.9,1-27.7,2.6-41.6,3.6c-13.1,0.9-26.3,1.2-39.3,2.3c-12.7,1-25.3,3.2-38,4
		c-20.1,1.2-40.3,0.4-60.3,3.9c-10,1.7-20.4,1.8-30.6,1.7c-10.3,0-20,3.7-30.2,3.4c-0.2,0-0.4,0.3-0.6,0.4
		C636.3,333.9,636.3,333.9,632.4,334.6z M402.6,488.8c-6,0-11.1,0.5-16-0.2c-4.2-0.6-7.2,0.5-9.9,3.4
		c-11.6,12.4-23.3,24.7-34.9,37.1c-1.3,1.4-2.5,2.9-3.7,4.4c10.9,0,21.3,0.1,31.8-0.1c1.2,0,2.6-1.2,3.4-2.3
		c8.5-11.3,17-22.7,25.3-34.2C400.2,494.8,401.1,492,402.6,488.8z M972.3,451.3c0.4,0,0.9,0,1.3-0.1c0-5.2,0.2-10.4,0-15.6
		c-0.3-8.1,2.1-15.4,6-22.4c3-5.5,5.1-6.3,11.2-4.7c-0.4-1.8-0.9-3.4-1.2-5.1c-0.7-3.9-1.9-7.8-1.7-11.7c0.3-7.9,1.2-8.4,9.2-7.6
		c0.4,0,0.7-0.2,2-0.6c-3.1-6.6-6.1-13-9-19.5c-0.4,0.1-0.7,0.1-1.1,0.2c-2.1,6.7-4.7,13.3-6.2,20.1c-2.3,9.8-7,17.8-15.5,23.1
		c-5.2,3.2-7.4,6.7-4.6,12.5c0.2,0.5,0.3,1,0.2,1.6C962.4,432.6,968.8,441.5,972.3,451.3z M950.5,299.8c1.2,2.7,2.4,4.9,3.2,7.2
		c0.8,2.5,2.2,2.9,4.8,2.6c8.8-1,17.7-1.8,26.5-2.4c5.5-0.4,6.5-1,7.3-6.6c0.1-1,0.1-2.1,0.2-3.2c0.3-3-0.8-4-3.9-3.3
		c-6.8,1.6-13.7,3-20.7,4C962.2,299.1,956.6,299.3,950.5,299.8z M995.1,336.1c-0.3,0.1-0.6,0.2-0.9,0.4c-0.7,5.7-1.5,11.4-2.3,17.6
		c4.8,0,9.4,0,14.8,0C1002.7,348,998.9,342.1,995.1,336.1z M248.9,717c0.1,0.5,0.1,0.9,0.2,1.4c7.5-0.6,6.1,4.6,6.1,9.3
		c2.7-4.8,6.1-7.1,11.6-4.2c-1.8-3.7-5.1-6.6-1-10c-2.4-0.8-4.4-1.4-6.8-2.2C256,713,252.5,715,248.9,717z M291.1,646.2
		c-1.6-1.1-2.7-1.9-4.6-3.2c0.3,2.9,0.6,4.8,0.9,7.5C288.9,648.7,289.8,647.7,291.1,646.2z"/>
	<path d="M1299.4,451.6c2-1.8,3.9-3.6,5.9-5.3c8-6.8,16-13.5,24.6-20.6c-5.9-7.4-12-15.2-18.2-22.9c-6.8-8.5-13.4-17.1-20.4-25.5
		c-8.6-10.3-17.2-20.6-26.3-30.4c-9.4-10.2-16.6-21.7-21.8-34.8c-1,0.7-1.7,1.4-2.5,1.9c-8.7,5.7-17.4,11.7-26.3,17.1
		c-6.8,4.2-12.4,9.4-17.1,15.8c-5.7,7.8-19.8,9.9-27.3,3.9c-0.9-0.7-1.2-2.1-1.8-3.1c1.2,0.2,2.6,0,3.4,0.6
		c6.8,4.6,13.6,3.7,19.8-0.4c6-4,8.6-10.5,7.1-17.4c-3.9-18-11.9-33.7-27.6-44.5c-2.7-1.9-5.5-3.8-8.3-5.5
		c-5.2-3.1-10.8-4.1-16.9-2.7c-6.9,1.6-10.5,6.9-8.6,13.6c1.5,5.2,3.8,10.1,6.1,15c1.3,2.8,3.5,3,6.2,1.2c4.9-3.3,9.9-3.1,14,1.2
		c6.2,6.4,10.9,13.9,9.4,23.5c-0.2,1.1-1.1,2.1-1.7,3.2c-0.5-1.2-1.6-2.4-1.4-3.5c1.3-8.1-2.8-14.2-7.5-19.8c-3.4-4-6.8-4.7-11.3-2
		c-4.4,2.7-9,5.2-13.5,7.6c-0.6,0.3-1.4,0.2-2.2,0.3c0-0.8-0.2-2.1,0.2-2.4c2-1.7,4.2-3.1,6-4.4c-2.3-5.1-5-10.1-6.7-15.4
		c-4.4-13.4,2.1-22,16.3-21.6c3.5,0.1,7.3,0.8,10.4,2.4c15.3,8.1,27.7,19,34.1,35.7c2.9,7.5,6.8,14.8,6.1,23
		c9.8-5.9,20.2-11,29.2-18c8.9-7,16.2-16,24.5-23.8c9.3-8.6,13.4-20.3,19.8-30.6c7.9-12.8,17.6-23.9,28.9-33.8
		c5.5-4.8,10.7-9.8,16-14.7c-0.4-0.6-0.8-1.2-1.1-1.9c-5.5,0.8-11.2,1.1-16.5,2.5c-15.3,4.2-31,3.9-46.6,5.4c-7,0.6-14,1.1-21.1,1.4
		c-7.9,0.4-14.9,3.5-22,6.4c-12.8,5.2-23.2,14.2-34.8,21.5c-11.6,7.3-23.2,14.5-34.7,21.9c-1.7,1.1-3,2.6-4.6,3.8
		c-0.5,0.4-1.4,0.3-2.1,0.4c-0.1-0.7-0.5-1.7-0.2-2.2c0.7-1.1,1.6-2.2,2.7-2.9c6.8-4.6,13.7-9.2,20.6-13.6c12.5-8.1,25-16,37.5-24.1
		c14.1-9.2,29.2-14.4,46.2-15.1c16.6-0.7,33.1-2.3,49.6-4c8.9-0.9,17.8-2.9,26.7-4.3c1.2-0.2,3.1,0,3.5,0.6c0.5,0.9,0.2,2.8-0.5,3.6
		c-4,4.9-7.7,10.3-12.6,14.3c-17.7,14.5-30.6,32.4-41.3,52.6c-4.1,7.7-10.8,14-16.5,20.8c-2.5,3.1-5.4,5.8-8,8.7
		c0.9,1.3,1.9,2.4,2.5,3.6c5.1,11.8,12.3,22.2,20.8,31.9c14.2,16.3,27.8,33.2,41.5,49.9c7.3,8.9,14.5,18,21.7,27
		c0.6,0.7,1.2,1.4,2,2.2c1.3-0.7,2.5-1.5,3.9-2.1c7.3-3,14.6-6.2,22-8.9c2.2-0.8,3.4-1.7,3.7-3.9c2.6-17.3,5.3-34.6,8-51.9
		c0.8-5,1.9-9.9,2.9-14.8c0.7-3.4,1.5-6.8,2.3-10.4c-5.7,0.3-10.7,1.6-15.3,0.7c-8.5-1.7-17-4.1-25-7.2c-3.2-1.3-5.5-5.2-7.7-8.3
		c-1.7-2.3-0.2-3.7,2.4-3.8c5.6-0.3,11.1-0.8,16.7-1c10.9-0.4,21.7-1.4,32.2-4.9c1-0.3,2.1-0.8,3.1-0.7c5,0.2,6.2-3,6.8-7
		c-0.4-0.2-0.9-0.5-1.1-0.4c-12.6,4.5-25.8,2.6-38.7,4.1c-3.6,0.4-7.1,1.5-10.6,1.6c-1.8,0.1-4.9-0.8-5.4-2c-1.1-2.9-1.2-6.4-1-9.5
		c0.1-0.7,3.1-1.8,4.8-1.8c14.1,0.1,27.5-3.8,41-7.5c2.1-0.6,4.1-1.5,6.2-2.2c-0.1-0.4-0.1-0.8-0.2-1.2c-6.8,0.7-13.7,1.4-20.5,2.2
		c-8.2,1-16.3,2.1-24.5,3c-4.9,0.5-5.7-0.6-6.6-7.4c-0.5-4.3,0.5-5.9,4.9-6.4c9.2-1,18.5-1.3,27.7-2.4c7.6-0.9,14.8-3.3,21.6-7.1
		c-10.9-1.2-21.7-1.5-32.4,0.4c-5.3,0.9-10.6,2.4-15.8,3.8c-5.2,1.4-7.6-0.1-8.4-5.3c-0.2-1.4-0.4-2.9-0.5-4.4
		c-0.2-2.8,0.9-4.8,3.9-4.9c5.9-0.4,11.9-0.6,17.9-0.9c9.1-0.4,18.3-0.3,27.4-1.3c6.9-0.8,9.6-3.8,12.7-10.9
		c-1.2-0.1-2.4-0.3-3.5-0.2c-16.3,2-32.6,4.1-48.9,6c-2.3,0.3-5.9,2.1-6.3-2.3c-0.7-7.1-0.9-8.4,4.1-9.7c12.4-3.3,25-2.9,37.6-3.5
		c6.2-0.3,12.2-1.5,17.9-3.9c-0.1-0.4-0.1-0.8-0.2-1.2c-11.1,1.2-22.2,2.5-33.3,3.7c-6.6,0.7-13.2,1.5-19.8,2
		c-3,0.3-5.7-0.2-5.9-4.2c-0.2-4.4,1.8-7.5,5.3-8.1c10.6-1.8,21.1-3.7,31.7-5.4c5.9-1,11.9-1.3,17.7-2.6c5-1.2,9.7-3.5,14.6-5.3
		c-0.1-0.5-0.3-1-0.4-1.5c-2,0-4.1-0.2-6.1,0c-8.5,1.1-17.1,2.1-25.5,3.5c-9.3,1.5-18.5,3.4-27.8,5.2c-2.3,0.4-5,1.6-6-1.7
		c-1.1-3.3,1-7.8,3.7-8.8c0.5-0.2,1-0.3,1.5-0.4c7.7-1,15.6-1.5,23.2-3.1c9.4-2,18.6-5,27.9-7.6c0.3-0.1,0.6-0.5,1.3-1.1
		c-1.4-0.1-2.4-0.2-3.4-0.2c-8.6,0.1-17.3-0.2-25.9,0.4c-4.9,0.3-9.8,2-14.7,3.2c-3.3,0.9-6.5,2.4-9.8,3.1c-2.9,0.6-5.7-0.3-6.3-3.9
		c-0.7-3.9,1-6.8,4.5-7.7c1.3-0.3,2.6-0.6,3.9-0.5c5.9,0.3,11.4-1.4,17.1-2.9c8.2-2.1,16.7-3,25-4.4c2.3-0.4,4.7-0.8,6.9-2.1
		c-3,0-6-0.1-9.1,0c-6.2,0.2-12.5,0.2-18.7,0.9c-8.1,0.9-16.2,2.5-24.3,3.9c-2.4,0.4-4.9,1.5-6-1.8c-1-3,0.7-6.5,4-7.1
		c10.1-1.6,20.1-3.2,30.3-4.2c9-0.9,18.1-0.8,26.6-4.2c1.6-0.6,3.1-1.3,4.8-2c-0.3-0.5-0.4-0.8-0.5-0.8c-17.9-0.2-35.9-0.3-53.4,4
		c-3,0.7-5.8,1.8-8.8,2.5c-2.9,0.7-4.7-0.3-4.7-3.6c0-1.5,0-2.9,0-4.4c-0.1-3.1,1.2-5,4.6-5.2c13.4-0.9,26.7-2,40.1-2.8
		c6.5-0.4,13-0.6,19.6-0.8c0-0.4,0-0.9,0-1.3c-1.3,0-2.7,0-4,0c-14.6,0-29.2,0.3-43.8-0.1c-4.9-0.1-9.8-2.1-14.6-3.5
		c-1.2-0.3-2-1.8-2.9-2.8c1.1-1,2-2.5,3.2-2.9c13-4.3,26.2-7.5,40.1-7.9c9.3-0.2,18.5-1.8,27.8-2.1c13.8-0.4,25.9,5.1,37.4,12
		c6.1,3.7,8.8,9.5,9.2,16.7c0.7,13.5-0.5,26.7-2.6,40c-1.5,9.4-1.1,19.1-2.8,28.5c-2.2,12.1-6.4,23.9-8.4,36
		c-3.2,19.4-10.7,37.1-18,55.1c-3.8,9.4-6.1,19.5-9.2,29.2c-0.1,0.3-0.1,0.5-0.2,0.8c-3.1,4.9,1.2,10.6-2.7,16.2
		c-3.2,4.5-3.2,11.3-4.2,17.2c-1.1,5.7-1.8,11.5-2.5,17.3c-0.5,4.1-1.8,8.5-0.8,12.2c1.2,4.5,6.8,3.4,10.4,4.6
		c20.7,7,32.5,23,42.1,41.3c1.2,2.2,2.2,3.4,4.9,3.7c15.9,1.9,31.9,3.6,47.8,6.2c10.2,1.7,20.1,5.1,30.2,7c5.1,0.9,7.3,2.9,8.5,8
		c1.3,5.8,4,11.2,5.9,16.9c1.4,4,0.9,4.4-3.2,5c-14.2,2.1-28-0.8-42.1-1.7c-12.7-0.7-25.5-0.5-38.2-0.8c-1.5,0-3-0.2-4.5-0.3
		c-0.1-0.5-0.2-0.9-0.3-1.4c1.2-0.4,2.5-1.2,3.7-1.3c16.7-0.6,33.4-0.6,50.1,1.5c8.6,1.1,17.5,0.9,26.2,1.2c1.7,0.1,3.4-0.4,5.2-0.7
		c-2.4-7.2-4.6-14.1-7-20.9c-0.3-0.8-1.5-1.4-2.4-1.7c-26.3-8-53.5-10.7-80.7-13.9c-0.2,0-0.5,0.1-0.9,0.2c1,4.6,2.4,9.1,3,13.8
		c3,22.9-3.1,43.7-15.8,62.7c-2.6,3.9-2.7,5.6,0.8,8.9c3.6,3.5,7.5,6.8,11.2,10.1c10,8.9,17.2,19.8,23.8,31.2
		c4.5,7.8,9.4,15.4,14.2,23c2.7,4.2,2.3,6.6-1.7,9.4c-5.9,4.2-11,9.1-14.5,15.6c-4.1,7.5-8,8.1-14.5,2.4c-2-1.7-3.9-3.6-5.7-5.6
		c-12.4-14.4-24.5-29-37.1-43.2c-4.6-5.2-10.2-9.6-15.6-14.6c-6.3,4-14.3,7.5-20,13.3c-3.6,3.6-3.8,10.7-5.4,16.2
		c-0.5,1.7-0.7,3.5-1.7,5.2c-2.8-6.3,0.1-12.2,1.2-18.8c-3.5,1-6.7,2.2-9.9,2.6c-2.1,0.3-4.3-0.5-6.5-0.8c1.9-0.7,3.8-1.5,5.7-2
		c9.5-2.3,17.9-6.8,25.7-12.4c3.7-2.6,6.7-6.1,10.3-8.9c1.5-1.2,3.8-1.3,5.1-2.5c8.8-8,18-15.8,26.2-24.5c20-21.3,29.6-58,14.2-89.1
		c-5.4-11-12.8-20.9-22.3-28.2c-6.8-5.2-15.8-7.7-24-11.2c-1.1-0.5-2.9,0.7-4.2,0.6c-2.1-0.5-4.2-1.4-6.3-1.4
		c-6.8,0-13.5,0.2-20.3,0.7c-11.3,0.8-21.6,4.5-31.2,10.4c-14.2,8.7-27.1,18.9-38.2,31.4c-1.2,1.4-1.7,3.4-2.5,5.1
		c-0.3,0.7-0.6,1.4-1.1,1.9c-1.7,1.4-4,2.4-5.1,4.2c-3.9,6.3-8,12.6-11,19.3c-4.1,9.2-7.6,18.7-10.8,28.3c-3,9.2-4.7,18.6-1.3,28.1
		c0.8,2.3,2.8,4.2,4.2,6.3c0.8,1.2,1.5,2.5,1.7,4.1c-4.1-1.5-7.2-3.7-8.6-7.9c-4.1-12.2-1.9-23.9,2.4-35.4
		c3.9-10.4,7.9-20.8,12.1-31.7c-9.1-2-18.1-4-27.1-6.1c-19.1-4.5-38.4-7.3-58-5.8c-10.8,0.8-21.6,3-32.4,4.1
		c-3.9,0.4-7.9-0.6-11.8-0.6c-2.8,0-5.8,0.4-8.5,1.3c-4.7,1.5-8.7,2.2-12.2-2.8c-2-3-5.5-5-8.3-7.4c-3.5-3-7.8-3-12-3.3
		c-1.2-0.1-2.4-1-3.6-1.5c1.2-0.5,2.4-1.3,3.6-1.4c6.3-0.6,11.8,1.2,16.4,5.7c1.7,1.7,3.6,3.1,6.4,4.4c-0.4-2.6-0.5-5.2-1.2-7.7
		c-0.5-2.2-1.8-4.1-2.4-6.3c-0.3-1.2,0.2-2.6,0.3-3.9c1.1,1,3,1.8,3.3,3.1c1.5,6.1,2.6,12.3,3.9,18.9c0.5,0,1.4,0.1,2.2,0
		c9-1.4,18.1-4.2,27-3.7c5.3,0.3,10.3,0,15.5-0.6c2.8-0.3,5.5-0.7,8.3-1c19.9-2,39.5,0,58.9,4.4c9.7,2.2,19.4,4.2,29.1,6.6
		c3.1,0.7,5.1,0.3,6.8-2.7c2.4-4.2,5.5-8.1,8.6-12.6c-2.9-1.1-5.4-2.2-8-3.1c-6.4-2.3-12.9-4.1-19.1-6.7
		c-13.5-5.8-27.6-8.4-42.3-8.6c-17.1-0.1-34.3-0.2-51.4-0.2c-0.7,0-1.5,0.2-1.7,0.2c0.7,6.1,1.6,12,2,17.8c0.1,1.9-1.5,3.8-2.3,5.7
		c-0.3-1.9-0.9-3.8-0.7-5.6c1-13.2-2.8-18-15.8-18.7c-7.6-0.4-15.4-2.1-23,1.9c0.3,0.6,1,1.4,0.8,1.8c-0.3,0.8-1.6,2.1-1.7,2.1
		c-1.7-1-3.4-1.9-4.7-3.3c-3.2-3.4-6.1-7.1-9.1-10.6c-4-4.6-9.6-5.5-15.1-6.2c-4.2-0.5-8.5-0.1-11.8-0.1c2.6,3,5.7,6.2,8.2,9.9
		c1.2,1.8,1.7,4.5,1.6,6.7c-0.3,5.1-1.5,5.7-6.4,4c-3.2-1.1-7.5,0.7-10.2,4.3c-4,5.4-3.8,10.2,0.4,15.5c0.7,0.9,0.7,2.4,1.1,3.7
		c-1.1-0.5-2.4-0.8-3.2-1.5c-5.1-4.4-5.4-9.7-2.8-15.5c2.7-5.9,6.5-10.3,13.7-10.3c1.3,0,2.6,0,3.9,0c1.4-4.8-4-12.2-9.5-13.4
		c-2.3-0.5-4.5-1.7-6.7-2.4c-1-0.3-2.2-0.4-3.1,0c-3.4,1.1-7,2-10,3.8c-10.8,6.4-20,14.8-29.1,24.8c3.4-0.5,6-1.2,8.6-1.3
		c4.5-0.1,9-0.1,13.4,0.5c5.7,0.7,10,4,13.1,8.9c2.6,4,5.1,8.1,7.9,11.9c2.1,2.9,4.4,5.7,7.2,8c10.5,8.6,22.1,9.5,34,2.8
		c1.3-0.7,2.4-2.1,3.3-3.3c1.5-2.2,2.5-4.7,4-6.9c0.5-0.8,1.8-1,2.8-1.4c0,1,0.2,2-0.2,2.9c-3.1,7.7-8.3,12.3-16.7,14.8
		c-13,3.9-23-0.4-31.9-8.9c-4.2-4.1-7.8-9.2-10.7-14.3c-5.8-10.4-11.9-13.2-27-11.7c-6.6,0.6-12,3.9-17,8c-0.7,0.6-2.1,0.4-3.1,0.5
		c0.2-1.1,0-2.5,0.7-3.1c11-11.3,21.7-22.9,34.6-32.3c9-6.5,19.1-7.3,29.5-7.9c3.6-0.2,7.2,0.1,10.7,0.2c10.3,0.5,18.1,5.5,23.7,14
		c1.9,2.8,3.7,3,7.2,2.1c5.6-1.5,11.7-1.7,17.6-1.8c9.1-0.1,18.2,0.3,27.3,0.6c21.2,0.5,42.5,0.2,63.7,1.9
		c9.9,0.8,19.6,5.2,29.3,8.3c8.3,2.7,16.5,5.9,24.7,8.8c0.7,0.2,1.9-0.1,2.4-0.6c1.5-1.5,2.7-3.2,4.1-4.8
		C1299.2,451.9,1299.3,451.7,1299.4,451.6z M1336.3,242.6c5.9-0.8,11.9-1.7,17.9-2.5c11.3-1.4,22.5-2.8,33.8-4.1
		c1.7-0.2,3.8,0.1,5.3,0.9c0.9,0.5,1.9,3,1.4,3.8c-3.3,5.8-6.5,12.1-14.1,12.8c-9.9,0.9-19.8,1.2-29.8,1.6c-5,0.2-10.1,0.2-15.1,0.5
		c-4.5,0.2-2.9,3.4-2.6,5.8c0.4,2.9,1.7,3.9,4.7,3c3.9-1.2,7.8-2.6,11.9-3.3c13.5-2.5,27.2-2.3,40.9-1.3c0.8,0.1,2.2,0.6,2.2,1.1
		c0.1,0.9-0.2,2.3-0.9,2.8c-2.4,1.7-4.8,3.4-7.4,4.5c-9.5,4-19.5,6-29.8,6.5c-5.4,0.2-10.9,0.7-16.3,1c-3.1,0.2-3.1,2.2-2.6,4.5
		c0.5,2.2,0.8,3.8,4,3.3c9-1.5,18.1-2.5,27.2-3.5c6.9-0.8,13.7-1.3,20.6-1.6c1.2-0.1,2.5,1.2,3.8,1.8c-0.8,1.2-1.5,2.7-2.6,3.6
		c-1.2,1-2.8,1.5-4.3,2c-14.9,4.9-29.9,9.3-45.8,9.5c-2.1,0-4.6-0.4-4,3.1c0.4,2.9,1.1,5.1,5,4.3c4.4-1,8.9-1.7,13.4-2
		c11.6-1,23.4,0.1,34.7-4c0.5-0.2,1-0.2,1.6-0.3c2.4-0.3,3.7,0.2,3.3,3.3c-1.2,7.5-3.2,9-10.4,11c-13,3.8-26.2,5.5-39.7,5.6
		c-3.5,0-7,0.6-11.4,1.1c2.4,2.5,3.9,5.2,6.2,6.3c10.9,5.3,22.2,8.7,34.6,5.8c6.7-1.6,7.1-1.2,6.5,6c-0.1,1.5-0.3,2.9-0.6,4.3
		c-1,5.4-2.1,10.8-2.9,16.2c-1.6,10.1-3.1,20.2-4.7,30.3c-1.4,8.6-3,17.2-4.5,25.4c9.3,0,18.4,0,27.4,0c1-8.7,1.4-16.8,2.9-24.7
		c2.1-11.6,4.5-23.1,7.4-34.6c3.3-13,6.4-26.1,11-38.5c6-16,13.2-31.5,16.2-48.6c2.2-12.8,6.6-25.2,9-37.9
		c1.7-9.1,1.5-18.5,2.7-27.7c1.9-14.3,4.6-28.6,2.8-43.2c-0.6-5.1-2.3-9.4-6.6-12.2c-10.6-6.9-21.9-12.6-34.8-12.2
		c-15.1,0.4-30.2,1.6-45.2,3.3c-7.5,0.9-14.8,3.8-22.2,5.8c0,0.6,0,1.2,0.1,1.7c4.5,0.7,9,2.1,13.5,2.1c15.3,0.3,30.5,0.1,45.8,0
		c2.9,0,4.1,1.3,4.3,4c0.2,3-1.6,3.4-4.1,3.5c-10.2,0.3-20.4,0.5-30.7,1c-8.3,0.4-16.7,1-25,1.9c-5.9,0.7-5.9,1.1-4.8,7.4
		c0.5,0,1,0.1,1.5,0c5.4-1.4,10.7-3.6,16.2-4c18.4-1.2,36.8-1.8,55.3-2.5c0.8,0,1.5,0.7,2.3,1.1c-0.7,1-1.3,2.4-2.3,2.8
		c-11.7,5.1-23.6,9-36.7,9.4c-10.7,0.3-21.3,2.4-31.9,3.9c-1.2,0.2-2.2,1.5-3.3,2.3c0.3,0.4,0.5,0.8,0.8,1.1
		c4.6-1.1,9.2-2.6,13.9-3.1c11.6-1,23.3-1.5,35-2.2c2.9-0.2,5.9-0.4,8.7,0c1.4,0.2,2.6,1.8,3.9,2.8c-1,1.1-1.8,2.6-3.1,3.1
		c-2.4,1-5.1,1.5-7.7,1.9c-7.1,1.1-14.3,1.4-21.3,3c-8.6,2-16.9,5.7-26,4.9c-0.5,0-1.3,0-1.5,0.3c-0.7,1.1-1.7,2.3-1.7,3.6
		c0,0.6,1.9,1.8,2.8,1.7c2.2-0.3,4.3-1.3,6.5-1.9c6.1-1.6,12.2-3.6,18.4-4.4c6-0.8,12.2-0.2,18.3-0.2c3.9,0,7.7-0.2,11.5,0.1
		c1.3,0.1,2.9,1.4,3.4,2.5c0.3,0.7-1,2.7-2,3.3c-2.8,1.6-5.7,2.9-8.7,3.9c-13.8,4.9-28.3,7-42.8,8c-4.6,0.3-5.2,0.9-4.4,5.2
		c0.9-0.1,1.8-0.3,2.7-0.4c10.6-1.8,21.2-3.5,31.7-5.3c6-1,12-1.9,18-2.7c2.9-0.4,5.8-0.9,8.7-0.7c1.5,0.1,3.8,1.4,4.1,2.7
		c0.3,1.2-1.1,3.7-2.3,4.3c-5,2.4-10.1,5-15.4,6.2c-13.1,2.8-26.3,5-39.5,7.3c-3,0.5-6.2,0.1-9.1,0.9c-1.3,0.4-2.2,2.7-3.2,4.1
		c1.3,0.5,2.6,1.6,3.8,1.5c7.4-0.6,14.8-1.6,22.2-2.4c9.9-1,19.8-2.1,29.7-2.9c1.8-0.1,4.7,0.7,5.3,2c1.3,2.7-1.3,4.1-3.5,4.7
		c-6.2,1.6-12.5,3.4-18.9,4.2c-11.7,1.4-23.5,2.1-35.2,3.1C1335.5,236.5,1335,238.8,1336.3,242.6z M1434.1,546.5
		c-9.6,8.9-19.6,18.2-29.9,27.8c1.3,1.4,2.7,3.1,4.2,4.8c15,16.8,30,33.7,45,50.5c2.6,3,5.3,6,8.3,8.6c4,3.5,6.2,3.2,8.7-1.6
		c3.8-7.2,9.2-12.6,15.7-17.1c2.4-1.6,2.2-3,0.8-5.2c-5.2-8.2-10.2-16.4-15.2-24.7c-5.8-9.7-11.8-19.2-20.3-26.9
		C1445.6,557.2,1439.9,551.8,1434.1,546.5z"/>
	<path d="M1040.3,752.1c5.6,18.2,5.9,36.8,5.3,55.4c-0.6,18.3,0.2,36.7-2.7,54.9c-0.6,0-1.1,0-1.7,0.1c-0.2-1.4-0.7-2.8-0.6-4.2
		c0.6-17.1,1.5-34.2,1.9-51.3c0.4-17.1,0.4-34.3-4.6-50.9c-1.3-4.4,0.5-9.5-2.5-13.7c-0.2-0.3,0.4-1.6,0.7-1.6c0.7,0,1.7,0.2,2,0.7
		c10.7,16.1,25.4,28.8,38.6,42.6c14.1,14.7,31.6,25.3,51.9,30.6c19.4,5,38.8,10.2,58.9,11.7c15.9,1.2,31.9,1,47.3-4.2
		c2.3-0.8,3.3-1.7,3.6-4.3c0.8-6.9,2.9-13.3,5.9-19.6c5.8-12.3,10.3-25.3,15.6-37.8c9.9-23.3,18.9-47.1,32-68.9
		c6.8-11.4,13.6-22.8,20.2-34.3c0.7-1.1,0.2-3.6-0.6-4.8c-8.1-11-17.9-20.3-29.4-27.7c-12.5-8.1-25-16.1-37.3-24.5
		c-3.3-2.2-5.8-2-8.6,0.2c-4,3.3-7.9,6.7-11.9,10c-0.9,0.7-2.4,0.8-3.6,1.1c0.5-1.1,0.7-2.5,1.5-3.2c4.8-4.3,9.8-8.5,14.8-12.7
		c-6.1-3.9-12.4-7.8-18.5-12c-3.3-2.2-6.4-4.8-9.1-7.7c-4.3-4.7-3.9-7.3,1.7-10.3c7-3.8,14.3-7.1,21.4-10.6
		c8.5-4.1,17-8.2,25.5-12.2c1.1-0.5,2.5-0.7,3.7-1c0.3,0.5,0.5,0.9,0.8,1.4c-1.5,1-2.8,2.3-4.4,3.1c-12.9,6.2-25.9,12.3-38.8,18.5
		c-3.3,1.6-6.4,3.5-10.3,5.7c2.5,2.6,4.1,5,6.2,6.6c5.4,4,10.8,8.2,16.7,11.5c11.3,6.2,21.4,14.1,32.3,20.9c4.8,3,9.4,6.4,14.4,9.3
		c14.2,8.3,26.2,19,35.9,32.2c0.6,0.8,1.7,1.3,2.7,1.6c0.9,0.2,1.9,0,4-0.2c-1.5,1.9-2.3,3-2.9,3.6c5,11.5,9.9,22.7,14.9,34.3
		c0.6-0.3,1.6-0.6,2.4-1.1c5.3-3.3,10.6-6.6,15.7-10.1c5.7-3.9,8.7-9.7,11.4-15.9c2.8-6.7,6.4-13,9.5-19.5c2.2-4.8,4.2-9.7,6-14.7
		c0.3-0.9,0-2.4-0.6-3.3c-6.5-11-16-19-26.4-26.1c-11-7.5-22.6-13.9-34.9-19.1c-7.1-3-13.7-7.2-20.7-10.1c-7.2-3-14.7-5.3-22.1-7.8
		c-1-0.3-2.1-0.4-3.1-0.8c-0.6-0.3-1-1-1.5-1.6c0.7-0.4,1.5-1.2,2.1-1.2c2.5,0.3,5.1,0.6,7.4,1.5c6.6,2.4,13.2,4.8,19.6,7.7
		c8.8,4,17.4,8.5,26.2,12.5c16.9,7.8,32.5,17.5,45.9,30.5c4.1,4,7.7,8.7,10.9,13.6c1,1.5,0.4,4.8-0.5,6.8c-4.4,9.7-9.2,19.3-13.8,29
		c-1.1,2.3-2.1,4.6-2.8,7c-2.3,7.4-7.7,12.2-14,16.2c-4.6,3-9.1,5.9-13.8,8.8c-4.1,2.5-5.6,1.7-7.5-2.7c-4-9.7-8.3-19.2-12.4-28.8
		c-0.3-0.6-0.7-1.1-1.4-2.4c-2.6,3.9-5,7.4-7.2,11.1c-16.8,26.9-30.1,55.6-42.5,84.6c-4.8,11.2-8.5,22.9-12.8,34.3
		c-1.3,3.3-2.7,6.7-4.6,9.7c-4.3,6.6-6,13.8-6.7,21.4c-0.3,3-1.6,4.3-4.4,5.2c-19.8,6.3-40,6.3-60.3,3.4
		c-22.9-3.3-45.5-8.2-66.9-17.2c-5.4-2.3-10.4-5.7-15.5-8.9c-17-10.5-29.3-26-42.6-40.3c-3.2-3.5-6.7-6.6-10.1-9.9
		C1041.1,751.8,1040.7,751.9,1040.3,752.1z"/>
	<path d="M883.6,538.3c1.1,0.3,2.4,0.3,3.2,0.9c13.4,10.9,24.8,23.2,29.5,40.4c5.2,19.5,10.5,39,15.9,58.4
		c4.8,17.2,10.8,33.9,19.9,49.3c3.2,5.5,6,11.3,8.9,16.9c1,1.8,2.1,3.6,4,5.1c-0.1-1.5-0.4-3-0.4-4.4c-0.2-6.6-1-13.3-0.3-19.7
		c1.6-13.2,0.9-26.2-0.5-39.3c-0.5-4.9-1.2-9.8-1.3-14.6c-0.2-14.6-0.3-29.2,0-43.8c0.3-14.4,1.2-28.9,1.9-44.1
		c-4.4,0.3-9.2,0.2-13.8,1.1c-18.8,3.5-37.3,2.3-55.6-2.7c-2.1-0.6-4.1-1.9-5.9-3.1c-0.5-0.3-0.3-1.6-0.4-2.4c0.7,0,1.6-0.2,2.2,0.1
		c9,4.8,19,6,28.9,6.5c11,0.5,22,0.9,32.9-1.8c3.5-0.9,7.4-0.4,11.1-0.5c3.7-0.2,4.7,1.8,4.2,5c-0.2,1.4-0.3,2.8-0.5,4.6
		c1.7-0.5,2.9-0.7,4-1.1c7.4-2.8,14.9-3,22.7-2c6.2,0.8,12.4,1.4,18.6,1.3c11.3-0.1,22.2,1.7,33,4.7c2.8,0.8,5.7,2.4,7.9,4.4
		c11.1,9.9,22.2,19.8,32.8,30.2c7.3,7.1,13.5,15.5,21.1,22.2c20.3,17.6,33.7,40.1,46.6,63.1c3.1,5.6,6.6,11.1,10.4,17.3
		c1.2-2.2,2-3.8,2.9-5.3c5.5-9.7,10.6-19.7,16.7-29c7.6-11.4,16.1-22.1,24.2-33.1c0.5-0.7,1.9-0.8,2.9-1.2c-0.2,1,0,2.3-0.6,3.1
		c-3.3,4.7-6.5,9.4-10.2,13.8c-10.1,11.9-17.6,25.6-25.5,38.9c-1.1,1.9-2.1,3.9-3.1,5.9c10.2,5.2,17.1,13.3,22.7,22.5
		c0.6,0.9,0.4,2.3,0.5,3.5c-1-0.6-2.4-1-3-1.9c-4.5-7.2-9.5-13.8-17.4-17.6c-1.4-0.7-2.9-0.9-4.4-1.4c-0.3,1.5-0.4,3-1,4.4
		c-0.5,1.1-1.6,1.8-2.4,2.7c-0.6-0.1-1.1-0.2-1.7-0.3c2.7,13.1,5.4,26.1,8,39.2c0.3,1.7,0.1,3.6,0.1,5.4c-1-1.5-2.6-2.9-3-4.5
		c-2.5-12.1-4.6-24.2-7.1-36.3c-0.7-3.5-1.6-7.1-3.3-10.1c-5.7-10.3-11.8-20.4-17.8-30.6c-11.4-19.2-25.7-35.8-41.8-51.4
		c-15.3-14.7-30.4-29.5-45.6-44.4c-4.9-4.8-10.6-7.1-17.1-8.4c-10.7-2.1-21.5-2.8-32.4-2.9c-6.3,0-12.7-1.8-19-1.5
		c-5.4,0.2-10.7,2.2-16.1,3.5c-1,0.2-2,0.5-3.8,0.9c-0.4,19.3-0.8,38.8-1.1,58.3c-0.1,4.1-0.2,8.2,0.1,12.3
		c0.7,9.8,2.1,19.5,2.3,29.3c0.2,11.1-0.1,22.3-0.9,33.3c-0.8,10.5,1.5,20.6,3.2,30.8c0.9,5.5,1.8,11,2.2,16.5
		c1.2,15.5,2.3,31,3,46.5c0.4,9.3,0.2,18.6,0,27.9c0,1.3-1.1,2.6-1.6,3.8c-0.5-1.2-1.4-2.5-1.4-3.7c-0.3-15.1-0.1-30.3-0.9-45.4
		c-0.7-14.2-2.5-28.3-3.9-42.4c-0.2-1.5-0.7-3.1-1.5-4.5c-5.6-9.6-11.3-19.1-17-28.7c-12-20.4-18.4-42.8-24-65.6
		c-4-16.2-8.5-32.4-13.9-48.2c-4.2-12.3-13.3-21.5-22.9-30c-1.7-1.5-3.5-3-5.3-4.5C883.1,539.3,883.4,538.8,883.6,538.3z"/>
	<path d="M575,373.9c-7.7,1.5-15.5,2.9-23.2,4.6c-4.5,1-8.9,2.7-13.4,3.7c-1.7,0.3-3.6-0.7-5.5-1.1c0.5-1.7,0.7-3.6,1.6-5
		c6.4-9.3,14.8-16.6,23.9-23.1c5.8-4.1,11.6-8.4,18.5-13.4c-4.2-0.8-7.3-1.6-10.5-2c-4.3-0.6-8.7-0.8-13-1.5
		c-1.1-0.2-2.8-1.3-2.9-2.1c-0.1-1.2,0.6-2.9,1.6-3.6c8.2-6.5,17.8-9.2,27.9-10.5c0.9-0.1,1.9,0.9,2.8,1.5c-0.9,0.5-1.7,1.3-2.7,1.6
		c-7.2,2.3-14.4,4.4-21.5,6.8c-1.5,0.5-2.8,1.8-4.8,3.1c10.7,1.7,20.5,3.3,30.5,4.9c-0.3,2.4,0.1,4.9-3.6,4.2
		c-0.8-0.1-1.8,0.4-2.5,1c-11.3,8.6-22.6,17.2-33.6,26.1c-3.3,2.6-5.6,6.5-8.3,9.8c0.2,0.3,0.5,0.6,0.7,0.9c4-1.2,8-2.7,12.1-3.5
		c8.3-1.7,16.6-3.3,25-4.4c4.9-0.6,6.3,1.8,3.7,6.2c-1.8,3.1-4.2,5.8-6.3,8.7c-3.7,5.2-7.3,10.4-11,15.5c0.3,0.3,0.6,0.7,0.9,1
		c1.2-0.7,2.5-1.5,3.7-2.2c1-0.6,2-1.3,3.1-1.9c6.8-3.4,11.4-1.2,11.6,6.3c0.2,8.2-0.6,16.4-0.9,24.7c-0.1,3.8,0,7.6,0,12.3
		c1.5-1.2,2.7-1.8,3.5-2.8c2.1-2.5,4.1-5.2,6.2-7.8c2.5-3.2,4.2-3.1,5.4,0.7c2.7,9.1,5.7,18.3,7.5,27.6c3.4,16.5,6,33.2,9,49.8
		c0.1,0.7,0.4,1.4,1.3,2.2c0.7-3.6,1.2-7.2,2-10.7c2.9-12.7,6-25.3,9.1-37.9c0.3-1.1,1.3-2.1,2-3.1c1.1,0.8,2.5,1.4,3.2,2.4
		c1.4,2.1,2.3,4.5,4,7.8c1.5-3.8,3-6.8,3.9-10c1.1-3.9,1.9-7.6,7-5.7c2.1-3.1-0.7-7.3,3.1-9.7c3.3,6.8,0.5,12.9-5.5,12.9
		c-1.8,4.3-3.4,8.8-5.4,13.1c-0.7,1.5-2.4,2.5-3.7,3.7c-1-1.3-2-2.6-2.8-4c-0.8-1.5-1.4-3.1-2.4-5.5c-0.7,1.8-1.1,2.6-1.3,3.6
		c-3.4,15.4-6.9,30.8-10.3,46.2c-0.2,0.8-0.2,1.7-0.6,2.3c-0.8,1.3-1.8,2.6-2.7,3.8c-0.8-1.4-2.2-2.6-2.4-4.1
		c-3.6-19.2-6.8-38.4-10.5-57.6c-1.6-8.4-4.2-16.7-6.6-25.8c-1.4,1.4-2,2.1-2.7,2.8c-1.9,2.2-3.6,4.7-5.8,6.6
		c-1.5,1.3-3.7,1.7-5.5,2.5c-0.7-1.9-1.9-3.7-1.9-5.6c0.2-10.7,0.8-21.5,1-32.2c0-2.2-1-4.5-1.5-6.7c-2.5,0.6-5.1,1-7.4,2
		c-2.3,1-4.2,2.7-6.5,3.9c-1.1,0.5-2.5,0.3-3.7,0.5c-0.1-1.4-0.8-3-0.3-4c2-4,4.2-8,6.7-11.7c3-4.4,6.4-8.5,9.6-12.7
		c0.8-1.1,1.4-2.4,2.1-3.6C575.4,374.8,575.2,374.3,575,373.9z"/>
	<path d="M209.4,1008.7c14-14.9,30.2-26.7,47.1-37.4c10.6-6.8,22.4-10.3,35.2-9.8c25.6,1,45.7-9.5,61.8-28.9
		c9-10.9,12.4-23.2,8.5-36.8c-2.6-8.9,0-17.4,0.1-26.1c0-0.8,0.9-1.6,1.4-2.4c0.4,0.1,0.8,0.2,1.1,0.3c0,3.8-0.1,7.7,0,11.5
		c0.1,5.4-0.5,10.9,0.7,16.1c3.3,14.7,0.4,27.6-9.2,39.1c-11.5,13.8-25.2,24.4-43.1,28.3c-6.1,1.3-12.4,2-18.6,1.8
		c-16.6-0.5-31,5-44.2,14.5c-9.2,6.7-18.4,13.5-27.2,20.9c-4.6,3.9-8.1,9-12.1,13.6c-0.7,0.8-1.7,1.5-2.5,2.2
		c-0.5-1.1-1.2-2.1-1.6-3.2c-0.5-1.4-0.5-2.9-1.2-4.2c-10.7-19.9-12.2-41-7.8-62.7c2.5-12.5,5.1-25,8.3-37.3
		c3.8-14.7,5.5-29.7,7.6-44.7c2.5-18.5,6.8-36.8,10.2-55.1c0.3-1.7,0.3-3.4,0.6-5.1c0.1-0.6,0.8-1.2,1.2-1.8c0.6,0.5,1.8,1,1.9,1.7
		c0.2,1.4,0,2.9-0.3,4.3c-3.1,15.3-6.7,30.6-9.4,46c-2,11.5-2.1,23.3-4.3,34.7c-2.7,14.5-7,28.6-9.9,43c-2.2,10.6-4,21.4-4.8,32.2
		C197.6,979.6,201.7,994.7,209.4,1008.7z"/>
	<path d="M440.2,719.1c1.1,0.3,2.6,0.3,3.2,1.1c2.3,2.6,5.1,5.2,6.5,8.4c7.8,17.9,15.2,35.9,20,54.9c7.5,29.5,21.8,55.5,43.2,77.3
		c7,7.1,15.9,6.5,24.2,3.8c11.7-3.8,21.9-10.3,31.3-18.4c13.3-11.5,27.5-22,41.1-33.3c5.9-4.9,11-10.6,16.6-15.9
		c0.7-0.6,1.6-0.9,2.5-1.3c0.3,1,1,2,0.9,2.8c-0.5,3.1-1.2,6.3-1.9,9.4c-6.4,26.1-7.7,52.5-4.9,79.1c0.2,1.7,0,3.4,0,5
		c-0.7,0-1.4,0-2.1-0.1c-4.6-29.3-2.7-58.3,3.9-87.6c-1.3,1.1-2.6,2.3-4,3.3c-7.7,6.1-15.5,12-23.1,18.2
		c-12.1,9.9-23.6,20.7-36.2,29.9c-10.3,7.6-21.7,14.1-35.4,13.4c-6.5-0.3-11.9-2.5-16.5-7.4c-22.6-24.1-36.4-52.7-44.7-84.6
		c-4.4-16.8-12.2-32.8-18.6-49.1c-0.8-2-2.8-3.5-4.2-5.2c-0.8-0.9-1.6-1.8-2.4-2.8C439.8,719.8,440,719.5,440.2,719.1z"/>
	<path d="M374.8,180.5c0.3,4.1,1.1,7.9,0.7,11.6c-0.8,8.1-4.9,9.7-11.6,5.1c-0.8-0.6-1.7-1.2-2.9-2c0.2,3.8,0.6,7,0.5,10.3
		c-0.1,7.4-3.3,9.1-9.5,5.3c-1.1-0.7-2.2-1.3-3-1.8c-0.3,3.9-0.1,7.9-1.2,11.6c-1.5,5.2-5.9,6.4-10.4,3.3c-1.7-1.2-3.3-2.7-4.5-4.5
		c-4.6-6.8-6.8-14.4-7.1-22.5c-0.1-3.4,0.1-7.5,3.9-8.9c3.7-1.3,6.6,1.3,8.9,3.9c1.6,1.8,2.6,4,3.9,6c3.6,5.5,8.5,9.2,15.4,12.3
		c0.1-8.4,1.4-16.1-3.7-22.8c-6.5-8.6-12.8-17.3-16.4-27.6c-1.1-3.3-2-6.6-2.6-10c-0.2-1.3,0.4-3.6,1.4-4.1c1-0.6,3.4,0,4.2,0.9
		c2.9,3.5,6.3,7,8,11.2c3.7,8.9,6.7,18.2,9.5,27.4c1.6,5.1,5.2,8.2,9.4,10.8c2,1.3,3.5,0.4,3.9-1.6c0.4-2.7,1.2-5.7,0.4-8.2
		c-1.8-5.5-3.6-11.2-6.8-15.9c-6.8-9.8-12-20.3-15.9-31.5c-0.4-1,0.2-2.4,0.3-3.6c1.1,0.6,2.8,1,3.3,1.9
		c5.4,9.9,11.1,19.6,15.7,29.9c4.6,10.1,12.4,15.4,22.6,18.2c1,0.3,1.9,1.3,2.8,2c-1,0.4-2.3,1.3-3.1,1c-4.4-1.7-8.8-3.6-13.1-5.6
		C376.9,182.1,375.9,181.2,374.8,180.5z M346.1,217c-0.3-1.7-0.3-2.4-0.6-3c-2.7-6.3-5.2-12.8-8.3-18.9c-0.9-1.8-3.7-2.7-5.6-4.1
		c-0.8,1.2-2.3,2.4-2.3,3.7c-0.4,9.3,2,17.9,8.2,25c1.2,1.4,4.3,2.8,5.3,2.2C344.5,220.9,345.3,218.3,346.1,217z M353.1,179.8
		c-4.7-16.3-8.7-29.4-14.7-30.2C340.9,161,345.9,170.9,353.1,179.8z"/>
	<path d="M1080.4,321c12.4,0.7,21.6,6.8,28.8,16.7c1.9,2.6,2.2,6.7,6.6,6.9c0.4,0,0.7,1.3,1,2c2.6,6.5,5.2,13,7.8,19.6
		c2.3,5.9,4.1,11.8,2.4,18.2c-2,8.1-7.7,11.6-15.8,10c-7.1-1.4-12.7-5.3-17.4-10.5c-12.2-13.7-19.6-29.6-21.6-47.8
		c-0.5-4,0.9-8.2,1.6-12.8c-1.8-0.8-1.7-2.2,1.3-3.6c6.3-3.1,12.7-6.1,18.8-9.6c9.7-5.6,19.3-5.1,28.8,0
		c18.2,9.9,30.4,24.3,31.6,45.9c0.6,10.2-1.9,19.3-11.7,24.8c-2.8,1.6-5.2,3.6-7.9,5.3c-0.7,0.5-1.9,0.3-2.8,0.4
		c0.4-1,0.5-2.3,1.2-2.9c2.6-2,5.3-4.1,8.2-5.7c8.8-4.8,10.6-13.1,10.1-21.8c-1.3-22.3-18.9-42.2-40.8-46.8
		c-1.8-0.4-3.9-0.7-5.5-0.1c-8.4,3.4-16.8,7-25.1,10.6C1080,320.3,1080.2,320.7,1080.4,321z M1075.1,336.9
		c2.5,17.6,10,35.4,25.6,49.2c2.7,2.4,6.3,3.9,9.8,5c5.5,1.8,9.3,0.5,11.7-3.2c2.6-4,2.9-13.4,0.7-16.5c-2.1-3-4-6-5.6-9.3
		c-2.5-5.3-4.6-10.7-7-16c-4.7-10.3-12.4-17.5-23.3-20.9C1079,322.6,1075,325.9,1075.1,336.9z"/>
	<path d="M274.6,238.9c4.1,7.9,8.2,15.7,12.2,23.7c2.3,4.6,4.4,9.4,6.3,14.2c0.4,0.9-0.4,2.2-0.7,3.3c-0.7-0.8-1.7-1.5-2.1-2.4
		c-5.8-11.8-11.4-23.5-17.5-36c-0.8,1.6-1,2.4-1.5,2.9c-0.6,0.5-1.5,1-2.3,1c-0.3,0-1.1-1.4-0.9-1.9c4.1-10.1-4.5-15.7-8.3-22.9
		c-1.1-2.1-2.9-3.8-4.1-5.9c-0.6-1-0.2-2.6-0.3-3.9c0.9,0.7,2.1,1.2,2.8,2.1c4.1,5.7,8,11.5,12.2,17.7c0.3-1.2,0.7-2.1,0.7-3
		c0.1-7.6-0.7-15.1-4.3-22c-5.6-10.9-17.5-12.2-24.8-2.4c-7.3,10-7.2,20.7-2,31.6c0.6,1.4,0.7,3,1.1,4.5c-1.3-1.1-3.1-1.8-3.8-3.2
		c-5.3-10.7-5.6-21.5,0.3-32c3.6-6.5,9-10.9,17-10.5c7.8,0.4,12.5,5.1,15.6,11.8c3.2,6.9,4,14.2,3.8,21.8c-0.1,2.2-0.2,4.5-0.3,7.1
		c6.9-1.5,11.9,2.3,17.1,5.7c5.3,3.5,10.4,7.4,16.1,10.1c7.7,3.7,12.4,0.4,13.1-8.2c-13.1-5.3-17-16.9-19.9-29.1
		c-0.4-1.7-0.1-3.7,0.4-5.5c1.1-3.9,4.1-5.5,8-4.3c5.5,1.7,9.2,5.7,11,10.8c2.1,6.1,3.2,12.5,4.6,18.8c0.3,1.2,0.1,2.6,0.2,4.3
		c1-0.4,1.7-0.8,2.4-0.9c1.1-0.2,2.3-0.1,3.4-0.2c-0.7,1-1.2,2.5-2.1,2.9c-3.4,1.5-4.7,4-5.6,7.5c-1.8,7-7.1,10.1-14,7.7
		c-4.8-1.7-9.2-4.5-13.6-7.1c-4.8-2.8-9.3-6.1-14.2-8.8c-1.6-0.9-3.8-0.5-5.7-0.7C275,237.9,274.8,238.4,274.6,238.9z M320.3,238.6
		c0.4-0.3,0.8-0.5,1.2-0.8c-0.3-3.2-0.3-6.5-0.8-9.7c-1.3-7.7-3-15.3-9.7-20.2c-1.5-1.1-4.1-1.9-5.7-1.3c-1.1,0.4-2,3.4-1.8,5.1
		c1.2,9.5,4.9,17.9,12.1,24.4C316.9,237.2,318.7,237.7,320.3,238.6z"/>
	<path d="M404.7,158.6c-5.4,9.8-10.7,10-17,0.8c-1.1-1.6-2-3.5-2.7-5.3c-0.2-0.6,0.5-1.6,0.8-2.3c0.7,0.4,1.6,0.7,2.1,1.4
		c1.6,2.4,2.9,5.1,4.7,7.3c3.2,3.8,7,3,8.2-1.8c0.7-2.6,0.3-5.5,0.2-8.2c0-1.2-0.8-2.3-0.8-3.5c0-0.9,0.7-1.8,1-2.7
		c0.8,0.6,2,1,2.2,1.7c8.7,23.9,23.4,44.6,34.1,67.4c3.2,6.9,5.7,14.3,7.9,21.6c1.7,5.6,0.6,11.3-1.6,16.7
		c-3.9,9.4-13.2,13.6-25,11.2c-8.2-1.6-15.5-8.7-17.1-16.6c-0.1-0.7,0.3-1.4,0.4-2.1c0.8,0.3,1.9,0.4,2.2,0.9c1.2,1.9,2.1,4,3.1,6
		c4.2,8.3,12.1,10.4,23.2,8.4c6.8-1.2,11.4-8.1,12-16.5c0.7-9.1-2.5-17.4-6.5-25.2c-10-19.5-20.5-38.7-30.7-58.1
		C405.4,159.5,405.1,159.1,404.7,158.6z"/>
	<path d="M267.5,871.1c-1.5,1.4-3,2.7-4.4,4.2c-1.4,1.4-2.6,2.9-3.7,5.1c0.9-0.2,1.8-0.4,2.6-0.7c1.5-0.6,2.9-1.4,4.4-1.9
		c6.9-2.2,9.7-0.2,9.9,7c0,1.1,0,2.1,0.8,3.5c1.2-1.9,2.4-3.8,3.5-5.8c3-5.8,3-5.8,10-4.5c-2.8-4.8-8.3-9.7,1.6-14.1
		c-5.4,0-9.3-0.4-13.2,0.1c-3.7,0.5-5.5-0.6-6.1-4.3c-0.2-1.5-1-2.9-1.8-5.1c-1.4,4.9-2.7,9-3.9,13.1c-0.5-0.1-1-0.2-1.5-0.3
		c-0.2-0.8-0.8-1.6-0.7-2.4c0.7-4.4,1.6-8.8,2.6-13.2c0.2-0.8,1.3-2.1,2-2.1c1.1,0.1,2.7,0.7,3.2,1.6c1.5,2.9,2.6,6,3.8,8.9
		c4.9,0,9.9-0.1,14.9,0.1c1.4,0,2.8,0.9,4.2,1.4c-0.6,1.4-0.9,2.9-1.8,4.1c-1.3,1.7-4.1,3-4.1,4.6c0,1.9,2.1,3.8,3.3,5.7
		c0.4,0.6,1,1.1,1.1,1.7c0.3,1.7,0.4,3.5,0.6,5.2c-1.6-0.3-3.4-0.2-4.8-0.8c-4.6-2.3-4.5-2.4-7,2.2c-1.6,3-3.2,6.1-5,9.1
		c-0.5,0.8-1.9,1.9-2.3,1.7c-0.9-0.4-1.9-1.5-2-2.5c-0.5-2.9-0.9-5.8-0.8-8.7c0.1-3.5-1.8-4.2-4.5-3.4c-2.9,0.8-5.6,2.4-8.5,3.2
		c-1.6,0.4-3.4,0-5.2-0.1c0.4-1.7,0.5-3.7,1.4-5.1c1.9-2.7,4.3-5,6.7-7.3c0.9-0.8,2.5-0.9,3.8-1.3
		C267.1,870.2,267.3,870.7,267.5,871.1z"/>
	<path d="M217.9,946.9c-3.1-0.7-6-1.3-9-2c-3.8-0.9-4.9-3.6-2.1-6.3c3.4-3.3,7.3-5.9,11-8.9c0.5,0.3,0.9,0.6,1.4,0.9
		c-0.6,1.2-1,2.7-1.9,3.6c-1.3,1.3-3,2.2-4.5,3.3c-1.3,1-2.6,2.1-4.9,3.9c4.2,0.9,7.3,1.9,10.4,2.2c3.1,0.3,3.7,1.4,2.9,4.4
		c-0.9,3.7-1.1,7.7-1.6,11.5c0.4,0.3,0.9,0.6,1.3,0.9c1.7-0.9,3.7-1.6,5.1-2.9c4-3.9,7.5-8.8,15.1-3.9c-0.6-3.8-0.9-6.2-1.4-8.6
		c-0.5-2.6-0.4-4.4,2.9-5.4c3-0.9,5.6-2.8,8.4-5.1c-2.6,0-5.2,0-7.8,0c-6.5,0-6.9-0.3-8.9-6.6c-0.4-1.2-0.8-2.5-1.4-4.1
		c-3.3,2.8-6.2,5.4-9.3,7.8c-0.7,0.5-1.8,0.5-2.8,0.7c0.3-1,0.2-2.4,0.8-3c3.1-2.9,6.3-5.7,9.6-8.4c2.2-1.8,3.9-1.4,4.7,1.5
		c0,0.1,0.1,0.3,0.1,0.4c3,8.6,3,8.6,12.2,8.5c2.4,0,4.8,0,7.1,0.4c1,0.2,2.4,1.3,2.5,2.1c0.1,0.7-1.1,2-2,2.6
		c-3.4,2-6.9,3.9-10.5,5.6c-2,1-3,2.1-2,4.3c0.2,0.4,0.2,0.8,0.2,1.2c1.3,8.7,0.9,9-7.6,7.6c-1.4-0.2-3.3,0.9-4.7,1.8
		c-3.2,2-6,4.7-9.4,6.2c-3.6,1.7-4.5,0.7-4.8-3.4c-0.1-2.1-0.2-4.2-0.1-6.4C217.3,951.3,217.6,949.2,217.9,946.9z"/>
	<path d="M1299.4,451.6c-0.1,0.1-0.2,0.2-0.3,0.4c-1.2-0.8-2.7-1.3-3.5-2.4c-1.6-2.1-2.5-4.7-4.1-6.8
		c-11.1-14.2-22.6-28.1-33.5-42.5c-14.9-19.5-29.4-39.3-44.1-59c-0.3-0.4-0.8-0.9-0.8-1.3c-0.1-1.1,0-2.3,0-3.5
		c1.2,0.6,2.9,0.8,3.5,1.7c2.7,4,4.8,8.5,7.7,12.4c16,21,32.2,41.8,48.4,62.7c7.6,9.9,15.3,19.7,22.8,29.7
		C1297.3,445.5,1298.1,448.8,1299.4,451.6z"/>
	<path d="M260.5,767.4c-0.5-3.3-1.1-6-1.1-8.7c0-1,1.1-2.4,2.1-2.9c0.7-0.3,2.4,0.5,2.9,1.3c3.9,5.6,9.1,7.6,15.8,6.7
		c1.3-0.2,2.7,0.9,4.1,1.4c-0.8,1.1-1.5,2.3-2.6,3.1c-1.8,1.5-3.9,2.7-6.5,4.5c5.8,1.4,7.1,6.4,9,10.7c1.5,3.3,0.7,4.4-3,3.9
		c-2.6-0.4-5.2-0.9-7.7-1.8c-4.2-1.5-7.5-0.5-10.2,2.9c-1.3,1.7-2.5,3.4-4,5c-0.6,0.7-1.7,1-2.6,1.4c-0.3-1-1.1-2.2-0.9-3.1
		c1.1-4.2,2.6-8.3,3.9-12.4c-3.7-2.1-7.5-4.2-11.2-6.5c-0.9-0.6-1.3-2.1-1.9-3.1c1-0.5,2-1.3,3-1.4
		C253.4,767.8,257.1,767.6,260.5,767.4z M252.2,771.5c2.4,1.3,3.7,2.2,5.1,2.8c6.6,3.1,6.6,3.1,4.2,9.9c-0.1,0.2,0.2,0.4,0.4,0.9
		c5.7-6.5,12.2-2.2,18.8-1.1c-1.1-4.1-2.5-7.1-6.5-8.3c-1.2-0.4-2.6-2-2.7-3.3c-0.1-0.9,1.5-2.2,2.5-3c1-0.8,2.3-1.3,3.5-2
		c0-0.4,0-0.8-0.1-1.1c-6.5,1.8-10.6-2.1-14.8-6c-0.1,1.2,0.1,2,0.3,2.7c2.1,5.6,1.6,6.5-4.3,7.7C256.9,771,255.2,771.1,252.2,771.5
		z"/>
	<path d="M230.1,840.1c-0.7-1.9-2.2-3.8-2-5.6c0.2-2.1,5.5-3.8,9.7-2.8c-2.4,1.6-4.1,2.8-5.9,4c7.4,5.8-1.6,9.3-2.2,14.7
		c2.5-1.9,4.9-3.4,7.1-5.2c2.6-2.2,4.8-2.4,7,0.7c0.8,1.1,2.1,1.9,3.7,2.5c-0.9-3-1.9-5.9-2.5-8.9c-0.3-1.3-0.2-3.3,0.6-4
		c0.7-0.6,2.8-0.4,3.9,0.2c2,1.1,3.1,0.6,4.3-1.1c0.9-1.3,2-2.4,3.3-3.9c-4.4-0.7-8.4-1.3-12.5-1.9c0-0.3,0.1-0.7,0.1-1
		c-1.8,0.9-3.5,1.9-5.3,2.6c-0.7,0.2-1.6-0.3-2.4-0.4c0.4-0.7,0.5-1.9,1.1-2.1c3.2-1.5,6-3.3,7-7.1c0.1-0.4,1.4-1,1.9-0.8
		c0.6,0.2,1.2,1.1,1.3,1.7c0.3,1.5,0.3,3.1,0.4,5.2c3.6,0,7-0.1,10.4,0.1c1.2,0.1,2.4,0.7,3.6,1.1c-0.5,1.1-0.9,2.4-1.6,3.3
		c-1.5,1.9-3.3,3.5-4.8,5.3c-3.1,3.7-3.1,3.7-8.1,2.4c1.1,3.8,2.2,7.2,3.1,10.7c0.3,1.1-0.2,2.4-0.3,3.7c-1.2-0.2-2.7-0.1-3.6-0.8
		c-2.5-1.7-4.9-3.6-7.6-5.7c-3.6,2.8-7.3,5.8-11.2,8.5c-1.2,0.8-2.8,0.9-4.3,1.3c0.1-1.6-0.3-3.4,0.4-4.7c2-4,4.5-7.8,6.8-11.6
		C230.9,840.2,230.5,840.1,230.1,840.1z"/>
	<path d="M892.7,359.5c-0.2,9.4-5.9,17.2-12.4,17.1c-8.2-0.2-15.2-7.7-14.9-16.1c0.2-7.8,5.6-13,13.3-12.8
		C887.5,347.8,892.8,352.3,892.7,359.5z M880.7,351.8c1.2,2.4,2.3,4.5,3.1,6.7c0.3,0.7-0.4,1.8-0.7,2.8c-0.7-0.6-1.6-1.1-2-1.8
		c-0.8-1.2-1-3-2.1-3.8c-1.6-1.2-3.8-2.5-5.4-2.1c-1.4,0.3-3,2.5-3.6,4.2c-1.2,3.3,1.2,8.4,4.4,10.4c4.9,3.1,13.5-0.6,14.1-6.1
		C888.7,359,884.8,353.7,880.7,351.8z"/>
	<path d="M311,846.2c-3.4,1.6-6.9,3.5-10.6,4.9c-5.3,2-6.8,0.6-5.8-5.1c0.2-0.9,0.3-1.8,0.6-3.2c-2.5-1.1-5-2.2-7.5-3.3
		c-2.4-1-4-2.7-1.5-4.6c4-3.2,8.8-4.8,14.1-4.1c0.5,0.1,0.9,0.7,1.9,1.6c-4.4,1.2-8.2,2.2-13.2,3.6c5.1,3.3,12.8,3.9,8,12.6
		c0.4,0.1,0.8,0.1,1.2,0.2c3-1.5,6.1-2.8,9-4.4c5.2-2.9,5.8-2.8,9.1,3.6c-0.2-8,0.8-14.3,10.8-14c-6.3-3.9-13.9-1.9-18.1-8.1
		c-0.9,1.4-1.7,2.9-2.8,4.2c-0.7,0.9-1.9,1.5-2.8,2.2c0.1-1.3-0.3-2.8,0.3-3.8c1-2.1,2.4-4.2,3.9-6c0.7-0.9,2.1-1.8,3.2-1.7
		c0.7,0,2,1.6,2,2.5c0,3.1,2.1,3.6,4.3,4.1c4.4,1.1,8.7,2.3,13,3.6c1,0.3,2.3,1.4,2.4,2.2c0,0.8-1.2,2-2.1,2.5
		c-1.8,0.8-3.8,1.5-5.7,1.6c-4,0.3-5.3,2.6-5.2,6.1c0,2.6,0.3,5.3,0.3,7.9c0,0.8-0.3,2-0.9,2.3c-0.6,0.3-1.9,0-2.4-0.6
		C314.7,850.9,313,848.6,311,846.2z"/>
	<path d="M316,894.6c3-1.1,6-2,8.9-3.2c3.6-1.4,6.4-1.3,8.1,2.8c0.5,1.3,1.5,2.4,3,4.8c-0.8-10.2,5.4-8.6,12-7.5
		c-4-5.2-11.8-7.8-4.9-15.4c-3.7,0.8-6.4,1.5-9.1,1.8c-0.9,0.1-1.9-0.9-2.8-1.4c0.8-0.5,1.5-1.3,2.4-1.6c3.4-1,6.9-2,10.3-2.8
		c0.9-0.2,2.6-0.2,2.9,0.3c0.5,0.9,0.4,2.3,0,3.3c-0.8,2.4-3,5-2.6,7c0.4,2,3.6,3.3,5.3,5.2c1.1,1.2,1.6,2.8,2.4,4.2
		c-1.5,0.6-2.9,1.6-4.4,1.7c-7.9,0.4-7.8,0.3-8.5,7.9c-0.1,1-0.9,2-1.4,3c-1.1-0.6-2.6-0.9-3.2-1.8c-1.6-2.3-2.6-5-4.4-7.1
		c-0.8-1-2.9-1.7-4.1-1.4c-3.3,0.8-6.5,2.3-9.8,3.1c-1.3,0.3-3.6,0-4.2-0.9c-0.6-0.9-0.2-3.4,0.7-4.2c4.9-4.3,5.2-8.4,0.8-13.4
		c-2.2-2.5-1.1-4,2.3-4c3,0,6.1,0,9.1,0.3c0.8,0.1,1.5,1.2,2.2,1.8c-0.8,0.4-1.7,1-2.5,1.1c-2.4,0.1-4.9,0.1-8.5,0.1
		c6.6,5.9,5.9,11-1.4,15.4C315.1,894.1,315.6,894.3,316,894.6z"/>
	<path d="M343.2,796.6c-2.6-8.5-2.6-8.5,0.6-18.8c-3.5,1.2-6.6,2.2-9.7,3.1c-0.8,0.2-1.8-0.1-2.8-0.1c0.4-0.9,0.7-2.3,1.3-2.5
		c4.1-1.4,8.3-2.7,12.6-3.6c2.1-0.4,3.2,1,2.4,3.3c-0.3,0.9-0.8,1.7-1.2,2.5c-1.8,4.8-4.1,9.5-0.3,14.5c0.8,1.1,1,2.7,1.4,4.1
		c0.7,2.6-0.2,3.8-2.8,2.5c-3.6-1.8-5.7-0.7-7.1,2.9c-0.4,1-0.7,2.1-1.5,2.8c-0.9,0.9-2.2,2-3.1,1.8c-1.2-0.2-2.8-1.4-3.1-2.5
		c-0.8-2.8-1-5.7-1.6-9.5c-3.5,0-7.3,0.1-11-0.1c-1.3-0.1-2.6-0.9-3.9-1.4c0.6-1.4,0.9-2.9,1.8-4.1c0.8-1,2-2,3.2-2.2
		c4.2-0.8,3.8-3,2.5-6c-0.9-2.2-1.6-4.5-1.8-6.9c-0.1-0.7,1.8-2.4,2.3-2.3c2.5,0.7,5,1.7,7.3,2.9c0.7,0.4,0.9,1.7,1.3,2.6
		c-0.9,0-1.9,0.3-2.8,0c-1.4-0.4-2.8-1.1-4.7-1.9c1,3.8,2.1,6.7,2.5,9.8c0.6,4.7-4.7,3.3-7,6.1c3.7,0.2,6.9,0.3,10.1,0.5
		c2.9,0.1,4.3,1.4,4.1,4.5c-0.2,2.2,0.2,4.4,1.2,6.8c1.2-2,2-4.3,3.6-5.8C338.5,798.4,340.8,797.8,343.2,796.6z"/>
	<path d="M722.4,390.2c-5.7,0-11.1-4.5-10.9-9.3c0.4-10.8,3.6-16.7,11.6-16.9c10.1-0.2,15.6,3.9,15.5,11
		C738.6,383.4,731.3,390.2,722.4,390.2z M733.9,376.5c0-4-2.8-7.4-6.2-7.3c-4,0-10.4,5.6-10.4,9c0,3.3,3.5,6.1,7.6,6.1
		C730.2,384.3,733.8,381.2,733.9,376.5z"/>
	<path d="M306.6,730.1c5.2,0.5,5.2,0.5,5.8,9c3.7-3.6,5-9.7,12-8.9c-5.5-2.7-6.2-6-2.2-10.1c-3.2-0.7-5.8-1.3-8.5-1.9
		c-0.7,1.4-1.3,3.1-2.3,4.6c-0.5,0.6-1.7,0.7-2.6,1.1c0-0.8-0.3-1.8,0-2.5c2-3.8,2.8-7.6,1.8-11.9c-0.2-0.9,0.7-2,1.1-3
		c0.9,0.8,2,1.4,2.5,2.4c0.8,1.5,0.7,3.5,1.7,4.7c1.1,1.3,3,2.6,4.6,2.7c5.1,0.5,6.1,2.1,3.4,6.8c-0.3,0.4-0.5,0.9-0.9,1.8
		c2.1,1.4,4.2,2.8,6.1,4.3c0.7,0.6,1.3,1.7,1.3,2.5c0,0.5-1.4,1.4-2.1,1.3c-9.4-0.9-11.9,6.4-15.6,12.6c-0.7,1.3-2.3,2.1-3.4,3.1
		c-0.4-1.6-1.1-3.1-1.1-4.6c0.1-3.4,0.6-6.7,1-10.7c-3.1,0.3-5.4,0.7-7.8,0.8c-0.9,0-1.9-0.5-2.8-0.7c0.3-1,0.3-2.1,0.9-2.8
		c1-1.2,2.3-2.2,3.6-3c1.1-0.7,2.5-1,3.7-1.5C306.8,727.5,306.7,728.8,306.6,730.1z"/>
	<path d="M558.6,310.6c3.7-1.1,7.5-2.1,11.2-3.4c4.3-1.5,8.4-3.3,12.7-4.8c4.3-1.5,5.9-0.2,6,4.3c0.1,2.3-1.8,5.3,1.8,6.6
		c-0.5,1.4-0.8,3.1-1.7,4.2c-0.7,0.8-2.6,1.5-3.3,1.1c-0.8-0.5-1.3-2.2-1.2-3.4c0.2-2.9,0.8-5.8,1.2-8.6c0-0.3-0.2-0.7-0.5-1.7
		c-2.8,1-5.4,2.1-8.1,3c-5.7,1.8-11.3,3.8-17.1,5.2c-1.6,0.4-3.6-0.8-5.5-1.2c0.7-1.7,0.8-4,2-5.1c10.3-9.6,20.7-19,31.1-28.4
		c0.8-0.7,1.7-1.5,2.7-1.7c1.4-0.3,2.8,0,4.2,0c-0.8,0.8-1.6,1.7-2.5,2.5c-7.4,6.2-15,12.3-22.2,18.6c-4.1,3.6-7.7,7.6-11.5,11.5
		C558.3,309.7,558.4,310.1,558.6,310.6z"/>
	<path d="M805.3,470.7c-13.7,0.2-26.3-3.2-37.2-11.6c-2.8-2.1-4.1-6.2-5.8-9.5c-0.3-0.6,0.5-1.8,0.8-2.7c0.7,0.6,1.8,1.2,2,1.9
		c1.3,6.3,6,9.3,11.2,12c19.2,9.9,38.6,8.4,57.5-0.1c4.8-2.1,8.3-7.2,12.3-10.9c0.7-0.6,1.1-1.5,1.8-2.1c0.4-0.3,1.3-0.2,1.8,0
		c0.3,0.1,0.5,1,0.4,1.4c-0.3,0.9-0.8,1.7-1.4,2.4c-5.4,6.4-11,12.6-19.8,14.6c-7.8,1.7-15.6,3.7-23.5,5.6
		C805.5,471.4,805.4,471,805.3,470.7z"/>
	<path d="M476.1,123.4c-4.5,1.1-7.2-0.4-9.1-3.5c-2.3-3.9-4.5-7.8-7.1-11.5c-1.8-2.7-3.9-5.8-7.9-4.7c-3.3,0.9-5.7,5.5-4.5,10
		c1.7,6.8,4.2,13.3,6.4,20c0.4,1.1,1.2,2.1,1.5,3.2c0.2,0.7-0.3,1.6-0.5,2.5c-0.8-0.2-2-0.2-2.4-0.8c-1.6-2.1-3-4.4-4.6-6.5
		c-2.5-3.6-5.2-7-7.7-10.7c-0.7-1-0.6-2.5-0.8-3.8c1.1,0.6,2.4,1,3.4,1.8c0.9,0.7,1.4,1.8,2.7,2.6c-0.4-2.5-1-4.9-1.1-7.4
		c0-2.7-0.1-5.7,0.9-8.2c3-7.3,10-8.4,15.1-2.4c2.7,3.2,4.9,6.9,7.1,10.5c1.7,2.8,2.9,6,6.8,6.7
		C474.9,121.3,475.3,122.3,476.1,123.4z"/>
	<path d="M475.9,100.8c0.7,2.9,1.1,5.7,2.2,8.1c1.5,3.3,3.3,3.4,5.6,0.7c0.4-0.5,0.7-1.3,1.2-1.5c0.9-0.5,2-0.7,3-1
		c-0.2,0.9-0.1,2-0.6,2.8c-1.6,2.7-3.9,5.6-7.1,4.5c-2.3-0.8-4.7-3.5-5.7-5.9c-2.5-6.2-1.8-12.5,0.9-18.5c2.2-4.7,6.8-6,11.3-3.4
		c7.5,4.3,10.7,17.7,6,24.8c-0.6,0.9-1.7,1.7-2.7,2.2c-0.6,0.3-1.6-0.3-2.4-0.5c0.2-0.7,0.3-1.5,0.8-2c5.2-5.7,3.6-17.7-3-21.6
		c-3.1-1.8-5.9-1.2-7.2,2.1C477.2,94.5,476.7,97.7,475.9,100.8z"/>
	<path d="M520.9,43c-1.2,4.9-2.7,10.1-3.8,15.5c-0.4,2,0.2,4.3,0.3,6.4c2.4-0.2,4.8-0.3,7.2-0.5c1.2-0.1,2.5-0.3,3.7-0.4
		c-0.9,1.2-1.6,3.3-2.6,3.4c-3.3,0.5-7,1.2-9.8,0.1c-3.5-1.5-2.9-5.5-2-8.8c1.2-4.6,2.3-9.3,3.5-13.9c0.7-2.6,1-5.6-1.9-6.5
		c-2.3-0.8-5.4-0.5-7.8,0.4c-2.5,1-3.3,3.6-2.3,6.4c0.3,0.8-0.2,1.8-0.3,2.7c-0.8-0.5-1.8-0.9-2.5-1.5c-0.4-0.3-0.5-0.9-0.6-1.4
		c-0.6-3.4,0.4-6.3,3.2-8.5c3.5-2.8,7.5-3.3,11.6-1.3C519.8,36.6,520.8,39.3,520.9,43z"/>
	<path d="M483.5,53.5c2.2,3.7,4.3,7.5,6.8,11c2.6,3.7,5,7.5,7.3,11.4c2.4,4.1,5.7,7.7,8.4,11.6c0.6,0.9,0.7,2.2,1.1,3.3
		c-1.2-0.5-2.9-0.6-3.6-1.5c-3.5-4.4-6.7-8.9-10-13.4c-0.3-0.4-0.7-0.8-1.9-2.2c-2.2,2.6-4.3,5.2-6.5,7.5c-0.7,0.7-2,0.8-3,1.1
		c0.2-1,0.1-2.3,0.7-3.1c1.1-1.5,2.3-3,3.8-4c3.7-2.5,4.2-5.1,1.3-8.7c-2-2.6-3.6-5.6-5.2-8.5c-0.6-1.2-0.7-2.6-1-4
		C482.3,53.9,482.9,53.7,483.5,53.5z"/>
	<path d="M740.7,341.4c-2.4,6-5.9,11.4-11.3,15.2c-4.2,2.9-9,5-13.6,7.2c-1.2,0.6-2.9,0.8-4.2,0.5c-0.9-0.2-1.5-1.7-2.3-2.6
		c0.9-0.2,1.8-0.4,2.7-0.5c0.9-0.1,1.9,0.1,2.7-0.2c9.2-3.4,17.1-8.3,21.7-17.5c0.6-1.2,2-2.1,3-3.1
		C739.8,340.7,740.2,341,740.7,341.4z"/>
	<path d="M888.7,343.8c-1.5,0.5-3,1.4-4.5,1.6c-9.6,0.8-19.4-6.8-21.1-16.3c-0.2-1,0.6-2.1,0.9-3.1c0.7,0.7,1.7,1.4,2.1,2.2
		c4.5,9.9,8.8,15.3,20.2,13.8c0.7-0.1,1.4,0.3,2.1,0.5C888.5,343,888.6,343.4,888.7,343.8z"/>
	<path d="M1155.9,348.5c-0.3-0.3-1-0.6-1-0.9c-0.1-0.6,0-1.5,0.4-1.8c3.3-2.6,6.7-5.1,10.2-7.6c0.4-0.3,1.4,0.2,2.1,0.3
		c-0.2,0.7-0.1,1.7-0.5,2c-3.2,2.5-6.6,4.9-9.9,7.4C1156.8,348.2,1156.4,348.3,1155.9,348.5z"/>
	<path d="M528,84.8c-1.3-1.1-2-1.7-2.7-2.3c1.2-0.9,2.2-1.9,3.5-2.6c0.3-0.1,1.8,1.3,1.7,1.5C529.9,82.5,529,83.4,528,84.8z"/>
</g>
</svg>
