<?xml version="1.0" encoding="utf-8"?>
<!-- Generator: Adobe Illustrator 22.0.1, SVG Export Plug-In . SVG Version: 6.00 Build 0)  -->
<svg version="1.0" id="Ebene_1" xmlns="http://www.w3.org/2000/svg" xmlns:xlink="http://www.w3.org/1999/xlink" x="0px" y="0px"
	 viewBox="0 0 1547.9 1049.4" enable-background="new 0 0 1547.9 1049.4" xml:space="preserve">
<g>
	<path d="M775.2,401c0.3,3.4,0.2,6.4,1,9.3c4.9,17.8,5.6,36,5.2,54.3c-0.1,4.8-0.8,6.1-5.7,6.1c-14.1-0.2-28.2-0.3-42.3-1.1
		c-21.9-1.2-43.8-4-65.8-4.2c-45.8-0.5-91.7-0.1-137.6,0.7c-40,0.7-79.9,2.9-119.9,3.7c-11,0.2-21.4,2-31.7,5
		c-4.8,1.4-6.6,3.4-6.9,8.3c-1.1,15.8-0.8,31.7-5.6,47.1c-1.7,5.4-2.5,11.2-3,16.9c-0.7,7.8-1.2,15.7-1.1,23.5
		c0.5,28.9,1.2,57.8,1.9,86.8c1,37,2.1,74.1,3.1,111.1c0.1,3.6,1.3,6,4.1,8.1c6.7,5,14.6,6.8,22.5,7.5c10.9,1,21.8,1.3,32.7,1.2
		c21.7-0.2,43.5-0.6,65.2-1.3c15.3-0.5,30.6-2,45.9-2.2c44.5-0.7,89-1.2,133.6-1.4c13.7-0.1,27.4,1.4,41.1,1.9
		c3.6,0.1,7.3-1,11.5-1.6c1.3,0.3,3.5,1.4,5.7,1.4c19.1-0.1,38.1-0.5,57.2-0.6c8.7-0.1,17.3,0.3,26,0.4c1.4,0,2.9,0,4.8,0
		c-0.4-1.3-0.6-2.1-0.8-2.9c-1-4-2.8-7.9-2.9-11.9c-1-28.8-1.8-57.5-2.5-86.3c-0.4-18.7-0.6-37.3-0.8-56c0-2.9-1-4.8-3.6-5.4
		c-4-0.9-8-2.1-12.1-2.1c-22,0-44,1-66,0.5c-30.8-0.7-61.5-2.2-92.3-3.6c-25.8-1.2-51.6-2.6-77.5-4.1c-16-0.9-31.9-1.8-47.9-3
		c-7.2-0.5-11.6-4.8-12.1-12c-0.4-5.3,0.2-10.6,0.5-15.9c0.3-7,0.9-14.1,1-21.1c0.2-9.7,4.4-14.1,13.9-14.8
		c25-1.8,49.8,0.6,74.7,1.9c34.5,1.8,69,2,103.5,2.9c1.3,0,2.6-0.3,3.9-0.4c1.8-0.1,3.7-0.1,5.5,0c0.9,0,1.9,0.2,2.8,0.2
		c19.1-0.2,38.1-0.9,57.2-0.6c14.4,0.2,28.7,1.5,43.1,2.2c10.6,0.5,21.3,0.8,31.9,1.4c4,0.2,7.9,1,11.9,1.6
		c5.9,0.8,11.9,1.4,17.7,2.6c5.7,1.2,7.2,3.1,7.7,9c0.4,4.4,0.3,8.8,0.7,13.2c0.4,4.4,0.6,8.8,1.8,13c2.5,8.9,4.1,17.9,4.1,27.2
		c0,9.4,1.5,18.6,4.7,27.4c6.1,16.6,6.5,33.9,6.8,51.3c0.4,23.2,0.8,46.4,0.9,69.6c0,4,1.4,5,5,5c20.9-0.3,41.9-0.4,62.8-0.7
		c54.4-0.7,108.8-1.5,163.2-2.3c13.2-0.2,26.4-0.6,39.6-0.6c8.2,0,16.5,0.8,24.7,1.1c3.3,0.1,5.3,1.8,6.1,4.8
		c0.8,3.3,1.7,6.7,1.9,10.2c0.4,6.4,0.4,12.8,0.5,19.2c0.1,6.3-1.9,9.3-8.1,10.3c-7.5,1.2-15.1,2-22.6,2.4
		c-37.8,2-75.6,3.7-113.4,5.6c-31.7,1.6-63.3,3.7-95,5c-33.7,1.4-67.4,2.1-101.1,3.3c-16.1,0.6-32.2,2.1-48.3,2.2
		c-25.7,0.1-51.4-0.7-77.1-1c-20.1-0.2-40.3-0.5-60.4-0.2c-22.7,0.3-45.3,1.1-67.9,1.9c-4,0.1-8.4,0.2-11.7,2.1
		c-3,1.7-4.9,5.6-6.6,8.8c-1,1.9-0.9,4.4-0.8,6.7c0.5,19,0.8,38.1,1.7,57.1c0.2,4.1,1.7,8.5,3.7,12.1c2.8,4.9,8.5,6.1,13.5,6.7
		c7.2,0.9,14.6,0.7,22,0.6c1.5,0,3-1.3,4.3-2.2c0.8-0.5,1.3-1.4,2.6-3c0.4,2.3,0.6,3.5,0.9,4.9c0.9,0,1.9,0.2,2.9,0.2
		c19.3-0.2,38.7-0.7,58-0.7c8.1,0,16.2,1.2,24.3,1.1c29.7-0.2,59.4-0.8,89.1-1.3c7.1-0.1,14.1-0.4,21.2-0.8
		c16.1-0.9,32.1-2.3,48.2-2.8c14.9-0.5,29.8,0,44.7,0c9.6,0,19.2,0.1,28.8,0.2c2.4,0,4.8,0.4,7.2,0.3c4.5-0.2,6.5,2.3,7.3,6.2
		c0.7,3.3,1.6,6.5,1.7,9.8c0.4,12.8,0.4,25.6,0.9,38.4c0.1,3.7-1.2,5-4.7,5.2c-5.7,0.2-11.4,0.7-17.2,1.1
		c-16.8,0.9-33.5,1.9-50.3,2.8c-9.6,0.5-19.2,0.4-28.8,0.9c-27.9,1.4-55.9,3-83.8,4.6c-27.2,1.6-54.3,1.1-81.4-1.6
		c-21.2-2.1-42.5-2.9-63.8-3c-33.9-0.2-67.7,1.2-101.6,1.1c-24.9-0.1-49.8-2.1-74.7-2.1c-18.5,0-37,1.9-55.5,2.7
		c-28,1.2-55.9,2.6-83.9,3.1c-9.2,0.2-18.5-2-27.8-2.7c-11.7-1-23.5-0.9-35.1-2.5c-16.2-2.3-32.5-1-48.7-1.5
		c-5.1-0.2-10.3-1-15.4-1.8c-9.3-1.5-18.6-3.2-27.9-5c-3.4-0.6-6.7-1.6-10-2.8c-2.8-1.1-4.3-3.4-4.2-6.6c0.1-5.7-0.2-11.5,0.1-17.2
		c0.2-4.9,0.9-9.8,1.4-14.6c0.2-2.1,0.6-4.2,0.7-6.4c0.4-17.8,0.9-35.7,1-53.5c0.1-19.1,1.3-38.1,3.9-56.9c2.5-17.5,5.2-35,7-52.6
		c1.1-10.7,0.8-21.6,0.7-32.4c0-6.8-0.6-13.5-1.1-20.3c-0.7-8.3-2.2-16.7-2.2-25c-0.1-21.1,0.1-42.1,0.6-63.2
		c0.7-28.4,1.6-56.7,2.6-85.1c0.3-8,1.1-16,1.3-24c0.1-3.1-0.8-6.2-1.3-9.2c-0.1-0.6-0.3-1.3-0.1-1.9c0.5-2.9,1.4-5.7,1.6-8.6
		c1-14.5,1.7-29,2.6-43.5c0.1-2,0.2-4,0.3-6c0.6-10.6,1.2-21.3,1.7-31.9c0.4-10.4,1-20.8,0.8-31.1c-0.6-21.7,6.5-41.4,14.7-60.9
		c2-4.8,5.8-7.2,11.4-7.1c12.8,0.2,25.5-1,37.9-4.8c14-4.3,28.4-5.8,43-6c17.1-0.2,34.1-0.2,51.2-0.3c6.1,0,12.3,0.2,18.4-0.3
		c11.3-1,22.6,0.5,33.8-0.8c13.6-1.5,27.2-3.2,40.9-4.7c3.4-0.4,6.9-0.7,10.4-0.8c22.1-0.9,44.2-1.9,66.3-2.7c4-0.1,5.2-1.2,5.1-5.3
		c-0.5-22.9-0.5-45.9-1.2-68.8c-0.7-22.3,1.7-44.2,6.4-65.9c3.9-17.9,8.2-35.8,12.5-53.7c0.6-2.6,1.6-5.1,2.7-7.5
		c2.1-5,5.8-7.4,11.4-7.8c10.5-0.7,20.9-2.4,31.4-3.2c8.4-0.7,16.9-0.2,25.1-1.3c16.1-2.2,32-5.5,48.1-7.8
		c23.2-3.4,46.4-6.5,69.7-9.3c18.3-2.1,36.6-3.7,54.9-5.1c13-1,26.1-1.2,39.1-2.1c21.5-1.4,43.1-3,64.6-4.5
		c20.5-1.4,40.9-2.9,61.4-4.3c28.8-2,57.7-4,86.5-6c25.1-1.8,50.2-3.7,75.4-5.2c29.2-1.8,58.3,0.9,87.4,2.6
		c8.5,0.5,16.9,2.2,25.3,3.7c5,0.9,7.5,3.8,7.4,8.9c-0.1,23.3,0.2,46.6-0.9,69.9c-0.8,17.8,2.1,34.7,7.7,51.4
		c2.5,7.6,4.4,15.4,6.6,23.1c1.8,6.3-0.6,11.5-4.2,16.3c-1.3,1.7-2.7,3.1-4.8,5.4c8.7-0.8,16.6-1.8,24.5-2.1
		c26.6-1,53.2-2.1,79.9-2.5c15.3-0.2,30.6,0.8,45.9,1.2c11.2,0.3,13,2.5,15.3,13.5c3.9,18.3,5.3,36.9,7.5,55.4
		c0.1,1.1,0.2,2.1,0.3,3.2c1,23,2.3,46,3,69c0.3,9.5-1.6,18.8-5.2,27.7c-2.5,6.1-6.1,9.4-13.4,9.6c-9.3,0.3-18.5,2.6-27.7,3.2
		c-9,0.7-18.1,0.9-27.1,0.4c-9.2-0.5-13-5.3-13.2-14.5c-0.5-19.1-1-38.1-1.3-57.2c-0.2-12.7-4.3-24.3-8.8-35.9
		c-0.5-1.2-2.8-2.4-4.2-2.4c-13.8,0.7-27.7,1.4-41.5,2.6c-22.2,1.9-44.4,2.8-66.7,0.4c-3.5-0.4-7-1.6-10.3-2.9
		c-6.1-2.4-9.4-6.6-9.3-13.8c0.3-18.8,0.3-37.6-0.2-56.4c-0.2-8.9-1.7-17.7-2.6-26.6c-0.8-8.3-1.5-16.7-2.1-25.1
		c-0.5-7.4,0.6-15.3-1.4-22.3c-2.4-8.5,0.7-16.4-0.1-24.6c-0.5-4.8,0.3-9.8,0.7-14.7c0.3-3.5-1.1-4.7-4.6-4.4c-13,1.2-26,2.4-39,3.3
		c-17.1,1.2-34.3,2-51.4,3.3c-24.8,1.9-49.7,4.1-74.5,6.1c-14.9,1.2-29.8,1.9-44.6,3.6c-37.7,4.2-75.4,9-113.1,13.2
		c-23,2.6-46.1,4.7-69.2,6.6c-36.6,3-73.4,5.1-110,8.4c-17.8,1.6-35.2,6.2-51.4,14.2c-9.8,4.9-16,13.8-21.6,23
		c-0.6,1-0.5,2.6-0.5,3.9c-0.3,14.2,1.6,28.1,5.4,41.8c4.7,17.1,7.3,34.6,7.8,52.4c0.3,10.7,2.6,21.4,3.9,32.1
		c1.3,11.1,2.5,22.2,3.6,33.3c0.2,2.5-0.1,5.1-0.3,7.6c-0.2,2.6-1.7,3.9-4.5,4.1c-7.4,0.5-14.9,1.3-22.3,1.9
		c-18.1,1.4-36.1,2.8-54.2,3.9c-12.1,0.7-24.3,0.7-36.4,1.5c-17.9,1.2-35.8,3.1-53.8,4.4c-12.5,0.9-25,1.1-37.5,1.9
		c-25.9,1.7-51.8,4.4-77.7,5.2c-23.2,0.7-45.3,6.3-67.7,10.9c-7.8,1.6-15.1,5.7-22.6,8.9c-3.8,1.6-4.5,4.8-3.6,8.7
		c0.7,3.1,1.2,6.2,1.2,9.3c0,30.9-0.6,61.9-0.2,92.8c0.3,27,1.6,54.1,2.6,81.1c1.2,30.9-0.7,61.5-9.3,91.5
		c-7.2,25.2-6.8,50.9-2.7,76.5c4.4,27.4,10,54.5,14.1,81.9c1.6,11,0.7,22.3,1.1,33.5c0.3,8.9,0.7,17.8,1.3,26.7
		c0.1,2.1,1,4.2,1.9,6.1c1.8,3.9,4.7,6.3,9.4,6c4-0.2,8,0,12-0.2c16.4-0.5,32.8,0.3,49,2.9c3,0.5,6.1,0.5,9.2,0.5
		c16.8,0.3,33.6,0.3,50.4,0.9c5.7,0.2,11.5,1.2,16.8,2.9c16.1,5.1,32.7,6.1,49.3,6.6c16,0.5,32,0.4,48,1c6.8,0.3,13.4,2,20.2,2.5
		c5.2,0.4,10.4,0.2,15.5-0.1c1-0.1,2.7-1.8,2.7-2.8c-0.3-14.5-0.7-29-1.2-43.5c-0.2-5.1-0.5-10.1-0.9-15.2c-0.1-1.8-0.7-3.7-1-5.5
		c-0.8-4.2-2.9-6.2-7.7-6.1c-13.2,0.3-26.4,0.1-39.6-0.1c-18.9-0.3-37.8-0.9-56.7-1.1c-20.8-0.2-41.6,0-62.4,0.1
		c-3.6,0-7.2,0-10.8,0c-12.8-0.2-21.2-8.8-21.8-21.7c-0.6-14.6-1.1-29.3-2.6-43.9c-0.8-8.3-3.8-16.3-5.3-24.6
		c-2.1-11.4-3.9-22.8-5.5-34.3c-1.9-13.3-3.7-26.7-5.3-40c-0.5-4.4-0.9-8.8-0.9-13.2c-0.4-27.3-1.1-54.7-0.9-82
		c0.1-22.4,0.8-44.8,2.3-67.1c0.8-11.1,3.4-22.1,6.2-32.9c4.1-15.5,9.1-30.7,13.6-46c1.7-5.8,5.7-9.9,9.9-13.8
		c1.3-1.2,3.2-2.1,4.9-2.4c8.4-1.8,16.9-3.7,25.4-4.9c8.8-1.2,17.8-1.3,26.6-2.4c10.2-1.3,20.2-3.3,30.3-4.9c5-0.8,10-1.6,15-2.1
		c12.7-1.2,25.5-2.2,38.2-3.3c2.4-0.2,4.8-0.4,7.2-0.5c23.7-0.7,47.4-1.2,71.1-2.1c11-0.4,22-1.5,33.1-2.3c11.4-0.8,22.9-1,34.3-2.6
		c25.2-3.5,50.6-2.5,75.9-2.2c10.2,0.1,20.4,1.9,30.6,2.6c6,0.4,12,0.4,18,0.2c12.2-0.5,24.6,0.3,36.4-3.7
		C771.5,402.2,772.9,401.7,775.2,401z M394.1,924.3c-4.8-1.3-9.1-2.7-13.5-3.7c-6.6-1.5-13.3-2.7-19.9-3.9c-1.1-0.2-2.9,0-3.6,0.7
		c-7.5,8.1-15,16.3-22.3,24.5c-5.3,6-10.3,12.2-15.5,18.3c-0.5,0.6-1.5,0.6-2.3,0.9c-0.1-0.8-0.5-1.9-0.2-2.5c0.9-1.6,2-3.2,3.2-4.6
		c10.5-11.9,21.1-23.7,31.7-35.5c0.4-0.5,0.7-1,1.3-1.9c-1.1-0.1-1.7-0.2-2.3-0.2c-10.5-0.1-21.1,0-31.6-0.4c-4.3-0.2-7.8,1-10.8,4
		c-12.8,12.8-25.6,25.6-38.5,38.4c-1.4,1.4-3.2,2.5-4.8,3.7c0.9-2,1.3-4.5,2.8-6c9-9.7,18-19.3,27.3-28.7c3.7-3.8,7.9-7.1,12.4-11
		c-6.6-0.8-12.8-1.1-18.6-2.5c-9-2.2-16.2,0.6-22.6,6.6c-9.1,8.5-18.1,16.9-27.1,25.5c-6.7,6.4-13.3,13.1-20,19.5
		c-0.8,0.7-2.2,0.8-3.3,1.2c0.4-1.1,0.5-2.5,1.2-3.3c2-2.3,4.3-4.4,6.5-6.5c13.5-12.9,27-25.8,40.5-38.6c1.9-1.8,4.2-3.3,6.9-5.5
		c-10.1,0-19.2-0.1-28.4,0c-8.9,0.1-13.9-2.8-15.5-11.5c-1.6-8.6-2.5-17.5-2.1-26.2c0.9-19.7-0.6-39.1-4.2-58.4
		c-4.7-25.1-9.5-50.3-12.5-75.7c-2.5-20.5-1.6-41.2,3.9-61.5c6-22.1,10.4-44.4,9.7-67.4c-0.4-14.4-1.3-28.7-1.6-43.1
		c-0.5-24.7-0.7-49.3-0.8-74c-0.1-24.8-0.4-49.6,0.2-74.4c0.2-8.9-2.8-15.2-8.6-21.6c-8.8-9.8-16.7-20.4-24.8-30.8
		c-3-3.8-2.9-9.8-0.3-12.4c0.4,0.7,1,1.4,1,2c-0.6,5.9,2.7,10.1,6,14.3c2.7,3.5,5.1,7.2,7.9,10.5c5.2,6.3,10.7,12.4,15.4,17.8
		c2.5-2.8,4.3-5.9,6.9-7.2c7.2-3.6,14.6-7.5,22.4-9.3c26-5.9,52.1-11,78.9-12c20.4-0.7,40.7-2.5,61-3.9c27.1-1.8,54.2-3.7,81.4-5.5
		c30-2,60.1-3.8,90.1-5.8c12.6-0.8,25.2-2,37.9-2.8c3.2-0.2,4.2-1.5,3.9-4.4c-1.2-12.7-2.3-25.4-3.7-38.2
		c-1.1-10.3-3.2-20.6-3.6-30.9c-0.7-18.4-3.3-36.4-8.3-54c-4-13.9-5.1-28-5.1-42.3c0-1.2,0.1-2.5,0.7-3.5
		c6-10.1,12.6-20.2,23.6-24.8c12.8-5.3,26.3-10.1,39.9-12.3c21.5-3.5,43.4-4.9,65.1-6.6c29.7-2.4,59.6-3.7,89.3-6.6
		c34.7-3.4,69.3-8.3,104-12.3c19.5-2.3,38.9-4.2,58.4-6.1c11.8-1.1,23.7-1.7,35.5-2.6c25.4-2,50.7-4.2,76.1-6.1
		c13.6-1,27.2-1.3,40.7-2.3c15.7-1.1,31.3-2.7,46.9-4.1c4-0.4,5.7,1.5,6,5.2c0.1,1.6,0.3,3.2,0.2,4.8c-0.2,9.6-0.4,19.1-0.8,28.7
		c-0.1,3.3,1,5.8,3.4,8.1c11.9,11.1,22.3,23.7,36.1,32.7c0.6,0.4,0.8,1.5,1.2,2.2c-0.9,0.1-2.1,0.7-2.7,0.4
		c-2.7-1.6-5.6-3.3-7.9-5.4c-8.7-8.1-17.2-16.3-25.8-24.5c-1-1-2.1-1.9-3.6-3.3c0.5,12.1,0,23.6,1.5,34.9
		c2.6,18.8,4.8,37.5,4.5,56.5c-0.2,12-0.2,24-0.3,36c0,7.6,1.5,9.9,8.5,12.5c2.4,0.9,4.8,1.9,7.3,2c16.2,0.5,32.5,1.4,48.7,0.9
		c19.8-0.6,39.6-2.7,59.4-3.7c3.6-0.2,7.8,0.8,10.8,2.7c23.5,14.2,44.5,31.6,65.7,48.9c1,0.8,1.8,2,2.8,3.1c-0.8,0.5-1.3,1-1.4,0.9
		c-23.5-15.9-43.4-36.8-69.1-49.8c0.1,0.5,0.3,1.3,0.5,2c3.6,10.6,7.3,21.2,7.3,32.6c0,5.8,2.7,10.3,6.6,13.7
		c6.6,5.8,13.9,10.7,20.8,16.1c7.1,5.6,14.2,11.3,21.2,17c0.7,0.6,0.8,1.9,1.1,2.9c-1.1-0.2-2.3-0.1-3.1-0.7
		c-2.7-1.9-5.2-4.2-7.8-6.2c-12.7-9.8-25.4-19.6-37.7-29.1c0,14.5,0.2,29.2-0.1,44c-0.2,7.1,2.9,11.1,10.7,11.6
		c9.3,0.6,18.6,0.2,27.9-0.4c9.3-0.7,18.5-2.7,27.8-3.3c4.6-0.3,7.5-2.1,8.7-6.1c2.1-7.5,4.3-15.1,5.4-22.8c2.3-15-1-30-1.5-45
		c-0.9-30.3-3.5-60.3-9.4-90.1c-1.1-5.7-3.2-7.8-8.7-8c-16.2-0.6-32.5-1.2-48.7-1.6c-35.8-0.8-71.4,1.2-107,5
		c-1.4,0.1-2.9-0.6-4.4-1c0.8-1.2,1.5-2.5,2.5-3.6c0.7-0.8,1.8-1.2,2.6-1.9c6-5.5,10.1-11.6,7-20.4c-2.4-7-4-14.4-6.3-21.5
		c-4.8-14.7-8.4-29.5-7.6-45.1c0.3-6.4,1.5-12.7,1.5-19.1c0-18.7-0.3-37.3-0.4-56c0-4.2-1.9-6.5-6-7c-10.3-1.3-20.6-3.1-30.9-3.9
		c-11.4-0.9-22.9-0.5-34.3-1.5c-29.1-2.3-58.1-0.6-87,1.8c-25.4,2-50.7,4.2-76.1,6c-22.9,1.6-45.8,2.6-68.6,4.3
		c-28.8,2.1-57.6,4.9-86.5,6.7c-35.2,2.3-70.6,2.6-105.7,7.4c-25.1,3.4-50.2,6.6-75.2,10.2c-16.7,2.4-33.4,5.4-50.1,7.7
		c-6.8,0.9-13.8,0.4-20.7,1c-10.7,1-21.4,2.5-32.2,3.4c-4,0.3-6.6,1.9-8.1,5.3c-1,2.3-2,4.7-2.6,7.1c-4.2,17.4-8.4,34.7-12.3,52.1
		c-5.7,25.1-7.5,50.5-6.7,76.2c0.7,20.7,0.6,41.3,1,62c0.1,3.9-1.2,5.8-5.1,5.9c-2.8,0.1-5.6,0.4-8.4,0.2c-3.2-0.2-5.5,0.9-7.6,3.4
		c-12.7,15.5-25.4,30.9-38.2,46.2c-1.3,1.5-3.1,2.6-4.7,3.9c0.8-2.1,1.3-4.5,2.6-6.1c11.3-13.9,22.7-27.6,34.1-41.4
		c1.4-1.7,2.8-3.4,4.6-5.6c-1.4-0.1-2.1-0.3-2.7-0.2c-8,0.5-15.9,1.1-23.9,1.5c-12.6,0.7-25.4,0.6-37.9,2.3
		c-17.5,2.3-34.9,4.4-52.5,4.7c-15.6,0.3-16,0-25.8,12.3c-10.2,12.8-19.6,26.3-29.3,39.4c-0.7,1-2.1,1.5-3.2,2.2
		c0.2-1.3,0-2.9,0.6-3.9c2.1-3.4,4.4-6.7,6.8-9.9c8.9-11.6,17.9-23.2,26.9-34.8c1.3-1.6,2.8-3,5-5.2c-2.1,0-3.2,0-4.4,0
		c-22.3,0.2-44.5,0.2-66.8,0.8c-10.1,0.3-20.3,1.1-30.1,3.2c-17.1,3.8-33.9,8.4-51.6,7.5c-3.5-0.2-5.5,2.4-6.8,5.3
		c-1.7,3.8-3.4,7.5-4.7,11.5c-4.4,13.8-9.6,27.4-9.5,42.3c0.1,16,0.1,31.9-2,47.9c-1.3,9.7-0.6,19.7-1,29.5
		c-0.7,16.2-1.6,32.4-2.1,48.7c-0.1,2.6,1.2,5.8,3,7.8c4.1,4.8,9.2,8.9,13.4,13.7c7.2,8.2,14.2,16.6,21.2,25
		c0.5,0.6,0.3,1.8,0.5,2.8c-0.9-0.3-2.1-0.2-2.7-0.8c-1.6-1.6-3.1-3.4-4.3-5.2c-8.4-12.6-20-22.3-30.9-33.3
		c-0.2,1.1-0.3,1.7-0.4,2.3c-0.8,25.4-1.6,50.9-2.5,76.3c-0.4,11.2-1.1,22.3-1.5,33.5c-1.1,29.4-2.5,58.8,1.6,88.1
		c1.3,9.4,0.5,19.1,1,28.7c0.2,2.7,1.3,5.8,3,7.8c4.3,5.1,9.1,9.7,13.7,14.5c6.5,6.9,13,13.7,19.4,20.7c0.7,0.8,0.6,2.3,0.9,3.4
		c-1.1-0.5-2.5-0.7-3.2-1.4c-10.7-11.1-21.3-22.4-32-33.5c-0.4-0.4-1-0.6-1-0.6c-1.5,10.8-3.1,21.6-4.6,32.4c-0.1,1,0.2,2.5,0.9,3.1
		c19.2,16.9,34.3,37.6,51.2,56.6c0.6,0.7,0.6,2,0.9,3.1c-1-0.3-2.4-0.3-3-0.9c-3.6-3.9-7-8-10.6-12c-12.2-13.6-24.4-27.1-36.7-40.7
		c-0.9-1-2-1.9-3.9-3.6c-1.1,10.3-2.2,19.5-3.2,28.7c-1.1,10.9-2.5,21.7-3,32.6c-0.6,13,0,26.1-0.5,39.2
		c-0.8,18.1-2.2,36.1-3.2,54.1c-0.3,6.5,0.1,13.1,0.1,19.6c0.1,5.2,0.7,5.8,5.8,6.6c12.7,2.2,25.4,4.5,38.1,6.8
		c2.6,0.5,5.3,1,7.9,0.7c26.5-2.1,52.7,2.1,79,3.4c10.8,0.5,21.5,3.2,32.2,3.1c26.6-0.3,53.3-1.4,79.9-2.6
		c19.2-0.8,38.3-2.8,57.5-3.3c17.7-0.5,35.5,0.2,53.2,0.7c9.7,0.3,19.4,1.7,29.1,1.6c41.1-0.2,82.1-0.9,123.2-0.9
		c13.2,0,26.4,1.1,39.4,2.7c27.8,3.4,55.6,3.3,83.4,1.6c17.7-1.1,35.3-2.6,53-3.6c13.3-0.7,26.6-0.7,40-1.3c25-1.1,50-2.4,75-3.7
		c3.7-0.2,7.3-0.7,11.6-1.1c-0.4-14.8-0.8-29.3-1.3-43.8c-0.1-1.8-0.9-3.6-1.3-5.4c-0.6-2.5-1.9-3.7-4.7-3.8
		c-22.2-0.3-44.5-1-66.7-0.9c-11.3,0.1-22.5,1.9-33.8,2.5c-19.7,1-39.4,1.8-59.1,2.4c-11.2,0.3-22.4,0.1-33.5,0.1
		c-0.3,2.3-0.6,3.6-1.4,4.5c-9.4,10.7-18.9,21.4-28.4,32c-0.5,0.6-1.6,0.6-2.3,0.9c0-0.9-0.4-2.1,0-2.8c1.2-1.9,2.6-3.7,4.1-5.4
		c8-8.9,16.1-17.8,24.1-26.7c0.4-0.4,0.6-1,0.6-1c-19.9-0.8-39.7-2.1-59.5-2.3c-22.9-0.2-45.9,0.4-68.8,0.8c-1.7,0-4,1-5.1,2.3
		c-10.8,12.8-21.5,25.8-32.2,38.8c-1.3,1.5-2.9,2.8-4.4,4.2c0.7-2.1,0.9-4.6,2.2-6.3c6.6-8.5,13.5-16.8,20.4-25.2
		c3.6-4.4,7.3-8.7,11.6-13.8c-2.2,0-3.5,0-4.8,0c-4.9,0-9.9,0.1-14.8-0.2c-11.6-0.6-18.3-5.7-21.1-16.9c-1.1-4.6-1.5-9.5-1.6-14.2
		c-0.4-18-0.8-36-0.6-53.9c0.1-5.4,3-10.5,8.2-12.9c3.3-1.5,7.2-2,10.9-2.2c14.4-0.7,28.8-1.2,43.1-1.5c14.8-0.4,29.6-0.5,44.4-0.6
		c12.9-0.1,25.9,0,38.8,0.3c18.4,0.4,36.8,1.8,55.1,1.6c25.7-0.3,51.4-1.9,77.1-2.7c31.2-1,62.4-1.5,93.5-2.8
		c29.2-1.2,58.3-3.1,87.4-4.7c34.6-1.9,69.2-4,103.8-5.5c6.4-0.3,11-1.3,15.2-6.7c7.6-9.8,16.2-18.8,24.4-28
		c1.2-1.3,2.8-2.3,4.3-3.4c-0.6,1.8-0.8,4-1.9,5.3c-8,9.3-16.1,18.5-24.2,27.7c-1.1,1.2-2.1,2.5-3.1,3.8c0.2,0.5,0.4,0.9,0.5,1.4
		c9.9-1,19.8-1.9,29.6-3.2c3.7-0.5,5.8-2.8,5.4-7c-0.3-4.1,0-8.3-0.3-12.4c-0.4-5.2-1-10.3-1.8-15.4c-0.3-2.4-1.9-3.5-4.5-3.5
		c-9.2-0.2-18.4-0.9-27.6-0.8c-62,0.7-124,1.8-186,2.3c-7.3,0.1-12.4,1.5-17.1,7.6c-9.6,12.4-20.2,24.1-30.4,36
		c-0.5,0.6-1.4,0.9-2.7,1.6c-0.3-4.6,2.3-7,4.4-9.5c9.1-10.5,18.3-20.8,27.5-31.2c1-1.1,1.8-2.3,3.1-4c-2.3,0-3.6,0-4.9,0
		c-19.2,0.2-38.4,0.4-57.6,0.5c-5.2,0-6-0.9-6.1-6.1c-0.3-26-0.6-52-1-78c-0.2-14.3-1.4-28.5-6.1-42.1c-3.4-9.7-5-19.8-5.3-30.2
		c-0.3-8-2.4-16-3.5-24c-0.9-6.3-1.8-12.6-2.5-18.9c-0.4-3.6-0.5-7.2-0.7-10.8c-0.2-3-1.6-5-4.9-5.3c-5-0.5-10-1.2-15-1.8
		c-8.2-0.9-16.3-2-24.5-2.7c-6-0.5-12-0.2-18-0.5c-15.2-0.8-30.3-2.4-45.5-2.6c-20.8-0.3-41.6,0.4-62.4,0.7c-1.6,0-3.7,0.4-4.8,1.5
		c-11.9,10.9-23.6,22-35.4,32.9c-1.4,1.3-3.1,2.2-4.6,3.3c0.8-1.8,1.1-4.1,2.4-5.4c9.9-9.7,20-19.2,30-28.8c1-0.9,2-1.8,3.6-3.2
		c-3.3,0-5.5,0.1-7.8,0c-28-0.7-56-1.4-83.9-2.3c-9.8-0.3-19.7-0.9-29.5-2c-18.4-2.1-36.8-1.2-55.1-0.6c-9.6,0.3-11.9,3.8-12.1,13.5
		c-0.2,7.8-1.2,15.6-1.6,23.5c-0.2,4-0.3,8,0.2,11.9c0.8,6,4.3,8.7,10.4,8.9c3.2,0.1,6.4,0.2,9.6,0.4c12.6,0.9,25.2,2,37.9,2.7
		c24.5,1.4,49,2.6,73.5,3.7c32.1,1.4,64.2,2.9,96.3,3.6c21.3,0.5,42.7-0.5,64-0.5c4.8,0,9.7,1.2,14.4,2.5c3.9,1,5.4,3.9,5.5,8.2
		c0.2,27.2,0.4,54.4,1,81.6c0.4,20.8,1.4,41.6,2.3,62.3c0.1,2.8,1.1,5.8,2.3,8.4c2.8,6.1,1.8,8-5,8c-10.4-0.1-20.8-0.3-31.2-0.4
		c-1.2,0-2.7,0.3-3.5,1.1c-8.4,7.9-16.8,16-25.2,23.9c-0.6,0.5-1.6,0.5-2.4,0.7c0.1-0.9-0.3-2.2,0.2-2.7c2.1-2.4,4.5-4.6,6.8-6.8
		c5.5-5.2,11-10.3,16.6-15.5c-0.7-0.4-0.9-0.6-1.1-0.6c-17.1,0.2-34.1,0.4-51.2,0.7c-1.1,0-2.5,0.5-3.2,1.2
		c-9.2,9-18.3,18.2-27.5,27.3c-0.7,0.7-1.8,1.1-2.8,1.6c0-1.1-0.3-2.5,0.2-3.1c2.3-2.9,4.9-5.6,7.4-8.4c5.7-6.3,11.3-12.6,16.7-18.6
		c-3.3,0-7.7,0.1-12.2,0c-13.2-0.5-26.3-1.1-39.5-1.6c-1.2,0-2.8,0.3-3.5,1c-4.6,4.6-9.1,9.4-13.5,14.1c-6.3,6.7-12.6,13.3-19,19.9
		c-0.6,0.6-1.7,0.7-2.6,1.1c0.1-1-0.1-2,0.2-2.9c0.5-1.1,1.3-2,2.1-2.9c4.7-4.9,9.5-9.7,14.2-14.6c4.9-5,9.7-10,14.8-15.2
		c-38.6,0-76.5,0-113.7,0c-1.7,2.5-2.7,4.4-4,6c-7.6,9.1-15.3,18.1-22.9,27.2c-3.7,4.4-7.1,9-10.8,13.3c-0.5,0.7-1.7,0.8-2.6,1.2
		c0-1-0.3-2.1,0.1-2.8c1-1.7,2.2-3.4,3.4-4.9c10-11.9,20.1-23.8,30.2-35.7c0.8-0.9,1.5-2,2.9-3.9c-15.5,0.8-29.9,1.6-44.2,2.4
		c-0.6,0-1.3,0.4-1.7,0.8c-7.1,6.6-14.5,12.9-21.3,19.9c-7.3,7.4-14,15.4-21,23c-0.7,0.7-1.9,1-2.9,1.4c0.1-1,0-2.2,0.4-3.1
		c0.5-1.1,1.3-2,2.1-2.9c10.2-10.5,20.5-21,30.8-31.4c2.3-2.3,4.8-4.4,8-7.2c-2.3,0-3.6,0-4.9,0c-12.5,0.3-25.1,0.7-37.6,0.9
		c-8.1,0.1-16.3,0-24.4,0.2c-1.5,0-3.7,0.6-4.5,1.7c-9.3,12.5-18.4,25.1-27.7,37.7c-1.1,1.6-2.6,2.9-4,4.3c0.5-2.1,0.4-4.6,1.6-6.3
		c7.9-11.3,16-22.3,24-33.4c0.8-1.1,1.7-2.2,2.9-3.8c-1.9-0.1-3.1-0.2-4.2-0.3c-10-0.4-20-1-29.5-4.4c-6.5-2.3-12.7-4.9-15.3-12.2
		c-0.3-0.8-1.2-1.4-2-1.8c-16.5-10.4-30.5-23.7-43.5-38.1c-2.6-2.9-5-5.9-7.4-9c-0.4-0.6-0.2-1.6-0.3-2.5c0.8,0.1,1.9-0.1,2.4,0.4
		c1.4,1.2,2.5,2.7,3.7,4.2c11.9,14.5,25.5,27.3,40.6,38.3c1.8,1.3,3.7,2.4,6,3.8c0.1-1.9,0.2-3.1,0.2-4.2
		c-0.8-36-0.6-71.9-2.9-107.9c-2-32-1.7-64.2-1.8-96.3c0-9.2,1.6-18.6,3.6-27.7c3-13.3,5.7-26.5,5.1-40.3c-0.2-3.6,0.2-7.2,1-10.7
		c0.5-2.1,2.1-4.9,3.8-5.5c7.9-2.8,16-6.3,24.3-7c15.9-1.3,32-0.7,48-1.3c31.4-1.1,62.8-2.7,94.3-3.6c26.8-0.7,53.6-0.4,80.4-1.1
		c37.2-0.9,74.3,1.4,111.4,4.6c14.6,1.3,29.3,0.9,43.9,1.4c3.2,0.1,4.1-1.2,3.9-4.3c-0.4-6.9,0.1-13.9-0.7-20.8
		c-1.4-12.2-3.4-24.4-5.2-37.1c-5.2,1.1-9.5,2.5-14,2.9c-19.4,1.5-38.9,2.1-58.3-0.3c-21.1-2.6-42.3-1.8-62.2-1.3
		c-2.2,1.7-3.4,2.7-4.7,3.6c-1.6,1.1-3.4,2.1-5,3.3c-12.3,9.7-22.9,21.1-32.4,33.5c-0.7,0.9-2,1.3-3,1.9c0.1-1.2,0.1-2.4,0.4-3.5
		c0.3-0.9,0.9-1.6,1.5-2.3c6-6.8,11.8-13.8,18.2-20.2c5.7-5.7,12-10.7,18.4-16.4c-2.9,0.2-5.5,0.3-8.1,0.5c-10.7,1-21.5,2-32.2,3.1
		c-4.3,0.4-8.8-0.5-12.5,3c-3,2.9-7.2,4.6-9.9,7.7c-7.9,8.7-15.3,17.8-23,26.6c-1.2,1.3-2.9,2.2-4.3,3.2c0.7-1.8,1-4,2.2-5.4
		c7.3-8.8,14.8-17.5,22.3-26.1c2.2-2.5,4.6-4.8,6.5-6.8c-15.7,0.7-31.5,1.3-47.4,2c-0.4,0.9-0.8,2.2-1.6,3.1
		c-3.6,4.4-7.4,8.7-11,13.2c-5.3,6.5-10.4,13.1-15.7,19.7c-0.6,0.7-1.7,1-2.5,1.4c0-1-0.4-2.3,0-3.1c1-1.8,2.4-3.5,3.8-5.1
		c7.8-9.7,15.7-19.4,24-29.6c-18.4,0.7-36.2,1.4-53.6,2c-0.7,1.4-1,2.7-1.8,3.6c-6.5,6.9-13.1,13.7-19.7,20.4
		c-3.9,4-8,7.9-12.1,11.7c-0.6,0.6-1.8,0.5-2.7,0.8c0.1-0.9-0.1-2.1,0.4-2.8c1.1-1.5,2.6-2.7,3.9-4c9.4-9.5,18.8-19.1,28.9-29.3
		c-1.7,0-2.3,0-3,0c-12.5,1-24.9,2-37.4,3.2c-4.5,0.4-9,1.1-13.4,1.7c-12.1,1.8-24.1,4.3-36.3,5.3c-11,0.9-22,1.4-32.6,5.2
		c-2.7,1-5.8,1.7-8.6,1.5c-6.8-0.5-11,3.1-14.5,8.1c-1.5,2.1-2.8,4.6-3.6,7.1c-2.6,7.4-5,14.9-7.2,22.5c-0.4,1.2,0,3.1,0.8,4.2
		c2.9,4.6,6.4,8.9,9.2,13.6c6.2,10.6,13.4,20.2,22.9,28c0.9,0.7,1.4,1.9,2.1,2.9c-0.3,0.4-0.6,0.8-1,1.2c-1.3-0.8-2.8-1.4-3.9-2.3
		c-9-7.4-15.9-16.4-21.8-26.4c-2.9-4.9-6.1-9.6-9.4-14.6c-0.7,0.9-1,1.2-1.1,1.5c-5.4,17.9-10.3,35.9-11,54.7
		c-0.6,15-1.5,30.1-1.3,45.2c0.6,43-2.3,86.1,4.5,128.9c2.1,13.4,2.9,27,5,40.4c1.5,9.2,4.3,18.1,6.3,27.2
		c3.9,17.3,4.2,34.9,4.6,52.5c0.4,15,6.9,21.7,22,21.6c11.5,0,22.9-0.6,34.4-0.5c32.4,0.3,64.7,0.9,97.1,1.3
		c12.2,0.1,24.5,0.2,36.7,0.1c3.8,0,6.2,1.6,7.4,4.9c1.2,3.4,2.3,6.9,2.4,10.4c0.8,19.6,1.3,39.2,2,58.7c0.1,3.9-1.6,5.3-5.2,5.4
		c-4.7,0.1-9.4,0.5-14,0.1c-10.6-0.9-21.2-2.8-31.8-3.3c-19-0.9-38.1-0.4-57.1-1.8c-8.2-0.6-13.5,1.7-18.5,7.6
		c-6.2,7.3-12.9,14.2-19.5,21.2c-0.7,0.7-1.9,0.8-2.9,1.3c0.2-1.1,0-2.3,0.6-3.1c1.2-1.7,2.7-3.3,4.2-4.8
		C379.7,939.6,386.8,932.1,394.1,924.3z"/>
	<path d="M1136.9,855.2c2-0.4,4-1.1,6-1.3c4.9-0.5,10.2,0.3,14.6-1.4c8.9-3.4,17.7-7.4,25.8-12.4c6.4-3.9,12.2-9.1,17.5-14.5
		c3.7-3.8,6.9-8.5,9-13.4c4.4-10.5,8.3-21.4,11.9-32.2c6.4-19.5-0.1-35.7-14-49.3c-13.4-13.1-29.7-19.2-48.5-19
		c-21.6,0.2-43.2,0.6-64.8-0.3c-26.1-1.1-52.4-2.1-77.6-9.6c-22.9-6.8-43.5-18.1-57.8-39c-10.1-14.9-17.9-30.6-22.7-47.7
		c-2.1-7.5-3.1-15.4-4.8-23.1c-0.6-2.6-1.4-5.2-2.7-7.4c-15.3-24.5-34.1-45.5-61.3-57c-19.9-8.4-40-16.1-60.1-23.9
		c-1.5-0.6-4.2-0.3-5.4,0.6c-19.7,15.5-43.2,22.3-66.5,29.2c-7.8,2.3-15.7,4.8-23.7,5.6c-31.3,3.3-61.8,1.4-89.8-15.2
		c-9.6-5.7-19.5-11-29.3-16.4c-1.3-0.7-3.1-1-4.5-0.7c-31.4,7.4-62.8,14.5-94,22.6c-26.3,6.8-47.5,21.9-64.1,43.4
		c-9.2,12-8.9,15.7,2,26c10.6,10.1,22.3,18.3,36.6,22.9c17.8,5.7,32.6,16,44.2,31c6.5,8.4,7.4,17.8,5.2,27.7
		c-0.6,2.7-2.5,5.3-4.4,7.4c-6.4,6.9-14.9,10-23.6,12.8c-6.1,1.9-12.2,3.8-18.3,5.8c-2,0.7-3.8,1.8-5.6,2.6c0.1,0.6,0,1,0.2,1.1
		c22.6,17.8,46.9,32.4,74.9,40.1c2.6,0.7,5.9,0.6,8.5-0.3c11.6-3.7,23.5-5.5,35.7-6.4c9.6-0.7,19.1-3,28.7-5.2
		c-10-8.5-15.2-19.7-20.9-30.5c-5.8-11.2-8.9-23-8.1-35.8c1.4-23.8,16.3-37,40.1-35.3c2.8,0.2,5.6,0.7,8.3,0.9
		c22.1,2.2,34.3,16.5,43,35.1c1,2,1.8,4.1,2.7,6.1c0.4,0,0.8,0.2,0.9,0.1c5.6-6.1,12.7-5.5,19.7-4.2c13.5,2.6,24.6,9.8,33.3,20.1
		c12.4,14.8,7.8,36.9-9,47.5c-10.2,6.4-21.6,8.7-33.1,11.2c-18.4,4-36.3,2.2-54.1-2.7c-1.8-0.5-3.9-0.2-5.8,0.1
		c-13.9,2.6-27.6,5.8-41.6,7.7c-13.3,1.8-26.6-0.6-39.7-2.9c-2.7-0.5-5.9-0.3-8.5,0.7c-6.8,2.6-13.4,5.9-20.2,8.7
		c-13,5.3-26.6,8.2-40.6,6.8c-15-1.5-26.7-9.1-34.5-21.9c-5.3-8.7-4.2-18.1,1-26.6c3.3-5.2,7.6-9.8,11.7-14.8
		c-11.4-9-20.9-20.5-29.9-32.4c-8.9-11.9-13.3-25.2-13.8-39.8c-0.5-15.3-1.3-30.7,3.6-45.6c0.4-1.3-0.4-3.3-1.2-4.7
		c-5.6-9.2-10.1-19-11.2-29.7c-1.9-18.9,6.1-34.1,20-46.2c17.3-15,37.8-23,60.3-26.4c35.9-5.4,69.6,2.2,102,17.4
		c1.8,0.9,4.4,1,6.4,0.6c11.1-2.3,22.1-5,33.2-7.2c4.5-0.9,9.3-1.1,13.9-1.2c24.4-0.4,48.8-0.6,73.2-1.1c12.3-0.2,24.5-1,36.7-1.4
		c16.4-0.6,32.5,1.6,48,7c2.8,1,4.7,0.5,6.8-1.5c8.9-8.4,14-19,18.3-30.2c11.5-30.3-5.9-65.8-37.2-77.8c-13.2-5.1-26.9-6.2-40.8-7
		c-21.6-1.2-43.1,1-64.7,2.7c-13,1-26,2.5-39.1,2.6c-21.9,0-43.6,2.8-65.3,5.3c-12.1,1.4-24.5,1.2-36.7,1.9
		c-14.9,0.9-29.8,2.2-44.6,3.1c-6.6,0.4-13.3,0.8-20,0.7c-22-0.1-43.5,3.8-65.1,7c-16.4,2.5-33,4.3-49.4,7.3
		c-10.4,1.9-20.6,5.6-30.9,8c-18.2,4.2-34.8,12.4-49.8,22.9c-13.9,9.8-22.5,23.9-23.1,41.5c-0.4,10.2,0.5,20.5,0.6,30.8
		c0,4.2-0.5,8.4-0.8,13.3c2.9,0,5.4-0.2,7.8,0.1c1.2,0.1,2.6,0.9,3.2,1.8c0.3,0.5-0.6,2.1-1.2,3c-3,4.2-6.1,8.4-9.2,12.5
		c-0.5,0.7-1.3,1.6-2,1.6c-0.6,0-1.5-1-1.9-1.7c-3-5.6-6.1-11.2-8.9-16.9c-0.5-0.9-0.1-2.3-0.2-3.4c1,0.6,2,1.2,3,1.8
		c1.7,0.9,3.5,1.8,5.8,2.9c1.9-12.8,2.1-24.5,0.6-35.9c-3.1-23.6,13-49.5,30.6-57.6c9.3-4.3,17.8-10.5,27.4-13.8
		c15.8-5.5,32-10.2,48.4-13.5c20.5-4.1,41.3-6.3,61.9-9.6c23.6-3.8,47.4-4.8,71.2-5.7c25.2-0.9,50.3-2.4,75.4-4.1
		c11.3-0.8,22.5-2.9,33.7-4.1c8.7-0.9,17.5-1.4,26.3-1.9c25.4-1.6,50.8-3.6,76.2-4.7c17.3-0.7,34.6-0.5,51.9,0.2
		c8.5,0.4,17.2,2.1,25.4,4.5c24.3,7.3,39.7,23.7,46.3,48.1c2.7,10.1,2.6,20.4-0.4,30.4c-4.8,15.9-9.1,23-21.7,37.7
		c1.4,0.6,2.6,1.2,3.9,1.6c14.3,5.4,28.7,10.7,43,16.4c17,6.8,33.3,15.3,46.8,27.9c7.9,7.4,14,16.7,21.4,24.6
		c10.1,10.6,12.7,23.9,15.1,37.5c1,5.6,2.9,11.1,4.6,16.5c5.3,17.1,14.8,31.9,26.1,45.5c4.1,4.9,9.4,9.1,14.8,12.7
		c17.3,11.6,36.4,18.5,57.2,20.9c29.4,3.4,58.8,5.9,88.5,5c12.5-0.4,25.1-0.2,37.6,0.5c22.4,1.4,40.1,12,52.2,30.5
		c7.9,12.1,11.3,25.9,6,40.4c-4.6,12.5-9,25.1-13.9,37.5c-1.3,3.2-3.6,6.3-6.2,8.7c-13,12.3-26.6,24.2-44.5,28.8
		c-7,1.8-14.5,1.6-21.8,2.2c-0.5,0-1.1-0.5-1.6-0.8C1137,856,1136.9,855.6,1136.9,855.2z M421.3,592.6c-0.3,1-0.7,1.7-0.8,2.5
		c-4.2,18.9-4.9,38,0,56.6c6.1,23,22.7,39,40,54c0.7,0.6,2.5,0.7,3.6,0.3c8.7-2.9,17.3-6.1,26-9.1c7.7-2.7,15.4-5.4,21.1-11.6
		c1.7-1.9,3.5-4.3,3.9-6.8c1.4-8.6,0.9-16.8-4.9-24.2c-11.3-14.4-25.6-24.4-42.9-29.9c-11.3-3.6-21.1-9.5-30-17
		C431.8,602.9,426.8,597.8,421.3,592.6z M420.3,584.3c1.1-2.4,1.8-4.4,2.8-6.2c1-2,2-4.1,3.4-5.9c16.7-22.2,38.2-38.1,65-45.4
		c25.7-7,51.8-12.4,77.7-18.5c5.5-1.3,10.9-2.8,16.3-4.2c-1.9-1.9-3.8-3-5.7-3.8c-6.2-2.3-12.5-4.8-18.8-6.7
		c-22.7-7.1-45.8-10.7-69.7-7.6c-22.8,3-44,10.1-61.7,25.1C405.1,531.9,402.7,557.4,420.3,584.3z M587.5,675.3
		c2,22.6,11.5,41.8,27,58.3c0.5,0.6,1.1,1.3,1.8,1.5c1.5,0.4,3.4,1.2,4.7,0.7c13.3-5.4,26.7-10.7,38.2-19.7c5.5-4.3,9-9.6,10.7-16.3
		c1.3-5.1,3-10.2,5.2-15c1.1-2.5,1.5-4.4,0.2-6.7c-3.1-5.7-5.9-11.7-9.3-17.2c-6.6-10.5-15.9-17.4-28.4-19.5c-3-0.5-6-1.3-9-1.5
		c-26.6-2-34.8,7.3-39.5,24.4C588.2,667.8,588,671.4,587.5,675.3z M799.9,502.3c-0.2-0.5-0.4-1-0.5-1.4c-11.3-3.7-22.7-6.7-34.6-6.7
		c-12.1,0-24.2,0.5-36.3,0.8c-29.2,0.5-58.3,1.1-87.5,1.5c-15.4,0.2-30.1,4.5-45.5,8.6c1.6,1.1,2.6,2,3.7,2.6
		c9.5,5.2,19,10.3,28.4,15.5c26.8,14.8,55.8,16.7,85,12.4c23.5-3.4,45.9-11.5,67.5-21.5C786.9,510.7,793.3,506.2,799.9,502.3z
		 M639.4,747.8c1.8,0.5,2.8,0.9,3.8,1.1c16.8,4.3,33.7,4.4,50.6,0.5c10.2-2.3,20.3-4.7,29.1-10.6c14.8-9.8,18.3-30.1,7-42.9
		c-6.4-7.2-14.1-13.3-23.5-16.1c-5.4-1.6-11.2-2.3-16.8-2.7c-5.6-0.3-9.2,4.6-8.5,10c0.5,4.3,0.9,8.8,0.7,13.1
		c-0.4,8.8-2.1,17.3-8,24.2c-6.3,7.3-13.6,13.5-22.4,17.8C647.8,744.2,644.1,745.8,639.4,747.8z M539,753.1
		c-5.4-2-10.1-3.5-14.6-5.3c-21.5-8.4-40.9-20.5-59.1-34.6c-2.5-2-4.5-2.1-6.4,0.3c-3.5,4.3-7.6,8.3-10.3,13.1
		c-3.8,7-4.3,14.8,0.1,21.8c6.8,11,16.9,18,29.6,19.8C500.1,771.3,519.4,762.9,539,753.1z M678.5,687.7c-0.5-0.1-1.1-0.2-1.6-0.3
		c-1.3,4.4-2.8,8.8-3.9,13.3c-1.8,7.6-5.6,13.9-12.1,18.1c-7.2,4.7-14.8,9-22.4,13c-5.2,2.8-10.7,4.9-17,7.7c4,2.2,7.2,4.1,10.5,5.6
		c1.3,0.6,3.1,0.5,4.5,0.1c12.9-4.1,24.3-10.8,33.5-20.9C679.8,713.6,679.3,700.7,678.5,687.7z M628.7,747.5
		c-3.5-2.2-6.6-4.3-9.8-6.2c-0.8-0.5-2.1-0.7-3-0.5c-14.7,4.3-29.8,5.4-44.9,6.9c-6.1,0.6-12,2.5-18,3.8
		C570.5,758.1,610.1,755.6,628.7,747.5z"/>
	<path d="M1033.1,1010.1c0.3-1.7,0.9-3.3,0.9-5c0-1.3-0.1-3.3-0.9-3.8c-5.5-3.8-7.5-9-7.2-15.5c0.4-10.2,0.6-20.5,1-30.7
		c0.2-5.7,1.3-10.9,7.4-13.7c3.4-1.6,6.2-4.9,9.7-5.9c5.6-1.5,11.5-2.1,17.3-2.3c20.1-0.5,40.3-1.1,60.4-0.7
		c20.1,0.4,40.3,0.7,60.1,4.6c9,1.8,17.8,4.7,26.7,6.6c4.4,1,9,1.2,13.5,1.4c3.8,0.2,7.8,0.6,10.4-3.4c0.3-0.5,1.4-0.5,2.4-0.8
		c0,1.4,0,2.5,0,3.7c0.4,0.1,0.8,0.3,1.1,0.2c6.2-0.4,12.4-1.1,16.8-6c1.2-1.3,2.2-3.5,2-5.2c-2.7-31.9-2.1-63.9-1.5-95.9
		c0.3-15.3,0.1-30.7,0.6-46c0.8-21.6,0.7-43.3,3.5-64.6c3.5-26.7,2.4-53.2,1.5-79.8c-0.5-14.9-0.2-29.9-1.1-44.8
		c-1-17-3.3-33.9-4.5-50.9c-0.9-12.2-5-23.4-8.5-34.9c-3.3-10.8-7.8-14.2-19.2-14.1c-28,0.4-56,0.9-84,1.4
		c-48.4,0.9-96.8,1.6-145.1,2.7c-23.7,0.5-47.4,1.7-71.1,2.2c-5.7,0.1-11.4-0.9-17-1.8c-6.5-1.1-9.3-4.8-9.4-11.9
		c-0.4-25.9-0.4-51.7-1.2-77.6c-0.4-13.2-1.2-26.4-3.4-39.4c-1.8-10-5.9-19.6-9.4-29.2c-0.6-1.6-2.6-3.4-4.2-3.9
		c-10.9-2.8-21.8-5.2-33.4-4.9c-26.2,0.8-52.5,0.2-78.8,0.8c-15.3,0.3-30.6,2.1-45.9,2.5c-9.4,0.3-18.9-0.3-28.3-1.2
		c-7.5-0.8-10.2-4.3-10.1-11.8c0.4-16.2,0.5-32.5,1.8-48.7c0.7-7.8,4.2-15.3,6-23.1c1.3-5.6,3.8-10.2,8.5-13.5
		c1.3-0.9,2.8-1.8,4.3-1.9c11.6-1.5,23.2-3.5,34.9-4.1c19.2-1,38.4-1.2,57.5-1.6c30.9-0.6,61.8-1.2,92.8-1.7
		c7.8-0.1,15.9-1.1,23.5,0.2c8.9,1.6,17.8,4.6,26.2,8.2c7.6,3.2,11.6,10.3,12.9,18.3c2.7,17.1,4.1,34.4,7.2,51.4
		c3.5,19.3,3.3,38.7,3.3,58.2c0,10.9-1,21.8-2.2,32.6c-0.5,4.4-3,8.5-4.4,12.8c-2.3,7.3,1.1,12.6,8.6,14.2c6.8,1.4,13.4,4,20.2,4.7
		c14.4,1.4,28.9,2.1,43.4,2.7c33.8,1.2,67.7,1.6,101.5,3.4c25.7,1.3,51.2,4.1,76.8,6.3c17.9,1.5,35.8,2.8,53.7,4.8
		c11.4,1.3,22.5,4.1,32.8,9.6c4.3,2.3,6.2,5.5,6.2,10.6c0.3,27.5,0.8,54.9,1.5,82.4c0.4,16-0.6,32.2,2,47.9
		c3.6,21.9,2.9,43.9,3,65.8c0.1,23.7-1.8,47.4-2.4,71.1c-0.4,15.2,0.1,30.4-0.1,45.6c-0.5,36.5-0.9,73-1.8,109.5
		c-0.5,21.4-2.1,42.8-2.9,64.2c-0.4,11.3,0.2,22.7-0.2,34c-0.2,4.6-1.6,9.1-2.9,13.6c-1,3.1-3.7,4.2-7,4.2
		c-14.1-0.3-28.2-0.6-42.4-0.7c-24-0.2-48-0.3-72-0.3c-18,0-36,0.7-54,0.4c-18.4-0.3-36.8-1.1-55.1-2.4c-7.9-0.5-15.8-2.4-23.6-4.2
		c-3.1-0.7-4.8-0.4-5.5,2.9c-0.2,1-1.1,1.9-1.7,2.9C1034.2,1010.5,1033.6,1010.3,1033.1,1010.1z M1174.6,939.4l0.1,0.1
		c-1.9-0.5-3.8-1.2-5.8-1.3c-18-0.9-35.9-1.9-53.9-2.5c-9.3-0.3-18.7,0-28,0.1c-6.9,0.1-13.9,0.9-20.8,0.3c-7-0.6-13.3,3.4-20.3,2
		c-0.9-0.2-2.1,0.2-3.1,0.7c-7.3,3.6-12.1,9.8-12.8,17.6c-1.1,10.8-0.9,21.8-1,32.7c-0.1,5.1,3.2,8.2,7.8,10.6
		c1.5-3.2,2.9-6.2,4.4-9.2c5.3-10.6,10.6-21.2,15.8-31.8c2.6-5.5,4.8-11.2,7.3-16.7c0.3-0.6,1-1,1.5-1.5c0.5,0.5,1.5,1.1,1.4,1.6
		c-0.2,2-0.3,4.1-1.1,5.8c-2.7,5.6-5.9,11.1-8.7,16.7c-6,12.1-11.9,24.2-18.2,37.1c11,1.8,20.9,4.4,30.9,4.9
		c23.1,1.2,46.3,1.7,69.5,1.8c29.1,0.2,58.1-0.3,87.2-0.3c20.4,0.1,40.8,0.6,61.2,1c3.2,0.1,5.2-1,5.6-4.2
		c0.9-5.9,2.2-11.8,2.4-17.7c0.3-8.6-1-17.4-0.1-26c2.7-27,1.9-54,2.8-81c0.9-27.6,1.2-55.1,1.6-82.7c0.2-12,0-24,0.2-36
		c0.4-22.5,1.1-45,1.6-67.5c0-0.8,0.3-1.6,0.2-2.4c-0.2-25.3-0.2-50.6-0.6-75.9c-0.1-4.7-2-9.4-2.2-14.2
		c-0.8-18.2-1.4-36.5-1.8-54.7c-0.5-23.1-1.3-46.1-1-69.2c0.1-7.9-3.2-11.5-9.7-13.8c-1-0.4-2-0.7-3-1.1
		c-13.3-4.9-27.2-6.5-41.1-7.8c-22.1-2-44.3-3.9-66.4-5.7c-14.9-1.2-29.7-2.5-44.6-3.1c-33.9-1.3-67.9-2.1-101.9-3.4
		c-14.5-0.5-29-1.1-43.5-2.5c-7.7-0.8-15.2-3.7-22.9-5.2c-6.1-1.2-10.4-4.7-10.5-10.9c0-4.5,1.6-9,2.7-13.5
		c1.1-4.4,3.2-8.7,3.4-13.1c1-26.5,2.2-53-2.1-79.4c-2.9-17.7-4.7-35.6-7.3-53.4c-1.2-8.3-5.4-15.3-13.5-18.5
		c-7-2.8-14.3-5.7-21.7-6.6c-9.6-1.1-19.4-0.3-29.1-0.1c-37.3,0.5-74.7,1.1-112,1.7c-12.1,0.2-24.3,0.6-36.3,1.5
		c-10.7,0.8-21.4,2.5-32.1,4c-1,0.1-1.9,0.9-2.8,1.4c-4.7,2.9-6.3,7.7-7.5,12.7c-2,8.4-5.2,16.6-6,25.1c-1.3,14.3-1.2,28.8-1.5,43.1
		c-0.2,7.8,1.5,10,9.5,10.7c8.9,0.8,17.8,1.1,26.7,0.8c18.9-0.7,37.8-2.4,56.7-2.9c23.4-0.5,46.9-0.3,70.4-0.1
		c6.7,0.1,13.5,1,20.2,1.9c2.9,0.4,5.6,1.7,8.5,2.1c4.6,0.7,7.7,3.1,9,7.4c3.4,11,6.5,22.2,9.8,33.3c0.2,0.6,0.3,1.4,0.7,1.8
		c4.2,3.8,8.1,7.9,12.6,11.3c10.4,7.9,21.1,15.3,31.7,23c1.2,0.8,2,2.1,3,3.2c-0.3,0.5-0.7,0.9-1,1.4c-4.4-1.5-7.5-5.1-11.2-7.7
		c-3.9-2.6-7.5-5.5-11.4-8.2c-3.9-2.8-7.9-5.4-11.8-8.2c-3.8-2.8-7.6-5.6-11.5-8.6c0.4,5.6,1.1,10.9,1.2,16.2
		c0.6,29.6,1.1,59.2,1.6,88.8c0.1,5.8,1.8,8.2,7.5,8.9c7.8,1,15.6,2,23.5,1.9c16.1-0.2,32.2-1.5,48.3-1.9
		c53.8-1.2,107.7-2.3,161.5-3.3c24.8-0.5,49.6-0.7,74.4-1c4.7-0.1,9.3-0.2,14,0.2c6.2,0.6,11.8,3.1,14,9.1
		c3.7,10.3,7.7,20.6,9.4,31.3c2.9,18,4.1,36.2,6,54.4c0.2,1.8-0.1,4.1,0.8,5.5c4.2,6.3,8.3,12.7,13.2,18.4
		c8.1,9.4,16.9,18.1,25.3,27.3c0.7,0.8,0.9,2.2,1.3,3.3c-1.1-0.3-2.6-0.3-3.3-1c-4.4-4.2-8.9-8.4-13-13c-8-9-15.8-18.3-23.6-27.4
		c0,0.1-0.1,0.6-0.1,1.1c0.4,15.3,0.9,30.6,1.2,46c0.3,16.8,0.7,33.6,0.2,50.4c-0.3,10.5-2.5,20.9-3.2,31.4c-0.7,12.5-0.6,25-1,37.6
		c-0.6,17.7-1.2,35.4-1.8,53.1c0,1,0.1,2.2,0.6,3c1.5,2.4,3.7,4.4,4.9,7c4.3,8.8,10.1,16.3,17.4,22.7c2.9,2.5,5.9,5,8.7,7.7
		c0.7,0.7,0.9,2,1.3,3c-1-0.2-2.4,0-3.1-0.6c-11-9-21.5-18.5-27.3-31.9c-0.5-1.2-1.3-2.4-1.9-3.5c-0.4,0.1-0.8,0.2-1.1,0.3
		c0,20.5,0.1,41-0.1,61.5c0,3.8,1.3,6.6,3.9,9.1c7.1,6.9,14,13.9,20.8,21c0.9,0.9,1,2.4,1.5,3.6c-1.2-0.5-2.7-0.6-3.6-1.4
		c-5-4.8-9.9-9.7-14.8-14.7c-2.3-2.3-4.5-4.8-6.7-7.1c-0.4,0.2-0.9,0.4-1.3,0.6c0.5,7.5,0.7,15,1.5,22.5c0.9,8-1.6,13.1-9.4,15.4
		c-4.8,1.4-9.9,1.6-14.9,2.6c-1.8,0.4-3.9,1.1-5.1,2.4c-11.3,11.1-20.4,23.9-27.2,38.3c-0.8,1.7-0.2,5-3.8,4.6
		c0.4-2.1,0.4-4.4,1.2-6.2c6.1-13.4,14.3-25.2,24.4-35.9c0.7-0.8,1.3-1.7,1.4-1.8c-10.5-2.1-20.9-4.2-31.3-6.4
		C1186.8,942,1180.7,940.7,1174.6,939.4z"/>
	<path d="M1056.4,846.4c3.7-0.2,6.6-0.4,9.4-0.6c0.3,0,0.6,0.2,0.8,0.1c5.3-3.1,8.6,0.7,12.3,3.3c0.7,0.5,2.3,0.5,3.2,0
		c3.9-2.1,6.6-0.7,8.8,2.6c1,1.4,2.1,2.7,3.4,4.2c3.1-3.6,6.6-7.5,11.2-4.7c4.2,2.5,2,7.4,1.5,11.8c4.2,0.9,10.7-0.5,8.7,7.3
		c3,1.1,6,1.6,8.4,3.1c3.1,1.9,2.4,4.9,0.5,7.9c5.5,0.3,10.3-4.6,15.3-0.2c3.3-2.9,7.2-4.2,10.5-1.3c1.6,1.4,2.2,5.1,1.8,7.5
		c-0.2,1.2-3.5,2-5.4,2.9c-0.3-0.4-0.6-0.8-0.9-1.2c1-1.6,2-3.1,3.6-5.7c-2.6-0.3-5.7-1.2-6-0.5c-1,1.9-1.2,4.4-1.2,6.6
		c0,0.6,1.7,1.3,2.6,1.7c0.8,0.4,1.8,0.6,2.7,0.9c-0.8,0.8-1.4,1.6-2.3,2.2c-0.6,0.4-1.5,0.4-2.2,0.6c-0.1,0.4-0.3,0.7-0.2,0.9
		c2,6,1.8,6.7-4.2,9c-3.1,1.2-6.3,2.1-9.5,3.2c-2,0.7-4,1.6-5.8,2.2c-2.7-0.6-5.5-1.2-8.9-1.9c0.6,1.2,0.9,1.8,1.2,2.4
		c1.6,3.3,0.5,5.2-3.2,5c-3.4-0.2-6.7-1-10.1-1.6c0.3,8.4,0.3,8.4-10.2,4.7c-0.5,0.7-0.9,1.5-1.4,2.2c-1.6,2.2-3.2,2.2-4.7,0
		c-1.4-1.9-2.7-3.8-4.3-6.2c-2.1,2-3.6,4.3-5.6,4.9c-1.1,0.3-3.1-2.2-5.1-3.9c-8.4,1.7-8.4,1.7-9.1-6.2c-2.2-0.1-4.6-0.3-6.9-0.5
		c-4.6-0.4-5.8-2.7-3.5-6.7c0.8-1.3,1.6-2.6,2.2-3.6c-2.5-1-4.6-1.8-6.8-2.7c1.4-2.5,2.8-5,3.9-7.2c-1.3-1.2-4.4-2.7-4.3-4.1
		c0.1-2.2,2.3-4.2,3.9-6.7c-1.3-0.3-2.8-1.2-3.9-0.8c-4.1,1.5-5.4-1.7-5.8-4.1c-0.9-4.5-1.1-9.2-1.1-13.9c0-1.5,1.3-3,2.1-4.8
		c-5.1-2.7-6.4-7.4-4.3-12.6c0.8-2.2,3.2-4.3,5.4-5.2c4.4-1.8,13.4,2,16,6.1c0.3,0.5,0.2,1.2,0.5,2.9c-1.8-1-2.9-1.7-4.1-2.2
		c-3-1.4-5.9-3-9-3.9c-2.9-0.8-5.3,0.7-6,3.8c-0.8,3.3-0.6,6.4,3.1,8.1c3.1,1.4,5.7,1.2,7.7-1.7c0.6-0.9,1-1.9,1.7-2.7
		C1053.9,845.4,1055.4,844.2,1056.4,846.4z M1089.5,882.8c-0.2-0.4-0.4-0.7-0.6-1.1c2.6-5,8.5-2.9,12.5-5.2c-1.9-4.4-3.3-9.1-5.8-13
		c-2.6-4.1-6.2-7.7-11.9-9.2c0.2,1.2,0.3,1.8,0.4,2.4c0.1,1.2,0.3,2.3,0.4,3.5c-1.1-0.7-2.3-1.4-3.3-2.2c-0.6-0.5-0.7-1.4-1.1-2.1
		c-2-3.8-5.4-5.8-9.2-8.1c-0.1,1.1-0.2,1.4-0.1,1.8c0.6,2.6,1.2,5.2,1.7,7.8c1.2,6.1,0.4,6.7-5.5,5.1c-3.5-1-7.1-1.5-11.5-2.3
		c4.2,4.8,4,5.9-1.1,8.6c-1.3,0.7-2.7,1.3-3.8,2.2c-1,0.8-1.8,1.9-2.3,2.4c2.4,1.7,6.1,3.2,6,4.4c-0.2,2.4-2.5,4.6-4.1,7.2
		c1.4,0.1,2.6,0,3.7,0.3c1.2,0.3,2.9,0.8,3.1,1.6c0.3,0.9-0.6,2.4-1.4,3.3c-1.3,1.5-2.8,2.7-4.7,4.4c1.2,0.2,1.7,0.3,2.1,0.3
		c5.1,0.2,6,1.9,3.3,6.4c-0.9,1.4-1.7,2.8-2.9,4.6c1.7,0.3,2.7,0.6,3.7,0.7c7.3,0.5,7.3,0.5,8.8,7.4c3.4,0.2,7.8-5.4,9.5,1
		c2.7-0.9,5.3-2.7,7.2-2.1c2.2,0.6,3.8,3.3,5.8,5.2c3.1-6.7,6.9,0.5,10.6-0.6c-0.1-0.6-0.2-1.3-0.2-1.9c-0.7-5.6,0-6.2,5.5-4.5
		c2.5,0.8,5.2,1.3,7.8,1.9c-0.8-2.1-2.1-3.3-3-4.7c-0.5-0.7-0.9-2.2-0.5-2.8c0.4-0.6,1.8-1,2.7-0.9c1.8,0.2,3.6,1,5.5,1.1
		c1.7,0.1,3.5-0.5,5.2-0.8c-0.5-1.6-0.9-3.2-1.6-4.7c-1.4-2.6-1.6-4.6,2-5.1c0.6-0.1,1.1-0.5,2.3-1c-1.9-2-3.2-3.8-4.9-5.2
		c-2.4-2-2.3-4-0.6-6.3c0.7-1,1.5-1.9,2.3-2.8c2.3-2.9,1.7-4.5-2-4.9c-1.4-0.1-3,0.8-4.5,1.3c-1.4,0.4-2.7,0.9-4.1,1.2
		c-0.9,0.2-1.9,0.1-2.9,0.2c0.5,3.2,1,6,1.5,8.8c-0.5,0.2-1,0.3-1.5,0.5c-0.6-1-1.7-2-1.8-3c-0.4-4-2.8-4.3-5.9-3.6
		C1096.6,881.1,1093,882,1089.5,882.8z M1121.7,885.7c7.1,8.7,7.3,10,2.1,13.1c0.7,2.1,1.4,4.2,2.4,6.9c4.9-1.7,9.9-3.4,14.7-5
		c-1.3-5.5-2.2-10.3-3.5-15c-0.3-1.2-2-2.9-2.8-2.8C1130.4,883.5,1126.3,884.7,1121.7,885.7z M1069.7,859.2c-0.3-1.5-0.6-2.8-0.9-4
		c-2-7.2-4.1-8.2-10.8-4.7c-4.5,2.4-9.1,4.9-13.5,7.5c-0.9,0.6-1.9,2-1.9,3.1c0.1,3.9,0.6,7.8,0.9,11.6c3.8-2.9,7.2-5.5,10.7-8.1
		c-0.1-0.1-0.3-0.4-0.5-0.8c-1-1.6-1.9-3.1-2.9-4.7c1.8-0.6,3.6-1.7,5.3-1.6C1060.5,857.8,1064.8,858.6,1069.7,859.2z M1100.6,864.3
		c0.8,4.7,4.4,6.7,8.4,8.3c0.9,0.4,2.8,0.4,2.8,0.2c0.4-1.5,0.7-3,0.6-4.5c0-0.5-1.1-1.2-1.9-1.4
		C1107.3,866,1104,865.2,1100.6,864.3z M1102.3,861.7c0.7-0.3,1.3-0.6,2-0.9c-0.3-2.3-0.6-4.6-0.9-6.9c-1.7,0.9-3.5,1.8-5.2,2.7
		C1099.6,858.3,1100.9,860,1102.3,861.7z"/>
	<path d="M515.9,196.6c0.8-0.9,1.4-1.6,2-2.3c0.6,0.6,1.2,1.2,1.7,1.9c1.5,2.4,2.5,5.3,4.4,7.3c14.9,15.4,30,30.7,45,46
		c3,3,6.1,6,8.9,9.1c0.8,0.9,0.8,2.4,1.2,3.6c-1.1-0.5-2.5-0.6-3.3-1.4c-17.4-17.5-34.7-35.1-51.9-52.6c-2-2.1-4-4.3-5.7-6.7
		C517.3,200.2,516.8,198.5,515.9,196.6z"/>
	<path d="M585.2,345.1c-0.9,0.1-2,0.6-2.7,0.2c-2-1-3.9-2.3-5.7-3.6c-19.8-13.8-39-28.3-55.8-45.7c-2.7-2.8-4.8-6.3-6.9-9.7
		c-0.5-0.8,0.2-2.2,0.4-3.4c0.8,0.7,1.7,1.4,2.4,2.2c4.8,5.6,9,12.1,14.6,16.7c16.6,13.6,33.7,26.4,50.6,39.5
		c1.1,0.9,2.2,1.8,3.3,2.7C585.3,344.4,585.2,344.7,585.2,345.1z"/>
	<path d="M1310.2,242.7c0.4,0.7,0.6,1.6,1.2,2.1c6,6,11.7,12.3,18.1,17.8c12.2,10.3,24.8,20.1,37.3,30c3.4,2.7,7.4,4.7,11,7.2
		c1,0.7,1.5,2.1,2.2,3.1c-1.2-0.1-2.7,0.2-3.6-0.4c-6.3-4-12.7-7.9-18.5-12.4c-12.7-9.9-25.2-20.1-37.4-30.5
		c-4.4-3.7-7.9-8.5-11.8-12.9c-0.5-0.6-0.5-1.7-0.5-2.6C1308.3,243.7,1309,243.5,1310.2,242.7z"/>
	<path d="M818.9,660.5c1.4,1.3,2,1.9,2.7,2.5c19.1,19.5,38.8,38.3,61.7,53.5c1.4,0.9,2.3,2.5,3.4,3.8c-1.7-0.4-3.8-0.3-5.1-1.3
		c-12-9.3-24.1-18.4-35.7-28.2c-8.8-7.5-16.9-15.8-25.2-23.8c-0.9-0.9-1.8-2-2.3-3.2C818.2,663.1,818.7,662.1,818.9,660.5z"/>
	<path d="M520.6,238.3c0.9,0.9,1.7,1.4,2.2,2.1c14.7,21.6,34.1,38.6,53.5,55.7c0.3,0.3,0.8,0.4,0.9,0.8c0.4,1,0.7,2,1,3
		c-1.1-0.2-2.4-0.1-3.1-0.7c-19.8-17.2-39.5-34.5-54.5-56.4c-0.5-0.8-1.1-1.6-1.2-2.5C519.4,239.8,520.1,239.2,520.6,238.3z"/>
	<path d="M514.1,852.5c1.4,1.1,2.1,1.7,2.8,2.2c13.8,10.6,27.6,21.3,41.4,31.9c6.4,5,12.8,9.9,19.2,15c0.8,0.6,1,1.9,1.5,2.9
		c-1.2-0.2-2.6,0.1-3.4-0.5c-20-15.3-39.9-30.6-59.7-46c-0.9-0.7-1.9-1.6-2.4-2.6C513.2,854.7,513.8,853.7,514.1,852.5z"/>
	<path d="M163.8,884.4c1,1.1,1.6,1.6,2,2.2c1.5,2,2.7,4.5,4.6,6.1c16.1,13.1,32.4,25.9,48.7,38.9c0.7,0.6,1.6,1.1,2.1,1.8
		c0.6,0.8,1,1.9,1.4,2.9c-1.2-0.2-2.6,0-3.4-0.6c-8.7-6.6-17.4-13.2-26-20c-8.7-7-17.4-14.1-25.9-21.4c-2-1.7-3.2-4.3-4.5-6.6
		C162.5,887.1,163.3,886,163.8,884.4z"/>
	<path d="M526.9,905.8c1.5,0.6,2.7,0.9,3.7,1.5c19.6,10.4,37.7,23,55.1,36.6c0.9,0.7,1.3,2,2,3c-1.3-0.2-2.8,0.1-3.8-0.6
		c-6.5-4.6-12.6-9.9-19.3-14.1c-12.2-7.7-24.8-14.9-37.2-22.3c-0.9-0.5-1.6-1.6-2.1-2.5C525.2,907.1,526.4,906.3,526.9,905.8z"/>
	<path d="M529.3,149.3c1.1,2.3,1.8,5,3.4,6.9c6.9,8.6,13.6,17.5,21.2,25.3c6.6,6.8,14.5,12.4,21.8,18.6c0.7,0.6,1,1.6,1.5,2.5
		c-1,0-2.3,0.5-3.1,0c-2.3-1.3-4.7-2.6-6.7-4.4c-13-11.4-26-22.9-35.7-37.5c-1.5-2.2-2.7-4.6-3.7-7c-0.5-1.3-0.2-2.8-0.3-4.3
		C528.3,149.4,528.8,149.4,529.3,149.3z"/>
	<path d="M642.1,91.2c-1.2,0.3-2.3,0.8-2.6,0.5c-2.9-2.5-5-0.5-6.9,1.4c-9.4,9.2-18.8,18.5-28,27.9c-4.4,4.6-8.4,9.6-12.7,14.3
		c-0.6,0.7-1.7,0.9-2.6,1.3c0-1-0.4-2.4,0.2-3.1c4.4-5.3,8.8-10.7,13.6-15.6c9.5-9.7,19.3-19.1,29-28.5c2.3-2.2,5-3.2,7.9-0.9
		C640.7,89,641.1,89.9,642.1,91.2z"/>
	<path d="M165.1,846.9c1.1-1.5,1.7-2.3,2.4-3.1c0.6,0.8,1.2,1.5,1.7,2.3c1,1.9,1.6,4.3,3,5.8c8,8.4,16.1,16.7,24.5,24.7
		c5.5,5.2,11.6,9.8,17.3,14.7c0.9,0.8,1.4,2.2,2,3.3c-1.3-0.3-3-0.1-3.9-0.9c-7.7-6.6-15.3-13.2-22.7-20.1
		c-6.6-6.2-13-12.7-19.2-19.2C168.2,852.3,166.9,849.6,165.1,846.9z"/>
	<path d="M1089.9,49.6c0.4,0.2,1.1,0.7,1.8,1.2c-0.6,0.6-1,1.6-1.7,1.8c-15.2,5.6-27.7,15.1-39.2,26.2c-4.7,4.5-9.6,8.8-14.5,13.1
		c-0.6,0.6-1.8,0.6-2.7,0.8c0.1-0.9,0.2-1.9,0.4-2.8c0.1-0.3,0.5-0.6,0.8-0.9c15.2-13.5,29.2-28.6,48.2-37c1.6-0.7,3.2-1.3,4.8-1.9
		C1088.3,49.9,1088.8,49.8,1089.9,49.6z"/>
	<path d="M819.2,633.9c15.8,17.2,33.8,31.8,54.4,43.1c-0.3,0.6-0.6,1.1-0.9,1.7c-1.2-0.2-2.6-0.2-3.6-0.8
		c-18.4-10-34.3-23.3-48.7-38.3c-1.2-1.3-1.8-3.2-2.7-4.8C818.2,634.5,818.7,634.2,819.2,633.9z"/>
	<path d="M226.1,327.3c-1.1,1.4-2,2.9-3.2,4.2c-0.6,0.7-1.6,1-2.4,1.5c-0.1-1-0.6-2.4-0.2-3.1c1.5-2.3,3.3-4.5,5.3-6.4
		c0.8-0.8,3-1.1,3.9-0.5c0.8,0.5,1.2,2.7,0.8,3.8c-1.2,3.7-2.4,7.4-4.3,10.7c-6.8,12-13.8,23.9-20.8,35.8c-0.4,0.7-1.6,1.1-2.4,1.6
		c-0.1-1-0.6-2.3-0.2-3.1c4-6.9,8.2-13.7,12.2-20.6c3.1-5.4,6.1-10.9,9-16.4c1.2-2.3,2-4.8,3-7.2
		C226.7,327.6,226.4,327.4,226.1,327.3z"/>
	<path d="M322,770.1c1.5,2.6,2.2,5.1,3.8,6.5c13.7,12.2,27.5,24.2,41.3,36.3c0.5,0.4,1.2,0.7,1.5,1.2c0.4,0.7,0.4,1.6,0.6,2.4
		c-0.8,0-1.9,0.3-2.5-0.1c-3.3-2.2-6.8-4.3-9.8-6.9c-11.2-10-22.3-20.2-33.3-30.4c-1.5-1.4-2.9-3.2-3.9-5
		C318.6,771.4,319.9,769.9,322,770.1z"/>
	<path d="M819.3,581.6c1.1,1.3,1.5,1.8,1.9,2.3c3.7,4.6,6.9,9.8,11.3,13.7c10.3,9.2,21.2,17.9,31.8,26.7c1.1,0.9,2.5,1.7,3.4,2.8
		c0.6,0.7,0.7,1.9,1,2.9c-0.9-0.2-2.2,0-2.8-0.5c-14-11.7-27.9-23.5-41.7-35.5c-2.5-2.2-4.1-5.5-5.8-8.5
		C818.1,584.8,818.9,583.5,819.3,581.6z"/>
	<path d="M1025.5,56.2c-1.1,0.9-1.5,1.3-2.1,1.6c-4.9,3-10.4,5.5-14.7,9.2c-11.4,9.8-22.3,20.2-33.5,30.3c-0.8,0.7-2.2,0.9-3.3,1.3
		c0.4-1.1,0.3-2.7,1.1-3.4c9.7-9.1,19.4-18.2,29.4-27.1c4.6-4.1,9.6-7.7,14.5-11.2c1.5-1.1,3.6-1.6,5.5-2
		C1023.2,54.8,1024.1,55.6,1025.5,56.2z"/>
	<path d="M345.3,561.5c-0.9-0.7-2.1-1.2-2.8-2.1c-11.6-15.1-23.1-30.3-34.5-45.5c-1.4-1.9-2.6-4-3.6-6.2c-0.3-0.6,0.2-1.6,0.3-2.5
		c0.8,0.3,1.8,0.4,2.2,1c12.7,17,25.3,33.9,37.8,51c0.7,1,1.2,2.2,1.7,3.3C346,560.8,345.6,561.1,345.3,561.5z"/>
	<path d="M346.4,646.5c-1,0-2.4,0.4-3-0.1c-2.5-1.8-4.9-3.6-7.1-5.8c-12.8-12.6-23-27.2-33-41.9c-0.6-0.9-0.3-2.5-0.5-3.8
		c1,0.7,2.3,1.1,3,2c8.6,11.3,17,22.8,25.9,33.9c3.7,4.6,8.5,8.4,12.8,12.5c0.8,0.7,1.8,1,2.8,1.6
		C347,645.4,346.7,645.9,346.4,646.5z"/>
	<path d="M907.4,65.9c-0.6,0.3-1.2,0.6-1.8,0.9c-10.9,4.3-18.3,13.1-27,20.4c-7.3,6.1-14,12.7-21.1,19c-0.8,0.7-2,0.8-3,1.2
		c0.3-1.1,0.2-2.7,0.9-3.4c4.5-4.3,9.1-8.6,13.8-12.7c8.3-7.3,16.6-14.7,25.1-21.7c2.8-2.3,6.4-3.8,9.7-5.4c0.7-0.3,1.9,0.3,2.8,0.5
		C907.1,65,907.2,65.5,907.4,65.9z"/>
	<path d="M823.3,715.1c0.8,0.9,1.2,1.3,1.6,1.8c1.7,1.8,3,4,5,5.3c14.3,9.5,28.7,18.8,43.1,28.2c0.4,0.3,1,0.5,1.3,0.9
		c0.6,0.7,1,1.6,1.5,2.4c-1.1,0.1-2.4,0.6-3.1,0.1c-4.7-3-9.3-6.2-14-9.2c-11-7.2-22.2-14.2-33.1-21.5c-1.6-1.1-2.5-3.4-3.5-5.3
		C821.8,717.2,822.7,716.2,823.3,715.1z"/>
	<path d="M353.1,704.6c-0.3,0.5-0.6,1.3-0.9,1.3c-0.9-0.1-1.9-0.1-2.5-0.6c-3.1-2.5-6.2-5.1-9.1-7.8c-11.2-10.7-22.5-21.3-29.1-35.7
		c-0.7-1.6-0.7-3.5-1-5.3c1.2,1.3,2.9,2.4,3.6,4c7.4,15.2,19.6,26.4,31.8,37.6c1.7,1.5,3.5,2.9,5.1,4.4
		C351.9,703,352.4,703.7,353.1,704.6z"/>
	<path d="M883.1,790.9c-3.7,0.3-7-1.2-10.1-3.3c-3.4-2.3-6.7-4.9-10-7.4c-9.9-7.6-19.8-15.3-29.7-23c-0.7-0.6-1.6-1-2.2-1.8
		c-0.5-0.8-0.7-1.8-1.1-2.7c0.9,0.1,2-0.1,2.8,0.2c0.8,0.3,1.5,1.1,2.2,1.6c11.7,9,23.4,18.1,35.2,27c3.2,2.4,7.1,4,10.7,6
		c0.9,0.5,1.8,1.2,2.7,1.8C883.5,790,883.3,790.5,883.1,790.9z"/>
	<path d="M169.8,624.3c0.5,0.8,1,1.6,1.5,2.5c3.3,6.1,5.8,12.7,9.9,18.1c7.1,9.6,15.2,18.5,22.8,27.8c0.7,0.8,1.5,1.5,2,2.4
		c0.2,0.4,0.2,1.4-0.2,1.7c-0.3,0.3-1.2,0.3-1.8,0.1c-0.6-0.2-1-0.8-1.5-1.3c-12.1-12.5-23.2-25.8-31.6-41.1c-1.1-2-1.9-4.1-2.5-6.3
		c-0.3-1.2,0.1-2.6,0.2-3.8C169.1,624.4,169.5,624.3,169.8,624.3z"/>
	<path d="M180.9,399.5c1.1,1.8,1.7,2.5,2,3.3c6.5,18.3,18.4,32.8,31.7,46.3c0.7,0.8,1.7,1.4,2.2,2.3c0.3,0.5,0.2,1.5-0.1,2.1
		c-0.1,0.2-1.3,0.2-1.7,0c-0.8-0.4-1.5-1.1-2.2-1.7c-12.4-12.2-23.2-25.6-30.4-41.6c-1-2.2-1.8-4.4-2.4-6.7
		C179.8,402.5,180.4,401.4,180.9,399.5z"/>
	<path d="M1163,82.8c14.1,13.5,28.3,27.1,42.4,40.7c0.8,0.8,1,2.2,1.5,3.3c-1.2-0.4-2.8-0.3-3.6-1.1c-10.5-9.9-20.8-19.8-31.2-29.8
		c-2.8-2.7-5.7-5.2-8.5-7.9C1161.4,85.8,1161.4,84.9,1163,82.8z"/>
	<path d="M700.3,88.6c-1.2,1.4-1.9,2.4-2.7,3.2c-11.3,11.4-22.7,22.8-34,34.3c-1.6,1.6-2.9,3.5-4.6,5c-0.6,0.6-1.8,0.6-2.6,0.8
		c0-0.8-0.2-1.8,0.2-2.5c0.6-1.2,1.5-2.2,2.4-3.2c12.3-12.4,24.5-24.7,36.8-37.1c0.6-0.6,1.2-1.2,1.9-1.4
		C698.3,87.6,699.1,88.2,700.3,88.6z"/>
	<path d="M343.4,593.7c-1,0.4-1.8,1.1-2.4,0.9c-0.8-0.3-1.6-1-2.2-1.7c-10.1-11.7-20.2-23.3-30.1-35.2c-2-2.4-3.5-5.4-4.8-8.2
		c-0.4-0.9,0.6-2.5,0.9-3.7c0.7,0.8,1.4,1.6,2,2.5c4.3,6.2,8.2,12.7,13,18.5c6.7,8.2,14.1,15.9,21.2,23.9
		C341.8,591.5,342.3,592.4,343.4,593.7z"/>
	<path d="M958.1,62.9c-0.3,0.6-0.5,1.2-0.7,1.2c-6.5,0.7-10,5.7-14.1,9.8c-8.8,8.7-17.4,17.6-26.1,26.4c-0.6,0.6-1.7,0.7-2.6,1
		c0.1-1-0.1-2,0.2-2.8c0.4-0.9,1.2-1.8,1.9-2.5c10.3-10.2,20.5-20.6,31-30.5c2.1-2,5.6-2.5,8.5-3.5
		C956.6,61.7,957.4,62.5,958.1,62.9z"/>
	<path d="M275.1,364.9c-1-1.9-1.6-2.5-1.6-3.1c0.1-0.9,0.6-1.8,1.1-2.5c9.6-14.2,19.1-28.5,28.9-42.6c0.9-1.3,2.8-1.9,4.2-2.8
		c-0.7,1.6-1,3.5-2,4.9c-6.5,9.7-13.2,19.3-19.8,29c-3.1,4.6-6.1,9.4-9.1,14.1C276.3,362.6,275.9,363.4,275.1,364.9z"/>
	<path d="M572.1,557.2c-3.5,3.1-6.7,5.7-9.6,8.5c-9.6,9.5-19,19-28.5,28.6c-1.2,1.2-2,2.9-3.1,4.1c-0.5,0.6-1.5,0.7-2.3,1
		c-0.1-0.8-0.6-1.8-0.3-2.4c0.7-1.4,1.5-2.9,2.6-4c11.3-11.3,22.6-22.6,34.1-33.8C566.5,557.7,568.2,555.1,572.1,557.2z"/>
	<path d="M707.9,602.8c-0.6-4.3,2.1-5.9,4.1-7.7c7.6-7.1,15.2-14.2,22.9-21.2c4-3.7,8.2-7.2,12.4-10.7c0.8-0.6,2.1-0.5,3.1-0.8
		c-0.4,1.1-0.6,2.4-1.3,3.2c-13,12.1-26,24.1-39,36.1C709.7,602.1,709,602.3,707.9,602.8z"/>
	<path d="M434.8,311.7c-0.7,0.9-1.4,1.8-2.1,2.7c-10.5,13.1-20.9,26.2-31.4,39.2c-0.5,0.7-1.6,0.9-2.5,1.3c-0.1-0.8-0.5-1.8-0.2-2.5
		c0.7-1.6,1.5-3.2,2.6-4.5c9.6-11.8,19.2-23.5,28.9-35.2c0.9-1.1,2.4-1.7,3.7-2.5C434.1,310.7,434.4,311.2,434.8,311.7z"/>
	<path d="M1226,256.8c-1,0.1-2.2,0.6-3,0.2c-4.8-2.2-9.7-4.3-14.3-7c-7.8-4.6-15.4-9.5-22.9-14.6c-2.3-1.5-4.1-3.7-5.8-5.9
		c-0.4-0.5,0.9-2.2,1.4-3.4c0.7,0.7,1.5,1.3,2.1,2c1.2,1.4,2.1,3.4,3.7,4.4c11.4,7,23,13.7,34.6,20.6c1.4,0.8,2.9,1.6,4.3,2.5
		C1226.1,255.9,1226.1,256.4,1226,256.8z"/>
	<path d="M839.6,74.3c-0.9,0.9-1.8,1.8-2.8,2.6c-11,8.7-22.1,17.5-33.1,26.2c-1.4,1.2-2.6,2.7-4.1,3.8c-0.8,0.6-2,0.8-3,1.2
		c0.3-1.1,0.4-2.4,0.9-3.4c0.6-1,1.5-1.9,2.4-2.6c11.8-9.4,23.7-18.9,35.6-28.2c0.9-0.7,2.3-0.7,3.5-1
		C839.2,73.3,839.4,73.8,839.6,74.3z"/>
	<path d="M1161.7,44.7c0.5,0.6,1,1.1,1.3,1.6c9.6,13.6,22.3,23.8,35.8,33.2c1,0.7,1.6,2.1,2.4,3.1c-1.3-0.1-2.8,0.2-3.8-0.5
		c-11.1-7.6-21.9-15.6-30.6-26c-2-2.4-4.2-4.8-6-7.4c-0.5-0.7-0.4-2-0.4-3C1160.4,45.4,1161.1,45.1,1161.7,44.7z"/>
	<path d="M869.3,970.2c0.3-1.1,0.3-2.4,0.9-3.3c1.3-2,2.8-3.8,4.4-5.6c7.4-8.5,14.9-17,22.3-25.5c1.8-2,3.4-4.1,5.3-5.9
		c1-0.9,2.6-1.2,4-1.8c-0.6,1.3-0.8,2.8-1.7,3.8c-10.5,12.2-21.1,24.3-31.6,36.5c-0.8,0.9-1.1,2.1-1.7,3.1
		C870.6,971.1,870,970.6,869.3,970.2z"/>
	<path d="M572.8,150.9c-0.4,0.6-0.8,1.3-1,1.3c-0.7,0-1.6-0.2-2.1-0.6c-2.5-2.5-4.9-5.2-7.5-7.8c-9.4-9.6-18.7-19.3-28.1-28.9
		c-0.8-0.8-1-2.1-1.5-3.1c1.3,0.3,3,0.3,3.8,1.1c8.2,8.1,16.4,16.4,24.5,24.7c3.3,3.4,6.5,7,9.7,10.6
		C571.3,148.9,572,149.9,572.8,150.9z"/>
	<path d="M170.5,689.1c0.7,1.4,1.2,2.9,2.1,4c7.4,9.4,14.8,18.8,22.3,28.1c2.2,2.8,4.9,5.3,7.1,8.1c0.7,0.8,0.6,2.2,0.9,3.3
		c-1-0.4-2.3-0.5-3-1.2c-4.6-5.1-9.3-10.2-13.6-15.6c-5.8-7.1-11.3-14.4-16.9-21.7c-0.6-0.8-0.9-1.8-1.2-2.8
		C168.1,691.2,168.8,690.7,170.5,689.1z"/>
	<path d="M175.9,565.8c2.7,2,5.6,3.9,8.1,6.2c10.2,9.2,20.3,18.4,30.4,27.8c0.8,0.8,1,2.3,1.5,3.5c-1.3-0.5-2.8-0.6-3.7-1.4
		c-8.9-8-17.7-16.1-26.6-24.2c-2.8-2.5-5.8-4.7-8.6-7.1c-1.1-0.9-1.8-2.3-2.6-3.4C174.8,566.7,175.3,566.2,175.9,565.8z"/>
	<path d="M879.3,931.9c-1,1.3-1.6,2.2-2.3,2.9c-8.8,9.2-17.7,18.5-26.4,27.7c-2,2.1-3.7,4.5-5.6,6.7c-0.6,0.7-1.7,0.8-2.6,1.3
		c0-0.9-0.4-2.1,0-2.8c0.8-1.5,1.8-3,3-4.2c9.9-10.4,19.8-20.8,29.8-31.2c0.5-0.6,1.2-1.3,1.9-1.4
		C877.5,930.9,878.3,931.5,879.3,931.9z"/>
	<path d="M687.6,971.9c-0.2-1.6-0.6-2.6-0.3-3.2c0.7-1.4,1.6-2.8,2.7-3.9c10.4-10.6,20.9-21.2,31.3-31.8c0.7-0.7,1.8-1.2,2.7-1.4
		c0.6-0.1,1.4,0.4,1.9,0.9c0.2,0.1-0.3,1.3-0.7,1.6c-12,8.6-21.5,19.7-31.1,30.8c-1.3,1.5-2.5,3.1-3.8,4.6
		C689.7,970.1,689,970.7,687.6,971.9z"/>
	<path d="M776.1,79.7c-1.2,1.3-1.7,2.1-2.4,2.7c-11.3,10.6-22.7,21.3-34.1,31.8c-0.7,0.6-1.8,0.7-2.7,1.1c0.1-1-0.1-2.4,0.5-3.1
		c1.7-2,3.6-3.9,5.6-5.7c9.2-8.6,18.5-17.2,27.8-25.8c0.8-0.7,1.6-1.5,2.6-1.8C774,78.8,774.9,79.4,776.1,79.7z"/>
	<path d="M810.4,971.5c0.6-1.4,0.9-3,1.8-4.2c8.7-11.3,17.6-22.5,26.4-33.7c1.2-1.5,2.3-2.9,3.6-4.2c0.4-0.4,1.4-0.3,2.1-0.4
		c0.1,0.7,0.4,1.6,0.1,2.1c-0.7,1.3-1.7,2.4-2.6,3.5c-9.3,11.9-18.6,23.7-27.8,35.6c-0.6,0.8-0.8,2-1.1,3.1
		C812.1,972.7,811.3,972.1,810.4,971.5z"/>
	<path d="M217.7,505.1c-1.3,0.3-2.2,0.9-2.9,0.6c-0.8-0.3-1.4-1.2-2-1.9c-8.6-10.8-17.4-21.6-25.8-32.6c-1.4-1.9-1.8-4.6-2.7-6.9
		c3.7-0.6,3.4,3.1,4.8,4.7c8.7,10.6,17.2,21.4,25.7,32.2C215.6,502.3,216.3,503.4,217.7,505.1z"/>
	<path d="M799.8,936c-0.6,0.9-1,1.8-1.6,2.5c-9.8,11.7-19.7,23.4-29.6,35c-0.5,0.6-1.7,0.7-2.6,1.1c0-0.9-0.2-2,0.2-2.8
		c0.7-1.4,1.6-2.7,2.7-4c9.1-10.6,18.2-21.2,27.3-31.7c0.6-0.7,1.6-1.1,2.5-1.5C798.9,934.6,799.4,935.5,799.8,936z"/>
	<path d="M1176,181.3c0.6-1,1.2-1.8,1.7-2.6c0.6,0.5,1.7,1,1.8,1.6c1,8.1,6.3,14,10.9,20.1c4.4,5.7,9.6,10.7,14.4,16.1
		c0.7,0.8,0.9,2.2,1.3,3.3c-1.1-0.3-2.6-0.3-3.3-1c-9.3-9.2-18.1-18.8-24.1-30.6C1177.5,186.1,1176.9,183.7,1176,181.3z"/>
	<path d="M639.6,556.6c-1.5,1-2.3,1.5-3,2.1c-11.6,9.9-23.2,19.8-34.8,29.7c-0.7,0.6-2,0.6-3,0.9c0.2-0.9,0.3-1.9,0.6-2.8
		c0.2-0.5,0.6-0.9,1-1.2c11.2-9.6,22.4-19.1,33.6-28.7c0.7-0.6,1.6-1.1,2.4-1.3C637.2,555.3,638,555.9,639.6,556.6z"/>
	<path d="M408.1,426.2c-1.1,1.2-1.6,1.8-2.1,2.4c-10.5,10.9-21.1,21.8-31.7,32.6c-0.6,0.6-1.7,0.8-2.6,1.1c0-0.9-0.2-2,0.1-2.8
		c0.4-1.1,1.2-2.1,2.1-2.9c9.5-9.7,19-19.4,28.5-29.1c0.8-0.8,1.8-1.7,2.9-2.1C405.8,425.2,406.8,425.9,408.1,426.2z"/>
	<path d="M324,450c0.8,0.6,1.3,0.9,1.6,1.3c7.9,8.2,15.8,16.6,23.8,24.7c3.3,3.3,7,6.1,10.4,9.3c0.7,0.7,0.9,1.9,1.3,2.8
		c-1.1-0.1-2.4,0.1-3.2-0.4c-2.3-1.6-4.6-3.2-6.6-5.2c-8.8-8.7-17.5-17.5-26.2-26.4c-1-1-1.7-2.4-2.2-3.7
		C322.8,451.8,323.5,450.9,324,450z"/>
	<path d="M389.4,318.7c-0.5,1.3-0.7,2.8-1.5,3.8c-6.6,9-13.4,17.9-20.1,26.8c-1.8,2.4-3.7,4.9-5.7,7.2c-0.7,0.7-1.9,1-2.8,1.5
		c0.1-1.1-0.1-2.3,0.4-3.2c0.6-1.3,1.6-2.5,2.5-3.6c7.8-10.2,15.5-20.3,23.3-30.4c0.8-1,1.9-1.9,2.8-2.8
		C388.6,318.2,389,318.4,389.4,318.7z"/>
	<path d="M1114.4,54.4c-1.1,1.4-2.1,2.9-3.2,4.1c-8.2,8.7-16.5,17.4-24.7,26c-1.5,1.5-2.7,3.3-4.3,4.7c-0.5,0.5-1.5,0.5-2.3,0.7
		c0-0.9-0.4-1.9,0-2.5c0.8-1.4,1.8-2.6,2.9-3.8c9.2-9.8,18.5-19.5,27.8-29.2c0.7-0.8,1.9-1.1,2.9-1.5
		C1113.6,52.9,1114,53.7,1114.4,54.4z"/>
	<path d="M1253.3,262.5c8.3-10.6,16.7-21.1,25.1-31.8c-1.6-1.1-2.4-1.7-3.8-2.7c1.3-0.8,2.5-2,3.1-1.8c1.3,0.5,3.4,1.9,3.4,2.7
		c-0.2,2.1-1.1,4.4-2.4,6.2c-4.3,5.9-8.7,11.7-13.3,17.5c-2.5,3.2-5.3,6.3-8,9.4c-0.7,0.8-1.7,1.3-2.5,2
		C1254.3,263.5,1253.8,263,1253.3,262.5z"/>
	<path d="M527.7,824.3c0.7,0.5,1.2,0.8,1.7,1.2c9.3,6.8,18.6,13.6,28,20.4c2,1.5,4.5,2.3,6.6,3.7c0.8,0.5,1.1,1.8,1.6,2.7
		c-1,0-2.2,0.4-2.9,0c-6-3.5-12-6.9-17.7-10.8c-6.1-4.2-11.9-9-17.7-13.6c-0.7-0.5-0.8-1.8-1-2.7
		C526.4,824.9,527.2,824.6,527.7,824.3z"/>
	<path d="M789.7,819.5c-0.3-1.4-0.8-2.5-0.5-3c0.9-1.6,2.1-3.1,3.4-4.4c8.6-8.7,17.3-17.3,26-25.9c0.6-0.6,1.8-0.6,2.6-0.9
		c-0.1,1,0.1,2.1-0.3,2.8c-0.5,1-1.5,1.8-2.4,2.7c-8.8,8.9-17.6,17.8-26.4,26.7C791.7,818,791,818.4,789.7,819.5z"/>
	<path d="M1012.8,780.1c-1.3,0.6-3,0.9-4,1.8c-9.9,8.9-19.7,17.9-29.6,26.8c-0.7,0.6-1.9,0.7-2.9,1c0.2-1.1,0.1-2.5,0.8-3.1
		c5.8-5.9,11.6-11.7,17.7-17.3c3.9-3.6,8.2-6.8,12.4-10c1-0.8,2.4-1,3.6-1.5C1011.4,778.4,1012.1,779.2,1012.8,780.1z"/>
	<path d="M595.3,787.4c-1.3,1-2.7,1.9-3.8,3.1c-8.3,8.8-16.5,17.6-24.8,26.4c-0.9,0.9-2.2,1.3-3.3,2c0.3-1.3,0.1-2.9,0.9-3.8
		c8.6-9.4,17.3-18.6,26.1-27.8c0.9-1,2.7-1.1,4.1-1.6C594.9,786.3,595.1,786.9,595.3,787.4z"/>
	<path d="M675.1,935.8c-1.1,1.2-1.6,1.9-2.2,2.5c-8.6,8.8-17.3,17.6-26,26.4c-0.9,0.9-2.3,1.3-3.4,1.9c0.3-1.3,0.3-2.9,1.1-3.7
		c8.2-8.7,16.5-17.2,24.9-25.8c0.8-0.8,1.9-1.6,2.9-2C672.9,934.9,673.8,935.5,675.1,935.8z"/>
	<path d="M1104.7,777.9c-0.6,0.8-1.2,1.8-2,2.5c-8.6,8.3-17.2,16.6-25.8,25c-1.1,1.1-1.9,2.6-3,3.7c-0.5,0.5-1.5,0.6-2.3,0.8
		c-0.1-0.8-0.4-1.8-0.1-2.5c0.4-1.1,1.1-2.2,2-3c8.8-8.7,17.6-17.3,26.6-25.9c1-0.9,2.5-1.2,3.8-1.7
		C1104.2,777.2,1104.5,777.6,1104.7,777.9z"/>
	<path d="M472.8,969c-0.3-1.3-0.8-2.3-0.6-2.8c0.7-1.4,1.5-2.8,2.5-4c7.6-8.8,15.2-17.5,22.9-26.2c0.3-0.4,0.7-1,1.1-1.1
		c1-0.1,2,0.1,3.1,0.2c-0.2,1.1,0,2.5-0.7,3.2c-3.1,3.2-6.7,5.9-9.6,9.3c-5.6,6.3-10.8,12.8-16.2,19.2
		C474.8,967.4,474.1,967.9,472.8,969z"/>
	<path d="M523,970.5c-0.2-0.8-0.7-1.8-0.4-2.4c0.9-1.6,1.9-3.2,3.1-4.6c7.2-8.1,14.4-16.1,21.6-24.1c0.6-0.7,1.3-1.6,2.1-1.8
		c0.8-0.3,1.9,0.1,2.8,0.2c-0.2,0.8-0.2,1.9-0.8,2.5c-6.7,7.4-13.5,14.7-20.3,22c-1.8,2-3.4,4.1-5.1,6.2c-0.6,0.8-1.1,1.8-1.6,2.7
		C524,970.9,523.5,970.7,523,970.5z"/>
	<path d="M1153.4,776.2c-0.8,0.9-1.4,1.7-2.2,2.4c-9.4,9.1-18.8,18.1-28.3,27.1c-0.6,0.6-1.8,0.6-2.7,0.9c0.1-0.9-0.1-2.1,0.4-2.8
		c0.8-1.4,1.9-2.6,3-3.7c8.5-8.1,17-16.1,25.6-24.1c0.7-0.7,2-0.9,3.1-1.1C1152.6,774.8,1153,775.5,1153.4,776.2z"/>
	<path d="M260.8,324.3c0.5,0.3,1.2,0.5,1.3,0.8c0,0.7,0,1.6-0.4,2.1c-1.2,1.4-2.8,2.5-3.9,4c-6.2,8.6-12.3,17.3-18.5,25.9
		c-0.7,0.9-1.8,1.4-2.8,2.1c0-1.1-0.6-2.5-0.1-3.1c7.4-10.2,14.9-20.3,22.4-30.4C259.2,325.2,260,324.9,260.8,324.3z"/>
	<path d="M764.4,413.9c-0.6,0.9-1,1.7-1.6,2.4c-7,8.1-14.1,16.2-21.1,24.3c-1.4,1.6-2.7,3.3-4.1,4.8c-0.5,0.5-1.3,0.6-2,0.9
		c-0.2-0.8-0.7-1.8-0.5-2.4c0.6-1.3,1.5-2.5,2.4-3.6c7.6-8.7,15.2-17.4,22.9-26c0.7-0.8,1.9-1.2,2.9-1.6
		C763.5,412.7,764,413.4,764.4,413.9z"/>
	<path d="M677.8,443.9c-0.6-1.4-1.3-2.2-1.1-2.8c0.4-1.2,1.1-2.5,2-3.4c7.7-8,15.4-15.9,23.1-23.8c0.6-0.6,1.2-1.1,1.9-1.4
		c1.5-0.6,3-0.9,4.5-1.4c-0.9,1.3-1.6,2.7-2.6,3.8c-8.3,8.6-16.8,17.1-25.1,25.6C679.7,441.5,679.1,442.4,677.8,443.9z"/>
	<path d="M887.6,808.5c-0.5-1.1-1.1-1.9-0.9-2.5c0.3-1,0.9-2,1.6-2.7c8.2-7.6,16.4-15.2,24.6-22.7c0.7-0.6,1.5-1.1,2.4-1.4
		c0.5-0.2,1.4,0,1.7,0.3c0.3,0.4,0.2,1.3-0.1,1.8c-0.4,0.6-1.2,1-1.8,1.6c-8.4,7.8-16.8,15.5-25.2,23.3
		C889.4,806.8,888.7,807.4,887.6,808.5z"/>
	<path d="M768,590c0.8-1.3,1.4-3,2.6-4c8-7.4,16.2-14.6,24.4-21.8c0.9-0.7,2.5-0.6,3.7-0.9c-0.7,1.2-1.1,2.6-2,3.4
		c-8.2,7.6-16.5,15.1-24.8,22.5c-0.8,0.7-1.8,1.2-2.6,1.9C768.8,590.7,768.4,590.4,768,590z"/>
	<path d="M1030.7,803.1c-0.1-1.6-0.6-2.7-0.2-3.3c0.9-1.6,2.1-3.1,3.4-4.4c6.4-6.6,12.9-13.1,19.4-19.6c0.7-0.7,2-0.7,3-1
		c-0.3,1.1-0.2,2.4-0.9,3.1c-4.5,4.9-9.2,9.6-13.8,14.4c-2.7,2.8-5.3,5.6-8,8.4C1032.9,801.4,1032.1,801.9,1030.7,803.1z"/>
	<path d="M413.1,955.8c-0.5-0.3-1.2-0.5-1.3-0.9c-0.1-0.6-0.1-1.4,0.2-1.8c1.1-1.5,2.2-3,3.5-4.3c6.3-6.1,12.7-12.1,19.1-18.1
		c0.7-0.6,1.4-1.3,2.3-1.6c0.9-0.3,1.9,0,2.8,0c-0.4,0.9-0.6,1.9-1.2,2.5c-5.8,5.5-11.7,10.8-17.5,16.2c-2.1,2-4,4.3-6,6.4
		C414.5,954.8,413.8,955.2,413.1,955.8z"/>
	<path d="M949.5,929.9c-0.8,1.3-1.1,1.8-1.5,2.4c-6.6,8.7-13.2,17.3-19.8,25.9c-0.5,0.6-1.5,0.7-2.3,1.1c-0.1-0.9-0.5-2-0.1-2.8
		c0.6-1.4,1.6-2.8,2.6-4c5.3-6.8,10.6-13.6,15.9-20.4c0.7-0.9,1.5-2,2.5-2.5C947.2,929.2,948.3,929.7,949.5,929.9z"/>
	<path d="M505.1,340.4c0.4-1.3,0.5-2.7,1.2-3.7c5-7.7,10.2-15.3,15.3-22.9c0.4-0.5,0.7-1.2,1.3-1.5c1.2-0.6,2.5-1.1,3.7-1.6
		c-0.4,1.2-0.7,2.5-1.3,3.5c-5.3,7.9-10.8,15.8-16.2,23.7c-0.8,1.1-1.7,2.1-2.6,3.1C506,340.9,505.5,340.7,505.1,340.4z"/>
	<path d="M862.8,786.9c-0.5,0.6-0.9,1.2-1.5,1.7c-6.6,6.5-13.2,13-19.9,19.4c-0.7,0.7-1.9,0.8-2.9,1.2c0.2-1.1,0-2.5,0.6-3.1
		c6.6-6.7,13.4-13.2,20.2-19.7c0.7-0.6,2.2-0.4,3.3-0.6C862.6,786.1,862.7,786.5,862.8,786.9z"/>
	<path d="M1344.7,233.1c1.2,0.4,2.7,0.4,3.7,1.1c6.6,4.9,13.2,9.9,19.7,15c1,0.8,1.3,2.3,1.9,3.5c-1.3-0.4-2.9-0.6-4-1.3
		c-6.4-4.7-12.7-9.6-19.1-14.4c-1.1-0.8-2.6-1.1-3.9-1.7C1343.5,234.5,1344.1,233.8,1344.7,233.1z"/>
	<path d="M642.5,437.9c0.6-2,0.7-3.7,1.6-4.8c4.8-6,9.7-11.9,14.7-17.8c0.6-0.7,1.8-0.8,2.7-1.1c0,0.9,0.3,2.2-0.2,2.7
		c-5.4,6.9-11,13.6-16.5,20.4C644.6,437.5,644.1,437.5,642.5,437.9z"/>
	<path d="M784.8,316.4c-0.2-1.5-0.7-2.5-0.3-3.1c1.1-1.8,2.5-3.5,3.9-5c5.2-5.8,10.3-11.5,15.6-17.1c12.1-12.7,24.3-25.4,36.5-38.1
		c0.6-0.7,1.4-1.3,2.2-1.7c0.5-0.2,1.6-0.2,1.7,0.1c0.3,0.6,0.3,1.5,0,2.1c-0.2,0.6-0.9,1-1.4,1.4c-14.8,15.7-29.6,31.4-44.4,47.1
		c-3.8,4.1-7.5,8.3-11.3,12.4C786.8,315,786.1,315.4,784.8,316.4z"/>
	<path d="M763.7,260.1c-7-0.3-11.1,3.9-15.1,7.9c-6.7,6.6-13.3,13.4-19.7,20.4c-8.7,9.6-17,19.4-25.6,29c-0.6,0.7-1.7,0.9-2.6,1.3
		c0-1-0.3-2.2,0.1-3.1c0.6-1.3,1.6-2.4,2.6-3.5c10.5-11.8,20.9-23.8,31.7-35.4c5.2-5.6,11.2-10.6,16.9-15.8c1.7-1.5,3.7-2.6,5.8-3.4
		C760,256.7,762.3,256.5,763.7,260.1z"/>
	<path d="M1174.6,939.4c0.1,1.1,0.6,2.4,0.2,3.1c-6.1,8.7-12.8,17-18.6,25.9c-7.7,11.8-14.8,24-22.3,36c-0.6,0.9-1.9,1.4-2.8,2.1
		c0-1.2-0.3-2.6,0.2-3.5c4.8-8.1,9.6-16.3,14.7-24.3c7-11,14.1-22,21.5-32.7c1.8-2.6,4.8-4.3,7.3-6.5
		C1174.7,939.5,1174.6,939.4,1174.6,939.4z"/>
	<path d="M799,254c-0.3,0.5-0.5,1.3-0.9,1.6c-14.9,10.6-26,25.2-38.8,37.9c-4.9,4.9-9.5,10.1-14.3,15.1c-0.6,0.6-1.7,0.8-2.6,1.1
		c0-1-0.3-2.1,0.2-2.8c1.1-1.7,2.4-3.2,3.8-4.6c9.8-10.3,19.5-20.7,29.6-30.8c5.9-5.9,12.3-11.4,18.6-16.9c1-0.9,2.6-1.2,3.9-1.7
		C798.6,253.2,798.8,253.6,799,254z"/>
	<path d="M915.9,495.7c0.9-1.7,1.6-3.6,2.8-5c6-6.6,12.3-13,18.3-19.6c8.9-9.7,17.7-19.5,26.7-29.2c1.2-1.3,3.3-1.8,4.9-2.7
		c-0.8,1.7-1.1,3.6-2.3,4.9c-14.9,16.1-30,32.1-45,48.2c-1.3,1.4-2.6,2.9-4,4.3C916.9,496.4,916.4,496,915.9,495.7z"/>
	<path d="M955.5,495.7c-0.1-0.8-0.6-1.8-0.3-2.4c0.7-1.3,1.7-2.5,2.8-3.4c17-13.8,34.1-27.7,51.2-41.4c1.4-1.1,3.4-1.3,5.2-1.9
		c-1,1.4-1.8,3.1-3.1,4.1c-17,13.9-34.1,27.6-51.1,41.5c-1.3,1-2,2.8-3,4.2C956.6,496.2,956,495.9,955.5,495.7z"/>
	<path d="M1065.2,451.2c-0.4,0.9-0.6,2.7-1.6,3.8c-3.8,3.9-7.6,7.9-11.9,11.2c-13,9.9-26.3,19.5-39.4,29.2c-1.3,0.9-2.4,2.1-3.7,3
		c-0.5,0.3-1.5,0.1-2.1-0.1c-0.2-0.1-0.3-1.4,0-1.7c1.4-1.4,2.8-2.8,4.4-4c15.1-11.5,30.3-23,45.4-34.5
		C1059.2,455.7,1062.2,453.5,1065.2,451.2z"/>
	<path d="M885.8,310.4c0.9,0.5,1.8,0.8,2.6,1.4c17.1,13,35,24.8,54.4,34.1c0.8,0.4,1.8,0.8,2.4,1.4c0.4,0.5,0.6,1.4,0.5,2
		c0,0.2-1.2,0.5-1.7,0.4c-0.8-0.1-1.5-0.6-2.2-0.9c-19.4-9.1-37.1-20.9-54.2-33.7c-1.2-0.9-2-2.3-3-3.5
		C885,311.2,885.4,310.8,885.8,310.4z"/>
	<path d="M1141.3,938.4c0.3,0.7,1,1.4,0.9,2c-0.2,0.8-0.9,1.6-1.6,2.3c-14.2,16-24.5,34.7-36.3,52.5c-0.6,0.9-1.6,1.4-2.5,2.1
		c-0.1-1.2-0.7-2.6-0.2-3.5c2.4-4.3,5-8.5,7.8-12.5c9.3-13.3,18.7-26.5,28-39.8c0.8-1.2,1.6-2.4,2.5-3.6
		C1140.4,938,1140.8,938.2,1141.3,938.4z"/>
	<path d="M1053.2,497.7c-0.3-1.3-0.9-2.4-0.6-2.9c0.8-1.3,1.8-2.7,3.1-3.6c13.5-10.4,27-20.7,40.6-31c1.8-1.3,3.9-2.4,5.9-3.3
		c0.7-0.3,1.7,0.2,2.5,0.3c-0.4,0.8-0.6,1.9-1.3,2.4c-6.3,4.4-13,8.4-19.1,13.1c-9.7,7.4-19.1,15.3-28.6,23
		C1055.1,496.1,1054.5,496.6,1053.2,497.7z"/>
	<path d="M1103.6,944.4c-1.3,1-1.8,1.7-2.2,1.6c-4.8-0.5-6.9,2.9-8.9,6.2c-5.6,9.2-11,18.5-16.4,27.8c-3.1,5.3-6.1,10.6-9.3,15.8
		c-0.4,0.7-1.6,1-2.4,1.5c-0.1-0.9-0.5-2-0.3-2.8c0.3-1.3,1-2.5,1.7-3.6c7.3-12.4,14.5-24.8,21.9-37.1c1.8-2.9,3.9-5.7,6.1-8.3
		C1096.3,942.5,1099.5,942.9,1103.6,944.4z"/>
	<path d="M1263.2,724.7c0.4,0.9,0.8,1.8,1.2,2.6c2,4,3.4,8.4,6,11.9c8,10.4,16.6,20.4,24.8,30.6c0.7,0.8,0.6,2.2,0.9,3.4
		c-1-0.4-2.4-0.5-3-1.2c-9.5-11.6-19.1-23.1-28.3-35c-2-2.6-2.6-6.3-3.6-9.6c-0.2-0.8,0.5-1.9,0.9-2.8
		C1262.5,724.7,1262.9,724.7,1263.2,724.7z"/>
	<path d="M1155.1,458c-0.8,1.7-1.4,3.8-2.7,5.1c-4.5,4.3-9.2,8.5-14,12.5c-6.1,5.1-12.5,9.9-18.6,15.1c-2.6,2.2-4.6,5.1-7,7.6
		c-0.6,0.6-1.7,0.8-2.5,1.2c0-1-0.5-2.3,0-2.8c2.2-2.8,4.4-5.7,7.1-8c8.7-7.3,17.6-14.3,26.4-21.4
		C1147.4,464.3,1151.1,461.3,1155.1,458z"/>
	<path d="M949.4,305.4c-1.8-0.8-2.7-1.1-3.5-1.5c-8.4-4.3-16.9-8.5-25.3-12.9c-5.8-3-11.5-6.3-17.2-9.4c-1.3-0.7-2.7-1.3-3.7-2.3
		c-0.8-0.8-1.1-2.1-1.7-3.2c1.2,0.2,2.4,0.2,3.4,0.7c14.6,7.7,29.1,15.5,43.7,23.3c1.3,0.7,2.7,1.2,3.9,2c0.5,0.3,0.8,1.1,0.8,1.7
		C950,304.4,949.6,305.1,949.4,305.4z"/>
	<path d="M1148.5,500.6c-0.4-1.7-1-2.6-0.7-3.2c0.6-1.3,1.4-2.6,2.5-3.5c12.6-10.5,25.1-21,37.8-31.3c0.9-0.7,2.6-0.6,3.9-0.8
		c-0.7,1.1-1.1,2.4-2,3.2c-12.2,10.1-24.4,20.2-36.6,30.3C1151.9,496.5,1150.7,498.3,1148.5,500.6z"/>
	<path d="M874,265.3c-0.4,0.6-0.7,1.3-1.2,1.9c-6.2,7.1-12.6,14-18.5,21.3c-4.7,5.9-8.8,12.3-13.4,18.4c-0.6,0.8-2,1.1-3.1,1.6
		c0.2-1.1,0-2.4,0.5-3.1c8.6-11.6,17.2-23.3,26-34.8c1.5-2,3.6-3.6,5.6-5c0.9-0.7,2.4-0.7,3.6-1C873.7,264.6,873.9,265,874,265.3z"
		/>
	<path d="M1273.3,947.4c-1,1.3-1.5,1.9-1.9,2.5c-9.9,13.3-18.6,27.3-25.1,42.5c-0.3,0.8-1.3,1.4-2,2c-0.3-1-1.1-2.3-0.8-3
		c3.8-7.9,7.5-15.9,11.8-23.5c3.9-6.7,8.6-12.8,13-19.2c0.6-0.8,1.4-1.7,2.3-2.1C1271.1,946.4,1272.1,947.1,1273.3,947.4z"/>
	<path d="M1270,634.9c0-1.6-0.2-2.2,0-2.6c0.4-0.9,0.9-1.7,1.4-2.5c0.6,0.9,1.4,1.7,1.7,2.6c1.4,4.8,1.6,10.2,4.1,14.3
		c5.1,8.5,11.4,16.3,17.3,24.3c0.5,0.8,1.4,1.4,1.7,2.2c0.3,0.6,0,1.4,0,2.2c-0.7-0.1-1.4-0.1-2.2-0.2c-0.1,0-0.2-0.2-0.3-0.3
		c-9-10.8-18.8-21.2-22.9-35.2C1270.4,637.9,1270.2,635.9,1270,634.9z"/>
	<path d="M897.4,348.4c0.8,0.3,1.5,0.3,2,0.7c12.2,8.7,24.5,17.4,36.7,26.2c1.7,1.2,2.9,3.2,4.4,4.8c-2-0.7-4.2-1.1-5.9-2.2
		c-11.3-7.6-22.5-15.2-33.6-23C899,353.5,896.4,352,897.4,348.4z"/>
	<path d="M1299.4,596.2c-1.5,0.2-2.5,0.6-3.1,0.3c-0.9-0.4-1.6-1.3-2.4-2.1c-10.8-11.1-21.6-22.1-32.3-33.2c-0.8-0.8-1-2.2-1.5-3.3
		c1.2,0.4,2.8,0.4,3.6,1.2c11.2,11.4,22.4,22.8,33.5,34.3C1297.8,593.9,1298.3,594.7,1299.4,596.2z"/>
	<path d="M1261.3,770.5c0.8-1.1,1.3-2,1.9-2.9c0.6,0.9,1.3,1.8,1.7,2.7c1.2,2.5,1.8,5.4,3.5,7.4c6.9,8,14.3,15.7,21.4,23.6
		c0.8,0.9,1.1,2.1,1.6,3.2c-1.3-0.3-3-0.2-3.7-1c-7.9-8.6-15.8-17.3-23.4-26.1C1262.8,775.7,1262.3,772.9,1261.3,770.5z"/>
	<path d="M1239.2,497.9c-0.4-1.2-0.9-2.1-0.7-2.6c0.4-1.1,1.2-2.1,2-2.9c8.3-8,16.7-16.1,25.1-24.1c1-0.9,2-1.9,3.1-2.4
		c1-0.5,2.3-0.4,3.4-0.6c-0.5,1-0.7,2.2-1.5,2.9c-9.6,9.2-19.3,18.4-28.9,27.5C1241.2,496.4,1240.4,496.9,1239.2,497.9z"/>
	<path d="M1260.5,805.3c1.3,1.3,1.9,1.6,2.2,2.1c5,10.2,13.8,16.6,22.5,23.2c1.9,1.4,4,2.6,5.8,4.2c0.8,0.6,1,1.8,1.5,2.8
		c-1.1-0.1-2.5,0.3-3.2-0.3c-7.7-6.3-15.5-12.5-22.9-19.1c-2.5-2.2-4.3-5.3-6.2-8.2C1259.7,809.1,1260.3,807.6,1260.5,805.3z"/>
	<path d="M1201.4,493.9c1.1-1.5,1.9-3.2,3.2-4.4c9.5-9,20.4-16.1,31.9-22.3c0.6-0.3,1.6,0,2.4,0c-0.1,0.7,0,1.8-0.5,2.1
		c-1.3,1.1-2.7,2.2-4.2,2.9c-11.3,5.2-20.6,13.1-29.5,21.5c-0.6,0.6-1.5,0.8-2.2,1.2C1202.2,494.6,1201.8,494.2,1201.4,493.9z"/>
	<path d="M1267.2,692.9c0.8,1.4,1.3,2.1,1.7,2.9c1.6,3.1,2.7,6.7,5,9.1c5.6,6,11.8,11.5,17.8,17.2c0.8,0.7,1.8,1.3,2.4,2.1
		c0.7,1,1,2.2,1.5,3.3c-1.1-0.3-2.5-0.2-3.4-0.9c-1.9-1.4-3.7-3-5.5-4.7c-5.7-5.6-11.6-11-16.9-16.9c-2.1-2.4-2.7-6-3.9-9.2
		C1265.8,695.2,1266.6,694.3,1267.2,692.9z"/>
	<path d="M1291.7,554.2c-1.3-0.4-2.8-0.6-4-1.3c-11-6.9-21.5-14.4-28.1-26.1c-0.4-0.8-0.3-1.8-0.5-2.8c0.9,0.2,1.9,0.3,2.7,0.8
		c0.7,0.4,1.2,1.1,1.6,1.7c5.8,10.8,15.8,17,25.6,23.5c1.1,0.8,2.2,1.7,3.3,2.6C1292.2,553.1,1292,553.7,1291.7,554.2z"/>
	<path d="M1259,873.7c1.1,0.9,1.7,1.3,2.3,1.9c8.3,8.7,16.6,17.3,24.8,26.1c0.8,0.8,0.9,2.2,1.3,3.4c-1.1-0.3-2.6-0.3-3.3-1
		c-8.3-8.5-16.4-17.1-24.6-25.7c-0.6-0.7-1.3-1.5-1.5-2.3C1257.9,875.4,1258.6,874.7,1259,873.7z"/>
	<path d="M1077.3,874.7c-2.2,0-4.2,0-6.5,0c0.2,1.8,0.5,3.3,0.4,4.6c-0.1,0.9-0.8,1.7-1.3,2.6c-0.6-0.7-1.3-1.3-1.7-2.1
		c-0.3-0.7-0.4-1.5-0.4-2.3c0-2.1,0.1-4.2,0.1-6.4c3.1,0.7,6.2,1.4,9.2,2.1C1077.4,873.2,1077.3,873.6,1077.3,874.7z"/>
</g>
</svg>
