<?xml version="1.0" encoding="utf-8"?>
<!-- Generator: Adobe Illustrator 22.0.1, SVG Export Plug-In . SVG Version: 6.00 Build 0)  -->
<svg version="1.0" id="Ebene_1" xmlns="http://www.w3.org/2000/svg" xmlns:xlink="http://www.w3.org/1999/xlink" x="0px" y="0px"
	 viewBox="0 0 1547.9 1049.4" enable-background="new 0 0 1547.9 1049.4" xml:space="preserve">
<g>
	<g>
		<path d="M1399.6,320.7c8.2,0.5,16.4,0.9,24.6,1.4c1.2,0.1,2.4,0.9,3.5,1.4c-1.2,0.7-2.4,2-3.5,2c-6,0-12.1-0.4-18.1-0.6
			c-1.3-0.1-2.5-0.1-4.5-0.2c0.8,1.9,1.3,3.3,1.9,4.7c3.2,7,3.1,13.9-1.9,20c-5.7,7-4.9,14.4-1.4,22.2c0.2-1.3,0.3-2.6,0.7-3.8
			c0.2-0.8,0.6-1.9,1.2-2.1c0.6-0.2,1.9,0.4,2.2,1c2.3,4.4,6.2,6.2,10.6,7.7c1.4,0.5,2.6,2.7,3,4.4c1.1,4.9,1.5,9.9,2.8,14.8
			c1.8,7,7.5,10.8,13.1,14.6c15.6,10.6,27.6,24.4,36.3,41c7.6,14.7,11.4,30.5,13.2,47c0.8,7.4,3.1,14.6,4.6,21.9
			c2.2,10.5,4.2,21,6.4,31.4c1,4.9,1.9,10,3.9,14.4c3.4,7.3,2.6,14.9,3.4,22.4c0.9,8.3,1.9,16.7,1.5,25c-0.3,5.2-2.5,10.5-4.9,15.2
			c-1.1,2.2-4.6,3.5-7.3,4.4c-3.1,1.1-3.4,2.4-2.1,5.1c0.8,1.6,1,3.7,0.9,5.5c-0.5,10.9-1.3,21.9-1.8,32.8c-0.1,2.8,0.6,5.7,0.6,8.5
			c0,3.6,1.4,4.8,5.1,4.8c13.7,0.1,27.3,0.6,41,1c1.6,0,4-0.6,3.2,3.1c-15.8-0.5-31.7-0.9-48.5-1.4c1.8,9.2,3,17.9,5.2,26.5
			c2.5,9.9,5,19.8,10.9,28.4c1.3,1.9,0.7,3.6-1.5,4.8c-2.6,1.4-5.1,2.9-8.3,4.8c5.3,2.9,5.8,7.6,5.4,12.4c-0.5,6.1-1,12.3-2,18.4
			c-1.3,8.1-7.4,12.4-14.1,15.8c-9.2,4.6-18.5,9-27.8,13.4c-4.5,2.2-8.8,4.7-13.4,6.5c-18.6,7.2-36.6,3.3-54.8-2.7
			c-10.7-3.5-18.3-9.6-21.9-20.5c-0.3-0.9-2-1.8-3.1-1.9c-3.6-0.4-7.2-0.5-10.8-0.7c-13.2-0.6-22.3-8.2-29.6-18.1
			c-5.5-7.4-4.2-15,2.2-21.7c9.2-9.6,20.6-13.9,33.7-13.8c2,0,3.7,0,4-2.8c1.2-14.5,2.6-29,3.9-43.5c0.1-1.4-0.1-2.8-0.2-4.4
			c-110,0.9-219.7,3.5-329.8,10.3c-0.1,1.1,0,2.3-0.2,3.5c-1,5.3-2,10.5-3.1,15.8c-0.2,0.8-1.2,1.8-2,2.1
			c-5.5,2.2-8.4,6.6-11.4,11.5c-2.5,4-6.7,7-10.1,10.4c8,4,12.3,11.4,11.6,22.5c3.7-0.6,7.3-0.4,10.1-1.8c5.6-2.7,11.3-5.8,16.2-9.7
			c7.5-5.9,9.9-15.2,6.4-24.1c-1.1-2.8-3.7-5.2-6.1-7.1c-1.9-1.6-4.7-2.1-6.9-3.4c-1.2-0.7-2.1-1.9-3.1-2.8c1.3,0,2.8-0.4,4,0.1
			c5.9,2.3,12.2,4.4,14.6,11.1c3.2,9,3,18.1-3.8,25.4c-7.8,8.3-17.2,14.4-29.2,15.1c-1,0.1-2.4,1-2.7,1.8
			c-3.7,13.2-13.3,20.5-25.4,25c-24.9,9.2-48.9,5.7-72.3-5.3c-3.3-1.5-6.2-3.7-9.5-5.2c-14.3-6.5-19.4-23.1-16.4-37.8
			c0.4-2.1,1.5-4.1,2.7-5.9c1.1-1.7,2.7-3,4.3-4.8c-13.6-4.4-26.9-5.3-40.4-1.1c-2.5,0.8-4.9,1.7-7.3,2.5c-4.7,1.5-6.6-0.2-6-5
			c1-8,1.7-16.1,2.6-24.7c-4.7,0-9.4,0.1-14.1,0c-4.5-0.1-9,0.4-13.2-1.2c0-0.5,0-1,0.1-1.5c1.3-0.2,2.5-0.5,3.8-0.5
			c7.1,0,14.2-0.1,21.3,0.1c2.4,0.1,3.5-0.9,3.8-3.2c2.4-19.4,5.4-38.8,7.1-58.3c1.7-19.4,4.9-38.6,8.2-57.8
			c2.2-13.2,5.3-26.2,4.5-39.8c-1.3-22.6-1.6-45.4-2.3-68c-0.3-12.7,2.7-24.8,5.8-36.9c2.3-8.9,2.3-17.8-0.9-26.5
			c-1.1-3-2.7-5.9-3.7-8.9c-0.5-1.7-0.8-4,0-5.3c0.5-0.8,3.4-0.8,4.9-0.3c2.9,1,5.6,2.6,8.4,3.8c4,1.8,7.9,3.4,12.5,5.4
			c1.7-7.2,3-13.6,4.7-19.9c1.2-4.3,1.2-8.2-1.6-11.6c-2.7,1.5-5.5,2.7-8,4.4c-1.1,0.7-1.9,2.1-2.4,3.4c-2.1,5.1-3.3,4.9-7.6,1.3
			c-11.9-9.8-15.8-23.8-20.8-37.3c-0.7-1.9-1.5-3.8-2.6-6.7c-3.4,5-6.5,9.4-9.5,13.8c-0.4,0.6-0.6,1.5-1.2,2c-0.7,0.6-1.6,1-2.4,1.6
			c-0.4-1-1.2-2-1-2.9c0.9-4.4,1.8-8.8,3-13.2c3-11.2,3.8-22.5,3.7-34.1c-0.1-12.3,1.1-24.7,1.8-37c0.1-1.2,0.2-2.3,0.3-3.5
			c0-0.3-0.2-0.7-0.5-1.5c-4.5,2.7-8.7,5.3-13.1,7.7c-1.8,0.9-3.9,1.2-5.9,1.7c0.8-1.9,1.1-4.2,2.4-5.5c11.4-11.7,16.5-27,23.5-41.1
			c9.7-19.7,23.6-35.2,42.5-46.2c4.3-2.5,8.6-5.1,13.9-8.3c-4.5-0.7-8-1.5-11.5-1.8c-3.8-0.3-7.7,0-11.6-0.3
			c-0.8-0.1-1.6-1.2-2.3-1.9c0.8-0.5,1.6-1.4,2.3-1.4c4.1-0.1,8.3,0.3,12.4,0c5.7-0.4,11.6-0.8,17.2-2c11.2-2.4,22.2-5.9,33.9-4.9
			c4.1,0.3,8.2,0.9,12.2,1.6c5.3,0.9,10.6,2.5,15.9,2.9c8.8,0.7,15.1,6,21.9,10.7c8.5,5.9,14.2,14.4,20.8,22.1
			c5.7,6.6,5.9,14.8,6.2,23c0.1,3.2,0.8,6.5,1.7,9.7c4.1,13.9,6.2,28.2,6.5,42.6c0.1,4.5-1.2,9.1-2.2,13.6c-0.6,2.6-0.4,4,2.5,4.9
			c7.2,2.2,9.6,6.2,9.1,14.1c-0.3,4.6-5.6,10-11.2,10.8c-2.6,0.4-3.4,1.5-3.9,4.1c-3.1,14.9-9.7,28.2-20.1,39.4
			c-1.6,1.7-3.4,3.2-4.9,5c-7.8,9.7-18.7,14.8-29.2,20.5c-1.2,0.7-2.8,2.4-2.7,3.5c0.5,7.7,1.2,15.3,2.4,22.9
			c0.6,3.9,2.5,7.6,3.8,11.3c0.3,0.8,0.8,1.7,1.5,2.1c14.5,8.2,27.1,19.8,44.2,23.3c4.6,0.9,8.9,3.5,13.1,5.7
			c3.4,1.8,6.5,2.2,10,0.6c7.4-3.3,15.2-4.5,23.3-4.9c5.2-0.3,10.4-2.4,15.8-3.8c-1.9-4.4-3.6-8-5.1-11.7c-0.8-2-1.7-4.1-2.1-6.2
			c-0.7-3.5,0.8-4.7,4.1-3.5c2,0.8,4,1.8,5.9,2.8c7.9,4.1,16,6.8,25.3,5.1c5-0.9,10.3-0.9,12.4,5.3c3.7-1.8,4.3-3.5,2.5-7.3
			c-3.2-6.7-5.3-13.8-7.8-20.8c-1-2.9,0.6-4.9,2.7-6.7c6.2-5,13.6-7.2,21.1-9.4c12.1-3.5,24.2-3,36.4-1c3.2,0.5,4.2,2.4,4.7,5.5
			c0.7,4.2-1.2,7.7-1.9,11.5c-1.4,7.5-2.3,15-3.4,22.5c-0.1,0.6,0.1,1.3,0.5,1.7c7.2,7.6,7.6,16.9,6.6,26.5
			c-0.4,3.4-0.6,7.2-2.2,10.1c-3.2,5.7-1.6,10.7,1,15.7c6.5,12.6,13.2,25.1,19.6,37.7c5.5,10.8,11,21.6,15.8,32.6
			c2.5,5.6,1.1,6.5-4.8,7.9c-6.7,1.6-13.5,3.6-19.9,6.2c-10.7,4.5-22.1,4.9-33.3,6.4c-12.6,1.6-25.4,0.4-38,3.7
			c-10.9,2.8-14.9-1.4-13.1-12.8c1.8-11.3,4.6-22.5,7-33.7c1-4.9,2.1-9.8,3.4-15.5c-4.7,1.7-8.4,3.2-12.2,4.5
			c-5.4,1.9-6.6,1.2-7.5-4.4c-1.3-7.6-0.1-7.9-8.6-5.2c-24.1,7.6-48.2,15.1-72.2,23c-4.3,1.4-8.2,4.4-12,6.9
			c-0.9,0.6-1.3,2.4-1.6,3.7c-2.2,9.8-0.8,19.5,0.7,29.2c1.9,12.6,3.5,25.3,6,37.8c1.5,7.9,4.7,15.5,6.5,23.5
			c3.1,13.4,4.2,27,3.2,40.7c-0.3,4,0.2,8,0.3,11.9c0.1,2.4,1.1,3.2,3.7,3.1c19.8-1,39.7-1.9,59.5-2.8c22.6-1,45.1-2.3,67.7-2.9
			c65.1-1.6,130.3-3,195.4-4.4c1.4,0,2.8-0.2,5-0.3c-0.9-4-1.3-7.8-2.5-11.2c-4.2-11.4-4.9-23.2-3.5-35.1c0.4-3.8,2-7.5-1.3-10.8
			c-2.1,1.1-4.3,2.9-6.8,3.5c-3.5,0.8-7.4,1.6-10.9,1c-5.2-1-9.1-0.3-12.2,4.1c-0.5,0.7-1.9,0.8-2.8,1.2c0-1-0.4-2.2-0.1-3.1
			c7.7-19.7,12.1-40.2,14-61.3c0.8-8.7,2.2-17.3,3.4-26.9c-2.4,0.8-5.1,1.2-7.1,2.6c-4.7,3.2-9.1,6.8-13.4,10.4
			c-3,2.5-5.9,4.6-10.1,3.1c-0.7-0.3-2,0.3-2.7,0.8c-8.1,6.1-16.1,4.7-24.2,0.2c-1.2-0.7-3.2-0.9-4.4-0.4
			c-10.5,4.3-21.1,2.5-31.6,0.7c-2.5-0.4-5.4-2-6.9-4c-4.8-6.1-10.3-12.2-13.2-19.3c-3.6-8.6,0.4-17,5.1-25.2
			c-0.7-0.5-1.7-1.5-2.9-2.1c-3.2-1.8-3.4-4.2-1.2-6.6c4.5-5.1,6.7-11.2,8.9-17.5c0.4-1.2,0.9-2.5,1.6-3.5c0.5-0.7,1.6-1.7,2.3-1.5
			c0.7,0.1,1.8,1.3,1.9,2.1c0.9,6.5,6.6,9.3,10.3,13.6c0.5,0.6,2.1,0.6,3,0.2c11.8-4.5,23.6-9.1,35.4-13.5c4.5-1.7,9.3-2.8,14.1-4.2
			c1.7-1.8,4-3.9,6-6.3c2-2.3,4-4.7,5.4-7.4c4-7.3,5.8-15,4.2-23.4c-0.8-4.1-5.3-6.1-8.8-3.9c-1.8,1.1-4,1.7-6.1,2.2
			c-0.6,0.2-1.9-0.5-2.1-1.1c-0.2-0.6,0.3-1.7,0.8-2.2c0.6-0.6,1.5-1.2,2.3-1.4c5.4-1.2,7-5.4,7.5-10c0.9-8.8,3.1-17.2,8.1-25.5
			c-1.6,0.3-2.5,0.3-3.4,0.6c-7.3,2-13.7,0.7-19.5-4.3c-7-6.1-14.4-11.7-21.3-17.9c-3.2-2.9-5.4-6.7-8.3-10.3
			c-7,4.1-14.4,4-21.6-1.1c-8.3-5.9-8-14.3,0.8-19.5c0.9-0.5,1.7-1,2.5-1.6c-3.5-6-6.8-11.8-10.2-17.5c-4.4-7.1-7.1-14.8-8.5-23.1
			c-0.3-1.9-0.2-4.1-2.9-4.8c-0.7-0.2-1.2-1.8-1.4-2.9c-0.5-2.1-0.6-4.3-1-6.4c-0.6-2.9,1-3.9,3.3-4.7c6.4-2.3,12.8-4.8,19-7.2
			c-5.3-9.6-5.7-20.2-7.2-31.4c-3.3,1.4-6.7,2.5-9.8,4c-4.9,2.3-9.7,4.9-14.5,7.3c-0.9,0.5-1.9,1-2.9,1c-1.2,0.1-2.5-0.3-3.8-0.4
			c0.6-1,1-2.3,1.9-3c5.8-5.1,11.7-10.1,17.5-15.2c0.6-0.5,1.1-1.3,1.2-1.3c-6.3-1.1-12.7-2.2-19-3.4c-0.9-0.2-1.7-1.2-2.5-1.9
			c1-0.6,1.9-1.5,2.9-1.7c5.9-1,11.9-1.8,18.8-2.8c-3.1-4.7-5.5-8.4-8-12.2c-2.5-3.8-5.1-7.5-7.3-11.4c-2.1-3.7-1-5.9,3.2-6.7
			c2.6-0.5,5.4-0.5,8.1-0.7c5.7-0.5,7.6-2.9,7.4-8.6c-0.1-1.9,0.4-3.9,0.7-5.8c2.1,0.6,4.4,1,6.3,2c3.1,1.6,5.8,3.8,8.9,5.5
			c3.4,1.8,4.5,1.2,5.2-2.7c0.3-1.6,0.1-3.3,0.3-5c0.3-3.8,2.6-5.2,6.2-3.9c0.4,0.1,0.8,0.2,1.1,0.5c4.8,4.4,8.4,2.3,12.3-1.6
			c3.5-3.5,5-2.9,7.8,1.3c0.9,1.3,2,2.4,3.8,4.4c0.5-5.5,0.7-9.8,1.2-14.1c0.1-1.1,0.9-2.2,1.4-3.3c0.9,0.8,2.1,1.4,2.5,2.4
			c1.4,3.3,3.4,3.1,5.7,1.2c1.9-1.5,3.7-3.2,5.8-4.4c0.9-0.5,2.4,0.5,3.7,0.8c-0.8,0.7-1.5,1.3-2.3,2c-1.4,1.1-2.8,2.2-4.2,3.2
			c-2.8,2.1-5.6,4.4-9.9,1.7c-0.2,2.9-0.1,5.5-0.5,7.9c-0.3,1.6-1.3,3.9-2.4,4.2c-1.5,0.4-3.7-0.5-5.1-1.6c-1.5-1.1-2.4-3-3.5-4.5
			c-2.1,0.9-17.8,3.1-20,2.6c-0.4,2.6-0.5,5.3-1.1,7.9c-1.1,4.9-3.8,6.3-8.2,4.1c-4.1-2.1-8-4.7-12.5-7.4c0,1.7,0,2.9,0,4.1
			c-0.1,6-2.3,8.7-8.2,9.8c-2.3,0.4-4.6,0.4-6.9,0.6c-1.4,0.2-2.7,0.5-5,1c2.6,4.1,4.8,7.7,7.1,11.2c2.6,4,5.4,7.9,7.8,12
			c2.5,4.2,1.8,5.7-2.9,6.7c-2.7,0.6-5.4,1.2-8.1,2.6c2.9,0,5.8-0.1,8.6,0c1.9,0.1,3.8,0.7,5.7,1.1c-0.9,1.8-1.4,4-2.8,5.5
			c-2.9,3.1-6.3,5.8-9,9.4c3.3-1.6,6.6-3.2,10-4.7c3.3-1.4,6.8-2.6,10.7-4.1c2.1,4.4,4.5,9.3,7.4,15.3c1.7-3,2.6-4.7,3.7-6.4
			c5.3-8.7,10.6-17.4,15.9-26.1c0.5-0.8,1.6-1.6,2.3-1.5c0.8,0.1,1.8,1.2,1.9,2c0.6,4.8,1.3,9.7,1.4,14.5c0.1,4.7-0.5,9.5-0.1,14.6
			c1.6-2.1,3.2-4.1,4.7-6.2c3-3.9,5.8-7.9,8.9-11.7c3.3-4.1,4.8-4,8.2,0.2c4.4-3.4,8.5-7.2,13.2-10c3.3-2,7.4-2.7,11.2-3.6
			c2.3-0.5,2.9,1.4,2.4,3.3c-0.6,2.4-1.6,4.6-2.2,7c-0.5,1.7-0.7,3.5-1.1,5.4c7.2-1.4,7.8-0.5,7.3,10c3.2-0.8,6.2-1.8,9.3-2.4
			c1.3-0.2,2.8,0.5,4.2,0.7c-0.4,1.3-0.4,2.8-1.1,3.8c-2.1,3.1-4.6,5.9-6.8,8.9c-0.8,1.1-1.4,2.3-2.5,4.1c3.6,0,7.4-1.1,9,0.3
			c1.7,1.5,1.2,5.4,1.7,8.7c2.1-0.4,4.6-0.8,7.6-1.3c0.3,2.3,0.7,4.3,0.8,6.3c0.2,8.9,0.2,17.8,0.4,26.7c0,1.7,0.4,3.3,1.4,5.3
			c2.4-4.6,4.8-9.1,7.4-13.6c0.8-1.5,2-2.7,3-4.1c1,1.4,1.9,2.8,2.9,4.2c0.3,0.4,0.5,0.9,0.9,1.7c1.5-0.8,2.9-1.7,4.4-2.4
			c3.3-1.6,5.5-1,6.2,2.6c1.3,6.8,8.2,7.7,11.7,12.1c0.3,0.4,1.8-0.2,2.8-0.3c0.9-0.1,1.9-0.2,2.8-0.3c-0.4,1-0.7,1.9-1.1,2.9
			c-0.1,0.3-0.4,0.7-0.5,1c-2-0.2-4.7,0.3-5.8-0.9c-4.6-4.5-12-6.5-13.2-14.2c0-0.1-0.4-0.2-0.8-0.4c-3.4,1.1-6.9,6.2-10.7-0.3
			c-2.9,5.8-5.6,11.1-8.4,16.3c-0.7,1.2-1.9,2.1-2.8,3.2c-0.7-1.2-1.8-2.5-1.9-3.7c-0.7-9.2-1.1-18.5-1.6-27.8c-0.1-2.7,0-5.3,0-9.3
			c-7.2,3.7-14.5,5.8-19.7,10.4c-11.8,10.2-23.2,20.9-33.4,32.7c-9.4,10.8-20.2,19-33,25c-2.5,1.2-5.4,1.2-8,2.3
			c-3,1.3-6.1,2.7-8.6,4.7c-2.7,2.3-2.4,5.6-0.4,8.4c3.5,4.9,11.2,7.7,16.9,5.9c2.1-0.7,4-2.2,5.8-3.5c0.8-0.6,1.2-1.6,1.7-2.5
			c0.7,1.1,1.8,2.1,2,3.3c0.9,4.6,3.1,8.4,6.7,11.4c7.1,5.9,14.4,11.8,21.4,17.8c5.3,4.6,11.2,5.8,17.6,3.5c7.1-2.6,14.5-5,21.1-8.6
			c17.3-9.4,33.4-20.5,45.7-36.2c2-2.5,3.6-5.4,5.9-7.5c7.1-6.5,7.8-13.6,3.7-22C1398.9,326.5,1399.7,323.4,1399.6,320.7z
			 M853.7,735.9c0.5,0.2,1,0.4,1.4,0.7c2.2-0.7,4.3-1.5,6.5-2.2c11.1-3.5,22.4-4.8,33.9-2.1c2.8,0.7,5.5,1.4,8.3,1.7
			c15,1.6,29.5,4.6,43.2,11.1c6.5,3.1,13.4,4.3,20.7,3.1c8.8-1.4,17.7-1.9,26.4-3.5c6.1-1.2,12.1-3.4,18-5.7c2.8-1.1,5.5-3.3,5-6.9
			c-1.1-7.9-2.4-15.8-3.9-23.6c-4.7-24.5-7-49.2-7.4-74.2c-0.2-11.7-0.1-23.5,0.1-35.2c0.1-3.6,1.1-7.1,1.5-10.7
			c0.6-4.3,1.5-8.6,1.4-13c-0.2-7.2-1.1-14.4-1.7-21.6c-0.1-1.3,0.2-3-0.5-3.7c-4.9-4.8-9.9-9.4-15-13.9
			c-6.8-5.9-13.6-11.8-20.6-17.4c-4.6-3.7-9.4-7.1-14.4-10.1c-9-5.5-18.3-10.5-27.4-15.8c-0.9-0.5-1.2-1.9-1.8-2.9
			c1.3,0.2,2.7,0.1,3.7,0.7c8.5,4.8,16.7,10.1,25.5,14.5c6.8,3.4,12.9,7.4,18.1,12.9c4.2,4.5,9.1,8.4,13.8,12.4
			c6,5.2,12.1,10.3,18.3,15.3c1.3,1,3.3,2,4.7,1.7c3.5-0.8,7.3-1.6,10-3.6c7.5-5.7,16.5-7.2,25-10.1c15.3-5.1,30.5-10.3,45.8-15.3
			c6.3-2.1,12.9-3.6,19.7-5.5c-5.1-20.2-10.1-40.1-15-59.7c-5.9,1.4-10.8,3.3-15.9,3.6c-8.1,0.4-15.9,1.6-23.3,4.9
			c-4.3,1.9-8.4,1.4-12.6-0.9c-4-2.2-8.3-4.7-12.7-5.5c-13-2.3-23.3-9.8-33.7-16.7c-10.5-7.1-22.3-11.9-33.1-18.4
			c-8.7-5.2-18.6-6.6-28.8-3.5c-1.3,0.4-2.8,0.3-4.2,0.7c-9.3,2.6-18.7,5.2-28,7.9c-0.6,0.2-1,1-1.3,1.6c-2,3.8-4.9,6-9.5,6.1
			c-5.9,0.1-10.5,3.4-11.9,8.7c-2.6,9.7-5.6,19.6-5.8,29.5c-0.6,25.4-1.1,50.8,1.7,76.2c0.6,5.3,0.5,10.9-0.3,16.2
			c-2.9,18.3-6.9,36.5-9.3,54.9c-2.7,20.6-4.2,41.3-6.4,61.9c-1,9.3-2.4,18.6-3.8,27.9C856.9,717.6,855.2,726.7,853.7,735.9z
			 M1379.6,660.4c0.4,0.1,0.7,0.3,1.1,0.4c2.2-2.1,4.6-4,6.7-6.2c7.7-7.8,16.9-11.6,27.9-11c3.5,0.2,6.9,0.7,10.4,0.9
			c11.9,0.6,23.4-1,34.6-5.1c9.9-3.6,19.7-7.5,29.5-11.4c2.1-0.8,4.9-1.6,5.9-3.2c3.6-6.2,5.8-12.9,4.7-20.3
			c-0.7-4.6-1-9.2-1.5-13.8c-1-8.8,0.2-17.8-3.8-26.2c-1.6-3.5-2.8-7.3-3.6-11.1c-2.5-12-4.7-24-7-36c-1.5-7.7-3.8-15.3-4.6-23.1
			c-1.6-15.7-5.8-30.7-13-44.6c-7.9-15.3-19.2-28.1-33.3-38.1c-5.9-4.2-11.7-8.2-15.4-14.9c-1.1,1-2,1.8-2.8,2.6
			c-0.6,0.6-1.2,1.3-1.9,2c1.7,1.3,3.3,2.4,4.6,3.7c0.5,0.5,0.4,1.5,0.6,2.3c-0.8,0-1.8,0.2-2.4-0.1c-2.1-1.2-4-2.9-6.3-3.8
			c-11.7-4.6-23-3-33.8,3c-4.8,2.7-9.6,5.6-14.1,8.8c-13.1,9.6-23.2,21.7-29.9,36.7c-4.9,11-6.8,23.7-17.6,31.6
			c-0.5,0.4-0.3,3.2,0.4,3.7c3.4,2.5,7.1,4.5,10.6,6.8c0.7,0.5,1.2,1.4,1.8,2.1c-0.9,0.3-2,1-2.6,0.7c-3-1.4-6.4-2.5-8.8-4.7
			c-4.3-3.9-8.9-4.2-13.9-2.4c-12.5,4.7-25,9.6-38.1,14.7c1.1,2,1.7,4.3,3.2,5.6c6.3,5.6,12.6,11.1,19.3,16.1
			c5.7,4.4,9.4,10.1,13.1,16c3.7,5.7,7.7,11.3,12.3,16.3c5.1,5.6,5.6,5.3,11.1,0.2c1.7-1.6,3.4-3.2,5.2-4.6c5.6-4.6,11.6-8,19.1-8.5
			c3.2-0.2,6.7-1.4,9.4-3.1c13.6-8.6,27.4-17.2,34.9-32.4c3.5-7.2,7.1-14.3,10.6-21.5c0.4-0.8,1.2-1.4,1.8-2.1c0.3,1,1,2,0.9,2.9
			c-0.1,1.2-0.7,2.5-1.2,3.6c-2.2,4.5-4.1,9.2-6.8,13.5c-4.7,7.5-10,14.6-15,22c-0.9,1.3-1.8,3-1.7,4.4c0.5,9,1.3,18,2,26.9
			c0.5,5.8,1.8,11.6,1.5,17.3c-1.2,23.5-2.9,47-4.3,70.6C1379.4,652,1379.6,656.2,1379.6,660.4z M1033,223.2
			c0.8-7.6-0.5-14-5.1-19.4c-6.4-7.5-12-15.8-20.3-21.5c-6.1-4.2-11.7-9.2-19.7-9.9c-4.6-0.4-9.2-1.3-13.7-2.5
			c-18.4-5.3-35.9-0.3-53.6,4.4c2.7,3.5,2.6,5-0.1,6.4c-4.5,2.4-9.1,4.8-13.5,7.4c-18.6,10.8-32.5,25.9-41.5,45.5
			c-4.9,10.6-10.6,20.9-16,31.2c-1.1,2.1-2.7,3.9-4.1,5.8c2.8-0.8,5.1-2.2,7.5-3.3c1.8-0.9,3.7-1.4,5.6-2.1c0.3,2.2,1.1,4.5,0.9,6.6
			c-1.8,14-3.2,27.9-1.8,42c0.3,3.2,0.8,6.5,0.3,9.6c-1.3,8-3,15.9-4.6,23.9c-0.2,0.9-0.2,1.8-0.3,2.8c3.4-3.7,6.5-7.1,10-10.9
			c8.4,16.8,9.7,36.3,26.6,47.5c0.7-4.1,3.4-6.6,7.5-7.9c1.3-0.4,2.3-2,3.4-3c1.1-1,2.3-2,3.4-3.1c0.8,1.4,1.7,2.7,2.4,4.1
			c1.1,2.3,2,4.7,3.3,7.6c0.9-1.2,1.2-1.4,1.3-1.8c3.7-12.2,7.3-24.5,11-36.7c0.4-1.3,1.5-2.5,2.3-3.7c1,0.7,2.1,1.5,3.2,2.3
			c0.6-6.3,1-12.6,1.9-18.8c1.2-8.3,2.4-16.6,4.4-24.7c1.6-6.7,4.2-13.2,6.7-19.7c0.9-2.4,2.9-4.3,5.6-1.8c4.4-6,8.4-12,13-17.5
			c4.5-5.5,9.2-10.8,14.4-15.5c5.5-5,11.9-9,17.8-13.6c5.1-4,12.1-7.3,7.3-16c-0.3-0.5,0.2-1.4,0.3-2.1c0.8,0.2,1.9,0.2,2.4,0.7
			c3.7,3.9,7.9,3.2,12.4,1.9c0.7-0.2,1.7-0.2,2.4,0C1021.4,219.3,1027,221.2,1033,223.2z M941.5,285.1c-0.4,1.1-1,2.3-1.3,3.5
			c-1.7,7.1-3.3,14.3-5,21.4c-3.3,13.7-5,27.6-5.1,41.7c0,1.2-0.1,2.3-0.5,3.4c-0.2,0.8-1,2-1.4,1.9c-0.9-0.1-2-0.7-2.4-1.5
			c-0.8-1.4-1.1-3-1.9-5.2c-0.5,1.1-0.7,1.5-0.8,1.9c-3.1,10.2-6.1,20.5-9.3,30.7c-0.4,1.4-1.6,3.4-2.5,3.5c-3.9,0.3-3.4,3-3.7,5.6
			c-0.3,3.2-0.4,6.5-1.3,9.5c-0.8,2.8-2.5,5.3-4,8.6c2.4,0.5,3.7,0.9,5.1,0.9c10.4,0.4,20.8,0.9,31.3,0.9c9.4,0,18.5,0.8,27,5.2
			c5.5,2.8,11,5.6,16.4,8.3c0.7,0.4,1.5,0.5,3.2,1.1c-5.6-11.5-7.1-22.9-6.6-34.9c-2.8,0.2-5.2,0.5-7.6,0.6c-14.4,0.4-29,2-41.7-7.3
			c-0.9-0.7-1.4-2-2.1-3c1.2,0.1,2.6-0.1,3.5,0.5c6.4,4.2,13.2,7.1,21,6.8c9.4-0.3,19.1,0.6,28-1.7c11.2-2.8,21.2-9.1,29.4-17.7
			c3-3.2,6.4-6,9.2-9.4c8.9-11.2,16.1-23.4,17.8-38c0.3-2.7,1.4-4,4-4.3c1-0.1,2-0.3,3-0.5c4-0.9,7.8-5,7.9-8.5
			c0.3-6.1-1.4-8.6-7-10.5c-5.4-1.8-5.6-2.8-4.5-8.6c1.1-6,2.4-12.3,1.9-18.3c-1-13.9-2.8-27.7-7.7-40.9c-0.9-2.4-3.2-5.1-5.4-6
			c-7.9-3.2-16.2-4.6-25-3.6c-0.7,6.5-5.1,10.6-10.2,13.6c-18.2,10.7-31.1,26.5-42.9,43.4c-1.3,1.8-1.8,4.2-2.7,6.4
			c-0.8,1.9-1.6,3.8-2.4,5.7C944.1,288.8,942.9,287.1,941.5,285.1z M1393.2,757.2c-0.2-1.4-0.4-2-0.5-2.6c-4-24.2-2.1-48.6-3.4-72.9
			c0-0.8,0.9-1.6,1.3-2.4c0.6,1.1,1.6,2.2,1.6,3.3c0.4,16.8,0.5,33.5,1.2,50.3c0.3,8.2,1.8,16.4,3.1,24.5c0.2,1.2,2.2,2.9,3.5,3
			c3.8,0.4,7.8,0.6,11.6,0.2c19.2-2.5,38.5-3,57.9-3.2c11.9-0.1,23.4-2.2,32.7-10.8c-1.1-2.2-2.6-4.7-3.7-7.3
			c-6.4-14.8-9.5-30.5-11.7-46.3c-1.9-13.2-2.8-26.3-1.1-39.7c0.8-6.5,3.1-13.7-1.8-20.1c-6.2,2.6-12.5,5.2-18.8,7.7
			c-14.2,5.8-29,8-44.3,6.2c-11.6-1.4-22.1,0.5-30.6,9.2c-1.8,1.8-3.7,3.6-5.7,5.3c-1,0.8-2,1.7-3.1,2.2c-2.4,1.2-4.2,0.6-4.4-2.2
			c-0.3-4.2-0.5-8.5-0.4-12.7c0.1-4.4,0.7-8.8,1.1-13.4c-3.3,0.6-6.2,1.8-8.8,1.5c-3.4-0.4-4,1.1-4.3,3.7
			c-1.1,10.6-1.3,21.1,2.3,31.3c2.5,6.9,3.9,13.9,3.3,21.2c-1.2,14.8-2.4,29.5-3.8,44.3c-0.3,3.4,0.4,4.8,4,5.1
			c8.8,0.9,16,4.7,20.9,12.4C1391.6,755.6,1392.2,756.1,1393.2,757.2z M1494.8,756.1c-5.1,1.2-9.2,2.8-13.5,3.2
			c-8.1,0.8-16.2,0.8-24.3,1.2c-10.9,0.5-22,0.4-32.8,1.9c-10.7,1.4-21.3,1.8-31.8,0.4c-6.5-0.9-11.9,0.5-16.3,4.8
			c-4.7,4.6-7.7,10.2-7.6,17.2c0.1,12.1,3.6,25.8,20.8,30.4c5.1,1.4,10.2,2.9,15.2,4.5c13.7,4.2,27,2.8,40.1-2.2
			c6.2-2.3,12.1-5.3,18.1-8.2c7.3-3.6,14.5-7.3,21.6-11.2c4.1-2.3,8.7-4.5,10.4-9.4C1498.5,777.8,1500.4,766.7,1494.8,756.1z
			 M908.7,737.5c-1.3,1.7-2.3,3-3.3,4.3c-1.2,1.5-2.7,2.8-3.5,4.5c-5,10.6-0.1,28.6,9.8,34.7c14,8.6,28.7,15.2,45.5,17.1
			c14.7,1.6,28.5,0.1,41.9-5.9c7.7-3.5,14.2-8.4,17.7-16.4c2.8-6.4,3.4-13,0.7-19.5c-3.1-7.5-10.4-10.9-18.3-9.5
			c-7.1,1.3-14.4,1.2-21.4,2.9c-12,2.8-23.5,2.8-34.6-2.8C932.3,741.3,920.4,739.3,908.7,737.5z M1230.6,564.2
			c-6.8-19.8-19.2-37.3-29-56.2c-7.3,5.2-15.7,5.4-24.4,7.3c5.1,10.5,10,20.5,14.8,30.4c2.2,4.4,1.7,5.8-3.2,6.5
			c-5.9,0.7-11.8,1.2-17.7,1.5c-3.1,0.2-5.2-1.1-5-4.8c0.3-6.3,0.4-12.6,0.8-18.9c0.3-4.7,0.8-9.4,1.3-14.2c-3.8,0.7-7.1,1.3-10.7,2
			c0.2,3.6-2.3,4.1-5.5,3.9c-3.6-0.2-7.2-0.1-10.8-0.2c-2.9-0.1-4.3,1.4-5,4.3c-2.1,9.5-4.5,19-6.4,28.6c-1.5,7.8-2.8,15.7-3.5,23.6
			c-0.4,4.2,1.1,5.4,5.3,5c4-0.3,7.8-1.7,11.8-2c10.8-0.9,21.6-1.3,32.3-2.4c8.4-0.9,16.9-2,25.1-4.1
			C1210.6,571.7,1220,567.8,1230.6,564.2z M1091.6,431.8c1.1,2.7,1.9,4.4,2.4,6.2c1.7,6.1,5.8,11.1,7.2,17.6
			c3.9,18.8,9,37.3,13.5,56c1.1,4.6,1.9,9.2,2.8,13.8c0.7,0,1.1,0.1,1.5,0c10.7-4.2,21.3-8.6,33.3-6.8c0.6,0.1,2.3-1.7,2.3-2.6
			c-0.1-4.5-0.4-9-1.1-13.4c-3.2-19.1-12.6-36.2-18.2-54.5c-2.7-8.8-3.1-8.9-12.4-7.9c-6,0.6-11.8,0.4-17.4-2.1
			C1101.1,436.1,1096.9,434.2,1091.6,431.8z M1156.7,499.5c9.2-1.2,18.8-2.3,26.5-9.6c10-9.5,13-21.4,12.2-34.5
			c-0.9-15.2-15.8-27.1-28.9-24.7c-10.2,1.9-18.9,6.5-26.6,13.3c-1.7,1.5-1.9,2.9-1.1,5C1144.8,465.6,1150.6,482.2,1156.7,499.5z
			 M1344,284.5c-34.4,7.6-69.1,15.3-104,23c0.1,0.9,0.2,1.9,0.3,2.9c1.9,13.9,9.9,25,16.8,36.6c2.3,4,5.4,3.9,8.8,2.3
			c11.4-5.4,21.9-11.8,30.3-21.6C1310.3,311.3,1325.3,295.8,1344,284.5z M1019,728.4c4.4-3.2,8-5.9,11.7-8.6
			c0.3-0.2,0.6-0.6,0.7-0.9c0.9-3.7,2.5-7.4,2.5-11.2c0.1-9.1-0.3-18.3-0.9-27.4c-0.7-11.7-1-23.5-2.8-35
			c-1.3-8.3-5.5-16.2-6.7-24.6c-3.5-23.3-9.8-46.4-7.3-70.5c-2,0.2-4.1,0.5-5.9,0.7c0.4,5.9,0.4,11.7,1.1,17.4
			c1,7.9,1.4,15.7-1.5,23.3c-0.6,1.5-0.7,3.3-0.8,4.9c-1.4,23.7-0.2,47.5,1.5,71.1c1,14.1,3.9,28.1,6,42.1
			C1017.4,716,1018.2,722.1,1019,728.4z M1328.2,233.4c-1.1,0.1-1.6,0.2-2.1,0.2c-7.3,1.1-11.8,6.6-17.1,10.7
			c-4.9,3.8-4.8,3.9-9.1-0.3c-1.1,1.3-2.2,2.5-3.2,3.9c-4,5.4-7.9,10.8-12.1,16.1c-0.9,1.1-2.7,1.5-4.1,2.3
			c-0.5-1.4-1.4-2.7-1.4-4.1c0-4.1,0.5-8.2,0.6-12.4c0.1-4.5,0-9.1,0-13.6c-0.4,0-0.7-0.1-1.1-0.1c-0.5,0.6-1,1.1-1.4,1.7
			c-5.3,8.7-10.6,17.4-15.8,26.1c-2.6,4.4-3.6,4.6-6.8,0.4c-1.1-1.4-2.2-2.9-3.2-4.4c-0.3,0.2-0.6,0.3-0.9,0.5
			c1.2,6,2.3,12.1,3.8,18.1c1.2,4.5,3.5,5.2,8,4.3c9.2-1.8,18.5-3.4,27.8-4.9c14.4-2.4,28.7-4.7,43.1-7.1c0.7-0.1,1.6-0.4,2-0.9
			c3-4.1,5.9-8.4,9.6-13.5c-3.6,1.1-6.2,2-8.9,2.7c-1.3,0.3-2.6,0.2-4,0.3c0-1.2-0.2-2.4-0.1-3.6c0.2-2.3,0.5-4.7,0.8-7.2
			c-7.2,1.4-8.6,0-7.1-6.6C1326.2,239.3,1327.2,236.7,1328.2,233.4z M1366,792.5c-1.4-8.2-0.5-15.7,4.2-22.6
			c4.8-7,11.2-10.6,19.8-10.7c-3.2-6.3-6.9-9.1-12.6-12c-4.9-2.5-9.9-2.3-15-2.4c-12.2-0.2-23.4,2.4-32.7,11.2
			c-8,7.7-8.6,14.9-1.2,23.2C1338.4,790.2,1350.7,794.4,1366,792.5z M1234.3,512.5c3.4,2.7,7.4,5.5,11,8.7c7.2,6.4,15,12.4,21,19.8
			c6.6,8.1,13.7,15.4,21.7,21.9c5.3,4.3,16.6,6.7,21.9-0.2c-5.6-8.4-11-16.6-16.7-24.7c-2.2-3.1-4.9-5.9-7.8-8.4
			c-11.7-10-23.7-19.8-35.4-29.9c-2.3-2-4.1-4.6-5.7-6.6C1241.1,499.4,1237.7,505.9,1234.3,512.5z M1375.9,533.1
			c-4.1,3.1-8.6,6.4-13.1,9.9c-0.4,0.3-0.5,1.1-0.6,1.7c-0.3,5-0.8,10-0.7,15c0.7,23.3,1.5,46.6,2.3,69.9c0,0.9,0.4,2.1,1,2.8
			c3.1,3,6.4,1.3,9.8,0.5c2.9-0.7,3.4-2.6,3.5-5.1c0.4-7.6,1.1-15.2,1.4-22.8c0.4-12.6,1.3-25.3,0.6-37.9
			C1379.8,555.8,1377.5,544.7,1375.9,533.1z M1358.1,545.8c-1.9,0.7-4.6,1.4-7,2.6c-1.2,0.6-2.8,1.9-3,3.1
			c-1.2,5.5-2.3,11.1-2.9,16.7c-2,21.2-5.1,42.2-12.3,62.4c-0.1,0.4,0,0.9,0,0.7c3.7,0.4,7.1,0.9,10.5,0.9c2.9,0,5.9-0.1,8.6-1.1
			c3.1-1.1,5.8-3.1,8.2-4.4C1359.6,599.5,1358.9,572.6,1358.1,545.8z M1339.8,433.6c1.2-2.1,1.9-3.2,2.3-4.4
			c4.4-11.6,12.8-19.3,23.7-24.7c5.2-2.6,10.2-5.6,14.6-9.3c5.6-4.6,10.6-10.1,15.6-15.3c0.9-0.9,1.4-2.9,1.1-4.2
			c-1.1-5.3-2.5-10.6-3.8-16.1c-3,3.5-5.7,7.6-9.3,10.6c-14.5,12-28.8,24.3-46.8,31c-3,1.1-4.3,3.2-4.5,6.1
			C1332.3,416.4,1335.7,424.5,1339.8,433.6z M1345.4,273.5c-4.4-0.1-8.5,4.2-12.9,0.7c-0.3-0.2-1,0.2-1.5,0.3
			c-14.1,2.3-28.2,4.9-42.3,6.6c-18.6,2.2-36.4,6.9-53.4,14.7c0.4,2.5,0.8,5,1.3,8c3.2-0.2,6.3-0.2,9.3-0.7c7.2-1.4,14.4-3,21.5-4.6
			c24.2-5.5,48.5-11.1,72.7-16.6C1346.1,280.5,1346.2,280.4,1345.4,273.5z M1281.8,563.3c0.1-0.5,0.1-0.9,0.2-1.4
			c-0.9-0.8-1.9-1.6-2.7-2.5c-3.6-3.7-7.7-7-10.7-11.1c-7.3-10.3-16.4-18.5-26.5-25.8c-3.1-2.2-4.6-1.9-6.1,1.7
			c-3.4,8.4-5.2,16.8,1.3,24.8c1.8,2.2,3.1,4.8,4.8,7c3.4,4.4,7.6,7.8,13.4,8.3c4.7,0.4,9.5,1,14.3,0.8
			C1273.8,565,1277.8,564,1281.8,563.3z M1143.3,437c14.8-8.5,29.1-15,44.5-2.9c1.6-9,3.1-17.7,4.8-27c-19.5,1.4-38.2,7-58,9.2
			C1137.7,423.9,1140.4,430.3,1143.3,437z M1198.7,505.8c-0.1-0.4-0.2-0.8-0.3-1.2c-1.9-0.6-3.8-1.6-5.8-1.8
			c-12-1.4-22.6,4.2-33.8,7.4c-0.3,1.5-0.6,3.1-1.1,5.5c4.8-1.9,9-3.5,13.9-5.4c0,1.5,0.1,3.2,0,4.9c-0.8,10.7-1.7,21.3-2.4,32
			c-0.1,1.1,1.2,3.3,1.9,3.3c6.2-0.2,12.4-0.8,19.1-1.3c-0.7-1.6-1-2.5-1.4-3.2c-5.1-10.6-10.3-21.3-15.4-31.9
			c-0.7-1.5-0.9-3.1,1.4-2.7c7.2,1.3,13.7-1.2,20.3-3.1C1196.3,507.7,1197.5,506.6,1198.7,505.8z M923,416c-8.2-1.1-16.3-1.4-24-3.5
			c-7.6-2-14.7-5.8-22-8.9c4.2,9.8,7.2,19.3,6.1,29.4c4-1.1,7.4-2.4,10.9-2.7c3.8-0.3,6.4-2.3,7.6-5.1c1.4-3,3.8-3.6,6.2-4.4
			C912.8,419,918,417.6,923,416z M1403.4,372.2c-4.9,13.8-15.9,22.5-28.1,30.5c0.7,0,0.9,0.1,1.1,0c10.3-4.8,20.8-6.3,31.9-3.3
			c3.3,0.9,9.5-5.9,8.9-9.3c-0.7-3.5-1.4-7.1-2.3-10.5c-0.2-1-1-2.1-1.8-2.6C1410,375.3,1406.7,373.8,1403.4,372.2z M1133.8,412.8
			c1,0.3,1.4,0.6,1.7,0.5c18.4-3,36.8-6,55.2-9.1c0.9-0.2,1.6-1.3,2.4-2c-0.7-0.7-1.4-1.9-2.3-2.1c-2.1-0.5-4.4-0.3-6.5-0.7
			c-13.9-2.9-26.8,0.6-39.6,5.5c-3,1.1-5.7,3-8.3,4.8C1135.4,410.3,1134.8,411.6,1133.8,412.8z M1329.4,409.3
			c-7.8,8.5-5.8,20-9.6,29.6c3.5,1.8,6.7,3.6,10.1,5.1c0.7,0.3,2.2-0.1,2.8-0.8c1.3-1.2,2.5-2.7,3.2-4.3c0.6-1.6,1.1-3.8,0.5-5.1
			C1332.8,425.9,1330.3,417.8,1329.4,409.3z M1157,502.4c0.2,4.6,0.8,4.9,5,3.6c7.1-2.2,14.2-4.6,21.5-6c4.4-0.9,9.2-0.2,14-0.2
			c-1.9-4.6-3.9-9.4-6.2-14.9C1183,497.6,1170.8,501.6,1157,502.4z M1351.3,418.1c0.3,0.3,0.5,0.6,0.8,1c4.9-3.7,9.7-7.3,14.6-11
			c-0.2-0.3-0.4-0.5-0.6-0.8C1361.2,410.9,1356.2,414.5,1351.3,418.1z"/>
		<path d="M261.2,491.7c2.3-0.3,3.4,0.2,2.5,3c-5.9,19.7-7.8,40-8.5,60.3c-0.7,18.7-0.2,37.4-0.9,56.1c-0.9,24.1-3,48.2-9.4,71.6
			c-1.2,4.6-2.8,9.1-4.4,14.3c1.8-0.3,2.9-0.4,3.9-0.7c13.2-3.3,26.4-1.6,39.5,0.6c2.7,0.4,5.3,1.1,8,1.1c16.9,0.5,33.9,2.2,50.5-2
			c10.9-2.8,21.4-7.4,31.9-11.5c1-0.4,1.8-2.6,1.8-4c-0.3-5.6-1.3-11.2-1.3-16.9c0-9.8,1-19.6,0.6-29.4c-0.9-21.5-2.2-43-3.9-64.4
			c-0.7-8.2-3.3-16.2-4.4-24.3c-2.1-15.1-3.1-30.3-5.6-45.2c-2-12.4-5.5-24.6-8.4-36.9c-0.2-0.7-2.4-1.5-2.5-1.4
			c-2,2.9-4.2,0.9-6.2,0.2c-3.4-1.2-6.7-2.4-10-3.7c-3-1.2-6.6-1.8-8.7-3.8c-5.3-5-11.9-5.8-18.5-6.9c-0.5-0.1-1-0.1-1.5-0.1
			c-7.1-0.9-7.6-2.6-4.9-9c2.8-6.6,4.7-13.6,6.4-20.6c0.7-2.9,0-6.3-0.4-9.4c-0.2-1-1.4-2.1-2.3-2.8c-4.6-3.6-9.6-6.7-13.7-10.7
			c-7.7-7.4-15.3-15-22.3-23c-3.8-4.4-6.2-10-9.3-15.1c-1-1.7-2.1-3.4-3.4-5.4c-4.4,6.9-8.3,13.2-12.4,19.4c-0.7,1.1-2,1.7-3,2.6
			c-0.5-1.3-1.5-2.7-1.4-4c0.8-16.9,1.7-33.7,2.6-50.6c0-0.7,0-1.5,0-3.4c-4.6,4.4-8.3,8.2-12.3,11.7c-1.5,1.3-3.5,2.1-5.3,3.1
			c0-2.2-0.5-4.6,0.2-6.5c3.4-8.4,7.1-16.6,10.7-24.9c5-11.7,10-23.5,15-35.2c0.1-0.3,0.1-0.7,0.2-1.8c-2.1,0.4-3.9,0.6-5.6,1.2
			c-4,1.4-7.9,3.3-11.9,4.5c-1.6,0.5-3.6-0.2-5.5-0.4c0.2-1.9,0.1-4,0.8-5.7c0.5-1.5,1.8-2.9,3-4c7.1-6.4,14.2-12.7,21.5-18.8
			c1.9-1.6,4.5-2.8,8-0.8c-12.9,6.4-22.1,15.8-30.8,25.9c0.3,0.4,0.6,0.9,0.9,1.3c2.5-0.9,4.9-2,7.4-2.8c3.7-1.2,7.3-2.6,11.1-3.1
			c3.8-0.5,5.2,1.8,3.8,5.4c-3.7,9.2-7.3,18.5-11.2,27.6c-4.2,9.8-8.8,19.5-13.2,29.3c-0.2,0.5-0.4,1.1-0.9,2.8
			c3.7-3.4,6.6-6,9.5-8.6c1-0.9,2-1.7,3.1-2.3c1.1-0.5,2.8-1.2,3.4-0.7c0.9,0.8,1.5,2.4,1.4,3.6c-0.5,6.7-1.4,13.3-1.8,20
			c-0.7,9.8-1.1,19.7-1.6,29.6c0.5,0.1,0.9,0.3,1.4,0.4c3.2-5.2,6.4-10.4,9.5-15.6c1.8-3,3.2-6.2,5.2-9.1c0.8-1.2,2.7-1.6,3.9-2.7
			c1.1-1,2.3-2.3,2.9-3.7c5.5-14.4,11.5-28.8,16.1-43.5c4.5-14.3,12.5-25.6,24.6-34.1c1.4-1,3.1-2,4.8-2.3
			c9.6-1.7,19.3-3.2,28.9-4.6c0.9-0.1,2.6,0.3,2.7,0.7c0.2,1,0,2.4-0.7,3.1c-1.8,2-3.9,3.7-5.8,5.8c11.3-5.6,23.4-5.5,35.4-5.8
			c8-0.2,16-0.6,24-0.9c0.9,0,1.8,0,2.7-0.3c13.7-4.1,23.9,3.5,34.2,10.4c2.7,1.8,5,4.3,8.2,7c0.2-2.5,0.2-4.3,0.5-6
			c0.1-0.9,0.5-2.5,1-2.6c0.9-0.2,2.4,0.2,3,0.9c2.5,2.7,5,5.6,7.2,8.6c12.7,17.3,18.6,36.4,15.7,58c-1.9,14.3-3.8,28.6-5.7,42.8
			c-0.2,1.2,0,2.5,0,4.6c0.9-1.1,1.3-1.4,1.4-1.8c4.4-10,8.9-19.9,12.9-30c1.3-3.3,1.7-7,1.8-10.6c0.2-10.7,0.5-21.4-0.1-32.1
			c-0.4-6.9-2.5-13.6-3.5-20.5c-1.1-7.4-2.7-14.6-6.3-21.4c-2.5-4.6-3.9-9.8-5.5-14.8c-2.2-6.9-6.5-12.2-12.3-16.3
			c-10.7-7.6-21.3-15.5-32.1-22.9c-3-2-6.8-3-10.3-4.3c-3.9-1.4-5-3.4-2.9-7c2.3-3.8,5.1-7.4,7.4-11.6c-2.2,1.4-4.3,2.8-6.5,4.2
			c-4.3,2.9-8.4,6-12.8,8.6c-1.4,0.8-4.1,0.5-5.5-0.3c-6.3-3.6-12.3-7.6-18.4-11.4c-0.8-0.5-1.8-0.9-3.3-0.8
			c1.3,2.1,2.5,4.2,3.8,6.3c1.3,2.1,0.5,3.3-1.7,3.3c-2.2,0-4.4-0.1-6.5-0.6c-10.8-2.6-21.5-2.1-32.2,0.6
			c-18.6,4.6-36,11.9-52.1,22.2c-6,3.8-10.8,8.7-14.5,14.8c-0.3,0.5-0.7,1.3-1.2,1.5c-0.9,0.4-2,0.4-3,0.6c0.2-0.9,0.3-1.9,0.7-2.6
			c5.6-9.2,13.6-15.7,22.8-20.9c17.9-9.8,36.4-17.9,56.9-20.2c7.2-0.8,14.6,0.5,21.9,0.9c1.5,0.1,3,0.5,5.4,0.9
			c-1.6-2.7-2.9-4.6-3.8-6.7c-0.6-1.2-0.7-2.5-1-3.8c1.4-0.1,2.9-0.7,4-0.2c4.6,2.1,9,4.3,13.4,6.7c2.7,1.5,5.3,3.2,7.6,5.3
			c3.5,3.2,6.6,1.8,9.6-0.4c4-2.9,7.8-6,11.8-8.7c1.9-1.2,4.1-2.2,6.3-2.5c3-0.4,4.1,1.4,2.4,4c-1.5,2.4-3.5,4.4-5.2,6.7
			c-1.6,2.2-3.1,4.6-4.9,7.2c2.2,0.9,3.6,1.7,5.2,2.1c7.1,1.9,12.4,6.6,18,10.9c8.8,6.5,17.8,12.8,26.6,19.4c4.8,3.6,7.1,9,9.2,14.5
			c2.3,6.1,5.1,12.1,7.2,18.3c1.8,5.3,3,10.9,4.3,16.4c0.8,3.3,0.8,6.7,1.7,9.9c4,12.9,1.5,26.2,2.3,39.2c0.7,9.7-1.9,18.6-5.9,27.3
			c-4.3,9.4-8.6,18.9-13,28.3c-0.4,0.8-1.3,1.3-2,2c-0.5-0.9-1.6-1.8-1.6-2.7c0.8-11,1.6-22.1,2.8-33.1c1.2-11,2.9-21.9,4.4-32.9
			c-0.4-0.1-0.9-0.1-1.3-0.2c-0.9,5.9-2.3,11.8-2.6,17.8c-0.5,8.7-3.9,16.1-8.2,23.4c-3.3,5.5-5.7,11.5-9,17.1
			c-7.5,12.9-17.5,23.9-28.3,34.1c-2.9,2.7-7,4.4-10.8,5.6c-6.6,2-13.5,3.5-20.3,4.8c-2.5,0.5-3.5,1.5-3.4,4c0.2,4.2,0,8.5,0,12.7
			c3.1,0.5,6,1.1,8.9,1.3c7.6,0.4,12.2,5.5,16.7,10.7c6.1,7,11.3,14.7,16.9,21.9c6.4,8.3,13.1,16.4,18.5,25.5
			c2.4,4.1,6.6,7.2,9.7,11c5.3,6.5,12.1,9,20.2,8c3.5-0.5,4.5,0.7,5.1,4.2c2.7,15,5.8,29.9,12,43.9c0.9,2,2.1,3.8,3.2,5.8
			c6.9-6.3,14-11.6,22.9-13.6c-2.8-8.4-5.9-16.9-8.4-25.4c-2.4-8.4-4.2-17-6.1-25.5c-0.6-2.8-1.9-4.1-4.8-3.1
			c-5.3,1.8-11.1,2.6-15,7.4c-0.5,0.6-1.9,0.5-2.9,0.7c0.1-0.7-0.1-1.5,0.2-2.1c3.4-5.8,17.8-10.8,24.2-8.4
			c7-7.3,8.2-12.2,31.6-16.8c-0.4-3.3-1.1-6.6-1.2-9.9c0-1.2,1.1-2.5,1.7-3.8c0.4,1.2,1.1,2.3,1.3,3.5c0.5,2.7,0.4,5.4,1.2,8
			c0.3,1.1,1.9,2.6,3.1,2.7c10.6,0.6,17.3,7.3,23.2,15.1c1.5,2,2.4,4.6,2.8,7.1c2.1,13-0.5,24.9-8.7,35.3c-0.2,0.3-0.4,0.6-0.6,1
			c0,0.1,0,0.2,0-0.1c13.4,1.3,26.6,2.5,40.1,3.8c0,0,0.2-0.4,0.1-0.6c-5.5-10.6-7.6-22.2-9.5-33.8c-1.1-6.6-0.2-13.6-0.2-20.4
			c0-7.2,0-14.4,0-21.2c-6.7,1-13.7,2.7-20.9,3.1c-8.7,0.5-17.5,0.1-26.3-0.1c-0.8,0-1.7-1.1-2.5-1.7c0.8-0.4,1.6-1.2,2.5-1.2
			c3.7,0,7.5,0,11.2,0.3c10.7,0.9,21.2-0.2,31.4-3c2.4-0.6,4.7-2.5,6.5-4.4c2.5-2.7,1-5.1-1.9-6.4c-2.2-1-4.7-1.9-7-1.9
			c-10.5,0.1-21.1,0.3-31.6,1c-5.3,0.3-9.7,3.3-13.2,7.4c-0.6,0.7-1.8,0.8-2.8,1.2c0.1-1-0.1-2.6,0.5-3c3.5-2.7,6.9-6.3,11-7.5
			c13.1-3.9,26.5-3.6,39.9-1.4c2.6,0.4,5.4,1.9,7.4,3.7c2.7,2.4,3.5,5.5,1.1,9c-1,1.4-1.4,3.3-1.5,5.1c-0.5,9.4-1.1,18.8-1.2,28.2
			c-0.3,17.1,3.6,33.3,11.4,48.4c5.2,10,10.9,19.8,15.9,29.9c3.5,7,5.7,14.7,9.2,21.7c3.4,6.8,8.1,13.1,11.6,19.9
			c2.7,5.3,2.7,11.3,0.1,16.5c-4.2,8.2-10,14.5-20.6,14c-20.3-1-40.7-1.4-61.1-2.4c-5.5-0.3-11-1.9-16.5-2.2
			c-8.4-0.4-16.7,0.1-25.1-0.1c-5.5-0.1-10.8-1.2-14.5-6c-2.4-3.1-3.8-6.6-2.6-10.4c1.3-4.4,3-8.8,4.4-13.2
			c5-15.7,10-31.4,14.8-47.2c0.7-2.3,0.6-4.8,0.9-7.8c-2.6,0.5-4.9,0.3-6.4,1.3c-5.5,3.5-10.9,7.2-16,11.3c-3.1,2.5-3.7,2.8-5.8-0.6
			c-1-1.7-1.9-3.3-2.6-4.4c-5.3,0.9-10.2,2.5-15.1,2.5c-9.4,0-18.8,0-28-1.6c-8-1.4-15.7-4.9-23.5-7.5c-1.6-0.5-3.1-1.3-5.3-2.2
			c0.7,4.8,1,9.1,2,13.3c2.7,11.7,6.1,23.2,8.3,34.9c1.4,7.9,1.6,16.2,1.5,24.3c-0.1,12.6,2.4,24.6,7.4,36.3c4.1,0,8.4,0.1,12.6,0
			c59.4-1.8,118.7-0.9,178,1.2c12.4,0.4,24.7,1.3,37.1,2.1c1.8,0.1,3.6,0.9,5.3,2.2c-77.4-3.5-154.7-4.7-230.3-2.3
			c2.6,3.1,5.5,7.2,8.9,10.8c5.7,6,6,13.2,4.1,20.3c-2.4,8.9-7.5,15.8-16.6,19.5c-13.4,5.4-27.2,8.8-41.4,10.9
			c-3.5,0.5-7.2,0.1-10.8,0.1c-6.7,19.6-22.2,27.4-41.4,30.1c-15.8,2.1-31.7,1.5-47.4-0.9c-9.8-1.4-18-6.1-25.1-12.8
			c-4.3-4-6.6-8.8-6.4-14.8c0.1-3.2,0.2-6.5,0-9.7c-0.7-9.2,3-16.5,9.4-22.8c0.5-0.5,0.9-1.1,1.8-2.1c-7.7-1.3-15-1.4-22.2-0.2
			c-2.9,0.5-5.8,1.4-8.7,1.9c-3.7,0.6-4.5-0.2-3.6-3.8c1.2-4.9,2.8-9.6,4.2-14.5c0.6-2,1-4,1.5-6.2c-5.8,0-11.3-0.1-16.8,0
			c-39.6,0.6-79.2,1.4-118.8,1.9c-7.7,0.1-15.4-1.2-23.1-1.9c-1-0.1-2-0.5-3.1-0.8c0-0.4,0-0.9,0-1.3c1.3-0.2,2.7-0.8,3.9-0.7
			c28.8,3,57.8,1.8,86.6,1.5c23.1-0.2,46.2-1.5,69.2-2.2c2.3-0.1,3.2-0.9,3.5-3.1c1.7-13.5,4.3-27,5-40.6
			c1.4-26.9,1.3-53.9,2.6-80.8c0.9-18.9,2.9-37.8,8.7-56L261.2,491.7z M443.1,266.6c-0.4,2.3-0.6,3.7-1,5c-1,3.6-2.7,3.9-5.4,1.3
			c-2.4-2.4-4.7-4.9-7.4-6.8c-9.5-6.4-18.9-13.5-31.6-9.7c-0.6,0.2-1.3,0.1-1.9,0.2c-8.2,0.3-16.5,0.6-24.7,0.9
			c-14.5,0.5-29,0.8-41.4,10.1c-1.6,1.2-4,1.4-6,2c1-2,1.6-4.4,3.1-6.1c2.8-3.1,6-5.7,9.7-9.1c-10.6-0.2-20.4,1-28.5,5.6
			c-11.2,6.3-19,16.3-23.2,28.9c-4.4,13.2-9.2,26.3-14.2,39.3c-2.1,5.4-4.5,10.8-7.8,15.5c-2.8,4-4.6,7-1.1,11.6
			c3.6,4.8,5.8,10.7,9.6,15.3c10.3,12.5,21.8,23.6,35.2,32.9c11,7.7,22.9,13.4,35.6,17.4c2.8,0.9,5.8,1,8.8,1.2
			c16.5,0.9,32.2-4,47.9-7.6c5.3-1.2,11.1-3.1,15-6.6c10.7-9.7,20.3-20.6,27.7-33.1c4.1-7,8-14.1,11.4-21.4c2.4-5.1,4.1-10.6,5.3-16
			c1.4-6.5,1.6-13.3,2.7-19.9c2.9-16.6-2-30.9-12.2-43.8C447,271.4,445.3,269.4,443.1,266.6z M380,682.4c3-1.2,6-2.3,8.9-3.7
			c7.7-3.7,15.7-6.2,24.4-6.7c4.9-0.2,9.7-2.5,14.4-4.1c2.2-0.7,3.5-2.2,2.3-5c-4.4-10.6-5.9-21.8-5.7-33.3
			c0.2-16.1-2.3-31.8-7-47.2c-1.9-6.2-3.3-12.7-4.1-19.2c-0.5-4.1-2.1-6.7-5.5-8.7c-1.2-0.7-2-2.1-3-3.2c1.6,0,3.1,0,4.7,0.1
			c0.5,0,0.9,0.5,1.4,0.6c7.7,2.9,15.5,5.5,23.1,8.7c7.5,3.1,15.1,5,23.2,4.6c1.2-0.1,2.5,0.7,3.8,0.8c8.3,0.6,16.7,0.9,24-3.2
			c-3.8-14.9-7.6-29.4-11.3-43.9c-15.9-1.2-15.7-1.4-25.8-11.4c-10.8-10.6-15.9-25.6-27.5-35.6c-0.1-0.1-0.2-0.2-0.2-0.3
			c-4.5-10.3-13.1-17.4-20.3-25.6c-4.1-4.7-10-4.5-16-5.4c0.7,5.3,1.6,10,1.7,14.7c0.1,4.2-0.3,8.4-1,12.5c-0.4,2.3-2.1,3-4.8,2
			c-5.3-2.2-10.8-4-16.4-5.8c-2-0.6-4.3-0.6-7.1-0.9c1.1,4.3,1.8,7.5,2.7,10.7c5,18.1,8.1,36.5,10.1,55.1c1,9.6,2.3,19.2,3.6,28.7
			c1,7.4,2.8,14.7,3.3,22.2c1.1,15.2,1.7,30.4,2.4,45.6c0.3,8.1,0.3,16.2,0.5,24.4c0.2,10.4,0.4,20.8,0.7,31.1
			C379.4,681.4,379.7,681.7,380,682.4z M553.8,558.1c-4.6-0.3-9-0.6-13.3-0.8c-0.7,0-1.3,0.7-2.1,0.9c-3.7,1.4-7.4,2.8-11.2,3.9
			c-1.1,0.3-2.4-0.4-3.7-0.7c1.1-0.8,2.2-2.1,3.5-2.3c5.5-0.7,10-3.2,14-6.9c2.7-2.4,5-5.2,7.8-7.5c10.9-8.9,15.6-20.4,14.9-34.4
			c-0.4-8.8-8.9-20.6-17.6-22.7c-14.3-3.6-27.1-0.7-37.8,9.7c-3.5,3.4-4.9,7.7-3.6,12.2c3.4,12.3,7.1,24.5,10.7,36.7
			c1.3,4.3,2.5,8.6,6.4,10.3c-0.6,3.6-1,6.7-1.8,9.7c-4.7,16.6-8.2,33.6-15.4,49.4c-1.6,3.5-2.8,7.2-3.8,10.9
			c-1.5,5.4,1.3,10.6,6.7,12.3c2.7,0.9,5.6,1.5,8.3,1.3c13.2-0.7,26.2,0.7,39.3,1.9c20,1.8,40.1,1.9,60.2,2.7
			c2.9,0.1,6.2,0.5,8.6-0.7c5.5-2.8,10.4-6.7,11.9-13c1.2-5.2,0.4-9.8-2.7-15c-6.4-10.6-11.2-22.3-16.5-33.6
			c-4-8.3-7.8-16.7-11.3-24.3c-14.1,1-27.2,3.1-40.8-0.1c1.2,4.1,2.7,7.7,4.3,11.3c1.1,2.6,2.6,5.1,3.4,7.8
			c3.1,11.6,5.4,23.4,12.3,33.6c1.3,1.9,0.5,3.7-1.9,3.9c-10.5,0.8-21,1.6-31.6,2.2c-2.2,0.1-4.6-0.6-6.8-1.4
			c-1-0.4-2.1-2.1-1.9-3.1c0.5-4.1,1.5-8.1,2.3-12.1C547.8,586.3,550.8,572.4,553.8,558.1z M320.1,760.6c0-0.2,0.1-0.5,0.1-0.7
			c5.8-0.4,11.6-0.5,17.4-1.2c13.5-1.7,25.9-5.4,34.9-16.8c7-8.9,7.8-16.3,0.8-25.2c-4.4-5.5-9.7-10.3-14.5-15.5
			c-3.4-3.7-7.4-3.9-12.1-3c-5.9,1.2-11.9,2.5-17.9,2.7c-16.2,0.7-32.5,1.4-48.7-1.3c-1.5-0.3-3.7-0.1-4.7,0.8
			c-6.3,5.4-11.7,11.4-11.2,20.6c0.2,4.1,0.2,8.3,0,12.4c-0.2,4.6,1.5,8.4,4.7,11.4c5.2,4.9,10.7,9.7,17.9,11
			C297.9,757.8,309,759,320.1,760.6z M381.5,728.4c3.9,0,7.6,0.5,11.1-0.1c14-2.5,27.8-5.5,40.9-11.2c8.6-3.8,12.5-10.7,14.5-19.2
			c2.2-9.1-3.1-15.2-9.1-20.8c-4.8-4.4-10.1-6.7-16.7-4c-3.2,1.3-6.7,1.6-10.1,2.3c-5.6,1.3-11.4,2-16.8,3.9
			c-8.4,2.9-16.5,6.5-24.7,10c-4.5,1.9-8.9,3.9-13.3,5.9C366.4,705.7,379,713.1,381.5,728.4z M309.8,411c-1.6,2.5,0.3,4.8,1.7,7.2
			c1.6,2.8,3.1,5.6,5,8.2c2.6,3.6,4.9,7.8,8.3,10.4c6.6,5,12.9,10.1,18.3,16.5c6.3,7.4,16.9,7.3,23.8,0.3c1.5-1.6,3-3.2,4.6-4.7
			c8.1-7.4,6.4-17.2,6.7-27c-12,3.1-23.9,5.2-35.3,2C331.7,420.8,321,415.5,309.8,411z M580.2,611.8c-2.9-8.5-5.8-17-8.7-25.5
			c-1.6-4.9-3.2-9.8-4.9-14.6c-1.5-4.1-3.3-8.1-4.9-12.1c-0.8-2-1.3-4-2-6c-0.5,0-1,0-1.5-0.1c-4.3,19.6-8.6,39.3-12.9,58.8
			C551.4,614.8,574.2,614.1,580.2,611.8z M601.9,556.1c-2.9-5-6-7.9-10.9-8.4c-9.6-0.9-19.2-1.7-28.8-2.4
			c-7.9-0.6-14.1,2.3-18.3,9.5c3.9,0,7.5,0,11.1,0c1-3.1,2-6.1,3-9c0.5,0,1,0.1,1.5,0.1c1.5,3.2,3,6.3,4.8,10.2
			C576.3,556.1,588.7,556.1,601.9,556.1z M340.9,456.6c0.3-0.4,0.5-0.7,0.8-1.1c-4.6-4.2-9-8.7-14-12.4c-6.2-4.7-12.3-9.3-15-17.1
			c-0.5-1.5-1.6-2.7-2.8-4.7c-2.6,7.9-4.9,15-7.2,22.4c1.3,0.3,2.7,0.4,4,0.8c5.9,1.6,12.6,2.1,17.4,5.4
			C329.5,453.5,334.9,455.6,340.9,456.6z M381.9,467.2c1.9-9-0.2-16.9-1.2-24.5c-5.5,6.1-10.9,12.1-16.6,18.4
			C369.4,463,375.3,465,381.9,467.2z"/>
		<path d="M772.9,23.2c-9.6,1-19.1,2.1-28.6,3c-1.2,0.1-2.5-0.6-3.7-1c1.1-0.9,2.1-2.3,3.3-2.5c15.4-2,30.8-3.1,46.3-1
			c6.9,1,9.3,5.4,5.3,11.3c-4.2,6.3-9.1,12.2-14.6,17.4c-8.6,8.1-18.2,15.2-27,23.1c-7.4,6.6-14.7,13.4-21.2,20.8
			c-5.9,6.8-4.5,12.3,3.7,15.9c7.5,3.3,15.5,5.5,23.4,8.1c7.9,2.7,16.1,4.9,23.9,7.9c12.6,5,14.4,11.8,5,21.5
			c-6.6,6.8-14.3,12.6-21.9,18.4c-14.7,11.1-29.9,21.6-44.4,32.9c-4.6,3.6-8.2,8.6-11.7,13.3c-5.2,7-3.8,11.7,4.6,13.6
			c9.6,2.2,19.6,3.2,29.4,4.6c7.3,1.1,14.7,1.6,21.8,3.3c4.7,1.2,9.4,3.6,13.3,6.6c5,3.8,5.8,9.6,3.2,15.1c-2,4.4-4.6,8.8-7.9,12.2
			c-10.8,11.3-21.9,22.2-33,33.2c-9.1,9-17.6,18.5-23.2,30.3c-5.2,10.8-3.5,15,8.1,17.8c9.5,2.3,19.2,3.6,28.9,5.4
			c7,1.3,13.9,2.8,19.8,7.2c6.4,4.8,8.1,10.2,4,17.2c-2.8,4.8-6.6,9.2-10.4,13.4c-8.5,9.3-17.4,18.3-25.9,27.7
			c-2.4,2.6-4.2,5.9-5.8,9.1c-2.7,5.6-1.2,10.5,4.3,13.4c3.5,1.9,7.3,3.1,11.1,4.3c7.9,2.4,16,4.1,23.7,7c13.2,5,17,16.7,9.8,28.8
			c-1.3,2.1-2.6,4.2-4.3,5.9c-6.5,6.7-13.2,13-19.6,19.8c-6.7,7.2-13.3,14.4-19.3,22.1c-6.3,8.1-9.8,17.5-10.6,27.9
			c-0.6,7.7,1.8,11.9,9.4,13.9c8.6,2.3,17.5,3.3,26.1,5.5c5.7,1.4,11.5,3.2,16.5,6.1c7,4.1,9,11.5,5,18.5
			c-3.7,6.4-8.5,12.2-13.4,17.8c-5.5,6.3-11.9,11.9-17.5,18.1c-9.4,10.5-16.9,22.4-18.5,36.8c-1.3,12.6,2.1,17.6,13.4,20.8
			c4.3,1.2,8.8,2,13.3,2.5c13.6,1.3,20,10,17.3,23.5c-2.1,10.4-8.1,18.6-14.4,26.6c-3.3,4.1-6.7,8.2-10.3,12.1
			c-2.4,2.6-2.3,5,0.2,7.4c1.6,1.6,3.2,3.4,4.8,5c6,5.6,5.8,12.5,4,19.7c-0.2,0.8-1.2,1.4-1.8,2.1c-0.3-1-1.1-2.1-0.9-2.9
			c2.2-8,0.2-14.5-6.3-19.6c-1-0.8-1.8-1.8-2.6-2.8c-3.1-3.8-3.1-6.5,0-10.4c6.3-8,13-15.7,18.5-24.2c3.1-4.8,4.9-10.8,6.1-16.5
			c1.8-8.8-3.5-15.3-12.4-16.6c-4.6-0.7-9.2-1.3-13.7-2.3c-17.2-3.8-20-12.4-17.7-27.8c1.6-10.8,6.7-20.4,13.6-28.8
			c6.4-7.8,13.6-14.8,20.4-22.2c4.5-5,9.2-9.8,13-15.3c6.8-9.6,4.2-18.2-7-21.8c-8.7-2.8-17.9-3.7-26.8-5.7
			c-4.3-0.9-8.5-2.1-12.6-3.7c-6.1-2.4-8.9-7.3-8.7-13.8c0.3-10.3,3.7-19.7,9-28.4c5.9-9.7,13.5-17.9,21.7-25.7
			c6.4-6.1,12.7-12.4,18.9-18.9c2.2-2.3,4-5.1,5.5-7.9c4.7-8.6,2.4-16.6-6.2-21.3c-3.4-1.8-7.1-2.9-10.8-4.1
			c-5.7-1.7-11.4-3.1-17.2-4.7c-1.6-0.4-3.2-0.9-4.8-1.5c-13-4.7-16-13.2-8.4-24.6c3.4-5.1,7.4-9.9,11.6-14.4
			c5.9-6.4,12.3-12.5,18.5-18.8c2-2,3.9-4.1,5.7-6.3c9-11.4,7.4-18.3-7.1-23.2c-9.1-3-18.9-3.7-28.4-5.7c-5.8-1.2-11.6-2.5-17.1-4.6
			c-7.1-2.7-9.1-7.8-6.5-15c3.5-9.6,8.9-18.1,15.9-25.5c8.5-9,17.5-17.5,26.2-26.4c6.4-6.5,12.7-13.2,18.9-19.9
			c1.7-1.9,3.1-4.1,4.3-6.4c3.9-7.6,1.9-14.3-6.1-17.4c-6.2-2.4-12.9-3.7-19.4-4.7c-10.7-1.6-21.5-2.6-32.2-4
			c-2.9-0.4-5.8-1.3-8.6-2.3c-8.2-2.9-10.6-8.8-5.7-16c3.8-5.6,8-11.4,13.2-15.6c13.6-10.9,27.9-20.7,41.8-31.3
			c8.4-6.4,16.4-13.3,24.6-19.9c0.5-0.4,0.9-1,1.3-1.5c5.5-6.9,4.8-11.1-3.4-14.2c-11.3-4.3-23-7.7-34.5-11.5
			c-5.2-1.8-10.6-3.4-15.5-5.8c-9.1-4.5-11.1-11.8-4.6-19.5c6.7-7.9,14.3-15.2,22.2-22c12.1-10.5,25.3-19.7,35.6-32.1
			c2.1-2.6,4.2-5.3,5.7-8.2c1.8-3.5,0.8-5.4-3.1-6C784.4,24.2,778.6,23.8,772.9,23.2z"/>
		<path d="M130.5,198.9c-3.9,1.1-6.8-1.1-9.4-4.8c-3.1-4.5-6.7-8.7-10.7-12.4c-1.4-1.3-4.7-0.9-7.1-0.9c-2.7,0-5.4,0.7-8.1,0.8
			c-1.6,0.1-3.8,0.1-4.5-0.8c-0.7-0.9-0.1-3.1,0.3-4.6c0.3-1.2,1.3-2.3,1.6-3.5c0.5-2,1.7-4.9,0.8-5.8c-2.1-2.3-4.7-5.2-8.6-3.9
			c-3.3,1-6.6,2.2-9.7,3.6c-2.9,1.2-4,0.7-3.6-2.4c0.3-2.8,1.1-5.6,1.8-8.3c1.2-4.5-1.6-8.5-6.4-8.2c-4.3,0.2-8.6,1.4-12.9,1.9
			c-1.7,0.2-3.4-0.2-5.1-0.4c0.2-1.7,0-3.6,0.6-5c1.3-2.9,3-5.7,4.7-8.8c-6.3-5.7-12.6-11.2-22.3-8.7c-2,0.5-4.4-0.2-6.6-0.4
			c0.3-2.2,0.5-4.5,0.9-6.7c0.2-1.1,0.7-2.3,1.4-3.2c2.9-4,1.8-7.5-1-11.1c-1.4-1.9-2.5-2.5-4.7-1.5c-2.7,1.2-5.5,2.2-8.3,3.1
			c-3.1,1-4.2,0-3.3-3.2c1.3-4.3,3.5-8.4,4.4-12.8c2-9.4,9-13.9,16.3-18.4c15.9-9.8,32.6-17.8,50.4-23.4c4.8-1.5,10.1-1.3,15.2-1.9
			c1.9-0.2,3.8-0.4,5.7-0.9c2.2-0.6,4.4-1.7,6.6-2.1c1.6-0.3,3.7-0.3,4.9,0.5c0.7,0.5,0.1,3-0.3,4.5c-0.8,3.1-2.1,6.1-2.9,9.2
			c-0.4,1.3-0.5,2.9-0.2,4.2c1.4,6.9,2.6,7.5,9.6,6.8c2.8-0.3,5.6,0.3,8.5,0.6c-0.5,2.8-0.9,5.7-1.5,8.5c-0.2,1-0.6,2-1.2,2.8
			c-3.4,4.6-2.7,9.1-0.3,14c1.3,2.8,2.8,3.9,5.8,3.8c2.4-0.1,4.9,0.3,7.3,0.8c2.7,0.5,3.4,2.2,1.9,4.5c-2.5,3.7-5.1,7.4-7.7,11.1
			c-0.4,0.7-0.9,1.6-0.8,2.2c0.4,2.4,1,4.7,1.5,7.1c3.5-0.4,6.6-1,9.8-1c1.5,0,3,0.9,4.4,1.4c-0.6,1.5-0.8,3.2-1.7,4.5
			c-2.3,3.1-4.9,6-7.5,8.9c-4.3,4.9-0.6,9.3,1.2,13.6c1.4,3.4,4.9,2.5,7.8,2.3c2.2-0.1,4.4-0.4,6.6-0.4c3.9,0,5,1.7,3.1,5.1
			c-1.9,3.5-4.1,6.9-6.4,10.1c-1.3,1.8-1.3,3.2,0.1,4.8c4,4.3,8.1,8.5,12.1,12.8c3.2,3.5,6.5,6.9,9.3,10.7c2.1,2.9,2.3,6.7-0.5,9.2
			c-6.4,5.7-13,11.3-19.9,16.5c-4,2.9-5.2,2.4-7.6-1.7c-3.3-5.6-6.3-11.4-9.7-17c-0.6-1-2.4-1.4-4-2.3c-0.4-3.5,7.7-11.5,22.2-20.9
			c-1.6-2-3.1-4.1-4.9-5.9c-0.7-0.7-2.1-1.2-3-1c-8.6,1.9-13.7,8.4-18.6,14.8c-1.2,1.6-1.4,5.7,1.9,7.6
			C129,197.3,129.5,198,130.5,198.9z M28.1,124c2.3-0.3,4.2-0.7,6.1-0.7c4.3,0,8.9-2.1,12.9,1.5c2.9,2.6,5.8,5.1,8.9,7.4
			c1.7,1.3,1.9,2.4,0.9,4.2c-1.7,3.2-3.3,6.5-5,10c5.6-0.8,10.5-1.6,15.4-2.3c4.7-0.6,10.3,5.3,9.4,9.9c-0.5,2.7-1.1,5.5-1.7,8.7
			c2.8-1,5.1-1.6,7.3-2.5c4.1-1.7,12.5,1.2,14.3,5.2c0.3,0.6,0.2,1.5,0,2.2c-0.7,3.6-1.5,7.1-2.3,10.4c3.9,0,8.1,0.3,12.3-0.1
			c3.6-0.3,6,0.7,8.2,3.7c2,2.8,4.7,5.2,7.3,7.9c0.9-1.2,1.2-1.9,1.7-2.5c5.1-5.9,9.9-13,17.5-14.6c9.2-1.8,9-9.7,13.6-15.2
			c-2.5,0-4.1,0.3-5.5,0c-6.3-1.3-11.2-0.1-13.8,6.6c-0.3,0.8-2,1.1-3.1,1.6c0.3-1.2,0.4-2.6,1-3.7c1.1-1.9,2.6-3.5,4.5-6.1
			c-3.4,0-5.5,0.3-7.5-0.1c-1-0.2-1.6-1.8-2.4-2.8c1-0.2,1.9-0.4,2.9-0.4c1.6,0,3.1,0.2,4.8,0.3c-1.1-3.9-1.9-7.3-2.9-10.6
			c-0.7-2.2,0.3-3.4,1.8-4.9c3.3-3.1,6.2-6.5,9.3-9.8c-0.2-0.3-0.4-0.6-0.6-0.9c-3.1,0.6-6.2,1.3-9.4,1.8c-1,0.2-2.5,0.2-3.1-0.4
			c-1.8-1.7-2.1-11.4-0.7-13.6c2.3-3.7,4.5-7.4,7.2-11.8c-4.7,0-8.8,0-12.5,0c-2.1-4.9-4-9.1-5.5-13.5c-0.5-1.4,0-3.5,0.8-4.9
			c1.8-3.8,4-7.4,6.1-11.1c-0.3-0.3-0.6-0.6-1-1c-2.9,0.2-5.8,0.5-8.7,0.7c-5.8,0.5-5.8,0.5-7.8-5c-0.2-0.6-0.4-1.3-0.7-1.8
			c-2.8-3.6-2.4-7.1-0.2-11c1.4-2.3,1.9-5.1,3-8.4c-4,1.4-7.1,2.5-10.2,3.6c-1.3,0.4-3.1,1.3-4,0.9c-5.1-2.6-9.9-0.6-14.6,0.9
			C65,57.7,48.5,65.4,33,75c-6.7,4.1-13.4,8.2-15.4,16.7c-0.9,3.8-2.4,7.4-3.9,12c2.8-1,4.6-2.1,6.4-2.2c2.8-0.1,6.2-0.4,8.4,1
			c3.3,2,4.3,7.4,3.2,10.5C30.3,116.4,29.3,120,28.1,124z M142,214.1c0.4-0.1,0.8-0.2,1.3-0.2c1.7-5.2,5.1-9,9.7-11.6
			c4.4-2.5,9.1-4.7,14.3-7.4c-3.5-3-6.9-5.7-9.9-8.8c-1.7-1.8-3.2-2.1-5-0.7c-5.1,3.9-10,8-15,12.1c-0.7,0.6-1.4,1.9-1.1,2.6
			C138.1,204.7,140.1,209.4,142,214.1z M148.4,221.9c8.3-4.5,15.3-10.3,21.3-17.3c0.8-1,0.5-3.5,0-4.9c-0.2-0.6-2.9-0.7-4.1-0.3
			c-3.3,1.3-6.8,2.7-9.7,4.8c-3.3,2.4-6.3,5.3-8.7,8.4C145,215.4,145.5,218.7,148.4,221.9z"/>
		<path d="M213.8,379.4c5.3-4.3,5.3-4.2,10.7-0.6c2.7,1.8,5.7,2.9,8.3,4.8c4,2.9,7.8,6.1,11.6,9.5c0.4,0.3-0.3,2.5-1,3.1
			c-1.1,1-2.8,1.5-5.2,2.8c9.6,2,17.6,4.9,24.7,9.9c2.3,1.6,4.9,2.9,6.8,5c2.3,2.6,4.8,2.5,7.9,2.6c7.4,0.2,14.9,0.9,22.2,1.8
			c1.6,0.2,3.1,2.1,4.5,3.3c0.3,0.2,0.2,1.3-0.2,1.7c-0.3,0.3-1.3,0.4-1.7,0.1c-7.9-5.2-16.8-4.1-25.4-3.8c-3.8,0.1-6.4-0.6-9.3-3.2
			c-8.8-7.7-19-12.7-30.7-14.1c-1.3-0.2-2.9,0.6-4,1.5c-5.2,3.8-10.2,7.8-15.2,11.8c-11.8,9.5-23.6,19.2-35.4,28.7
			c-1.2,1-2.5,2.2-3.9,2.4c-3.2,0.4-4.9-1.7-5.6-4.7c-1.1-4.6-2.1-9.3-3.1-13.6c-1.6,0.1-2.9,0.1-4.2,0.2c0.5-1.2,0.8-2.7,1.6-3.6
			c4.3-5,8.7-9.8,13.3-14.9c-1.9-0.3-4-0.3-6-0.8c-5.5-1.4-11.1-2-16.2-5.4c-9.3-6.2-11.8-15.2-9.9-25c1.4-7,5-13.7,8.6-20.1
			c3-5.4,8.4-8.6,14.5-10.2c9.6-2.4,19.1-2.4,28.5,1c4.7,1.7,8,4.8,10.1,9.5C212.9,365.3,215.4,371.7,213.8,379.4z M186.2,349.7
			c-17.1,0-25.7,4.8-31.5,19.1c-1.1,2.7-2.2,5.5-3,8.4c-2.5,8.6,0.4,18.5,7.5,23c7.3,4.6,15.7,6.7,24.4,6.5c1.3,0,2.8-0.8,3.8-1.7
			c6.6-5.7,13.1-11.6,19.7-17.4c0.5-0.4,0.9-0.9,1.2-1.5c6.8-10.9,1.9-34.1-15.6-35.7C190.4,350.2,188.1,349.9,186.2,349.7z
			 M240.2,393.8c-2.7-4.7-12.1-10.9-20.7-14c-10,9.1-19.7,18.1-29.5,27c-1.4,1.3-2.9,2.4-4.3,3.7c-3.9,3.5-8,6.9-11.6,10.7
			c-1.1,1.2-1.7,3.5-1.5,5.2c0.7,4.7,2,9.3,3.2,13.9c0.9,3.6,1.7,3.9,4.6,1.6C200.3,425.9,220.2,409.9,240.2,393.8z"/>
		<path d="M1338.6,179.8c2.4-2.3,3.9-4,5.8-5.3c1.4-0.9,3.4-1.8,4.8-1.5c0.9,0.2,1.7,2.6,2,4.1c0.4,2.2,0.3,4.6,0.4,7.7
			c4.2-0.9,8-1.6,11.9-2.4c3.5-0.7,7-1.7,10.6-1.9c4-0.3,5.7,2.3,4,5.9c-1,2.1-2.6,3.8-3.7,5.8c-0.6,1.1-0.7,2.6-1.1,3.9
			c1.2,0.1,2.5,0.6,3.6,0.3c4.5-1.4,9-3.1,13.5-4.6c5.5-1.9,10.9-4,16.5-5.5c1.7-0.4,4.4,0.6,5.5,1.9c0.7,0.8-0.4,3.9-1.6,5.2
			c-4.1,4.3-8.6,8.1-13,12.1c-0.8,0.8-1.7,1.5-3.1,2.6c7,3.9,6.5,9.1,3.6,15c-0.2,0.4,1.1,2.1,2,2.5c8,3.5,8.3,4,8.1,13.1
			c0,1,1,2.5,2,3c3.4,1.6,6.9,3,10.4,4.2c3.1,1.1,4.9,3.7,4.5,6.5c-0.2,1.6-2.9,3.2-4.7,4.1c-4.7,2-9.6,3.6-15.1,5.6
			c1.6,2.4,3,4.4,4.4,6.5c0.8,1.2,1.7,2.3,2.5,3.4c3.4,5,3.4,5.2-2.2,8c1.3,1.7,2.5,3.2,3.7,4.8c4.3,5.9,8.8,11.8,12.8,17.9
			c1.1,1.8,0.7,4.5,1,6.8c-2.2-0.3-4.4-0.5-6.6-1c-1.5-0.4-2.9-1.3-4.4-2c-0.2,0.3-0.4,0.6-0.6,0.9c0.9,0.9,1.8,1.8,2.8,2.6
			c1.4,1.1,3.2,1.9,1.7,4.3c-0.3,0.5,0.8,1.8,1.2,2.8c0.4,0.9,0.7,1.8,1,2.8c-1.1-0.2-2.6,0-3.1-0.6c-2-2.5-3.8-5.1-5.5-7.8
			c-0.4-0.6-0.5-1.4-0.6-2.2c-0.2-1.9-0.4-3.8-0.6-5.8c1.8,0.2,3.8,0.1,5.5,0.6c1.9,0.6,3.7,1.7,6.4,1.9c-1.1-2-2-4.2-3.3-6
			c-4.2-5.6-8.6-11-12.8-16.5c-2.9-3.8-2.4-5.7,2.2-7.9c-2.1-3.1-4.3-6.1-6.4-9.1c-3.2-4.7-2.5-6.7,2.8-8.4c4-1.3,8-2.8,12-4.4
			c1-0.4,1.7-1.2,2.6-1.9c-0.8-1-1.5-2.5-2.6-3c-3.4-1.6-6.9-2.9-10.4-4.2c-3.2-1.2-4.6-3-3.8-6.8c1.2-5.3-0.2-7.1-5.3-9
			c-5.8-2.1-6.2-3-3.7-8.8c1.5-3.4,1.5-5.9-1.9-8.3c-3.1-2.1-2.6-5.2,0.3-7.7c4.3-3.7,8.5-7.5,12.7-11.3c0.9-0.8,1.6-1.9,2.4-2.8
			c-0.1-0.3-0.3-0.6-0.4-1c-1.9,0.4-3.9,0.4-5.7,1.1c-5.7,2.1-11.2,4.5-16.9,6.6c-3.4,1.2-6.9,2.4-10.4,2.9
			c-1.7,0.3-4.7-0.4-5.3-1.6c-0.8-1.7-0.6-4.5,0.2-6.4c1.1-2.6,3.1-4.8,4.8-7.2c-0.2-0.3-0.5-0.7-0.7-1c-2.1,0.3-4.2,0.4-6.2,0.8
			c-4.7,1-9.3,2.2-14,3.1c-5.5,1-6.7-0.1-6.8-5.6c0-1.8,0-3.5,0-5.3c-0.3-0.2-0.7-0.3-1-0.5c-2,2.2-4,4.5-6.1,6.5
			c-0.9,0.9-2.2,1.5-3.3,2.2c-0.7-1.2-1.7-2.3-1.9-3.6c-0.8-7-1.4-14.1-2.3-22.5c-3.5,5.5-6.4,10.4-9.5,15.1c-0.7,1-1.7,1.8-2.6,2.7
			c-0.1-1.3-0.8-3-0.3-4c2.6-4.3,5.5-8.4,8.2-12.6c1.1-1.7,2-3.6,3.2-5.3c0.6-0.8,1.8-1.5,2.8-1.5c0.5,0,1.5,1.5,1.5,2.3
			c0.3,3.1,0.3,6.2,0.4,9.3C1337.8,169.4,1338.2,174.2,1338.6,179.8z"/>
		<path d="M500.8,196.6c5.6-1.2,11.1-2.4,16.6-3.5c1.8-0.3,3.6-0.3,5.4-0.2c11.9,0.5,18.9,9.3,15.7,20.7c-1.3,4.8-3.7,9.9-6.9,13.6
			c-6.1,7-12.7,13.5-20,19.2c-3.8,3-9.4,3.9-14.2,5.6c-0.7,0.2-1.7-0.5-2.6-0.9c0.8-0.7,1.4-1.7,2.3-1.9c2.9-0.9,5.9-1.6,8.3-2.2
			c-7.3-18.6-14.5-36.6-21.6-54.6c0.5-0.2,1-0.5,1.4-0.7c4,2.3,4.1,7.3,6.7,11.3c4.4-5,8.2-10.2,9.7-16.6c0.9-4-0.7-6-4.8-5.8
			c-9.7,0.5-16.2,6.2-21.2,13.8c-2.8,4.1-5.3,8.6-4.1,14.1c0.1,0.6-0.6,1.4-1,2.2c-0.6-0.5-1.7-1-1.8-1.6c-0.3-1.9-0.5-3.9-0.2-5.7
			c1.9-11.6,13.7-23.4,25.3-25.5c8.9-1.6,12.9,3,10.1,11.6C503.2,191.9,501.9,194.3,500.8,196.6z M509,245
			c9.6-6.8,17.5-14.4,23.3-23.9c1.5-2.4,2.6-5.1,3.3-7.8c2.3-9.3-2.6-16.6-11.5-17.1c-11.8-0.7-22.4,2.4-31.2,11
			C497.5,219.9,502.2,232.7,509,245z"/>
		<path d="M645.1,140.4c-6.2,3.7-12.5,7.5-19.2,11.5c4.4,5.9,8.2,11.1,12,16.2c0.5,0.6,1.2,1.1,1.4,1.8c0.3,0.8,0.2,1.7,0.2,2.5
			c-0.9-0.1-2.2,0.2-2.7-0.3c-1.5-1.6-2.7-3.4-3.9-5.2c-0.4,0.3-0.9,0.6-1.3,1c-0.1,1.3,0.1,2.7-0.2,4c-0.7,3-1.1,6.2-2.6,8.8
			c-4.9,8.5-14.2,9.2-20.5,1.8c-6.3-7.2-7.3-18.6-2.1-26.7c1-1.6,3.6-2.1,5.5-3.2c0.4,2,1.6,4.3,1,5.8c-1.3,3-3.7,5.5-5.6,8.3
			c-0.5,0.7-1.2,1.7-1.1,2.5c0.5,5.3,2.6,10,6.8,13.4c3.3,2.7,7.4,2.4,10.9-0.6c5-4.2,6.4-12.6,3.2-19.6c-1-2.2-2.8-4.2-3.3-6.5
			c-0.4-1.8-0.3-4.8,0.9-5.7c4.9-3.7,10.1-7,15.4-10.1c1.4-0.8,3.4-0.5,5.1-0.7C645,139.7,645.1,140,645.1,140.4z"/>
		<path d="M585.6,172.7c-2.7-5.8-5.3-11.2-7.7-16.7c-1.1-2.6-2-5.3-2.8-8c-0.2-0.9,0.4-2,0.6-3c0.7,0.7,1.8,1.3,2.2,2.2
			c3.1,7.1,6.1,14.2,9.2,21.3c0.2,0.6,0.6,1.1,1.2,2.1c2.2-1.5,4.2-3,6.4-4.2c0.8-0.5,2.1-0.2,3.1-0.3c-0.5,0.9-0.7,2.1-1.4,2.7
			c-6.9,5.4-7,5.5-1.8,12.8c2.5,3.4,5.4,6.5,8.1,9.8c0.6,0.8,0.7,1.9,1,2.8c-1-0.2-2.5-0.1-3-0.7c-3.5-4.1-6.9-8.3-10.2-12.5
			c-1.2-1.5-2-3.2-3.3-5.3c-4,2.8-7.8,5.6-11.8,8.4c3,6.1,5.9,11.9,8.6,17.8c0.5,1.1,0.4,2.5,0.6,3.8c-1.2-0.9-2.8-1.6-3.4-2.8
			c-2.8-5.3-5.4-10.8-8.3-16.7c-1.9,1.4-3.3,2.7-4.9,3.6c-0.6,0.4-1.6,0.1-2.4,0.2c0.2-0.8,0.1-1.8,0.5-2.3c1.4-1.8,4.1-3.5,4.2-5.3
			c0.1-2.1-2.1-4.3-3.2-6.5c-2.5-4.9-5.1-9.8-7.4-14.9c-0.7-1.4-0.5-3.2-0.8-4.8c0.4-0.1,0.9-0.2,1.3-0.3
			c4.3,8.4,8.6,16.8,13.2,25.7C577.9,178.4,581.7,175.6,585.6,172.7z"/>
		<path d="M261.3,491.6c-6.4,1.9-6.8,1.7-10.4-3.6c-0.8-1.1-2.6-2-4-2.1c-4.9-0.3-9.8-0.1-14.7-0.1c-4.6,0-8.7-1.5-11.9-4.8
			c-9.2-9.6-18.8-18.7-25.4-30.4c-0.6-1.1-2-1.8-3.2-2.5c-1.2-0.7-2.8-0.8-3.8-1.7c-0.9-0.8-1.2-2.2-1.7-3.4
			c1.1,0.3,2.2,0.6,3.3,0.8c10,2,10.9,12.6,17.3,18.1c5.1,4.4,9.4,9.9,13.8,15.1c3.8,4.3,8.5,6,14.1,6c4.5,0,9,0.1,13.5,0
			c2.7-0.1,4.5,1,5.5,3.4c0.9,2.4,2.3,3.4,5,3.1c0.7-0.1,1.7,1.5,2.5,2.3C261.2,491.7,261.3,491.6,261.3,491.6z"/>
		<path d="M562.8,215.7c3.3-2.1,6.1-4.1,9.1-5.9c1-0.6,2.2-0.8,3.2-1.2c-0.4,1.1-0.4,2.4-1.1,3.2c-7.8,8.7-17.4,7.8-23.1-2.3
			c-4.2-7.4-6.6-15.3-3.5-23.9c1-2.8,2.4-5.2,5.8-5.4c3.5-0.2,5.6,2.3,4,5.4c-1.5,2.8-4,4.9-5.8,7.5c-0.9,1.3-2.1,3.3-1.7,4.4
			c1.7,4.7,3.6,9.3,6.2,13.5C557.2,213,560,213.9,562.8,215.7z M550.6,190.3c1.4-2.1,2.9-4.1,4.7-6.8
			C551,184,550.2,185.1,550.6,190.3z"/>
		<path d="M364.8,565.5c-2.9,0-4.5,0.3-5.8-0.1c-1.4-0.4-3.6-1.4-3.7-2.2c-0.1-1.7,0.7-3.8,1.8-5c0.6-0.6,3.4-0.2,4.2,0.7
			C362.9,560.7,363.6,563.1,364.8,565.5z"/>
		<path d="M367.4,664.1c-2,1.9-3.4,3.3-4.8,4.7c-1-1.3-3.1-3-2.8-3.7c0.7-1.9,2.6-3.3,4-4.9C364.8,661.2,365.8,662.3,367.4,664.1z"
			/>
		<path d="M348.3,490.9c1.7-1.7,3-3.7,4-3.6c1.5,0.2,2.7,1.9,4.1,3c-1.3,1.5-2.6,3-4,4.6C351.3,493.7,350.1,492.6,348.3,490.9z"/>
		<path d="M357.9,595.6c1.8-1.7,3.4-3.9,4-3.6c1.5,0.6,3.6,2.3,3.6,3.6c0.1,1.2-2,3-3.5,3.6C361.3,599.5,359.7,597.3,357.9,595.6z"
			/>
		<path d="M359.4,525c-2,2.1-3.3,3.5-4.7,4.9c-1-1.3-3-2.8-2.7-3.7c0.4-1.6,2.2-3,3.6-4C355.9,521.9,357.5,523.5,359.4,525z"/>
		<path d="M366.3,637.1c-1.6-2.9-7-1.2-5.2-6.1c0.3-0.8,2.6-1.6,3.4-1.2C366.9,631.1,367.9,633.3,366.3,637.1z"/>
		<path d="M995.8,563.4c2.6,1.2,6.8-0.1,5.5,4.7c-0.3,0.9-2.4,2.2-3.4,1.9C994.8,569.1,994.7,566.6,995.8,563.4z"/>
		<path d="M995.9,671.8c1.6-1.4,3-3.2,3.5-3c1.5,0.6,2.6,2.1,3.8,3.2c-1.4,1-2.7,2.3-4.2,2.8C998.5,675,997.3,673.3,995.9,671.8z"/>
		<path d="M992.9,619.7c1.2-1.6,2.1-2.9,3-4.1c0.6,1.6,1.5,3.2,1.6,4.9c0,1.1-1.3,2.2-1.9,3.3C994.7,622.5,993.9,621.3,992.9,619.7z
			"/>
		<path d="M1000.9,699.7c1.7-1.4,2.7-2.7,4.1-3.2c0.5-0.2,1.7,1.3,2.6,2.1c-1.3,1.4-2.5,2.9-3.8,4.3
			C1003.1,702,1002.3,701.2,1000.9,699.7z"/>
		<path d="M996,589.3c1.4,1.6,2.9,2.7,2.8,3.4c-0.3,1.3-1.5,2.4-2.4,3.5c-0.9-1.2-2.1-2.2-2.7-3.6C993.5,592.2,994.8,591,996,589.3z
			"/>
		<path d="M1001.1,649.7c-1.9,1-3.1,2-4.2,2c-0.8,0-2.2-1.6-2.1-2.2c0.2-1.1,1.7-2.9,2.2-2.7C998.3,647,999.3,648.2,1001.1,649.7z"
			/>
		<path d="M991,274c4.4,1.1,8.5,5.1,12.2,9.5c1.2,1.4,2,3.3,2.7,5.1c0.2,0.6-0.3,1.7-0.8,2.3c-0.2,0.2-1.7-0.1-1.9-0.5
			c-3-6.8-9.3-5.9-14.6-5.7c-5.7,0.2-11,2.5-14.8,7.3c-0.5,0.7-1.3,1.3-2.1,1.5c-2.7,0.8-3.8-0.4-3.1-3.3
			C970.9,280.4,979.2,273.9,991,274z"/>
		<path d="M1005.8,338.3c-4.4,0.1-8.3-2.6-8.9-6c-0.1-0.7,0.3-1.6,0.5-2.4c0.7,0.4,1.7,0.6,2.1,1.1c3.4,4.6,5.9,5.4,11,2.6
			c2.9-1.6,5.4-3.9,8.1-5.8c0.7-0.5,1.7-0.6,2.5-0.9c0,0.9,0.3,2.3-0.2,2.8C1016.5,333.9,1011.8,337.8,1005.8,338.3z"/>
		<path d="M1307.7,380.3c-0.2-0.1-1.1-0.7-2.1-1.4c1-0.6,2-1.7,3.1-1.8c6.6-0.4,12-6.1,11.6-12.5c-0.1-1,0.6-2,0.9-3.1
			c0.7,1.2,2,2.3,2.1,3.6C1323.7,372.8,1316.5,380.2,1307.7,380.3z"/>
		<path d="M1274.8,322.2c-0.3-2-0.6-4-0.9-6c-0.1-0.5,0.1-1,0.3-1.5c2.5-5.1,13.8-8.8,18.4-5.9c1.2,0.8,1.8,2.5,2.7,3.7
			c-1.2,0.5-2.4,1.2-3.7,1.4c-5.6,0.9-10.4,2.8-12.6,8.8c-0.4,1.1-2.1,1.8-3.2,2.7c-0.7-1-1.4-1.9-2.1-2.9
			C1274.2,322.5,1274.5,322.3,1274.8,322.2z"/>
		<path d="M1176,530.9c-2.8-1.4-5.1-6.9-4-8.4c0.3-0.4,2.2-0.2,2.3,0C1174.9,525,1175.4,527.7,1176,530.9z"/>
		<path d="M346.9,341.7c-1.7,0-3.5,0.3-5.2-0.1c-7.6-1.6-15.1-3.4-20.7-9.4c-0.5-0.6-1.1-1.4-1.7-1.5c-4.8-0.4-3.6-3.6-2.6-6.1
			c3.1-7.8,9.5-12.4,17.3-13.9c5.1-1,10.9-0.5,16,0.8c3.8,0.9,7,4.1,10.3,6.5c0.4,0.3,0.1,1.7,0.1,2.7c-1-0.1-2.5,0.2-3-0.4
			c-5.2-6.3-12.1-7.8-19.8-7.3c-7.4,0.5-12.6,4.7-17.1,10.2c-1.4,1.7-1.4,3,0.6,5.1c6.6,6.9,14.8,9.5,23.7,10.7
			c0.8,0.1,1.6,0.7,2.3,1.1C347.2,340.7,347.1,341.2,346.9,341.7z"/>
		<path d="M416.2,318.9c-2.4,0.7-5.3,1.6-8.2,2.6c-1.9,0.7-3.8,1.5-5.8,2.1c-0.5,0.1-1.4-0.5-1.7-1c-0.2-0.2,0.3-1.4,0.7-1.6
			c6.1-2.5,12-5.9,19.1-4.5c5.8,1.1,9.8,4.2,12.2,9.5c0.2,0.5-0.4,1.4-0.6,2.1c-1.1-0.6-3-1.1-3.3-1.9c-1.1-4-4.2-5.3-7.6-6.3
			C419.7,319.4,418.3,319.3,416.2,318.9z"/>
		<path d="M354.5,379c-9.2-0.3-14-4.2-17.6-9.7c-0.8-1.2-0.5-3.2-0.4-4.8c0-0.6,1.2-1.1,1.8-1.6c0.4,0.6,0.9,1.2,1,1.8
			c1,7.6,9.6,13.1,16.8,10.5c1.9-0.7,3.6-1.9,5.4-2.8c0.7-0.3,1.6-0.3,2.4-0.4c-0.1,0.9,0.1,2.4-0.4,2.6
			C360,376.5,356.3,378.2,354.5,379z"/>
		<path d="M369.3,357.2c3.3,4.3,7.3,4.3,11.4,2c1.4-0.8,3.2-2.5,3.1-3.8c-0.1-1.8-1.6-3.5-2.7-5.1c-0.5-0.6-1.7-0.7-2.3-1.3
			c-0.4-0.4-0.6-1.3-0.5-2c0-0.3,1.1-0.7,1.6-0.6c3.5,0.9,6,2.8,6.9,6.5c0.8,3.5,0.2,6.9-3.3,8.2c-3.5,1.3-7.4,1.9-11.1,1.9
			C369.6,363,367.9,360.8,369.3,357.2z"/>
		<path d="M412.8,344.8c-2.3-0.1-4.7-0.1-6.9-0.5c-0.9-0.2-1.6-1.6-2.4-2.5c1-0.2,2-0.6,2.9-0.5c8.9,0.8,17.6,1.2,23.7-7.2
			c0.4-0.5,1.5-0.5,2.2-0.7c0,1,0.3,2.4-0.2,3.1c-3.7,4.8-8.8,7.4-14.7,8.1c-1.5,0.2-3.1,0-4.6,0
			C412.8,344.7,412.8,344.8,412.8,344.8z"/>
		<path d="M348.8,334.1c-2,0.1-4.3-0.5-4-4c0.3-2.7,0.6-5.6,4-6.3c2.2-0.4,5.1,3.6,5.2,6.8C354.2,333,352.7,334.1,348.8,334.1z"/>
		<path d="M421.9,327.4c1.7-0.1,3.7,0.2,3.6,3.4c-0.1,3.9-1.6,5.8-4.7,5.7c-2.8-0.1-4.8-1.1-4.7-4.3
			C416.1,329.1,417.9,327.4,421.9,327.4z"/>
		<path d="M562.4,584.2c-0.3,0.4-0.8,1.1-1.4,1.8c-0.6-0.7-1.6-1.3-1.7-2.1c-0.5-3.1-0.9-6.3-1.1-9.5c0-0.7,0.9-1.4,1.4-2.2
			c0.5,0.6,1.3,1.2,1.4,1.9C561.5,577.2,561.9,580.4,562.4,584.2z"/>
		<path d="M566.3,601.6c-1.4,1-2.5,2.3-2.8,2.1c-1.3-0.8-2.6-1.9-3.2-3.2c-0.3-0.6,1.3-1.9,2-2.9C563.5,598.8,564.6,600,566.3,601.6
			z"/>
		<path d="M106.4,126.6c-0.1,3.6-1.5,4.3-4,2.6c-6.9-4.8-13.6-9.7-20.4-14.6c-2.6-1.9-5.2-3.7-7.9-5.5c-3.4-2.2-3.6-3.7-0.2-5.9
			c5.3-3.6,10.8-7.1,16.2-10.5c2.3-1.5,3.9-1.1,4.9,1.9c2.4,7,5.3,13.9,7.8,20.9C104.3,119.5,105.4,123.6,106.4,126.6z M75.3,105.8
			c9.3,6.8,17.9,13,26.5,19.3c0.3-0.3,0.7-0.6,1-0.9c-3.8-9.4-7.7-18.9-11.7-28.9C86.1,98.6,81,102,75.3,105.8z"/>
		<path d="M55.4,109c3.2-2.4,5.8-4.5,8.6-6.3c0.8-0.5,2.2-0.1,3.4-0.1c-0.6,0.9-1,1.9-1.7,2.5c-3,2.5-6,4.9-9.1,7.1
			c-1,0.7-2.5,0.6-3.8,0.9c-0.2-1.2-0.8-2.4-0.6-3.6c0.4-3.6,1-7.1,1.7-10.7c0.2-0.8,1-1.5,1.5-2.3c0.5,0.9,1.4,1.8,1.4,2.6
			C56.5,102.2,55.9,105.3,55.4,109z"/>
		<path d="M100,82.5c-4-0.2-8-0.5-12-0.7c0-0.5,0-1-0.1-1.5c1.2-0.4,2.5-1.1,3.7-1.1c4.3,0.2,8.7,0.5,13,1c2.2,0.2,2.8,2.1,1.2,3.1
			c-3.7,2.4-7.8,4.2-11.8,6.2c-0.3,0.1-1.4-0.7-1.4-0.8c0.2-0.8,0.5-1.9,1.1-2.2c2.1-1.1,4.3-2,6.5-3
			C100.1,83.2,100.1,82.9,100,82.5z"/>
		<path d="M76.5,133.2c3.7-2.8,6.3-5,9.1-6.8c0.7-0.5,2-0.2,3.1-0.2c-0.5,0.9-0.8,2-1.5,2.6c-2.9,2.5-5.9,5-9,7.3
			c-2.7,2-4.4,1.2-4.4-2.2c0-3.5,0.4-6.9,0.9-10.4c0.1-0.6,1-1.2,1.6-1.8c0.4,0.8,1.3,1.6,1.2,2.4C77.3,126.8,76.9,129.4,76.5,133.2
			z"/>
		<path d="M41.1,86.5c3.2-1.3,5-5.1,9.7-4.3c-0.8,1.2-1.1,2.1-1.8,2.6c-2.9,2.3-5.9,4.6-8.9,6.7c-0.7,0.5-2.1,0.8-2.8,0.4
			c-0.6-0.4-1-1.8-0.8-2.6c0.7-3.8,1.6-7.5,2.6-11.2c0.1-0.6,1-0.9,1.5-1.4c0.4,0.5,1.3,1.1,1.3,1.6C41.8,81,41.4,83.6,41.1,86.5z"
			/>
		<path d="M114.5,106c-4.5,0-8.1,0.1-11.7-0.1c-0.9,0-1.8-0.9-2.7-1.4c0.9-0.5,1.7-1.5,2.6-1.6c5-0.2,10-0.2,15-0.1
			c0.8,0,1.7,0.6,2.2,1.1c0.2,0.2-0.4,1.4-0.8,1.9c-1.8,2.1-3.6,4.3-5.7,6.2c-0.7,0.7-2.1,0.8-3.1,1.1c0.3-1,0.3-2.1,0.9-3
			C112,109,113.1,107.8,114.5,106z"/>
		<path d="M98.8,142.1c0,3.5,0,7,0,11.2c2.3-1.9,4-3.5,6-4.9c0.7-0.5,1.8-0.3,2.7-0.4c-0.2,0.9-0.2,2.1-0.8,2.6
			c-2.3,2.1-4.6,4.1-7.1,5.9c-2.7,1.9-4.3,1.1-4.1-2.1c0.3-4.2,1-8.3,1.5-12.5C97.6,141.9,98.2,142,98.8,142.1z"/>
		<path d="M120.8,177.5c1.1-1.7,2.2-3.5,3.4-5c0.5-0.7,1.5-1,2.3-1.5c0.1,1,0.6,2.3,0.2,3c-1.7,2.7-3.6,5.4-5.7,7.8
			c-0.4,0.5-3.1,0-3.2-0.3c-1-4.2-1.7-8.5-2.4-12.8c-0.1-0.6,0.8-1.4,1.2-2c0.5,0.7,1.4,1.4,1.5,2.2c0.5,2.8,0.8,5.7,1.2,8.5
			C119.8,177.4,120.3,177.4,120.8,177.5z"/>
		<path d="M88.1,61c-3.7,0-7.5,0-11.7,0c0.6-1.1,0.8-2,1.2-2c4.5-0.3,8.9-0.6,13.4-0.6c0.5,0,1.7,2.6,1.3,3.2
			c-1.8,2.6-4,4.9-6.2,7.2c-0.4,0.4-1.6,0.1-2.4,0.2c0.3-0.9,0.3-2,0.8-2.5c1.6-1.3,3.4-2.3,5.1-3.4C89,62.3,88.5,61.7,88.1,61z"/>
		<path d="M118.4,135.8c1.3-1.4,2-2.2,2.7-3c-2.1-0.8-4.2-1.5-6.2-2.3c0-0.4,0-0.8,0.1-1.2c0.8-0.3,1.7-0.9,2.5-0.7
			c3.3,0.6,6.6,1.3,9.7,2.3c0.6,0.2,1.1,2.9,0.8,3C125.3,135.5,122.5,137.2,118.4,135.8z"/>
		<path d="M92.8,117.6c-1.9-2.9-3.6-5.5-5.2-8.2c-0.1-0.2,0.7-1.4,1.3-1.6c0.5-0.1,1.4,0.4,1.8,0.9c1.3,1.7,2.5,3.5,3.6,5.3
			c0.4,0.6,0.5,1.4,0.5,2.1C94.8,116.4,94.1,116.6,92.8,117.6z"/>
	</g>
	<g>
		<g>
			<path d="M224.5,863c6.8-18,1.5-40.4-17.6-48c-19.4-7.8-35.6,6.2-41,24.3c-6,20-2.9,44.7,10.2,61.4c11.4,14.6,31.2,19.6,44.9,4.9
				c18.2-19.7,8-46.9-1.2-68.1c-0.8-1.8-3.4-0.2-2.6,1.5c7.6,17.5,16.4,38.3,7,56.8c-3.7,7.2-10,13.7-18.1,15.5
				c-8.7,1.9-17.1-1.8-23.4-7.8c-13.3-12.7-17.9-33.2-16.2-50.9c1.6-16.9,11-38.4,31.3-36.7c23.1,1.9,31.1,27.3,23.9,46.4
				C220.9,864,223.8,864.8,224.5,863L224.5,863z"/>
		</g>
	</g>
	<g>
		<g>
			<path d="M242.7,815.1c5.9,25.9,9.9,52.1,11.9,78.6c1-0.1,2-0.3,2.9-0.4c-3.3-10.6-3-21.9,1.3-32.2c2.2-5.3,5.7-12.2,11.7-13.8
				c5.7-1.6,11.7,2.3,14.7,7c6.1,9.9,1,24.5-4.7,33.5c-2.9,4.6-6.9,8.9-12.3,10.3c-5.6,1.5-11.9,0-15.1-5c-1-1.6-3.6-0.1-2.6,1.5
				c6.7,10.5,21.1,8,28.6-0.1c8.8-9.5,15.7-28.2,9.3-40.5c-5.8-11.1-19.5-13.3-27.3-3.2c-9.2,12.1-10.9,29.1-6.5,43.3
				c0.5,1.5,3.1,1.4,2.9-0.4c-2.1-26.7-6.1-53.3-12-79.4C245.1,812.4,242.2,813.2,242.7,815.1L242.7,815.1z"/>
		</g>
	</g>
	<g>
		<g>
			<path d="M312.3,831.8c7.2-9.2,9.6-21.4,6.3-32.6c-1.4-4.6-3.9-10.8-8.4-13.2c-4.4-2.3-7.9,1.2-9.9,4.9c-6.5,11.7-1.7,28.1,0,40.4
				c2.4,17.8,4.9,35.6,7.3,53.4c2.8,20.1,5.5,40.2,8.3,60.4c0.3,1.9,3.2,1.1,2.9-0.8c-4.8-35.3-9.7-70.6-14.5-105.9
				c-1.2-9-2.7-18-3.6-27.1c-0.3-3.2-0.5-6.3-0.3-9.5c0.3-3.7,1.4-10.4,4.9-12.7c7.6-5,11.6,14.8,11.8,18.8
				c0.4,7.8-2.1,15.5-6.9,21.6C309,831.2,311.1,833.3,312.3,831.8L312.3,831.8z"/>
		</g>
	</g>
	<g>
		<g>
			<path d="M290.7,875.5c10.1-2.7,20.3-5.4,30.4-8.1c1.9-0.5,1.1-3.4-0.8-2.9c-10.1,2.7-20.3,5.4-30.4,8.1
				C288,873.1,288.8,876,290.7,875.5L290.7,875.5z"/>
		</g>
	</g>
	<g>
		<g>
			<path d="M332.2,832.1c1.9,15,3.8,29.9,5.9,44.9c0.9,6.6,2.3,20,11.9,19.2c9.7-0.8,13.3-14.1,14.1-21.8
				c1.4-14.3-0.3-29.3-0.7-43.7c-0.1-1.9-3.1-1.9-3,0c0.3,11.3,0.8,22.5,1,33.8c0.2,8.9,0,22.1-8.6,27.6
				c-11.2,7.1-12.2-19.4-12.9-24.4c-1.6-11.9-3.1-23.7-4.6-35.6C335,830.2,332,830.2,332.2,832.1L332.2,832.1z"/>
		</g>
	</g>
	<g>
		<g>
			<path d="M395.1,828.7c-3.4-12.1-40.3,6.1-22.9,20.1c3.5,2.8,8,4,12.2,5.2c7,2,14.2,4.5,20.4,8.4c9.6,6.1,5,16.5-3.9,20.1
				c-7.7,3.1-16.6,2.8-24.6,1c-1.9-0.4-2.7,2.5-0.8,2.9c10.2,2.4,23.7,2.7,32.3-4.4c6.9-5.7,7.6-15.6,0.2-21.1
				c-9.2-6.8-20.8-7.7-30.7-12.6c-6.2-3-8.3-9.3-2.9-14.4c2-1.9,16.2-10.6,17.9-4.5C392.8,831.4,395.7,830.6,395.1,828.7
				L395.1,828.7z"/>
		</g>
	</g>
	<g>
		<g>
			<path d="M449,828.3c-4.4-8.8-17.1-0.6-21.4,3.9c-7.1,7.5-11.2,18.4-10.7,28.7c0.4,8.9,4.6,17.8,13.4,21.1
				c11.6,4.3,24-2.9,33.4-9.1c1.6-1.1,0.1-3.7-1.5-2.6c-7.5,4.9-16.4,10.4-25.7,9.9c-9-0.5-14.8-7.3-16.3-15.8
				c-1.3-7.7,0.5-15.8,4.2-22.6c2.2-4.1,5.1-7.8,8.8-10.6c3-2.2,10.7-6.6,13.3-1.4C447.3,831.5,449.9,830,449,828.3L449,828.3z"/>
		</g>
	</g>
	<g>
		<g>
			<path d="M495.9,866.3c5.9-12.1,7.9-29.3-0.4-40.9c-3-4.1-7.6-7.9-13-7.3c-6.2,0.8-9.4,7-11.8,12c-5.9,12.6-10.5,30.7-3.8,43.9
				c5,9.9,19.3,15.2,27.1,5.2c4.3-5.5,4.7-13.1,5.1-19.8c0.6-10.8,0.6-21.5,0.3-32.3c-0.1-1.9-3-1.9-3,0
				c0.2,17.3,7.2,33.6,19.5,45.8c1.4,1.4,3.5-0.8,2.1-2.1c-11.8-11.6-18.4-27.1-18.7-43.7c-1,0-2,0-3,0c0.2,8.2,0.3,16.5,0,24.7
				c-0.2,6.6,0,13.7-2.1,20.1c-2.6,8.2-10.3,12.2-18.2,7.7c-7.1-4-9.2-12.5-9.2-20.1c0-8.8,6-45.7,21.1-37.4
				c14,7.7,11.1,30.8,5.4,42.6C492.5,866.5,495.1,868,495.9,866.3L495.9,866.3z"/>
		</g>
	</g>
	<g>
		<g>
			<path d="M526.9,786.3c-4.1,32-1.4,64.5,7.7,95.5c0.5,1.8,3.4,1.1,2.9-0.8c-9.1-30.7-11.6-62.9-7.6-94.7
				C530.2,784.4,527.2,784.4,526.9,786.3L526.9,786.3z"/>
		</g>
	</g>
	<g>
		<g>
			<path d="M507.7,820.7c15.5-3.7,31.3-5.5,47.2-5.7c1.9,0,1.9-3,0-3c-16.2,0.1-32.2,2-48,5.8C505,818.3,505.8,821.2,507.7,820.7
				L507.7,820.7z"/>
		</g>
	</g>
	<g>
		<g>
			<path d="M553.1,816c-4.6,20.9-1.8,42.5,8,61.6c0.9,1.7,3.5,0.2,2.6-1.5c-9.4-18.3-12.1-39.2-7.6-59.3
				C556.4,814.9,553.5,814.1,553.1,816L553.1,816z"/>
		</g>
	</g>
	<g>
		<g>
			<path d="M561.6,778.9c-0.6-5-6.6-4.6-10.1-2.6c-5,2.9-9.4,9.1-7.1,15c1.9,5.1,8.4,6.4,12.2,2.4c3.8-4.1,1-10.6-4.1-11.8
				c-1.9-0.5-2.7,2.4-0.8,2.9c3.3,0.8,5.1,5.2,2,7.4c-3.4,2.5-6.9-0.5-6.9-4.2c0-3.2,2.2-5.8,4.5-7.8c0.9-0.8,6.9-4.4,7.3-1.3
				C558.8,780.7,561.8,780.8,561.6,778.9L561.6,778.9z"/>
		</g>
	</g>
	<g>
		<g>
			<path d="M586.9,861.6c2.4,3.7,7.2,4.5,11,2.3c5.5-3.1,6.6-10.8,7.4-16.4c1.6-11,3.1-29.6-8.8-35.9c-12-6.4-22.7,6.1-25.5,16.5
				c-3.2,12.2-4.1,30.2,8.5,37.4c5,2.9,11.4,3,15.7-1.2c3.9-3.8,5.2-9.7,2.1-14.3c-1.1-1.6-3.7-0.1-2.6,1.5c3.6,5.4-1,12.7-7.1,13.1
				c-6.9,0.5-12.5-5.7-14.4-11.8c-3.2-10.2-1.4-27.2,6.4-35.1c4.2-4.2,11.1-6.5,16.4-2.9c4.8,3.2,6.4,9.7,6.9,15.1
				c0.6,6.5,0.1,13.3-1.1,19.7c-0.4,2.5-0.9,4.9-2,7.2c-1.6,3.5-7,8.4-10.5,3.2C588.4,858.5,585.8,860,586.9,861.6L586.9,861.6z"/>
		</g>
	</g>
	<g>
		<g>
			<path d="M621.2,800.7c0.5,23,1.9,46,4.5,68.8c0.2,1.9,2.9,2,3,0c0.3-10.7,0.3-21.5,1.1-32.2c0.4-5.1,1.1-10.2,2.9-15
				c2-5.3,6.6-13.3,13.3-12.1c13.3,2.4,8.9,23.4,8.2,32.6c-0.9,12.3-1.7,24.6-2.6,36.9c-0.1,1.9,2.9,1.9,3,0
				c1.1-16,2.3-31.9,3.4-47.9c0.6-9.1-0.2-23.9-12.4-24.8c-10.6-0.8-16,12.8-17.6,21.2c-2.6,13.4-1.8,27.7-2.2,41.3c1,0,2,0,3,0
				c-2.5-22.9-4-45.8-4.5-68.8C624.1,798.8,621.1,798.7,621.2,800.7L621.2,800.7z"/>
		</g>
	</g>
	<path d="M1020,822.9c1.8,35.8,5.9,71.3,12.2,106.6c0.3,1.8,3.1,1.1,2.8-0.8c-6.3-35-10.3-70.3-12.1-105.8
		C1022.8,821,1019.9,821,1020,822.9L1020,822.9z"/>
	<path d="M1045.5,873.5c0.6,17.8,2.8,35.4,6.8,52.7c0.3,1.4,2.5,1.4,2.8,0c2.4-10,5.1-19.8,8.2-29.6c1.6-4.9,3.2-9.7,4.9-14.5
		c0.9-2.5,1.6-5.2,3.3-7.3c1.5-1.9,1.8-2.6,4.2-1.7c2.4,0.9,2.5,2,3.2,4.4c4.7,16.2-1.1,34.1,7.7,49.3c0.9,1.6,3.4,0.2,2.5-1.5
		c-5.9-10.1-4.9-21.9-5.3-33.2c-0.2-5.2-0.6-10.5-2.1-15.5c-0.9-3-2-6.9-5.5-7.6c-8.2-1.5-11.4,13.9-13.1,19
		c-4.2,12.3-7.7,24.7-10.8,37.3c0.9,0,1.9,0,2.8,0c-3.9-17.1-6.1-34.5-6.7-52C1048.3,871.6,1045.4,871.6,1045.5,873.5L1045.5,873.5z
		"/>
	<path d="M1123.8,875.9c-4,16.8-0.6,34,0.3,51c0.9,18.2,0.3,36.8-2.9,54.8c-2.6,14.5-7.8,32.8-20.2,42c-9.8,7.3-18.1-6.4-22.1-13.9
		c-4.2-7.9-6.7-16.6-7.7-25.5c-0.2-1.8-3.1-1.9-2.9,0c1.4,13.1,6,26.4,14.3,36.7c3.3,4.1,8.2,8.2,13.8,7.7c5.7-0.5,9.9-5.8,13.1-9.9
		c8.2-10.7,12.3-24,14.6-37.1c2.7-15.5,3.5-31.5,3.2-47.2c-0.4-19.1-5.1-38.9-0.7-57.8C1127,874.8,1124.2,874.1,1123.8,875.9
		L1123.8,875.9z"/>
	<g>
		<g>
			<path d="M1115.2,843.3c1.9,0,1.9-3,0-3C1113.3,840.3,1113.3,843.3,1115.2,843.3L1115.2,843.3z"/>
		</g>
	</g>
	<path d="M1144.2,885c11.3-2.7,19.9-12,21.7-23.5c0.1-0.7-0.2-1.6-1-1.8c-16.6-2.9-21.8,16.5-22.7,29.1c-0.6,8.3,0.1,38,16,31.6
		c1.7-0.7,1-3.5-0.8-2.8c-12.8,5.2-12.8-22.1-12.3-28.8c0.7-10.4,4.7-28.8,19-26.3c-0.3-0.6-0.7-1.2-1-1.8
		c-1.6,10.6-9.2,19-19.6,21.5C1141.6,882.7,1142.4,885.5,1144.2,885L1144.2,885z"/>
	<path d="M1211.1,874.8c-1.2-8.2-10.6-11.6-17.7-8.8c-9.8,3.8-15.5,15.3-17.6,25c-1.9,8.6-2.6,21.1,5.6,26.8
		c7.3,5.1,17.7,3,25.7,0.8c1.8-0.5,1-3.3-0.8-2.8c-6.2,1.7-13.3,3.3-19.6,1.3c-9.1-2.8-9.8-12.9-8.9-21c0.9-8.2,4.3-17.1,10.3-23
		c3-3,6.9-5.6,11.3-5.3c4.5,0.3,8.2,3.2,8.9,7.7C1208.6,877.4,1211.4,876.7,1211.1,874.8L1211.1,874.8z"/>
	<path d="M1233.3,830.8c-0.7,16.8-1.6,33.5-2.2,50.3c-0.4,13.6,0.1,27.5,7.4,39.4c1,1.6,3.5,0.1,2.5-1.5
		c-7.5-12.4-7.4-27.1-6.8-41.2c0.6-15.7,1.4-31.4,2-47C1236.2,828.9,1233.3,829,1233.3,830.8L1233.3,830.8z"/>
	<g>
		<g>
			<path d="M1218,874.3c14.1-1.9,28.1-4.5,41.9-7.7c1.9-0.4,1.1-3.3-0.8-2.9c-13.6,3.2-27.3,5.8-41.1,7.6
				C1216.1,871.5,1216.1,874.5,1218,874.3L1218,874.3z"/>
		</g>
	</g>
	<path d="M1268.8,862.8c3.7,19.5,7.4,39,11.2,58.6c0.3,1.8,3.1,1.1,2.8-0.8c-3.7-19.5-7.4-39-11.2-58.6
		C1271.2,860.2,1268.4,861,1268.8,862.8L1268.8,862.8z"/>
	<path d="M1270.5,843.4c0,0.5,0,1.1,0,1.6c0,0.8,0.7,1.5,1.5,1.5c0.8,0,1.5-0.6,1.5-1.5c0-0.5,0-1.1,0-1.6c0-0.8-0.7-1.5-1.5-1.5
		C1271.1,842,1270.5,842.6,1270.5,843.4L1270.5,843.4z"/>
	<path d="M1312.5,905.2c13.6-6.8,20.1-22.8,14.3-37c-2.5-6.1-7.4-12.2-13.8-14.4c-6.8-2.4-13.1,1.2-17.3,6.4
		c-9.5,11.8-13.8,30.7-11.3,45.5c2.3,13.1,13.1,23,26.7,17.4c18.1-7.5,17.8-28.9,14.2-45.1c-0.4-1.8-3.2-1.1-2.8,0.8
		c3.4,15.2,3.9,37.5-15,42.5c-19.2,5.1-22-19.2-20.1-32.2c1.9-13.1,13.7-45.7,31.2-28.1c12.8,12.8,8.1,33.9-7.5,41.7
		C1309.3,903.5,1310.8,906,1312.5,905.2L1312.5,905.2z"/>
	<path d="M1351.2,862.2c-1.7,18.8-2.2,37.6-1.5,56.5c0.1,1.9,2.9,1.9,2.9,0c-0.2-12,0.9-23.9,3.5-35.6c1.2-5.6,2.6-12,6.8-16.2
		c5.1-5.1,13.6-5.6,16.7,1.8c2,4.8,1.7,10.4,1.7,15.5c0,5.3-0.1,10.5,0,15.8c0.3,9.8,1.6,19.4,6.3,28.1c0.9,1.6,3.4,0.2,2.5-1.5
		c-6.8-12.6-6-27-5.9-40.8c0-8.5,0.9-23-10-25.5c-10.5-2.4-17.1,7.9-19.6,16.5c-3.8,13.5-5.1,27.9-4.9,41.9c1,0,1.9,0,2.9,0
		c-0.7-18.9-0.2-37.7,1.5-56.5C1354.3,860.4,1351.4,860.4,1351.2,862.2L1351.2,862.2z"/>
	<g>
		<g>
			<path d="M77.1,933.1c8-27.8,15.2-55.8,21.6-84c-1-0.1-2-0.3-2.9-0.4c0.8,25.1,5.2,49.9,13.1,73.8c0.6,1.8,3.5,1,2.9-0.8
				c-7.8-23.6-12.2-48.1-13-73c-0.1-1.6-2.6-2.1-2.9-0.4c-6.4,28.2-13.6,56.2-21.6,84C73.7,934.2,76.6,935,77.1,933.1L77.1,933.1z"
				/>
		</g>
	</g>
	<g>
		<g>
			<path d="M119.1,908.9c0,0.4,0,0.9,0,1.3c0,0.8,0.7,1.5,1.5,1.5c0.8,0,1.5-0.7,1.5-1.5c0-0.4,0-0.9,0-1.3c0-0.8-0.7-1.5-1.5-1.5
				C119.8,907.5,119.1,908.1,119.1,908.9L119.1,908.9z"/>
		</g>
	</g>
	<path d="M930.7,882.4c-0.8-8.4-0.8-17.5,1.6-25.7c1.2-4,7-12.2,11.4-5.5c2.2,3.4,2.2,9.4,2.3,13.2c0.2,14.9-5.1,31.1-12.1,44.2
		c-3.3,6.1-7.7,12-13.8,15.5c-3.3,1.9-9.3,4-12-0.2c-2.4-3.8,0.9-9.7,3.2-12.9c4.5-6.4,11-4.7,15.2,1.2c1.8,2.5,3.1,5.3,4.9,7.9
		c3.7,5.3,8.6,9.5,14.2,12.6c1.6,0.9,3.1-1.6,1.5-2.5c-3.9-2.2-7.5-4.9-10.5-8.3c-3.4-3.8-5.3-8.4-8.4-12.4
		c-3.7-4.8-10.1-7.9-15.6-4c-4.6,3.3-8.7,10.9-8,16.7c0.8,5.9,6.4,7.9,11.7,6.7c13.9-3.3,21.3-19.5,25.8-31.6
		c3.2-8.6,5.8-17.6,6.7-26.8c0.6-6.3,1.2-16.9-3.3-22.1c-4.8-5.6-12.3-0.9-14.7,4.4c-3.9,8.7-3.6,20.3-2.8,29.6
		C928,884.3,930.9,884.3,930.7,882.4L930.7,882.4z"/>
	<path d="M966.7,906.2c0.9,0.4,1.8,0.9,2.6,1.3c0.7,0.4,1.6,0.2,2-0.5c0.4-0.6,0.2-1.6-0.5-2c-0.9-0.4-1.8-0.9-2.6-1.3
		c-0.7-0.4-1.6-0.2-2,0.5C965.8,904.9,966,905.8,966.7,906.2L966.7,906.2z"/>
</g>
</svg>
