<?xml version="1.0" encoding="utf-8"?>
<!-- Generator: Adobe Illustrator 22.0.1, SVG Export Plug-In . SVG Version: 6.00 Build 0)  -->
<svg version="1.0" id="Ebene_1" xmlns="http://www.w3.org/2000/svg" xmlns:xlink="http://www.w3.org/1999/xlink" x="0px" y="0px"
	 viewBox="0 0 681.8 338.8" enable-background="new 0 0 681.8 338.8" xml:space="preserve">
<polygon opacity="0.6" fill="#64398E" points="620.4,338.7 393.9,338.7 417.4,304.6 446.5,262.4 505.4,177.1 505.4,177.1 
	506.6,175.3 507.1,174.6 507.7,175.4 507.7,175.5 570,265.7 570.1,265.8 "/>
<polygon opacity="0.6" fill="#64398E" points="441,338.7 213.3,338.7 213.3,338.7 213.5,338.4 258.9,272.7 258.9,272.6 283.7,236.7 
	302.7,209.1 327.1,173.7 391.4,266.9 391.6,267.2 391.7,267.2 417.4,304.6 "/>
<polygon opacity="0.6" fill="#64398E" points="213.3,269.2 213.3,338.7 212.7,338.7 212.4,338.8 212.4,338.7 210.2,338.7 
	146.1,304.8 146.6,304.6 180.2,286.8 "/>
<polygon opacity="0.6" fill="#64398E" points="0,268.3 8.2,315.1 36.5,298.8 "/>
<polygon opacity="0.6" fill="#D36E00" points="505.6,175.2 495.4,316.7 673.2,195.6 "/>
<polygon opacity="0.6" fill="#D36E00" points="496.8,45.7 540.7,133.3 604.2,0 "/>
<polygon opacity="0.6" fill="#D36E00" points="391.9,267.1 391.8,267.1 391.6,267.2 213.5,338.4 213.3,338.5 212.7,338.7 
	212.4,338.8 212.4,338.7 180.2,286.8 120.9,191.1 255.9,228.9 283.7,236.7 283.7,236.7 391.4,266.9 391.8,267 "/>
<polygon opacity="0.6" fill="#3B6AAD" points="681.8,278.7 681.8,338.7 461.8,338.7 495.2,316.2 495.5,316 570,265.7 598.8,246.3 
	599,246.1 616.3,234.5 "/>
<polygon opacity="0.6" fill="#3B6AAD" points="515.6,338.7 327,338.7 391.7,267.2 391.8,267.1 391.8,267 421.3,234.5 446.5,262.4 
	495.2,316.2 495.4,316.5 495.5,316.6 "/>
<polygon opacity="0.6" fill="#3B6AAD" points="210.3,338.7 24.3,338.7 117.3,288.9 146.6,304.6 "/>
<polygon opacity="0.6" fill="#3B6AAD" points="255.8,228.8 258.9,272.7 302.7,209.1 "/>
<polygon opacity="0.6" fill="#3B6AAD" points="428.9,147.3 439.8,109 388.4,121.9 "/>
</svg>
