<?xml version="1.0" encoding="utf-8"?>
<!-- Generator: Adobe Illustrator 22.0.1, SVG Export Plug-In . SVG Version: 6.00 Build 0)  -->
<svg version="1.0" id="Ebene_1" xmlns="http://www.w3.org/2000/svg" xmlns:xlink="http://www.w3.org/1999/xlink" x="0px" y="0px"
	 viewBox="0 0 644.3 773.7" enable-background="new 0 0 644.3 773.7" xml:space="preserve">
<g>
	<g>
		<path fill="#4C4C4C" d="M21.1,92.2c-0.6,0-1.2-0.2-1.7-0.6C19,91.1,8.4,81.4,3,65.6C-2,50.9-3.2,28.2,19.3,3L22,0l1.5,3.7
			C38.1,40.3,58.7,82,89,80.2c1.4-0.1,2.6,1,2.6,2.3c0.1,1.4-1,2.6-2.3,2.6c-0.7,0-1.5,0.1-2.2,0.1C56,85.2,35.2,45.7,20.4,9.4
			C5.7,27.2,1.5,45.6,7.7,64c5,14.6,15,23.7,15.1,23.8c1,0.9,1.1,2.5,0.2,3.5C22.5,91.9,21.8,92.2,21.1,92.2z"/>
	</g>
	<g>
		<path fill="#4C4C4C" d="M501.5,92.2c-0.7,0-1.4-0.3-1.9-0.8c-0.9-1-0.8-2.6,0.2-3.5c0.1-0.1,10.2-9.4,15.1-24
			c6.2-18.4,1.9-36.6-12.7-54.4c-14.8,36.3-35.6,75.8-66.7,75.8c-0.7,0-1.4,0-2.2-0.1c-1.4-0.1-2.4-1.3-2.3-2.6s1.3-2.4,2.6-2.3
			c30.3,1.8,50.9-39.9,65.5-76.4l1.5-3.7l2.7,3c22.5,25.2,21.3,47.9,16.3,62.6c-5.4,15.8-16,25.5-16.4,25.9
			C502.7,92,502.1,92.2,501.5,92.2z"/>
	</g>
	<g>
		<path fill="#515050" d="M550.4,731.4c-5.2,0-7.8-1.9-8.4-2.4c-0.6-0.5-0.9-1.3-0.9-2c0-0.8,0.5-1.5,1.1-1.9
			c0.8-0.5,82-55.6,73.9-116.6c-4.3-31.9-11.7-58.1-59.4-55.8c-20.2,1-53.6,18.5-53.9,18.7c-1.2,0.6-2.7,0.2-3.4-1
			c-0.6-1.2-0.2-2.7,1-3.4c1.4-0.7,34.7-18.3,56.1-19.3c23.9-1.1,40.5,4.7,50.7,17.8c9.2,11.7,11.9,27.4,13.9,42.4
			c3.5,26.6-8.5,56.1-35,85.2c-14.6,16.1-29.8,28-37,33.2c6,0.5,19.4-2.2,43.8-24c16.2-14.5,66.6-67.2,37.4-139.2
			c-7.4-18.1-19.6-29.9-36.4-35.1c-53.8-16.8-138.1,37.7-138.9,38.3c-1.2,0.8-2.7,0.4-3.5-0.7c-0.8-1.2-0.4-2.7,0.7-3.5
			c0.2-0.1,21.9-14.2,50.1-26c38.1-15.9,69.4-20.2,93.1-12.9c18.3,5.7,31.6,18.5,39.6,38c30.5,75-21.9,129.8-38.6,144.8
			C572.9,727,558.4,731.4,550.4,731.4z"/>
	</g>
	<g>
		<path fill="#515050" d="M485.6,773.7c-0.8,0-1.6-0.4-2-1.1c-0.6-0.9-0.6-2,0-2.8l59-87c0.7-1,1.9-1.3,3-0.9
			c1.1,0.4,1.7,1.5,1.6,2.7l-6,42c-0.2,1.4-1.5,2.3-2.8,2.1c-1.4-0.2-2.3-1.5-2.1-2.8l4.5-31.3l-49.2,72.6l104.5-27l-56.6-6.5
			c-1.4-0.2-2.4-1.4-2.2-2.8s1.4-2.4,2.8-2.2l70,8c1.2,0.1,2.1,1.1,2.2,2.3c0.1,1.2-0.7,2.3-1.9,2.6l-124,32
			C486.1,773.6,485.8,773.7,485.6,773.7z"/>
	</g>
	<g>
		<path fill="#4C4C4C" d="M11.6,101.7c-0.9,0-1.8-0.5-2.2-1.4l-7-14c-0.5-1-0.3-2.2,0.5-2.9c0.8-0.8,2-0.9,2.9-0.4l20.2,11
			l10.7-12.5c0.8-0.9,2.2-1.2,3.3-0.5l12.5,8l8.6-6.9c0.9-0.7,2.1-0.7,3-0.1L76.5,91L97,74.2c0.7-0.6,1.6-0.7,2.4-0.4
			c0.8,0.3,1.4,1,1.6,1.9l3,15c0.3,1.4-0.6,2.7-2,2.9c-1.4,0.3-2.7-0.6-2.9-2L97,80.7L78.2,96.1c-0.9,0.7-2.1,0.8-3,0.1l-12.5-8.9
			l-8.5,6.8c-0.8,0.7-2,0.7-2.9,0.2l-12.2-7.8L28.5,98.8c-0.8,0.9-2.1,1.1-3.1,0.6l-15-8.2l3.4,6.9c0.6,1.2,0.1,2.7-1.1,3.4
			C12.4,101.6,12,101.7,11.6,101.7z"/>
	</g>
	<g>
		<path fill="#4C4C4C" d="M521.6,102.7c-0.2,0-0.4,0-0.6-0.1c-1.3-0.3-2.2-1.7-1.9-3l2.9-12.3l-33.6,13.2c-0.9,0.4-2,0.1-2.7-0.6
			c-0.7-0.7-0.9-1.8-0.5-2.7l4.6-11.2l-21.3,9.5c-0.9,0.4-2,0.2-2.8-0.5s-1-1.8-0.6-2.8l5.1-12.2l-26.6,15.3
			c-0.8,0.5-1.9,0.4-2.7-0.1L409,72.7l7.9,16.4c0.6,1.2,0.1,2.7-1.2,3.3c-1.2,0.6-2.7,0.1-3.3-1.2l-12-25c-0.5-1-0.2-2.3,0.6-3
			c0.9-0.7,2.1-0.8,3.1-0.1l38.7,27.1L474.4,72c0.9-0.5,2.1-0.4,2.9,0.3c0.8,0.7,1.1,1.9,0.6,2.8l-5.5,13.2l21.2-9.4
			c0.9-0.4,2-0.2,2.8,0.5c0.7,0.7,1,1.8,0.6,2.7l-4.8,11.6l32.5-12.8c0.9-0.3,1.8-0.2,2.6,0.4c0.7,0.6,1,1.6,0.8,2.5l-4,17
			C523.8,101.9,522.8,102.7,521.6,102.7z"/>
	</g>
	<g>
		<path fill="#F78809" d="M521.1,108.7c-0.7,1-1.3,2.2-2.2,3.1c-51.8,51.9-103.7,103.7-155.5,155.5c-0.6,0.6-1.3,1.1-1.9,1.6
			c-1.6-1.4-3.4-2.7-4.9-4.2c-39-39-78-78-117-116.9c-1.6-1.6-3.5-3-5.3-4.4c3.3-3.5,6.6-7,9.8-10.5c7.3-8,14.7-16.1,22-24.1
			C351.1,108.7,436.1,108.7,521.1,108.7z"/>
		<path fill="#0194D4" d="M10.1,378.7c0-82.3,0-164.7,0-247c1.7,1.2,3.6,2.2,5.1,3.7c37.2,37.1,74.3,74.3,111.5,111.4
			c1.5,1.5,3.3,2.7,4.9,4.1c-2.9,3.3-5.7,6.5-8.6,9.8c-6.9,7.2-13.8,14.5-20.7,21.7c-5.8,6.1-11.5,12.2-17.3,18.3
			c-6.7,7-13.3,14-20,21c-5.7,6-11.3,12-17,18c-5.4,5.6-10.7,11.3-16.1,16.9c-4.7,5-9.4,9.9-14.1,14.9
			C15.4,373.8,12.7,376.2,10.1,378.7z"/>
		<path fill="#7571E1" d="M476.1,620.7c-17.7,0-35.3,0-53,0c-1.1-1.9-1.8-4.2-3.3-5.7c-66-66.1-132.1-132.2-198.2-198.3
			c-1.2-1.2-2.5-2.1-3.8-3.1c3-3.3,6-6.6,9-9.9c5.7-5.4,11.3-10.7,17-16.1c1.3,1,2.7,2,3.8,3.1C322.8,465.9,398,541,473.2,616.3
			C474.4,617.5,475.2,619.2,476.1,620.7z"/>
		<path fill="#7E6FE2" d="M476.1,620.7c-1-1.5-1.7-3.2-3-4.4C398,541,322.8,465.9,247.6,390.7c-1.2-1.2-2.5-2.1-3.8-3.1
			c0.7-1,1.4-2,2.1-2.9c7-6.8,14-13.5,21-20.3c1.3,1.1,2.6,2.1,3.7,3.2c36,36.1,71.9,72.2,107.9,108.4
			c46.5,46.8,93,93.6,139.5,140.4c1.2,1.3,2.8,2.2,4.2,3.4c-1,0.3-2,1-3,1C504.8,620.7,490.5,620.7,476.1,620.7z"/>
		<path fill="#6875E0" d="M217.8,413.5c1.3,1,2.7,2,3.8,3.1c66.1,66.1,132.2,132.1,198.2,198.3c1.5,1.5,2.2,3.8,3.3,5.7
			c-16,0-32,0-48,0c-1.1-1.9-1.8-4.2-3.3-5.7c-58-58.1-116.1-116.2-174.2-174.2c-1.2-1.2-2.5-2.1-3.8-3.2c4.7-5,9.4-9.9,14.1-14.9
			C211.2,419.6,214.5,416.6,217.8,413.5z"/>
		<path fill="#5C78DE" d="M193.8,437.5c1.3,1,2.7,2,3.8,3.2c58.1,58,116.2,116.1,174.2,174.2c1.5,1.5,2.2,3.8,3.3,5.7
			c-15,0-30,0-45,0c-1.2-1.7-2.2-3.6-3.7-5.1C276,565,225.5,514.5,175,464.1c-1.3-1.3-2.8-2.4-4.1-3.5c5.4-5.6,10.8-11.3,16.1-16.9
			C189.3,441.6,191.5,439.6,193.8,437.5z"/>
		<path fill="#507CDD" d="M170.9,460.5c1.4,1.2,2.9,2.3,4.1,3.5c50.5,50.5,101,101,151.5,151.5c1.5,1.5,2.5,3.4,3.7,5.1
			c-12.7,0-25.3,0-38,0c-1.1-1.6-2-3.4-3.3-4.8c-44.3-44.4-88.7-88.8-133.1-133.2c-1.2-1.2-2.5-2.1-3.8-3.2c0.5-0.9,0.9-1.9,1.4-2.8
			c5.6-5.4,11.2-10.7,16.7-16.1C170.3,460.6,170.6,460.6,170.9,460.5z"/>
		<path fill="#447FDC" d="M151.9,479.6c1.3,1.1,2.6,2,3.8,3.2c44.4,44.4,88.8,88.8,133.1,133.2c1.3,1.3,2.2,3.2,3.3,4.8
			c-11,0-22,0-33,0c-1.2-1.7-2.2-3.6-3.7-5.1c-38.5-38.6-77-77.1-115.5-115.6c-1.4-1.4-2.6-3-3.9-4.5c0.7-0.9,1.3-1.9,2-2.8
			C142.6,488.3,147.2,483.9,151.9,479.6z"/>
		<path fill="#3A82DB" d="M136,495.4c1.3,1.5,2.5,3.1,3.9,4.5c38.5,38.5,77.1,77.1,115.5,115.6c1.5,1.5,2.5,3.4,3.7,5.1
			c-10.3,0-20.7,0-31,0c-1.2-1.7-2.2-3.6-3.7-5.1C191,582,157.5,548.6,124,515.1c-1.3-1.3-2.7-2.4-4.1-3.5c1.7-2,3.4-3.9,5.1-5.9
			C128.7,502.2,132.4,498.8,136,495.4z"/>
		<path fill="#D16293" d="M10.1,461.7c0-12.3,0-24.7,0-37c1.9,1.1,4.2,1.8,5.7,3.3c29.7,29.6,59.4,59.3,89.1,88.9
			c1.5,1.5,3.4,2.5,5.1,3.8c-1.7,1.9-3.3,3.9-5,5.8c-4.9,4.4-9.9,8.9-14.8,13.3c-1.5-1.3-3.1-2.5-4.5-3.9
			c-23.5-23.5-47-47-70.5-70.5C13.8,463.9,11.8,462.9,10.1,461.7z"/>
		<path fill="#D66780" d="M136,495.4c-3.7,3.4-7.4,6.8-11,10.3c-1.7-1.2-3.6-2.3-5.1-3.8C85,467.1,50.2,432.2,15.2,397.4
			c-1.5-1.5-3.4-2.5-5.1-3.7c0-5,0-10,0-15c2.6-2.4,5.2-4.9,7.8-7.3c1.7,2.2,3.1,4.7,5.1,6.7C60,415.1,97,452,133.9,489
			c1.3,1.3,2.7,2.4,4.1,3.7C137.3,493.6,136.7,494.5,136,495.4z"/>
		<path fill="#D46588" d="M10.1,393.7c1.7,1.2,3.6,2.2,5.1,3.7c34.9,34.8,69.8,69.7,104.7,104.6c1.5,1.5,3.4,2.5,5.1,3.8
			c-1.7,2-3.4,3.9-5.1,5.9c-3.3,3-6.6,6.1-9.9,9.1c-1.7-1.2-3.6-2.3-5.1-3.8c-29.7-29.6-59.3-59.3-89.1-88.9
			c-1.5-1.5-3.8-2.2-5.7-3.3C10.1,414.3,10.1,404,10.1,393.7z"/>
		<path fill="#3085DA" d="M110,520.7c3.3-3,6.6-6.1,9.9-9.1c1.4,1.2,2.9,2.3,4.1,3.5c33.5,33.5,67,67,100.4,100.5
			c1.5,1.5,2.5,3.4,3.7,5.1c-10.3,0-20.7,0-31,0c-1.2-1.7-2.2-3.6-3.7-5.1c-28.2-28.2-56.4-56.4-84.6-84.6c-1.4-1.4-2.6-3-3.9-4.5
			C106.7,524.5,108.3,522.6,110,520.7z"/>
		<path fill="#118FD6" d="M131.7,250.9c-1.7-1.4-3.4-2.6-4.9-4.1c-37.2-37.1-74.3-74.3-111.5-111.4c-1.5-1.5-3.4-2.5-5.1-3.7
			c0-7.7,0-15.3,0-23c1,0,2,0,3,0c1.2,1.7,2.2,3.6,3.7,5.1c40.4,40.5,80.9,81,121.4,121.5c1.4,1.4,2.6,3,3.9,4.5
			C138.7,243.5,135.2,247.2,131.7,250.9z"/>
		<path fill="#CB5CA9" d="M10.1,549.7c0-18,0-36,0-54c1.8,1,4,1.6,5.4,3c11.6,11.4,23.1,23.1,34.7,34.6c7.9,7.9,15.9,15.6,23.9,23.4
			c-8.4,8.6-16.8,17.3-25.2,25.9c-0.6,0.4-1.2,0.8-1.8,1.1c-1.5-1-3.1-1.8-4.4-3c-9.3-9.2-18.5-18.5-27.8-27.7
			C13.5,551.6,11.7,550.8,10.1,549.7z"/>
		<path fill="#118FD6" d="M48.9,582.5c8.4-8.6,16.8-17.3,25.2-25.9c0.3,0,0.6-0.1,0.8-0.1c0.6,0.4,1.2,0.6,1.6,1.1
			c19.6,19.5,39.2,39.1,58.6,58.7c1,1,1.3,2.9,1.9,4.3c-17,0-34,0-51,0c-1.1-1.6-2-3.4-3.3-4.7C71.6,604.8,60.2,593.7,48.9,582.5z"
			/>
		<path fill="#2688D9" d="M105,526.4c1.3,1.5,2.5,3.1,3.9,4.5c28.2,28.2,56.4,56.4,84.6,84.6c1.5,1.5,2.5,3.4,3.7,5.1
			c-10.7,0-21.3,0-32,0c-1.1-1.9-1.8-4.2-3.3-5.7c-23-23.1-46-46.2-69.1-69.2c-1.2-1.2-2.5-2.1-3.8-3.2c0.4-0.9,0.9-1.9,1.3-2.8
			C95.2,535.3,100.1,530.9,105,526.4z"/>
		<path fill="#7E6FE2" d="M266.1,108.7c-7.3,8-14.6,16.1-22,24.1c-3.2,3.5-6.5,7-9.8,10.5c-5.4,5.4-10.8,10.8-16.2,16.1
			c-1.1-1.6-2.1-3.3-3.4-4.7c-13.7-13.8-27.5-27.5-41.2-41.4c-1.3-1.4-2.2-3.2-3.3-4.8C202.1,108.7,234.1,108.7,266.1,108.7z"/>
		<path fill="#208BD8" d="M142.2,239.8c-1.3-1.5-2.5-3.1-3.9-4.5c-40.5-40.5-81-81-121.4-121.5c-1.5-1.5-2.5-3.4-3.7-5.1
			c6.3,0,12.7,0,19,0c1.2,1.7,2.2,3.6,3.7,5.1c37.1,37.2,74.2,74.3,111.3,111.4c1.5,1.5,2.8,3.3,4.2,4.9c-1.4,1.8-2.9,3.6-4.3,5.3
			C145.4,236.9,143.8,238.3,142.2,239.8z"/>
		<path fill="#CE5F9F" d="M90.2,539.7c-0.4,0.9-0.9,1.9-1.3,2.8c-4.7,4.7-9.3,9.3-14,14c-0.3,0-0.6,0.1-0.8,0.1
			c-8-7.8-16-15.6-23.9-23.4c-11.6-11.5-23.1-23.1-34.7-34.6c-1.4-1.4-3.6-2-5.4-3c0-11.3,0-22.7,0-34c1.7,1.2,3.6,2.2,5.1,3.7
			c23.5,23.5,47,47,70.5,70.5C87.2,537.2,88.7,538.4,90.2,539.7z"/>
		<path fill="#6875E0" d="M118.1,108.7c11.3,0,22.7,0,34,0c1.4,2.2,2.4,4.7,4.1,6.5c16.3,16.5,32.8,32.9,49.2,49.3
			c1.4,1.4,2.6,3,3.8,4.5c-1.4,1.8-2.8,3.6-4.3,5.3c-3.9,3.8-7.7,7.6-11.6,11.4c-0.6-0.3-1.2-0.6-1.7-1
			c-23.9-23.9-47.8-47.8-71.7-71.7C119,112,118.8,110.1,118.1,108.7z"/>
		<path fill="#3A82DB" d="M50.1,108.7c6,0,12,0,18,0c0.9,1.4,1.5,2.9,2.6,4.1c30.9,31.3,61.8,62.5,92.7,93.8
			c1.7,1.8,3.6,3.4,5.4,5.1c-3.3,3.3-6.5,6.6-9.8,9.9c-1.2-1.7-2.3-3.6-3.7-5.1c-33.8-33.9-67.7-67.8-101.6-101.7
			C52.2,113.1,51.3,110.7,50.1,108.7z"/>
		<path fill="#208BD8" d="M74.9,556.5c4.7-4.7,9.3-9.3,14-14c1.3,1.1,2.6,2,3.8,3.2c23.1,23,46.1,46.1,69.1,69.2
			c1.5,1.5,2.2,3.8,3.3,5.7c-9.3,0-18.7,0-28,0c-0.6-1.5-0.9-3.3-1.9-4.3c-19.5-19.6-39.1-39.2-58.6-58.7
			C76.1,557.2,75.5,556.9,74.9,556.5z"/>
		<path fill="#3085DA" d="M50.1,108.7c1.2,2,2.1,4.5,3.7,6.1c33.8,33.9,67.7,67.8,101.6,101.7c1.5,1.5,2.5,3.4,3.7,5.1
			c-2.6,2.8-5.2,5.7-7.8,8.5c-1.4-1.6-2.7-3.4-4.2-4.9C110,188.1,72.9,150.9,35.8,113.8c-1.5-1.5-2.5-3.4-3.7-5.1
			C38.1,108.7,44.1,108.7,50.1,108.7z"/>
		<path fill="#447FDC" d="M168.9,211.6c-1.8-1.7-3.7-3.4-5.4-5.1c-30.9-31.2-61.9-62.5-92.7-93.8c-1.1-1.1-1.8-2.7-2.6-4.1
			c5.7,0,11.3,0,17,0c1.2,1.7,2.2,3.6,3.7,5.1c28.1,28.2,56.3,56.4,84.5,84.6c1.4,1.4,2.6,3,3.9,4.5c-0.9,1.2-1.8,2.4-2.7,3.6
			C172.6,208.2,170.8,209.9,168.9,211.6z"/>
		<path fill="#0194D4" d="M48.9,582.5c11.3,11.1,22.7,22.2,33.9,33.4c1.3,1.3,2.2,3.1,3.3,4.7c-25,0-50,0-75,0
			c1.1-1.4,2.2-2.8,3.5-4.1c10.8-11,21.6-21.9,32.5-32.9C47.7,583.3,48.3,582.9,48.9,582.5z"/>
		<path fill="#507CDD" d="M177.2,202.8c-1.3-1.5-2.5-3.1-3.9-4.5c-28.2-28.2-56.4-56.4-84.5-84.6c-1.5-1.5-2.5-3.4-3.7-5.1
			c5.3,0,10.7,0,16,0c1.2,1.7,2.2,3.6,3.7,5.1c25.5,25.6,51.1,51.2,76.6,76.7c1.3,1.3,2.4,2.7,3.7,4.1
			C182.5,197.3,179.8,200.1,177.2,202.8z"/>
		<path fill="#C558BB" d="M47.1,583.7c-10.8,11-21.7,21.9-32.5,32.9c-1.3,1.3-2.3,2.7-3.5,4.1c-0.3-1.3-1-2.7-1-4
			c-0.1-22.3,0-44.7,0-67c1.6,1.1,3.4,2,4.7,3.3c9.3,9.2,18.5,18.5,27.8,27.7C43.9,581.9,45.6,582.7,47.1,583.7z"/>
		<path fill="#5C78DE" d="M185.1,194.6c-1.2-1.4-2.4-2.8-3.7-4.1c-25.5-25.6-51.1-51.1-76.6-76.7c-1.5-1.5-2.5-3.4-3.7-5.1
			c5.7,0,11.3,0,17,0c0.6,1.5,0.9,3.3,1.9,4.3c23.8,24,47.7,47.8,71.7,71.7c0.5,0.5,1.1,0.7,1.7,1
			C190.6,188.7,187.9,191.6,185.1,194.6z"/>
		<path fill="#7571E1" d="M209.3,169c-1.3-1.5-2.4-3.1-3.8-4.5c-16.4-16.4-32.9-32.8-49.2-49.3c-1.8-1.8-2.8-4.3-4.1-6.5
			c6,0,12,0,18,0c1.1,1.6,2,3.4,3.3,4.8c13.7,13.8,27.5,27.5,41.2,41.4c1.4,1.4,2.3,3.1,3.4,4.7C215.2,162.7,212.2,165.8,209.3,169z
			"/>
		<path fill="#F48613" d="M209.3,169c3-3.2,5.9-6.4,8.9-9.6c5.4-5.4,10.8-10.8,16.2-16.1c1.8,1.5,3.7,2.8,5.3,4.4
			c39,39,78,78,117,116.9c1.5,1.5,3.3,2.8,4.9,4.2c-11.1,11.1-22.2,22.2-33.2,33.3c-1.4-1.6-2.7-3.4-4.2-4.9
			c-38.5-38.5-77.1-77-115.5-115.7c-1.8-1.8-2.5-4.7-3.6-7.2C206.4,172.6,207.9,170.8,209.3,169z"/>
		<path fill="#EE7F2B" d="M168.9,211.6c1.9-1.7,3.7-3.5,5.6-5.2c1.5,1.2,3.2,2.3,4.6,3.7C218,249.1,257,288,295.9,326.9
			c1.3,1.3,2.3,2.8,3.4,4.2c-9.7,9.5-19.4,19.1-29.1,28.6c-0.8-0.6-1.7-1.1-2.3-1.8C228.4,318.5,189,279,149.6,239.5
			c-1.1-1.1-1.7-2.7-2.5-4.1c1.4-1.8,2.9-3.6,4.3-5.3c2.6-2.8,5.2-5.7,7.8-8.5C162.4,218.2,165.6,214.9,168.9,211.6z"/>
		<path fill="#F1821E" d="M299.3,331.1c-1.1-1.4-2.2-2.9-3.4-4.2C257,288,218,249.1,179.1,210.2c-1.4-1.4-3.1-2.5-4.6-3.7
			c0.9-1.2,1.8-2.4,2.7-3.6c2.6-2.8,5.3-5.5,7.9-8.3c2.8-2.9,5.5-5.9,8.3-8.8c3.9-3.8,7.7-7.6,11.6-11.4c1.2,2.4,1.8,5.4,3.6,7.2
			c38.4,38.6,77,77.1,115.5,115.7c1.5,1.5,2.8,3.3,4.2,4.9C318.6,311.8,309,321.5,299.3,331.1z"/>
		<path fill="#EA7B39" d="M147,235.4c0.8,1.4,1.4,3,2.5,4.1c39.4,39.5,78.9,78.9,118.3,118.4c0.7,0.7,1.6,1.2,2.3,1.8
			c-1.1,1.5-2.2,3.1-3.3,4.6c-7,6.8-14,13.5-21,20.3c-0.6-0.5-1.3-1-1.9-1.6c-39.5-39.4-78.9-78.9-118.3-118.4
			c-1.1-1.1-1.7-2.7-2.6-4.1c2.9-3.3,5.7-6.5,8.6-9.8c3.5-3.7,7-7.4,10.5-11.1C143.8,238.3,145.4,236.9,147,235.4z"/>
		<path fill="#E77844" d="M123.1,260.6c0.9,1.4,1.5,3,2.6,4.1c39.4,39.5,78.9,78.9,118.3,118.4c0.6,0.6,1.3,1,1.9,1.6
			c-0.7,1-1.4,2-2.1,2.9c-5.7,5.4-11.3,10.7-17,16.1c-1.9-1.2-4.1-2-5.6-3.5c-38-37.9-75.9-75.8-113.8-113.7c-1.5-1.5-3.3-2.7-5-4.1
			C109.3,275.1,116.2,267.9,123.1,260.6z"/>
		<path fill="#E17358" d="M193.8,437.5c-2.3,2-4.6,4.1-6.8,6.1c-0.8-0.6-1.6-1.2-2.3-1.9c-39.1-39.1-78.3-78.2-117.4-117.4
			c-0.8-0.8-1.5-1.8-2.2-2.7c6.7-7,13.3-14,20-21c1,1.5,1.7,3.2,2.9,4.4c38.3,38.3,76.5,76.6,114.9,114.9c1.3,1.3,3.3,1.9,5,2.8
			C203.2,427.6,198.5,432.6,193.8,437.5z"/>
		<path fill="#E4764E" d="M207.9,422.7c-1.7-0.9-3.7-1.5-5-2.8c-38.4-38.2-76.6-76.5-114.9-114.9c-1.2-1.2-2-2.9-2.9-4.4
			c5.8-6.1,11.5-12.2,17.3-18.3c1.7,1.4,3.5,2.6,5,4.1c37.9,37.9,75.8,75.8,113.8,113.7c1.5,1.5,3.8,2.4,5.6,3.5c-3,3.3-6,6.6-9,9.9
			C214.5,416.6,211.2,419.6,207.9,422.7z"/>
		<path fill="#DE7064" d="M65.1,321.7c0.7,0.9,1.4,1.9,2.2,2.7c39.1,39.1,78.2,78.3,117.4,117.4c0.7,0.7,1.5,1.3,2.3,1.9
			c-5.4,5.6-10.8,11.3-16.1,16.9c-0.3,0-0.6,0.1-0.9,0.1c-1.7-1.2-3.6-2.3-5.1-3.8c-37.8-37.7-75.5-75.4-113.2-113.2
			c-1.3-1.3-2.4-2.7-3.6-4.1C53.8,333.6,59.4,327.6,65.1,321.7z"/>
		<path fill="#DB6D6E" d="M48.1,339.6c1.2,1.4,2.3,2.8,3.6,4.1c37.7,37.8,75.5,75.5,113.2,113.2c1.5,1.5,3.4,2.5,5.1,3.8
			c-5.6,5.4-11.2,10.7-16.8,16.1c-1.7-1.2-3.7-2.2-5.1-3.6c-37.5-37.5-75-74.9-112.5-112.5c-1.3-1.3-2.4-2.7-3.6-4.1
			C37.4,350.9,42.8,345.2,48.1,339.6z"/>
		<path fill="#D86A78" d="M32,356.5c1.2,1.4,2.3,2.8,3.6,4.1c37.5,37.5,75,75,112.5,112.5c1.5,1.5,3.4,2.4,5.1,3.6
			c-0.5,0.9-0.9,1.9-1.4,2.8c-4.6,4.4-9.2,8.7-13.9,13.1c-1.4-1.2-2.8-2.4-4.1-3.7C97,452,60,415.1,23.1,378c-2-2-3.4-4.4-5.1-6.7
			C22.7,366.4,27.4,361.5,32,356.5z"/>
	</g>
</g>
</svg>
