<?xml version="1.0" encoding="utf-8"?>
<!-- Generator: Adobe Illustrator 22.0.1, SVG Export Plug-In . SVG Version: 6.00 Build 0)  -->
<svg version="1.0" id="Ebene_1" xmlns="http://www.w3.org/2000/svg" xmlns:xlink="http://www.w3.org/1999/xlink" x="0px" y="0px"
	 viewBox="0 0 1547.9 1049.4" enable-background="new 0 0 1547.9 1049.4" xml:space="preserve">
<g>
	<path d="M980.9,573.9c0.8,6.8,1.3,13.9,2.3,20.9c3.3,23.4,6.6,46.8,10.4,70c1.8,11.2,5,22.1,7.4,33.2c0.5,2.5,1.7,3.4,4,2.9
		c2.9-0.6,5.9-1.3,8.7-2.2c8.3-2.5,16.6-5.1,25-7.6c2.6-0.8,3.9,0.9,4.1,3c0.6,5,3.6,5.6,7.9,5.5c17.8-0.5,35.6-0.6,53.5-0.8
		c0.9,0,1.8-0.1,3.1-0.2c-1.9-3.8,0-5,3.3-6.4c9.2-3.7,18.1-8,27.1-12.1c11.7-5.3,23.9-9.3,36.7-10.9c3.6-0.4,7.3-0.1,11.3-0.1
		c-0.6-2.4-1.3-4.7-1.9-7.1c-7.4-32.5-14.9-65-22.1-97.6c-1.3-5.9-1.2-12.1-1.4-18.1c-0.1-2.9-0.9-4.3-4.1-4.1
		c-12.4,0.8-24.7,1.2-37.1,2c-5.7,0.4-6.1,0-6.1-5.6c0-5.1-0.9-10.2-1-15.4c-0.1-9.4,0.3-18.9,0.1-28.3c-0.5-17.3-1.3-34.5-1.9-51.8
		c-0.2-5.7-0.2-11.3-0.4-17c0-1.2-0.5-2.3-0.8-3.5c-0.4,0.1-0.8,0.1-1.2,0.2c-0.3,3.9-0.7,7.7-0.9,11.6c-1,20.7-4.3,41.1-7.5,61.6
		c-1.7,10.6-1,21.6-1.6,32.4c-0.1,1.6-1.2,3.1-1.8,4.7c-0.4-0.1-0.8-0.3-1.2-0.4c0-1.9,0-3.8,0-5.8c-0.4-20.7,3.1-40.9,6.2-61.3
		c2.1-13.8,2.4-27.8,3.3-41.8c0.3-5.3,0.9-5.4,5.9-4.1c4.1,1.1,8.7,1.4,12.9,0.7c13.7-2.1,27.4-4.3,40.7-7.6c9-2.2,18.2-5.3,26-10.1
		c10.2-6.3,21.4-9.1,32.5-12.3c4.4-1.3,9.4-0.9,14.3-1.3c-0.4-3.3-0.1-6.4-3.5-8.1c-0.7-0.3-1.1-1.5-1.3-2.3
		c-0.9-3.1-1.6-6.2-5.3-7.3c-0.6-0.2-0.9-1.7-1.2-2.4c-22.8-3.1-45.1,1.8-67.3,4.7c-10.1,1.3-19.9,5-29.8,7.7
		c-1.2,0.3-2.5,1.1-3.3,2c-2.2,2.7-4.9,2.8-8.1,2.3c-2.2-0.3-4.5,0.6-6.8,0.9c-1,0.1-2.1-0.1-3.1-0.1c0.6-0.9,1-2,1.8-2.6
		c0.9-0.7,2.1-1.1,4.1-2.1c-1.9-1.1-3.4-2-4.8-2.9c-1-0.6-1.9-1.3-2.8-2c1.3-0.3,2.5-0.7,3.8-1c0.5-0.1,1,0.2,1.5,0.3
		c5.5-9.4,11.1-18.6,19.5-25.7c3.9-3.3,8-6.3,14.5-3.2c-3.6-9.9-6.7-18.8-10.1-28c-1.1,0.6-2,1-2.7,1.5c-7.6,6-14.4,12.8-19.5,21.1
		c-4.1,6.6-8.7,13-12.5,19.8c-5.2,9.3-10,18.9-14.6,28.5c-2.6,5.5,0.9,13.4,6,16.8c4.3,2.8,8,6.6,11.8,10c0.4,0.3,0.2,1.4,0.2,2.1
		c-0.8,0-1.9,0.2-2.5-0.2c-2.3-1.7-4.4-3.6-7.2-6.1c-7.8,43.9-7.4,87.7-12.4,131.7c-0.5-1.1-1.5-2.3-1.4-3.4
		c0.3-9.1,0.8-18.2,1.3-27.3c1.1-18.6,2.1-37.2,3.7-55.7c1.2-13.9,3.3-27.8,5.2-41.6c0.5-3.7,0.1-6.3-2.7-9.1
		c-7.7-7.9-7.7-12-3.5-22c7.4-17.5,18.1-33.1,28.5-48.8c6.4-9.6,14.8-17.4,25.3-22.9c4.8-2.5,9-6.1,13.9-8.3
		c4.8-2.1,10.1-3.1,15.4-4.6c-2.1-2-4.7-4.5-7.3-7c-6.8-6.3-13.1-13.1-16.3-22.1c-0.3-0.8-1.4-1.3-2.2-1.9c-2.6-2.1-6.1-3.7-7.5-6.4
		c-3-5.8-5.4-12-7.1-18.3c-1.8-6.2,1.5-11,8.5-13.1c-2.1-3-4.1-5.8-6.1-8.7c-2.3-3.3-4.8-6.6-6.8-10.1c-0.5-0.9,0-3.5,0.5-3.6
		c1.9-0.4,4-0.2,6-0.3c-0.8,1.2-1.5,2.3-2.8,4.3c4.7,6.5,10,14.1,15.8,22.1c1.1-2.6,1.9-4.8,2.8-6.9c2.6-6,5.5-11.5,11.8-14.8
		c3.4-1.8,5.7-5.4,8.6-8.1c2.1-2,4.2-4,6.4-5.9c4.6-4.1,5.5-3.9,8.5,1.8c1-0.6,1.9-1.2,2.8-1.9c2.4-1.8,4.7-4,7.1-0.1
		c0.2,0.3,1,0.6,1.4,0.5c6.2-2.1,13.3,0.2,19-4.3c4-3.1,8.6-2.6,12.7-0.2c4.5,2.7,8.7,5.9,13.1,8.8c3.5,2.3,6.9,4.9,10.6,6.8
		c7.4,3.8,12,9.2,12.2,17.9c0.1,2.4,0.8,4.7,0.8,7c0,1-1,2-1.6,3c-0.6-0.9-1.6-1.7-1.7-2.6c-0.5-3-0.8-6-0.9-9.1
		c-0.1-6-3.9-9.5-8.4-12.6c-5.9-3.9-11.9-7.8-17.8-11.7c-2-1.3-3.9-2.6-5.9-3.9c-4.2-2.8-8.2-2.9-12.9-0.4
		c-3.7,1.9-8.2,2.2-12.4,3.1c-1.5,0.3-3.1,0.7-4.7,0.7c-2.4,0-4.7-0.2-7.1-0.8c-7.8,4.2-7.8,4.2-11-1.4c-3.9,3.7-7.7,7.3-11.5,10.8
		c-3.8,3.5-7.8,6.8-11.7,10.3c-0.9,0.8-1.4,1.9-2,2.9c-3.8,7.1-6.5,14.4-6.7,22.5c0,1.2-0.2,2.3-1.2,4c-0.6-0.8-1.5-1.5-1.6-2.4
		c-0.2-2.1,0-4.2,0-6.3c-0.1-3.5-3.2-6.8-6.3-6.9c-2.5-0.1-4.9,3-4.5,6.9c1,8.1,3.8,15.6,8.8,22.1c0.2,0.3,0.5,0.7,0.9,0.8
		c6.1,1.7,7.5,7.3,10.5,11.8c7.4,11.3,16.7,21.5,28.7,27.2c15.8,7.4,32.6,8.4,49.4,1c14.3-6.2,23.1-16.7,27.8-31.1
		c0.5-1.4,0.3-3.1,0.7-4.5c0.8-3,1.7-5.8,4.9-7.6c7.3-4.3,13.2-10.1,16.4-18.1c2.2-5.4,0-8.1-5.8-7.9c-1.4,0-2.9,0.4-4.3,0.7
		c-2.8,0.6-4.8,1.8-4.6,5.3c0.1,1-1.2,2.1-1.8,3.2c-0.5-0.2-1-0.4-1.5-0.5c0-6.8,0-13.7,0-20.5c0-0.5,0.7-1.5,1-1.4
		c0.6,0.1,1.6,0.5,1.7,1.1c0.5,1.6,0.7,3.3,1.2,5.8c4-7.3,6.5-14.2,4.7-22.6c-2.6,1.9-4.9,3.7-7.3,5.1c-1.2,0.7-2.9,0.8-4.3,1.1
		c-0.2-1.5-0.7-3-0.6-4.4c0.6-6.4,1.5-12.8,2.2-19.2c0.1-1.1-0.3-2.3-0.6-4.2c-2.3,3.1-3.9,5.8-6,8.1c-1.1,1.2-2.8,1.8-4.3,2.7
		c-0.2-1.6-0.7-3.2-0.4-4.7c2.3-11,1.1-16.9-5.9-25.4c-1.4,3-2.8,5.8-4.2,8.6c-0.9,1.8-1.7,3.7-2.9,5.1c-1.4,1.5-3.3,2.6-4.9,3.9
		c-0.6-1.8-1.4-3.5-1.7-5.3c-1-6.9-1.9-13.7-2.9-21.3c-2.1,2.8-3.8,5.4-5.7,7.8c-3,3.7-5.9,7.5-9.3,10.8c-3,2.9-5,1.9-5.8-2.2
		c-1-5-2.2-9.9-4.3-14.9c-3.3,6-6.5,12-9.8,17.9c-0.7,1.2-1.8,2.1-2.8,3.1c-0.9-1.2-2.4-2.2-2.6-3.5c-1-5.7-1.7-11.4-2.6-17.6
		c-1,1.1-2.3,2.1-3.2,3.4c-5.3,8.2-10.4,16.5-15.7,24.7c-0.9,1.4-2.5,2.3-3.8,3.5c-1-1.3-2.3-2.5-2.8-4c-1.3-4.4-2.1-8.9-3.3-13.8
		c-0.5,0.5-0.9,0.8-1,1.2c-4.1,12.4-8,24.9-7.5,38.2c0,1.1,0.1,2.1-0.1,3.2c-0.4,3.2-1.9,3.9-4.5,2.1c-2.5-1.7-5-3.4-7.8-5.4
		c3.8-2.3,6.1,0.7,9.2,1.6c-0.5-15.4,3.9-29.4,8.8-43.4c0.6-1.7,2.2-3.1,3.4-4.7c0.9,1.6,2.1,3.2,2.5,5c1.2,4.9,2,10,3.2,16.1
		c4.3-6.9,7.8-12.9,11.7-18.6c2.9-4.3,6.1-8.3,9.4-12.2c0.8-1,2.4-1.2,3.7-1.8c0.6,1.4,1.5,2.7,1.6,4.1c0.4,5.3,0.4,10.6,0.6,15.9
		c0.6,0.1,1.1,0.2,1.7,0.3c3.2-6.3,6.4-12.5,9.7-18.8c0.6-1.1,1.7-2,2.6-3c0.8,1,2,1.8,2.3,2.9c1.8,5.9,3.3,11.9,5.1,18.6
		c2-2.1,3.8-3.9,5.4-5.8c3.5-4.5,6.7-9.1,10.3-13.5c0.8-1,2.6-1.4,3.9-2c0.5,1.3,1.2,2.6,1.3,3.9c0.6,7.3,1.1,14.6,1.7,21.9
		c0.5,0.1,1.1,0.2,1.6,0.3c2.1-4.4,4.2-8.8,6.4-13.1c0.9-1.7,2.2-3.3,3.3-4.9c1.1,1.5,2.5,2.9,3.3,4.6c2.3,5,4.7,10,6.3,15.2
		c0.8,2.5,0.1,5.5,0.7,8.6c1.2-2,2.4-4.1,3.7-6c0.6-0.9,1.7-2.1,2.5-2c0.8,0.1,1.9,1.4,2.3,2.3c2.5,6.8,1.7,13.8,0.5,20.7
		c-0.3,1.7-0.7,3.3-1.2,6c3-2.3,5.3-4,7.5-5.7c2.5-1.9,4-1.3,4.7,1.9c1.9,9.2-0.8,17.5-5.2,25.4c-0.6,1.1-2.1,1.6-3,3.3
		c1.2-0.3,2.5-0.6,3.7-0.9c4.8-1.2,9.9-1.8,13.1,2.6c3.2,4.3,1.2,9.2-1.6,12.9c-3.5,4.7-7.7,9-12.1,13c-3.5,3.2-6,6.5-7.4,11.2
		c-4.1,13.6-10.9,25.5-25.2,32.3c2.1,0.7,3.5,1.2,4.9,1.6c0-0.4,0-0.9,0-1.3c1.3-0.2,2.7-0.8,4-0.6c9.7,1.6,18.2,6.3,26.2,11.6
		c6.2,4.1,10.5,10.3,11.6,17.8c1.5,9.8,2.9,19.6,3,29.5c0.1,16.7-3,33.1-7.8,49.2c-1,3.3-0.3,7.3,0.5,10.8
		c2.9,13.5,6.2,26.9,9.2,40.5c1.1,4.9,1.8,9.9,2.3,14.8c1,9.6,1.6,19.2,2.7,28.7c1.9,16.5,4,33,6,49.5c0,0.4,0.2,0.7,0.2,0.6
		c13.4,1.1,26.4,2.7,39.5,3c8.2,0.2,16.5-1.6,24.8-2.2c6.6-0.5,13.2-0.5,19.8-0.6c3.7,0,4.5,2.4,4.3,5.6c-0.5,7.1-1.4,14.2-1.3,21.3
		c0.1,4.6,1.3,9.3,2.5,13.8c0.9,3.6,0.5,5-3.2,4.4c-7.6-1.1-15.1-2.5-22.5-4.2c-7.6-1.7-15.1-4.1-23-1.8c-0.7,0.2-1.8-0.7-2.6-1
		c0.9-0.8,1.6-2,2.6-2.2c6.4-1.4,12.8-0.7,19.2,0.9c6.9,1.8,13.9,3.3,20.8,4.8c1.6,0.4,3.3,0.3,5.5,0.5c-5.1-12.9-0.9-25.7-1.3-38.6
		c-6.9,0-13.7-1-20.2,0.2c-17.8,3.3-35.5,2.3-53.2-0.2c-10.3-1.4-10.8-0.8-11.1,9.1c-0.4,13.3,1.9,26.2,5.1,39.1
		c3.1,12.1,4.8,24.6,6.9,36.9c0.2,1.1-0.7,2.5-1,3.7c-0.6-1.1-1.6-2.2-1.8-3.3c-3.8-18.5-7.6-36.9-11.2-55.4
		c-0.9-4.9-1.6-10-1.5-14.9c0.3-17.8-2.5-35.2-4.8-52.7c-1.8-13.7-2.6-27.6-4.2-41.3c-0.9-7.4-2.3-14.8-3.9-22.1
		c-2.6-12-5.4-23.9-8.3-36.4c-3.9,7.7-11.4,7.8-19.4,8.5c2.5,10.2,5,20.2,7.4,30.1c3.2,13.2,7.1,26.3,9.5,39.6
		c1.6,9.1,2.1,18.7,1.4,27.9c-2.2,29.1-1.1,58,5.1,86.6c0.3,1.2,1,2.5,1.8,3.4c10.9,10.8,18.1,24.3,26.9,36.7c0.3,0.4,0.6,0.8,1,1.4
		c0.8-0.6,1.6-1.2,3.5-2.7c0,4,0.1,7.1-0.1,10c0,0.4-1.3,1.3-1.6,1.2c-0.9-0.4-1.7-1.1-2.2-1.9c-4-6.4-7.9-12.8-11.8-19.2
		c-0.4-0.6-1-1.1-1.9-2.1c-0.4,5.8-0.5,11.1-1.2,16.2c-1.6,12.4-3.2,24.9-5.4,37.2c-1.5,8.6-3.8,17.1-5.8,25.7
		c-0.2,0.9-0.5,1.8-0.5,2.7c0,7.9,0,15.7,0,24.1c7.6,0,15.9-0.1,24.1,0c7.9,0.1,15.8,0.4,23.7,0.8c2.8,0.2,4.2-0.3,4.8-3.5
		c1-5,2.8-9.8,4.5-15.6c-9.7,0-18.9-0.4-28,0.1c-8.1,0.4-9-0.3-7.3-8c4.7-21.1,9.2-42.3,14.1-63.4c1.8-7.8,4.1-15.6,6.9-23.1
		c4.3-11.5,6.3-23.4,7.2-35.6c0.1-1-0.1-2.3,0.4-3.1c0.5-0.9,1.7-1.4,2.6-2c0.1,1,0.5,1.9,0.4,2.9c-0.3,3.7-1,7.3-1.2,10.9
		c-0.6,10.3-4.2,19.8-7,29.5c-5.7,20.3-10.7,40.8-16.2,62.1c61.6,0.9,121.9,0.6,182.9-2.6c-0.3-4.6-0.6-9-1-13.4
		c-2.3-32-4.7-63.9-7-95.9c-0.5-6.5-1.6-7.2-8.2-6c-5.7,1.1-11.4,2.2-17.2,2.4c-5.8,0.2-7.3-1.9-6.2-7.7c0.8-4.1,2.4-8.1,3.3-12.2
		c0.4-2,0.1-4.3,0.1-7.2c0.4-0.2,2-0.6,3-1.5c1.1-1,1.6-2.5,2.4-3.8c0.4,0.1,0.7,0.1,1.1,0.2c0.2,1.4,0.3,2.8,0.6,5.1
		c9.1-0.5,18.5-0.5,27.7-1.8c11.2-1.5,12.3-1,13.5,10.3c3,27.2,4.6,54.4,4.8,81.7c0.1,15.2-1.2,30.3-1.9,45.5c-0.1,1.1,0,2.3,0,2.9
		c8.7,0,17.1,0.1,25.5,0c4.4,0,8.7-0.4,13.1-0.4c1.2,0,2.4,1,3.6,1.6c-1.1,0.5-2.3,1.4-3.4,1.5c-11.5,0.4-23,0.9-34.4,0.9
		c-3.7,0-4.8,1.2-5.1,4.9c-0.4,6.1-1.6,12.2-2.6,18.3c-0.4,2.4-2,3.8-4.7,3.8c-13.3,0.2-25.3,4.9-37.1,10.3
		c-3.3,1.5-6.8,2.9-10.3,3.8c-3.1,0.8-5-0.5-5.2-4.1c-0.3-6.3-2-12.2-6-17.3c-1.8-2.3-1.1-3.9,1.8-4.4c14.3-2.7,28.5-5.4,42.8-7.9
		c2.4-0.4,4.9-0.3,7.4-0.5c1.1-5.8,0.6-6.2-4.7-6c-56.7,2.7-113.5,3.7-170.2,2.4c-7.7-0.2-7.7-0.3-9.3,7.1c-1.1,5-2.3,10-3.4,15
		c-0.1,0.2,0.1,0.5,0.3,1.2c1.4,0,3,0,4.5,0c9.1,0.1,18.2,0.1,27.3,0.2c3.2,0,4.7,1.3,3.7,4.7c-1.8,6.1-3.2,12.2-5.3,18.2
		c-0.4,1.1-2.9,2.2-4.4,2.1c-16.1-0.2-32.2-0.5-48.2-1c-2.7-0.1-4.4,0.8-6.2,3c-4.6,5.7-11.3,8.3-18.3,9.2
		c-15.1,1.9-30.3,0.9-45.4-1.1c-11-1.5-20.7-6.2-27.7-15.1c-14,9.2-30,9.6-45.6,11.4c-10.2,1.1-20.5,1.4-30.7-1.2
		c-10.3-2.6-17.1-9.1-22.3-17.7c-2.9-4.7-1.7-9.7,1.5-14.1c5.4-7.5,12.3-13.4,19.9-18.5c2.1-1.4,4.1-2.8,6.9-4.9c-1.8-0.9-2.9-2-4-2
		c-21,0.2-42,0.6-62.9,1c-0.1,0-0.2,0.1-0.9,0.5c0.9,3.1,2,6.3,2.7,9.6c0.2,1-0.4,2.2-0.7,3.4c-0.7-0.8-1.9-1.5-2.1-2.4
		c-1.5-4.9-2.7-9.9-4-14.9c-0.4-1.6-1-3.2-1.6-5.1c-12.5,3.8-25.4,5.6-35,15.3c-0.8,0.8-2.2,1.3-3.4,1.4c-0.4,0-1.2-1.5-1.4-2.5
		c-3.5-16.2-7.5-32.4-10.4-48.8c-2.9-16.5-4.9-33.1-7.1-49.7c-1.5-11.4-2.9-22.8-4.1-34.2c-0.5-4.9,0.1-5.2,5.1-5.8
		c3.9-0.5,7.8-1.1,11.6-2.2c8.3-2.4,16.5-1.1,24.7,0.5c0.3,0.1,0.7,0.4,0.9,0.7c0.1,0.2,0.1,0.5,0.3,1.7c-6.7-0.3-13.2-1.3-19.7-0.7
		C994.5,570.4,988,572.4,980.9,573.9z M1117.5,714.4c0.2-0.4,0.4-0.8,0.5-1.2c4.8-1.1,9.9-1.5,14.5-3.3
		c17.2-6.7,34.3-13.8,51.4-20.7c4.3-1.7,8.6-3.4,13.1-4.3c3.2-0.6,3.7-1.9,3.9-4.7c0.5-9.2-0.5-18.2-2.8-27.1
		c-4.7-18.6-9.9-37-13.7-55.7c-4.7-23.8-8.3-47.8-12.2-71.7c-0.8-4.8-3.1-8.1-8-9.1c-2.9-0.6-6-1.4-8.9-1.1
		c-10.7,1.3-21.4,3.1-32.1,4.6c-1.1,0.1-2.3-0.4-3.4-0.6c0.8-0.7,1.5-2,2.4-2.1c12.9-1.6,25.8-3.9,38.8-4.4
		c9.1-0.3,12.8,4.3,14.3,13.3c1.1,6.5,2.3,13,3.2,19.5c0.4,2.5,1.5,3.4,3.9,3.1c5.5-0.5,11.1-0.5,16.5-1.6c12.4-2.4,24.7-5.4,37-7.9
		c2.8-0.6,4.1-1.8,4.8-4.4c3.5-12.5,3.4-25.3,2.5-38.1c-0.9-12.5-2.8-24.9-3.5-37.4c-0.5-8.4,0.4-16.9,0.8-25.3
		c0-0.9,1.1-1.8,1.6-2.6c0.5,0.9,1.3,1.9,1.4,2.8c0.2,1.7,0,3.4-0.2,5.1c-2.1,16.3-0.1,32.4,1.9,48.5c2.1,16.4,2.3,32.6-1.7,48.7
		c-0.3,1.2-0.1,2.9,0.5,4.1c4.8,9.1,8.1,18.8,9.3,28.9c1.2,10.3,1,20.8,1.3,31.2c0.1,1.8,0,3.5,0,5.3c11.5-5.9,12.9,4.9,17.7,9.7
		c0.2-0.4,0.4-0.6,0.4-0.8c0-0.5-0.1-1-0.2-1.6c-6.1-26.5-6.6-53.3-4.6-80.3c0.6-8.2,1.1-16.9-0.5-24.8
		c-5.2-24.9-11.4-49.6-17.4-74.3c-0.3-1.1-1.9-2.4-3.1-2.7c-2.9-0.7-6-0.6-9-1.2c-14.4-3-28.8-6.1-43.2-9.2
		c-3.3-0.7-7.4-0.6-9.7-2.5c-4.5-3.9-9.4-4.5-14.5-3.6c-16.2,2.8-31.9,8.4-48.5,9.1c-2.7,0.1-5.5,0-8.8,0c0,2-0.1,3.6,0,5.1
		c0.7,14.2,1.5,28.4,2,42.7c0.8,21.8,1.3,43.7,1.9,65.5c0.1,2.4,0.1,4.2,3.6,4c12-0.7,23.9-1.2,35.9-1.6c6.4-0.2,6.3,0.1,6.7,6.3
		c0.4,6.8,0.6,13.8,1.9,20.5c4.7,23.5,9.8,47,15.1,70.4c2.3,10.4,5.6,20.5,8.2,30.9c1.2,4.9-0.1,5.5-5.1,5.4
		c-5.9-0.1-11.9,0-17.6,1.1c-19.8,3.9-37.1,14.3-55.9,22.1c1.4,1,2.3,2.3,3.4,2.5c4.5,0.5,1.6,4.2,2.8,6.2c0.2,0.4-1.3,2.2-2.3,2.9
		c-9,6.1-18,12.1-24.4,21.1c-3.8,5.3-3.7,8.8,0.1,14.1c5.7,7.8,12.9,13.3,22.8,14.2c6,0.6,12.1,1.1,18.1,0.6
		c10.2-0.8,20.4-2.3,30.6-3.5c7.7-0.9,14.9-2.8,20.8-8c-4.4-11.1-2.1-21.5,2.1-31.5c-3.5,0.3-7.3,1.5-10.7,0.7
		c-7.2-1.6-14.3-3.8-21.2-6.4c-2.9-1.1-5.1-1.4-7.8-0.1c-2.5,1.2-5.1,2.3-7.7,3.1c-4.5,1.4-9.1,2.7-13.8,3.6
		C1121.1,715.8,1119.2,714.8,1117.5,714.4z M1203.3,661.8c0.2,2.1,0.5,3.8,0.5,5.4c0,5.3,0.1,10.5-0.1,15.8c-0.1,3.2-1.9,4.9-5.4,5
		c-2.5,0.1-5,0.7-7.3,1.7c-1.2,0.5-2.6,2.4-2.5,3.5c0.4,4.4,1.2,8.9,2.2,13.2c0.3,1.2,1.4,2.8,2.5,3.2c2.5,0.8,5.2,1.4,7.7,1.2
		c9.6-0.8,19.2-1.6,28.7-3c10.7-1.6,21.2-4.1,32-5.5c4.1-0.5,4.8-2.1,4.6-5.4c-0.1-1.6-0.3-3.1-0.5-4.7c-0.5-4.4-1.5-8.9-1.4-13.3
		c0.1-4.5-1-8.6-4.1-11.6c-4-3.9-4.8-8.9-6.1-13.8c-0.6-2.3-0.7-4.7-1-7c-1.2-8.6-2.4-17.2-3.5-25.8c-0.1-0.8,0-2.3,0.6-2.6
		c3-1.6,2-4.2,1.9-6.6c-0.2-7.5-0.8-15-0.5-22.5c0.5-14.9-2.7-29-8.6-42.7c-1.7-4-3.8-4.6-7.5-3.7c-5.7,1.4-11.5,2.9-17.3,3.9
		c-12.3,2.1-24.3,6.4-37.1,5.4c-0.4,0-0.7,0.2-1.2,0.4c0,0.7-0.1,1.3,0,1.9c1.8,11.1,3.1,22.2,5.5,33.2c5.1,23,10.8,45.9,16.4,68.9
		c0.2,1,1.5,2.2,2.5,2.6c12.2,3.9,24.4,7.6,36.6,11.5c1.3,0.4,2.4,1.3,3.6,1.9c-0.2,0.4-0.4,0.9-0.6,1.3
		C1229.9,672.5,1217.6,664.6,1203.3,661.8z M1262.6,705.2c-1.2,0.2-2.8,0.3-4.3,0.5c-13.4,2.1-26.8,4.5-40.2,6.4
		c-7.8,1.1-15.7,1.7-23.6,1.7c-5.1,0-7.4,0.4-9,5.3c-1.4,4-2.1,8.1-2.8,12.3c-1.4,8.5,1.7,15.3,8.1,20.7c5.8,4.9,12.6,8,20,9
		c15.3,2,30.8,3.4,46.2,1c7.8-1.2,15.7-3.8,18.1-13.1c2.9-11.1,2.3-21.9-2.4-32.5c-1.5-3.4-3.2-6.6-7.1-8
		C1264.3,708.1,1263.6,706.5,1262.6,705.2z M1263.8,318.1c-0.7,4.5-1.2,8.2-1.8,11.8c-1.1,7.3-1.9,14.7-3.6,21.8
		c-1.1,4.6-3.8,8.6-2.4,14c1.2,4.4,0.6,9.2,0.9,14c3-1.1,5.8-3.3,10-0.1c-6.5,1.7-12.1,3.5-12.6,10.7c0.8,0.5,1.6,1,2.2,1.6
		c0.4,0.5,0.6,1.4,0.5,2.1c0,0.2-1.1,0.5-1.7,0.5c-5.4-0.6-10.8-1.3-16.3-1.8c-8.2-0.7-16.3,0-24.2,2.8c-4.5,1.6-8.9,3.6-13.5,4.7
		c-7.5,1.8-10.3,7.1-12.2,13.7c5.1,1.4,9.9,2.7,14.7,4.1c4.7,1.4,9.2,3.2,13.9,4.2c11.2,2.5,22.5,4.5,33.6,7
		c7.6,1.7,16.2-0.9,18.1-6.6c2.5-7.6,4.8-15.4,6.4-23.2c1.7-8,2.5-16.1,3.6-24.2c1.9-14,0.3-27.9-2.7-41.6
		C1275.2,327.1,1271.1,321.7,1263.8,318.1z M1449.4,740.7c3-1.2,6.4-2.5,9.7-4c10.4-4.6,20.7-9.2,32.3-10.1c8-0.6,9.5-2.6,10.3-10.8
		c0.2-1.7,0-3.4,0.1-5.1c0.4-8.7,0.9-17.4,1.3-26c0.6-13.2,1.9-26.4,1.5-39.5c-0.7-22.3-2.3-44.5-3.7-66.7
		c-0.3-4.7-1.3-9.4-1.7-14.1c-0.3-3-1.7-4-4.7-3.8c-10.8,0.8-21.5,1.4-32.3,2.3c-1.3,0.1-3.2,1.4-3.6,2.6c-1.7,4.6-3,9.3-4.2,14
		c-1,4.1-0.5,4.9,3.8,4.5c6.1-0.6,12.2-1.8,18.3-2.7c6.3-1,8.5,0.3,9,6.7c1.1,11.8,1.5,23.7,2.3,35.5c1.1,16,2.3,32.1,3.6,48.1
		c0.9,11.8,2,23.7,2.8,35.5c0.4,5.4-0.1,5.5-5.3,5.7c-3.9,0.1-7.9,0.5-11.8,1.3c-8.4,1.6-16.8,3.5-25.2,5.2
		c-3.1,0.6-6.3,1.2-8.7,1.7C1445.3,727.3,1447.2,733.5,1449.4,740.7z M1230.1,363.2c0.5-3.3,4-5,7.6-6.3c2.6-0.9,3.4-2.3,3.9-4.7
		c2.5-11.7,2.2-23.3-0.3-34.9c-1.3-6-4.9-8.3-10.7-7.6c-6.4,18.7-19.3,30.2-38,34.6c-12.7,3-20.3-2.6-22.6-15.6
		c-0.8-4.7-0.7-9.6-1-14.5c-2.4,0.5-5.1,0.9-7.8,1.6c-0.7,0.2-1.4,1.1-1.6,1.9c-3.3,11.1-6.6,22.2-9.8,33.3c-0.3,1.2,0.1,3,0.9,4
		c3.4,4.3,7.1,8.5,10.8,12.6c0.9,1,2.7,1.8,4,1.7c6.8-0.5,13.7-1.2,20.5-2c10.3-1.2,20.6-3.7,31.1-1.7c0.9,0.2,1.8-0.1,2.7-0.2
		C1223,364.7,1226.2,364,1230.1,363.2z M1269.5,701.5c3.1,0.1,6.1,0.2,9.1,0.4c2.1,0.2,3-0.7,3.4-2.8c3.7-18.9,6.2-38,6.7-57.3
		c0-1.7-0.6-3.7-1.7-5.1c-4.5-6.1-9.3-12-14-18c-0.2-0.3-0.6-0.3-0.9-0.6c-1.5-1.2-3.1-2.3-4.4-3.6c-2.1-2.3-3.8-5.1-6.3-6.9
		c-0.9-0.7-3.4,0.6-5.2,1.1c-0.4,0.1-0.7,0.2-1.2,0.3c0.2,2.2,0.6,4.3,0.6,6.3c0,1.3-0.7,2.7-1.1,4c-0.4,1.2-1.4,2.4-1.3,3.5
		c1.3,10,2.5,20.1,4.2,30.1c0.7,4.3,1.8,8.6,5.2,12.1c3,3.1,4.7,7.1,4.9,11.8C1267.8,684.9,1268.8,693,1269.5,701.5z M1226.9,309.6
		c-15.9,5.8-30.8,4.2-45.6,0.1c-4.7-1.3-7.6,0.1-8.3,5c-0.5,3.4-0.6,6.8-0.4,10.2c1.1,13.9,8.3,19.6,21.8,16
		c13.4-3.6,23.2-12.5,30.3-24.3C1225.8,314.8,1226.1,312.5,1226.9,309.6z M1121.4,382.9c4.5-6.1,11.8-5.4,18-7.4
		c6.4-2,12.9-3.7,20.2-5.7c-5-5.5-9.6-10.1-13.7-15.2c-5.4-6.8-7.3-7.3-14-1.7c-1.8,1.5-3.6,3.1-5.1,5c-3.4,4.4-6.5,8.9-9.8,13.3
		C1112.5,377.6,1113.8,381.1,1121.4,382.9z M1252.4,358.8c1.4-3.8,3.1-7,3.7-10.4c1.7-9.8,3-19.8,4.4-29.7c0.1-0.8-0.3-2.2-0.9-2.5
		c-4.1-2.4-8.2-4.7-12.5-6.8c-1-0.5-2.9-0.3-3.5,0.4c-0.7,0.7-0.7,2.4-0.5,3.6c1,5.9,2.8,11.8,3,17.7c0.2,8.3-0.7,16.7-1.1,25.4
		C1247,357.1,1249.4,357.8,1252.4,358.8z M1174.5,307.8c-0.1-0.4-0.1-0.8-0.2-1.2c-0.6-0.3-1.3-0.8-1.9-0.9
		c-12.1-2.2-22,2.1-31.3,9.5c-3.6,2.8-3.3,5.3-2,8.7c2.4,6.5,4.6,13.2,7,19.7c0.2,0.7,0.8,1.2,1.1,1.8c3.2-9.5,6.1-18.9,9.5-28.1
		c0.7-1.9,2.7-3.8,4.6-4.7C1165.5,310.6,1170.1,309.3,1174.5,307.8z M1245.5,389.6c0.1,0.3,0.2,0.7,0.3,1c1.7-1,4.6-1.6,5-3
		c1.5-5.1,2.8-10.5,3-15.8c0.3-7.7-3.4-11.5-10.6-12.6c-4.7-0.7-10.1,2.6-9.7,6.3c0.5,3.9,1.7,7.6,2.8,11.4c0.8,2.8,2.5,5.3,3,8.1
		C1239.9,388.7,1241.4,390.6,1245.5,389.6z M1184.9,692.5c-10.9,4.5-21.4,8.7-31.9,13c-0.1,0.4-0.1,0.8-0.2,1.2
		c8,2,15.8,4.4,23.9,5.6c2.8,0.4,6.1-2,8.9-3.6c0.9-0.5,1.4-2.6,1.3-3.8C1186.5,700.9,1185.7,696.9,1184.9,692.5z M1268.4,705.1
		c3,4.4,6.1,8.9,9.3,13.6c1-4.5,1.9-8.9,2.9-13.6C1275.9,705.1,1271.8,705.1,1268.4,705.1z M1179.7,411.8c5.8,2.2,6.7,1.8,7.3-3.3
		C1184.7,409.5,1182.5,410.5,1179.7,411.8z"/>
	<path d="M597.5,727.6c5.9-0.4,11.4-0.7,16.8-1c18.4-1.2,36.9-2.5,55.3-3.7c2.5-0.2,3.7-1,4.4-3.4c37.1-123.7,78.8-245.8,123.2-367
		c21.7-59.2,43.5-118.4,61.7-178.9c4.3-14.2,7.5-28.8,11.2-43.3c0.4-1.5,0.7-3.1,1.3-4.6c0.3-0.6,1.3-0.9,2-1.4
		c0.3,0.8,0.9,1.6,0.8,2.3c-1.5,7.4-2.8,14.8-4.8,22c-12.4,45.4-27.9,89.7-43.6,134c-33,93.2-66.6,186.1-98.8,279.6
		C709.5,613.5,694.2,665.4,678,717c-0.5,1.6-0.9,3.2-1.6,5.5c41-3.1,81.5-6.1,122-9.2c0-0.2,0.1-0.5,0.1-0.7
		c-0.9-0.4-1.7-0.9-2.6-1.1c-5.4-1.3-10.8-2.6-16.2-3.6c-5.6-1.1-5.9-1.3-4.3-6.5c6.4-21.6,12.7-43.3,19.3-64.8
		c8.2-26.8,18.3-52.9,30.2-78.2c10-21.3,19.1-42.9,24.2-66c1.5-6.8,3.6-8,10.2-5.4c8.6,3.4,16.9,7.5,25.5,10.9
		c15.9,6.3,32,12.3,48.1,18.2c3.4,1.2,5.1,3,4,6.3c-2.5,7.9-5.1,15.8-8.1,23.5c-0.3,0.9-2.9,1.8-4.2,1.4c-3.2-0.8-6.3-2.1-9.1-3.7
		c-8.3-4.6-17.2-7.2-26.5-8.7c-4.9-0.8-9.5-3-14.2-4.7c-0.6-0.2-0.9-1.3-1.3-2c0.8-0.3,1.6-0.8,2.4-0.8c0.7,0,1.5,0.5,2.2,0.7
		c5.3,1.5,10.5,3.6,15.9,4.5c8.8,1.3,16.6,5.1,24.4,8.9c2.3,1.1,4.8,2,8,3.3c2.6-7.6,5-14.8,7.3-22c0.6-2-0.2-3.2-2.4-4.1
		c-17.6-6.6-35.3-13.3-52.8-20.2c-7-2.7-13.8-6-20.7-9c-3-1.3-4.9-0.6-5.6,3c-5.8,27.2-17.6,52.2-29.1,77.3
		c-13.6,29.7-24,60.5-32.4,92.1c-3.3,12.6-7.6,25-11.5,37.4c-0.5,1.5-0.9,2.9-1.5,4.8c3.5,0.7,6.7,1,9.7,1.8
		c9.1,2.6,18.4,4.7,27.3,8.1c11.8,4.5,23.2,10.4,35,15c6.7,2.6,13.9,3.8,21.1,5.7c0.4-6.7,0.8-12.7,1.3-18.7c0.2-3,0.8-6,0.8-9.1
		c0-0.9-1.1-2.4-2-2.7c-12.6-4.7-25.2-9.3-37.9-13.7c-3.2-1.1-6.6-1.8-10-2.1c-3.3-0.3-5.5-1.7-5.5-4.9c0.1-6,0.1-12.2,1.2-18
		c5.2-27.4,15.6-53.1,27.9-78c7.7-15.5,15.1-31.1,22.5-46.7c1-2.1,1.5-4.5,2.3-6.7c0.4-1,1-1.9,2-2.6c1.8,3.3,0.6,6.3-0.7,9.1
		c-8.2,17.1-16.4,34.3-24.8,51.3c-12,24.4-21.6,49.6-26.6,76.4c-0.8,4.3-1,8.6-1.1,13c-0.1,2.5,1,4,4.1,4.1c3,0.1,6,0.9,8.8,1.9
		c8.7,3.2,17.2,6.8,25.8,10.1c3.7,1.4,7.5,2.5,11.4,3.4c3.6,0.8,6.9,1.6,5.9,6.8c31.5-1.9,62.6-3.7,94.2-5.6
		c-0.6-4.3-1.1-8.5-1.6-12.6c-2.9-23.4-5.4-46.9-8.8-70.3c-2.7-18.4-5.2-36.8-11.8-54.4c-2.3-6.3-1.1-8.8,5.1-11.7
		c4.5-2.1,9.3-3.7,14-5.4c16-5.9,32-11.7,47.9-17.7c8.5-3.2,9.1-3,10.9,5.8c1.6,7.5,3.3,14.9,5.2,22.4c0.8,3.3,0.1,4.6-3.4,4.8
		c-3.3,0.1-6.5,0.8-9.8,1.2c-1.2,0.1-2.4,0-3.7-0.6c3.7-4,9.2-2.3,13.7-4.3c-2-9.1-4-18.3-6.1-27.8c-1.3,0.3-2.3,0.3-3.2,0.7
		c-20.4,7.5-40.8,15.1-61.2,22.6c-0.6,0.2-1.2,0.5-1.8,0.8c-5.6,2.5-6.1,3.6-4.1,9.4c7.6,21.8,10.3,44.7,13.5,67.4
		c3.3,23.8,6.2,47.6,9.2,71.4c1.4,11.2,2.6,22.5,4,34.5c7.6-2.2,15.2-4.1,22.6-6.6c9.8-3.4,19.5-7.5,29.3-10.9
		c5.9-2,12-3.5,18.2-1.2c1.2,0.4,2.1,1.5,3.1,2.3c-1.3,0.2-2.7,0.9-3.8,0.6c-5.4-1.9-10.5-0.7-15.5,1c-6.5,2.1-12.9,4.8-19.4,7
		c-10.6,3.6-21.3,7.1-32,10.4c-5.2,1.6-6,0.6-6.4-4.9c-0.8-9.3-2.1-18.6-3-27.9c-0.3-2.6-1.9-2.4-3.6-2.3c-10.8,0.5-21.6,1-32.4,1.7
		c-18.6,1.2-37.1,2.5-55.7,3.6c-2.8,0.2-4,0.9-4.1,3.8c-0.2,6.5-0.9,12.9-1.1,19.3c-0.1,3.5-1.4,4.6-5,3.8
		c-13.4-3.2-26.6-6.7-39.1-12.7c-6.8-3.2-13.7-6.4-21-8.3c-4.9-1.2-10.4-0.3-15.7,0c-23.2,1.7-46.3,3.5-69.5,5.2
		c-15.3,1.1-30.5,2.3-45.8,3.2c-3.1,0.2-3.5,2.2-4.1,4.4c-9.7,35.8-19.6,71.5-29.1,107.3c-11.6,43.7-22.8,87.6-34.2,131.4
		c-0.5,2.1-0.9,4.1-1.6,7.1c-2.8-3.2-1.9-5.9-1.2-8.4c6.4-24.5,12.8-49,19.3-73.5c13.7-51.9,27.5-103.8,41.3-155.7
		c1-3.7,2.1-7.3,3.4-11.7c-6.2,0.3-11.9,0.6-17.5,1c-18,1.2-36.1,2.5-54.1,3.6c-2.8,0.2-4.1,1-5.1,3.7
		c-3.5,10.4-10.8,17.9-19.3,24.5c-15.6,12-32.2,21.6-52.2,23.9c-7.4,0.8-14.5,0.2-20.6-4.7c-5.8-4.6-7.7-10.5-6-17.6
		c1.6-7,5.5-12.5,11.2-16.8c1.1-0.9,2.3-1.7,3.4-2.6c-1.7-3-3.8-4.2-7.2-4c-24.7,1.8-49.5,3.4-74.2,5.1c-19.2,1.3-38.5,2.5-57.7,3.7
		c-26.9,1.6-53.8,3.1-80.6,4.7c-1.1,0.1-2.8,1.2-3,2.1c-1.5,8.2-7.2,13.1-14.1,16c-22.4,9.6-44.9,11.1-67.2-0.7
		c-2.9-1.5-5.5-3.6-8.9-5.9c0.6,4.2,2.4,6.6,5.3,8.6c1,0.7,1.7,1.9,2.5,2.9c-1.2,0.4-2.5,1.2-3.6,1c-14.7-2.5-29.7-4.5-40-17.2
		c-0.4-0.5-1.1-1.1-1.6-1c-4.8,0.8-10.1-0.8-14.3,3.1c-5.6,5.1-12.3,7.1-19.8,8c-5,0.6-9.8,2.9-14.7,4.4c-5.8,1.9-11.6,2.2-17.5,0.9
		c-7.4-1.7-15.6-1.6-22.3-4.7c-11.2-5.3-21.9-2.2-32.4,0c-12.5,2.6-24.9,4.6-37.6,3.9c-1-0.1-1.9-0.9-2.9-1.3
		c0.9-0.6,1.8-1.7,2.6-1.6c15.4,1.5,30.1-2.8,45-5.5c4.2-0.8,8.6-1,14-1.6c-3.4-3.2-6.3-5.8-9-8.5c-0.8-0.8-1.2-2-1.8-3.1
		c1.1-0.2,2.2-0.8,3.2-0.6c1.9,0.4,3.7,1.3,5.6,1.8c7.4,1.8,14.8,3.9,22.3,5.2c3.3,0.5,7.1-0.4,10.5-1.4c11-3.3,21.1-8.2,28.7-17.3
		c7.9-9.6,16-18.9,23.7-28.6c2.5-3.1,4.3-7,5.8-10.7c1-2.5,1.1-5-0.2-8.1c-1.9-4.4-2-9.5-2.7-14.3c-0.1-0.8,0.9-1.7,1.3-2.5
		c0.7,0.8,1.8,1.5,2,2.4c0.8,4.1,1.4,8.3,2.1,12.8c4.5-1.7,8.5-3.2,12.4-4.7c-1.6-6.1-3.3-12.4-5.1-19.3c-3.2,0.8-7.1,1.8-11,2.6
		c-1.1,0.2-2.3-0.3-3.4-0.5c0.9-0.8,1.6-2.1,2.6-2.4c3.7-1.1,7.4-1.9,11.1-2.7c3.2-0.7,5.3,0.5,5,4.1c-0.6,6.7,2.2,12.4,5.1,18
		c0.4,0.7,1.2,1.5,1.1,2c-2.2,8.6,4.7,13.1,8.7,18.7c5.5,7.7,11.7,14.9,17.9,22.1c7.7,9.1,16.5,16.8,27.4,21.7
		c2.4,1.1,5.3,1.8,7.9,1.7c14.4-0.5,28.7-1.5,43.1-1.9c4.7-0.1,6.6-2.1,7.8-6.1c0.5-1.8,2-3.2,3-4.9c0.6,1.9,1.3,3.7,1.8,5.6
		c0.3,1.4,0.3,2.8,0.6,5c71.9-4.5,143.5-9,215.1-13.5c0.3-0.5,0.6-1,0.9-1.5c-27-20.6-46.8-46.2-55.4-79.9
		c-4.8,3.6-8.7,6.4-12.5,9.3c-17.2,12.8-35.6,23.7-54.1,34.3c-5.5,3.1-10.9,6.5-16.6,9.3c-4.8,2.4-9.9,4.4-14.8,6.5
		c-5.7,2.4-11.5,4.6-17,7.2c-2.6,1.2-3.6,0.9-4.5-1.9c-6.3-18.4-13.3-36.4-23.6-53c-2.7-4.3-5-9-7.1-13.7c-0.8-1.9,0-4.6-0.9-6.4
		c-3-5.8-5.9-11.8-9.9-17c-5.4-7-17.3-8.6-26.2-4.3c-7.5,3.5-12.7,13.7-11.1,22.2c0.6,3.3,1.4,6.8,2.9,9.8
		c8.1,16.3,16.4,32.5,24.8,48.6c4.2,8.1,10.9,14.2,18.1,19.6c7.1,5.3,17.4,3.8,26-2.8c1.2-0.9,2.8-1.2,4.2-1.8
		c-0.8,1.5-1.4,3.2-2.6,4.3c-9,8.2-19.3,8.4-29.3,2.9c-5-2.7-9.6-7.3-12.8-12.1c-7.3-11.1-13.9-22.7-20.3-34.3
		c-4.2-7.7-7.8-15.9-11.3-24c-3.7-8.4-4.1-16.7,0.1-25.5c7.3-15.3,32.3-15.9,40.5-4.2c4.3,6.1,7.8,12.7,11.8,19.4
		c16.9-4,33.2-10.8,47.8-21.6c12.6-9.3,22.9-20.7,32.6-32.7c0.8-1,1.7-2.2,2.8-2.8c0.8-0.4,2.1,0,3.2,0.1c-0.5,0.8-0.8,1.7-1.4,2.4
		c-2.7,3.2-5.6,6.3-8.3,9.6c-16,19.7-35.6,34.4-59.4,43.3c-5.1,1.9-10.5,3.1-15.4,4.5c-1.6,6.2,1.1,10.6,3.9,14.9
		c9.6,14.6,15.4,30.9,21.8,46.9c0.8,2,1.4,3.9,2.1,5.9c9.6-3.6,19.6-6.1,28.3-11c22.8-12.8,45-26.4,67.3-40.1
		c6.1-3.8,11.6-8.7,17.2-13.3c0.9-0.8,1.5-3,1.1-4.2c-2.1-6.3-4.9-12.3-6.7-18.6c-1.7-5.9-2.6-12-3.7-18.1c-0.2-1.1,0.3-2.4,0.5-3.5
		c0.4,0,0.8-0.1,1.2-0.1c0.4,1,1,2.1,1,3.1c0.4,7.5,2.5,14.4,5.3,21.4c6.1,15.2,11.5,30.6,17.6,45.8c6.1,15.1,16.3,27.3,28.1,38.3
		c9.1,8.5,18.2,17.1,27.9,26.3c-2.1,0.9-3.5,1.4-4.7,2.1c-7,4-11.8,9.8-13.3,17.8c-1.7,9.3,5.2,17.2,15.5,17.9
		c10.7,0.7,20.7-1.8,30.4-6.1c12.9-5.7,24.6-13.3,34.9-22.9c9.5-8.9,14.8-19.8,13.4-33.2c-0.4-4-2.2-7.1-5.5-9.7
		c-2.7-2.1-5-4.6-7.4-7.1c-0.5-0.5-0.4-1.6-0.6-2.4c0.8,0,1.9-0.3,2.4,0.1c3.9,3.6,8.2,6.8,11.3,11c2,2.8,2.5,6.8,3.2,10.4
		C597.9,722.1,597.5,724.6,597.5,727.6z M60.6,755.4c-0.2,0.2-0.5,0.3-0.7,0.5c1.9,1.6,3.7,3.3,5.6,4.8c6.3,5,13.7,6.8,21.6,7.6
		c8.4,0.8,16.6,3.6,25.3,0.5c7.3-2.6,15-3.9,22.5-5.9c1.5-0.4,3-1,4.4-1.8c10.3-6.4,18.2-14.4,17.8-27.7c0-1,0.1-2.2,0.4-3.1
		c0.5-1.2,1.2-2.2,1.9-3.3c0.4,1.2,0.8,2.5,1,3.7c0.1,0.5-0.1,1-0.2,1.6c-0.8,9.6,1.1,18.8,7.7,25.8c8,8.6,19.2,10.8,30.5,12.5
		c-4.4-10.3-8.5-20.5-13.1-30.3c-3.3-7-7.3-13.7-10.9-20.6c-0.8-1.5-1.5-3.2-2.3-4.7c1.7,1.1,3.5,2.2,5.2,3.4c0.6,0.4,1,1.3,1.3,2
		c3.9,7.8,8.7,15.3,11.3,23.4c3.4,10.7,11,16.6,19.9,21.6c16.8,9.4,34.5,9.4,52.6,4.5c7.2-2,14.3-4.2,19.3-10.1c2-2.3,3.2-5.3,4.8-8
		c-0.4-0.4-0.8-0.8-1.2-1.2c-1.4,0.4-3.2,0.4-4.2,1.2c-8.8,7.6-18.7,7.9-29.8,6.8c-23.1-2.4-41.7-12.3-56.4-30
		c-4.7-5.7-8.8-11.8-13.7-17.4c-6.2-7.1-12.8-13.9-14.9-23.6c-7.4,0.8-11,3.7-12.1,9.6c-0.7,4.1-1.5,7.7-4.6,11.1
		c-7.3,8.1-13.8,17-20.6,25.5c-7.7,9.4-16.5,17.4-28,21.9c-8.6,3.4-17.2,5.7-26.6,3C69.9,757.4,65.2,756.5,60.6,755.4z M241.6,752.8
		c14.4,5.3,28.7,4.5,33.2-1.5C263.6,751.8,252.6,752.3,241.6,752.8z M158.3,746.2c-0.3,0-0.6-0.1-0.9-0.1c-0.9,2.3-1.8,4.7-2.9,7.3
		c2.2,0,4.1,0,6.4,0C160,750.7,159.1,748.4,158.3,746.2z"/>
	<path d="M516.9,242.6c-6,0-10.7,0-15.9,0c2.7-5.4-0.5-6-4-6.8c-5.2-1.2-5.7-2.2-5.2-7.4c-8.7-4.1-8.8-4.3-2.2-14.1
		c-9.6,2.3-18.3,4.5-27.8,6.8c0.3-2.7,0.5-5.3,0.7-7.2c-3-0.3-6-0.4-8.9-1.1c-1.1-0.3-1.8-2-2.6-3.1c0,0-0.2,0.1-0.4,0.3
		c-4.7,8.2-6.6,8.5-13.5,2c-1.9-1.8-3.8-3.5-6.7-6.2c-0.7,6.8-1.2,12.3-1.9,17.9c-0.2,1.2-1,2.3-1.5,3.5c-0.5-1.2-1.6-2.4-1.5-3.6
		c0.5-5.8,1.2-11.5,2.2-17.2c0.6-3.4,2.6-4.2,5.4-2.1c2.8,2.1,5.3,4.7,8,7.1c3.3,2.9,4,2.7,6.1-1.3c0.8-1.5,1.2-3.3,2.2-4.6
		c0.7-1,2.1-2.1,3.2-2.1c0.6,0,1.6,1.8,2.1,2.9c0.4,1.2,0.4,2.6,0.7,5c2.8-1,5.2-1.9,7.6-2.6c1.2-0.4,2.4-0.6,3.5-0.9
		c0.2,1.3,0.7,2.7,0.5,3.9c-0.2,1.7-1,3.3-1.6,5.3c8.7-1.9,16.9-3.9,25.3-5.6c2.2-0.5,4.7,0,7,0c-1.4,1.7-2.8,3.4-4.3,5.1
		c-1.8,2-3.6,4-5.9,6.5c1.8,0.9,2.7,1.6,3.8,1.8c3.1,0.7,5.3,1.8,4,5.7c-0.2,0.5,0.7,1.8,1.4,2.2c1,0.6,2.2,0.9,3.4,1
		c3.5,0.3,5.7,1.7,5.4,6.2c3.6,0,6.9-0.3,10.1,0.1c4.7,0.5,5.5,2.3,2.9,6.2c-0.9,1.3-1.8,2.6-2.8,4c0.7,0.7,1.1,1.4,1.7,1.8
		c3.6,1.9,4.1,4.4,1.7,7.7c-0.5,0.6-0.6,1.8-0.4,2.6c1.1,6.9,0.1,8.7-6.5,11.4c-0.7,0.3-1.4,0.6-2.9,1.3c2,2.1,3.5,3.9,5.2,5.5
		c5.6,5.4,5.4,6.8-2,10.2c1.4,1.8,2.3,3.9,3.9,5.1c7.7,5.6,7.3,8-0.5,13.7c0.5,0.7,0.9,1.6,1.6,2c2.6,1.7,3.5,3.4,1.7,6.5
		c-0.9,1.6,0.1,4.2,0.1,6.4c0.1,6.9-0.3,7.3-6.9,8.3c-1.1,0.2-2.4,1-2.9,2c-3.1,6.1-3.4,6.3-9.4,2.8c-3.5,2.3-2.3,11.1-10.6,7.2
		c-0.6,3.6-1.1,7.2-1.7,10.9c4.7,0,9.1-0.1,13.5,0c4.3,0.1,5.5,2,3,5.4c-5.5,7.6-7,16.7-9.5,25.4c-4.1,14.2-7.8,28.5-13.1,42.3
		c-2.8,7.5-5.9,14.9-7.2,22.8c-0.7,4.3-0.3,8.7-0.4,13c-0.3,8.6-0.7,17.1-1,25.7c-0.1,3.6,0.3,7.1,0.3,10.7
		c0.1,7.1,0.6,14.3-0.1,21.3c-1.3,12.6,1.2,24.7,2.8,37c0.9,6.5,2.8,12.9,3.8,19.4c0.9,6,1.3,12,1.9,18.2c-0.1-0.1,0.2,0.2,0.3,0.1
		c7.7-4.6,13.8-0.8,19.9,3.6c7,5.1,10.4,4.6,16.4-1.7c5.3-5.6,9.2-12.2,11.7-19.3c1.4-4,1.1-8.9,0.9-13.3c-0.2-4.4-1.4-8.8-2.2-13.5
		c0.2,0.2,0-0.1-0.2-0.1c-8.9,1.2-8.9,1.2-10.2-8c-0.7-4.6-1.7-9.1-2.3-13.7c-0.9-7.4-0.7-7.4,6.2-9.7c-0.6-4.7-0.8-9.6-1.9-14.2
		c-2.4-10.3-4.7-20.6-7.9-30.6c-2.8-8.4-7.2-16.1-14.5-21.8c-0.7-0.6-0.7-2.1-1.1-3.2c1,0.3,2.2,0.3,3,0.9
		c10.2,8.3,15.3,19.7,18.5,32c2.9,11.5,4.8,23.2,7.2,34.8c0.7,3.2-0.4,5.3-3.6,5.7c-3.1,0.4-3.5,1.9-3,4.6c1.1,6.1,1.8,12.3,3,18.3
		c0.2,0.9,2,1.8,3.2,2.2c0.7,0.3,1.8-0.4,2.6-0.7c3.3-1.3,6.5-2.8,9.9-4c5.9-2.1,11.9-4.2,18-6c9.6-2.9,19.2-5.5,28.8-8.2
		c-0.5-8.8-0.8-17.4-1.7-26c-0.4-4.5-4-5.9-7.7-3.2c-9.3,6.9-18.6,13.9-27.8,20.9c-0.3,0.2-0.6,0.6-0.9,0.7
		c-1.4,0.6-2.9,1.1-4.4,1.6c0.8-1.4,1.4-3.2,2.6-4.1c9.1-7.2,18.3-14.2,27.6-21.5c-2.8-10.9-5.6-21.9-11.4-32.2
		c-3.8-6.8-5.8-14.7-8-22.2c-3.3-11.5-6-23.2-9.1-34.8c-1.5-5.6-2.7-11.3-4.8-16.7c-5.1-12.9-13.7-22.5-27.7-25.9
		c-2.4-0.6-5.1-0.1-7.6-0.1c-0.2,0.4-0.4,0.8-0.7,1.2c-0.2-1-1-2.4-0.6-2.9c0.7-0.9,2-1.8,3.2-1.8c6.8-0.3,13,1.8,18.6,5.6
		c12.2,8.3,18,20.5,21.5,34.4c4.7,18.5,9.8,36.9,14.9,55.4c0.9,3.1,3,5.9,4.2,8.9c2.8,7.1,5.4,14.2,8,21.3c0.9,2.6,1.6,5.3,2.3,7.8
		c7.4-0.8,10.7,2.1,11.2,9.3c0.6,7.6,1.3,15.2,2,22.8c0.3,2.8-0.6,4.5-3.6,5c-2.4,0.4-4.8,1.1-7.5,1.7c6.3,10.6,11.2,21.2,10.5,33.6
		c-0.4,7.6-1.5,9.9-8.5,13c-13.2,5.8-31.3,2.4-41.6-7.7c-0.8-0.8-1.6-1.5-2.9-2.7c-0.5,9.1-4,16.4-9.4,23c-0.7,0.8-1.1,2.2-1,3.2
		c1.4,13,2.5,26,4.8,38.9c0.7,4.2,3.8,8.4,6.9,11.7c12.9,13.9,25.2,28.6,42.3,37.9c2.9,1.6,1.8,3.5,0.2,5.1
		c-8.9,8.5-17.4,17.3-26.9,25.1c-9.2,7.6-19.3,14.3-29,21.3c-1,0.7-2.5,0.9-3.8,1.4c-0.5-0.7-1.1-1.5-1.6-2.2
		c1.3-0.6,2.7-1.1,3.8-1.9c9.1-6.5,18.2-13,27.2-19.8c10.2-7.6,19.6-16,28.1-25.9c-0.9-0.8-1.5-1.4-2.2-1.9
		c-11.6-7.1-21.4-16.3-30.4-26.3c-5.3-5.9-10.6-11.7-15.8-17.6c-0.6-0.6-0.9-1.6-1-2.4c-0.8-5.7-1.5-11.5-2.3-17.2
		c-1.1-7.7-2.2-15.3-3.4-23.3c-0.7,0.6-1.5,1.1-2.2,1.7c-5.2,4.7-11.3,5-16.9,0.9c-1.5-1.1-3.1-2-4.6-3.1c-4.3-3.4-8.6-3.8-13.5-1.1
		c-4.5,2.4-5.5,1.5-5.5-3.5c0-4.1,0-8.2-0.1-12.3c0-3.6-1.7-5.3-5.4-5c-3.7,0.2-7.4,0-11.2-0.9c4.4-3.1,9.6-1.3,14.1-2.3
		c-1.6-11.8-3.5-23.3-4.7-35c-0.7-6.5-0.2-13.2-0.2-19.7c0-4.5,0.4-9,0.4-13.4c0.1-16.5,0.2-32.9,0-49.4
		c-0.3-19.4,3.3-38.3,6.5-57.3c1.1-6.5,1.2-13.1,1.3-19.7c0.1-5.6-4-10.2-8.4-9.9c-1.2,0.1-2.3,1.1-3.5,1.7c-1,0.5-2,1.1-2.2,1.2
		c-1.1-4.5-2-8.5-3-12.5c-0.5-2.2-1.2-4.3-1.5-6.5c-0.3-2.4-0.3-4.4-3.7-4.8c-1.4-0.2-2.5-2.7-4-4.5c-8.3,8-19.1,9.3-30.4,9.8
		c0.2,0.8,0.2,1.3,0.4,1.7c4.1,5.2,5,11.1,4.1,17.6c-0.9,7.2,1.3,9.5,8.8,9.7c4.8,0.1,9.2-1,12.9-4.1c0.7-0.6,1.5-1.2,2.3-1.5
		c0.9-0.3,1.8-0.1,2.8-0.1c-0.4,0.9-0.5,2-1.2,2.6c-8.2,7.4-19.4,8-29.3,1c-2.4,3.7-5.4,7.2-6.9,11.2c-4.1,10.4-6.7,21.1-6.7,32.4
		c0,5-0.9,10-1.4,15c-0.2,2.5-0.7,5.1,2.5,5.8c-6.1,20.6-9.4,41.5-12.1,62.6c-1.8,13.9-3.5,27.7-5.1,41.6c-0.5,4.4-0.5,9-0.3,13.4
		c0,1.2,1.3,3,2.3,3.3c4.1,1.3,8.3,2.3,12.6,3.1c8.7,1.7,17.3,3.2,26,4.8c6.6,1.2,13.1,3,20,1.3c0.9-0.2,2,0.6,3,1
		c-0.9,0.6-1.6,1.6-2.6,1.8c-7.7,2.3-15.2-0.1-22.7-1.4c-9.6-1.6-19.2-3.3-28.8-5.1c-3.2-0.6-6.3-1.5-9.7-2.4
		c-0.4,4-0.7,7.9-1.3,11.8c-0.2,1.4-1.2,2.6-1.8,3.9c-0.4-1.3-0.9-2.6-1.3-4c-0.2-0.6-0.1-1.3-0.2-3.4c-2.6,2.2-4.5,3.9-6.4,5.4
		c-1,0.7-2.1,1.2-3.2,1.8c-0.5-1.1-1.3-2.3-1.3-3.4c0.7-20.7,1-41.4,2.5-62c0.8-11.2,3.7-22.3,5.6-33.8c-2.8,2.4-5.6,4.8-8.3,7.1
		c-0.6,0.5-1.3,1.1-2,1.3c-4.5,1.2-5.5,4.3-5.1,8.6c0.1,1.4-1.2,3.5-2.5,4.4c-3.8,2.6-7.9,4.7-12.7,7.4c2.1,6.9,4.2,14.4,6.9,21.8
		c2.9,8,7.1,15.7,6.9,24.6c0,2.1-0.3,4.4-1.2,6.1c-0.8,1.5-2.8,3-4.4,3.2c-21.8,2.2-43.6,4.2-65.3,6.2c-1.3,0.1-2.6,0.1-4,0
		c-6.4-0.6-8.4-2.5-7.6-8.8c0.9-7.2,1.9-14.4,3.9-21.3c3-10.8,6.8-21.3,10.2-32c0.3-0.8,0.3-2.1-0.2-2.8c-6.4-8.7-7.5-22.8-1.7-31.9
		c2.8-4.4,6.1-8.7,9.9-12.3c6.2-6,14-6.1,21.9-4.5c1.5,0.3,3,0.8,4.6,1.2c2-7.5,4-14.6,5.9-21.8c-12.6,0-25.1,0-38.5,0
		c1.4,5.9,2.7,11.6,4,17.3c0.3,1.4,0.9,2.8,1.1,4.2c0.1,0.6-0.4,1.3-0.6,2c-0.7-0.3-1.4-0.4-2-0.9c-0.4-0.3-0.6-0.9-0.7-1.4
		c-1.8-8.4-3.6-16.7-5.1-25.2c-0.2-1.1,1-3,2.2-3.7c6.8-4.6,14.1-7.1,22.5-5.1c1.3,0.3,2.8-0.1,4.1-0.4c7.5-1.7,13.9-0.8,17.7,7
		c0.6,1.3,0.2,3.3-0.3,4.8c-1.7,5.2-3.6,10.3-5.8,16.4c5.1-1.9,8.8-2.8,13.1-0.6c3.6,1.8,12.8-4,14.9-9.1
		c4.8-11.7,9.3-23.5,13.9-35.3c3.2-8.3,6.6-16.4,12.8-23c0.5-0.5,1.2-1.3,1.1-2c-0.3-5.2,3.6-6.9,7.2-8.8c4.1-2.1,8-4.5,12.2-6.6
		c1.1-0.5,2.5-0.3,3.8-0.5c-0.6,1-1.1,2.3-2,2.9c-4.7,2.7-9.4,5.4-14.2,7.8c-2.8,1.4-4,3.3-4.1,6.5c-0.5,11-0.1,21.8,2,32.7
		c1.6,8.1,2.3,16.3,3.9,24.4c2.1-17.6,1.5-35.5,8.1-52.3c2.2-5.7,5-10.7,9.8-14.6c0.5-0.4,1.1-0.8,1.2-1.4c1.8-8.3,0.7-16-5-22.6
		c-0.7-0.8-2.7-0.7-4-0.8c-9.9-0.5-18.7-3.8-26.7-9.9c-6.6-5-9.1-12-8.7-19.8c0.6-11.7,2.5-23.3,6.7-34.4c0.4-1.1,0.4-2.9-0.2-3.8
		c-4.7-7.7-2.3-13.1,6.9-14.8c0.5-0.1,1-0.2,1.8-0.4c0-2.7,0.4-5.3-0.1-7.8c-1-5.8,3.1-9.3,5.7-13.4c2.1-3.3,3.6,0.9,4.8,0.9
		c4.5-3.4,8.6-6.1,12.3-9.4c1.6-1.4,2.2-4,3.3-6.4c-3.5-0.9-6.6-1.5-9.5-2.6c-2.2-0.8-4.3-2.1-6.2-3.4c-0.7-0.5-1.3-1.9-1.1-2.6
		c0.2-0.7,1.5-1.3,2.4-1.5c4.4-0.8,8.8-1.5,13.3-2c1.5-0.2,3.1,0.5,4.6,0.8c0,0.5-0.1,1-0.1,1.5c-4.7,0.9-9.3,1.7-14,2.6
		c-0.1,0.3-0.2,0.6-0.2,0.8c2.6,0.8,5.2,1.9,7.9,2.4c6.3,1.3,6.4,1.3,4.8,8.3c2.2-1.2,4-2.4,6-3.3c0.8-0.4,2.3-0.6,2.9-0.1
		c0.6,0.5,0.8,1.9,0.6,2.8c-0.6,2.5-1.6,4.9-2.5,7.8c9.1-5.5,9.1-5.5,10.5,2.3c2.3-0.8,5.1-2.5,6.4,1.3c0.3,0.9,0.1,1.9,0.2,2.9
		c-1.2-0.4-2.4-0.7-4.1-1.2c-5.1,2.8-5.1,2.8-6.3-6.3c-2.2,2.2-3.9,4.1-5.8,5.6c-1,0.8-2.4,1.2-3.6,1.8c-0.3-1.4-1.1-2.9-0.9-4.2
		c0.4-2.7,1.3-5.2,2.1-8.2c-6.5,4-14.8,4.2-18.8,12.7c10.8,3.5,21.6,7,32.4,10.4c1.6-2.3,3.1-4.5,4.7-6.5c0.6-0.8,1.8-1.1,2.8-1.6
		c0,1.2,0.2,2.4,0,3.5c-0.2,0.9-1.1,1.7-2.1,3c2.1-0.3,3.5-0.6,4.9-0.8c3.2-0.4,5.8-0.3,6.9,3.8c1,3.6,4.7,4.7,8,5.7
		c1.2,0.4,2.3,1,3.3,1.5c-4.5,2.4-8.5,4.6-12.6,6.8c0.1,0.4,0.3,0.8,0.4,1.3c2.9,0.9,5.7,1.9,8.6,2.8c-0.1,0.7-0.3,1.4-0.4,2
		c-4-0.6-8-1.2-12-1.8c-0.3,0.2-0.7,0.4-1,0.6c4.8,1.9,3.2,4.1,1.3,6.5c-1.7,2.3-3.2,4.7-4.9,7.3c0.8,0.2,1.2,0.4,1.5,0.4
		c7.1-0.8,9.1,1.1,8.3,8.4c-0.1,1.2-1.2,2.5-2.2,3.3c-1.7,1.4-3.8,2.4-5.7,3.6c-1.4,0.9-2.7,1.5-2.1,4c0.4,1.3-1.3,3.2-2.2,5.2
		c3.7-0.1,4.4,2.4,4.4,5.4c0,1.8,0.1,3.7,0,5.5c-0.2,2.3,0,4,2.3,5.6c2.1,1.5,3.3,4.3,5.4,7.3c1.7-2.7,3.2-5,4.6-7.4
		c2-3.5,2.8-3.3,5.7-0.9c1.7,1.5,4.7,1.4,7.1,2.1c1.1,0.3,2.7,0.3,3.3,1c2,2.6,3.6,5.4,5.9,8.9c0.5-2.8,0.8-4.8,1.2-6.8
		c1.1-5.7,2-6.1,7.1-2.6c0.6-1,1.3-1.9,1.8-2.9c3.4-6.9,3.4-6.9,10.1-3.3c0.5-1.2,0.8-2.5,1.6-3.4c1.1-1.3,2.4-2.9,3.9-3.2
		c6.1-1.3,6.6-1.9,5.6-8c-0.3-2.2-0.3-4.4-0.5-6.5c-1.1-2.3-3.4-5.1-2.9-7.2c0.5-2.1,3.9-3.4,6.4-5.4c-1.5-1.4-2.6-2.4-3.7-3.4
		c-1.6-1.6-3.3-3.1-4.5-4.9c-2.5-3.9-1.3-6.4,4.6-8.8c-2.2-2-4.2-3.6-6-5.4c-4.4-4.4-3.8-7.3,1.8-9.4c4.7-1.8,5-3,4.3-8
		c-0.3-2,0.7-4.2,1.2-7C510.4,252.4,511.4,248,516.9,242.6z M396.8,266.3c-0.4,0.2-0.8,0.5-1.3,0.7c1.4,7.5,2.1,15.1,4.3,22.3
		c1,3.3,4.5,7.2,7.7,8.2c6.3,1.9,13,1.3,19.3-1.6c5.1-2.4,10.3-4.6,15.6-6.7c0.7-0.3,1.8,0.3,2.7,0.5c-0.6,0.8-1.1,2-1.9,2.4
		c-2.6,1.3-5.3,2.3-8,3.4c-5,2-9.9,4.8-15.1,5.6c-7.5,1.2-15.6,2.1-20.7-5.8c-1.9-3-3-6.6-4.2-10.1c-1-3-1.7-6.2-2.5-9.2
		c-7.4,1.2-8.7,4.3-5.2,10c1,1.5,1.3,4,0.9,5.8c-2.2,10-5.1,19.9-6.9,30c-1.9,11,2.5,19.1,12.3,24.7c9.8,5.6,20.4,6.7,31.4,5.8
		c7.5-0.6,14.9-1.5,20.7-5.8c0.1-2.4,0.1-4.1,0.3-5.8c0.3-3,0.9-6,1.2-9c0.2-2.4-0.1-4.3-3.3-4.6c-2.9-0.3-3.3-2.2-1.8-4.6
		c0.5-0.8,1.1-1.4,1.8-2.4c-2.5-2.5-1.7-4.2,1.2-5.8c3.4-1.9,6.5-4.3,9.4-6.3c-0.8-2.1-1.5-3.7-2.2-5.6c-0.7,0.1-1.8,0.6-2.8,0.4
		c-1.6-0.2-3.6-0.4-4.4-1.4c-0.6-0.7,0.1-2.9,0.7-4.2c0.9-2,2.3-3.8,3.6-5.9c-4.5-2.2-1.6-4.8-0.8-6.6
		C431.4,278.4,414.1,272.4,396.8,266.3z M314.5,526.4c-2,0.2-3.6,0.5-5.1,0.6c-10.6,0.7-10.8,0.7-13.6,10.8
		c-2.4,8.6-5.2,17.3-6.3,26.1c-1.4,10.9,0.3,11.5,11.3,10.4c19.5-2,39.1-3.7,58.6-5.4c4.8-0.4,6.7-2.1,6-7
		c-0.5-4.1-1.5-8.3-2.7-12.3c-2.9-9.3-6.1-18.5-9.4-27.6c-0.5-1.4-1.9-2.9-3.3-3.3c-4-1.4-7.6,0.5-11.2,2.2c3,0.3,5.9-0.3,8.8-0.7
		c0.9-0.1,1.8,0.5,2.7,0.8c-0.6,0.7-1.1,1.8-1.9,2.1c-2.4,0.8-4.8,1.2-8.3,2c2.8,4.3,5.3,8.2,7.8,12.1c0.5,0.7,0.9,1.5,1.3,2.2
		c-0.8,0.5-1.6,1.3-2.5,1.4c-4.7,0.6-9.4,1-14.2,1.4c-4.3,0.4-8.7,1.1-13,1.2c-4.7,0.1-6.3-1.7-6.2-6.2
		C313.7,533.8,314.1,530.4,314.5,526.4z M338.8,474.6c-0.3,0-0.5,0.1-0.8,0.1c-0.3-1.4-0.1-3.2-0.9-4.1c-5.4-5.5-20-6-25.9-0.7
		c-9.7,8.7-16,18.7-12.7,32.8c1.7,7.2,2,7.8,10.8,9.1c4.7,0.7,9.5,0.5,14.2,0.8c5.1,0.3,9.9-0.2,14.4-3.1c2.7-1.8,5.9-2.7,9.6-4.2
		c-1.8-8.4-3.6-17.3-5.7-26.1C341.4,477.5,339.9,476.1,338.8,474.6z M574.3,537c-6.2,1.7-12.7,3.3-19.1,5.2
		c-5.4,1.6-10.9,3.2-16.1,5.4c-7.4,3.1-8.5,5.4-6.4,13.3c0.8,3.1,2.3,6.3,4.1,8.9c8.7,12.3,31.1,16.4,43.7,8.1c1.5-1,3-3,3.1-4.6
		c0.4-8.5,0.8-17.1-4-25C577.4,544.8,576,540.8,574.3,537z M358.5,459.9c3.6,5.6,7.9,10.4,9.9,16c2,5.6,1.6,12,2.3,18.1
		c8.1-3.1,15-11.5,16.8-19.5c0.8-3.8,2.2-7.5,3.6-11.1c0.6-1.5,2.7-2.6,2.7-4c0.6-15.7,1-31.4,1.2-47c0.1-5.4-0.6-10.8-0.9-17.3
		c-1.5,2.1-2.7,3.3-3.3,4.7c-2.9,6.6-5.9,13.3-8.6,20c-3,7.4-5.7,15-8.5,22.5c-3,8-6.9,15.1-15.5,18.4
		C358.1,460.5,358.1,460.7,358.5,459.9z M398.7,438.8c-4.4,8.8,2.1,18.3-4.5,26c-3.2,14.9-6.8,29.8-9.5,44.8
		c-1.9,10.6-3.3,21.4-3.9,32.1c-0.7,11.8-0.4,23.7-0.5,35.6c0,0.9,0.2,1.9,0.4,3.1c1.6-1.1,2.7-2.4,4-2.6c4.4-0.7,4.7-3.7,4.6-7.2
		c-0.5-18,1.4-35.8,4.3-53.5c2.4-14.9,4.9-29.9,7.2-44.8c1.1-7.3,3.6-14.6,0.7-22.2C400.2,446.7,399.7,443,398.7,438.8z
		 M501.5,358.6c-3.4,0-6.2-0.1-8.9,0c-8.3,0.2-16.6,0.5-24.9,0.6c-1,0-1.9-0.8-2.9-1.3c1-0.6,2-1.5,3.1-1.6c2.1-0.3,4.2-0.1,6.3-0.1
		c2.7,0,5.4,0,8.2,0c-2.2-10.1-9.5-12-18.3-12.5c-4.6,8.5,0.4,16.3,2.7,24.4c8.5-2.2,14.6,5.8,14.7,12.8c0.1,14.8-2.6,29.3-5.6,43.8
		c-0.6,2.9-0.9,5.9-1.4,8.8c1.9-1.6,3.1-3.2,3.7-5c3.5-10.6,7.1-21.2,10.4-31.9C492.6,383.9,493.3,370.4,501.5,358.6z M347.3,459.8
		c-5.2,0.5-5.9,1.5-4.7,7.7c2.5,12.9,5.2,25.8,8.1,38.6c1.3,5.7,3.6,6.6,8.6,3.9c1.5-0.8,2.8-1.9,4.4-2.7c2.6-1.3,3.4-3.1,3.3-6
		c-0.2-5.8-0.1-11.6-0.1-17.4c0-5.5-1.5-10.4-5.2-14.5c-2.4-2.7-4.9-5.4-7.5-8.2c-1.5,0.6-3.1,1.3-4.7,1.8
		C346.4,464,345.9,463.3,347.3,459.8z M458.6,274.7c-0.8-0.3-1.3-0.6-1.9-0.8c-17.8-6.3-35.7-12.7-53.6-18.9
		c-0.9-0.3-2.4-0.4-2.8,0.1c-1.6,2.2-2.9,4.6-4.4,7.1c5.1,1.8,9.5,2.9,13.4,5c11.4,6.1,24,8.6,36.1,12.6
		C451.6,281.6,455.1,279.1,458.6,274.7z M326,514.9c-6.3,0-12.2,0.4-18.1-0.1c-4-0.4-5.1,1.2-5.6,4.7c5.7-0.8,11.1-1.7,16.9-2.5
		c0,0.5,0.2,1.8,0,3c-0.8,5.5-1.8,10.9-2.7,16.3c-0.4,2.6,0.5,4.3,3.4,4c7.8-0.7,15.6-1.6,23.5-2.4c-3.1-6.6-6.4-12.5-8.6-18.8
		c-1.3-3.6-2.6-4.4-6-2.9c-0.4,3.5-0.7,7.2-1.1,10.9c-0.5,0-1,0-1.5,0C323.7,523.7,325.5,519.9,326,514.9z M302.8,438.6
		c3.1,2.3,34.6,2.3,39.3,0.3c-2.2-5.1-4.1-6.2-10.4-5.9c0.2,3.4-1.6,3.3-4.1,2.2C318.8,431.6,310.7,432.8,302.8,438.6z M347.4,508.7
		c-3.2,1.4-6.3,2.6-9.2,4.1c-0.7,0.4-0.8,1.8-1.1,2.8c1,0.3,2,1,2.9,0.9c3.1-0.5,6.1-1.2,9.1-1.8
		C348.7,513.2,348.3,511.7,347.4,508.7z M315.5,522.2c-0.1-0.4-0.2-0.8-0.4-1.2c-3.9,0.5-7.7,1.1-11.6,1.6c0.1,0.4,0.1,0.8,0.2,1.2
		C307.8,523.6,311.9,524.5,315.5,522.2z M445.6,267.1c3.8,1.3,6.5,2.2,9.6,3.2C453.7,264.8,453.2,264.6,445.6,267.1z"/>
	<path d="M878.5,602.8c3.7,2,6.8,3.9,10.1,5.5c3.3,1.6,6.7,3.1,10.2,4.3c12.4,4,25,7.6,36,15c0.2-0.3,0.4-0.6,0.4-0.7
		c-6.7-14.2-12.1-28.9-22.9-40.9c-4.1-4.5-6.6-10.4-9.7-15.8c-0.4-0.7,0-1.8,0.1-2.8c0.8,0.4,2.1,0.6,2.5,1.3
		c1.9,3.1,3.6,6.4,5.5,9.6c1.1,1.9,2.2,4,3.8,5.6c11.8,12.4,17.2,28.3,24.3,43.2c0.2,0.5,0.5,1,0.5,1.5c0.1,1.5,0,3,0,4.5
		c-1.4-0.4-3.1-0.5-4.1-1.3c-10.1-8-22.3-11.2-34.1-15.4c-5.8-2.1-11.3-5-16.9-7.4c-2.2-0.9-4.4-1.9-6.6-2.5c-3-0.8-3.8-2.3-2.1-4.8
		c6.8-10.2,13.7-20.3,20.6-30.5c0.4-0.5,0.8-1.2,1.3-1.4c1.1-0.4,2.3-0.6,3.4-0.9c-0.4,1-0.6,2.1-1.1,2.9
		C892.5,582.3,885.4,592.6,878.5,602.8z"/>
	<path d="M1340.9,617.7c3.6-2,7.3-1.6,11.1-0.4c0.9,0.3,1.8,0.6,2.5,1.1c14.8,9.6,31.7,14.1,48.1,19.9c0.9,0.3,1.6,1.4,2.4,2.1
		c-1.1,0.8-2.2,2-3.4,2.2c-14.1,2.8-28.2,5.4-42.3,8c-6.1,1.1-12.2,2.2-18.3,3.2c-4,0.6-4.9-0.3-4.3-4.2c1.4-9.4,3-18.7,4.4-28.1
		C1341.2,620.5,1341,619.3,1340.9,617.7z M1339.3,651.1c19.6-3.5,38.3-6.8,57-10.1c-0.7-1.4-1.2-1.8-1.8-2
		c-14.4-5.2-29.1-9.6-42.1-17.9c-2.1-1.4-5.2-1.3-8-1.9C1342.7,629.9,1341.1,639.9,1339.3,651.1z"/>
	<path d="M1007.2,601c-1-0.6-2.6-1.1-3.6-2.2c-0.6-0.6-0.3-2.1-0.3-3.2c0.8,0.2,1.7,0.3,2.5,0.6c1.8,0.6,3.5,1.7,5.4,2
		c15.9,2,31.9,3.7,47.8,5.7c1.3,0.2,2.4,1.5,3.6,2.3c-0.8,1.2-1.4,3.1-2.5,3.5c-16.1,6.3-29.6,16.5-43,27.1
		c-1.5,1.2-3.7,1.4-5.6,2.1c-0.6-1.8-1.4-3.6-1.6-5.4c-0.6-4.7-0.9-9.4-1.3-14.2C1008.1,613.3,1007.7,607.3,1007.2,601z M1056.7,607
		c-1.1-0.2-2.3-0.5-3.4-0.6c-12.4-1.5-24.8-3-37.2-4.6c-5-0.6-5.6-0.1-5.3,4.9c0.6,8.9,1.4,17.8,2.2,26.8c0,0.6,0.4,1.1,0.7,2.2
		C1027.3,624.9,1040.8,614.3,1056.7,607z"/>
	<path d="M1052.4,668.8c1.5-6.7,2.7-12.2,8.1-16.2c8.1-6,16.7-10.3,26.5-12.8c9.4-2.4,16.1,6.3,18.2,12.6c1.2,3.7-1.3,6.6-4.5,7.8
		c-4.2,1.5-8.6,2.9-13,3c-9.1,0.1-17.6,1.6-24.6,8c-0.7,0.6-1.5,1.2-2.3,1.5c-1.9,0.6-4.5,1.8-5.7,1.1
		C1053.5,672.9,1053.1,670.2,1052.4,668.8z M1056.4,671.7c2.9-1.9,5.4-3.3,7.6-5c4.9-3.9,10.5-5.9,16.7-6.1c3-0.1,6.1-0.1,9-0.6
		c3.3-0.6,6.7-1.4,9.7-2.8c1.3-0.6,2.7-2.9,2.5-4.3c-0.6-5.1-9.3-11-14.4-9.9c-11,2.3-20.6,7.2-28.2,15.5
		C1056.5,661.9,1055.4,666.2,1056.4,671.7z"/>
	<path d="M1139.6,595.7c-1.4-9.5-0.8-18.9-5.1-27.4c-0.3-0.5-0.3-1.7,0.1-2c0.5-0.4,1.8-0.5,2.1-0.2c0.9,1,2,2.3,2.2,3.5
		c1.3,8,2.5,16.1,3.6,24.2c0.5,3.4-1.1,5.2-4.7,5.1c-9.5,0-19,0.3-28.5-0.1c-3.8-0.2-7.6-1.7-11.2-3c-2.4-0.9-2.7-2.8-0.6-4.6
		c9.4-8.1,18.8-16.2,28.2-24.2c0.8-0.7,2.2-0.9,3.3-1c0.6,0,1.2,0.8,1.8,1.2c-0.4,0.5-0.8,1.2-1.3,1.6c-1.6,1.1-3.4,2-4.8,3.2
		c-7,5.8-13.9,11.7-20.9,17.5c-1.2,1-2.5,2-4.7,3.7c3.1,1,4.9,2.1,6.6,2.1C1116.6,595.8,1127.6,595.7,1139.6,595.7z"/>
	<path d="M952.2,682.8c0-0.9-0.2-1.8,0-2.6c3.7-11.9-3.3-19.2-12.2-23.4c-5.1-2.4-10.4-2.8-15.8-1.4c-6.2,1.6-8.7,6.5-5.1,11.7
		c3.6,5.2,8.1,10.3,13.2,13.8c6.4,4.4,13.1,8.9,21.4,9.5c0.6,0,1.1,0.9,1.6,1.3c-0.5,0.5-0.9,1.5-1.5,1.5c-1.5,0.1-3.3,0.3-4.7-0.3
		c-11.4-4.7-22.6-9.7-30.2-20c-1.2-1.7-2.5-3.5-3.3-5.4c-3-6.7-0.1-12.8,6.8-15c10.5-3.3,23.9,1.4,30.3,10.4
		c3.8,5.4,4.3,11.2,2.5,17.3c-0.3,1.1-1.3,1.9-1.9,2.9C953,683.1,952.6,682.9,952.2,682.8z"/>
	<path d="M1433.4,638.9c11.6-1.6,22.1-3.1,33-4.6c-0.6-1.4-1.4-3.2-1.9-5c-1.5-4.9-2.9-9.8-4.2-14.8c-0.2-0.8,0.4-1.8,0.6-2.8
		c0.8,0.7,2,1.2,2.3,2.1c2.2,6.2,4.2,12.4,6.2,18.7c1.1,3.6-0.1,5.1-3.7,5.6c-8.7,1.1-17.4,2.3-26.2,3.4c-3,0.4-6,0.6-9,0.5
		c-2.2,0-3.3-1.3-1.6-3.3c4.6-5.6,9.2-11.1,13.9-16.6c3.6-4.2,7.3-8.3,11-12.4c0.8-0.9,1.7-1.8,2.8-2.2c1.3-0.4,2.8-0.2,4.2-0.2
		c-0.8,0.9-1.4,1.8-2.3,2.6c-2.3,2.3-4.9,4.4-7.1,6.9C1445.5,624,1439.7,631.1,1433.4,638.9z"/>
	<path d="M239.8,162.5c0.1-4.5,3.1-7.9,7.1-7.9c5.3-0.1,10.4,4.8,10.3,9.8c-0.1,4.5-4.2,8.2-9,8.1
		C243.5,172.4,239.8,168,239.8,162.5z"/>
	<path d="M1197.9,280.8c5.4-0.3,10.8-0.7,16.2-0.8c5.1-0.1,9.1-2.2,12.8-5.5c0.7-0.7,2.2-0.5,3.3-0.8c-0.4,1-0.6,2.2-1.3,3
		c-6,6.5-14,6.7-22,6.9c-7.5,0.2-15,0.1-22.5,0.3c-1.7,0-3.3,0.8-5,0.9c-0.9,0.1-1.8-0.5-2.7-0.8c0.6-0.7,1.2-1.9,2-2
		c3.2-0.7,6.5-1.3,9.7-1.5c3.1-0.2,6.3-0.1,9.5-0.1C1197.9,280.6,1197.9,280.7,1197.9,280.8z"/>
	<path d="M1180.2,252.6c0.1,3.7-3.3,6.9-7.2,6.9c-3.9,0-6.9-3.3-7-7.5c-0.1-4,2.6-7,6.4-7.1C1175.7,244.8,1180.1,249.2,1180.2,252.6
		z"/>
	<path d="M1212,252.2c-0.1-4.1,1.5-5.9,5.1-5.9c5.6,0,8.4,1.7,8.4,5c0,4-5,9.7-8.6,9.6C1214.1,260.9,1212.1,257.4,1212,252.2z"/>
	<path d="M1427.7,676.6c-0.7,0.2-1.6,0.8-2.1,0.5c-6.1-2.7-12-1.1-17.6,1c-7,2.7-13.7,6.1-20.6,9c-1.1,0.5-2.5,0.2-3.8,0.3
		c0.8-1,1.4-2.5,2.5-2.9c9.6-3.9,19.2-7.8,29-11.3c2.6-0.9,5.8-0.6,8.6-0.3c1.5,0.2,3,1.6,4.4,2.4
		C1427.8,675.8,1427.7,676.2,1427.7,676.6z"/>
	<path d="M250.7,147.6c1.9-5.1,3.7-10.2,5.9-15.2c0.5-1.1,2.1-1.6,3.2-2.3c0.8,1.1,2.3,2.4,2.1,3.3c-1.1,6.3-2.5,12.5-4.2,18.6
		c-0.2,0.9-2.6,1.7-3.9,1.6c-0.8-0.1-1.4-2-1.9-3.3c-0.3-0.7,0-1.6,0-2.3C251.4,147.9,251.1,147.8,250.7,147.6z M259.3,136.2
		c-0.6-0.2-1.2-0.4-1.7-0.5c-1,4.3-2,8.6-3.1,12.9c0.5,0.1,1.1,0.3,1.6,0.4C257.2,144.7,258.2,140.5,259.3,136.2z"/>
	<path d="M239.9,152.8c-0.5,3.5-3.3,4-6.1,4.2c-4.9,0.4-11.3-3.3-13.3-7.8c-0.5-1.1-0.7-2.8-0.2-3.6c0.5-0.8,2.4-1.4,3.4-1.1
		c6.1,1.9,12.2,4,18.3,6.2c0.5,0.2,0.7,1.4,1,2.1C242,152.8,241,152.8,239.9,152.8c-5.2-1.8-10.5-3.6-16.6-5.7
		c2.3,4.5,5.3,6.3,8.9,6.6C234.7,153.9,237.3,153.1,239.9,152.8z"/>
	<path d="M1219.7,238.7c-1.8-0.9-2.8-1.4-3.8-2c0.6-0.9,1-2.1,1.8-2.7c5.6-3.6,11.3-7.2,17.1-10.6c0.9-0.5,2.3-0.1,3.5-0.1
		c-0.5,1-0.9,1.9-1.4,2.9c-0.5,1-1.1,2.1-1.6,3.1c-0.2,0.5-0.3,1.2-0.6,1.4C1229.6,233.5,1224.6,236.1,1219.7,238.7z"/>
	<path d="M1181.4,236.6c-1,0.2-2.1,0.7-2.9,0.5c-1.7-0.6-3.4-1.5-4.9-2.4c-4-2.5-8-5.1-11.9-7.8c-0.7-0.5-0.7-1.9-1-3
		c1-0.1,2.2-0.7,2.9-0.3c4.7,2.8,9.2,5.8,13.7,8.8c1.4,1,2.8,2,4.2,3.1C1181.5,235.9,1181.5,236.3,1181.4,236.6z"/>
	<path d="M1186.7,268.7c1.8-2.7,3.1-5.1,4.8-7.1c0.5-0.6,2.3,0,3.5,0c-0.5,0.8-0.8,1.9-1.5,2.5c-3.1,2.4-3.3,4.5-0.8,7.4
		c0.5,0.6,0.6,1.5,0.8,2.3c-0.8,0.1-2.1,0.6-2.5,0.2C1189.6,272.4,1188.3,270.7,1186.7,268.7z"/>
	<path d="M410.1,104c0.9-0.9,1.6-2.1,2.7-2.6c2.7-1.3,5.6-2.3,8.5-3.3c0.6-0.2,1.5,0.2,2,0.7c0.2,0.2,0,1.5-0.4,1.6
		c-4,1.7-8,3.3-12,5C410.6,104.9,410.4,104.4,410.1,104z"/>
	<path d="M471.3,111c3.7-1.9,7-3.6,10.4-5.2c0.5-0.2,1.6-0.2,1.8,0.1c0.4,0.6,0.5,1.5,0.3,2.1c-0.8,2.3-8.9,5.7-11.1,4.6
		C472,112.2,471.6,111.2,471.3,111z"/>
	<path d="M320.7,153.9c-1.9,3.1-8.1,4-10,2.5c-0.4-0.3-0.8-0.9-0.7-1.2c0.2-0.5,0.8-1.2,1.2-1.2
		C314.4,153.9,317.6,153.9,320.7,153.9z"/>
	<path d="M402.3,74.1c2.6,0.8,4.9,1.5,7,2.4c0.6,0.3,0.9,1.3,1.4,2c-0.8,0.3-1.6,0.9-2.3,0.8c-2.3-0.5-4.5-1.2-6.7-2.1
		c-0.6-0.2-0.9-1.2-1.4-1.9C401,74.8,401.8,74.4,402.3,74.1z"/>
	<path d="M422.1,85c0.6,0.3,1.2,0.5,1.3,0.9c1,2.8,1.9,5.7,2.6,8.5c0,0.1-1.4,0.6-2.1,1c-1-3-2-6.1-2.9-9.2
		C421,85.9,421.7,85.4,422.1,85z"/>
	<path d="M285.7,155.4c2.2-2.6,8.8-3.6,10.2-2.2c0.3,0.4,0,2.1-0.1,2.1C292.7,155.4,289.6,155.4,285.7,155.4z"/>
	<path d="M381.6,89.3c-0.4-0.6-1.2-1.4-1-1.8c1-2.4,2.2-4.7,3.4-7c0.2-0.4,1.2-0.5,1.8-0.4c0.3,0,0.8,0.9,0.7,1.2
		c-1.1,2.5-2.4,4.9-3.6,7.4C382.7,89,382.2,89,381.6,89.3z"/>
	<path d="M386.5,138.2c-1.7-0.1-2.4,0.1-3-0.2c-1.4-0.8-2.7-1.9-4.1-2.9c1.4-0.1,2.7-0.2,4.1-0.3c0.7,0,1.4-0.1,1.9,0.1
		c1.3,0.5,2.5,1.2,3.7,1.9C388.1,137.4,386.9,138,386.5,138.2z"/>
	<path d="M419.7,124.5c-2,1.9-4,3.8-6,5.7c-0.4-0.7-1.3-1.8-1.1-2.1c1.3-1.8,2.7-3.5,4.4-5c0.4-0.4,1.6,0.1,2.4,0.1
		C419.4,123.7,419.6,124.1,419.7,124.5z"/>
	<path d="M329.1,136c-3-2.5-3.4-7-1.2-9c0.4-0.3,1.1-0.7,1.3-0.5c0.5,0.3,1.1,1,1,1.4C330,130.4,329.5,132.9,329.1,136z"/>
	<path d="M380.5,97.8c0.9,2,1.8,3.5,2.3,5.1c0.3,0.8,0,1.8-0.1,2.8c-0.7-0.2-1.8-0.2-2-0.6c-0.7-1.8-1.3-3.6-1.7-5.5
		C378.9,99.2,379.5,98.8,380.5,97.8z"/>
	<path d="M373.1,127.7c-1,0.8-1.9,1.7-2,1.6c-1.6-1.4-3.2-2.9-4.6-4.5c-0.1-0.1,0.7-1.1,1-1.7C369.3,124.5,371,126,373.1,127.7z"/>
	<path d="M269.8,162.9c-1.2-0.6-1.4-0.7-1.4-0.7c0.4-2.1,0.9-4.2,1.4-6.2c0.7,0.2,1.4,0.3,2.1,0.5
		C271.2,158.5,270.5,160.7,269.8,162.9z"/>
	<path d="M405.3,108c-2.6,1.2-4.3,2.3-6.2,2.9c-0.5,0.2-1.4-0.9-2.2-1.4c1.9-1,3.7-2.1,5.6-2.9C403,106.3,403.7,107.1,405.3,108z"/>
	<path d="M341.3,117.8c-1.2,1.1-2.4,2.3-3.7,3.1c-0.8,0.5-2,0.4-3,0.6c0.3-0.9,0.3-2.2,0.9-2.7c1.5-1.1,3.2-1.8,4.9-2.7
		C340.7,116.7,341,117.3,341.3,117.8z"/>
	<path d="M360.2,116.7c-2.9,1.6-5,0.6-6.9-3.1C355.8,112.6,357.9,113.6,360.2,116.7z"/>
	<path d="M466.1,107c-1.7,1-2.7,1.9-3,1.8c-1.5-0.8-2.9-1.9-4.3-3c0.5-0.5,1.1-1.5,1.3-1.4C461.9,105,463.5,105.8,466.1,107z"/>
	<path d="M429,97.5c0.1-0.4,0.2-0.6,0.2-0.6c2.1,0.1,4.2,0.1,6.4,0.2c0,0.6,0.1,1.6-0.1,1.7C433,99.5,430.8,99.5,429,97.5z"/>
	<path d="M326.8,144.7c-1.2,1.5-2.2,2.8-3.3,4c-0.5-0.5-1.6-1.2-1.5-1.3c0.8-1.5,1.9-2.9,2.8-4.4C325.4,143.5,326,143.9,326.8,144.7
		z"/>
	<path d="M404.3,134.7c-2.2,1-3.7,1.8-5.4,2.4c-0.2,0.1-0.8-1-1.2-1.6c1.4-0.9,2.7-1.9,4.2-2.6C402.3,132.8,403,133.7,404.3,134.7z"
		/>
	<path d="M422.9,106.6c0.6,1.5,1.1,2.2,1,2.8c-0.1,1.6-0.4,3.2-0.6,4.8c-0.5-0.1-1.4-0.1-1.4-0.2c-0.3-1.7-0.6-3.5-0.7-5.2
		C421.3,108.3,422,107.8,422.9,106.6z"/>
	<path d="M407.4,283.5c3.2,1.8,5.5,3.2,8.5,4.9c0.5-5,1.4-8.6-2.3-11.4c-0.5-0.4-0.5-1.5-0.7-2.3c0.8,0,2.1-0.4,2.5,0
		c1.4,1.6,2.8,3.3,3.8,5.2c0.5,0.9,0.4,2.4,0.1,3.5c-0.4,2.2-0.9,6-1.8,6.2c-2.9,0.4-6.2,0-9-1.2C406.1,287.4,405.8,285,407.4,283.5
		z"/>
	<path d="M392.5,316.3c1.8,0,4.2-0.7,5.4,0.1c3.5,2.4,6.2,1.2,9-0.9c0.7-0.5,1.5-1.2,2.3-1.5c0.6-0.2,1.4,0.1,2.1,0.1
		c-0.1,0.7,0.1,1.6-0.3,2.1c-2.7,3.9-9.2,5.3-13.7,3.3c-1.6-0.7-3.3-1.1-5-1.6C392.4,317.4,392.4,316.9,392.5,316.3z"/>
</g>
<circle cx="412.6" cy="280.8" r="1.5"/>
</svg>
