<?xml version="1.0" encoding="utf-8"?>
<!-- Generator: Adobe Illustrator 22.0.1, SVG Export Plug-In . SVG Version: 6.00 Build 0)  -->
<svg version="1.0" id="Ebene_1" xmlns="http://www.w3.org/2000/svg" xmlns:xlink="http://www.w3.org/1999/xlink" x="0px" y="0px"
	 viewBox="0 0 1547.9 1049.4" enable-background="new 0 0 1547.9 1049.4" xml:space="preserve">
<g>
	<g>
		<g>
			<path d="M1217.9,659.7c1.9,0,1.9-3,0-3C1216,656.7,1216,659.7,1217.9,659.7L1217.9,659.7z"/>
		</g>
	</g>
	<g>
		<path d="M813.5,688.3c-1.7,0.9-3.5,1.8-5.2,2.7c4.8,4.7,5.1,10.9,5.5,16.9c0.4,6.1,0.2,12.3,0.1,18.4c0,0.9-0.7,1.7-1.1,2.6
			c-0.7-0.8-1.8-1.6-1.9-2.5c-0.2-5.2,0.2-10.4-0.2-15.6c-0.3-4.5-1.2-8.9-2.2-13.3c-0.8-3.5-3.4-4.4-6.5-3
			c-2.3,1.1-4.7,1.9-6.9,3.1c-1,0.6-1.7,1.7-2.5,2.6c0.9,0.6,1.8,1.6,2.9,1.8c4.2,1,8.9,6,9.2,10.4c0.5,6.8,0.8,13.6,0.9,20.4
			c0.1,4.9-1.1,6.5-6,6.3c-7.5-0.3-15.2-0.7-22.5-2.2c-5.8-1.1-11.2-3.9-16.8-5.9c-2-0.7-4.2-1.2-6-1.7c0,10.6-0.7,20.7,0.2,30.7
			c0.8,9.8,3.2,19.4,4.4,29.7c-0.9-0.9-2.3-1.6-2.5-2.6c-1.8-8.9-4.1-17.8-5-26.9c-1.1-10.7-0.9-21.5-1.4-32.7
			c-2.7-0.1-5.5-0.4-8.2-0.4c-11,0.1-22.1,0.3-33.1,0.3c-1.2,0-2.5-1.2-3.7-1.9c1.3-0.6,2.7-1.8,3.9-1.6c7.5,1.2,14.4-2.1,21.6-3.1
			c6.2-0.8,12.4-2,19-3.1c0-2.1,1-5.6-0.2-8c-1.8-3.4-5-6.2-7.9-9c-2.8-2.7-6.1-5-9-7.7c-0.9-0.8-1.5-2.3-1.5-3.6
			c-0.1-1.2,0.8-2.4,1.2-3.6c0.7,1,1.2,2,2,2.9c2.3,2.8,4.6,5.7,7.2,8.1c2.3,2.1,5.1,3.7,8.1,5.8c0-5,1-10.2-0.2-14.9
			c-2.4-8.8-1-17.5-0.5-26.2c0.5-10.6,1.4-21.3,1.5-31.9c0.1-13.2-0.6-26.3-0.4-39.5c0.1-5.8,1.4-11.6,2.2-17.3
			c0.3-2.2,1.3-4.4,1.5-6.6c0.8-7.3-1.2-9.7-8.4-11.1c-12.5-2.3-25-1.5-37.3,1c-9.2,1.8-16.7,6.7-21.7,15
			c-5.9,9.9-10.7,20.2-12.9,31.7c-1.2,5.9-3.1,11.7-5.4,17.5c-4.9-8.7-7-18-7.4-27.7c-0.3,0-0.7-0.1-1-0.1
			c-1.3,5.7-2.6,11.5-3.8,17.2c-0.2,0.8-0.1,1.7-0.4,2.3c-0.4,0.8-1.2,1.4-1.9,2.1c-0.4-0.9-1.3-1.8-1.1-2.6c0.5-3.6,0.9-7.2,2-10.6
			c3.1-9.4,6.4-18.6,9.8-27.9c0.4-1.1,1.9-1.8,2.9-2.7c0.1,1.4,0.8,3,0.3,4.2c-4.3,11.3-4.6,22.6-1.1,34.1c0.3,1,0.8,1.9,1.6,3.8
			c1-4.2,2-7.3,2.6-10.6c2.3-12.4,7.4-23.6,14.4-34c7.1-10.8,18.1-14.7,30.4-16.1c12.5-1.4,25-1.5,37.7,1.9c0-1.9-0.1-3.4,0-4.8
			c0.3-2.8-1.1-3.7-3.6-4.2c-10.3-2-20.4-0.6-30.5,1.9c-0.3,0.1-0.5,0.2-0.8,0.2c-1.4-0.2-2.8-0.3-4.2-0.5c1.2-0.8,2.2-2.1,3.6-2.5
			c11.4-3,23-4.8,35.2-1.5c0.3-4.6,0.8-8.7,0.9-12.9c0.2-9.3,0.2-18.6,0.1-27.9c0-1.3-0.4-2.9-1.2-3.9c-6.7-7.7-15.6-11.6-25.4-13.2
			c-2.3-0.4-4.8,0.9-7.3,1.4c0,0.4,0,0.8,0.1,1.2c2.6,0,5.3-0.2,7.9,0.1c0.9,0.1,1.7,1.1,2.6,1.8c-0.9,0.5-1.7,1.2-2.6,1.3
			c-5.4,0.6-10.9,1-16.3,1.4c-1,0.1-2.1-0.8-3.1-1.2c0.6-0.9,1-2.2,1.8-2.7c2.5-1.5,5.2-2.8,7.8-4.1c1.1-0.6,2.1-1.2,2.9-2.6
			c-4.5,0-9.2-0.7-13.5,0.2c-7.4,1.4-14.7,3.7-22,5.7c-1.4,0.4-2.8,1.1-3.9,2c-13.7,11.6-30.3,20.7-34,40c0.2,1.3,1,3.1,0.5,3.8
			c-13.2,16-17.2,35.3-19.6,55.2c-0.4,3.4-0.7,6.9-0.3,10.7c1.4-1.7,2.8-3.5,4.3-5.2c1.7-2,3.5-2.5,5.3-0.1c0.5,0.7,0.6,1.6,0.9,2.5
			c-0.8,0.1-1.7,0.2-2.4,0.4c-1.1,0.4-2.5,0.7-3.1,1.6c-2.3,3.2-4.4,6.7-6.6,10c-0.5,0.7-1.6,1.1-2.4,1.6c-0.4-0.9-1.2-1.8-1.1-2.7
			c1.7-12.4,3.1-24.9,5.3-37.2c2.1-11.6,6.3-22.6,12.6-32.7c0.6-0.9,1-1.9,1.4-2.9c2.3-7,4.6-14,7.1-21.5c-2.4-1.4-0.5-3.5,1.3-5.3
			c17.7-18.2,38.9-29,64.7-29.8c5.4-0.2,10.9,0.2,16.3,0.5c3.3,0.2,4.9,1.5,2.2,4.9c8.8,2.3,15.4,7.3,21.9,13.1
			c2.6,2.3,7.4,2.4,11.2,3.3c8.8,2.1,17.6,4.2,26.4,6.2c1.2,0.3,2.3,0.8,3.5,0.7c13.9-0.2,22.6,7.9,29.2,18.6
			c11.2,18.1,17.4,37.9,18.3,59.3c0.4,9,1.1,17.9,1.5,26.9c0.1,3.1-0.5,6.3-0.8,9.2c0.6,0.5,0.8,0.7,1,0.8c6.8,1,7.2,1.4,7.2,8.3
			c0,6.3,0.1,12.5-0.1,18.8c-0.1,3.4-1,6.8-1.5,10.2c-0.2,1.4-0.8,2.9-0.8,4.3c0,13.4-3.2,26.1-8.2,38.4
			c-4.7,11.6-9.1,23.5-15.4,34.2c-6.2,10.6-14.6,19.9-22.1,29.8c-3.6,4.7-7,9.5-10.9,13.8c-4.5,5-9.4,9.8-14.6,14
			c-1.9,1.6-5.3,1.5-8,1.8c-4.2,0.4-8.5,0.3-12.8,0.8c-1.1,0.1-2.7,1.5-3,2.7c-0.7,2-0.9,4.2-0.7,6.3c1.2,14.3,2.5,28.6,3.8,42.9
			c0,0.4,0.3,0.7,0.6,1.4c3.6-0.8,7.1-1.8,10.8-2.5c13.3-2.6,24.8-8.8,35.1-17.2c2.2-1.8,3.7-5.6,4-8.6c1.1-8.8,1.8-17.8,1.9-26.7
			c0.1-9.3-0.8-18.6-1.3-27.9c-0.1-1.3-0.2-2.7,0.1-4c0.2-1,0.9-1.8,1.4-2.7c0.4,0.1,0.8,0.2,1.1,0.2c0.2,1.3,0.5,2.7,0.6,4
			c0.4,9,1.1,18.1,0.9,27.1c-0.2,10.9-1,21.8-1.9,32.7c-0.3,4-2.3,7.5-6.2,9.7c-5.3,3-10.1,7.1-15.6,9.6c-6.9,3-14.3,4.9-21.5,7.2
			c-2,0.6-4.1,1.1-7.2,1.9c2.4,1.5,4,2.7,5.8,3.6c5.9,3.1,11.8,6.2,17.6,9.2c1.2,0.6,2.3,1.3,3.5,1.9c5.9,2.7,5.6,2.3,10.4-2.1
			c11.2-10.3,20.6-22.2,30.2-34c3.6-4.4,8.1-8,12.2-12.1c6.2-6.1,5.7-9.2-2.5-12c-5-1.7-10.3-2.8-15.4-4.3c-2.5-0.7-5.1-1.6-7.5-2.6
			c-0.5-0.2-0.6-1.3-0.9-1.9c0.7-0.2,1.5-0.8,2-0.6c8.6,2.5,17.2,4.7,25.6,7.7c6.3,2.3,6.9,5.8,4.9,12c-2.5,7.9-4.2,16.1-6.3,24.1
			c0.4,0.2,0.8,0.4,1.2,0.5c3.1-3.5,6.3-7,9.5-10.5c2.6-2.8,7.3-3.8,10.2-1.6c0.7,0.6,0.9,3.1,0.3,4c-2.1,3.4-4.7,6.4-7.2,9.6
			c-0.9,1.1-1.9,2.2-2.4,4c2.3-1.5,4.6-3,6.9-4.4c1.9-1.2,3.8-2.5,5.9-3.4c0.9-0.4,2.2,0,3.3,0c-0.1,1.1,0.1,2.5-0.5,3.3
			c-2.6,3.4-5.4,6.6-8.1,9.9c-2.5,2.9-5.1,5.8-7.2,9.3c2-1.5,3.9-3.2,5.9-4.5c3.5-2.4,7.1-4.7,10.9-6.7c0.9-0.5,2.3,0.1,3.5,0.1
			c-0.3,1.1-0.3,2.4-0.9,3.2c-5.4,6.4-10.9,12.8-16.4,19.2c-0.4,0.5-0.8,1-0.7,2.1c1.2-1.1,2.3-2.2,3.6-3.2
			c5.2-4.2,10.3-8.4,15.6-12.4c0.9-0.7,2.4-0.4,3.6-0.6c-0.2,1.2,0,2.7-0.7,3.5c-5,6.4-10.1,12.7-15.2,19.1
			c-1.4,1.8-2.8,3.6-3.8,5.8c1.2-1.1,2.4-2.3,3.7-3.2c0.6-0.4,1.9-0.7,2.1-0.4c0.5,0.6,0.9,1.7,0.6,2.4c-0.4,1.2-1.2,2.3-2,3.5
			c-6.2,9.4-12.5,18.8-18.8,28.3c2.6-2.3,5.2-4.6,7.8-6.8c1-0.8,2.4-1.2,3.7-1.7c0,1.4,0.5,3.2-0.1,4.3c-3.8,6.7-7.8,13.3-11.8,19.9
			c1.2,0.4,2.9,0.5,3.4,1.3c0.5,0.9,0,2.6-0.5,3.7c-2.1,4.3-4.4,8.5-6.5,12.8c-0.4,0.9,0,2.2,0,3.3c0,1.4,0.4,3-0.2,4.1
			c-3.8,7.6-7.8,15.2-11.9,22.7c-0.5,0.9-1.9,1.3-2.9,2c0.1-1.2-0.1-2.5,0.4-3.6c0.9-1.9,2.1-3.7,3.2-5.6c-1.8,0-3.4,0-6.1,0
			c-0.8,10.3-1.6,21.1-2.4,31.9c0.2,0.1,0.4,0.2,0.7,0.2c1.6-3.7,3.1-7.4,4.8-11.1c9.2-20.4,18.5-40.8,27.5-61.2
			c5-11.3,9.4-22.9,14.2-34.3c5.5-13,11.1-26,16.6-38.9c2.5-5.9,0.9-11.1-3.3-15.4c-5.5-5.6-11.1-11.1-17.1-16.1
			c-2.8-2.3-6.5-3.4-9.9-5c-1.7-0.8-3.5-1.3-5-2.3c-0.7-0.4-0.8-1.7-1.2-2.6c0.9,0,2-0.3,2.8,0.1c6.8,3,13.5,6.2,20.3,9.3
			c1.3,0.6,2.7,1,5.3,1.9c0.6-8.4,2.4-16.3,1.4-23.8c-2.6-18.2-6.4-36.2-9.9-54.2c-0.9-4.4-2.5-8.7-3.5-13.1
			c-0.3-1.4,0.2-2.9,0.3-4.4c1.5,0.5,3.7,0.6,4.5,1.7c3.8,4.6,8.9,6.7,14.5,7.6c7.1,1.2,14.2,2.6,21.3,2.8c4.4,0.1,9.3-1.3,13.3-3.4
			c15.3-8.1,25.7-20.9,33-36.4c3.2-6.8,3.4-14,2.6-21.2c-1.7-14.4-7.8-26.5-17.8-37.1c-4.7-4.9-7.9-11.3-11.4-17.2
			c-3.7-6.3-7.5-12.7-9.9-19.6c-2.8-8-4.6-16.4-6-24.8c-1.4-8,2.4-15.4,4.7-22.9c0.8-2.7,2.3-5.3,3.7-7.8c0.4-0.7,1.7-1,2.6-1.5
			c0.5,1,1.3,1.9,1.5,2.9c3.2,19.6,10.1,37.7,22.5,53.3c6.6,8.2,15.6,10.1,25.5,8.3c4-0.7,7.3-3,9.1-6.6c2.8-5.8,5.1-11.9,7.7-17.9
			c0.6-1.3,1.5-2.5,2.2-3.8c0.5,1.5,1.5,2.9,1.5,4.4c-0.2,10,1.7,19.3,7.7,27.5c4.9,6.7,11.9,9.1,19.6,10c3.2,0.4,6.4,0.3,9.6,0.5
			c10.2,0.5,16.1,6.9,19.2,15.6c3.1,8.9,5.2,18.1,7.5,27.3c3.3,13.2,10,24.6,17.5,35.7c2.7,4,6.9,6.6,12,7.4
			c3.5,0.5,6.2-0.6,8.2-3.6c6-9,8.3-19,5.9-29.4c-2.3-9.7-5.4-19.3-9.3-28.4c-6-13.7-8.9-27.9-10-42.6c-1.1-15-1.6-30.1,0.9-45.1
			c1.1-6.7,2.7-13.3,4-20c0.3-1.4,0.3-2.9,0.7-4.3c0.4-1.2,1.2-2.3,1.8-3.5c0.8,0.9,2,1.7,2.3,2.8c6.3,17.8,12.6,35.7,18.5,53.6
			c1.5,4.6,2.2,9.6,2.3,14.5c0.3,19.3,0,38.7,0.2,58c0,3.3,0.5,6.7,1.4,9.8c2.5,9.5,13.8,12.8,21.4,6.5c5.8-4.9,9.2-11.4,12-18.2
			c3.7-9.1,5.7-18.6,6.4-28.3c0.8-13.1,1.8-26.3,2.4-39.5c0.2-4.9-0.6-9.8-0.7-14.7c-0.1-2.2,0.4-4.5,0.7-7.1
			c1.3,0.5,1.9,0.5,2.2,0.8c2.1,2.3,4.2,4.7,6.1,7.1c9.9,12.8,23.5,14.2,38.2,12.5c15.2-1.7,33.1-17,36.3-31.8
			c2-9.3,2.3-18.8,0-28.1c-1.4-5.8-4.7-10.2-9.3-14c-14.3-11.8-27-25.1-34.4-42.5c-5.3-12.4-8.7-25.6-9.2-39.1
			c-0.5-13.4,0.4-26.9,0.7-40.4c0-2.2,0.2-4.4,0.3-6.6c0.4-0.1,0.8-0.1,1.2-0.2c0.5,0.6,1.3,1.2,1.5,2c2.8,10.6,7.9,19.9,14.9,28.4
			c3.3,4,5,9.3,8.6,12.9c5.9,5.9,12.6,10.9,19,16.3c5.9,5,11.8,10,13.6,18.2c0.8,3.7,6.4,5.2,9.1,2.4c2-2.1,3.9-5.1,4-7.8
			c0.4-14.6,0.1-29.2-3.5-43.6c-2.5-10.2-1-20.7,1.5-30.9c3.1-12.3,6.2-24.5,8.9-36.8c0.9-3.8,0.6-7.9,1-11.9c0.1-1,0.9-2,1.4-3
			c1,0.7,2.6,1.2,2.9,2.1c1,3,1.7,6.1,2.2,9.3c2.1,13,3.4,26.2,6.3,39c3.8,16.8,8.3,33.5,6.5,50.9c-1.6,14.9-4.1,29.8-6.8,44.6
			c-2.4,13.4-6.2,26.5-8.1,39.9c-1.7,12.2-1.6,24.4,0.9,36.9c2.4,11.8,6.4,22.8,11.4,33.5c2.4,5.1,6.3,8.9,11.7,10.7
			c4,1.3,7.3-1.6,6.4-5.8c-0.8-3.8-1.9-7.5-3.3-11.1c-7.7-19.6-8.5-40.1-7.6-60.7c0.3-6.6,3.2-13.4,6.1-19.6
			c3.1-6.6,7.5-12.6,11.4-18.7c4.2-6.4,6.7-13.2,6.5-21c-0.3-13.4,0.2-26.9-3.8-40c-0.2-0.8-0.4-1.6-0.3-2.4
			c0.2-1.2,0.7-2.3,1.1-3.4c0.8,0.9,2,1.6,2.5,2.6c3.5,6.9,6.7,13.9,12.7,19.2c3.9,3.5,8.2,5.7,13.3,6.8c26,5.7,46.8-15.3,44.3-37.7
			c-0.4-3.9-1.3-7.8-1.7-11.8c-0.1-1.4,0.2-3.8,1-4.1c1.3-0.5,3.6-0.2,4.5,0.8c2.2,2.3,3.8,5.1,5.7,7.7c3.9,5.4,8.4,10,15.8,8.4
			c3.3-0.7,6.8-2.3,9.4-4.4c4.4-3.6,9-6.1,14.5-7.1c6.7-1.3,11.6,1.3,14.5,7.6c0.7,1.4,1.3,3.2,2.4,4.1c6.7,5,8,12.3,9.1,19.7
			c0.8,5.9,1.2,11.9,1.5,17.8c0.2,3.7-1,4.3-4.3,2.8c-10.4-4.9-20.5-2.3-27.8,7.1c-9.4,12-11,25.5-8.4,40.1
			c3.7,21.5,26.3,40.4,48.5,41.3c8.7,0.3,16.6-2.2,22.5-8.4c4.6-4.7,8.9-10.1,11.8-15.9c6.2-12.7,10.5-26.1,11.3-40.5
			c0.9-14.3-0.6-28.3-4.6-41.9c-2.9-10.2-6.8-20.2-11.2-29.9c-2.2-4.7-6.3-8.8-10-12.6c-9.4-9.5-21.3-14.4-33.9-17.7
			c-8.4-2.2-14.4-7.4-18.2-15.1c-2.5-5-4.8-10.1-7.1-15.2c-0.4-0.8,0-1.9,0-2.9c0.9,0.2,1.9,0.4,2.8,0.6c2.2,0.5,4.7,2,6.7,1.5
			c8.9-2.1,18-3.6,25.4-10c8.8-7.7,13.3-17.1,13.6-28.8c0.2-5.9,1.4-11.8,2.1-17.7c1.5-12.3,0.5-24.5-1.5-36.6
			c-1.1-6.4-2.4-12.8-3.3-19.3c-0.2-1.2,0.7-2.5,1.1-3.8c0.8,0.9,2,1.7,2.4,2.7c3.1,8.2,5.5,16.8,9.1,24.7c6.3,14,14.3,27,25.6,37.9
			c8.3,8,15.3,16.9,20.3,27.5c5.5,11.7,12,22.9,14.7,35.7c0.8,3.4,2.8,6.6,4.1,9.9c0.4,1.1,0.2,2.5,0.3,3.8c-1-0.8-2.5-1.5-3-2.5
			c-1.9-4.1-3.8-8.3-5.1-12.6c-7.1-23.1-17.5-44.2-35.1-61.4c-12.7-12.4-21.4-27.4-27.2-44.2c-0.3-0.7-0.6-1.4-1.1-2.1
			c3.2,16.2,2.6,32.5,1.6,48.9c-0.6,10.1-2.6,19.6-7.1,28.7c-4.2,8.5-10.9,14.2-19.5,17.4c-6.9,2.5-14.3,4-21.9,6.1
			c4.1,8.6,7.4,18.5,18.4,22.6c2.5,0.9,5,1.9,7.6,2.5c13.3,2.9,23.7,10.6,33.6,19.3c2.4,2.2,4.7,4.9,6.2,7.8
			c12.9,25.9,20.1,52.9,16.9,82.2c-1.6,14.9-6.5,28.6-13.8,41.4c-6.3,11-15.5,19.1-28.8,20.6c-9.9,1.1-19.6-1.1-28.2-5.9
			c-9.4-5.3-17.9-12.3-23.3-22c-8.7-15.9-11-39.9,2.6-57.5c8.2-10.6,19.2-14.2,32.4-9.3c0-2,0.2-3.8,0-5.5c-1-6.7-1.4-13.6-3.6-19.9
			c-1.5-4.4-5.5-8-8.3-12c-0.9-1.3-1.2-3.3-2.4-4.3c-2-1.6-4.5-3.6-6.8-3.8c-6-0.5-11.2,1.9-15.5,6.1c-3.5,3.3-7.4,5.2-12.4,5.7
			c-8.4,0.7-13.5-3.7-17.9-9.8c-1.3-1.8-2.6-3.7-4.6-5.4c0.1,1.7,0.2,3.5,0.4,5.2c2.7,22.9-4.4,32.6-20.3,43.2
			c-10.4,6.9-35.8,7-47.2-9.7c-0.8-1.2-1.7-2.3-3-4c0.4,9.3,0.7,17.7,1.3,26c0.9,12.3-3.4,22.7-10.2,32.8c-5.1,7.5-8.9,16-12.6,24.4
			c-1.5,3.5-1.6,7.8-1.7,11.7c-0.4,21.2,2.2,42,10,61.9c1.1,2.8,1.4,6.4,0.8,9.3c-1.3,5.3-7.4,7.4-12.6,3.7c-4.3-3-8.5-7.1-11-11.7
			c-4-7.6-7.4-15.7-9.7-24c-6.1-21.5-4.6-43.1,0.2-64.7c4.5-20.4,8.3-41,11.4-61.6c2.4-16.3-0.7-32.3-4.3-48.3
			c-3.2-14.1-5.3-28.5-7.9-42.7c-0.1-0.8-0.3-1.6-1-2.4c-1.1,5-2.1,9.9-3.2,14.9c-2.4,10-5.1,19.9-7.3,29.9c-2,9.3-2,18.7,0.4,28.1
			c3.5,13.7,3.4,27.7,2.8,41.7c-0.3,7.1-6.6,11.6-13.2,10.3c-3-0.6-5.4-2.1-6-5.1c-1.6-7.8-7.2-12.5-12.9-17.2
			c-6.2-5.2-12.6-10.2-18.5-15.7c-2.4-2.2-3.9-5.4-5.7-8.1c-5.3-8-10.6-16.1-16-24.3c-0.2,2.1-0.6,4.4-0.7,6.7
			c-0.4,12-1.3,23.9,1.1,35.8c2.3,11.1,4.5,22.2,9.6,32.4c7.4,14.7,18.4,26.5,30.9,36.7c8.6,7,12.6,15.5,12.5,26.3
			c0,1.5-0.1,2.9,0,4.4c2.2,21.6-10.3,34.8-26.2,46c-5.6,4-12.5,3.7-18.9,4c-5,0.2-10.1-0.4-15.1-1c-6.5-0.7-11.8-3.9-16.3-8.5
			c-2.2-2.2-4.5-4.3-6.8-6.5c-0.3,0.1-0.6,0.3-1,0.4c0,11.4,0.7,22.8-0.2,34.2c-1.2,16.4-1.7,33.1-8.6,48.5
			c-2.6,5.8-6.1,11.2-9.8,16.3c-5.4,7.4-13.5,7.7-21,5.1c-6.5-2.2-8.3-8.9-9.2-15.3c-0.2-1.6-0.2-3.2-0.2-4.8
			c0-15.5-0.3-30.9,0.1-46.4c0.3-12.6-1.2-24.7-5.7-36.4c-4.8-12.4-9.1-24.9-14.6-37.4c-1.4,8-3.2,16-4,24.1
			c-2.4,23-1.7,45.8,4.8,68.1c2.5,8.4,6.2,16.4,9.3,24.6c3.3,8.6,6.1,17.4,5.5,26.8c-0.5,7.2-2.6,13.8-6.1,20.1
			c-4.9,8.7-12.6,7.7-19.2,4.1c-7-3.9-10.5-10.7-14.3-17.3c-7.1-12.1-11.4-25.1-13.6-39c-0.9-5.4-3.1-10.8-5.5-15.8
			c-3.7-7.9-10.2-11.8-19.2-11.8c-5,0-10-0.9-14.9-2.2c-10.5-2.8-15.5-11-18.9-20.5c-0.9-2.6-1.5-5.4-2.4-8.7
			c-1.9,3.3-3.5,6.1-5.1,9c-3,5.2-7.4,8.4-13.4,9.1c-10.5,1.1-19.9-1.1-26.9-9.7c-7.7-9.5-13.3-20.2-17-31.9c-2-6.3-4.6-12.4-7-18.9
			c-2.6,9.4-7.5,18.4-4.6,29c1.6,5.6,1.8,11.8,4.1,17c7,15.8,14.3,31.6,26.6,44.2c12.5,12.8,20.1,44.7,6.2,64.4
			c-8.1,11.4-17,21.5-29,28.6c-7.5,4.5-15.5,5.2-23.9,3.6c-4.7-0.9-9.5-1.3-14.1-2.6c-5-1.4-9.7-3.7-14.5-5.5c0-0.7-0.1-0.2,0,0.2
			c3.9,18.9,7.8,37.8,11.7,56.7c1.9,9.4,1.8,18.8-0.3,28.2c-0.6,2.8,0.3,4,3.1,5.6c15.6,8.5,33.5,10.6,49.6,17.5
			c2,0.9,3.6,2.5,5.4,3.8c1.6,1.2,3.3,2.2,4.7,3.6c3.7,3.4,7.4,6.8,10.9,10.3c10.3,10.6,11.8,24.6,15.2,38
			c6,23.5,12.7,46.8,18.9,70.2c2.5,9.4,4.4,18.9,6.5,28.4c0.2,0.8-0.4,1.8-0.6,2.8c-0.8-0.7-2.1-1.3-2.3-2.1
			c-1.5-5.8-2.7-11.7-4.2-17.5c-3.4-13.1-7.1-26.2-10.5-39.4c-4.9-19.2-9.9-38.4-14.5-57.7c-2.5-10.7-9.2-18.7-16-26.8
			c-1.5-1.8-3.8-2.8-6.7-4.9c0,5.6,0,10.2,0,14.8c-0.6,0.1-1.2,0.2-1.8,0.3c-0.6-1.8-1.5-3.5-1.6-5.3c-0.2-2.9,0.3-5.9,0.1-8.8
			c-0.2-3.3-1.4-6-5.2-7.1c-11.9-3.5-23.7-7.2-35.4-11c-3.1-1-6-2.9-9-4.2c-3.4-1.4-6.9-2.7-10.3-4c-0.2,0.3-0.3,0.6-0.5,0.8
			c4.5,5.2,9,10.4,13.6,15.7c1.8-2.1,3.8-4.4,5.7-6.8c0.4,0.2,0.8,0.3,1.1,0.5c-0.1,1.4-0.2,2.8-0.3,4.3c1.1,0.1,2.8-0.3,3.8,0.3
			c0.9,0.6,1,2.3,1.6,3.8c1.3-0.6,2.8-1.6,4.6-2c1.1-0.3,2.4,0.2,3.6,0.4c-0.3,1.1-0.4,2.4-1.1,3.2c-2.9,3.3-5.9,6.4-8.5,9.9
			c4.3-2.7,8.7-5.5,13-8.2c1.1-0.7,2.4-1.3,3.6-1.5c2.6-0.4,3.8,0.8,2.4,3.2c-1.3,2.2-2.9,4.1-4.6,6c-9.2,9.7-18.4,19.3-27.6,28.9
			c-2.1,2.2-4,4.6-5.5,7.6c1.2-1,2.4-2.1,3.7-3.1c10.8-9.1,21.6-18.2,32.5-27.1c1.9-1.6,4.3-2.7,6.6-3.8c0.5-0.3,1.5,0.1,2.1,0.4
			c0.2,0.1,0.3,1.1,0,1.4c-2,2.8-3.9,5.6-6,8.2c-18.1,21.3-36.3,42.6-54.4,63.9c-0.5,0.6-0.9,1.2-0.8,2.5c1.2-1.2,2.5-2.4,3.7-3.6
			c14.4-14.2,28.8-28.5,43.4-42.5c2.8-2.7,6.4-4.8,9.8-6.9c0.8-0.5,2.2-0.1,3.3-0.1c-0.4,1-0.5,2.3-1.2,3c-5,5.4-10,10.7-15.2,15.9
			c-1,1-2.5,1.6-3.7,2.4c0.2-1.5,0.3-3,0.5-4.6c-1.2,1.1-2.8,2.3-4.1,3.8c-9.4,9.6-18.7,19.4-28.1,29c-4.9,4.9-10,9.6-15.2,14.2
			c-0.8,0.7-2.6,0.5-3.9,0.7c0.1-1.3-0.2-3,0.5-4c6-7.8,11.9-15.7,18.3-23.2c13.4-15.9,27-31.6,40.5-47.4c1-1.2,2.1-2.4,2.7-4.2
			c-2.1,1.6-4.4,3-6.3,4.7c-10.5,9.1-20.8,18.3-31.3,27.4c-1.8,1.6-3.6,3.3-5.7,4.4c-1.5,0.8-3.6,0.7-6.5,1.3
			c-0.6,1.4-1.7,4.1-2.9,6.8c-7.5,17-15.2,34-22.6,51.1c-6.3,14.7-12.4,29.5-18.3,44.3c-1,2.5-1,5.5-1.8,8.2c-0.3,1.1-1.3,1.9-2,2.9
			c-0.5-1.1-1.5-2.2-1.4-3.3c0.5-8.8,2-17.6,1.6-26.3c-0.6-15.4,5.4-29.8,5.9-45.1c0.8-24.9,6.6-49.1,10.2-73.6
			c2.6-17.6,4.7-35.3,7.2-53.8c-3.5,3.5-7.1,6.4-9.9,10c-9.6,12.1-19.2,24.2-30.8,34.6c-0.7,0.6-1.4,1.3-1.9,2.1
			c-1.6,2.9-3.8,3.4-6.7,2.1c-2.3-1-4.7-1.8-7.4-2.8c3.7,20.8-9,34.1-20.6,47.3c0.8,2.2,1.2,3.9,2,5.6c2,4.6,4,9.3,6.2,13.8
			c3.1,6.3,6.6,12.4,9.7,18.7c6.1,12.5,9,25.9,8.6,39.8c-0.2,8.2-2.1,16.4-3.2,24.5c-1.1,7.6-2.2,15.3-3.4,22.9
			c-0.2,1.1-0.6,2.2-1,3.4c-0.5,0-1-0.1-1.5-0.1c-0.1-1.8-0.5-3.7-0.3-5.5c1.4-10.1,2.9-20.3,4.4-30.4c1.3-8.8,2.6-17.5,1.4-26.6
			c-1.7-13.3-7.3-25.2-12.2-37.4c-0.6-1.6-1.8-2.9-3-4.7c-2.1,3.2-4,6-5.9,8.9c0.4,0.1,0.6,0.3,0.8,0.3c1.9-0.1,3.7-0.2,5.6-0.4
			c-0.5,1.9-0.7,4-1.5,5.8c-1.1,2.2-2.7,4.1-3.6,6.7c2.5-1.4,4.9-3,7.5-4.1c1-0.5,2.4,0,3.6,0.1c-0.2,1.1-0.1,2.4-0.6,3.3
			c-2.4,4.2-5,8.3-6.9,12.9c1.4-1.2,2.6-2.6,4.1-3.5c1.3-0.8,3-1.1,4.5-1.7c-0.3,1.5-0.2,3.3-1,4.6c-2.8,4.7-6,9.1-9,13.7
			c-0.6,0.9-1,2-1.5,3.1c0.4,0.4,0.8,0.7,1.2,1.1c2.6-3,5-6.1,7.8-8.8c1-1,2.9-1.1,4.4-1.6c-0.1,1.5,0.2,3.1-0.4,4.4
			c-3.5,7.6-7.2,15.1-10.9,22.6c0.3,0.2,0.5,0.4,0.8,0.5c1.6-1.9,3.3-3.9,4.9-5.8c1.1-1.3,2.1-2.8,3.4-3.9c1-0.8,2.4-1,3.7-1.4
			c0,1.2,0.5,2.6,0,3.7c-1.2,3.1-2.7,6.1-4.1,9.1c-0.7,1.5-1.4,3.1-2.1,4.6c0.4,0.1,0.5,0.2,0.6,0.1c1.8-0.9,3.5-1.9,5.2-2.8
			c-0.2,2.1,0,4.3-0.6,6.2c-0.9,2.9-2.4,5.6-3.5,8.5c-0.7,1.8-2.6,3.7,0.2,5.5c0.4,0.3,0.5,2.1,0,2.6c-2.1,2.2-4.3,4.3-6.6,6.3
			c-0.2,0.2-1.3-0.1-1.4-0.2c-0.2-1-0.5-2.1-0.2-3c1.5-4,3.2-7.9,4.8-11.9c0.4-0.9,0.8-1.9,0.5-3.2c-2,2.9-3.5,6.2-6,8.6
			c-4.6,4.6-4,9.8-3.1,15.4c0.2,1.2,0,2.4,0,3.7c-0.5,0.1-1,0.3-1.5,0.4c-0.6-1.5-1.6-2.9-1.7-4.4c-1.1-17.1-2-34.3-3.1-51.4
			c-0.7-10.2-1.8-20.4-2.3-30.7c-0.6-11.4-0.7-22.9-1-34.3c-0.1-3.1-0.4-6.3-0.6-10.3c-1.8,1.5-3.3,2.2-4,3.3
			c-5.8,9.3-11.8,18.4-13.2,29.7c-0.6,5.4-2.2,10.7-3.4,16c-0.2,0.9-0.9,1.6-2.1,2.1c1.7-18.5,4.9-36.5,17.9-51.5
			c-3.8-4.5-7.5-8.6-11.1-12.9c-4.3-5.2-8.6-10.5-12.7-16c-4.2-5.6-4-10.5,0.5-15.9c1.5-1.8,3-3.6,4.6-5.3c-0.2-0.3-0.4-0.6-0.5-0.9
			c-6.2,1.9-12.4,3.8-18.3,5.6c3.8,5.9-2.8,8.3-3.4,12.2c1.3,0.2,3.6,0,3.9,0.7c0.6,1.2,0.2,3.1-0.4,4.4c-2.5,5.1-5.3,10.1-8.4,15.8
			c4.6-3.8,8.6-7.1,12.6-10.3c0.7-0.6,1.4-1.4,2.2-1.7c1-0.4,2.2-0.3,3.3-0.5c-0.1,1.1,0.2,2.4-0.3,3.3c-3.4,5.3-6.8,10.5-10.4,15.6
			c-3.2,4.5-6.5,8.9-9.8,13.4c0.3,0.3,0.6,0.6,0.9,0.8c1.3-1.6,2.5-3.4,4-4.8c5.9-5,11.9-9.8,18-14.5c0.9-0.7,2.6-0.4,4-0.6
			c-0.2,1.4,0.1,3-0.6,4c-3.6,5.9-7.4,11.7-11.1,17.6c-0.7,1.2-1.4,2.4-1.7,3.9c3.5-3.7,7-7.5,10.7-11.1c1.6-1.6,3.4-3,5.3-4.2
			c0.6-0.4,2-0.4,2.5,0c0.5,0.4,0.7,1.8,0.4,2.5c-1.4,2.8-3,5.6-4.8,8.3c-3.5,5.3-7.2,10.5-10.5,16c3.1-2.9,6.1-5.9,9.2-8.8
			c0.9-0.8,1.8-1.7,2.8-2.2c1.1-0.5,2.4-0.5,3.6-0.7c0.1,1.2,0.6,2.7,0.1,3.6c-3,6.2-6.2,12.4-9.3,18.6c-1.7,3.3-3.4,6.6-4.6,10.2
			c0.5-0.5,1-1.1,1.6-1.3c0.9-0.4,1.9-0.5,2.8-0.8c0.2,1,0.7,2.2,0.4,3c-1.6,4.4-3.5,8.6-4.3,12.8c0.4,2.7,1.2,5.3,1.2,8
			c0.1,2.6-0.4,5.3-0.9,7.9c-0.1,0.8-0.8,1.5-1.2,2.2c-0.6-0.7-1.8-1.4-1.8-2.1c0.1-3.2,0.5-6.3,0.7-9.4c-1.6,0-3.2,0-4.7,0
			c0.4-1.6,0.5-3.3,1.1-4.8c0.7-2,1.8-3.8,2.6-5.6c-1.5-0.1-3.8,0.2-4.1-0.5c-0.6-1.2-0.4-3.2,0.2-4.4c4.3-8.7,8.8-17.4,13.2-26
			c0.8-1.7,1.7-3.3,1.9-5.6c-1.4,1.4-2.9,2.7-4.2,4.2c-4.6,5.2-9.1,10.4-13.7,15.6c-0.9,1-1.8,2.1-2.9,2.7c-0.9,0.5-2.1,0.5-3.2,0.6
			c0.1-1.1-0.3-2.4,0.2-3.2c3.6-5.9,7.3-11.8,11.1-17.6c3.2-4.9,6.6-9.7,9.4-15c-2,2.1-4,4.3-6,6.4c-4,4.3-7.8,8.7-12,12.9
			c-0.9,0.9-2.7,0.9-4.1,1.3c0.2-1.4,0-3.1,0.7-4.3c5.4-8.7,11-17.3,16.5-26c0.6-0.9,1.1-1.8,1-3.4c-2.5,2-5.2,3.8-7.5,5.9
			c-4.4,4.1-8.4,8.5-13,12.4c-1.7,1.4-4.4,1.7-6.6,2.5c0.6-2.1,0.8-4.6,1.9-6.3c4.7-6.9,9.8-13.6,14.7-20.4c0.9-1.2,1.7-2.5,2.6-3.8
			c-0.3-0.2-0.5-0.5-0.8-0.7c-2.7,2.5-5.3,5-8,7.4c-1.9,1.7-3.7,3.5-5.8,4.9c-0.9,0.6-2.3,0.5-3.5,0.7c0.1-1.2-0.3-2.7,0.2-3.6
			c2.4-4.3,5.2-8.4,7.7-12.6c1.4-2.3,2.7-4.7,4.1-7.1c-0.4-0.3-0.7-0.6-1.1-0.9c-4.9,4.8-9.4,10.1-14.8,14.2
			c-5.2,4.1-5.2,8.3-3.6,14c5.8,20.5,11,41.2,16.9,61.6c2.4,8.3,6,16.2,9.1,24.3c0.5,1.2,1.2,2.5,1.3,3.8c0.2,1.5-0.1,3.1-0.2,4.7
			c-1-1.1-2.5-2.1-3.1-3.5c-8.8-19.7-16.9-39.7-26.4-59c-9.2-18.6-19.4-36.8-30.2-54.5c-10.3-16.9-21.3-33.5-35.6-47.6
			c-2.7-2.7-5.7-5.2-8.6-7.8c-2.3-2-2.6-3.6,0.2-5.7c6.8-5.2,13.2-10.8,19.9-16c5.9-4.6,12.3-8.1,20.1-8.8c2.3-0.2,4.5-2.2,6.6-3.6
			c5.6-3.6,11.1-7.4,16.6-11.1c4.6-3.1,9.5-4.9,15.6-1.9c0-7.4-0.2-14.3,0.1-21.2c0.2-5.7,1.2-11.4,1.5-17.1c0.1-1.8-0.4-4-1.5-5.4
			c-4.6-6.2-9.5-12.2-14.3-18.3c-7.5-9.6-14.2-19.6-18.4-31.2c-0.7-1.9-2.7-3.3-4-5c-1-1.5-1.6-2.8,0.6-4.3c1.3-0.9,2.1-3.3,2.1-5
			c-0.5-17.6-1.2-35.1-1.8-52.7c-0.1-2.5,0.1-5.1,0.6-7.5c0.2-0.9,1.4-1.6,2.1-2.4c0.6,0.7,1.5,1.4,1.9,2.2
			c4.5,10.2,2.7,21.1,0.9,31c-1.7,9.4-0.3,18.2-0.7,27.3c-0.8,18,8.2,31.5,18.4,44.7c14.7,19.1,29.7,38,44.3,57.2
			c2.9,3.8,6.5,5.2,10.5,5.4c12.1,0.5,24.1,0.9,36.2,0.5c7.9-0.3,13.2-6,17.8-11.7c10.7-13.1,21.8-26,31.2-40
			c6.5-9.7,10.7-21,15.8-31.7c2.3-4.9,4.4-10,5.9-15.3c2-6.9,4.4-13.9,4.9-20.9c0.5-8-1-16.1-4.5-23.7c-4.2-9.2-4.9-18.8-2.8-28.9
			c1.5-7.1,3.1-14.6,2.4-21.7c-1.5-16.6-3.2-33.4-8.8-49.3c-4.8-13.7-13.2-24.8-24.9-33.2c-2.5-1.8-5.8-2.6-8.8-3.6
			c-3.8-1.2-7.7-2-11.6-3c-6.9-1.8-13.9-3.6-20.8-5.4c-2.9-0.8-5.8-1.6-8.7-2.4c-3.3,6.6-2.2,13.5-2.4,20.2
			c-0.1,6.4-0.2,12.8-0.1,19.2c0.1,2.3,1,4.6,1.6,7.4c-3.6,3.7-1.3,9-1.2,14c0,2.5,0.8,5.3-0.1,7.5c-5.3,13.9-2.5,28.2-2.4,42.4
			c0,7.3,0,14.6-0.4,21.9c-0.6,12.8-1.8,25.5-2.2,38.2c-0.2,5.1,1,10.3,1.3,15.4c0.3,3.8,0.2,7.7,0.3,11.6c0,1.3,0,2.6,0,3.9
			c7.2-0.4,13.1-6,13.5-12.6c0.1-1.1,0-2.2,0.2-3.2c0.1-0.5,1-1.3,1.2-1.3c0.6,0.2,1.5,0.8,1.6,1.3c0.1,1.8,0.5,3.9-0.2,5.5
			c-2.4,5.7-5.1,11.4-12,12.8c-3.6,0.7-4.8,2.6-4.4,6.1c0.3,3,0.1,6,0.1,9.5c6.6-0.4,12.1-0.5,17.7-3.6c6.7-3.7,14.1-5.9,21.3-8.7
			c1.5-0.6,2.9-1.1,5-2c-2-0.7-3.8-0.8-4.6-1.8c-1.3-1.5-2.3-3.4-2.6-5.3c-0.4-2.3,1.3-3.2,3.4-4.1c6.6-2.8,12.9-6.2,19.5-9.1
			c3.5-1.6,7.1-3,10.9-3.9c5.1-1.2,7.7,1.1,8.5,6.3c1.1,6.5,0.5,12.5-2.5,18.5c-2.4,5-3.2,10.7-5.4,15.8c-1.6,3.7-4.3,6.9-6.7,10.2
			c-0.4,0.6-2.1,0.2-3.1,0.3c0.3-0.9,0.5-2,1.1-2.7c1.8-2.4,3.8-4.6,5.2-6.3c-1.1-2.6-2.3-4.3-2.5-6.1
			C816.2,708,814.9,698.1,813.5,688.3c1.2,1.2,3,2.3,3.3,3.6c1.5,7.3,2.6,14.6,3.7,21.9c0.2,1.5,0.3,3.1,0.4,4.6
			c2.2-4.3,3.3-8.7,5.2-12.8c2.5-5.2,3.6-10.3,2.5-16.1c-0.9-4.6-1.9-5.8-6.6-4.4C819.2,686.1,816.4,687.3,813.5,688.3z M769.4,860
			c-3.3-1.8-6.7-3.6-11.1-6.1c-0.8,6.2-1.5,11.8-2.2,17.4c0.4,0.1,0.8,0.2,1.1,0.3c2.1-2.1,4.1-4.2,5.6-5.7
			c-1.2-1.2-3.1-2.1-3.1-3.1c0-1.6,1.2-3.1,2.1-5.3c1.3,1.6,1.9,2.3,2.4,2.9C766.1,860.2,767.8,860,769.4,860
			c-0.1,1.7-0.3,3.4-0.5,5c0.9,0.3,2.2,0.7,3.5,1.1c-0.6,1.2-1,2.6-1.8,3.7c-1.4,2.1-2.9,4.1-4.4,6.1c3.2-1,5.6-2.7,8.2-4.1
			c1.2-0.7,2.8-0.6,4.3-0.9c-0.5,1.5-0.6,3.3-1.5,4.4c-2.4,2.9-5.1,5.4-7.7,8.1c1.7-0.1,2.9-1.1,4.2-1.5c1.9-0.6,3.8-0.9,5.8-1.3
			c-0.9,1.7-1.6,3.7-2.8,5.1c-4,4.5-8.1,8.9-12.2,13.3c0.3,0.3,0.5,0.6,0.8,0.8c0.7-0.5,1.5-0.9,2.2-1.4c0.9-0.6,1.7-1.3,2.6-1.9
			c2.3-1.4,3.5-0.7,3.6,1.9c-2.1,1.4-4.1,2.8-6.2,4.1c-7.1,4.2-10.6,9.5-8.3,18.3c1.3,5,0.7,10.6,1.1,16.9c2.1-3.3,4.7-5.7,4.8-8.2
			c0.1-3.8-0.5-8.7-2.9-11.2c-3.3-3.5-0.6-4.8,0.9-6.7c3.4-4.5,7-8.8,10.6-13.3c2.9-6.6,6.6-13.1,8.4-20
			C783.9,870.1,776.5,860.4,769.4,860z M699.8,866.3c3,1.6,6.3,5.1,8.9,4.6c9.3-2,18.4-5.1,27.4-8c5.5-1.7,10-5,13.2-8.9
			c-9.9-2.5-19.7-5-29.5-7.5c-2.7-1.9-5.6-3.6-8.1-5.8c-8.3-7.1-18.1-13.2-18.9-25.8c-0.3-4.1-1.1-8.3-0.6-12.3
			c0.9-6.9-5.3-9.6-10.4-6.3c-7.8,5-15.6,10.1-23.6,15.3c0.8,0.8,1.4,1.4,2,1.8c9.3,6.3,14.7,15.8,20.5,25.1
			C686.6,848,693.4,857,699.8,866.3z M697.6,962.7c0.2-0.1,0.5-0.2,0.7-0.3c-0.3-1.4-0.6-2.8-1-4.1c-2.4-8.9-5.1-17.7-7.2-26.6
			c-5.4-22.7-10.5-45.4-15.7-68.1c-2.4-10.6-4.8-21.3-7.1-31.9c-0.4-2-0.1-4.1-0.1-6.1c0.5-0.2,1-0.4,1.5-0.7
			c-4.1-3.5-8.4-6.8-12.4-10.5c-1.8-1.7-3.3-1.7-5.3-1.1c-14.3,4.6-24.6,14.8-34.5,23.3c4.4,5.1,8.6,9.7,12.7,14.5
			c15.5,18.2,28.8,38,40.3,58.9c5.5,10.2,10.8,20.5,16.2,30.7c3.4,6.3,6.8,12.7,10.2,19C696.5,960.7,697.1,961.7,697.6,962.7z
			 M698.2,756.6c-0.4,0.1-0.8,0.3-1.2,0.4c-0.3,2.1-1,4.1-1,6.2c-0.3,15.4-0.9,30.9-0.6,46.3c0.1,5.1,1,11.5,4,15.1
			c9.2,10.7,19.5,20.6,34.5,22.8c6.9,1,13.8,1.8,21.5,2.8c-1.3-10.2-2.8-18.9-3.4-27.8c-0.6-9-0.1-18-0.1-27
			c-7-0.6-13.6-1.6-20.2-1.6c-4,0.1-6.1-1.5-8.2-4.3C715.2,778.5,706.7,767.5,698.2,756.6z M754.9,854.2c-7.8,7.2-18,11.5-24.4,20.6
			c-3.5,5-4,8.1-0.2,12.9c6.9,8.6,13.9,17.1,20.9,25.6c0.7,0.9,2,1.4,4,2.7C754,894.8,750.5,874.7,754.9,854.2z M671.1,829.6
			c-0.4,0.1-0.9,0.3-1.3,0.4c5.9,25.1,11.9,50.1,18.1,76.2c5.9-7,11.3-13.4,16.7-19.8c-0.2-0.2-0.5-0.4-0.7-0.7
			c-0.6,0.5-1.3,0.9-1.8,1.4c-3.6,3.3-7.2,6.7-11,9.9c-0.7,0.6-2,0.5-3.1,0.7c0.1-1.1-0.1-2.4,0.4-3.2c1-1.6,2.3-2.9,3.6-4.3
			c2.9-3.1,5.9-6.3,8.8-9.4c-3.8,1.6-6.8,3.9-10,6c-0.9,0.6-2.3,0.6-3.5,0.8c0.2-1.2,0.1-2.6,0.6-3.6c1.6-2.8,3.6-5.4,5.4-8.1
			c-2.1,0.2-3.5,1.2-5.1,1.8c-0.9,0.3-2.3,0.4-2.8-0.1c-0.5-0.5-0.5-2-0.2-2.8c1-2.3,2.1-4.6,3.4-6.8c0.5-0.8,1.6-1.4,2.4-2
			c0.3,0.2,0.7,0.4,1,0.7c-0.5,1.8-1,3.7-1.5,5.2c2.2,0,4.3,0,6.4,0c-0.2,2.3-0.4,4.5-0.6,6.8c2.5-1.5,5.1-3.1,7-4.2
			c-4.1-4.8-8.7-9.2-12.2-14.3c-5.7-8.2-10.6-16.9-15.9-25.3C674,833,672.5,831.3,671.1,829.6z M911.1,858.3
			c-0.6,0.3-1.1,0.4-1.5,0.7c-6.8,4.9-13.3,10.2-20.4,14.7c-8.2,5.2-14.1,11.9-17.1,21.3c-1.3,4-3.5,7.6-5.6,12.2
			C881.8,890.5,896.3,874.5,911.1,858.3z M866.9,868.9c-0.2-0.2-0.3-0.4-0.5-0.6c-2.6,2.3-5.2,4.5-7.7,6.9
			c-6.4,6.2-12.7,12.5-19.3,18.5c-1.4,1.3-3.6,1.7-6.2,2.8c-0.9,5.4-1.9,11.9-3.1,19.5C843,899.6,855,884.2,866.9,868.9z
			 M856.6,835.2c-0.3-0.3-0.6-0.5-0.9-0.8c-7.8,6.6-18,11.4-16.9,24.4c0.2,2.1-0.5,4.2-0.7,6.3c-0.2,1.9-0.3,3.7-0.5,5.6
			c0.3,0.1,0.6,0.2,0.9,0.3c7.5-8.5,14.9-16.9,22.4-25.4c-3.3,1.2-5.9,2.9-8.5,4.7c-3.1,2.1-6,4.4-9.2,6.3c-0.8,0.5-2.1,0-3.2,0
			c0.2-0.9,0.2-2,0.6-2.8c0.4-0.8,1.1-1.5,1.8-2.2C847.1,846.2,851.8,840.7,856.6,835.2z M864.4,856.9c-0.1-0.2-0.2-0.4-0.4-0.6
			c-2.3,1.7-4.6,3.5-6.9,5.2c-6.5,4.8-13,9.7-19.4,14.5c-0.5,0.3-0.9,1-1,1.5c-0.9,4.8-1.7,9.6-2.7,15.6
			C844.7,880.5,854.5,868.7,864.4,856.9z M827.3,939.7c-0.9,9.5-1.8,19.4-2.7,30.3c4.9-8.3,9.3-16,13.8-23.6
			c-0.3-0.2-0.6-0.4-0.9-0.5c-1.6,2-3,4.1-4.8,5.8c-1,1-2.5,1.3-3.9,2c0-1.4-0.4-3.2,0.2-4.2c3.9-6.6,8.1-13.1,12.2-19.7
			c1.6-2.6,3.3-5.3,5-7.9C839,926.8,836.1,936.1,827.3,939.7z M847.8,655.2c0.4,0,0.8,0,1.2,0c0.2-2.6,0.6-5.1,0.7-7.7
			c0.1-6.6,0.3-13.3,0-19.9c0-1.2-1.9-2.2-2.9-3.4c-0.9,0.8-2.5,1.6-2.6,2.5C842.7,636.6,846.6,645.7,847.8,655.2z M851.4,899.6
			c-0.2-0.2-0.4-0.5-0.6-0.7c-0.8,1-1.7,2-2.5,2.9c-4.6,5.3-9.2,10.7-14,15.9c-1.3,1.5-4.2,2.1-4.7,3.7c-1.2,3.9-1.3,8.1-1.9,12.1
			c0.4,0.1,0.7,0.2,1.1,0.3C836.3,922.3,843.8,911,851.4,899.6z M895,851.4c-4.9,1.4-7.8,3.2-7.8,7.8c0,1.1-0.8,2.2-1.3,3.3
			c-1.4,3.5-2.7,7-4.1,10.6c-0.2-0.3-0.4-0.6-0.6-0.9c5.5-5.1,11-10.2,16.5-15.3c-1.4,0.5-2.5,1.5-3.7,2.1c-0.9,0.4-2.1,0.3-3.2,0.4
			c0.2-1.1,0.1-2.3,0.6-3.2C892.2,854.7,893.4,853.5,895,851.4z M799.8,708.9c-4.8-0.3-7.8,3-7.3,6.7c0.2,1.6,0.4,3.2,0.9,4.7
			c0.4,1.1,1.3,2.7,2,2.7c1.2,0,3-0.8,3.5-1.8c1.3-2.4,2.3-5.1,2.7-7.8C801.8,711.8,800.4,710.1,799.8,708.9z M774.2,988.6
			c-0.2-0.1-0.3-0.2-0.5-0.3c-3.4,2.9-8.1,5.2-9.8,8.8c-1.7,3.7-0.4,8.7-0.4,14.3C767.5,1003.1,770.9,995.8,774.2,988.6z
			 M802.8,723.6c-3.1,1.4-5.5,2.4-8.2,3.6c0.2,2.1,0.4,4.3,0.6,6.5c0.1,1.9,0.8,3.1,2.9,2.6c1.9-0.4,4.6,0.3,4.7-3
			C802.8,730.3,802.8,727.1,802.8,723.6z M775.2,1007c-0.2-0.1-0.3-0.3-0.5-0.4c-2.6,3.1-5.3,6.3-7.9,9.4c-3.6,4.2-3.9,6.7-1.1,12.2
			C768.9,1021,772,1014,775.2,1007z M784.4,726.9c-0.3,8.8,0.8,10,7.6,9.1C791.1,725.4,793,726,784.4,726.9z M771.7,961.8
			c-10.4,4.2-12.1,7.6-8.6,16.2C765.9,972.7,768.6,967.5,771.7,961.8z M788.8,712c-5.5,2.4-6.1,4.3-4.2,11.4
			c1.8-0.1,3.7-0.3,5.8-0.5C789.9,719.1,789.4,715.7,788.8,712z M765.8,882.3c-0.2-0.2-0.3-0.3-0.5-0.5c-1.6,1.2-3.2,2.7-5,3.6
			c-1,0.5-2.4,0.3-3.6,0.4c0.3-1.2,0.2-2.5,0.8-3.5c1.7-2.6,3.6-4.9,5.4-7.4c-0.3-0.3-0.6-0.5-0.9-0.8c-2.1,1.6-5.6,3-5.9,4.9
			c-0.8,4.1,0.1,8.5,0.3,13.7C760.1,888.8,763,885.6,765.8,882.3z M780.8,734.2c1.4-7.1,0.1-8.6-6.1-6.8
			C774.9,733.7,775.4,734.3,780.8,734.2z M760.5,726.5c-0.1,0.3-0.2,0.6-0.2,0.9c3.6,1.9,7.3,3.7,11.2,5.7c0.3-6.6,0.3-6.6-5.2-6.6
			C764.4,726.5,762.5,726.5,760.5,726.5z M780.4,723.6c0-2.8,0-5.1,0-7.5c-6.2,1-7,2-5.3,7.5C776.7,723.6,778.4,723.6,780.4,723.6z
			 M759.8,953.8c0.1,2.1,0.2,4.6,0.4,7.1c0.3,0.1,0.7,0.1,1,0.2c2.1-2.9,4.1-5.8,6.5-9.2C764.7,952.6,762.5,953.2,759.8,953.8z
			 M757.7,902.8c3.2-4.1,6-7.6,9.4-11.8c-3.8,2.5-6.8,4.5-10.2,6.8C757,898.5,757.3,900.1,757.7,902.8z M735.2,723.7
			c4.6,0,9.2,0,13.9,0C744.4,720.4,739.8,722,735.2,723.7z M766.2,941c-0.2-0.2-0.4-0.3-0.6-0.5c-2,0.8-4,1.6-6.4,2.5
			c0.2,2,0.3,4,0.6,6.9C762.3,946.5,764.3,943.7,766.2,941z"/>
		<path d="M48.1,405c4.5,0,9,0.2,13.4,0c12.7-0.6,24.1,3.6,34.3,10.4c11.9,7.8,21.2,18.1,24.3,32.9c1.3,6,0.4,11.3-3.6,16.1
			c-2.6,3-5.1,6.1-7.3,8.8c7.7,2.4,15.6,4.2,23,7.3c17.9,7.4,30.5,33.3,19.4,53.1c-3.7,6.6-9,11.8-16.5,15.4
			c5.9,0.8,11.2,1.4,16.3,2.3c9.5,1.6,18.1,5.8,25.5,11.8c4.1,3.3,7,8.3,9.6,13c2,3.7,1.3,7.8-1.7,11.1c-2.6,2.9-5,5.8-8.4,9.7
			c2.5,0,3.9,0,5.4,0c11.6-0.2,23.1,0.7,34.4,3.9c16.2,4.6,26.1,15.8,32.6,30.5c4.3,9.6,5.1,19.5,1.1,29.5c-0.3,0.8-0.4,1.8-0.7,3.3
			c1.5-0.4,2.6-0.6,3.6-0.9c4.7-1.6,9.3-3.4,14-4.7c13.2-3.6,24.7,1.4,35.5,8.2c10.7,6.7,17.6,17.1,23.1,28
			c4.3,8.4-1.8,16.6-10.7,16.8c-4.8,0.1-9.8,1.1-14.3,2.7c-4.6,1.7-6.2,5.3-5.3,9.1c0.9,3.6,5.3,7.4,9.2,7c8.8-1,17.7-2,26.4-3.8
			c6.5-1.4,12.8-3.8,19-6c8.2-3,16.7-2.8,24.8-0.8c13.4,3.2,20.8,13,25.5,25.1c4.8-4.3,9.8-8.8,14.9-13.1
			c7.4-6.1,15.6-10.8,25.4-11.6c8.3-0.6,15.7,2.5,22.6,6.9c3.8,2.4,7.3,5.3,10.8,8.2c6.1,5.1,7.4,11.7,4,18.9
			c-0.4,0.9-0.9,1.9-1.7,3.6c1.4-0.7,2.2-1,2.8-1.5c12.2-10,26.3-11,41.4-10.7c20.6,0.5,30.2,20.2,32.9,34.2c0.5,2.7-0.4,5.8-1,8.6
			c-0.5,2.6-1.4,5.1-2.3,8.3c2.9-0.1,5.3-0.1,7.6-0.4c14.9-2,26.5,3.1,34.9,15.8c4.8,7.2,8.9,14.6,8.2,23.7
			c-0.2,2.1-0.5,4.1-0.9,6.6c2.3-0.5,4.2-1.1,6.1-1.2c1.8-0.1,3.7,0,5.5,0.4c0.5,0.1,0.9,1.1,1.4,1.6c-0.6,0.4-1.1,1-1.8,1.2
			c-5.5,1.3-11.1,2.4-16.5,3.8c-9.3,2.4-18.4,5.7-27.8,7.2c-9.6,1.5-15.8,6.9-20.3,14.5c-16.5,27.8-31.1,56.5-41.9,87
			c-3.1,8.8-6.5,17.5-9.9,26.2c-0.4,1-1.6,1.6-2.4,2.4c-0.1-1.2-0.7-2.5-0.3-3.5c12.3-33,23.6-66.3,42.2-96.5
			c2.9-4.6,4.9-9.8,7.9-14.3c3.5-5.1,7.5-10,11.8-14.5c1.7-1.7,4.7-2.3,7.2-3c10.4-2.8,20.9-5.4,31.3-8c2.7-0.7,3.8-2.3,4.4-4.9
			c1.7-7.4,0.9-14.3-3.1-20.8c-1.8-3-3.7-5.9-5.7-8.7c-6.5-8.7-15.3-12.6-26-12c-3.1,0.2-6.1,0.4-9.2,0.6c-4.2,0.3-6-1.6-5.2-5.6
			c0.2-1.2,0.6-2.3,0.9-3.5c3.8-13.3-2.8-31.2-14.9-38.2c-4.1-2.3-9.3-2.9-14.2-3.4c-15.1-1.8-28.9,1-40.6,11.5
			c-0.5,0.4-1.1,0.9-1.7,1c-1.7,0.2-3.5,0.3-5.2,0.4c0.3-1.6,0.5-3.2,1-4.8c1.2-4,2.7-7.9,3.5-12c0.3-1.5-0.6-4-1.8-4.9
			c-6.4-4.9-12.7-10.2-19.8-13.9c-13.1-6.8-24.9-1.7-35.6,6.5c-5.5,4.2-10.1,9.4-15.3,13.9c-1.7,1.5-4.1,2.2-6.2,3.2
			c-0.1,0.1-1.1-1.4-1.4-2.2c-0.8-3-0.8-6.4-2.3-8.9c-6.2-10.3-14.7-16.5-27.5-17.1c-11.1-0.4-20.7,4.4-31,6.8
			c-9.7,2.2-19.6,3.7-29.4,5.2c-5.3,0.8-9.2-2.2-12.2-6.2c-3.2-4.2-2.4-10.2,1.7-13.7c4.9-4.3,10.9-6,17.1-5.4
			c9.9,1,13.9-7.9,8.7-15.7c-8.9-13.3-18.5-25.3-34.7-30.3c-7.6-2.3-14.9-2.4-22.3,0.2c-4.8,1.7-9.5,3.4-14.4,4.7
			c-4.2,1.1-5,0.1-3.8-4.3c0.4-1.4,0.7-2.8,1.2-4.2c5-14.5,0.3-26.9-8.2-38.5c-9.2-12.5-22.1-18-37-19.3c-7.7-0.7-15.4-0.6-23.1-1.1
			c-1.8-0.1-4.1-0.8-5-2.1c-0.6-0.8,0.7-3.4,1.7-4.8c2.1-2.9,5.1-5.2,6.9-8.3c1.2-2,2.1-5.4,1.2-7.2c-2.2-4.4-4.9-9.2-8.7-12.1
			c-10-7.8-21.6-11.9-34.4-12.6c-6.4-0.3-12.7-1.3-19-2.1c-0.9-0.1-1.6-1.3-2.3-2c0.9-0.3,1.9-1.1,2.7-0.9
			c6.6,1.5,12.2-1.6,17.2-4.9c14.1-9.3,17.4-29.7,8.5-44.1c-8.9-14.4-22.3-19.7-38.2-21.2c-0.9-0.1-1.9,0-2.8-0.2
			c-3.2-0.6-3.7-2.1-1.5-4.6c2.9-3.3,5.7-6.7,8.7-9.9c3.8-4.2,4.7-9,3.2-14.5c-5.1-18.3-17.7-29.1-34.5-36.1
			c-6.6-2.7-13.4-4.3-20.6-4c-4.5,0.2-9.1,0.1-13.6,0c-1.4-0.1-3.6-0.6-4-1.5c-0.5-1.1,0.3-3,1.1-4.3c0.8-1.5,2.1-2.7,3.3-4
			c9.7-10.5,7.8-21.1-2.5-31.2c-8.4-8.1-19.1-10.1-30.3-10.1c-4.3,0-8.5,0-12.8-0.2c-1,0-1.9-0.9-2.9-1.4c1-0.6,2-1.7,3-1.7
			c8.1,0.2,16.3-0.1,24.3,1.1c11.7,1.8,21.4,7.5,27.3,18.2c5.5,10,4.4,17.7-2.9,26.5c-1.3,1.5-2.6,3-3.9,4.5
			C47.9,404.3,48,404.6,48.1,405z"/>
		<path d="M884.1,934.8c10.6-10.3,21-20.9,32-30.6c9.1-8,19-15.1,28.7-22.3c1.4-1.1,3.8-0.9,5.7-1.3c-0.7,1.9-0.9,4.2-2.1,5.5
			c-6.8,7.4-13.6,14.6-20.7,21.7c-27,26.9-48.6,57.9-68.4,90.3c-0.5,0.8-0.8,1.6-0.6,3c2.2-2.3,4.4-4.6,6.5-6.9
			c13.9-15.3,27.3-31,41.8-45.7c11.4-11.7,24.1-22.2,36.3-33.1c1.4-1.2,3.1-2,4.8-2.8c0.7-0.3,2.3-0.2,2.5,0.2c0.3,0.8,0.3,2,0,2.9
			c-0.3,0.8-1.1,1.5-1.6,2.2c-14.9,18.6-29.9,37.1-44.7,55.9c-6,7.7-11.4,15.9-16.5,24.3c3.4-3.3,6.7-6.7,10.1-10
			c14.6-13.8,29.2-27.7,43.9-41.4c3.1-2.9,6.9-4.9,10.6-7.1c1.1-0.6,2.7-0.2,4.1-0.3c-0.2,1.3,0.1,2.9-0.6,4
			c-1.7,2.8-3.8,5.4-5.8,8.1c-8.3,11.1-16.6,22.2-24.9,33.3c-0.7,0.9-1.3,1.9-1.4,3.4c1.5-1.4,2.9-2.9,4.5-4.2
			c9.8-7.9,19.6-15.9,29.6-23.6c1.6-1.3,4.3-1.2,6.4-1.8c-0.6,2.2-0.8,4.7-2,6.4c-6.2,9-12.8,17.7-19.2,26.6
			c-0.8,1.2-1.6,2.4-1.9,4.2c1.5-1.1,2.9-2.3,4.5-3.4c4.6-3.2,9.1-6.6,13.8-9.5c1.3-0.8,3.3-0.6,5-0.8c-0.5,1.5-0.8,3.2-1.5,4.6
			c-1.2,2.3-2.7,4.5-4.1,6.7c-0.3,0.5-1.2,1.2-1.3,1.1c-0.6-0.4-1.4-1.1-1.4-1.6c0.1-1.5,0.6-3,1.1-5.4
			c-6.9,5.3-13.2,10.3-19.7,15.1c-1.7,1.3-4.1,1.7-6.2,2.6c0.8-2.1,1.2-4.4,2.5-6.1c7.7-10.7,15.5-21.3,23.3-32
			c0.6-0.8,1.1-1.8,1.3-3.3c-1.4,0.8-2.9,1.5-4.1,2.5c-11,9.5-21.9,19-32.8,28.6c-2.5,2.2-4.9,4.6-7.5,6.6c-1,0.7-2.5,0.7-3.8,1
			c0.2-1.3,0.1-2.9,0.8-3.8c6.1-8.4,12.3-16.8,18.5-25.1c7.2-9.6,14.3-19.2,21.1-29.4c-2.2,1.5-4.6,2.8-6.5,4.7
			c-16.7,15.8-33.4,31.8-50.1,47.7c-3,2.9-5.8,5.9-9,8.6c-1.7,1.4-5.1,3.3-5.8,2.7c-2.6-2.2,0.3-4.3,1.6-6
			c13.2-18.1,26.4-36.1,40-54c6.3-8.3,13.2-16.1,19.8-24.1c0.8-1,1.4-2.1,1.6-3.6c-1.8,1.5-3.7,2.8-5.4,4.4
			c-23.6,21.1-45.5,43.9-65.9,68c-3.3,3.9-6.8,7.5-10.3,11.2c-1.1,1.1-2.4,2.2-3.9,2.8c-0.9,0.4-2.4,0.4-3.2-0.1
			c-0.5-0.3-0.6-2-0.2-2.8c1.2-2.8,2.5-5.6,4.1-8.2c20.4-33.6,43.1-65.5,71.3-93c4.5-4.4,8.7-9,13.1-13.5c0.3-0.3,0.4-0.7,0.2-1.6
			c-1.5,1.1-3.1,2.1-4.6,3.3c-25.5,20-48.4,42.5-68.5,68c-6.5,8.3-13.2,16.4-19.8,24.6c-1.5,1.8-3.3,3.5-5.2,4.9
			c-0.8,0.6-2.1,0.4-3.2,0.5c0-1.1-0.3-2.4,0.1-3.3c1.1-2.1,2.4-4.2,3.9-6.1c13.2-16.8,26.4-33.5,39.5-50.3c0.4-0.5,0.8-1.2,1.3-1.5
			c0.8-0.4,1.8-0.5,2.7-0.7c-0.1,0.8,0.1,1.9-0.4,2.5c-1.2,1.8-2.7,3.5-4,5.3C883.9,934.6,884,934.7,884.1,934.8z"/>
		<path d="M721,257.1c-10.8-2.5-11.6-9.5-10-20.9c0.4-3.1,0.5-6.4,1.7-9.2c0.7-1.7,3.3-2.6,5-3.7c-0.8-3.9-3.3-8.6-2-11.8
			c1.2-2.9,6.5-4.2,10.5-6.5c-0.2,0.6,0,0.3-0.1,0.1c-3.1-9-3-8.9,6.3-10.6c5.7-1.1,11.3-2.9,17.1-4c6.2-1.2,7.8,0.1,8,6.4
			c0.1,3.4,1.4,4,4.4,3.4c5.7-1,6.2-0.5,6.9,5.4c0.3,2.5,0.6,5,0.7,7.5c0,2.4,1,3.2,3.4,3.2c5.9,0.1,6.8,1.1,7.2,7
			c0.6,8.5,1.1,17,1.6,25.5c0.4,6.7,0.3,6.8-6,9.7c3.6,5.4,7.2,10.8,10.6,16.3c1.8,2.9,3.7,5.8,4.9,9c2,5.5,3.3,11.2,5.2,16.8
			c7,20.8-2.3,44.9-20.1,57c-8.5,5.8-17.6,7.4-27.7,5.4c-17-3.4-29.4-13.2-38.3-27.6c-6.7-10.9-6.2-22.8-3.5-34.5
			c2.3-9.9,6.1-19.5,9.4-29.2c0.6-1.9,1.6-3.8,2.9-5.2C721.4,263.9,721.9,260.9,721,257.1z M724.9,254.6c0.1,6-0.5,11.4-4.7,15.8
			c-0.7,0.7-1,1.9-1.4,2.9c-3.1,9.3-6.7,18.6-9.1,28.1c-2.7,10.9-3.4,22.1,2.9,32.2c7.9,12.8,18.6,21.5,33.5,25.9
			c18.3,5.5,33.6-5.3,41.7-18.3c8.1-13,10.2-27,4.8-41.8c-2.2-6.1-3.4-12.7-6.2-18.5c-2.6-5.4-6.8-10.1-10.1-15.2
			c-4.7-7-6.3-7.7-14.6-5.2c1.9,11.4,3.9,22.8,5.8,34.2c0.9,5.6,1.7,11.3,2.2,17c0.1,1.3-1,2.8-1.6,4.2c-0.9-1.1-1.8-2.2-2.7-3.3
			c-0.2-0.2-0.4-0.3-0.6-0.4c-0.1,0.3-0.1,0.7-0.2,1c-1.6-0.2-4,0.1-4.5-0.8c-3.2-5-3.7-5.1-7-0.1c-0.6,0.9-1.7,1.4-2.6,2.1
			c-0.5-0.9-1-1.7-1.5-2.6c-0.3-0.5-0.5-1.1-1.4-3c-1.2,2.8-1.9,4.7-2.8,6.4c-0.4,0.8-1.4,1.2-2.2,1.8c-0.4-0.7-1.1-1.4-1.3-2.2
			c-0.3-1.8-0.4-3.6-0.6-5.5c-0.5,0-1,0-1.5,0c-0.3,2.8-0.6,5.6-1.1,8.4c-0.2,1-1.2,1.8-1.9,2.6c-0.6-0.9-1.7-1.7-1.8-2.7
			c-0.2-1.8,0.1-3.7,0.3-5.5c1.1-10.8,2.3-21.7,3.3-32.5c0.6-6.5,0.7-13.1,1-20c-2.5-1.4-7.2,0.9-10.2-3.1c1.2-0.5,1.5-0.8,1.9-0.8
			c2.1,0.1,4.3,0.2,6.4,0.5c12.4,2.1,24.7,0.8,37-0.8c3.7-0.5,5.1-2.4,4.6-6.3c-0.8-5.5-1-11.1-1.4-16.7c-0.2-3.1-0.2-6.1-0.3-9.2
			c-0.1-2.8-1.5-4-4.4-3.7c-10.1,1.1-20.2,1.5-30.2,3.2c-6.9,1.1-14.4-0.1-20.4,4.9c-0.3,0.2-1,0-1.5-0.1c-4.8-1.9-4.1,2.5-4.9,4.6
			c-1.2,3.1,1.6,2.8,3.3,3c14.8,1.6,29.5,1.6,44.1-1.8c1.1-0.3,2.5,0.5,3.7,0.8c-1,0.7-1.9,1.9-2.9,2.1c-6.8,1.1-13.7,2.5-20.5,2.8
			c-9.6,0.3-19.3-0.3-29.8-0.5c0.3,3.2,0.2,7,1.2,10.5C715.9,254.2,721.5,253,724.9,254.6z M740.2,305.5c2,1,4,2.2,7.3,1.7
			c2.8-0.4,5.6-0.5,8.5-1.5c1.3-0.4,3.1,0.7,4.7,1.3c1.7,0.6,3.4,1.3,5.9,2.2c-2.8-17.2-5.4-33-8.1-49.1c-3.5,0.2-6.6,0.5-9.8,0.6
			c-5.6,0.1-7,1-7.2,6.6C741,280,740.6,292.6,740.2,305.5z M765.5,203.6c-1.1-0.1-1.6-0.4-2.1-0.3c-12.6,2-25.2,3.7-37.7,6.3
			c-9.1,1.9-8.9,2.4-5.1,10.7c0.9,2,2,2.5,4,2c1.7-0.4,3.4-0.7,5.1-0.9c12.1-1.7,24.2-3.4,36.7-5.2
			C766.1,211.9,765.8,207.8,765.5,203.6z M727.9,198.6c0.4,5.5,1.3,6.2,6.4,5.4c4.1-0.6,8.1-1.1,12.2-1.6c2.7-0.3,5.4-0.5,8.2-0.8
			c-0.2-2.2-0.4-3.8-0.4-5.3c0-2.3-1.3-3.1-3.3-2.7C743.2,195.2,735.5,196.9,727.9,198.6z"/>
		<path d="M730.7,0.4c3.4-1.1,3.2,0.8,3.1,2.6c-0.6,6.6-1.7,13.2-1.7,19.9c0,25,0.5,50.1,0.6,75.1c0,3.6-0.6,7.1-0.8,10.7
			c-0.3,10.7-0.4,21.5-0.9,32.2c-0.7,15.2,1.7,30,4.3,44.8c0.4,2.5,1.3,5.5-1.7,8.2c-0.5-1.3-1-2.2-1.1-3.1
			c-0.9-6-1.9-12.1-2.4-18.2c-0.9-12.3-2.2-24.7-2.2-37c0-16.7,1.4-33.5,1.6-50.2c0.2-19.8-0.6-39.7-0.5-59.5
			C729,17.5,730.1,9,730.7,0.4z"/>
		<path d="M743.6,187.7c-0.3-1.2-0.9-2.3-0.9-3.5c-0.1-19.6-0.1-39.1-0.2-58.7c0-10.5-0.3-21-0.4-31.6c-0.1-16.1,0-32.2-0.3-48.4
			c-0.2-13.7-0.9-27.4-1.4-41.1c0-0.9-0.2-1.9,0.1-2.8c0.2-0.7,1-1.2,1.5-1.8c0.5,0.6,1.4,1.2,1.5,1.8c0.2,2.5,0,5.1,0.1,7.6
			c0.1,7.3,0.1,14.6,0.3,21.9c0.4,15.6,1.2,31.1,1.3,46.7c0.3,34.8,0.2,69.5,0.3,104.3c0,1.7-0.2,3.5-0.3,5.2
			C744.7,187.6,744.1,187.7,743.6,187.7z"/>
		<path d="M787,627.3c-2.1,0.5-4.3,1.2-6.4,1.6c-1,0.2-2.1-0.4-3.1-0.6c0.7-0.8,1.3-1.9,2.2-2.2c10.8-4.1,21.7-8,32.5-12.2
			c4.3-1.7,8.4-4,12.7-5.7c1.2-0.5,2.8,0,4.3,0c-1,1-1.9,2.3-3.1,2.9c-8.2,3.8-16.5,7.4-24.9,11.6c7.2-0.4,11.5,3.3,15,9
			c3.7,6,2.1,12.1,1.6,18.2c-0.5,6.6-2.8,12.5-9.8,15.1c-1,0.4-2,0.9-3,1c-0.6,0.1-1.3-0.6-2-0.9c0.4-0.6,0.7-1.3,1.1-1.9
			c0.1-0.1,0.2-0.1,0.4-0.1c8.6-2.4,10.3-9.2,10.7-16.8c0.3-5.1,0.8-10.2-2.8-14.9c-2.8-3.7-6.1-5.4-10.5-5.3
			c-13.8,0.2-23.2,13.2-19.1,26.5c1.4,4.5,9.3,10.1,14.6,10.5c1.2,0.1,2.3,0.8,3.4,1.3c-1.1,0.6-2.3,1.7-3.4,1.7
			c-8.6,0.2-17.7-8.4-18-17C779.1,640.9,779.4,632.9,787,627.3z"/>
		<path d="M727.4,644.9c-3.8-2.3-7.7-4.5-12-7.1c-0.3,4.7-0.5,8.6-0.7,12.6c1,0,2.1,0,3.2,0c0.2,0.3,0.5,0.6,0.7,0.8
			c-1,0.9-1.8,2.5-2.9,2.7c-8,1.6-16.1,4-24.2,0.1c-2-1-4-2.1-5.8-3.4c-2.6-1.8-5-3.9-8.6-3.5c-0.8,0.1-1.7-0.8-2.6-1.3
			c0.5-0.8,0.9-1.9,1.6-2.5c2.6-1.9,5.6-3.2,7.9-5.3c8.9-8.3,32.4-5,40.1,0.8c1.7,1.3,2.9,3.1,4.3,4.6
			C728.1,644,727.7,644.4,727.4,644.9z M712,643.4c0-5.8-1.7-7.2-8.8-7.2c-4.5,0-6.7,2.9-6.8,9.1c0,4.4,2.8,7.8,6.9,7.4
			C710.3,652.2,711.5,652,712,643.4z M693.5,652c0.3-5.5,0.6-10.2,0.9-16c-4.5,2.7-8.6,5.1-13.3,7.9
			C685.9,647,689.7,649.5,693.5,652z"/>
		<path d="M651.7,628.6c-1.1,0.7-2.8,1.8-4.4,3c-0.1-0.2-0.2-0.3-0.2-0.5c-1.3,1.9-2.8,3.7-3.9,5.7c-0.7,1.2-1.4,2.8-1.1,4
			c1.9,8.4,3.9,16.7,6.1,25c1.8,6.5,4.1,12.9,6,19.4c0.3,0.9-0.2,2.1-0.3,3.2c-0.9-0.8-2.3-1.4-2.6-2.4c-2.8-8.7-5.5-17.5-8.2-26.3
			c-1.2-4.1-1.9-8.3-3.5-12.3c-2.5-6.6-0.6-12.2,3.6-17c3.1-3.6,3.2-7,1.8-11c-0.2-0.6-0.3-1.7-0.6-1.8c-4.7-1.2-2.1-4.7-2.3-7.3
			c-0.4-5.2-0.8-10.3-1.1-15.5c-0.1-1.1-0.4-2.2-0.2-3.2c0.1-0.8,0.9-1.4,1.3-2.1c0.7,0.6,1.8,1.2,2,1.9c0.6,2.7,0.8,5.5,1.2,8.3
			c1.1,7.2,2.1,14.5,3.5,21.7C649.1,623.5,650.4,625.5,651.7,628.6z"/>
		<path d="M688.1,615.5c12,2.1,24.4,1.7,35.7,7.3c2.8,1.4,4.6,3.1,2,6c-0.7,0.8-2.2,1.4-3.1,1.2c-12.8-2.7-25.7-5.4-38.4-8.4
			c-2.2-0.5-5.8-2.4-5.8-3.5c0.3-3.5,3.9-2,6.1-2.6C685.7,615.3,686.9,615.5,688.1,615.5z M718.7,625.2c0.1-0.6,0.2-1.1,0.3-1.7
			c-10-1.8-20-3.6-30-5.4C698.7,621.2,708.2,625.9,718.7,625.2z"/>
		<path d="M743.8,1038.9c-0.6-1.2-1.3-2.3-1.7-3.6c-4.1-15.2-8.4-30.2-11.9-45.5c-1.1-4.8,0.3-10.2,0.8-15.3
			c0.1-0.9,1.1-1.8,1.7-2.7c0.4,0.1,0.8,0.2,1.2,0.3c0,1.2,0.3,2.4,0,3.4c-2,6.1-1.3,11.9,0.4,18c3.9,13.7,7.3,27.5,10.9,41.3
			c0.3,1.1,0,2.4,0,3.7C744.8,1038.6,744.3,1038.7,743.8,1038.9z"/>
		<path d="M797.2,635.2c10.2,0.4,12.6,1.9,12.4,7.8c-0.4,8.6-5.4,14.1-12.7,13.7c-6.2-0.3-10.3-4.8-10-10.9
			C787.1,639.3,791.4,634.9,797.2,635.2z M799.7,639.4c-0.1,0.1-0.2,0.3-0.4,0.4c-1.6-0.4-3.4-1.4-4.9-1.1c-2.9,0.6-5.4,5.7-4.6,8.8
			c0.8,3.2,2.6,5.8,6.5,5.9c5.6,0.3,8.9-2.6,9.7-9.1c0.2-1.6-0.2-4-1.3-4.8C803.7,638.7,801.5,639.4,799.7,639.4z"/>
		<path d="M735.2,494.4c5.2-0.8,9.9,0.4,13.9,3.5c0.6,0.5,0.7,1.5,1,2.3c-0.8,0.1-1.9,0.7-2.4,0.3c-10.5-6.1-21.2-2.3-31.9-0.9
			c-4.7,0.6-9.4,2-14.1,2.9c-1,0.2-2.2-0.5-3.3-0.8c0.8-0.7,1.6-1.8,2.5-2c11.3-2.2,22.7-4.3,34-6.4
			C735.1,493.7,735.1,494.1,735.2,494.4z"/>
		<path d="M701.6,514.8c0.7-0.6,1.3-1.5,2.2-1.8c10.9-3.7,22.1-6.3,33.6-3.3c4.1,1.1,7.8,4.1,11.6,6.5c0.9,0.6,1.3,2.3,1.5,3.5
			c0.1,0.5-0.6,1.4-1.1,1.8c-0.2,0.1-1.3-0.4-1.5-0.8c-4.8-9.3-13.7-9.3-22.2-9c-6.5,0.3-13,2.4-19.5,3.7c-1.3,0.3-2.7,0.5-4,0.7
			C702,515.7,701.8,515.2,701.6,514.8z"/>
		<path d="M705.6,535.5c1.3-4,22.1-9.3,31.9-9.5c5.9-0.1,9,1,10.6,3.8c-0.8,0.2-1.6,0.7-2.1,0.6c-9.7-3.1-18.9,0.3-28.3,2.3
			C713.7,533.5,709.7,534.5,705.6,535.5z"/>
		<path d="M780,812.9c-2,3.3-3.7,6.7-6.1,9.7c-0.7,0.8-3.7,0.9-4.8,0.1c-2.3-1.7-5.4-3.6-4.1-7.4c1.7-4.9,5.4-7.9,10.2-9.3
			c2.6-0.7,3.9,1.6,3.8,6.2C779.3,812.5,779.6,812.7,780,812.9z M771.1,821.1c3-3.9,5.8-6.9,3.8-12.9c-2.7,3.1-5.1,5.2-6.7,7.9
			C767.8,816.9,769.9,819.1,771.1,821.1z"/>
		<path d="M808,801c-1,2.4-2.2,4.8-3.1,7.3c-0.6,1.8-0.5,3.9-1.1,5.7c-1.1,2.9-2.5,5.7-3.9,8.4c-0.3,0.5-1.6,0.4-2.4,0.6
			c0-0.8-0.3-2.1,0.1-2.5c3-2.7,3.2-6.2,3.3-9.9c0-1,0-2.5,0.7-3.1c4.5-4.4,2.1-9.3,1.6-14.2c-0.2-2.1,0.4-4.2,0.7-6.3
			c0.8,1.9,1.8,3.7,2.3,5.6c0.6,2.6,0.8,5.2,1.2,7.8C807.6,800.7,807.8,800.8,808,801z"/>
		<path d="M703,631.7c-4.4,0.3-8.9,0.4-13.3,1c-3.2,0.4-6.4,1.5-9.6,2.1c-0.9,0.2-1.9-0.2-2.8-0.4c0.5-0.8,0.8-2,1.5-2.4
			c6.8-3.4,14.1-3.2,21.4-3.1c1.1,0,2.1,1,3.2,1.5C703.2,630.9,703.1,631.3,703,631.7z"/>
		<path d="M779.9,600.9c-1.2-0.3-2.9-0.3-3.9-1.2c-2.1-1.7-1.6-8.7,0.5-10.4c1.6-1.4,7.7,0.6,8.6,3c0.5,1.3,0.7,2.9,0.5,4.3
			c-0.1,0.9-1.2,1.8-1.9,2.6c-0.4-0.9-1.1-1.9-1.1-2.7c0.3-3.1-1.4-4-5.3-4C778.2,595.2,778.9,597.5,779.9,600.9z"/>
		<path d="M772.6,401.2c-0.2,0.4-0.6,1-0.9,1.6c-0.7-0.4-1.9-0.7-2-1.3c-2-6.4-3.9-12.9-5.7-19.4c-0.2-0.5,0.5-1.3,0.8-2
			c0.7,0.4,1.9,0.7,2,1.3C768.8,387.8,770.6,394.3,772.6,401.2z"/>
		<path d="M797,546.7c0.9-1,1.9-2.8,2.8-2.8c2.3,0.2,4.5,1.1,6.7,1.9c0.5,0.2,0.7,1.4,0.7,2.2c-0.1,2.7,1,4.1,3.7,4.5
			c1,0.1,2,0.8,2.8,1.4c0.4,0.3,0.6,1.3,0.4,1.7c-0.2,0.4-1.1,0.8-1.6,0.7c-2.1-0.4-4.2-0.8-6.1-1.6c-0.8-0.3-1.5-1.5-1.8-2.4
			C803.1,546.6,803.1,546.6,797,546.7z"/>
		<path d="M671.8,266c3.1-2.3,17.3-3.1,21.5-1.4C691.7,267.4,676.4,268.5,671.8,266z"/>
		<path d="M830.1,351.3c-6-1.4-11.7-2.7-17.3-4.1c-0.6-0.2-1.1-0.9-1.6-1.4c0.7-0.5,1.3-1.2,2.1-1.3c0.9-0.2,1.8,0.1,2.7,0.3
			c4.8,1.1,9.5,2.1,14.3,3.3c0.7,0.2,1.2,1.3,1.9,2.1C831.4,350.6,830.7,351,830.1,351.3z"/>
		<path d="M686.4,356.8c-0.7,0.8-1.2,1.5-1.8,2.2c-3.1,3.5-6.2,6.9-9.3,10.3c-0.6,0.7-1.7,0.9-2.5,1.3c0-1-0.4-2.5,0.1-3.1
			c3.3-3.9,6.9-7.7,10.4-11.4c0.4-0.5,1.4-0.6,2.1-0.5C685.6,355.6,685.9,356.3,686.4,356.8z"/>
		<path d="M675.2,323.9c-1.2,1.4-1.6,2.1-2.2,2.6c-3.8,3.1-7.7,6.1-11.6,9.1c-0.4,0.3-1.6,0.4-1.7,0.2c-0.4-0.6-0.6-1.5-0.4-2.1
			c0.3-0.8,0.9-1.7,1.7-2.2c3.5-2.6,7-5.3,10.6-7.7C672.3,323.4,673.5,323.9,675.2,323.9z"/>
		<path d="M709.7,373.3c0.3,1.5,0.7,2.3,0.5,3c-1,4.5-2.1,9.1-3.3,13.6c-0.2,0.7-1.1,1.3-1.6,1.9c-0.5-0.7-1.5-1.5-1.4-2
			c1-4.8,2.2-9.6,3.5-14.3C707.5,374.7,708.5,374.3,709.7,373.3z"/>
		<path d="M657.7,288.9c5.9-1.2,11.8-2.5,18.6-3.9c-2.2,4.4-14.4,7.1-18.3,5.2C657.9,289.8,657.8,289.4,657.7,288.9z"/>
		<path d="M809.7,376.6c-0.9,0-2.1,0.4-2.8-0.1c-4.1-2.5-8.1-5.1-12.1-7.7c-0.4-0.3-0.6-1.3-0.4-1.7c0.2-0.4,1-0.6,1.6-0.9
			c0.2-0.1,0.6,0,0.8,0.1c4.5,3,8.9,5.9,13.4,8.9C810,375.7,809.8,376.2,809.7,376.6z"/>
		<path d="M819.1,266.7c-1.4,1.3-1.8,1.9-2.5,2.3c-3.5,1.9-7,3.8-10.5,5.6c-0.8,0.4-1.9,0-2.8,0c0.4-0.9,0.6-2.1,1.3-2.5
			c3.5-2.1,7.2-4,10.9-5.7C816.2,265.9,817.3,266.4,819.1,266.7z"/>
		<path d="M829,286c-0.7,0.6-1.3,1.5-2.1,1.9c-3.6,1.7-7.3,3.2-11,4.7c-0.7,0.3-1.6-0.3-2.4-0.6c-0.1-0.1-0.1-1.3,0.2-1.4
			c4.7-2.4,9.5-4.7,14.6-6.1C828.5,285,828.8,285.5,829,286z"/>
		<path d="M734.4,390.7c0.5-3.1,0.9-6.3,1.5-9.4c0.1-0.6,1.3-1,1.9-1.5c0.3,0.8,1,1.5,0.9,2.3c-0.3,4.5-0.6,8.9-1.1,13.4
			c-0.1,0.8-0.8,1.5-1.2,2.2c-0.6-0.7-1.5-1.4-1.6-2.2c-0.3-1.5-0.1-3.2-0.1-4.7C734.7,390.8,734.5,390.7,734.4,390.7z"/>
		<path d="M833.2,317.3c-2.1,0.2-4.2,0.5-6.3,0.6c-2.8,0.2-5.6,0.3-8.3,0.2c-0.7,0-1.3-0.9-2-1.4c0.4-0.5,0.7-1.4,1.1-1.4
			c5.1-0.1,10.3-0.1,15.4-0.1C833.1,316,833.2,316.7,833.2,317.3z"/>
		<path d="M778.3,528.8c-0.3-2.6-0.8-5.2-0.9-7.8c0-0.9,0.8-1.9,1.3-2.9c0.6,0.9,1.6,1.7,1.7,2.6c0.4,2.9,0.7,5.8,0.6,8.6
			c0,1.2-1.3,2.3-2,3.4c-0.6-1.2-1.1-2.4-1.7-3.7C777.7,529,778,528.9,778.3,528.8z"/>
		<path d="M791.5,262.8c0.3-1,0.4-2.2,1.1-2.9c2.1-2,4.3-3.9,6.6-5.7c0.6-0.5,1.9-0.1,2.8-0.1c-0.3,0.8-0.3,1.9-0.9,2.4
			c-2.8,2.5-5.7,4.8-8.6,7.2C792.2,263.4,791.9,263.1,791.5,262.8z"/>
		<path d="M738.6,744.1c-0.7-0.2-2.4-0.5-3.9-1.1c-0.6-0.3-0.9-1.4-1.3-2.1c0.9-0.2,1.8-0.6,2.7-0.6c1.8,0.1,3.6,0.3,5.4,0.7
			c1,0.2,2,0.7,2.9,1.1c-1,0.7-1.9,1.5-2.9,2C741.1,744.3,740.3,744.1,738.6,744.1z"/>
		<path d="M803,573.2c-2.7,1.5-2.3,6.4-6.3,3.7c-0.9-0.6-1.6-3.4-1-4.1C797.5,570.2,799.9,571.6,803,573.2z"/>
		<path d="M788.5,830.5c-1.7,2.5-3.4,5-5.2,7.4c-0.2,0.3-1.2,0.2-1.8,0c-0.3-0.1-0.6-1.1-0.4-1.4c1.6-2.7,2.7-5.9,5.8-7.3
			C787.5,829.7,788,830.1,788.5,830.5z"/>
		<path d="M736.2,654.3c-1.9,0.8-3,1.6-4,1.5c-1-0.1-2.6-1.5-2.5-1.9c0.3-1.5,1.3-2.9,2.1-4.3C733.1,650.9,734.3,652.2,736.2,654.3z
			"/>
		<path d="M824.6,574c1.4,2.5,2.4,4.1,3.1,5.8c0.1,0.3-0.7,1.1-1.1,1.7c-1.2-1.5-2.4-2.9-3.4-4.5C823,576.6,823.9,575.6,824.6,574z"
			/>
		<path d="M719.9,846.3c-1,1.9-1.8,3.9-3,5.7c-1.6,2.3-3.5,4.3-4.9,5.9c0.4-0.2,1.8-0.5,2.7-1.3c3.4-3.2,7.6-1.4,11.4-2.2
			c0.3-0.1,1.5,2,1.2,2.3c-2.4,3.4-3.8,7.8-9.8,7c-2.1-0.3-4.7,2.7-7.1,4c-1,0.5-2.5,1.2-3.2,0.8c-0.8-0.5-0.9-2.1-1.3-3.2
			c-1.9,0.3-4,0.7-6.2,1.1c0.6-1.6,0.8-3.6,1.9-4.8c2.4-2.6,5.3-4.8,7.6-7.9c-2.8,1.5-5.5,3.2-8.4,4.5c-1.4,0.6-3.1,0.4-4.6,0.6
			c0.6-1.4,1.1-2.7,1.7-4c0.2-0.4,0.7-0.8,1.2-1.4c-5.4-2-1.2-4.6-0.3-7.6c-2.1,1-3.7,1.9-5.4,2.4c-0.7,0.2-2,0.1-2.4-0.4
			c-0.4-0.5-0.3-1.8,0.1-2.4c1.1-1.6,2.6-3,4.2-4.9c-3.1-0.4-6.1-1.1-3.7-4.8c-2.4,0.3-4.5,0.5-6.6,0.8c0.7-2.1,1.3-4.3,2.1-6.7
			c-1.1,0.4-2.2,0.9-3.4,1.1c-1.4,0.2-2.7-0.1-4.1-0.1c0.4-1.3,0.5-2.7,1.1-3.9c0.7-1.3,1.8-2.4,2.9-3.8c-0.7-0.1-0.9-0.1-1.2-0.1
			c-2.2,0.1-4.4,0.1-6.6,0.2c1-2,2-4.1,3.1-6c0.9-1.4,2.1-2.7,2.6-4.7c-2.7,1.5-5.3,3.2-8.1,4.5c-1.1,0.5-2.6,0.2-4,0.3
			c0.3-1.3,0.2-3,1-3.9c3.3-4.3,6.9-8.5,10.4-12.6c0.5-0.6,1.7-0.7,2.6-1c-0.1,1,0.2,2.2-0.3,2.9c-1.8,2.6-3.8,4.9-5.4,7.9
			c2.1-1,4.2-2.1,6.4-2.9c0.9-0.3,2.6-0.2,2.9,0.3c0.5,0.8,0.5,2.4,0,3.2c-1.6,2.7-3.5,5.3-5.9,8.7c2-0.7,3.2-1.3,4.5-1.6
			c1.1-0.2,2.2,0.1,3.3,0.2c-0.1,1.2,0.1,2.6-0.4,3.6c-0.7,1.4-1.9,2.5-3.1,4.1c2.2-0.2,4.2-1,5.7-0.3c0.9,0.4,0.8,3,1.1,4.6
			c1.5,0.2,3.6,0.4,5.7,0.7c-0.4,1.5-0.8,2.9-1.1,4.3c1.4,0.2,3,0.5,4.7,0.7c-0.5,1.7-0.9,3.3-1.4,5c4.4,0.4,4.7,1,2,6.8
			c2.1-0.9,3.5-1.7,5-2.1c1.3-0.4,2.7-0.3,4.1-0.4c-0.2,1.3-0.4,2.6-0.6,3.5C713.6,847.9,716.7,847.1,719.9,846.3z"/>
		<path d="M739.3,252c-6.6-1-13.3-1.9-19.9-3.1c-0.9-0.2-1.7-1.5-2.5-2.3c1.1-0.2,2.2-0.8,3.2-0.5c11.9,2.8,23.7,3.3,35.6,0.4
			c1.1-0.3,2.3,0.4,3.5,0.7c-0.9,0.8-1.7,2-2.7,2.2C750.9,250.3,745.2,251.1,739.3,252z"/>
		<path d="M705.1,648.1c-1.1-1.6-2.2-2.5-2.3-3.5c-0.1-0.7,1.5-2.2,2-2c1.1,0.3,2.4,1.3,2.7,2.2
			C707.7,645.4,706.3,646.5,705.1,648.1z"/>
	</g>
</g>
</svg>
