<?xml version="1.0" encoding="utf-8"?>
<!-- Generator: Adobe Illustrator 22.0.1, SVG Export Plug-In . SVG Version: 6.00 Build 0)  -->
<svg version="1.0" id="Ebene_1" xmlns="http://www.w3.org/2000/svg" xmlns:xlink="http://www.w3.org/1999/xlink" x="0px" y="0px"
	 viewBox="0 0 1547.9 1049.4" enable-background="new 0 0 1547.9 1049.4" xml:space="preserve">
<g>
	<path d="M989.7,630.7c2.8,1.1,5.2,2.1,7.6,3.2c2.6,1.1,4.1,3,3.9,5.9c-0.3,8.5-0.6,17.1-1.1,25.6c-0.3,4.8-1.1,4.7-5.7,3.6
		c-7.7-1.9-15.7-2.9-23.5-4.3c-7.2-1.3-14.4-2.5-21.5-4.1c-2-0.4-3.8-1.8-5.5-3c-0.4-0.3-0.4-1.4-0.5-2.1c0.7-0.1,1.6-0.6,2.1-0.3
		c8.9,5.4,19.1,5.3,28.9,6.8c7.4,1.1,14.7,2.3,22.5,3.5c0.1-0.4,0.4-1.4,0.5-2.4c0.3-6.9,0.4-13.9,0.9-20.8c0.2-3.3-0.7-5.5-4-6.3
		c-9.3-2.2-18.5-4.6-27.9-6.5c-9-1.8-18.1-3-27.2-4.5c-2-0.3-4-0.4-6-0.7c-8.4-1-8.4-1-12.4,6.5c-1.4,2.7-2.7,5.5-3.7,8.4
		c-7.7,23.7-16.6,46.9-22.3,71.3c-3.9,16.7-10.4,32.7-15.1,49.3c-5.6,19.6-8.9,39.8-11.2,60c-0.4,3.8,1,5.9,4.5,6.7
		c7.8,1.8,15.5,3.8,23.4,5.1c8.9,1.6,17.9,2.9,26.9,3.7c7,0.7,6,0.7,6.4-6c0.3-4.8,0.6-9.6,1.2-14.3c0.3-2.4-0.4-3.3-2.7-3.8
		c-10.3-2.1-20.5-4.4-30.8-6.6c-5-1.1-7.3-4.5-6.1-10.2c1.7-8.1,3.2-16.2,5.6-24.1c6.4-21.6,13-43.1,20.1-64.5
		c3.3-10,8-19.5,11.7-29.3c1.7-4.6,2.6-9.5,4.1-14.1c0.4-1.1,1.9-1.8,2.8-2.6c0,1.3,0.2,2.7-0.1,3.9c-1.2,4.6-2.2,9.3-3.9,13.8
		c-4.1,10.8-9.2,21.3-12.7,32.3c-7.8,24.7-15,49.7-22.3,74.6c-0.9,3-1.3,6.2-2.1,10.2c37.5,0,74.6,0,111.6,0c-1-1-2.3-2.2-3.5-3.6
		c-6.1-6.7-5.6-14.3,1.3-20.3c7.1-6.1,17-7.4,24.9-2.4c4.3,2.7,7.8,6.7,11.4,10.4c0.8,0.8,0.3,2.8,0.5,4.2c-1-0.8-2.3-1.5-2.9-2.5
		c-6.7-10.6-18.5-14.7-28.2-9.6c-10,5.2-10.7,14.7-1.3,21c7.1,4.8,14.8,5.2,22.5,1.6c5.5-2.6,5.7-6.1,1-10c-1.4-1.2-2.4-3-3.5-4.6
		c1.8,0.7,3.9,1.1,5.4,2.2c6.1,4.6,6.1,8.3,0.3,14.8c0.9,0.2,1.6,0.4,2.3,0.4c32.1,0.7,64.2,1.3,96.4,2c2.6,0.1,3.6-0.8,4.5-3.2
		c8.1-21.3,13.3-43.3,17.2-65.6c2.1-11.9,6.7-23,11.7-33.9c3.1-6.9,1.2-11.7-6.1-13.2c-11-2.4-22.2-4.4-33.4-5.7
		c-9.7-1.2-11.5-3.1-8.6-12.4c0.8-2.7,1.7-5.3,2.9-7.9c0.6-1.2,1.9-2,2.9-3c0.4,0.3,0.8,0.5,1.1,0.8c-0.9,2.5-1.8,5.1-2.7,7.6
		c-0.3,0.9-0.7,1.7-1,2.6c-2.6,7.7-1.8,8.1,6.2,9.1c11.6,1.5,23,4,34.5,6.2c2.7,0.5,5.5,1.4,7.8,2.8c1.4,0.9,2.8,3.2,2.6,4.8
		c-0.3,3.1-1.2,6.4-2.7,9.1c-6.4,11.4-10.3,23.6-12.7,36.4c-3.6,19.5-8.3,38.7-14.7,57.6c-5.6,16.6-9.4,33.9-13.6,50.9
		c-1.3,5.4-1.1,11.1-2.2,16.5c-1.2,6.1-3.9,8.5-10.2,8.4c-6.9-0.2-13.9-0.5-20.5-2.1c-13.4-3.3-26.7-6.2-40.6-6.3
		c-4.9-0.1-5.2,0-5.6,4.9c-0.8,9.1-0.6,9.4,8.5,10c3.7,0.3,7.5,0.7,11.2,0.6c12.8-0.4,24.6,3.4,36.5,7.6c8,2.8,16.5,4,24.8,5.9
		c1.6,0.4,3.2,0.4,4.7,1c4.5,1.8,6.7-0.6,7.9-4.4c3.3-10.3,6.6-20.5,9.6-30.9c10.2-34.6,20.3-69.3,30.2-104
		c5.1-17.9,10-35.9,14.5-54c1.4-5.7,1.6-11.8,1.8-17.8c0-1.4-2-3.7-3.5-4.2c-8.7-2.8-17.4-5.7-26.4-7.6c-13.2-2.9-26.6-5-39.9-7.5
		c-1.3-0.2-2.5-1-3.6-2.2c10.8-0.7,21.2,2.2,32.6,3.5c-1.7-7.7-3.4-15-4.8-22.4c-1.4-7.3-3-14.7-3.3-22.1c-0.3-7.3,1.3-8.3,7.1-8.5
		c2.7-0.1,5.4-1.5,7.9-2.6c12.9-5.5,25.7-11.1,38.6-16.6c6.3-2.7,12.6-5.1,18.9-7.5c1-0.4,2.3,0.2,3.5,0.3c-0.7,0.8-1.2,2-2.1,2.4
		c-20.7,8.8-41.5,17.5-62.3,26.1c-0.7,0.3-1.5,0.5-2.3,0.7c-6.3,1.5-7.3,2.7-6.3,9.4c1.1,7.1,2.7,14.1,4.1,21.2c1.2,6,2.3,12,3.7,18
		c0.3,1.3,1.4,3.2,2.5,3.4c8.4,2,16.9,3.6,26.2,5.6c-1.8-5-3.4-9.7-5.2-14.5c-1.3-3.6-2.6-7.3-3.9-10.9c-1.1-3.1-0.3-5.5,2.3-7.3
		c4-2.7,7.9-5.5,11.9-8c9.7-6.1,19.5-12.1,29.2-18.1c1.1-0.7,2.3-1.4,3.5-1.8c5.1-1.8,6.5-6.6,3.2-11c-1.4-1.8-2.9-3.5-4.2-5.4
		c-0.3-0.5-0.1-1.5,0.2-2.1c0.1-0.2,1.2-0.2,1.7,0c4.6,2.2,8,10.5,6.6,15.5c-0.8,2.9-2.3,5-5.5,5.6c-0.9,0.2-1.8,0.5-2.6,1
		c-13.3,8.4-26.6,16.8-39.9,25.1c-3.1,1.9-4.4,3.9-2.9,7.8c3.2,8,5.8,16.3,8.9,24.4c0.5,1.3,2.5,2.3,3.9,3.1c5.1,3,5.9,4.7,4.8,10.4
		c-0.8,4.1,0.1,7.9,1.5,12c3.9,11.4,7.1,23.1,9.8,34.9c2.1,9,4.8,17.6,8.1,26.2c5.5,14.3,9.8,29,14.4,43.6c0.9,2.7,1.9,3.9,4.9,3.9
		c8.1-0.1,16.3,0.5,24.4,0c6.5-0.5,12.7-3,17-8.4c3.6-4.4,5.3-4.4,8,0.7c0.1,0.2,0.2,0.5,0.4,0.7c2.6,5.2,6.1,7.7,12.7,7.8
		c42.4,0.5,84.8,1.5,127.2,2.7c22.2,0.6,44.5,2,66.7,3.1c0.9,0,1.8,0.9,2.7,1.4c-1,0.5-2,1.6-3,1.5c-45.6-1.6-91.1-3.4-136.7-4.9
		c-19.7-0.7-39.5-0.7-59.2-1c-0.8,0-1.5,0.1-3.4,0.2c2,2.9,3.7,5.1,5.2,7.5c3.1,4.6,2,7.1-3.2,8.9c-2.9,1-5.4,2.8-8.2,4
		c-6.1,2.9-12.1,6.2-18.5,8.4c-16.7,5.9-33.6,11.4-50.3,17.1c-4.1,1.4-5.5,0.6-6.7-3.5c-4-13.7-8.2-27.3-12.2-41
		c-0.6-2.1-1.8-2.9-4-3c-8.7,0-17.3-0.1-26-0.4c-2.6-0.1-3.7,0.8-4.4,3.3c-6.3,22.2-12.6,44.4-19.1,66.5c-1.7,5.6-4,11-6.4,16.3
		c-1.3,3-3.6,3.6-7.2,3c-16.2-2.7-32-6.9-47.4-12.6c-3.3-1.2-7-1.7-10.6-2c-6.4-0.5-12.8-0.5-19.2-0.9c-15.2-0.9-14.1-3.2-13-15.8
		c0.4-4.4,2.6-5.4,6.5-5.4c13.3-0.1,26.2,2.1,39.1,5.3c6.5,1.6,13.3,2.7,20,3.3c8.2,0.7,11.8-1.6,12-9.5c0.5-17.6,6.2-34,10.4-50.8
		c0.1-0.2,0-0.5,0-1.7c-80-1.4-160-2.7-240.3-4.1c0.4,4,2.6,4.3,4.8,4.8c10.7,2.3,21.3,4.5,31.9,7.1c1.3,0.3,3,2.8,2.9,4.3
		c-0.2,6.8-0.9,13.5-1.4,20.3c-0.3,3.8-2.1,5.8-5.9,5.3c-9-1.2-17.9-2.3-26.9-3.8c-8.8-1.4-17.6-3-26.2-5.1
		c-7.7-1.9-8.9-3.8-8.2-11.6c0.6-6.6,1.8-13.2,2.7-19.9c-35.8,0-71.6,0-108.1,0c0.7,5.8,1.1,10.9,1.9,15.9
		c3.3,20.6,6.8,41.3,10.1,61.9c0.5,3,0.4,6.1-0.1,9.1c-0.2,1.2-2.1,2.3-3.4,2.9c-0.6,0.3-1.8-0.6-2.7-1c0.6-0.7,1.3-1.3,1.8-2.1
		c0.7-1.1,1.7-2.4,1.6-3.5c-1.2-9.2-2.6-18.4-4.1-27.6c-3.9-23.5-7.8-47-8.8-70.9c-0.8-20.7-4.5-41.3-5.7-62
		c-1-17.8-0.4-35.7-0.2-53.5c0.3-20.4,0.9-40.8,1.4-61.1c0-0.5-0.2-1-0.5-2.2c-12.4,0-24.8,0-37.9,0c-0.3,12.5-1.2,25.4-0.7,38.3
		c0.7,17,2.6,34,4.1,51c1.5,16.9,2.9,33.7,4.6,50.6c1.5,15.8,3.4,31.5,5,47.3c1.6,16.4,2.8,32.9,4.8,49.3c1.5,11.7,4.1,23.3,6.2,35
		c0.7,3.8,1.5,7.6,2.3,11.7c8-2.8,15.7-0.1,23.7,0.1c0,0.6,0.1,1.2,0.1,1.8c-1,0.3-2,0.8-3,0.8c-3.5-0.1-6.9-0.7-10.3-0.6
		c-3.2,0.1-6.5,0.8-9.7,1.5c-1.9,0.4-3.6,1.3-4.2-1.7c-2.1-11.9-4.8-23.8-6.4-35.7c-2.2-16.2-3.8-32.5-5.5-48.8
		c-0.6-5.4-0.3-5.5-5.8-5.3c-40.1,1.4-80.2,2.7-120.3,4.4c-22,0.9-43.9,2.6-65.9,3.9c-3.3,0.2-5.5,1.4-7.3,4.4
		c-9.4,15.1-23.5,25.2-37.4,35.6c-13.2,9.9-27.5,17.5-44.1,19.5c-9.6,1.1-19.3,1.1-29.5,1.7c0.3,1.6,0.7,4,1.3,6.4
		c2.6,10.3,5.5,20.6,7.9,31c0.8,3.3,0.6,6.9,0.6,10.3c0,2.5-1.5,3.7-4,4c-11.1,1.3-22.2,2.9-33.3,4.2c-3.8,0.4-7.7,0.3-11.6,0.4
		c-2.8,0-4.2-1.4-4-4.2c0.8-16.2-3.3-31.7-6.1-47.4c-1.9-10.3-2.2-20.9-2.9-31.4c-0.4-6.2-0.1-12.5-0.1-19.7
		c-35.9,4.1-71.4,8.1-107.4,12.2c0.4,3.5,0.6,6.3,1,9.2c1.1,7.1,0.4,13.8-3.2,20.1c-0.7,1.1-1.3,2.8-2.3,3.2
		c-6.6,2.5-3.6,7.6-3.8,12.5c2.5-0.4,4.6-1,6.8-1.2c15.4-1.4,30.9-2.9,46.1,0.7c6.6,1.6,13.1,2.9,19.9,3.7
		c9.5,1.1,15.9,8.7,16.3,18.2c0.1,1.6,0.4,3.2,1.1,4.6c5,9.4,2,19.4-8.2,24.7c-11.8,6.1-23.9,6-35.3-1.7c-4.9-3.3-7.4-7.8-7-13.9
		c0.2-2.4,0-4.7,0-7.5c-12.7,0.1-25.2-0.7-37.2,5.2c3.8,6.6,3.8,13.7,1.4,20.7c-0.8,2.3-2.2,4.7-4.1,6.2c-9.7,8-20.9,11.8-33.5,9.6
		c-9.2-1.6-15.4-7.8-19.4-15.9c-3.1-6.2-0.5-12.5,1-18.7c0.3-1.3,0.9-2.5,1.4-4c-1-0.4-1.8-1-2.6-1c-7.4,0.4-14.9,0.5-22.2,1.6
		c-8.4,1.2-16.6,3.4-24.9,5.2c-0.9,0.2-1.8,0.4-2.7,0.7c-5.9,1.7-6.7,2.2-6.7,8.4c0,6.9-2.5,12.1-8.3,15.8c-1,0.6-2.1,1.3-3.2,1.5
		c-15.6,2.8-29.5,0-40.3-12.6c-11-12.8-6-28.1,10.4-32.5c5.9-1.5,11.8-2.2,17.7,0.1c1,0.4,2.7,0,3.5-0.7
		c13.1-9.9,27.8-14.3,44.1-13.7c12.2,0.5,24.5,1,36.7,1.5c0.8,0,1.5-0.1,2-0.2c-0.3-4.2-0.4-8.1-0.8-12c-0.1-0.8-1.1-1.7-1.9-2.2
		c-6.4-4.4-9.9-10.3-9.4-18.3c0.1-2.6-0.4-5.2-0.6-8.4c-8,1.1-15.7,2-23.3,3.1c-32.6,4.7-65.1,9.6-97.7,14.2
		c-4.9,0.7-10.1,0-15.2-0.2c-0.8,0-1.5-1-2.3-1.6c0.8-0.5,1.6-1.4,2.5-1.4c38.9,0.3,76.4-11.1,114.8-14.5c6.2-0.6,12.4-1.6,18.6-2.6
		c1-0.2,2.5-1.4,2.5-2.1c-0.1-10-0.4-20-0.6-29.9c-0.1-3.2-1.9-3.6-4.8-3.6c-13-0.1-26.1-0.5-39.1-0.7c-4.3-0.1-8.5,0-12.8-0.2
		c-12.2-0.6-24.4-1.4-36.2-5.4C82.6,795,75.7,788,70.7,779.3c-4.5-7.8-8.4-16.1-11.2-24.6c-5.4-16.4,0.2-30.8,14.3-40
		c0.4-0.3,0.9-0.8,1.4-0.8c6.1-0.7,5.9-4.7,5.7-9.5c-0.9-22.1-1.5-44.2-2.1-66.3c-0.1-4.7,0.2-9.3,0.4-14c0.2-3,0.7-3.5,4-4.3
		c-0.3,2.1-0.9,3.9-0.8,5.8c0.1,11.9,0.2,23.7,0.4,35.6c0.1,8.3,0.5,16.5,0.7,24.8c0.2,7.6,0.3,15.2,0.4,22.8c0,3.2-2.5,6.5,0.3,9.5
		c1.1,1.2,2.6,2.8,3.9,2.8c8.3-0.1,18.2-5,17.8-15.4c-0.3-9.4-1.7-18.8-2-28.2c-0.3-12.2,0-24.5,0-36.7c0-7.8,0-15.7,0-24.4
		c-7.7,0.5-15,0.9-22.2,1.3c-3.1,0.2-6.1,0.7-9.2,0.9c-5.7,0.4-8.2-1.5-10.3-6.7c-4.5-11.1-3.8-22.5-1.8-33.9
		c4.1-23.1,4.2-46.4,5.4-69.7c0.5-9.2,1.1-18.3,2.3-27.4c1-7.8,5.6-11.3,13.4-11.5c13.4-0.3,25.7,3.8,37.4,10c2.4,1.2,4.5,2.8,6.9,4
		c6.5,3.2,9.4,8.7,10.7,15.4c1.1,6,2.4,11.9,3.6,18c2.9-11.6,5.9-23.2,8.8-35c-0.5,0.3-0.9,0.6-1.3,0.7c-1,0.4-2.1,0.6-3.2,0.9
		c0.1-1.2-0.2-2.5,0.2-3.6c2.2-6,4.2-12,6.9-17.8c2.5-5.2,5.7-10.1,8.8-15c1-1.6,3-2.6,3.6-4.2c1.5-4.3,4.6-4.4,8.3-4
		c6.5,0.8,12.9,1.7,18.6,5.5c3.3,2.2,6.5,1.4,7.7-2.3c1.4-4.4,1.8-9.2,2.7-13.8c-0.5-0.2-1-0.4-1.5-0.6c-1.4,1.5-2.8,3.1-4.3,4.5
		c-1.7,1.7-3.4,3.5-5.4,4.7c-1.2,0.8-3.3,1.3-4.3,0.7c-0.9-0.5-1.2-2.7-1.2-4.1c0-2,0.4-3.9,0.8-7.2c-4.2,2.6-7.5,4.6-10.8,6.6
		c-1.9,1.1-4.1,4-6.1,1.4c-0.9-1.2,0.1-4.5,1.1-6.4c2.6-4.5,5.7-8.6,9.3-13.9c-3.6,0.3-6.4,0.2-9.1,0.8c-3.9,0.8-7.6,2.4-11.5,3.2
		c-1.5,0.3-3.2-0.5-4.8-0.8c0.5-1.5,0.8-3.2,1.5-4.6c0.7-1.3,1.9-2.2,2.8-3.4c2.9-3.7,2.3-7.6-1.6-10.1c-4.6-2.9-5-4.1-1.9-8.6
		c3.1-4.4,4.3-8.3,0.1-12.9c-0.9-1-0.4-4,0.2-5.7c0.9-2.3,2.9-4.2,3.8-6.5c0.7-1.8,0.3-4,0.4-6c0.1-1.8,0.1-3.6,0.5-5.4
		c0.4-1.9,1.2-3.7,1.5-4.7c-2.2-1.9-4.8-3-5.2-4.7c-0.4-1.8,1.2-4.1,2.2-6.8c-4.1-0.3-7.8-0.3-11.4-0.8c-2-0.3-4-1.4-6-2.2
		c1.1-1.9,1.7-4.3,3.3-5.5c9.3-6.7,18.7-13.1,28.2-19.6c0.8-0.5,1.6-1,2.7-1.6c-3.2-3.7-0.6-5.8,2.1-8.1c1.8-1.5,3.5-3.3,4.9-5.2
		c1.3-1.6,0.7-3-1.3-3.6c-2.3-0.6-4.7-0.9-7-1.7c-1.3-0.5-2.2-1.8-3.4-2.8c1.1-1,2-2.6,3.3-3c3.4-1.1,7-2.1,10.5-2.3
		c7.4-0.4,14.9-0.3,22.4-0.3c2.1,0,3.9,0.9,2.9,3.4c-0.3,0.7-2.4,1.6-2.9,1.2c-5.5-4-11.6-1.6-17.3-1.7c-4.3-0.1-8.6,1.1-13,2.6
		c1.8,0.5,3.6,0.9,5.4,1.5c4.5,1.4,5.7,4.2,3.1,8.2c-1.4,2.2-3.7,3.8-5.3,5.9c-0.8,1-1.3,2.6-1.1,3.8c0.5,2.8-0.7,4.1-2.9,5.4
		c-8.6,5.4-17,10.9-25.4,16.6c-1.9,1.3-3.5,3.1-6,5.3c4.5,0.4,8.2,0.7,11.8,1c5.9,0.6,6.5,1.9,4.1,7.5c-0.3,0.6-0.5,1.2-0.7,1.8
		c5.3,1.6,6.2,3.2,4.3,8.5c-1,2.6-1,5.1-0.9,7.9c0.1,3.5-1.7,7.4-3.6,10.6c-1.8,3-2.6,5.1,0.1,8c2.5,2.6,2.1,5.9,0.6,9
		c-1.1,2.2-2.5,4.4-3.5,6.1c2.9,3.4,7.4,6.3,7.8,9.6c0.4,3.3-3.2,7.2-5.1,11.1c2.3-0.7,4.8-1.7,7.4-2.1c4.2-0.7,8.4-1.5,12.6-1.4
		c4,0.1,4.7,2.2,2.4,5.6c-2.6,3.9-5.4,7.6-8.1,11.4c-0.3,0.4-0.4,0.9-0.9,2.2c3.3-2,5.7-3.8,8.4-5c2-0.9,4.5-0.9,6.7-1.4
		c0.3,2.2,0.7,4.3,0.9,6.5c0.1,1.1-0.3,2.3-0.6,4.6c2-1.6,3.4-2.4,4.2-3.6c4.6-6.2,9.1-12.5,13.7-18.6c1.6-2.1,3.7-3.9,5.6-5.8
		c1,2.5,2.3,4.9,3,7.4c1.5,5.9,2.7,12,4,18c0.6-0.1,1.1-0.2,1.7-0.2c0-6.3-0.2-12.6,0.1-19c0.2-5.8,0.6-11.7,1.4-17.4
		c0.6-3.8,2.7-4.6,6.1-2.9c2.8,1.4,5.5,3.3,8.2,4.9c2.3,1.4,4.7,2.8,7.1,4.2c0.3-0.2,0.6-0.5,0.8-0.7c-1.2-3-2.5-6-3.4-9.1
		c-0.5-1.6-0.1-3.5-0.1-5.3c1.7,0.2,3.6,0,5.2,0.5c3,1,5.8,2.4,8.7,3.6c0.3-0.2,0.7-0.5,1-0.7c-0.8-3.3-1.2-6.7-2.4-9.8
		c-2.2-5.3-4.9-10.3-7.2-15.6c-0.5-1.1-0.2-2.6-0.2-4c1.2,0.6,2.8,0.9,3.4,1.9c1.2,1.9,2.3,4.1,2.7,6.4c0.7,4.6,4.9,3.8,7.2,5.5
		c2.4-5.7,4.6-11.2,7.1-16.6c0.5-1,1.8-1.7,2.7-2.5c0.4,1.1,1.2,2.3,1.2,3.4c0.1,5.3,0.1,10.7,0.7,16.1c1.4-4.9,2.6-9.9,4.1-14.8
		c2.8-9.4,5.8-18.8,8.8-28.2c0.3-0.9,1.3-2.3,1.8-2.2c1,0.2,1.9,1.1,2.6,1.9c2.6,2.9,5.1,6,7.8,8.9c0.5,0.6,1.6,0.6,2.8,1
		c0-3.1-0.4-5.9,0.1-8.6c1-5.6,4.4-7.1,9.3-4.2c3.2,1.9,6,4.5,9,6.7c1.4,1,2.9,1.8,5.1,3.1c0.5-3.5,1-6.3,1.4-9.1
		c0.1-0.8-0.1-1.6,0.2-2.4c0.6-2.1,1.4-4.1,2.1-6.2c1.4,1.5,2.9,3,4.3,4.5c0.3,0.3,0.4,0.7,1.3,0.8c0-0.6,0.1-1.1,0.1-1.7
		c0.3-3.3,1.6-4,4.3-2.1c2.9,2.1,5.5,4.7,8.6,6.5c4.4,2.5,9,5.5,13.9,6.2c4.3,0.6,9.2-1,13.5-2.6c4.8-1.7,5.9-4.8,5-9.6
		c-6.9,0-13.6,0.1-20.4-0.1c-1,0-2-1.3-3-2c0.8-0.7,1.5-2.1,2.3-2.1c6.7-0.1,9.2-5.9,14.3-9.2c-6.5-2.3-11.8-4.5-14.6-10.3
		c-0.5-1-2.5-1.3-3.8-1.7c-2.7-0.8-4.7-2.1-5.4-5.2c-0.3-1.1-1.6-2.2-2.7-2.9c-3-1.8-3.4-3.4-0.9-5.9c1.7-1.8,3.6-3.4,5.4-5.1
		c-0.1-0.4-0.2-0.7-0.3-1.1c-7.9-0.2-15.8-0.4-23.7-0.7c-4-0.1-8-0.2-12-0.4c-2.6-0.2-4.6-1.1-2.4-4.9c-3.9-0.4-7.2-0.7-10.4-0.9
		c-3.2-0.3-5.7-1.2-6-5.1c-0.1-0.7-1.3-1.6-2.2-2c-1.4-0.7-3-1-4.5-1.5c0.6-1.6,1.3-3.3,2-4.9c0.2-0.5,0.7-1,0.7-2
		c-5.3,2-10.6,4-15.9,6.1c-1.2,0.5-2.4,1.1-3.6,1.6c-7.8,3.3-9.9,2.5-12.7-5.4c-6,4.4-7.5,3.9-10.9-3.1c-0.7-1.5-1.6-3-2.5-4.4
		c-0.5-0.1-0.9-0.1-1.4-0.2c-1.8,5.3-3.9,10.6-5.3,16c-1.2,4.8-2.2,5.8-7.1,4.4c-5.4-1.5-10.7-3-16.7-4.7c0,4.7,0.1,8.4-0.1,12.2
		c0,1-0.9,2-1.4,3.1c-0.5-1-1.4-1.9-1.4-2.9c-0.2-3.7-0.1-7.5-0.2-11.2c0-2.8,1.6-4,4.1-3.6c4.6,0.8,9.1,2,13.6,3
		c1.8,0.4,3.5,0.9,5.1,1.3c1.7-5,3.1-9.5,4.7-14c0.5-1.4,1.2-2.7,1.9-4c2.5-4.4,5-4.4,7.6-0.2c0.8,1.2,1.3,2.6,2,3.9
		c0.7,1.3,1.4,2.5,2.6,4.5c1.5-1.8,2.5-3.3,3.7-4.5c0.9-0.8,2.1-1.7,3.2-1.8c0.5,0,1.5,1.7,1.7,2.7c2,8.5,2,8.4,10.3,4.9
		c9.8-4.1,19.8-8,29.7-11.8c1.3-0.5,2.9,0,4.3,0.1c-0.9,1.3-1.5,2.9-2.7,3.8c-3.6,2.7-7.4,5.1-11.1,8.1c3.7,0.2,5,2.2,5.7,5.2
		c0.3,1.1,1.9,2.4,3.1,2.7c2.3,0.6,4.9,0,7.1,0.8c2.3,0.8,4.2,2.6,6.4,3.9c1.3,0.8,2.8,1.7,4.3,1.7c9.4,0.4,18.9,0.5,28.3,0.8
		c0.8,0,1.6-0.1,2.4,0.1c1.6,0.5,3.1,1.1,4.6,1.7c-0.7,1.5-1.3,3.1-2.3,4.3c-1.5,2-3.3,3.8-4.6,5.2c1.2,2.1,2.3,4.6,3.9,6.7
		c0.9,1.1,2.5,2,3.9,2.3c2.7,0.7,4.2,2.1,5.8,4.5c1.9,2.8,5.8,4.3,8.9,6.2c1.1,0.6,2.7,0.4,3.9,0.9c2,0.9,3,1.9,0.9,4.1
		c-3,3.2-5.7,6.7-8.4,10c3,0.8,7.1,0.8,10.9-1.4c2.8-1.6,3.9-1.1,4.5,2.1c1.3,7.5-1,11.9-8,14.9c-6.6,2.8-13.4,3.2-20.2,1.4
		c-0.6,4.9-1.1,9.5-1.7,14.1c-0.3,2.5,0.6,3.6,3.3,3.6c2.8,0,5.6,0.3,8.4,0.6c2.5,0.2,3.9,1.6,3.8,4.2c-0.1,5.2-0.9,10.1-3,15.1
		c-2.5,5.8-3.4,12.2-4.8,18.4c-0.6,2.6-0.8,5.3-1.1,7.9c-0.8,7.8-2.8,9.6-10.9,9.5c-0.5,4.7,2.6,10.5-2.9,13.8
		c-4.9,2.9-9.8,0.9-15.2-1.6c-5.2,14.8-11.6,28.8-26.5,36.8c8.6,1.2,16.9,1.8,24.8,3.6c12.4,2.9,24.7,6.6,37,10.1
		c5.9,1.7,11.5,1.9,17.6,0.1c14.3-4.2,28.8-7.8,43.2-11.5c2-0.5,2.8-1.3,2.7-3.6c-0.3-7.9-0.3-7.4,7.6-7.1
		c6.3,0.2,12.7-0.9,19.1-1.4c0.5,0,1.1-0.2,1.6-0.3c8.1-1.1,8.5-0.9,12.3,6.2c14.1-6,29.2-6.6,44.1-7.9c10.2-0.9,19.9,0.4,28.9,5.8
		c8.6,5.2,14.3,12.8,16.7,22.5c2.8,11.6,3.3,23.3-1,34.6c-1.8,4.7-4.9,9-7.7,13.9c1.4,0.1,3,0.4,4.6,0.4c21.1-0.2,42.1-0.4,63.2-0.6
		c5.7,0,11.5,0.3,17.2,0.6c0.9,0.1,1.7,1.2,2.5,1.8c-0.9,0.3-1.8,1-2.7,1c-23.9,0-47.7-0.1-71.6-0.2c-18.9,0-37.8,0.1-56.7,0.1
		c-5.4,0-10.9-0.5-16.2-0.2c-9.4,0.6-18.8,1.8-28.2,2.7c-6.2,0.6-12.5,1-18.7,1.8c-1.3,0.2-3.4,1.6-3.6,2.6
		c-0.9,7.8-2,15.6,0.2,23.8c2.3-0.8,4.5-1.5,7.6-2.5c-0.7,2-1,3-1.3,3.8c23.6-1,47.3-2.1,71-3c43.3-1.5,86.6-3.4,129.9-1.5
		c4.1,0.2,8.3-0.3,12.4,0.3c5.5,0.9,8.3-2.2,10.4-6.2c2.4-4.5,0.6-8.5-1.9-12.3c-4.4-6.9-11.3-8.2-18.7-8.5c-2.5-0.1-5.1,0-7.6-0.2
		c-0.7-0.1-1.4-0.9-2.1-1.3c0.7-0.6,1.5-1.7,2.2-1.7c3.3,0,6.7,0.1,10,0.5c3.4,0.4,4.7-0.9,5.1-4.3c1.2-11.1,2.9-22,8.3-32.2
		c3.9-7.3,6-15.6,8.4-23.6c6.3-20.5,12.3-41.1,18.3-61.6c3.4-11.5,6.7-23,9.7-34.6c2.7-10.2,6.9-19.6,13.1-28.1
		c3.3-4.6,13.7-4.8,16.3,0.2c1.5,3,1.2,7.6,0.3,11.1c-1.2,5-3.7,9.7-5.6,14.5c-5.3,13.2-11,26.3-15.6,39.8c-2.8,8.1-3.3,17-5.8,25.3
		c-6.9,23.5-14.3,46.9-21.5,70.3c-2.4,7.8-5.2,15.4-7.3,23.3c-1,3.7-2.5,4.6-5.9,3.4c-1.5-0.5-3-0.7-4.6-1c2.8,4.4,6.1,8.3,8,12.7
		c2.1,5,0.6,9.9-3.9,14.5c2.2,0.2,3.6,0.3,5,0.3c28.5,0.2,57.1,0.3,85.6,0.4c4.7,0,4.5,0,3.8,4.5c-0.4,2.4,0,5.1,0.5,7.5
		c1.6,9.2,3,18.4,8.5,26.4c1.2,1.7,1.8,3.8,2.6,5.8c1,2.6-0.8,3.1-2.7,3.2c-4.5,0.3-9,0.5-14,0.8c0,1.5,0,2.9,0,4.4
		c0,7.7,0.2,15.5,0,23.2c-0.7,19.6-1.7,39.1-2.2,58.7c-0.4,14.7,0.5,29.2,2.8,43.8c1.9,11.4,1.8,23.1,2.6,34.7
		c0.6,8.3,1.4,16.7,2.2,25.3c0.9,0.1,1.9,0.3,3,0.3c34-0.3,68-0.6,102-0.8c2.3,0,3.5-0.5,4-3.1c3.6-21.9,9.5-43.2,16.9-64.1
		c3-8.4,5.7-17,7.6-25.7c4.9-23.1,14.4-44.6,21.4-67c0.2-0.5,0.4-1,0.6-1.5c5.4-12.6,7.6-13.8,21.2-11.8c8.4,1.2,16.8,2.4,25.5,3.6
		c0.9-7.1,1.6-14.1,2.7-21c3-19.1,6-38.1,9.1-57.2c1.1-6.4,2.7-12.7,3.9-19.1c0.7-3.8,3.4-5.2,6.8-5.7c13.6-1.7,27.2-3.7,40.9-4.8
		c11.8-0.9,23.7-0.8,35.5-1c1.6,0,3.2,0.3,4.8,0.5c2.5,0.3,3.4,1.9,2.9,4.3c-0.3,1.4-0.5,2.9-1,4.3c-3.1,8.1-3.9,16.6-3.8,25.2
		c0.1,3.1-1.2,4.2-4.2,4.4c-17.1,1.5-34.2,3.2-51.3,4.7c-2.3,0.2-3.9,0.7-4,3.4c-0.6,19.9-8.6,38-13.1,57
		C991.4,623.6,990.6,627,989.7,630.7z M531.4,804.2c63.4-2.9,127.8-5.9,192.5-8.8c-0.1-1.1-0.2-2.5-0.3-3.9
		c-2-19.6-4.2-39.2-6.1-58.8c-1.8-18.6-3.1-37.2-5.1-55.7c-2.1-19.4-3.6-38.7-2.2-58.2c0.4-5,0.1-10.1,0.1-15.2
		c-104.2-9.8-208.1-5.7-311.3,3.9c0.3,4.9,0.8,9.5,0.9,14.1c0.2,6,0.2,12,0,18c-0.1,3.3,1,5.5,3.4,7.5c4.5,3.8,9,7.6,13,11.9
		c9.8,10.5,20,20.7,26,34.2c2.6,5.8,6.1,11.2,9,16.8c5.1,10.1,10.5,20,15,30.4c4.2,9.6,2.6,9.4,13,6.3c5.6-1.7,11.2-2.8,16.9-1.1
		c7.1,2.2,14.3,4.4,21.2,7.1c11.5,4.6,18.8,16.4,17.5,28.6C533.9,789.1,532.4,796.9,531.4,804.2z M105.6,667.4
		c1.6,0.5,3.2,0.5,3.7,1.2c2,2.8,4.8,2.5,7.6,2.3c2.5-0.2,5-0.7,7.5-1c13.9-1.9,27.5-4.2,40.3-10.9c8.3-4.3,17.4-6.7,27-5.9
		c1.6,0.1,3.3,0,4.7-0.6c9.9-3.5,19.9-6.7,28.7-12.9c4.9-3.5,10.1-6.4,15.1-9.7c1.1-0.8,2.5-1.9,2.8-3.1c1.6-5.2,3.3-10.4,4.2-15.8
		c1.6-9.3,2.6-18.7,3.9-28c0.1-1,0.8-2.3,1.6-2.8c14.4-8.1,29.6-14.1,46.1-16c12.1-1.4,24.3-2.2,35.5-7.3
		c14.5-6.7,28.8-13.8,43.1-20.9c16.3-8.1,32.5-16.2,51.5-15.4c0.3,0,0.7-0.3,1.4-0.7c-1.8-18.1-3.7-36.3-5.5-54.5
		c-0.9,0.1-1.6,0.1-2.2,0.3c-14.1,3.8-28.4,7.2-42.4,11.4c-6.8,2.1-13,1.8-19.5-0.1c-11-3.2-22-6.4-33.1-9.3
		c-17.2-4.5-34.6-3.8-52-2.1c-12.4,1.2-24.6,3.4-35.7,9.3c-2.7,1.4-5.4,3-8.1,4.3c-0.7,0.3-1.7,0.1-2.5,0.1c0.3-0.9,0.3-2.1,0.9-2.6
		c1.3-1.1,2.8-1.9,4.2-2.8c-4.3-0.3-8.3,0-12.3,0.4c-11,0.9-22,1.1-32.6,5.1c-6.4,2.5-13.5,1.3-20.4-0.2c-14.1-3-15.8-1.5-19,10.3
		c-2.2,8.2-3.5,16.6-5.6,24.9c-2,8.2-4.8,16.2-6.7,24.5c-3.5,15.4-6.5,31-9.8,46.5c-1.6,7.7-3.3,15.3-5.4,22.9
		c-1.3,4.5-4.4,7.5-9.5,7.9c-2.1,0.2-4.2,0.5-5.6,0.7C106.8,633.9,106.2,650.7,105.6,667.4z M756.8,560.2c-1.8,0-3.4,0-5,0
		c-33.1-0.2-66.1-0.4-99.2-0.7c-22-0.2-44-1.1-66-0.7c-31.3,0.5-62.6,1.6-93.9,2.7c-16,0.6-32,1.4-47.9,2.4
		c-29,1.9-57.9,4.1-86.9,6.2c-3.3,0.2-6.5,0.8-9.9,1.2c1.4,15.4-3.9,31.3,7.6,44.9c1.6-7.8,1.8-8,4.9-6.3c-0.4,3-1.2,5.7-1.2,8.4
		c-0.2,12.9-0.6,25.9-0.2,38.8c1,27.4,2.5,54.8,3.9,82.2c0.4,8.2,1.9,16.4,2.3,24.6c0.4,8.1,0.1,16.2,0,24.3c0,11.3,0.3,22.7-0.1,34
		c-0.7,17.8-0.5,35.4,3,52.9c2.4,12,4,24.1,5.9,36.2c0.6,3.5-0.2,8.9,1.7,10.1c2.8,1.7,7.4,0.3,11.3,0.3c0.5,0,1-0.2,1.6-0.3
		c9.2-1.2,18.5-2.5,27.7-3.6c4.6-0.5,5.5-1.1,4.6-5.7c-1.3-7.6-3-15.1-4.9-22.6c-2.1-8.4-5.2-16.5-6.6-25
		c-2.4-14.2-3.2-28.6-5.6-42.7c-3-17.5-4.8-35.1-5.1-52.8c-0.8-40-1.6-79.9-2.4-119.9c-0.1-2.9-0.1-5.7-0.1-8.6
		c0-9.1,0.3-18.1-0.1-27.2c-0.2-5-1.7-5.6-6.7-5.3c-6.1,0.4-12.2,0.4-18.4,0.6c-0.5,0-1.2,0.1-1.6-0.1c-0.8-0.7-1.4-1.6-2.1-2.4
		c0.9-0.3,1.9-0.9,2.8-0.9c1.6-0.1,3.2,0.4,4.7,0.3c21.8-1.5,43.6-3.1,65.4-4.5c28.4-1.8,56.9-4.6,85.4-5.1
		c46.9-0.8,93.8-2.8,140.7,1.3c18.4,1.6,36.9,2.8,55.4,3.8c9.5,0.5,19.1,0.1,28.7,0.1c0.5-0.8,1.1-1.8,1.7-2.9
		c0.7,0.8,1.3,1.7,2.1,2.5c0.5,0.5,1.2,1.2,1.8,1.3c3.8,0.1,7.6,0.1,12.8,0.1C760.5,588.6,757.8,574.9,756.8,560.2z M77.6,716.2
		c-10.4,5.1-16.7,14.4-16.6,26c0,14.6,6.9,26.8,14.5,38.6c5.8,9.1,14.3,14.3,24.5,16.5c7.9,1.7,16,2.9,24.1,3.5
		c10.3,0.8,20.7,0.6,31,1.1c34.1,1.6,67.8-3.9,101.6-6.1c15-1,29.9-3.7,44.7-6c11.8-1.9,23.6-4,35.2-6.8c8.2-2,11.8-7.6,12-15.9
		c0.2-10.7,0.2-21.3,0-32c-0.1-2.3-1.2-4.9-2.5-6.9c-7.1-10.9-18.4-15.4-30.1-19.9c-18.5-7.1-38.3-6.3-57.4-9.2
		c-13.8-2.1-28.1-1-42.2-1c-7.3,0-14.7,0.2-21.9,1.4c-16.5,2.8-33,5.8-49.4,9.5c-11.3,2.6-22.6,3.1-34,3.3c-1.5,0-3.7,0.6-4.3,1.7
		c-3.1,5.2-7.9,7.7-13.4,9.3c-4.3,1.2-8.1,1.1-11.1-2.9C81.1,718.9,79.4,717.8,77.6,716.2z M359.2,742.3c-1.3-37-2.7-75.1-4.1-113.7
		c-8.2-4-17.8-5-27.5-5.8c-18.4-1.5-36.3,2.8-54.3,5.5c-9,1.4-17.9,4-26.7,6.5c-6.2,1.8-13,3.2-18.3,6.7
		c-9.2,6.1-19.2,9.7-29.3,13.6c-2.4,0.9-5.3,1.4-7.8,1.2c-9.3-0.7-17.9,1.7-25.8,5.9c-11,5.7-22.7,8.6-34.8,10
		c-7.9,0.9-16,4.9-24.3-0.8c1,12.9,2,25.1,3,37.7c2.1,0.1,4.6,0.3,7.1,0.4c15.5,0.4,30.6-2.8,45.3-6.6c27.9-7.1,56-8.7,84.4-7.9
		c11,0.3,21.9,3.1,32.9,3.7c13.6,0.7,26.7,3,39.5,7.4c11.9,4.1,23,9.5,30.6,20C353,731.5,356.2,737.5,359.2,742.3z M531.7,779.4
		c0.2-10.5-4.9-18.4-13.9-22.8c-8-3.9-16.8-6-25.3-8.6c-2-0.6-4.5-0.2-6.7,0.2c-10.8,2.3-21.4,5.2-31.2,10.4
		c-2.5,1.3-5.1,2.4-7.6,3.5c-13.3,5.5-26.5,11.1-39.8,16.4c-3.9,1.6-5,4-4.5,8c3.4,24.4,6.8,48.8,9.9,73.2c0.5,3.9,2.3,5.2,5.8,5.5
		c14.3,1.2,28.3,0,41.6-5.2c21.4-8.4,38.8-22.7,54.6-38.9C525.7,809.8,532.7,796,531.7,779.4z M98.8,612.9c0,0.2,0,0.5,0.1,0.7
		c1.7,0,3.5,0,5.2,0c13.1,0.1,15.7-2,18.3-14.8c0.1-0.3,0.1-0.5,0.2-0.8c4.3-21.1,6.7-42.6,12.9-63.4c0.5-1.7,0.4-3.7,0.6-5.5
		c1-10.5-0.2-20.8-2.9-30.9c-1.1-4.3-2.6-8.6-7.3-10.9c-3.1-1.5-5.8-3.8-8.9-5.4c-11.4-6-23.2-10.1-36.3-9.4
		c-5.4,0.3-8.4,2.6-9.5,7.9c-0.7,3.2-1.3,6.6-1.5,9.9c-0.7,13.9-0.9,27.8-1.9,41.7c-1.1,15.1-2.7,30.2-4.4,45.3
		c-1.2,10.7-3,21.4,1.1,32c2.3,5.8,3.6,6.7,9.8,6C82.4,614.3,90.6,613.6,98.8,612.9z M198.2,447.6c9.2,7.5,18.9,12.9,30.3,15.2
		c5,1,10.4,1.6,14,6.1c0.3,0.4,1.5,0.5,2.1,0.3c5.8-1.8,11.7-3.6,17.8-5.6c-2.3-0.6-4.5-1.1-6.6-1.6c-10.7-2.6-19.7-8.6-28.3-15.2
		c-1.9-1.4-3.8-3.4-2-6.5c3,2.6,5.5,5.2,8.4,7.4c12.9,9.5,27.3,13.2,43.4,13.7c20.3,0.7,33.8-9.8,41.6-27.5c1.8-4,3.5-8.1,5-12.2
		c0.9-2.6,2.2-2.4,4.2-1.3c2.5,1.2,5.1,2.4,7.8,2.8c3.9,0.6,5.5-1.3,5.8-5.2c0.4-5.2-2.4-7.5-6.6-10.4c-11.4-8-21.8-17.5-33.2-25.5
		c-8.2-5.7-17.4-10-27.1-15.5c-0.9,5.3-1.4,9.2-2.3,13c-0.3,1.4-1.4,2.5-2.1,3.8c-1-1.1-2.6-2-2.9-3.3c-1.1-4.5-1.8-9.2-2.9-14.6
		c-1,3.7-1.9,6.9-2.7,10c-0.7,2.9-2.2,3.8-5,2.3c-0.6-0.3-1.3-0.4-1.8-0.6c0.8,3.7,1.7,7.2,2.3,10.8c0.9,5.6-0.9,7-6.1,5.2
		c-2.8-1-5.5-2.2-9-3.6c1.5,3.7,2.9,6.5,3.8,9.4c0.5,1.5,0.8,4.2,0,4.7c-1.2,0.9-3.6,0.9-5.1,0.3c-2.7-1-5.1-2.7-7.7-4.2
		c-2.8-1.7-5.6-3.4-9.4-5.7c-0.5,5.6-1.2,10.1-1.3,14.5c-0.2,8.1,0.1,16.3-0.2,24.4c-0.1,1.8-1.5,3.6-2.2,5.5
		c-1.4-1.4-3.5-2.5-4.1-4.2c-1.9-5.8-3.4-11.7-5-17.6c-0.4-1.5-0.6-3.1-1.2-5.8c-2.5,4.1-4.5,7.1-6.1,10.3c-0.7,1.3-0.8,3.1-0.7,4.6
		C203.7,433.7,204.1,441.3,198.2,447.6z M429,525c0.2-0.4,0.4-0.9,0.6-1.3c-4,0.2-8-0.1-11.9,0.6c-15.3,2.6-29,9.6-42.6,16.6
		c-12.4,6.4-25.1,12.4-37.8,18.2c-9,4.1-18.6,6.3-28.6,7.1c-12.4,1-24.6,3.4-36.2,7.9c-1.9,0.7-4.1,2.7-4.7,4.6
		c-1.1,3.3-1.2,7-1.7,10.5c-1.6,11.3-3.3,22.6-4.9,34c-0.2,1.4-0.3,2.8-0.4,4.2c7.5-1.3,14.5-2.3,21.6-3.7c24.5-4.6,49-7.4,73.9,1.8
		c-0.3-2.4,0.1-5.6-1-6.2c-6-3.6-8.2-9.4-9.2-15.5c-1.1-6.9-0.8-14-1-21.1c-0.1-3.6,0-7.1,0-10.5c-1.5-0.5-2.9-1-4.2-1.5
		c0-0.6,0.1-1.3,0.1-1.9c30.7-3.6,61.7-3.4,92.2-7.5c0-9.1,0-17.8,0-26.5c0-0.9,0.3-2-0.1-2.7C431.9,529.7,430.4,527.4,429,525z
		 M466,459.9c0,0.5-0.1,0.8-0.1,1c4.2,19.1,8.3,38.2,12.5,57.3c0.2,0.8,0.8,1.9,1.4,2.1c6.5,1.7,13,4.3,19.6,4.8
		c11,0.7,22.1-0.6,33.1,0.3c9.7,0.8,13.9-4.9,17.8-11.8c0.6-1,0.8-2.2,1.2-3.4c3.8-10.7,3.6-21.5,0.8-32.3
		c-3.8-14.4-13.7-23.2-28.1-25.5c-8.1-1.3-16.7-0.5-25,0.2C487.9,453.6,476.5,454.6,466,459.9z M1219.7,847.4c1-0.3,1.6-0.4,2.2-0.6
		c16.3-5.5,32.7-10.6,48.8-16.6c10.5-3.9,20.5-9.2,31.2-14.1c-5.5-8.2-10.5-15.9-15.8-23.8c-1.5,1.7-2.6,3.8-4.4,4.7
		c-10,5.2-19.2,12.1-31,13c-3.3,0.2-6.7,0.4-9.9,1.2c-3.6,0.9-4.9-0.8-5.6-3.8c-1.1-4.7-1.9-9.4-3.5-13.9
		c-5.5-16.3-11.3-32.4-17-48.6c-0.8-2.4-1.6-4.8-2.2-7.3c-1.9-8.8-3.6-17.8-5.7-26.6c-1.3-5.6-3.2-11-4.8-16.6
		c-5.4,16.2-9.9,32.1-14.3,48c-0.3,1-0.4,2.2-0.1,3.1c4.2,13.8,8.3,27.5,12.7,41.2c4.2,13.3,8.9,26.5,13.1,39.8
		C1215.8,833.4,1217.7,840.3,1219.7,847.4z M402.8,776.6c21.3-8.8,42.6-17.6,63.9-26.5c-5.8-15.1-11.1-29.4-20.3-41.9
		c-1.7-2.2-3.5-4.6-4.3-7.2c-3.9-12.3-11.7-22.1-20.1-31.4c-6.6-7.3-13.9-14.1-21-21c-0.5,0.2-0.9,0.5-1.4,0.7
		C400.7,691.8,401.7,734.2,402.8,776.6z M986.4,629.7c2.3-8.4,4.7-16.5,6.8-24.7c3.1-12.4,6.4-24.7,8.6-37.3
		c1.8-10.5-1.1-10.4,12-11.6c14.6-1.3,29.2-2.6,43.7-3.9c2.8-0.2,3.9-1.2,4.2-4.4c0.8-7.5,2.3-14.9,3.5-22.4
		c0.3-1.8,0.8-3.5,1.2-5.3c-1.1-0.2-1.6-0.5-2.1-0.5c-26.6-1.3-53,1.5-79.2,5.9c-1.3,0.2-3.1,1.9-3.4,3.2c-1.6,6.4-3,13-4.1,19.5
		c-2.5,14.8-4.9,29.7-7.2,44.5c-1.5,9.9-2.7,19.8-3.9,29.7c-0.2,1.7-0.3,3.4,2.2,3.8C974.6,627.3,980.5,628.6,986.4,629.7z
		 M353,737.5c-0.4,0.1-0.7,0.1-1.1,0.2c0,1.6,0,3.1,0,4.7c-0.1,8.7-0.1,17.3-0.4,26c-0.2,9.4-5.6,15-14.1,17.7
		c-4.5,1.4-9.3,2.2-14,3c-17.9,2.9-35.8,5.8-53.7,8.5c-6.8,1-13.6,1.6-21.3,2.5c1.6,9.5,3.3,18.6,4.7,27.8c0.5,3.6,2.2,4,5.4,3.7
		c30-3.5,60.1-6.9,90.1-10.4c4.4-0.5,8.9-1,13.6-1.6c0-2,0-3.4,0-4.9c-0.2-16.1-0.7-32.2-0.7-48.4
		C361.6,755.6,356.8,746.8,353,737.5z M188.9,805.1c0.3,4.7,0.7,9.4,0.8,14.2c0.3,11.6,0.4,23.2,0.6,34.7c0,5.1,2.4,8.9,6.1,12
		c4.2,3.5,9.3,4.9,14.7,5.5c10.5,1.2,20.2-2,30.3-4c7.1-1.4,9.5-5.9,11.1-11.7c0.6-2.4,0.8-5.1,0.5-7.5c-2.3-16.1-4.8-32.2-7.2-48.8
		C226.7,801.4,207.7,803.2,188.9,805.1z M303.4,883.4c-1.7-0.6-2.6-1-3.5-1.2c-16.5-3.1-33.1-2.5-49.6-0.1c-2.7,0.4-4,1.4-4.5,4.4
		c-1,6.7-4.8,9.5-11.6,9.5c-4,0-8-0.1-12,0c-7.8,0.3-14.6-1.9-20.4-7.2c-0.7-0.7-1.9-1.1-2.9-1.1c-6.3-0.6-12.6-1.2-19-1.5
		c-5.1-0.2-10.1-0.2-15.2,0c-7.6,0.4-15.2,0.5-22.6,1.7c-8.9,1.4-16.6,5.8-23.7,11.3c6.5,5.5,12.7,10.8,18.8,16
		c11.6-3,23.1-6.7,34.8-8.8c7.4-1.3,15.3-0.6,23-0.1c2.1,0.1,3.2,0.2,4.6-1.4c4.2-5,9.5-7.5,16.2-6.8c2.6,0.3,5.3,0.4,8,0.4
		c7.9,0.1,14.1,4.3,20.1,8.7c2,1.5,3.5,2.1,5.7,1.1c8.9-3.8,18.3-4.5,27.8-4.2c2.4,0.1,4.8,0.2,7.2-0.2c1.3-0.2,2.9-1.3,3.4-2.3
		C291.2,894.2,295.4,887.8,303.4,883.4z M668.5,527.1c2.9-8.8,5.7-17.4,8.6-26c8.2-23.7,16.7-47.2,21.6-71.9
		c2.3-11.2,4.7-22.3,9.4-32.9c5.5-12.4,10.1-25.2,14.9-37.9c1.2-3.2,1.9-6.6,2.6-10c0.5-2.5,0.4-4.8-2.9-5.6
		c-3.3-0.8-6.5-2.6-9.2,1.5c-5.4,8-9.6,16.5-12.1,26c-2.8,11-5.1,22.1-9.1,32.7c-8.1,21.2-13.3,43.3-19.4,65
		c-2.2,7.9-4.5,16.1-8.3,23.2c-5.3,9.7-6.4,20.2-8.3,30.6c-0.5,2.5,0.7,3.4,2.8,3.7C662.2,526.1,665.2,526.6,668.5,527.1z
		 M428,455.7c1,4.7-0.3,9.9,0.6,15.3c1.6,9.7,1.8,19.6,2.7,29.4c0.8,9,1.7,18,2.6,27.7c13-6.3,25.8-13.4,41.4-10.2
		c-0.8-3.2-1.5-5.8-2.1-8.3c-1.9-7.2-4.1-14.4-5.6-21.7c-2.1-9.9-3.7-19.9-5.4-29.9c-0.6-3.7-2.2-5.5-6.4-5
		C446.9,454.2,437.9,454.9,428,455.7z M219,901.3c-1.8,0-2.4,0-3.1,0c-13.5-0.1-25.3,17.3-19.8,29.8c3.6,8.1,10,13.9,19.4,14.8
		c10.4,1,19.8-2.1,27.9-8.5c7-5.5,7.3-19.4,0.7-25.4c-1.4-1.2-3.4-1.8-5-2.8C232.7,905,226.4,900,219,901.3z M289,913.6
		c-0.6,6.3,2.5,10.4,7.6,13.4c9.7,5.8,19.6,5.3,29.5,0.9c8.1-3.6,11.5-11.8,8.8-18.7c-1.3-3.3-2.2-6.8-2.7-10.3
		c-0.9-6.3-7.2-12.9-13.4-13.2c-2.5-0.1-5.1,0.5-7.5,0.2c-4.9-0.6-8.8,1.2-12.3,4.5C292.3,896.7,290.2,905,289,913.6z M237,469.9
		c0.1-0.4,0.2-0.8,0.3-1.2c-1.8-0.6-3.6-1.4-5.5-1.8c-12-2.6-22.9-7.3-33-14.5c-6.2-4.4-13.9-6.9-21.2-9.6
		c-4.9-1.8-8.8-0.9-13.3,3.8c-8,8.6-10.6,19-13.5,29c5.8,0,11.7-0.7,17.3,0.2c7.6,1.3,14.8,1.8,22.4-0.4c6.1-1.8,12.5-2.6,18.8-3.3
		C218.5,471.1,227.8,470.6,237,469.9z M133.9,923.6c-0.5-2.3-0.4-5.1-1.7-6.7c-3.5-4.3-7.3-8.6-11.7-11.9c-9-6.6-18.9-8.2-29.2-2.9
		c-9.9,5-12.3,14.9-5.6,23.7c8.5,11.2,20,15.5,33.7,14c2.7-0.3,5.5-1,7.8-2.3C132.5,934.5,133.7,929.4,133.9,923.6z M342.2,370.6
		c-2.3-0.5-3.8-0.9-5.4-1.2c-11.8-1.9-23.6-3.8-35.5-5.7c-6.7-1.1-13.4-2.3-20.1-3.3c-1.8-0.3-4.3-1.3-5.1,2c-0.7,3.1,1.8,3.1,3.3,4
		c0.3,0.2,0.7,0.4,1.1,0.5c14.8,5.4,26.6,15.4,38.9,24.7c5.6,4.3,11,8.8,16.8,12.8c2.7,1.8,6,2.8,9.2,3.6c3.9,0.9,5.8-0.6,6.4-4.6
		c0.5-3.2,0.8-6.4,1.3-9.5c1.2-6.7,2.6-13.5,3.9-20.2c-4.1-0.9-8.2-1.7-12.1-2.6c-1.2,2.1-2.8,3.9-3.4,6c-1.5,5.2-2.7,10.5-4,15.8
		c-0.6,2.2,0.1,5.2-4.1,5.6C335.1,388.8,335.3,379,342.2,370.6z M326.5,328.1c-0.3,0.1-0.6,0.2-0.9,0.4c-0.2,2.1-0.5,4.2-0.7,6.3
		c-0.9,7.6-3.6,8.9-9.8,4.5c-0.8-0.5-1.5-1.1-2.2-1.7c-2.3-1.8-4.5-3.7-7-5.3c-3.3-2.1-4.9-1.4-5.4,2.5c-0.3,2.2,0.2,4.5,0.5,6.7
		c0.7,4.3-0.7,5.7-4.4,3.7c-4.3-2.3-8.1-5.6-12.5-8.7c-1.6,4.3-3.3,9.2-5.2,14.3c22.6,1.5,44.4,2.9,66.2,4.4
		c0.4-2.7,0.7-5.2,1.1-7.7c2-10.3-1.9-16.6-12.2-19.9c0.2,1.9,0.7,3.7,0.5,5.5c-0.1,1.4-0.9,2.7-1.4,4.1c-1-0.9-2.3-1.6-3-2.7
		C328.8,332.5,327.7,330.2,326.5,328.1z M1186.2,751.2c-0.3,0.1-0.7,0.1-1,0.2c-4.5,15.7-9,31.4-13.7,47.6c10.3,0,20,0,29.5,0
		C1196,782.9,1191.1,767,1186.2,751.2z M242.6,870c-13.9,4.6-27.2,6.8-41.5,2.7c0.8,6.5,0.4,12.8,6,16.3c4.3,2.7,9.1,4.7,14.7,4.1
		c4.2-0.4,8.5-0.2,12.7,0c4.3,0.1,7.4-2,7.8-5.8C243.1,881.8,242.6,876.3,242.6,870z M277.6,355.8c0.1,0.3,0.3,0.7,0.4,1
		c1.8,0.2,3.6,0.2,5.4,0.5c23,4.1,46,8.3,69.1,12.4c8.9,1.6,7.6,2.1,8.6-6.1c0.4-3.8-1-4.5-4.3-4.7c-7.7-0.3-15.4-0.8-23.1-1.3
		c-17.8-1.1-35.6-2.2-53.4-3.2C279.4,354.4,278.5,355.3,277.6,355.8z M264.4,578c-10.6,3.5-10.8,4.3-11.5,13.1
		c-1.1,11.9-2.1,23.8-6.2,35.2c-0.5,1.4-1,2.8-1.6,4.7c3.4-0.9,6.2-1.8,9-2.2c2.5-0.4,3.5-1.4,3.9-4C260,609.4,262.2,594,264.4,578z
		 M482.2,524.7c-15-8.4-28.7-3.1-42.1,4.3c0.1,0.4,0.1,0.8,0.2,1.3C454.3,528.4,468.3,526.5,482.2,524.7z M1238.9,808.3
		c7.4-1.1,14.6-2.1,21.8-3.1c-0.1-0.5-0.1-1.1-0.2-1.6c-7.5,0-15,0-22.8,0C1238.1,805.2,1238.5,806.5,1238.9,808.3z"/>
	<path d="M1442,218c2.2,1.2,4.3,2.7,6.6,3.5c10.4,3.8,21,7,31.1,11.4c4.7,2,8.7,5.9,12.4,9.6c4,4.1,4,9.3,3.3,15
		c-1.5,12.8-8.8,22.1-16.4,31.7c-13.6,17.1-25.7,35.3-36.8,54.2c-8.3,14.1-17.2,27.9-26.9,41.1c-17.3,23.5-32.4,48.1-44.7,74.6
		c-3.5,7.5-9,14.1-14.1,20.7c-3.6,4.7-8.6,7.9-15.2,8.5c0.4,1.5,0.6,2.7,1,4c5.1,16.4,10.2,32.8,15.2,49.2c1.1,3.7,2.6,7.3,3,11.1
		c0.7,6.2,0.8,12.6,0.9,18.9c0.1,3.5,1.6,3.8,4.3,2.6c3.8-1.7,7.6-3.2,11.4-4.9c11.6-5.3,23.9-7.1,36.6-7.3
		c6.1-0.1,12.3-0.5,18.4-0.2c2,0.1,4.9,1.3,5.6,2.8c2.5,5.4,5.4,10.9,6.1,16.7c3.8,31.8,10,63.1,18.6,94
		c4.9,17.7,8.7,35.7,13.1,53.6c0.2,0.6,0.3,1.3,0.5,1.9c2.1,6.1,2.1,6-3.3,9.7c-11.5,7.9-22.8,16.2-34.4,24
		c-6.9,4.7-14.3,8.7-21.6,13.2c6.7,4.5,15.4,3.2,23.2,5c0,0.5-0.1,0.9-0.1,1.4c-0.8,0.3-1.6,0.9-2.3,0.8c-6.7-1-13.4-2-20-3.1
		c-1.1-0.2-2.2-1-3.2-1.6c-3.3-2.4-3.2-4.5,0.5-6c9.8-3.8,18.3-9.7,26.7-15.9c9.4-7,19.2-13.4,28.9-20c1.3-0.9,2.6-1.8,3.8-2.6
		c-4.2-17.1-8.2-33.9-12.4-50.6c-3.3-13-7.4-25.9-9.9-39.1c-4.2-21.7-7.4-43.6-11-65.4c-0.2-1.1-0.4-2.1-0.7-3.1
		c-2.6-11.2-4.2-12.8-15.3-12.4c-10.2,0.4-20.6,0.7-30.6,2.5c-7.6,1.4-14.8,5-22.2,7.6c-1.6,0.6-3.2,1.4-4.8,2.1
		c-6.1,2.4-8.5,0.8-8.8-5.6c-0.4-7.6-0.4-7.4-8-7.9c-9.3-0.6-17.8,2.9-26.7,4.6c-2.3,0.4-4.7,0.6-7.1,0.7c-0.6,0-1.3-0.6-2-0.9
		c0.5-0.7,0.9-1.8,1.5-2c2.3-0.5,4.8-0.4,7.1-0.9c10.3-2.6,20.6-5.5,31.5-4.7c3.2,0.2,3.6-2.9,3.2-5.1c-0.8-4.7-2.2-9.3-3.5-13.9
		c-2.9-10.4-5.6-20.8-8.8-31.1c-2.1-7-4.8-13.8-7.4-20.7c-0.3-0.8-2-1.5-3.1-1.7c-13.9-1.6-27-5.9-37.8-14.8
		c-6.4-5.3-12.7-6.7-20.5-4.9c-12.7,3-25.5,5.5-38.3,8.2c-3.1,0.6-4.2,2.2-4.4,5.4c-0.2,6-1,11.9-1.7,17.9c-0.7,6.3-0.1,7.2,6.3,6
		c16.9-3.1,33.7-6.4,50.6-9.6c5.6-1.1,11.2-2.4,16.8-3.5c2.7-0.5,5.2-0.4,6.1,2.9c3,10.5,6,21,8.8,31.5c3.2,12.1,0.2,23.8-2.5,35.5
		c-0.1,0.6-1,1-1.5,1.5c-0.5-0.7-1.4-1.4-1.4-2c0-1.6,0.3-3.2,0.8-4.7c4.9-15.8,2.7-31.1-3-46.2c-1.4-3.7-3-7.5-3.5-11.4
		c-0.5-4.1-2.3-4.2-5.6-3.4c-11.5,2.8-23,5.6-34.7,7.9c-11.1,2.1-22.4,3.6-33.6,5c-5.7,0.8-7.1-0.6-6.7-6.3c0.5-8.1,1-16.2,2-24.3
		c0.2-1.6,2.3-3.6,3.9-4.2c4.4-1.5,9-2.4,13.5-3.4c11.1-2.4,22.3-4.6,33.7-7.6c-4.1-1.4-8.2-2.7-12.2-4.1c-5.9-2.1-11.9-4-17.6-6.4
		c-4.1-1.7-5-4-2.9-8c4.6-8.4,9.4-16.7,14.5-24.7c2.5-4,6.8-3.7,11.9,0c6.1,4.4,12.3,8.8,18.6,13c3,2,6.3,3.5,9.3,5.4
		c7.5,4.6,14.9,9.3,22.3,14c2.8,1.8,5.5,3.6,8.7,5.6c10.3-22,22.9-41.8,37.9-60.4c21.9-27.1,40.7-56.3,57.5-86.9
		c7.5-13.7,15.9-26.8,24.1-40.1c4.1-6.6,4.4-6.2-2.8-9.3c-9.4-4.1-18.7-8.4-28-12.7c-3.3-1.5-4.5-4.2-2.4-7.1
		c4.6-6.4,9.5-12.5,14.3-18.7c1.8-2.3,3.6-4.5,5.4-6.8C1441.3,216.7,1441.7,217.3,1442,218z M1335.6,462.4c-3.1-1.9-6-3.6-8.7-5.4
		c-7.7-5-15.3-10.1-22.9-15.2c-9.8-6.4-19.6-12.8-29.4-19.1c-1.2-0.8-2.5-1.8-3.8-2c-1.3-0.1-3.4,0.3-4,1.3
		c-4.8,7.8-9.4,15.7-14,23.6c-1.4,2.4-0.3,3.7,2,4.5c5.6,2,11.2,4.3,17,5.9c8.9,2.5,17.2,6,24.1,12.1c9.6,8.4,21.3,12.6,33.3,15.7
		c10.6,2.7,20.5,1.6,27.3-8.4c4-5.9,8.6-11.7,11.6-18.1c10.9-23.5,23.6-46,39.1-66.8c12.8-17.2,25-34.8,35.5-53.6
		c10.9-19.4,23.7-37.7,38.1-54.7c5.9-7,10.1-14.6,11.3-24.1c0.7-5.4,1.2-10.2-2.8-14.1c-3.4-3.3-7.1-6.7-11.4-8.4
		c-11.7-4.8-23.7-8.9-35.5-13.1c-0.6-0.2-1.7-0.1-2.1,0.4c-6.5,6.5-12.6,13.3-16.9,21.7c1.1,0.7,1.8,1.3,2.6,1.7
		c10.7,4.7,21.5,9.3,32.3,13.9c3.8,1.6,4.8,4.5,2.3,7.9c-2.3,3.3-4.8,6.4-6.9,9.8c-7,11.5-14.3,22.9-20.7,34.7
		c-16.6,30.7-35.7,59.7-57.4,87c-12.6,15.9-24.7,32.1-33.1,50.7C1340.7,454.3,1338,458.2,1335.6,462.4z"/>
	<path d="M1044,246.6c-0.4,1.2-0.4,2.6-1.1,3.6c-14.1,21-28.1,42.1-42.5,62.9c-3.8,5.5-9.1,10.1-13.5,15.3c-3.2,3.8-2.7,5.6,2.2,6.3
		c15.4,2.2,29.3,8.1,42.8,15.6c5.1,2.8,10.7,4.7,16,7.1c2,0.9,4.3,1.8,5.8,3.3c0.9,0.9,1.4,3.3,0.8,4.5c-2.1,4.1-4.6,8-7.1,11.9
		c-2.1,3.3-4.3,6.4-6.5,9.6c-1.6,2.4-3.4,3.1-5.9,1c-4.3-3.6-8.8-6.8-13.2-10.3c-11.1-8.8-23.5-15-37-19.2
		c-12.2-3.8-24.4-7.5-36.6-11.3c-6.4-2-7.4-3.7-3.9-9.4c6-9.7,12.5-19.2,19-28.6c15.2-22.1,30.4-44.1,45.7-66.1
		c5.8-8.3,12.1-16.3,18-24.5c18.1-25.2,36.1-50.5,54.1-75.8c5.6-7.9,11.3-15.8,17.1-23.6c0.6-0.8,1.9-1,2.9-1.5
		c-0.1,1,0.2,2.3-0.3,3.1c-7.3,10.3-14.7,20.6-22,30.9c-16.4,23-32.9,45.9-49.2,69c-14.5,20.5-28.7,41.1-43,61.6
		c-4.1,5.9-8.1,11.9-12.2,17.8c-8.3,11.8-16.6,23.5-24.9,35.2c-1.5,2.1-2.6,4.6-4,7.3c16.7,5.4,33.2,10.3,49.3,15.9
		c16.3,5.7,29.6,16.6,43,27.8c5.2-7.8,10.1-15,15-22.4c-1.7-1.2-2.5-1.9-3.5-2.3c-12.5-5.9-25-11.9-37.7-17.4
		c-5-2.1-10.7-2.8-16.1-4.2c-3.5-0.9-7-1.6-10.3-2.9c-3.6-1.4-4.4-4.4-2.4-7.9c0.8-1.4,1.8-2.7,2.9-3.8c15.3-15.2,26.5-33.4,38.4-51
		c5.4-8.1,10.5-16.4,15.8-24.6c0.8-1.3,1.9-2.4,2.9-3.6C1043,246.1,1043.5,246.4,1044,246.6z"/>
	<path d="M566.2,353.1c-3.2-1.8-2.5-4.5-1.7-6.7c3.3-8.4,6-17.2,10.5-25c25.6-44.5,57.9-82.8,101.7-110.8
		c36.5-23.3,75.9-39.7,117.1-52.4c36.8-11.3,74.5-16.8,113-17.2c27.9-0.2,55.7,0.4,83.4,4.3c10.8,1.5,21.4,4.1,32.1,6.4
		c0.9,0.2,1.5,1.4,2.3,2.2c-1,0.3-2.2,0.9-3.1,0.7c-8.4-1.6-16.6-3.8-25-5.1c-27.8-4.5-56-5.4-84.1-5.4
		c-76.6-0.1-147.6,21.1-214.3,57.6c-33.8,18.5-64,42-87.6,73c-13.8,18.1-27.8,36.3-37.2,57.2c-2.8,6.2-4.1,13.1-6.1,19.7
		C567,351.9,566.6,352.4,566.2,353.1z"/>
	<path d="M932.6,252c-0.9-1.1-2.2-2-2.8-3.2c-1.1-2.5-2.9-3.3-5.6-3.6c-41.1-4.3-81.4,0.9-121.4,9.4
		C741,267.6,685.7,294.9,636,333.7c-11.7,9.2-23.4,18.6-32.3,30.8c-1.5,2-2.7,4.3-4.2,6.3c-0.5,0.7-1.5,1-2.3,1.5
		c-0.2-1-0.7-2-0.4-2.8c0.4-1.4,1.2-2.7,2.1-3.8c5.6-6.4,10.8-13.3,17.1-18.9c46.4-41.8,99.8-71.1,159.7-88.8
		c24.2-7.1,49-11.3,74-14.5c20.5-2.6,41.2-3.4,61.8-2.5c4.9,0.2,9.8,0.7,14.7,1.2C930.7,242.8,933.3,246.2,932.6,252z"/>
	<path d="M1363.9,551.6c1.4-0.8,2.6-1.9,4.1-2.3c25.8-5.9,51.1-14.1,77.5-17.3c2.1-0.3,4.3-0.2,6.3,0.2c6.4,1.2,7.5,2.7,7.5,9.1
		c0,9.8,2.1,19.2,3.8,28.8c2.5,13.9,3.3,28,6,41.8c2.7,14,7.5,27.5,10,41.5c4.3,23.7,7.6,47.6,11.3,71.4c1,6.3,1.9,12.7,2.6,19
		c0.6,4.8-1,8.6-4.8,12c-12.3,11-25.5,20.6-40.4,27.7c-1.8,0.9-4,0.8-6.1,1.1c1.5-1.2,2.8-2.8,4.5-3.7c14.8-7.3,28.1-16.8,40.3-27.9
		c3.3-3,4-6.4,3.4-10.5c-4-26.1-7.6-52.2-12.1-78.2c-2.9-16.4-7.7-32.4-10.9-48.7c-2.6-13-4.2-26.3-6.1-39.4c-0.4-2.6-0.2-5.4-1-7.9
		c-2.7-9.2-3.6-18.5-3.3-28.1c0.1-2.7-1.1-4.7-3.7-4.8c-4.2-0.2-8.6-0.6-12.6,0.3c-19.6,4.3-39.2,9-58.8,13.6
		c-5.2,1.2-10.4,2.4-15.6,3.5c-0.5,0.1-1-0.2-1.5-0.3C1364.2,552.4,1364.1,552,1363.9,551.6z"/>
	<path d="M1195.8,127.3c-3.7-1.9-6.3-3.5-9.1-4.6c-14.6-5.8-29.2-11.7-44-16.9c-5.2-1.8-10.9-2.1-16.5-2.7c-1.3-0.1-3.1,1.4-4.3,2.6
		c-6,6.1-11.8,12.3-17.8,18.4c-0.7,0.7-1.9,0.8-2.9,1.2c0.2-1.1,0-2.5,0.6-3.1c6.6-7,13.2-13.9,20.1-20.5c1.3-1.3,4.2-1.7,6.2-1.4
		c22.9,2.7,42.8,14,64,21.7c1.5,0.5,2.9,1.4,4,2.5c2.1,1.9,2.3,4.1,0.3,6.3c-5.9,6.5-11.8,12.9-17.7,19.4c-2.3,2.6-4.9,3.8-8.5,2.1
		c-10.1-4.7-20.4-9-30.5-13.7c-3-1.4-5.1-1.1-7.6,1c-12.6,10.5-22.9,23-32.6,36.1c-8.7,11.7-18,22.8-27,34.2
		c-3.3,4.2-6.4,8.5-9.8,12.6c-0.8,1-2.4,1.4-3.6,2.1c0.4-1.3,0.4-2.8,1.2-3.8c7.6-9.6,15.4-19.1,22.9-28.8
		c6-7.7,11.8-15.5,17.6-23.3c8.7-11.7,18.4-22.4,29.7-31.8c3.4-2.9,6.6-3.3,10.6-1.2c7.3,3.8,14.7,7.5,22.2,10.9
		c3,1.4,6.2,2.3,9.4,3.1c1,0.2,2.6-0.5,3.4-1.4C1182.5,141.6,1188.7,134.9,1195.8,127.3z"/>
	<path d="M1242,719c20.1-22.8,47-37.7,70.3-58.5c-2.6,0.2-4.3,0.2-6,0.4c-16.6,2.3-33.2,5-49.8,7c-9,1.1-18.1,1-27.1,1.5
		c-1.9,0.1-3.8,0.7-5.8,0.9c-0.8,0.1-1.6-0.2-2.4-0.4c0.3-0.8,0.4-2,1-2.3c1.2-0.6,2.7-1.1,4.1-1.1c27.4-0.4,54.4-4.5,81.3-9
		c1.3-0.2,2.7-0.6,4-0.4c1.7,0.3,3.3,1.1,4.9,1.6c-0.8,1.6-1.2,3.6-2.5,4.6c-8.3,6.7-16.7,13.2-25,19.9
		c-12.9,10.4-25.7,20.8-38.4,31.3c-2,1.7-3.7,3.8-5.3,5.9c-2.7,3.5-5.1,3.3-6.9-0.8c-2.5-5.7-4.7-11.6-7.3-17.3
		c-2.2-4.7-5-9.1-7-13.9c-1.6-3.8-2.6-7.8-3.7-11.8c-0.2-0.8,0.6-2,1-3c0.7,0.7,1.7,1.3,1.9,2.1c3.5,15.4,13.7,27.9,18.3,42.8
		C1241.5,718.8,1241.7,718.8,1242,719z"/>
	<path d="M1383.5,263c-8.1,1.4-16.2,2.8-24.3,4.1c-23,3.9-45.9,7.7-68.9,11.6c-1.4,0.2-2.9,0.3-4.4,0.1c-0.9-0.1-1.6-0.9-2.4-1.4
		c0.8-0.5,1.5-1.5,2.4-1.6c13.2-2,26.4-3.6,39.5-5.8c14.1-2.3,28-5.2,42-7.6c5.5-1,11.1-1.6,16.6-2.1c4-0.3,5.1,1.2,3.1,4.8
		c-4.9,9-10,17.8-15.4,26.5c-2.4,4-5.5,7.5-8.2,11.3c-3.1,4.4-5.1,5.2-10.1,3.7c-1.4-0.4-2.9-0.8-4.1-1.5
		c-15.8-8.3-33.4-11.6-50.1-17.6c-3.5-1.3-6.9-2.9-10.2-4.6c-0.7-0.3-0.9-1.6-1.3-2.5c0.9-0.1,2-0.4,2.8-0.2
		c13.7,4.6,27.5,9.2,41.1,14.1c7,2.5,13.7,5.7,20.7,8.4c5.9,2.3,6,2.1,9.4-3.1c6.4-9.6,12.8-19.2,19.1-28.9c1.3-2.1,2.1-4.5,3.2-6.8
		C1383.9,263.8,1383.7,263.4,1383.5,263z"/>
	<path d="M1298.2,544c-3.2-4.6-5.9-8.5-8.5-12.4c-0.8-1.2-1.6-2.5-2.3-3.7c-4.7-8-4.6-7.6-13.5-4.2c-20.2,7.8-39,18.5-58.1,28.4
		c-4.7,2.4-9.6,4.6-14.5,6.8c-1.2,0.5-2.6,0.6-3.9,0.9c-0.2-0.3-0.4-0.7-0.6-1c0.7-0.7,1.3-1.8,2.2-2.2
		c18.8-9.5,37.5-19.2,56.4-28.3c8.1-3.9,16.8-6.7,25.2-10c2.8-1.1,4.6-0.2,6.1,2.1c4.3,6.7,8.7,13.4,12.9,20.2
		c2.4,3.7,1.7,6-2.7,7.1c-6.2,1.5-12.5,2.4-18.8,3.7c-20.3,4.2-40.6,8.6-61,12.6c-4.9,1-10,0.8-15.1,1c-0.7,0-1.4-1.1-2.2-1.7
		c0.7-0.4,1.5-1.2,2.2-1.2c18.8,0.1,36.3-6.8,54.5-9.9c11.4-2,22.8-4,34.2-6.1C1293,545.5,1295.2,544.8,1298.2,544z"/>
	<path d="M1062.7,579.9c1.5,12.6,3,25,4.5,37.5c0.1,1-0.5,2-0.7,3c-0.8-0.8-2.1-1.5-2.2-2.4c-0.7-4.3-1.1-8.7-1.7-13.1
		c-1.2-9.5-2.5-18.9-3.8-28.8c0.1,0,1-0.6,1.7-0.4c13.6,3.8,27.3,1.1,41,0.8c16.3-0.3,32.5-0.6,48.8-0.9c0.8,0,1.7-0.2,2.4,0.1
		c0.9,0.3,1.7,0.9,2.6,1.4c-0.6,0.7-1.1,1.8-1.9,2.2c-10.2,4.9-20.5,9.7-30.7,14.6c-11.1,5.3-22,10.8-33.1,16
		c-4.7,2.2-9.7,3.7-14.6,5.3c-0.9,0.3-2-0.3-3-0.4c0.7-0.8,1.2-2.1,2.1-2.5c14.8-6.7,29.7-13.1,44.4-19.9c8.7-4,17.1-8.4,25.5-13.2
		C1116.7,577.3,1089.7,582.4,1062.7,579.9z"/>
	<path d="M1231.9,258.9c-4.8-11.3-10-21.8-13.7-32.9c-3.6-10.9-6.5-22.2-5.2-34.8c-3.1,2.7-5.7,4.9-8.2,7.2
		c-9.9,9-19.7,18-29.6,26.9c-0.7,0.6-2,0.7-3,1.1c0.2-1.1,0.1-2.5,0.7-3.1c4.1-4,8.2-8,12.5-11.8c8-7.2,16.1-14.3,24.1-21.6
		c1.9-1.7,3.3-3.8,5.1-5.6c0.5-0.5,1.3-0.7,2-1c0.4,0.8,0.7,1.5,1,2.3c0.1,0.2,0,0.5-0.1,0.8c-4.4,16.4,0.8,31.7,6.5,46.6
		c3.2,8.6,7.7,16.7,11.5,25c0.6,1.3,0.5,2.9,0.7,4.4c-1.5,0-3.2,0.4-4.6,0c-4.4-1.5-8.7-3.3-13-5.1c-6.5-2.7-13-5.4-19.5-8.3
		c-7.3-3.3-14.4-6.7-21.7-10.1c-2.9-1.3-5.8-2.6-8.7-4c-1.3-0.6-2.7-1.2-3.8-2.1c-0.5-0.4-0.3-1.6-0.4-2.4c0.7,0,1.6-0.3,2.1,0
		c5.8,2.9,11.6,6,17.3,9c1.3,0.7,2.5,1.5,3.9,2.1c13.7,5.6,27.3,11.2,41,16.8C1229.9,258.5,1230.8,258.6,1231.9,258.9z"/>
	<path d="M1118.6,728.6c-1.1,5.8-2.9,13.7-4.2,21.7c-1.3,8.5-2,17.1-3.2,25.7c-0.2,1.7-0.8,4.1-2,4.6c-1.2,0.6-3.8-0.2-4.9-1.3
		c-5.3-5-10.7-10-15.5-15.5c-8.7-10.1-18.6-18.2-31.1-23c-2.7-1-5.4-2.4-7.9-3.8c-1-0.6-1.7-1.7-2.6-2.6c1-0.8,1.8-2.2,2.9-2.4
		c4.8-1,9.7-1.6,14.5-2.4c15.9-2.7,31.7-5.4,47.6-8.2C1117.7,720.5,1118.9,721.4,1118.6,728.6z M1106.8,777.9
		c3.1-18.4,6-35.7,9-53.7c-21.1,3.5-41.5,7-63.2,10.6c3.1,1.4,5.1,2.3,7,3.3c5,2.7,10.6,4.7,14.9,8.3c6.9,5.7,13.1,12.4,19.5,18.7
		C1098.3,769.3,1102.5,773.5,1106.8,777.9z"/>
	<path d="M1353,648.4c1-1.8,1.7-4.1,3.2-5.4c18.4-17.1,37.3-33.8,53.5-53.1c1.1-1.3,2.8-2.1,4.3-3.2c1,1.6,2.6,3.1,3,4.9
		c1.3,6.7,1.9,13.4,3.2,20.1c1.1,5.5,2.6,10.9,4.2,16.2c0.5,1.6,1.7,3,2.5,4.5c0.5,1,0.8,2.1,1.2,3.1c-1.1,0.4-2.2,1.1-3.2,1
		c-21.9-2.6-42.5,3.9-63.4,8.8c-1.4,0.3-2.7,1.4-4.1,2.2c-1,0.6-2,1.4-3,2.1C1353.9,649.1,1353.4,648.8,1353,648.4z M1413.3,591.8
		c-16.2,16.1-32.7,32.5-49.9,49.6c10.5-2.4,19.9-5.2,29.6-6.6c9.7-1.5,19.5-1.6,28.5-2.3C1418.8,619.1,1416,605.1,1413.3,591.8z"/>
	<path d="M955.8,742c22.7-2.5,44.6-4.9,66.7-7.3c-2.2-1-4.4-2.3-6.9-3.1c-14.1-4.6-26.4-11.7-36.5-22.8c-2.5-2.7-6.5-3.9-9.7-5.9
		c-0.9-0.5-1.5-1.5-2.3-2.2c1-0.3,2.3-1,3-0.7c3.5,1.7,7.7,3,10.2,5.7c10.4,11.3,23.1,18.7,37.5,23.4c3.5,1.1,6.7,3.3,9.8,5.2
		c1.1,0.7,1.6,2.2,2.3,3.4c-1.3,0.4-2.6,1.1-3.9,1.2c-17.5,1.3-35,2.5-52.5,4c-5.1,0.4-10.2,1.9-15.3,2.7c-2.9,0.5-5.8-0.2-5.5-3.9
		c1-12.2,2.7-24.4,8.7-35.4c0.8-1.4,2.2-2.6,3.5-3.7c0.3-0.3,1.5,0.2,2,0.6c0.2,0.2,0,1.3-0.3,1.7c-6.3,6.6-7.1,15.3-9,23.5
		C956.8,732.9,956.5,737.4,955.8,742z"/>
	<path d="M516.1,140.7c-3.2,14.1-6.6,28.6-9.8,43.2c-1.3,6.2-1.9,12.6-3.1,18.9c-1,5.5-4,9.8-8.4,13.2c-4.5,3.3-8.7,2.9-12.4-1.3
		c-4.1-4.6-5.3-10.1-3.9-16c1.7-6.9,10.7-10.6,16.8-6.8c1.6,1,3,2.7,3.6,4.5c0.5,1.1-0.5,2.8-0.8,4.3c-0.7-1-1.2-2.2-2.1-3.1
		c-1.5-1.4-3.2-3.4-5-3.7c-3.2-0.6-6.4,0.3-8.4,3.4c-3.1,4.8-1.1,13.7,3.8,16.9c2.6,1.7,4.9,0.8,7-0.9c4.3-3.4,6.4-8,7.4-13.3
		c3-15.4,6.5-30.7,9.3-46.2c1.4-7.3,1.7-14.8,2.6-22.2c0.2-1.4,1.1-2.7,1.6-4c0.9,1.2,2.3,2.2,2.6,3.5c1.9,8.1,5.1,15.7,9.7,22.7
		c1.5,2.3,3.3,4.5,4.8,6.9c0.4,0.7,0.3,1.8,0.4,2.8c-0.8-0.2-2-0.1-2.4-0.6c-1.7-1.9-3.4-3.8-4.6-6
		C521.7,151.2,518.8,145.7,516.1,140.7z"/>
	<path d="M430.8,261.2c-1.4-2.8-2.3-5.5-3.9-7.6c-2.3-3-3.9-2.7-5.5,0.7c-3,6.2-2.6,12.5,0.6,18.5c2.1,4,7,6,10.9,4.8
		c4.1-1.3,6.7-4.7,5.6-9.7c-1.5-7-3.5-14-6.4-20.4c-4.8-10.5-10-20.9-15.9-30.9c-3.6-6.1-8.8-11.3-13.1-17c-0.8-1-1-2.4-1.4-3.7
		c1.2,0,2.6-0.2,3.7,0.1c7.5,2.3,15,4.7,22.4,7.1c0.8,0.3,1.4,0.9,3,2c-8.3,2.4-14.2-2.8-21.4-4.3c2.5,3.4,4.6,6.1,6.5,9
		c9.5,14.4,16.9,29.9,23.2,46c1.6,4,2.4,8.5,2.8,12.8c0.5,5.9-2.3,9.9-7.1,11.7c-4.8,1.8-10.5,0.2-14.1-4c-5-5.9-5.5-19-0.9-25.3
		c2.5-3.3,5.4-3.6,8.4-0.8C432.2,254.1,433.2,257.3,430.8,261.2z"/>
	<path d="M1373.5,692.2c2.3,0.4,6.7,1,10.9,2.1c1.5,0.4,2.8,1.8,4,3c0.3,0.3-0.1,1.5-0.5,2c-0.2,0.3-1.4,0.3-1.7,0
		c-5.7-4.8-12.5-3.9-19-3.6c-17.7,0.9-30.9,11-36.6,27.8c-0.3,0.8-1.3,1.3-1.9,1.9c-0.3-1-1.2-2.4-0.8-3.1c3.2-5.6,5.9-11.6,10-16.6
		C1346.3,695.3,1358.6,692.9,1373.5,692.2z"/>
	<path d="M1204.9,315.9c8.5,2,17.8,3.6,26.7,6.3c8.9,2.8,13.1,10,12.4,19.1c-0.1,1-0.9,1.9-1.4,2.9c-0.6-1-1.7-1.9-1.7-2.9
		c-0.4-10.1-3.3-14.2-12.9-17.1c-13-4-26.1-6.5-39.6-2c-1,0.3-2.3-0.4-3.4-0.7c0.8-0.7,1.5-1.9,2.4-2.1
		C1192.9,318.2,1198.4,317.2,1204.9,315.9z"/>
	<path d="M1189,578.5c2,0.3,4,0.4,5.8,1c0.8,0.2,1.2,1.4,1.8,2.2c-0.9,0.2-1.8,0.6-2.7,0.7c-4.8,0.4-9.8,0.2-14.5,1.3
		c-5.2,1.2-8.3,5.5-10.6,10.1c-0.5,1-1.7,1.8-2.6,2.6c-0.1-1.4-0.6-2.9-0.1-4c4.1-8.8,11.3-13.1,20.8-13.7c0.7,0,1.3,0,2,0
		C1188.9,578.7,1189,578.6,1189,578.5z"/>
	<path d="M299.1,421.4c-0.7,3.2-1,5.5-1.7,7.7c-1.8,5.2-13.5,9.2-18.3,6.3c-10.1-6.1-10-22.2,0.2-28.1c2.2-1.3,4.4-4.2,8.4-1.9
		c-4.2,3.9-3.9,7.9-0.8,12.2C290.1,421.9,294.7,421.6,299.1,421.4z M281.1,410.3c-7.2,4-8.5,13.7-3,20c2.1,2.4,4.5,4.5,7.9,3
		c3.8-1.7,8.5-2.7,9.1-8.4C286.3,424.1,282.1,418.9,281.1,410.3z"/>
	<path d="M316,371.5c5.9,0,11.1,4.9,11.2,10.1c0,1-1,2-1.6,3c-1-0.6-2.9-1.2-3-1.9c-0.7-5.7-4.2-7.2-9.3-6.8c-1,0.1-2-0.8-3-1.3
		c0.8-0.8,1.5-2,2.5-2.5C314,371.5,315.4,371.6,316,371.5z"/>
</g>
</svg>
