<?xml version="1.0" encoding="utf-8"?>
<!-- Generator: Adobe Illustrator 22.0.1, SVG Export Plug-In . SVG Version: 6.00 Build 0)  -->
<svg version="1.0" id="Ebene_1" xmlns="http://www.w3.org/2000/svg" xmlns:xlink="http://www.w3.org/1999/xlink" x="0px" y="0px"
	 viewBox="0 0 1547.9 1049.4" enable-background="new 0 0 1547.9 1049.4" xml:space="preserve">
<g>
	<path d="M302.5,529.7c-3.5-0.6-6.2,0.9-6.1,5.4c0.1,4.8,0.1,9.5,0.2,14.3c0,1.9,0,3.7-0.1,5.6c-0.3,3.3-2,4.7-5.4,3.9
		c-4.3-1-5.8-0.1-6.4,3.5c-0.9,5.4,0,7.1,4.8,7.5c3,0.2,4.4,1.6,4.6,4.4c0.5,6.9,3.8,12.7,8.4,17.5c1.8,1.8,4.8,3,7.4,3.3
		c4.1,0.5,8.4,0.1,12.6,0.1c0.2,0.5,0.3,1.1,0.5,1.6c-1.4,0.6-2.8,1.6-4.1,1.7c-5.6,0-3.4,4.8-4.5,7.4c-1.3,2.9,1.4,3.2,3.2,3.7
		c6.6,1.7,13.1,1.8,19.8,0.2c1.2-0.3,2.6,0.3,3.9,0.5c-1.1,0.9-2.2,2.4-3.4,2.5c-6.2,0.4-12.4,0.8-18.6,0.4c-3-0.2-6-1.9-9.8-3.2
		c-0.7,1.4-1.6,3.3-2.5,5.2c-7.9,18.3-10.1,38-13.3,57.4c-3.1,19.6-7.6,38.9-12.5,58.1c-0.9,3.5-0.5,7.3-0.3,11
		c0,0.8,1.9,2.2,2.9,2.2c10.6-0.7,21.1-1.6,31.7-2.3c4-0.3,8-0.2,11.9-0.3c2.5,0,5,0,7.4,0c0-2.7-0.1-5,0-7.4
		c0.3-4.9,2.3-8.6,6.9-10.9c1-0.5,2.1-2.1,2-3.1c-1.7-17.6-0.2-35.5-4.6-52.9c-0.4-1.5-0.5-3.2-0.4-4.8c0-1,0.5-2,0.8-3
		c0.7,0.9,1.9,1.8,2.2,2.8c0.9,4.3,1.9,8.6,2.2,13c1,11.8,1.7,23.6,2.5,35.5c0.3,4.5,0.7,9,1.1,13.8c-0.4,0.2-1,0.7-1.7,0.9
		c-6.9,2.2-9.7,8-7.1,14.7c2.9,7.3,10,11.3,17.9,10.7c9.6-0.8,16.1-5.4,18.4-14.8c0.5-2.2-0.8-4.9-1.8-7.2c-0.7-1.5-2.3-2.6-3.2-4
		c-0.4-0.6,0-1.7,0-2.5c0.8,0.2,1.9,0.2,2.3,0.7c2.2,2.4,4.3,5,7.4,7.5c-3.5-23.4-7-46.8-10.5-70.2c-0.6,0-1.2,0.1-1.9,0.1
		c0,8-0.1,16,0,24c0.1,10,0.4,20,0.4,30c0,1.1-0.9,2.2-1.4,3.2c-0.6-1-1.7-2.1-1.6-3.1c0.1-19.7,0.4-39.4,0.6-59.1c0-0.5,0-1,0-1.8
		c-8,1.6-15.7,3.2-23.5,4.7c-2.9,0.5-5.8,0.9-8.7,1.2c-2.5,0.3-4.3-0.9-4.4-3.4c-0.2-4.3-0.1-8.5,0-12.8c0-0.7,1.1-1.4,1.7-2.1
		c0.4,0.9,1.2,1.7,1.3,2.6c0.1,4.1,0.1,8.1,0.1,12.8c12.8-2,25.2-3,36.6-8.3c4.6-2.2,5.1-5,2.6-9c-2.7-4.3-5-8.8-8-12.8
		c-3.3-4.5-7.2-8.5-11.3-13.3c1.1,0.1,2.6-0.2,3.7,0.3c5.5,2.8,8.6,7.7,11.4,13c1.9,3.5,3.9,6.9,6.2,10.1c3.8,5.4,3.7,8.1-0.7,13
		c-0.8,0.9-1.3,2.6-1.1,3.8c1.4,8.9,3.2,17.8,4.4,26.8c2.4,17.4,4.6,34.8,6.9,52.2c0.6,4.7-0.3,8.5-6.2,10.2
		c8.9,12,10.8,26.7,19.4,38.4c6,8.2,7.4,18.5,6.4,28.7c-0.8,8-4,10.4-12.1,10.4c-4.8,0-9.5,0.1-13.9,2.7c-1.3,0.8-3.4,0.6-5,0.2
		c-6-1.9-9.4-0.3-10,5.7c-1.3,13.8-2.2,27.6-3.5,41.4c-0.3,3.6,1.2,4.2,4.4,4.1c27.8-0.8,55.7-1.8,83.5-2.3
		c34.8-0.6,69.6-0.9,104.4-1c29.6-0.1,59.2-0.2,88.8,0.2c34.7,0.5,69.3,1.4,103.9,2.4c28.5,0.8,57,2.1,85.5,3.1
		c37.8,1.4,75.7,2.8,113.5,4c28.2,0.9,56.5,1.6,84.7,2.4c12,0.3,24,0.7,36,1.2c2.8,0.1,4.6-0.7,6.2-3.2c4.6-7.5,10.9-13.6,18.4-18
		c10.1-6,21-4.7,31.7-1.4c0.9,0.3,1.7,0.7,3.1,1.3c0.4-2,1-3.7,1-5.5c0-15.7,4.2-30.9,7.1-46.1c4-20.5,9.3-40.8,13.2-61.3
		c2-10.4,2.4-21.2,3.1-31.8c0.7-9.5,0-19.2,3.4-28.4c0.2-0.6-0.2-1.5-0.4-2.3c-2.5-9-5.3-17.9-7.6-26.9c-0.7-2.8-1.6-4-4.7-4
		c-6,0-7.3-1.6-8.2-7.4c-1.1-6.9-2.1-13.7-0.1-20.6c0.3-1.1,0.6-2.4,1.2-3.4c0.5-0.8,1.5-1.2,2.3-1.7c0.2,0.9,0.8,2,0.5,2.7
		c-3.3,7.8-2.1,15.7-0.6,23.6c0.5,2.7,1.8,3.9,4.6,3.9c14.4-0.4,28.7-0.7,43.1-1c10.8-0.3,21.6-0.6,32.4-1
		c9.8-0.3,19.7-0.5,29.5-1.2c1.8-0.1,3.5-2.1,5.1-3.4c0.9-0.7,1.5-1.9,2.1-2.9c5.1-9.3,3.6-13.7-6.7-15.2c-13.2-2-20.8-10-25.7-21.3
		c-2.2-5-4.4-10-5.6-15.2c-1.5-6.7,0.7-12.9,6.5-16.9c10.5-7.3,21-14.7,32-21.1c8.1-4.7,12.1-10.5,11.7-20
		c-1.1-24.3,7.6-46.2,18-67.6c1.4-2.9,3.8-5.4,5.8-8.1c-8.4-2.1-16.7-4.2-25.1-6.3c-11.6-2.9-20-10.1-27.1-19.3
		c-0.4-0.5-0.9-1.1-1-1.7c-0.1-1.1,0-2.1,0-3.2c0.9,0.6,2.1,1,2.6,1.8c6.9,10,15.8,17.1,27.9,20c10.9,2.6,21.5,6.5,33,5.3
		c3-0.3,6.1-1.4,8.9-2.6c1.9-0.7,3.1-0.6,3,1.4c-0.3,3.5-0.3,7.3-1.7,10.5c-6.7,16.4-13.9,32.6-20.8,48.8c-0.1,0.1-0.1,0.3-0.1,0.4
		c-7.1,12.1-11.9,25.6-22.9,35c-2.7,2.3-5.4,4.8-8.4,6.8c-10.5,7-21.2,13.8-31.8,20.8c-7.8,5.2-8.9,10.3-6.3,19.2
		c2.5,8.6,5.6,16.7,12.1,23c2.1,2.1,4.7,4.2,7.4,5.2c7.1,2.5,14.4,5.1,21.8,6.3c13.5,2.1,25.9-3.4,32.2-16.2c3-6,1.5-13-4.1-16.7
		c-4.3-2.9-9.3-5-14.3-6.5c-4.6-1.4-5.3-1.8-2.7-6.2c3.6-6.1,7.2-12.1,11-18c6.2-9.7,12.7-19.1,18.6-28.9
		c9.7-16.4,19.4-32.8,28.4-49.6c7.2-13.3,13.5-27.1,19.8-40.9c3-6.5,1.8-7-3.4-12c-5.3-5.1-11.5-9.3-15.3-15.8
		c-0.5-0.9-1-1.9-1.3-2.9c-1.9-7.5-3.2-15.1-5.9-22.3c-2.8-7.8-8.7-13.4-16.5-16.5c-13.5-5.3-27.5-8-42.1-6.7
		c-2.6,0.2-5.5,0.2-7.7,1.4c-4.6,2.4-9.3,4.9-13.1,8.3c-6.1,5.6-12.6,9.9-20.3,13.1c-9.7,3.9-19.2,8.7-28.3,13.9
		c-5.8,3.3-11,4.7-17.2,2c-6.5-2.8-13.2-5.3-17.6-11.2c-9.1-12.2-6.2-22.9,8.2-27.7c5.3-1.8,11.1-1.7,17.4-2.5
		c0.2-1.9,0.5-4.7,0.8-7.7c-1.5-0.3-2.5-0.5-3.5-0.7c-9.9-1.8-17.5-6.9-22.4-15.8c-3.5-6.4-6.8-13-10.3-19.4
		c-1.5-2.7-3.7-5.2-5.6-7.7c-4.4-6-8.9-11.9-13.4-17.9c-0.8-1-1.7-2-2.8-2.6c-6.1-3.3-9.3-9.1-8.2-15c1.5-7.7,6.2-12.5,13.4-13.4
		c2.1-0.3,4.2-0.2,6.8-0.4c1.8-10,3.3-20.1,5.6-30c1.5-6.5,3.9-12.9,6.4-19.2c0.5-1.3,2.9-2.5,4.4-2.6c14.8-0.8,29.5-1.3,44.3-1.8
		c5.8-0.2,6.8,1.6,6.1,7.3c-0.5,3.9-0.4,7.9,0.1,11.8c0.3,2.8,2.2,4.2,5.2,2.7c0.2-0.1,0.5-0.3,0.7-0.3c1.7,0,3.4,0,5.1,0.1
		c-1,1.5-1.9,3.1-3.1,4.4c-1.3,1.4-2.9,2.6-5.2,4.6c7.5,3.5,13.9,6.8,20.6,9.7c4,1.7,4.6,2.6,2.4,6.4c-1.3,2.2-2.8,4.2-3.9,6.5
		c-1.3,2.6-2.4,5.1-0.6,8.3c0.9,1.6,0.5,4.2,0.2,6.3c-1.2,7.5,0,14.3,3.6,21.2c3.9,7.2,6.8,15,10.4,23.2c3.7-6.6,6.8-12.8,8.4-19.7
		c0.3-1.2,1.3-2.2,2-3.4c0.8,1.1,2,2.1,2.2,3.3c2.1,10.6,5.3,20.7,12.8,28.9c1.2,1.3,2.3,2.5,4.1,4.5c0.8-5.5,1.4-10.2,2.1-14.9
		c0.2-1.1,0.8-2.1,1.2-3.2c0.8,0.7,1.6,1.4,2.5,2c2.4,1.5,4.8,2.9,8.4,4.9c-0.2-4.8-0.4-8.1-0.5-11.5c-0.1-3.3-0.4-6.7-0.1-10
		c0.1-1.4,1.4-2.7,2-4.2c0.5-1.1,1.1-2.3,1-3.4c-0.4-6.9-1-13.8-1.4-20.7c-0.2-2.8-0.3-5.6,0.2-8.4c0.2-1.4,1.8-3.3,3-3.5
		c2.9-0.5,3.3-2,3.2-4.4c-0.3-5.5-0.8-11.1-0.7-16.6c0.1-2.7,1-5.7,2.3-8.1c2-3.5,3.8-6.4,1.6-10.7c-0.8-1.5-0.1-4.7,1.1-6.2
		c3.5-4.3,7.6-8.1,12.1-12.9c-4.7-0.8-9.1-1.8-13.5-2.3c-4.6-0.5-9.3-0.5-14-0.8c-3.6-0.2-5.7-1.6-7.3-5.4
		c-3.2-7.5-7.5-14.6-11.6-21.8c-0.5-0.9-2.4-1.6-3.7-1.5c-3.5,0.1-6.9,0.9-10.3,1c-1.7,0.1-3.4-0.8-5.2-1.2c0.7-1.4,1.4-2.9,2.2-4.3
		c0.3-0.5,0.7-1,1.1-1.5c-0.1-0.4-0.2-0.8-0.3-1.2c-7.4,1.1-14.8,2.2-22.2,3.3c-2.2,0.4-4.4,1.3-6.6,1.6c-1.3,0.2-2.7-0.4-4-0.6
		c0.3-1.3,0.5-2.7,1-3.9c0.2-0.6,0.8-1,2-2.5c-2.3,0.7-3.6,1-4.8,1.5c-8.9,4.3-17.7,8.7-26.6,12.9c-1.7,0.8-3.9,0.7-5.8,0.9
		c-0.1-2-0.7-4.1-0.3-6c0.6-2.9,1.9-5.7,3.4-9.7c-11.4,8.9-22.6,16.4-28.1,29.3c-1,2.3-2.4,3-4.3,1.9c-3.7-2.1-7.2-4.5-10.7-6.9
		c-2.2-1.5-4.4-3.2-7.1-5.3c0.7,11.8,3.2,21.3,14.8,25.4c0.6,0.2,1,1.2,1.5,1.9c-1.1,0.3-2.4,1.1-3.1,0.7c-6-2.6-11.5-6.1-13.6-12.7
		c-1.5-4.7-2.3-9.6-3.1-14.4c-0.5-3,1.1-4.5,4-3.4c2.9,1.2,5.5,3.1,8.1,4.9c3.2,2.2,6.3,4.7,9.8,7.3c7.6-15.7,21.3-24.4,33.7-34.4
		c0.6-0.5,1.3-1,2-1.2c0.8-0.3,1.7-0.3,2.6-0.4c0.1,1,0.5,2.1,0.2,3c-0.6,1.6-1.8,3-2.5,4.5c-1.9,3.9-3.6,7.8-5.5,11.7
		c0.4,0.3,0.7,0.6,1.1,0.9c2-1.1,4-2.3,6.1-3.3c8.4-4,16.9-7.9,25.3-11.7c1.2-0.5,2.5-1,3.8-1.1c1.2-0.1,2.4,0.5,3.7,0.7
		c-0.3,1.2-0.4,2.5-0.9,3.6c-0.3,0.8-1.1,1.5-1.8,2.4c7.8-1.1,15.2-2.3,22.7-3.3c1.7-0.2,3.5-0.5,5.2-0.3c1.4,0.2,3.5,0.7,4,1.7
		c0.5,1-0.5,2.8-0.9,4.2c-0.1,0.4-0.5,0.8-1.2,1.7c4.2-0.3,7.9-0.9,11.5-0.7c1.7,0.1,4.3,0.9,5,2.2c4.4,7.4,8.6,15,12.2,22.8
		c1.3,2.8,2.9,3.6,5.3,3.8c5.7,0.4,11.4,0.5,17.1,1.1c3.4,0.4,6.8,1.2,10.1,2.2c3.6,1.1,4,3.6,1.2,6.1c-3.6,3.3-7.3,6.6-10.8,10
		c-1.8,1.7-2.1,3.6-0.9,6.1c1.9,3.9,0.7,7.7-1.9,10.8c-2.5,3-2.4,6.1-2.1,9.7c0.5,5.8,0.5,11.7,0.3,17.5c-0.1,1.3-1.8,3.5-3,3.6
		c-3.3,0.4-3.5,2.4-3.3,4.8c0.4,7.8,1.1,15.7,1.3,23.5c0.1,3.7,3,8.3-2.6,10.7c-0.5,0.2-0.3,2-0.3,3c0.1,5.3,0.3,10.7,0.3,16
		c0,3.8-1,4.5-4.6,3.3c-2.3-0.8-4.5-1.6-7.3-2.6c-0.6,3.9-1,7.7-1.8,11.4c-0.4,1.6-1.6,3.1-2.5,4.6c-1.2-0.9-2.6-1.6-3.6-2.7
		c-2.9-3.3-5.6-6.7-9.6-10.1c-0.9,10.5-2.1,20.9-2.7,31.4c-0.2,3.9,2.7,5.6,6.6,5.4c16.8-0.7,33.3,1,48.3,9.4
		c3.9,2.2,7.2,5.5,10.4,8.6c6.6,6.6,13.2,13.2,19.3,20.2c3.4,4,6,8.7,8.8,13.2c2.8,4.5,4.8,9.6,7.9,13.8
		c10.9,14.6,15.6,31.2,17.2,49.1c1.5,17.8,2.5,35.7,5.8,53.2c3.3,18,10.8,34.7,23.9,48c8.6,8.8,19.4,13.5,31.8,13.9
		c18.5,0.7,36.4-1.8,53.1-10.6c1.2-0.6,2.8-0.3,4.3-0.4c-0.2,1.5-0.2,3.1-0.8,4.5c-0.4,1.2-1.6,2.1-2.2,3.3
		c-2.5,4.8-5.5,9.5-7.3,14.6c-2.5,7-2,13.9,3.7,19.7c2.7,2.7,5.3,5.6,7.6,8.8c1,1.5,1.6,3.8,1.2,5.5c-0.2,0.9-2.8,1.4-4.3,1.8
		c-6.3,1.6-12.6,2.9-18.9,4.8c-3.3,1-4.2,3.6-3.2,7.1c2.3,7.9,4.7,15.5,9.6,22.6c5.8,8.3,8.1,18.3,7.5,28.5
		c-0.5,8.5-8.5,14.9-18.9,15.6c-1.2,0.1-2.4,0-3.6,0.1c-8.8,0.1-11.1,1.9-13.4,10.5c-3.5,12.9-1.2,25.2,4.6,36.8
		c1.6,3.2,5.3,5.3,8,8c1.2,1.3,3.2,2.7,3.2,4.1c0,1.3-1.9,3.1-3.3,3.8c-13.5,6.2-27.2,5.3-40-1.4c-20.7-10.8-36.6-27-51.3-45
		c-20.1-24.5-34.9-51.9-47.5-80.7c-3.8-8.8-7.7-17.6-12.1-26.1c-10-19.5-16-40.3-21.7-61.3c-0.8-2.9-1.7-5.8-2.9-9.6
		c-5.2,8.7-9.9,16.7-14.3,24.2c4.9,2.5,10.3,4.5,14.9,7.6c8.8,5.9,9.9,16.5,3.9,25.2c-8.4,12.2-20.3,15.3-33.9,14.6
		c-4.8,15-10.3,29.9-10.3,46c0,4.7,1,8.7,3.2,12.9c9,16.9,17.7,34,26.2,51.2c2.2,4.5,3.8,9.5,4.7,14.4c2.8,15.3,9.7,29,15.6,43.1
		c3.2,7.6,5.8,15.4,8.5,23.2c4.2,12.2,8.2,24.5,12.4,36.7c0.6,1.6,1.7,3,2.5,4.6c0.4,0.9,0.6,2,1.1,3.5c-4.2-0.6-5.1-3.5-6-5.9
		c-3.8-10-8.3-19.8-10.6-30.1c-3.6-16.4-11.3-31-17.3-46.3c-3.2-8-6.1-16.2-8.1-24.6c-2.7-11.4-7.5-21.8-13-32.1
		c-7.3-13.6-14.3-27.4-21.3-41.1c-2.6-5.1-7.2-6.7-12.2-4.2c-10,5-19.5,21.9-17.7,32.9c0.7,4.5,3.1,8.7,5.1,12.9
		c10.5,22.4,20.8,45,31.8,67.2c9.1,18.4,19.3,36.2,29,54.3c0.4,0.8,1.6,1.3,2.5,1.8c1,0.5,2,0.9,3.7,1.7c-1.7,0.9-2.7,1.4-3.9,2.1
		c2.9,9.9,5.8,19.8,8.6,29.7c1.8,0,3.2-0.1,4.5,0c7.9,0.7,14.7-1.5,20.5-7c0.8-0.7,2.1-0.8,3.2-1.2c-0.3,1.2-0.3,2.7-1.1,3.5
		c-5.8,6-13.2,8.3-21.4,8c-0.9,0-1.8-0.2-2.8-0.3c-0.1,0-0.2,0.1-1,0.4c0.8,1.1,1.7,1.9,2.2,3c0.3,0.6,0.1,1.4,0.1,2.1
		c-0.7,0-1.8,0.2-2.1-0.2c-3.9-5.1-9.7-3.7-14.8-3.9c-23.3-0.9-46.6-1.3-69.9-2c-13.9-0.4-27.7-0.7-41.6-1.2c-3.3-0.1-4.9,0.8-5,4.4
		c-0.1,2.9-0.8,5.8-1.5,8.6c-0.3,1.1-1.1,2-1.7,3c-0.4-0.1-0.8-0.2-1.2-0.3c-0.1-1.2-0.3-2.4-0.1-3.6c2.3-20.6,5.1-41.2,6.8-61.9
		c2.8-34.5,5-69.1,10.6-103.3c0.5-2.9,1-5.8,1.9-8.6c0.4-1.2,1.8-2.1,2.7-3.1c0.7,0.7,2,1.9,1.9,2c-4.3,5.4-3.9,12.1-4.6,18.3
		c-3.3,30.6-6.1,61.2-9.1,91.9c-1.5,15.5-2.9,31-4.5,46.5c-0.4,3.4,0.5,4.6,3.9,4.6c10.4,0.1,20.8,0.4,31.2,0.7
		c28.4,0.8,56.8,1.7,85.1,2.5c1.6,0,3.1,0,4.9,0c0-1,0.1-1.6,0-2.2c-5.6-21.6-14.2-41.9-25.4-61.4c-18.1-31.6-34.1-64.3-47.8-98.1
		c-1.2-2.9-3.2-5.4-5.4-9.1c-7.6,0.4-16.3,1.2-25.1,1.3c-5.8,0.1-11.6-0.5-17.4-1.2c-3-0.3-4.7-2.3-5.7-5.4
		c-1.6-5.3-3.9-10.5-5.9-15.6c-0.6-1.4-1.4-2.7-2.1-4c-0.3,0.1-0.7,0.1-1,0.2c-0.5,3.9-1.5,7.8-1.4,11.7
		c0.7,28.2-5.2,55.3-12.3,82.3c-2.2,8.5-3.6,17.2-5.1,25.9c-2.1,11.8-4.1,23.5-6,35.3c-0.6,3.9-0.7,8-1,11.9c-0.4,5.3-1.2,6-6,3.7
		c-6.9-3.3-14.2-4.3-21.4-2.9c-4.8,0.9-9.7,3.2-13.5,6.2c-5.2,4.2-10,9.3-13.7,14.9c-5.2,7.8-0.3,25.5,6.1,31.1
		c17.9,15.6,37.7,23.1,61.1,14.1c7.8-3,15.2-7,22.7-10.7c3.3-1.6,4.7-4.3,4.5-8.1c-0.1-2.4-1-5.4,2-7.1c2.3,3.3,1.5,13.4-1.6,15.5
		c-19,12.7-39.2,21.6-62.7,15.1c-10.8-3-20.2-9-28.3-16.7c-7.6-7.3-9.1-17-9-26.9c0-3.4-0.9-4.1-3.9-4.2c-8.5-0.1-17.1-0.5-25.6-0.7
		c-26.3-0.7-52.5-1.2-78.8-2c-39.2-1.2-78.3-2.6-117.5-4c-28-1-55.9-2.4-83.9-3.1c-48.2-1.3-96.5-2.7-144.7-3.2
		c-46.1-0.5-92.3-0.1-138.4,0.4c-32.1,0.3-64.2,1.4-96.3,2.2c-5.2,0.1-10.4,0.5-15.6,0.6c-2.8,0-3.7,1-3.7,3.8
		c-0.1,10.3,0.3,20.6-0.9,30.7c-0.6,4.9-3.4,11.4-7.3,13.7c-4.9,3-11.7,3.2-18.2,1.4c-12.1-3.4-19.7-24.1-9.9-36.2
		c4.1-5,9.6-5.8,15.6-5c1,0.1,2.1,0.4,3.6,0.8c0-1.7,0-3.2,0-4.8c0-2.6-1.1-3.9-3.9-3.7c-5.2,0.3-10.4,0.3-15.6,0.4
		c-2.6,0-3.9,1.1-4,3.8c-0.5,9.6-1.4,19.1-1.7,28.7c-0.3,8.7-4.6,14.4-13.2,16.3c-20,4.3-34.8-8.9-36.3-29.2
		c-0.5-6.8,4.5-12.9,11.2-14.7c2.9-0.8,5.8-1.4,8.6-3c-38.2,2.8-76.5,5.5-114.7,8.3c-56,4.1-109.1,5.4-114.9,2.3
		c1.8-0.1,2.9-0.3,4-0.3c9.6-0.1,19.2,0,28.7-0.2c11.7-0.3,23.4-0.7,35.1-1.4c27.3-1.5,54.5-3,81.8-4.7c27.4-1.8,54.7-3.9,82.1-5.8
		c3.1-0.2,6.1-0.6,9.2-0.6c2.8,0,3.8-1,3.5-3.8c-1.6-14.8-2.9-29.7-4.5-44.5c-0.6-5.2-1.4-10.5-2.2-16c-1,0.3-1.5,0.4-2,0.6
		c-4.9,1.8-6.1,1.3-7.5-3.6c-0.9-3-1.8-6.1-3-10.3c-3.9,2.9-7.3,5.2-10.3,7.8c-2.5,2.1-4.7,4.8-7.2,7c-0.8,0.7-2.4,1.2-3.1,0.9
		c-0.7-0.3-1.3-2-1.1-3c0.9-4.4,1.6-9,3.2-13.2c5-13.1,10.4-26,15.6-38.9c1-2.5,1.7-5,2.5-7.6c0.8-2.3,0-3.7-1.4-6
		c-2-3.4-2.5-8.4-2-12.5c0.8-6.4,3-12.7,4.4-19.1c1.6-7.4,2.8-14.8,4.3-22.2c2.1-10.6,4.5-21.1,6.5-31.6c0.6-3.2,0.8-6.6,1-8.8
		c-4.1-2.7-7.7-5-11.1-7.1c-4.6,4.4-9.4,9-14.2,13.6c-3.2,3-6.2,6.2-9.4,9.2c-0.6,0.6-2.3,0.8-3.1,0.4c-7.2-3.6-14.4-7.4-21.6-11.2
		c-0.7-0.4-1.1-1.5-1.6-2.3c0.9-0.2,2.1-0.8,2.8-0.5c4.2,1.8,8.2,3.7,12.3,5.6c0.6,0.3,1.1,0.7,1.7,1c9.3,4.9,7.6,5.1,13.6-2
		c4.8-5.7,10.2-10.8,15.6-16.5c-1.5-2.4-3.6-5.6-0.3-8.7c2.4-2.4,4.4-5.8,8.3-5.8c0.5,0.6,1,1.2,1.5,1.8c-2.1,1.7-4.3,3.3-6.3,5
		c-2.7,2.2-2.4,4,0.6,5.9c2.6,1.6,4.7,3.9,7.2,5.7c1.8,1.3,3.9,2.5,4.9-0.9c2.7-8.9,5.4-17.8,8.1-26.7c0.1-0.2-0.1-0.5-0.3-1.3
		c-3.1,2.7-5.9,5.2-8.9,7.5c-0.9,0.7-2.5,0.7-3.7,1c0.5-1.1,0.8-2.5,1.6-3.2c6.2-5.4,12.7-10.4,18.7-16c1.6-1.5,1.7-4.4,2.6-7
		c-12.5-1.2-18.1-8.9-20.7-19.5c-0.9-3.4-1.6-6.5-6.3-7.2c-4-0.6-5.2-5.2-3.9-11.1c1-4.4,3.3-6.3,7.5-6c1.1,0.1,2.1,0.3,3.8,0.6
		c0-10.7,0-21.3,0-32.7c-3.9,1.3-8.1,2.8-12.4,4c-1.6,0.4-3.4,0-5.1,0c0.3-1.7,0.2-3.8,1.1-5.1c4.2-6.2,8.7-12,14.9-16.4
		c9-6.4,18.6-6.8,28.6-4.8c6.1,1.2,12,3.1,18,4.9c1.8,0.6,3.4,2,5.1,3.1c19.4-13.1,40.8-2.5,48.5,11.3c1.6,2.9,3,6,3.8,9.2
		c3,12.4,6.1,25.1,4.8,37.9c-0.6,5.8-4.2,11.4-6.9,16.8c-1.1,2.3-3.4,1.7-4.7-0.5c-0.7-1.2-1.2-2.6-2.2-4.8c-1.1,2.6-1.7,4.4-2.7,6
		c-0.8,1.2-2,2.2-3,3.2c-0.9-1.3-2.2-2.6-2.5-4c-1.1-4.9-1.4-10.1-3-14.8c-2.1-6.1-5.1-12-7.8-17.9c-0.5-1-1.4-1.8-2.5-2.7
		c2.7,9.1,1.6,18.1-0.3,27c-1.4,6.5-4.1,11.9-11.2,14.2c-4.2,1.4-6.2,5.4-5.4,9.9c0.5,2.5,1.4,4.9,1.8,7.3c0.1,0.8-0.5,1.7-0.8,2.5
		c-0.7-0.4-2-0.7-2.1-1.3c-1.6-6-4.1-12,0.4-18c0.9-1.2,1.1-2.9,1.6-4.3c5.7,1.1,11.6-3.6,12.9-10.7c0.9-5.5,1.7-11.1,1.5-16.7
		c-0.2-4.5-1.8-9.1-3.3-13.4c-0.3-0.9-3.1-1.9-4.4-1.5c-3.5,1-6.7,2.6-10.7,4.2c-1.4-1.1-0.7-2.5,0.9-3.9c5.5-4.7,14-4.8,19.4,0.1
		c7.6,6.9,10.9,16.3,13.6,25.8c1,3.5,1.7,7.2,2.7,11c3.6-6.8,5.6-7.1,10.3,0.1c0.9-1.9,1.5-3.6,2.4-5.2c4.4-7.1,3.6-14.8,2.6-22.4
		c-0.9-7.3-2.2-14.5-3.9-21.6c-3.5-14.9-14.4-24.7-28.9-25.9c-7.3-0.6-14,1.4-19.9,6.5c-4.6,4-8.3,8.5-10.7,14
		c-1.9,4.4-3.4,9-0.4,13.6c4.4-1.9,7-0.7,7.4,3.3c0.2,2.4-0.3,4.9-3.3,4.9c-2.5,0-5.6-0.1-5.5-4.1c0-0.9-0.2-1.9-0.6-2.7
		c-3.8-7-2.8-15.9,2.4-21.8c2.4-2.7,4.6-5.5,7.6-9c-4.1-1.8-7.6-4.2-11.4-5c-6.2-1.4-12.6-1.7-18.9-2.6c-7.7-1-14.2,2-19.7,6.8
		c-4.3,3.8-7.9,8.5-11.8,12.7c0.3,0.3,0.5,0.6,0.8,1c3-0.9,5.9-1.8,8.9-2.6c7.3-1.9,7.3-1.9,9.1,5.3c1.3-0.3,2.5-0.7,3.8-1
		c2.2-0.5,3.8-0.4,4.7,2.2c0.3,1,1.9,1.9,3,2.4c8.8,3.5,16.7,7.8,17.9,18.7c0.3,2.7,0.3,5.5,1.3,7.9c1,2.4,3,4.5,4.9,6.4
		c0.4,0.4,2.3-0.1,3.1-0.7c6.3-4,12-1.1,12.7,6.3c0.6,6-2.1,10.9-4.4,16c-0.3,0.6-1.4,0.8-2.1,1.1c-0.2-0.8-0.7-1.8-0.5-2.5
		c0.8-2.3,2.1-4.4,2.7-6.7c0.7-2.8,1.2-5.8,0.8-8.6c-0.2-1.5-2.2-3.5-3.8-4c-2.5-0.9-3.8,1.3-4.5,3.5c-0.4,1.2-0.6,2.4-1,4.2
		c-5.5-5.1-10.6-9.3-11.4-16.7c-0.2-2.5-0.9-4.9-1.3-7.4c-0.8-5.8-5-9-9.4-11.6c-2.4-1.4-5.6-1.2-8.2-2.4
		C304.7,532.9,303.7,531.1,302.5,529.7z M1486,589.3c-12.5,7.5-25.6,9.2-39,10.5c-20.5,2-38.6-2.6-52-19.2
		c-10.9-13.6-18.1-29.4-20.9-46.6c-2.6-15.3-3.9-30.9-4.9-46.5c-1.4-20.5-6-39.7-19.3-56.1c-2-2.4-3.7-5.4-4.7-8.3
		c-3.5-10.3-11-17.5-18.5-24.6c-0.7-0.7-1.6-1.1-2.4-1.7c1.3,6.3,2.6,12.4,3.9,18.4c0.2,0.8,0.5,1.6,1,2.1
		c4.8,5.1,9.1,10.9,14.7,14.9c5.9,4.1,7.3,8,4.2,15.1c-6,13.8-12.6,27.3-19.5,40.6c-11.7,22.4-24,44.6-38.3,65.5
		c-1.6,2.4-2.6,6.3-1.9,9c4.9,17.1,9.7,34.4,16,51.1c5.5,14.7,13.1,28.6,19.4,43c12.7,28.9,27.3,56.5,47.6,81.1
		c14.4,17.5,30.1,33.1,50,44.1c10.1,5.6,21,5.5,31.9,3.8c2.4-0.4,4.6-1.9,7.3-3.1c-1-0.8-1.5-1.4-2.2-1.8
		c-4.9-2.5-8.1-6.5-10.1-11.4c-5.1-12.5-7.2-25.3-3.1-38.6c2.4-7.6,5.5-10.2,13.4-10.8c2.5-0.2,5.1-0.1,7.6-0.5
		c9.4-1.4,14.6-6.3,14.4-14.6c-0.3-9.7-2.8-18.9-8.7-27c-5.9-8-7.9-17.3-9-26.9c-0.1-1.2,0.7-3.4,1.5-3.6c7.6-2.2,15.3-4.2,22.9-6.2
		c0.8-0.2,1.7-0.4,3.3-0.7c-2.8-3.2-4.9-6-7.4-8.5c-8.4-8.3-8.7-17.8-4.5-28C1480.6,599,1483.2,594.7,1486,589.3z M1205.1,240.7
		c-1.9-3.3-4.1-5.7-4.7-8.6c-0.8-3.4-0.7-7.1-0.2-10.6c0.7-5.3,0.8-5.5-4.5-5.2c-12.8,0.6-25.5,1.6-38.3,1.8c-4.5,0.1-7,1.3-8,5.7
		c-1.4,6.3-2.7,12.6-4.1,18.8c-1.4,6.4-3,12.7-4.4,19c-1.7,8.1-1.7,8.1-10.2,8.9c-5.7,0.5-9.7,4.5-10.8,10.6c-0.9,5,1.8,9.6,6.7,12
		c2.7,1.3,8.1,0.3,6.4,6.3c0,0.1,0.1,0.2,0.2,0.3c3.9,5.4,7.9,10.7,11.8,16.1c1.8,2.6,3.6,5.2,5.2,8c4,7,7.7,14.3,12,21.2
		c3,4.9,7.5,8,13.2,9.8c6.3,1.9,12.6,1.9,19,0.9c1.6-0.3,3.3-0.2,5-0.3c0.1,0.5,0.1,1,0.2,1.5c-3.8,2.8-8.6,2.1-12.3,2.8
		c-1.5,6.1-2.7,11.8-4.5,17.3c-1.8,5.4-1.4,7.7,4.3,7.7c8.3,0,16.9-0.8,24.8-3c9.1-2.5,17.6-7,27.2-7.3c1.3,0,2.7-0.4,3.8-1
		c3.2-1.7,6.4-3.6,9.5-5.5c-3.4-7.5-1.3-36.3,2.8-40.6c-1.8-5.2-3.6-10.3-5.6-15.8c-0.7,1.5-1.2,2.7-1.8,3.9
		c-2.1,4.1-4.1,8.4-6.6,12.3c-1.8,2.8-4.2,2.4-5.4-0.4c-3.8-9.2-7.6-18.5-11.6-27.6c-2-4.5-3.1-9-2.4-13.9c0.4-3.1,1.4-6.9,0.2-9.5
		c-2.3-5.2-0.2-9,1.9-13.1c1-2,2.3-3.8,3.4-5.7c-6.3-3.1-12.3-5.9-18.3-8.9C1203.6,245.9,1203.3,244.7,1205.1,240.7z M287.9,810.4
		c1-0.3,1.5-0.3,2-0.5c3.5-2.1,7.1-4.3,10.6-6.4c6.4-3.9,7.8-3.5,10.7,3.3c1.8,4.1,3,4.6,7,2.5c2.1-1.1,4.1-2.5,6.3-3.5
		c0.6-0.3,1.6,0.4,2.4,0.6c-0.3,0.7-0.4,1.6-1,1.9c-2.7,1.7-5.4,3.4-8.4,4.7c-4.2,1.8-6.7,0.6-8.7-3.6c-0.8-1.7-1.7-3.5-2.7-5.5
		c-2.9,1.7-5.4,3-7.5,4.7c-1.1,0.9-2,2.8-1.8,4.2c1.6,13.2,3.4,26.4,5.1,39.6c0.7,5.3,5.7,9.1,10.8,7.4c1.5-0.5,3.2-2.4,3.5-4
		c0.9-4.1,1-8.5,1.7-12.7c1.6-9.5,3.2-18.9,5-28.3c0.2-1,1.5-1.9,2.2-2.8c0.3,1.1,0.9,2.3,0.8,3.4c-2.7,19-5.5,37.9-8.4,56.9
		c-0.4,2.5,0.8,3.1,2.9,3c4.3-0.2,8.5-0.4,12.8-0.5c6.6-0.1,6.7-0.2,6-6.9c-0.1-0.5-0.2-1.1-0.2-1.6c-1.6-13.9-3.3-27.8-4.6-41.7
		c-0.5-5.7-0.2-11.4-3.3-16.6c-0.5-0.8-0.1-2-0.1-3.1c0.4-0.1,0.8-0.3,1.2-0.4c2,3.4,4.1,6.9,6.2,10.4c1.3-0.9,2-1.3,2.6-1.8
		c4.7-3.6,5.5-3.5,10,0.3c1.8,1.6,3.7,3.1,5.6,4.5c0.6,0.4,1.6,0.4,2.4,0.5c1.3,0.2,2.7,0.2,4,0.4c2.8,0.1,5.5,0.4,8.3,0.7
		c1.3,0.1,2.9,0.5,3.8-0.1c4.7-2.9,9.9-2.7,15.1-2.7c5.8,0,8.1-1.7,8.4-7.5c0.7-10.3-1.3-20-7.1-28.9c-3.1-4.7-5.5-10-7.9-15.1
		c-3-6.4-5.8-13-8.7-19.5c-1.1,0.4-1.4,0.4-1.5,0.6c-11.1,10.4-24.4,10.3-35.1-0.1c-1-1-2.8-1.6-4.2-1.7c-4-0.3-8-0.4-12-0.1
		c-7.2,0.6-14.4,1.6-21.7,2.2c-4.1,0.3-8.3,0-12.3,0.4c-1.2,0.1-2.9,1.4-3.4,2.6c-5,12.3-9.8,24.8-14.5,37.2
		c-2.8,7.3-5.3,14.7-7.9,22c0.3,0.2,0.6,0.3,1,0.5c0.7-0.6,1.4-1.1,2-1.7c3.8-3.1,7.3-6.6,11.4-9.3c4.8-3.1,6.8-2.1,8.4,3.2
		C286.2,804.2,287,807.3,287.9,810.4z M1241.1,681c1.4-9.4,2.7-18.8,4-27.8c-33.4,1.3-67.2,2.5-101.4,3.8
		c3.4,12.7,5.5,25.7,11.9,37.3c1.7,3.1,3.2,6.5,4,9.9c2.4,10.5,5.9,13.5,16.6,13.5c0.5,0,1.1,0,1.6,0c9.4-0.5,18.9-1,28.3-1.5
		c1-0.1,2-0.4,2.3-0.4c1.7-6,2.7-11.7,5-16.9C1219.6,685.2,1228.9,679.5,1241.1,681z M302.1,887.8c-0.8-4.2-4.3-5.4-8-5.2
		c-5.5,0.3-11.1,1.1-16.6,2.3c-6,1.3-10,7.2-8.8,13.2c0.9,4.5,2.3,9.1,4.5,13.2c7.1,12.8,25.6,16.2,35.9,6.7c1.1-1,1.9-2.8,2.1-4.3
		c0.4-3.4,0.2-6.9,0.4-10.3c0.4-5.1,1-10.3,1.5-14.9C309.3,888.2,305.8,888,302.1,887.8z M355.5,888.8c-5.7,2.3-10.4,2.4-15,0
		c-5.9-3.1-13.6-2.1-17.2,2.4c-7.9,10-2.1,28.9,8.9,30.9c4.4,0.8,9.2,0.1,13.7-0.4c1.4-0.1,3.3-1.6,3.8-2.8c1.3-3.5,2.3-7.3,2.9-11
		C353.7,901.7,354.5,895.4,355.5,888.8z M1303.9,457.3c-4.2,0.4-7.7,0.5-11.1,1.1c-1.8,0.3-4,0.9-5.1,2.2c-2.8,3.1-5.8,6.4-7.6,10.1
		c-3.3,6.9-5.9,14.2-8.8,21.4c-1,2.5-2.5,5,0.4,7.4c0.5,0.4,0.6,1.6,0.4,2.2c-2.5,7.6,1,14.8,1.8,22.3c2.6-3.3,5-6.6,6.6-10.3
		c7.5-17,14.8-34.2,22.1-51.3C1303.3,461,1303.5,459.3,1303.9,457.3z M336.8,819c1.4,12.2,2.9,24.5,4.2,36.8
		c0.4,3.4,2.4,5.1,5.2,5.6c2.7,0.5,5.5,0.1,7.6,0.1c1.2-10.5,1.6-20.2,3.5-29.5c1.4-6.7,0.3-11.1-5.9-14.1c-0.2-0.1-0.4-0.3-0.6-0.5
		c-3-3.6-6-4.3-9.5-0.6C340.4,817.8,338.9,818,336.8,819z M1177.4,406.1c-5.4-6.8-4.7-14.3-3.4-21.9c0.3-1.5,1.1-2.9,2-4.2
		c1.2-1.9,2.9-3.5,3.9-5.5c0.3-0.6-0.7-2.8-1.5-3c-6.7-2-19.1,2.8-22.6,8.7c-0.9,1.5-1.4,3.6-1.2,5.3
		C1155.6,395.5,1166.5,405.3,1177.4,406.1z M1177.1,382.7c-0.6,6.6-2.1,12.4,0.6,17.8c1.1,2.1,3.6,3.5,5.7,5.1
		c0.5,0.4,2,0.2,2.4-0.3c5.1-5.8,10-11.8,15.4-18.2C1192.5,388.5,1184.4,390,1177.1,382.7z M1193.9,400.7
		c11.1-4.6,21.6-8.4,31.6-13.2c4.3-2,7.7-5.8,11.6-8.8c-0.3-0.5-0.6-0.9-0.8-1.4c-2.6,0.6-5.2,0.8-7.7,1.7c-5.7,2.2-11.1,5.6-17,6.9
		C1203.1,388.1,1199.3,394.7,1193.9,400.7z M353.9,886.3c0-6.9,0-14.1,0-20.7c-4-0.4-7.8-0.7-11.8-1.1c0.3,4.7,0.6,9.7,1.1,14.7
		c0.9,8.7,1.3,8.9,10.1,7.7C353.3,886.9,353.4,886.7,353.9,886.3z M302.4,862c0.6,5.6,1.3,11,1.8,16.4c0.6,7,1.9,7.9,9,6.2
		c0.8-7,1.5-14.1,2.2-21C311.1,863,307.2,862.5,302.4,862z M1263.7,540.9c0.4,0.3,0.7,0.5,1.1,0.8c2.3-4.2,6.4-8.4,6.4-12.6
		c0-8.1-2.3-16.2-3.6-24C1262.9,516.4,1263.7,528.7,1263.7,540.9z"/>
	<path d="M330.2,259.3c-4.2,7.8-9.4,14-18.1,13.7c-1.4,5.1-1.5,10.4-4,14.1c-15.3,23-23.3,49.3-34.6,74.1
		c-9.1,19.8-19.7,39-30.1,58.2c-7.2,13.4-13.9,27-18.5,41.5c-1.2,3.9-1.2,8.1-2,12.1c-0.3,1.5-1.3,2.9-1.9,4.3
		c-0.3-0.1-0.7-0.2-1-0.3c0.7,2.1,1.6,4.2,2,6.4c0.5,2.5,2,5-1.6,7.2c-1.6,1-1.6,4.6-2.5,7.3c13.2,4.3,24.6,11.5,35.9,19
		c9.7,6.4,11.8,13.1,6.7,23.6c-4.1,8.4-8.8,16.4-13,24.7c-3.1,6-6.1,12.1-8.5,18.4c-1.4,3.5-3.2,5-6.8,4.4
		c-3.4-0.6-6.9-0.8-10.2-1.7c-5.3-1.6-6.6-5.3-4.1-10.2c5.7-10.9,11.5-21.7,16.8-32.7c1.7-3.6,2.6-7.9,2.9-11.9
		c0.1-2.1-1.4-4.9-3.1-6.3c-5.9-4.7-12.3-8.8-18.5-13.2c-2-1.4-3.8-3.2-6-5.1c-4.2,1.9-9.1,2.8-14.2,1.1c-0.7-0.2-2.2,0.8-2.6,1.6
		c-1.2,2.4-2,4.9-2.9,7.4c-5.5,15.3-8.4,31-8.4,47.3c0,5.3-3.9,9.6-9,10.7c-2.7,0.6-3.4-1-4.1-3.1c-4.3-13.2-5.8-26.8-4.4-40.6
		c0.1-1,0-2,0-3.6c-3.3,2.7-5.5,5-5.4,9.2c0.2,17.8,3.4,34.7,15,49.1c2.2,2.7,1.1,5.5-2.2,6.5c-0.3,0.1-0.5,0.1-0.8,0.2
		c-12,2.9-14.9,1.2-20.1-10c-4.3-9.4-9.4-18.5-13.9-27.9c-2.2-4.5-4-9.3-5.6-14.1c-2.4-7.5-0.5-14.4,5.2-19.4
		c9.5-8.3,19.6-16,29.7-23.6c4.7-3.6,10.2-6.3,15-9.8c1.3-0.9,1.4-3.4,2.7-4.6c1-1.2,2.1-2.3,3-3.6c0.7-1,0.9-2.2,1.5-3.2
		c1.9-3.3,3.4-6.6,1.8-10.6c-0.3-0.7,0.2-1.8,0.6-2.6c21.1-45.2,39.5-91.5,57.7-137.9c7.8-19.9,17.4-39.2,26.7-58.5
		c2-4.2,5.9-7.4,8.8-11.2c0.7-0.9,1.2-2.2,1.3-3.3c0.3-4.2-0.2-8.6,0.5-12.7c2.2-13.1,12.4-20.1,25.5-18c3.7,0.6,7.3,1.6,10.2,2.3
		c5.5-2.6,10.7-5.1,15.8-7.5c5.1-2.3,10.2-4.5,15.4-6.7c1.7-0.7,3.4-1.9,5.1-2.2c12.5-2,23.3-8.3,34.5-13.5
		c36.5-17,74.4-30.7,112.5-43.7c25.5-8.7,51.2-16.6,76.8-24.9c15.6-5.1,31.1-10.5,46.7-15.2c6.8-2.1,14.1-2.8,21.1-4.2
		c3.6-0.7,4.6,1.6,5,4.6c10.5-4.9,19.3-3.9,25.7,6.6c1.2-1,2.1-1.7,2.8-2.4c2.1-2.1,4.6-2.3,6.3-0.2c5.8,7.1,14.5,9.8,21.5,15
		c37.6,27.2,73.7,56.3,107.9,87.7c33.5,30.8,66.2,62.3,96.9,95.9c9.4,10.3,19.5,20.1,28.8,30.5c4,4.5,7,10,10.5,15
		c0.9,1.2,1.9,2.7,3.2,3.3c10.1,4.6,11.9,10.8,4.8,20.4c3.2,0,6,0.2,8.6,0c22-2.1,44.1-3,66.2-2.6c6.9,0.1,13.8-0.7,20.7-0.9
		c1.2,0,2.4,0.8,3.6,1.2c-1.1,0.6-2.1,1.6-3.2,1.7c-6.4,0.5-12.7,1.1-19.1,1.2c-11.5,0.2-22.9-0.2-34.4,0.1
		c-10.4,0.3-20.7,1.4-31.1,2.1c-0.6,0-1.3,0.3-1.7,0.3c-0.9,8.4-1.8,16.5-2.8,25.2c6.6,0,13.1,0.1,19.5,0
		c11.6-0.2,23.2-0.6,34.8-0.7c7.2-0.1,14.4,0.1,21.6,0.2c1.4,0,2.7,0.6,4.1,1c0,0.5-0.1,1-0.1,1.6c-1.5,0.2-3.1,0.6-4.6,0.6
		c-13.7,0-27.5-0.3-41.2-0.2c-11.2,0.1-22.6-0.9-33.5,1.2c-7.1,1.4-14,1.7-21,1.9c-2.3,0.1-4.7-1.3-7.1-1.8
		c-1.2-0.3-2.7-0.6-3.7-0.1c-5.3,2.4-10.8,4.7-15.8,7.6c-15.5,8.8-31.5,9.3-47.8,3.2c-9.6-3.6-13.3-12.3-9.5-21.8
		c5.5-13.6,12.9-26,22.6-37c7.4-8.5,20.6-10.7,30.9-6.3c9.3,3.9,15.4,11.2,21.5,18.7c0.8,1,1.7,2,2.8,3.2
		c-0.9-6.5-3.1-11.2-8.2-15.5c-38.9-33.2-77.9-66.4-116-100.6c-31.2-28-66.3-50.6-99.7-75.6c-11.4-8.5-23.3-16.4-34.8-24.9
		c-5.9-4.4-11.1-9.5-16.7-14.2c-2.5-2.1-5.1-4.1-7.9-6c-2.3-1.6-3.3-3.1-0.9-5.3c0.6-0.6,1-1.5,1.7-2.4c-1.7-1.2-3.2-2.4-5-3.6
		c-1.2,6.9-7.4,6.6-11.7,8.1c-25.6,8.7-51.5,16.5-77,25.5c-25.6,9.1-50.9,19.2-76.3,28.9c-36.9,14-73.7,28-110.6,42.1
		c-1.9,0.7-3.7,1.6-5.5,2.4c-8.3,3.9-16.7,7.5-24.8,11.7c-4.7,2.4-8.9,5.9-13.3,8.7C334.4,262.9,331.8,264,330.2,259.3z
		 M661.9,141.3c4.9,4.6,9.1,8.8,13.6,12.7c3.8,3.3,7.7,6.5,11.8,9.5c10.5,7.6,21.3,14.7,31.6,22.5c34.2,25.9,70.4,49,102.5,77.8
		c38.1,34.2,77.2,67.2,115.8,100.7c1.7,1.5,3.4,2.9,4.7,3.9c3.6-2.6,6.9-4.9,10.8-7.7c-3-4.2-5.7-9.2-9.4-13.2
		c-10.6-11.6-21.5-23-32.4-34.3c-17.5-18.1-34.6-36.6-52.7-54.2c-41.3-40.3-84.5-78.6-130.7-113.3c-7.2-5.4-14.6-10.6-22.2-16.1
		c-1.5,3.5-2.8,2.4-4.5,0.7c-3.6-3.8-7.3-7.4-11.1-11c-1.1-1-3.3-2.5-3.8-2.2c-1.7,1.3-3.2,3.1-4.2,5c-2,4.1-3.5,8.5-5.6,12.5
		c-1.7,3.2-4.8,4.7-8.7,4.8C665.6,139.5,663.8,140.7,661.9,141.3z M333.6,257.9c0.4,0.3,0.8,0.5,1.2,0.8c1-0.6,2-1.1,3-1.7
		c6.6-3.7,13.1-7.5,19.8-11.1c2-1.1,4.2-1.5,6.3-2.4c8.7-3.9,17.2-8.4,26.2-11.8c54.9-21.2,109.8-42.6,165-63
		c31.2-11.5,63.1-21.3,94.6-31.9c2.6-0.9,4.3-4.7,3-7c-2.4-4.2-2.6-8.5-1.6-13.1c0.5-2.2,0.1-4.6,0.1-7.2c-5.7,0.9-11,1.1-15.8,2.5
		c-12.3,3.5-24.5,7.4-36.6,11.4c-32,10.4-64.1,20.6-96.1,31.4c-41.4,14-82.3,29.3-121.7,48.5c-5.8,2.8-11.4,5.7-17.9,6.5
		c-3.3,0.4-6.5,2.2-9.7,3.5c-4.8,2-9.6,4-14.3,6.1c-4.3,1.9-8.6,4-12.7,5.9c4.3,5.4,8.9,9.9,11.9,15.3
		C341.8,246.9,336.8,252.4,333.6,257.9z M219.7,472.7c1.2-5.5,1.2-10.6,3.1-15.8c5.6-16,13.7-30.6,21.5-45.5
		c9.4-18.1,19-36.1,27.7-54.5c8.9-18.8,16.6-38.1,25-57.1c3-6.8,7.1-13.1,10.3-19.8c2.1-4.5,0.8-6.8-3.8-8
		c-5.1-1.3-9.3-3.9-12.5-8.1c-1.5-1.9-2.8-3.8-4.5-6.1c-1.5,1.6-3.1,2.9-4.2,4.5c-3.1,4.8-6.6,9.6-8.9,14.8
		c-10.6,24.1-22.1,48-31.1,72.7c-13.6,37.2-30.4,73.1-45.9,109.4c-1.5,3.5-4,6.8-1.4,10.7c0.4,0,0.8,0.1,1.2,0
		c6.9-2.1,13.5-3,19.7,2.1C216.6,472.9,218.3,472.5,219.7,472.7z M943.2,408.8c4.1-7.3,1.1-15-0.8-22.6c-0.7-2.9-4.2-5-6.2-7.6
		c-4.9-6.5-10.5-12-18-15.3c-9.4-4.2-21-2.2-27.8,5.6c-9.2,10.6-16.4,22.7-21.7,35.7c-3.2,7.9-0.2,14.9,7.7,17.9
		c15.4,5.7,30.4,5.3,45-3C928.2,415.6,935.5,412.5,943.2,408.8z M181.2,491.7c-0.3,0.1-1.6,0.7-2.8,1.4c-3.9,2.6-7.8,5.1-11.5,8
		c-9.1,7-18.3,13.8-27,21.3c-6.6,5.6-8.3,13.1-4.5,21c7.1,14.9,14.5,29.6,21.7,44.4c1.3,2.6,3.5,3.6,6.2,3.2c2.7-0.4,5.3-1.1,8-1.6
		c-3.3-6.1-6.6-11.7-9.5-17.5c-5.2-10.4-5.2-21.9-6.1-33.2c-0.4-4.6,0.8-8.5,4.4-11.4c8.6-7,17.2-13.8,25.9-20.6
		c0.6-0.5,1.9-0.2,2.9-0.2c-0.4,1-0.5,2.3-1.2,2.8c-4.8,3.8-9.8,7.4-14.6,11.1c-1.6,1.3-3.9,2.7-4.3,4.4c-3.5,16-2.2,31.6,3.3,47
		c5.2-1.7,6.2-3.4,6.6-8.3c0.7-9.3,0.9-18.7,2.8-27.7c2-9.3,5.7-18.3,8.6-27.4c0.3-1,0.5-2.4,0-3.2
		C187.4,500.7,184.4,496.5,181.2,491.7z M212.6,505.2c1.9,1.5,3.6,3.1,5.5,4.5c5.8,4.2,11.6,8.4,17.6,12.3c5.3,3.4,6.3,8.2,4.9,13.5
		c-1.2,4.7-2.9,9.4-5.1,13.8c-4.6,9.4-9.7,18.7-14.6,28c-1.8,3.3-1.1,5.2,2.5,6.2c2.7,0.7,5.5,0.8,8.3,1.3c2.6,0.5,3.7-0.7,4.6-3.1
		c2.5-6,5.3-11.9,8.2-17.7c4.2-8.3,8.9-16.3,13.1-24.7c4.5-9.2,3-14.6-5.7-19.9c-11.4-6.9-23.1-13.4-34.6-20
		C215.5,501.9,214.2,503.4,212.6,505.2z M329.9,255.6c5.2-3.8,7.5-9.8,5.3-14.4c-5.2-10.9-19.9-18.5-31.7-16.2
		c-7.4,1.4-12.4,5.6-14.3,13.3c-1.7,7-1.3,13.6,1.7,20.2c4.6,10.1,20.2,14.9,29.1,8.8c1.2-0.8,1.9-2.2,2.7-3.5
		c0.6-1.1,0.8-2.4,1.3-3.6c0.5-1.2,1.2-2.3,1.8-3.4c0.5-1,0.8-2.1,1.3-3.1C328,254.2,329,254.9,329.9,255.6z M946.6,386.5
		c0.4,6.4,1.4,12.1,0.9,17.6c-0.9,9.7-1.3,9.7,8.7,9.4c7.2-0.2,10.1-2.7,11.3-9.6c0.4-2.5,1-5,1.2-7.5c0.8-11.7,1.2-10.7-9-10.6
		C955,385.8,950.4,386.3,946.6,386.5z M203.5,471.4c-2.2,0.8-7,1.1-9.1,3.6c-3.7,4.6-7.4,10.3-8.1,15.8
		c-1.3,10.6,12.7,18.7,21.8,13.2c2.8-1.7,5.4-4.6,6.6-7.6c1.9-4.5,3.5-9.5,3.4-14.3C218.1,476.4,211.1,471.4,203.5,471.4z
		 M657.6,118.5c1.2-0.5,2.1-1,3.1-1.2c4.5-1.3,8.8-0.9,12.5,2.1c4,3.2,3.4,8.7-1.3,10.7c-3.7,1.6-7.7,2.4-11,3.3
		c2.8,2.5,7,3.7,10,2.1c3.2-1.6,7.9-9.7,7.3-12.6c-0.4-1.8-0.9-4.5-2.2-5.1c-4.4-2-9-3.8-13.7-4.7
		C659.1,112.4,657.1,114.6,657.6,118.5z M665.5,118.5c-2.6,1.7-4.9,2.5-6.3,4.2c-0.7,0.9-0.3,3.3,0.5,4.6c1.4,2.5,4.3,3.2,6.6,1.9
		c2.3-1.3,4.1-3.6,6.1-5.5C670.2,122.1,668,120.4,665.5,118.5z M946.9,374.3c3.3-2.2,6.4-4.3,9.5-6.4c-1.7-3.2-3.2-3.6-6.9-1.5
		C945.6,368.6,944.9,371.3,946.9,374.3z M959.2,373.3c-0.3-0.5-0.6-0.9-0.9-1.4c-1.6,0.4-3.5,0.3-4.7,1.2c-1.1,0.8-1.6,2.6-2.3,4
		c1.5,0.1,3.3,0.7,4.5,0C957.2,376.4,958.1,374.7,959.2,373.3z M962.7,369.7c1,4.7-1.2,8-4.8,10.7
		C964,378.4,965.4,375.3,962.7,369.7z M655.2,119.6c-0.7,0.1-1.4,0.3-2,0.4c0.5,2.3,1,4.6,1.5,6.9c0.3-0.1,0.7-0.1,1-0.2
		C655.4,124.3,655.3,121.9,655.2,119.6z"/>
	<path d="M199.9,597.4c0.6-10.4,2.6-12.9,10.3-13.1c5.3-0.2,8.7,3.6,10,11.7c7.5-0.8,11.2,3.4,12.2,10.4c1,7.1-0.7,13-7.7,16
		c-0.2,0.4-0.3,0.6-0.3,0.7c-0.4,5.8,3.3,9.7,6.1,14.2c2.9,4.5,2.3,9.5,0.9,14.6c-3.3-5-0.2-12.6-6.7-16.7c-1,7.6-2.1,15.1-3,22.5
		c-0.1,0.9,0.2,2.2,0.8,2.7c9.5,7.1,19,14.1,28.5,21.2c2.8,2.1,5.3,1.4,8.1-0.2c9.4-5.3,18.9-10.4,28.4-15.5c0.7-0.4,1.9,0,2.8,0
		c-0.4,0.9-0.6,2.1-1.2,2.5c-4.9,2.8-9.8,5.3-14.7,8c-4.8,2.6-9.5,5.4-14.2,8.1c-3.4,1.9-6.8,2.5-10.1,0.1c-5.5-3.9-11-8-16.4-12
		c-3.8-2.8-7.5-5.7-12.2-9.3c0,6.1,0.1,10.9-0.1,15.8c0,1.4-0.9,2.7-1.4,4.1c-0.8-1.1-1.8-2.1-2.4-3.2c-2.4-4.1-4.7-8.3-7.1-12.4
		c-1.3-2.3-2.3-4.8-3.9-6.9c-1.3-1.7-3-3.2-4.9-4.1c-5.8-2.8-9.5-7.4-9.7-13.6c-0.1-3.1,2.4-6.5,4.4-9.3c2-2.8,1.8-8.7-1.1-10.7
		c-5.2-3.6-7.2-9.1-7.9-15c-0.5-4,3.5-8.2,8.3-9.6C197.1,598,198.4,597.7,199.9,597.4z M222.2,622.8c-6.5,0.3-12.2,0.3-17.9,0.9
		c-4,0.4-4.6,1.7-2.9,5.3c0.5,1.1,2.3,2,3.6,2.1c6.5,0.6,7.3,1.2,9.3,7.7c0.2,0.6,1.1,1.1,1.6,1.6c2.5,2.2,3.2,12.4,0.9,14.9
		c-0.5,0.6-1.2,1.2-1.9,1.4c-1.7,0.6-3.5,1.1-6,1.8c2.8,5,5.5,9.8,8.5,15.1C219.1,656.5,220.6,640.4,222.2,622.8z M211.9,619.7
		c3.7,0,7.4,0.7,10.7-0.1c6.2-1.5,8.5-8.7,5.8-15.9c-1.5-4-4.6-5.4-9.5-4.2c-4.3,1-7.2,4.4-7.1,8C212,611.3,211.9,615.1,211.9,619.7
		z M211.2,637c-3.1-2.8-3.1-2.8-10.7-1.1c-3.9,0.9-6.2,4.1-5.5,7.9c1.2,6.9,10.3,12.6,17.1,10.7c2-0.6,3.4-1.4,2-4
		c-0.5-1-0.3-2.8,0.2-3.8c1.4-2.6,0.4-3.6-2-4.3C207.6,641.1,207.6,640.9,211.2,637z M209.3,611.9c-0.2-1.1-0.2-2.7-0.7-4.2
		c-1.7-5.3-7.5-8.1-12.3-6.2c-5.7,2.3-6.8,5.9-3.8,12.1c0.3,0.7,0.7,1.4,1,2.2c2.2,4.4,5.7,5.9,11.2,4.6
		C209.2,619.5,208.9,615.8,209.3,611.9z M209.5,602.1c1.5-1.3,2.8-2.5,4.1-3.6c4-3,3.8-8.6-0.9-10.3c-2.2-0.8-6-0.5-7.6,0.9
		c-1.6,1.5-2.4,5.3-1.6,7.5C204.3,598.8,207.4,600.2,209.5,602.1z"/>
	<path d="M1102.3,449.3c-4.6,0-8.9,0.1-13.3,0c-13.1-0.3-22.7-7.8-31.7-16.1c-5-4.6-5.7-10.9-4.8-17.4c0.1-1,0.9-1.9,1.4-2.8
		c0.4,0.1,0.8,0.2,1.2,0.2c0.1,1.5,0.5,2.9,0.3,4.3c-0.8,6.9,1.9,12,7.1,16.4c10.9,9.3,22.9,14.5,37.5,11.9c0.7-0.1,1.6,0.1,2.2,0.1
		c1.2-4.4,2.3-8.8,3.7-13.1c0.4-1.2,2.1-1.9,3.2-2.9c-0.1,1.3,0.2,2.7-0.3,3.8c-3.5,8-3.4,16.5-2.4,24.8c1.8,15.5,3.8,30.9,6.2,46.3
		c5,32.1,12.6,63.7,20.6,95.2c1.8,6.9,3.9,13.8,6.1,20.6c0.3,1,2.2,2.2,3.3,2.2c17.7-0.9,35.4-2,53-3.2c5.5-0.4,11-1.7,16.5-2.4
		c1.4-0.2,2.9,0.8,4.3,1.2c-1.3,0.6-2.6,1.5-4,1.7c-22.1,1.9-44.3,3.6-66.4,5.6c-3.2,0.3-6.3,1.8-9.7,2.9c-0.2-0.6-1-1.6-0.8-2.2
		c1.7-4.9,0.2-9.7-1.4-13.9c-7.5-19.1-10.4-39.4-15.3-59.1c-7.1-28.5-11.1-57.5-14.5-86.6C1103.7,460.8,1102.9,454.9,1102.3,449.3z"
		/>
	<path d="M1465.2,898c-31.4-0.6-62.7-1.2-94.5-1.8c1.3,3.5,2.7,6.3,3.3,9.4c2.1,10.1-2.4,19.2-12.8,24.7c-4.3,2.2-9.2,4-13.9,4.5
		c-15.2,1.5-29.9,1-42.9-9.2c-7.2-5.7-9.7-13.3-12-21.3c-0.3-1.1,0.7-2.7,1.2-4c0.3,0.1,0.6,0.2,1,0.3c1.6,5,3.3,10,4.9,15
		c0.2,0.7,0.7,1.5,1.2,2c7.9,7.6,16.4,14.3,28.1,14.2c7.4,0,15,0.4,22.2-1c9.5-1.8,17.3-7,20-17.3c0.4-1.6,0.7-3.5,0.3-5.1
		c-2.8-11.8-11.3-27.4-27.6-28.2c-7.2-0.4-14.5,0-21.8,0c-0.7,0-1.4-0.4-2.1-0.7c0.4-0.7,0.6-1.9,1.2-2.2c1.6-0.7,3.3-1.4,5-1.3
		c7.7,0.5,15.4,0.8,23,2c7.1,1.1,13,5.1,16.6,11.4c2.3,3.9,5.4,5,9.5,5c22.1,0.3,44.2,0.6,66.3,1c6.1,0.1,12.2,0.4,18.4,0.8
		c1.8,0.1,3.6,0.9,5.4,1.4C1465.3,897.8,1465.2,897.9,1465.2,898z"/>
	<path d="M1148.5,383c-0.6-1.1-1.2-2.2-1.7-3.3c-4.4-9.2-9.5-17.9-18.1-23.9c-11.6-8.1-24-8.9-36.9-4.4c-4.5,1.6-9.4,3-13.1,5.8
		c-4.5,3.5-8.1,8.2-11.9,12.6c-1.3,1.5-2,3.4-3.3,5c-0.5,0.6-1.6,0.8-2.5,1.2c-0.1-0.9-0.5-2-0.1-2.5c4.6-6,8.2-13.3,14.1-17.5
		c9.1-6.5,19.9-10.4,31.4-10.3c13.8,0,25.1,5.7,33.4,16.6c3.5,4.6,6.3,9.8,9.2,14.9c0.9,1.5,0.9,3.5,1.2,5.3
		C1149.7,382.7,1149.1,382.8,1148.5,383z"/>
	<path d="M1197.1,474.9c0.3,1.1,0.7,2.3,0.9,3.4c0.1,0.8-0.2,1.6-0.3,2.5c-0.9-0.4-2.1-0.6-2.5-1.3c-0.9-1.6-1.5-3.4-2.1-5.2
		c-1.3-4.3-2.5-8.7-3.8-12.9c-3.8,0-7.4,0-11.1,0c0,6,0.1,11.6,0,17.1c0,1-0.7,1.9-1,2.9c-0.6-0.9-1.8-1.7-1.8-2.6
		c-0.4-5.4-0.6-10.9-0.9-16.8c-2.2,0.5-4.2,1-6.4,1.5c0,1.5,0,2.7,0,3.3c-2.5,0.2-5.5-0.5-6.5,0.6c-1.8,1.9-2.9,4.9-3.5,7.6
		c-0.6,2.5,0.8,4.5,3.5,5.6c1,0.4,1.6,1.6,2.4,2.5c-1.2,0.1-2.9,0.8-3.5,0.2c-2-1.7-4.5-3.5-5.3-5.8c-1.8-5.5,2.2-11.7,7.2-14.5
		c8.7-4.8,17.9-5.5,27.4-4.4c1.1,0.1,2.4,1.7,2.9,2.9c1.7,4.4,3.1,9,4.5,13.5L1197.1,474.9z"/>
	<path d="M1143.7,464.5c0.1,4.1-0.4,8.9,4.8,12.1c0-3.8,0-7.2,0-10.9c4.6,2.6,5,12,1,13.9c-1.3,0.6-3.3-0.3-5.3-0.6
		c0-0.1,0.1,0.5-0.2,1c-0.4,0.8-1,1.5-1.5,2.3c-0.5-0.8-1.3-1.6-1.5-2.4c-0.4-2.8-0.6-5.7-1.6-8.6c-1,2.5-1.7,5.1-3,7.3
		c-0.8,1.3-2.5,2.1-3.7,3.1c-0.8-1.2-2-2.4-2.4-3.7c-1-3.7-1.7-7.5-1.8-11.5c4.5,2.1,2.7,7,5.8,11c0.7-4.4,1.2-7.9,1.7-11
		C1138.5,465.8,1140.8,465.2,1143.7,464.5z"/>
	<path d="M1109.5,470.5c1.7-1.8,2-4.4,0.6-7.6c-0.4-0.9,1-3.6,1.9-3.8c5.5-1.3,11.2-2.2,16.8-3c0.8-0.1,1.7,1.1,2.6,1.7
		c-1,0.5-1.9,1.2-2.9,1.4c-3.2,0.4-6.4,0.5-9.5,1c-5.3,0.9-5.5,1.3-4.5,7.1c3.8-0.9,7.6-1.8,11.3-2.8c0.5,0.8,1,1.5,1.5,2.3
		c-0.9,0.2-1.8,0.5-2.7,0.7c-2.4,0.8-4.8,1.7-7.2,2.4c-2.5,0.7-3.5,2-2.9,4.6c0.6,2.7,1,5.5,1.4,8.2c0.1,0.9-0.3,1.8-0.4,2.7
		c-0.8-0.5-2.2-0.9-2.4-1.6c-0.7-2.4-1-4.9-1.6-7.3C1111.1,474.8,1110.4,473.2,1109.5,470.5z"/>
	<path d="M1216.7,469.9c-0.6,3-1,5.3-1.4,7.6c-0.5,0-1,0-1.5-0.1c-0.2-1.3-0.7-2.6-0.7-3.9c-0.1-3.2-0.1-6.4,0-9.6
		c0.1-1.2,0.7-2.3,1.1-3.5c1,0.9,2.1,1.7,2.8,2.8c2,3.1,3.9,6.4,5.8,9.6c0.5-0.1,1-0.3,1.6-0.4c0.3-4,0.6-8,0.8-12.1
		c0.1-1.2-0.2-2.4,0.1-3.6c0.2-0.7,1-1.3,1.5-1.9c0.5,0.6,1.4,1.1,1.4,1.7c-0.4,5.7-0.5,11.4-1.5,17c-0.5,3-3.6,3.5-5.9,1.3
		C1219.4,473.5,1218.3,471.8,1216.7,469.9z"/>
	<path d="M303.3,555.5c1.1-2.4,1.7-5.9,3.6-7.1c3.2-2.1,6.6,0.1,9.3,2.4c3.6,3.1,3.7,4.5,0.4,7.7c-1.1,1.1-2,2.8-3.3,3.4
		c-2.1,1-4.6,1.8-6.9,1.7c-0.8-0.1-1.4-3.2-2-4.9c-0.3-0.9-0.2-1.8-0.3-2.8C303.9,555.8,303.6,555.7,303.3,555.5z M316.2,554.5
		c-2.4-1.4-4.1-2.6-6-3.4c-0.6-0.3-2.4,0.6-2.4,1c0,3-1.3,6.3,2.1,9.1C311.8,559.1,313.7,557.1,316.2,554.5z"/>
	<path d="M1197.2,475c-0.9-4.6-0.6-9,2.1-13c2.9-4.4,7.2-4.2,9.6,0.5c2.1,4.1,1.8,8.3-0.3,12.3c-1.8,3.4-8.3,3.3-11.4,0.2
		C1197.1,474.9,1197.2,475,1197.2,475z M1207.1,468.3c-0.1-0.9,0-1.5-0.3-2c-0.8-1.4-1.7-2.8-2.6-4.1c-1.1,1.1-2.6,2.1-3.3,3.5
		c-0.8,1.6-1.2,3.6-1.1,5.3c0.1,1.1,1.4,3,2.1,3c1.5-0.1,3.2-0.9,4.2-1.9C1207,471.1,1206.9,469.3,1207.1,468.3z"/>
	<path d="M1123.8,866.1c2.8,1.4,4.7,2.1,6.3,3.3c6.9,5.3,14.3,5.6,22.2,2.6c1.1-0.4,2.6-0.1,3.9-0.1c-1,1-1.8,2.4-3,3
		c-10.4,4.6-19.7,1.4-28.3-4.8c-0.3-0.2-0.5-0.6-0.7-0.9C1124.2,868.7,1124.1,868.1,1123.8,866.1z"/>
	<path d="M308,579.7c1.6,0.3,2.7,0.3,3.4,0.7c1,0.6,1.8,1.6,2.7,2.5c-1.1,0.2-2.2,0.5-3.3,0.6c-0.8,0.1-1.6-0.1-2.3-0.3
		c-1.2-0.5-2.2-1.2-3.3-1.8C306.1,580.8,307.3,580.1,308,579.7z"/>
	<path d="M1447.8,654.5c-1.4-0.4-2.9-0.8-4.3-1.4c-27.1-11.4-46.5-31.8-64.3-54.3c-13.7-17.3-25.4-35.7-30.3-57.5
		c-2.4-10.6-3.6-21.5-5.1-32.3c-0.2-1.1,0.7-2.3,1.1-3.4c0.7,1.1,1.8,2.1,1.9,3.3c1.3,19.3,5.4,37.9,13.7,55.5
		c6.1,13.1,15.2,24.3,23.9,35.8c10.2,13.5,22.1,25.3,35.4,35.6c7.2,5.5,15.8,9.2,23.8,13.8c1.7,0.9,3.3,2,4.9,3
		C1448.3,653.3,1448.1,653.9,1447.8,654.5z"/>
	<path d="M1186.4,230.8c-0.4,0.6-1.2,2.7-2.5,3.2c-7.6,3-15.4,5.7-23.2,8.3c-1.9,0.6-4.4,0.8-5-2.2c-0.9-4.5,0.1-7.2,3.1-8.1
		c5.4-1.6,10.8-3.5,16.2-5c2.5-0.7,5.2-1.1,7.8-1.3C1185.4,225.4,1186.6,226.9,1186.4,230.8z M1183.3,229.3
		c-6.8-1.1-23.3,5.6-24.1,9.5C1164.9,239.2,1181,233,1183.3,229.3z"/>
	<path d="M1180.6,307.7c-0.2,5.6-5.5,10.1-10.9,9.1c-0.8-0.1-2-1.4-1.9-1.9c0.3-1.3,0.9-3.4,1.8-3.7c2.9-1,4-2.9,4.3-5.6
		c0.3-2.2,0.7-4.9,3.5-4.1c1.4,0.4,2.2,3,3.1,4.6C1180.8,306.5,1180.6,307.2,1180.6,307.7z"/>
	<path d="M1161.8,265.2c-0.7-0.3-2.5-0.8-3.5-1.9c-0.8-0.9-0.4-2.8-0.5-4.2c1.2,0.1,2.7-0.2,3.7,0.4c3.8,2.3,8.4,1.4,12.5-2.7
		c1.4-1.4,2.2-4.6,5.1-2.4c0.3,0.2-1.4,3.7-2.7,5.1C1172.4,263.6,1168.3,265.2,1161.8,265.2z"/>
	<path d="M1202.8,354.4c2.9-1.1,5.2-2,7.6-2.7c0.2,0,1.3,1.6,1.1,2.1C1210.4,356,1206.2,356.6,1202.8,354.4z"/>
	<path d="M521.8,156.4c-2.1,0.8-3.2,1.2-4.5,1.6c1.5,3.7,2.9,7.1,4.1,10.6c0.3,0.8-0.2,1.8-0.3,2.7c-0.8-0.5-2-0.8-2.5-1.5
		c-0.8-1.3-1.2-2.9-1.8-4.4c-0.4-1-0.7-2.5-1.4-2.8c-2.2-1-3.8-1.9-2-4.6c2-3,6.3-5.6,8.2-4.1c1.8,1.4,2.6,4,3,6.6
		c2,1.2,4.1,2.3,6.2,3.5c0.3-3.3,0.3-6.5,1-9.6c0.7-3.4,2.6-6.4,6.5-6.6c1.4-0.1,3,0.7,4.3,1.5c0.6,0.3,0.6,1.5,0.9,2.3
		c-0.8,0.1-1.9,0.5-2.4,0.2c-3.7-2.4-5.5,0.1-6.1,2.9c-0.6,3-0.1,6.2,0.3,9.3c0.1,0.5,2.1,0.8,3.3,1.1c0.3-1,0.6-2,0.8-3.1
		c0.3-1.3,0.2-3.8,0.6-3.9c1.7-0.3,3.5,0.1,5.2,0.4c0.4,0.1,0.8,0.8,0.9,1.2c0.4,1.3,0.6,2.6,0.9,3.9c-1.2-0.3-2.4-0.6-3.3-0.8
		c-1,1.5-1.9,4-3.5,4.8c-1.7,0.8-4.2,0.3-6.3-0.2c-4.1-1-8.2-2.3-12.1-3.7c-0.7-0.3-1.4-1.7-1.4-2.6
		C520.4,160.1,521,158.8,521.8,156.4z"/>
	<path d="M441.5,192.6c1.9,1.6,3.9,2.9,5.5,4.6c0.7,0.7,0.6,2.2,0.8,3.4c-1-0.4-2-0.7-3-1.2c-2.4-1.2-4.8-2.6-7.1-3.9
		c-0.3,0.4-0.7,0.8-1,1.2c0.7,1.8,1.5,3.5,2,5.4c0.2,0.8-0.2,1.8-0.3,2.7c-0.8-0.4-1.8-0.5-2.2-1.2c-1.7-2.6-3.3-5.3-4.6-8.1
		c-1.6-3.5,3.7-10.9,7.6-10.9c2.7,0,3.9,1.6,3.5,4.1C442.5,190.1,441.9,191.5,441.5,192.6z"/>
	<path d="M561.1,141.8c-4.2,3.6-11,5.2-6.9,11.9c2.2-1.7,4.5-3.5,6.9-5.1c0.6-0.4,1.7,0,2.5,0c-0.3,0.9-0.4,2-1,2.6
		c-2,1.9-4.1,3.7-6.2,5.5c-0.5,0.5-0.9,1.2-1.4,1.7c0.9,0.1,2,0.5,2.7,0.2c2-1,3.9-2.4,5.9-3.4c0.7-0.3,1.6-0.1,2.5-0.1
		c-0.2,0.8-0.1,2.1-0.6,2.4c-3,1.9-6.1,3.8-9.4,5.1c-0.8,0.3-3.1-1.3-3.6-2.4c-1.1-2.7-1.6-5.6-2.1-8.5c-1-5.7,2.3-10,8.1-10.9
		C558.9,140.8,559.5,141.2,561.1,141.8z"/>
	<path d="M452,198.4c0.4-5.7,0.7-10.4,1.2-15.1c0.1-1.1,0.9-2.8,1.8-3.1c0.9-0.2,2.5,0.6,3.3,1.5c3.2,3.4,6.2,6.9,9.2,10.4
		c0.4,0.5,0.4,1.4,0.6,2.1c-0.8,0.1-1.8,0.4-2.5,0.1c-0.7-0.2-1.2-1.1-1.9-1.4c-1.5-0.7-3.1-1.7-4.6-1.6c-2.3,0.1-3.8,1.5-3.5,4.2
		c0.1,1-0.4,2.1-0.9,3c-0.4,0.6-1.4,0.7-2.2,1.1C452.2,198.8,451.9,198.2,452,198.4z"/>
	<path d="M407.6,212.9c-0.9,2.3-1.5,4.2-2.4,6c-0.3,0.7-1.3,1.1-1.9,1.6c-0.3-0.9-1-1.9-0.8-2.7c0.4-1.9,1.2-3.8,1.9-5.7
		c-2.5-1.4-4.9-2.7-7.3-4c0.2-0.6,0.5-1.2,0.7-1.8c2.6,0.7,5.2,1.4,8.3,2.2c1.1-2.2,2-4.7,3.4-6.8c0.6-0.9,2.2-1.3,3.3-1.9
		c-0.2,1-0.1,2.2-0.5,3.1c-0.9,2.2-2,4.3-3.2,6.8c2.4,1,4.7,1.7,6.8,2.8c0.8,0.4,1.2,1.4,1.8,2.2c-0.9,0.2-1.9,0.8-2.7,0.6
		C412.6,214.8,410.4,213.9,407.6,212.9z"/>
	<path d="M513.9,168.3c-0.7,1-1.5,2-2.3,3.1c0.2,0.5,0.6,0.9,0.7,1.4c0.2,0.9,0.3,1.9,0.4,2.8c-1-0.3-2.1-0.5-3-1
		c-0.9-0.5-1.7-1.3-2.6-2c-0.4,1.2-0.8,2.3-1.1,3.5c-0.2,0.8,0,1.7-0.3,2.3c-0.3,0.6-1,1-1.6,1.5c-0.5-0.5-1.3-1.1-1.4-1.6
		c-0.2-5-0.2-9.9-0.2-14.9c0-0.6,0.7-1.8,1.1-1.8c0.8,0,1.6,0.5,2.4,0.9c0.1,0,0.1,0.2,0.2,0.3c1.8,2.5,2.7,6.4,7.8,4.1
		C514,167.4,514,167.9,513.9,168.3z"/>
	<path d="M499,179.5c-0.8,0.7-1.5,1.6-2.4,2.1c-3,1.7-6,3.5-9.1,4.9c-1,0.4-3.7-0.2-3.8-0.6c-1.1-5.6-1.9-11.3-2.7-16.9
		c-0.1-0.4,0.4-0.9,0.7-1.6c3.5,1.6,2.2,4.8,2.9,7.2c0.7,2.7,1.2,5.4,1.8,8.5C490.7,181.9,493.9,177.9,499,179.5z"/>
	<path d="M421.1,199.3c-1.4,0.2-2.7,0.3-4,0.4c0.6-1.3,1-3,2-3.8c2.4-1.9,5-3.5,7.6-5c0.6-0.4,1.7,0,2.5,0.1
		c-0.2,0.7-0.1,1.6-0.5,2.1c-1.3,1.6-3.9,3-4,4.5c0,3.2,1.3,6.4,2,9.6c0.2,1.1,0.3,2.3,0.5,3.4c-1.1-0.7-2.9-1.1-3.3-2.1
		C422.6,205.5,421.9,202.2,421.1,199.3z"/>
	<path d="M309.4,231.1c3,1,6.2,1.6,8.9,3.1c8.5,4.8,9,15.3,1.1,21.2c-2.3,1.7-4.8,3.3-7.3,4.8c-5.7,3.4-11.2,3-15.9-0.9
		c-3.8-3.2-5.1-9.2-3.2-14.7C295.5,237.4,302.7,231.7,309.4,231.1z M311,234.7c-7-0.3-14.3,6.3-15.4,12.4c-0.7,4-0.3,7.7,3.4,10.3
		c3.8,2.7,7.7,2.4,11.6,0.1c2.6-1.6,5.2-3.2,7.6-5.1c5.3-4.3,5.1-11-0.5-14.8C315.3,236,312.3,235.3,311,234.7z"/>
	<path d="M202.3,502.5c-6.7-0.1-9.1-2.4-9.4-9.1c-0.2-5.8,1.3-10.9,6.5-14.2c6.7-4.3,12.6-1.7,15.1,6.5
		C217.1,494.3,211.1,502.6,202.3,502.5z M202.2,499.2c7.8,0.1,11.5-6.3,7.8-13.3c-0.2-0.4-0.4-1-0.3-1.5c0.6-3.7-2-3.9-4.4-3.8
		c-5.7,0.2-9.9,5.8-9.5,12.5C196.1,497.8,197.5,499.2,202.2,499.2z"/>
</g>
<path d="M895.3,198.1c0.3,13.6,3.6,28.6,11.5,40c8.2,11.8,19.6-3.5,26.3-9.5c1.4-1.3-0.7-3.4-2.1-2.1c-3.8,3.5-7.6,7-11.5,10.4
	c-1.7,1.5-4.8,3.2-7.3,2.5c-1.2-0.4-2.5-2.3-3.2-3.3c-1.4-2.1-2.5-4.4-3.6-6.7c-4.5-9.8-6.9-20.4-7.1-31.2
	C898.3,196.2,895.3,196.2,895.3,198.1L895.3,198.1z"/>
<path d="M903.7,218.4c6.9-7.4,14.7-13.7,23.4-18.9c1.7-1,0.1-3.6-1.5-2.6c-8.9,5.3-16.9,11.8-24,19.3
	C900.3,217.7,902.4,219.8,903.7,218.4L903.7,218.4z"/>
<path d="M892.3,207.5c8.2-5.3,16.5-10.7,24.7-16c1.6-1,0.1-3.6-1.5-2.6c-8.2,5.3-16.5,10.7-24.7,16
	C889.1,206,890.6,208.6,892.3,207.5L892.3,207.5z"/>
<path d="M942,225.7c10.6-13.9,5.4-34.9,4-50.8c-0.9,0.3-1.9,0.5-2.8,0.8c5.7,13.5,13.2,25.9,22.5,37.3c1.2,1.5,3.3-0.6,2.1-2.1
	c-9-11.1-16.4-23.4-22-36.7c-0.6-1.4-2.9-0.7-2.8,0.8c1.4,15.3,6.6,36-3.6,49.3C938.2,225.7,940.8,227.2,942,225.7L942,225.7z"/>
<path d="M940.4,205.6c7-2.3,13.2-6,18.4-11.1c1.4-1.4-0.7-3.5-2.1-2.1c-4.9,4.8-10.6,8.3-17.1,10.4
	C937.8,203.3,938.5,206.2,940.4,205.6L940.4,205.6z"/>
<path d="M976.2,168.4c-5.8-0.6-12.7,1-16.9,5.4c-2.6,2.8-2.3,5.6,1.1,7.3c3.2,1.6,7.1,2.4,10.5,3.2c3.3,0.8,8.1,1,10.6,3.7
	c3.6,3.9,0.7,10.2-2.5,13.2c-3,2.8-6.9,3.9-10.9,3.4c-1.9-0.2-1.9,2.8,0,3c9.5,1,21.7-8.5,17.4-19c-2.2-5.5-8.7-6-13.7-7.1
	c-1.9-0.5-3.8-1-5.7-1.6c-1.1-0.3-2.2-0.7-3.2-1.1c-2-1.7-2.1-2.9-0.3-3.7c2.8-3.6,9.7-4.1,13.7-3.7
	C978.1,171.6,978.1,168.6,976.2,168.4L976.2,168.4z"/>
<path d="M979.6,165.7c1.6,8.7,11,15.2,19.7,12.4c8.3-2.6,12.4-12.5,9.5-20.4c-0.5-1.5-3.1-1.4-2.9,0.4c1.3,14.5,2.6,29,3.9,43.4
	c0.2,1.9,3.2,1.9,3,0c-1.3-14.5-2.6-29-3.9-43.4c-1,0.1-2,0.3-2.9,0.4c2.3,6.3-0.5,14-7,16.5c-7.3,2.8-15.1-2.9-16.4-10.1
	C982.1,163,979.2,163.8,979.6,165.7L979.6,165.7z"/>
<g>
	<path d="M1036.9,206"/>
</g>
<ellipse cx="311" cy="554.3" rx="1.7" ry="2"/>
</svg>
