<?xml version="1.0" encoding="utf-8"?>
<!-- Generator: Adobe Illustrator 22.0.1, SVG Export Plug-In . SVG Version: 6.00 Build 0)  -->
<svg version="1.0" id="Ebene_1" xmlns="http://www.w3.org/2000/svg" xmlns:xlink="http://www.w3.org/1999/xlink" x="0px" y="0px"
	 viewBox="0 0 1547.9 1049.4" enable-background="new 0 0 1547.9 1049.4" xml:space="preserve">
<g>
	<path fill="#020202" d="M862.4,1.1C854.2,2.1,845.9,3,837.7,4c-24.4,2.8-48.8,5.4-73.1,8.6c-35.6,4.7-71.1,9.8-106.7,15
		c-42.3,6.3-84.5,12.8-126.8,19.4c-38.1,5.9-76.2,12-114.4,18c-35.1,5.5-70.2,11.1-105.4,16.4c-24.2,3.6-48.4,6.6-72.6,9.9
		c-24.7,3.3-49.4,6.8-74.1,9.9c-16.7,2.1-33.5,3.8-50.2,5.7c-2.1,0.2-4.1,0.7-6.2,0.9c-1.2,0.1-2.4-0.1-3.6-0.2
		c-0.1-0.4-0.1-0.8-0.2-1.2c1-0.3,1.9-0.9,3-1c13.9-1.7,27.9-3.2,41.8-5c19.4-2.5,38.7-5.1,58.1-7.6c22-2.9,44.1-5.5,66.1-8.6
		c26.7-3.8,53.4-8,80.1-12c31.5-4.8,63-9.5,94.5-14.5c35.6-5.6,71.1-11.6,106.7-17.2c30.2-4.7,60.4-9.2,90.6-13.6
		c29.7-4.4,59.4-8.8,89.2-12.8c28.3-3.8,56.7-7.2,85.1-10.7c5.4-0.7,10.8-1.5,16.3-2.2C844.8,1.1,853.6,1.1,862.4,1.1z"/>
	<path fill="#020202" d="M605.4,727.6c0.8-0.6,1.6-1.6,2.4-1.7c4.5-0.4,8.9-0.6,13.5-0.8c-1.1-3.6-2.4-7.2-3.3-10.8
		c-0.2-0.8,0.3-1.8,0.5-2.8c0.7,0.6,1.7,1,2,1.8c5.6,16,15.1,30,22.1,45.3c3,6.6,1.2,14.8-4.2,19.6c-3.7,3.3-7.5,4.9-12.5,4.6
		c-6.9-0.4-13.9-0.1-20.9-0.1c-0.2,0-0.5,0.1-0.8,0.6c14.7,4,29.5,8,45,12.1c0.5-7.6,1-14.4,1.3-21.3c0.1-2.4,0.8-3.9,3.4-4.3
		c6.6-1,13.2-2.2,19.9-3.1c1.6-0.2,3.3,0.5,5,0.8c-0.1,0.4-0.1,0.8-0.2,1.2c-8.4,1.3-16.8,2.7-25.4,4c3.9,6.9,10.7,7,16.9,8.3
		c39.3,8.3,78.6,17.1,117.1,28.7c24,7.2,48.5,11.4,73.3,14.5c57.3,7,114.1,16.8,169.7,32.7c13.5,3.9,27.3,6.7,40.9,10
		c0.9,0.2,2,0.3,2.8,0.7c0.8,0.4,1.5,1.2,2.2,1.8c-0.9,0.2-1.9,0.8-2.7,0.6c-7-1.6-14-3.4-21-5.1c-32.2-7.8-64.2-16.5-96.6-23.1
		c-28.8-5.9-58.1-9.7-87.2-13.9c-31.3-4.5-62.3-10.3-92.9-18.7c-36.6-10.1-73.8-18-110.8-26.8c-3.8-0.9-7.5-1.8-11.7-2.8
		c-0.8,6.8-1.6,13.2-2.4,19.5c-0.5,4.2-0.9,8.5-1.5,12.7c-0.5,3.4,0.7,4.7,4.1,5.1c31.4,3.9,62.6,8.9,93.4,16.5
		c35.2,8.6,70.3,18,105.9,25.2c46.3,9.5,92.4,20,138.4,31c13.3,3.2,26.6,6.6,39.9,9.7c1.7,0.4,4,0.1,5.5-0.7
		c31.5-16.5,63.2-32.7,96-46.4c0.7-0.3,1.3-0.6,2-1.8c-11.1-2.2-22.2-4.4-33.5-6.7c0,4.7,0,8.8,0,13.4c-3-1.2-2.9-3.6-3-5.8
		c-0.5-8-0.9-16-1.4-24.9c-6.4,2.8-13.6,2.4-16.9,8.5c-2.1,3.9-2.6,8.8-3.1,13.4c-0.5,5.3-0.1,10.7-0.1,16c-0.4,0.1-0.9,0.2-1.3,0.4
		c-0.5-1.7-1.5-3.4-1.4-5c0.2-6.1,0.7-12.2,1.1-18.3c0-0.6,0.1-1.2,0.2-2.3c-2.2-0.5-4.4-1-6.7-1.5c-62.5-11.6-124.9-23-187.4-34.8
		c-23.9-4.5-47.5-10.4-71.4-14.7c-23.6-4.2-47.3-7.2-71-10.9c-11.8-1.8-23.6-4.2-35.4-5.9c-6.4-0.9-12.9-1-19.3-1.5
		c-0.9-0.1-1.8-0.3-2.6-0.4c-0.1-0.4-0.1-0.8-0.2-1.3c1.5-0.4,3-1.1,4.4-1c6.9,0.6,13.9,1.1,20.7,2.1c28,4.3,56.1,8.3,84,13.2
		c25.6,4.5,51.1,10,76.6,14.8c34.9,6.6,69.9,13.1,104.8,19.7c29.1,5.5,58.2,10.7,87.1,16.6c6.2,1.3,11.2-0.2,16.7-2.2
		c14.5-5.2,29.1-9.8,43.7-14.8c15-5.2,30-10.5,45-15.8c1.6-0.6,3.2-1.4,5.1-2.4c0.1,3.5-2.3,4-4.2,4.7c-14.5,5.2-29,10.3-43.6,15.3
		c-6.7,2.3-13.4,4.5-20.2,6.6c-2.3,0.7-2.8,1.8-2.4,4c0.4,2.3,1.1,4.6,0.9,6.9c-0.4,4.6,2.1,5.6,6,6.2c10.2,1.8,20.3,4.2,30.6,6
		c2.4,0.4,5.2,0.2,7.4-0.6c20-7.5,40-15.3,60-22.8c2.5-0.9,3.6-2.2,3.9-4.9c3.1-26.3,1.5-52.4-1-78.6c-1.3-13-2.7-26.1-2.9-39.1
		c-0.6-35.8-1.4-71.6-0.8-107.4c0.6-37.5,2.3-75,4.1-112.5c1.9-38,3.6-76,3.2-114c0-3.7-1.3-4.5-4.6-4.6c-19.4-0.2-38.9-0.7-58.3-1
		c-24-0.3-47.9,0.1-71.9-0.7c-14.6-0.5-29.2-2.8-43.8-3.7c-8.9-0.6-17.8-0.2-26.7-0.2c-2.2,0-4.7,1.1-5-2.8c-0.1-0.7-2.6-1.8-4-1.8
		c-6.3,0.2-11.3-3.3-16.8-5.5c-9.6-3.8-19-8.3-29.6-9c-2.8,8.8-10.5,6.4-17.1,7.6c1,22.2,1.9,44.1,2.9,66.5
		c5.8-0.7,11.1-1.5,16.4-1.9c16.9-1.5,33.8-2.8,50.8-4.2c15.7-1.3,31.4-3,47.1-3.9c13.3-0.7,26.6-0.5,39.9-0.7
		c5.7-0.1,11.5-0.3,17.2-0.3c12.6,0,25.2-0.2,37.8,0.6c3.4,0.2,7,1.5,10.7,1.6c0.8,0,1.5,1.7,1.9,2.9c-8.9-0.8-11.9-0.3-14,2.5
		c5.6,4.1-0.7,8.5,0.4,12.8c1-0.4,2-0.7,4-1.5c-0.8,2-1,3.3-1.7,4.3c-9.7,13.3-16.6,28.2-23.1,43.2c-6.8,15.8-14,31.5-20.3,47.5
		c-5.3,13.4-9.4,27.3-14.2,40.8c-7.6,21.4-15.9,42.5-23.2,64c-9.9,29-19.1,58.3-28.7,87.4c-0.9,2.6-2,5.1-3.4,7.4
		c-0.3,0.5-2.5,0.5-3.3,0c-1.8-1.1-3.4-2.7-4.3-3.5c-2.4,0.7-4,1.6-5.5,1.5c-7.6-0.3-15.1-1-22.7-1.2c-15-0.4-30.1-0.6-45.1-0.8
		c-4.6-0.1-9.2,0-14,0c-2.7,13.8-0.5,27.3,4.6,40.5c-0.6,0.2-1.1,0.4-1.7,0.6c-0.8-1.4-1.8-2.7-2.3-4.3c-3.5-10.3-5.5-20.8-3.8-31.7
		c0.2-1.4,0.2-2.9,0.2-4.4c0-0.3-0.1-0.7-0.3-1.4c-1.7-0.2-3.5-0.5-5.2-0.6c-6.7-0.1-13.4-0.1-20.2-0.2c-1.7,0-3.2,0-3.2,2.4
		c-0.2,13.1-1.8,26.2,1.8,39c0.8,3,2.4,5.8,3.6,8.7c0.3,0.8,0.7,1.6,1.1,2.4c-0.3,0.3-0.6,0.5-0.9,0.8c-1-0.8-2.2-1.5-2.9-2.5
		c-4.2-6.1-4.9-13.3-5.3-20.3c-0.5-8.5-0.1-17.1-0.1-25.7c0-1.3,0-2.6,0-4.5c-3.9,0.3-7.6,0.5-11.2,0.7c-20.8,1.4-41.7,2.9-62.5,4.2
		c-2.2,0.1-4.4-0.2-6.6,0c-0.9,0.1-1.9,0.7-2.8,1.2c-0.8,0.4-1.4,1-2.1,1.6c-0.3-1.1-1.1-2.2-0.9-3.2c1.1-7.1,1.6-14.4,3.6-21.3
		c8.3-28.4,17.1-56.6,25.5-84.9c3.7-12.3,7-24.7,10.5-37c0.5-1.6,1.3-3.1,2-5c-4.9-0.2-9.5-0.4-14.8-0.7c-3.3,5.6-7,11.7-10.6,18
		c-7.7,13.7-16.8,26.7-21.8,41.9c-0.8,2.5-2.6,3.2-5.2,2.5c-2.1-0.6-4.1-1.3-6.6,0.7c-2.9,2.3-1.7-1.6-1.9-2
		c-13.1-3.7-25.5-7.1-37.8-10.9c-4.3-1.3-8.3-3.4-12.4-5.3c-4.5-2.1-9.2-2.7-13.9-1.6c-20.3,4.4-40.6,8.8-60.9,13.2
		c-4.1,0.9-8,2.5-12.1,2.8c-7.9,0.6-15.1,3.6-22.5,6c-1,0.3-2.1,0.1-3.1,0.1c0-1,0-2,0-3.2c0.1,0.1-0.1-0.1-0.2-0.2
		c-1.5-0.4-3-0.9-4.5-1.3c1.2-1.2,2.3-2.4,3.7-3.5c4.1-3.2,8.1-6.7,12.5-9.5c20.3-13.2,40.7-26.2,61.1-39.2
		c3.4-2.1,6.8-4.4,11.1-3.2c1.8,0.5,3.5,1.2,5.5,1.9c0.1-1.4,0.1-2.2,0.1-3c0.4-0.2,0.8-0.5,0.9-0.4c9.4,5.3,20.1,5.8,30.2,8.1
		c8.9,2,17.9,3.8,26.9,5.7c2,0.4,3,1.3,1.1,3.2c-0.4,0.4-0.6,1.1-0.2,2c2.3-3.4,4.7-6.7,6.7-10.2c12-20.1,24.4-39.8,39.4-57.8
		c2.3-2.7,2.6-7,6.7-8.3c2.2-0.7,4.3-1.9,6.5-2c7.4-0.5,14.9-0.8,22.3-1c1.5,0,3,0.8,4.5,1.2c-1.2,0.9-2.5,1.9-3.6,2.7
		c1.3,0.5,3.1,1.2,4.8,2.1c0.5,0.3,0.6,1.3,0.9,2c-0.7,0.2-1.4,0.6-2,0.4c-9.8-3.1-19.9-0.5-29.8-1.2c-2-0.2-4.1,1.9-6.7,3.2
		c1.2,0.5,1.4,0.7,1.5,0.7c1.6-0.5,3.2-1,4.7-1.5c-0.1,1.7,0.4,3.7-0.3,5.1c-2,3.9-4.4,7.6-6.7,11.4c-4.9,8-9.7,16.1-14.7,24.1
		c-0.6,0.9-1.9,1.4-2.8,2.1c0.1-1.1-0.2-2.4,0.4-3.3c3.8-6.7,7.7-13.3,11.7-19.9c1.2-2,2.6-4,3.9-6c-0.4-0.3-0.8-0.5-1.1-0.8
		c-3.9,5.3-8.5,10.2-11.7,15.9c-8.3,14.7-16.1,29.6-24,44.5c-1.6,3-3.1,3.9-6.6,2.8c-17.3-5.1-34.7-10.2-52.1-14.7
		c-9.3-2.4-18.7-3-27.5,2.7c-15.7,10.1-31.7,19.8-47.6,29.7c-4,2.5-8.2,4.8-12.1,8c1.5-0.4,3.1-0.7,4.5-1.1
		c26.2-8.6,52.9-15,79.9-20c2.2-0.4,5.6-2.3,5.7,2.6c0,0.5,1.6,1.1,2.5,1.4c19.2,6.5,38.1,14,58.3,16.9c1.1,0.2,2.8-0.7,3.4-1.6
		c8.7-13.4,17.4-26.9,25.7-40.5c2.3-3.8,3.7-8.2,5.7-12.2c1.9-4,3.8-8.1,6.1-12c0.5-0.9,2.2-1.6,3.4-1.7c9-0.1,18.1-0.1,27.1,0
		c1.3,0,2.6,0.9,3.9,1.4c-0.1,0.4-0.2,0.9-0.3,1.3c-10.2,0-20.4,0-30.6,0c0,0.3,0,0.5,0,0.8c5.8,0.6,11.6,1,17.4,1.7
		c1.2,0.1,2.3,1,3.5,1.5c-0.5,1.1-1.1,2.2-1.7,3.5c1.7,1.8,1.3,3.4-0.4,5.9c-1.9,2.8-2.2,6.6-3.2,10c0.3,0.1,0.7,0.3,1,0.4
		c1.8-3.6,3.5-7.2,5.5-10.7c0.7-1.2,2.6-2.9,3.5-2.7c2.4,0.7,1.5,2.8,0.9,4.6c-11.8,35.1-23.6,70.2-35.5,105.2
		c-3.1,9.1-6.8,18-10.1,27.1c-0.5,1.2-0.7,2.6-1.2,4.6c3.6-0.2,6.8-0.4,10-0.5c22.3-1.3,44.7-2.5,67-3.8c16.2-0.9,32.4-2.8,48.7-2.6
		c20,0.1,40,2.2,60,2.7c8.7,0.2,15,4.8,21.9,9.9c0.4-4.5,0.5-8.8,1.3-12.8c2.8-12.6,5.6-25.3,8.8-37.8c7.7-30.1,18.5-59.2,30.8-87.8
		c4.8-11.2,10.5-22.4,13-34.2c3.1-14.5,9.1-27.9,13.7-41.7c7.3-21.8,15.9-43.1,23.8-64.7c1.9-5.3,3.4-10.7,5.2-16
		c0.4-1.1,1.5-1.9,2.2-2.8c0.3,1.2,1.2,2.6,0.9,3.7c-1.1,4.6-2.6,9.1-3.7,13.7c4.9-7.7,7.5-16.7,13-24.2
		c-76.8,2.1-153.5,10-230.2,16.6c-1.2,20.8-10.6,38.5-18.7,56.6c-4.5,10-9.1,20-13.5,30.1c-1.1,2.6-1.6,5.4-2.5,8.7
		c-3.1-2.8-1.1-5.4-1.1-8.3c-3.8-0.4-2.8-3-1.8-5.3c2.2-5.4,4.6-10.8,6.7-16.3c7-18,14.1-36,20.5-54.1c1.7-4.9,1.7-10.6,1.8-15.9
		c0.7-21.1,1.2-42.3,1.8-63.4c0-0.8-0.1-1.7-0.2-3.1c-7.6,5.3-16.2,6.7-24.7,7.9c-16.4,2.2-33,3.6-49.5,5.1
		c-28.8,2.7-56.7-2.9-84.6-8.8c-13-2.8-24.8-8.1-36.2-14.7c-14.2-8.1-14.1-24.9-8.4-35.3c4.5-8.2,10.9-14.3,18.6-19.3
		c19.9-12.9,40.8-23.5,64.1-29.1c17.3-4.2,34.6-4.5,52-1.8c8.1,1.2,8,1.7,12.2-5.6c2.9-5.2,6.2-6.9,11.8-4.6
		c11.4,4.7,23.7,4.6,35.6,6.4c6.9,1.1,9.5,5.2,6.6,11.6c-1.9,4.2-3.7,8.5-5.5,12.8c-0.4,0.9-0.6,2.4-0.1,3c2.5,3.1,5.3,5.9,8.8,9.7
		c0-2.6,0-4.1,0-5.6c-0.2-22.2-0.4-44.5-0.5-66.7c-0.1-12.1,0.1-24.2,0-36.3c0-3.9-0.8-7.8-1.1-11.7c-0.1-1.2,0.3-2.3,0.4-3.5
		c0.4,0,0.8,0,1.2,0c0.3,0.9,0.7,1.8,0.7,2.8c0.5,14,1.3,28,1.4,42.1c0.3,25.9,0.4,51.8,0.1,77.7c-0.3,38.3-1,76.5-1.4,114.8
		c-0.1,6.9,0,13.9,0,21.3c0.5-0.4,1.8-0.8,1.9-1.4c0.5-2.5,2.3-2.4,4.2-2.6c7.7-0.9,15.5-1.8,23.2-3.1c-4.2-3.8-9.5,1.2-13.9-2.8
		c1.6-0.4,3.1-0.8,4.7-1c8.8-1.3,8.5-1.3,8.1-10.1c-1.3-30.7-2.5-61.3-3.5-92c-1-32.4,0.3-64.8,2.4-97.1c0.6-9.9,1.6-19.7,2.5-29.6
		c0.1-1.1,1-2.2,1.6-3.3c0.5,1.1,1.5,2.2,1.4,3.3c-0.3,3.6-1.1,7.1-1.4,10.7c-3,34.1-4.6,68.3-4.3,102.5c0,4.6,0.1,4.8,4.7,3.9
		c4.9-0.9,8.2,1.3,10.5,4.9c12.2-5.3,24-10.7,36-15.4c12.7-5,25.6-9.1,39.5-10.2c13.4-1,26.7-2.8,40-4.6c30.2-4.2,60.4-8.7,90.7-13
		c18.1-2.6,36.3-5,54.4-7.4c2.7-0.4,3.6-1.3,3.8-4.1c1.5-25.6,3.3-51.2,4.9-76.8c0.5-8.9,0.6-17.8,0.9-26.8c0-1.2,0.4-2.4,0.6-3.6
		c0.4,0,0.8,0,1.1,0c0.2,1.2,0.6,2.4,0.6,3.6c-0.9,20.8-1.3,41.6-2.9,62.3c-3.6,46.4-4.6,92.7-3.6,139.2c0.8,34.3-0.6,68.7-1.6,103
		c-0.8,27.2-2.8,54.4-3.7,81.7c-1.1,32.6-1.9,65.3-2.1,97.9c-0.1,25.3,0.5,50.6,1.5,75.9c0.6,14.6,2.7,29.2,3.7,43.8
		c1.5,21.3,2.7,42.7,0,64c-0.1,0.8-0.1,1.7-0.1,2.6c0,0.6,0.1,1.2,0.2,2.1c1.1-0.3,2-0.4,2.9-0.7c7.9-3,15.7-6.1,23.6-9
		c2.1-0.8,3.1-1.9,3-4.3c-0.4-20.5-0.6-41.1-0.9-61.6c-0.2-15.9,1.2-31.7,3.5-47.5c4.3-29.7,6.4-59.5,6-89.5
		c-0.3-25.4-1-50.9-0.8-76.3c0.2-38.6,1-77.3,1.5-115.9c0.4-32.1,0.8-64.3,1.4-96.4c0.6-35.6,1.2-71.1,2.3-106.7
		c0.5-18,2.9-35.8,8.3-53.1c0.5-1.6,1.6-3,3.1-4.2c-9.8,31-9,62.9-10.3,95.2c6.6-0.8,12.7-1.7,18.8-2.3c15-1.5,29.9-2.9,44.9-4.1
		c18-1.5,36.1-2.8,54.1-4c6.8-0.4,13.7-0.3,20.5-0.6c15.1-0.5,30.3-0.8,45.4-1.5c8.3-0.4,16.5-1.4,24.8-1.9c1.6-0.1,3.3,0.5,4.9,0.8
		c0,0.4,0,0.8-0.1,1.2c-0.7,0.2-1.5,0.6-2.2,0.7c-10.2,0.8-20.4,1.7-30.7,2.2c-10.2,0.5-20.5,1.1-30.8,0.9c-21.1-0.3-42,1.5-63,3.3
		c-19.8,1.6-39.7,3-59.6,4.7c-8.3,0.7-16.5,2-24.7,2.9c-2.4,0.3-2.5,1.8-2.5,3.6c-0.2,12.3-0.6,24.7-0.7,37
		c-0.2,20.9-0.1,41.8-0.4,62.7c0,3.5,0.8,4.6,4.4,4.6c69.3,0.3,138.6,0.8,208,1.3c2.2,0,4.5,0.4,6.7,0.7c0,0.4,0,0.8,0,1.2
		c-0.5,0.3-0.9,0.8-1.4,0.8c-31.8-0.1-63.6-0.2-95.3-0.4c-35.3-0.2-70.7-0.5-106-0.8c-3.9,0-7.8-0.1-11.7-0.5
		c-3.6-0.4-4.9,0.6-4.9,4.5c0,12.8-0.5,25.7-0.7,38.5c-0.6,57.5-1.1,114.9-1.5,172.4c-0.2,20.4,0.7,40.9-0.2,61.2
		c-0.9,19.9-2.9,39.7-5.6,59.4c-2.8,20.6-3.4,41.1-2.4,61.8c0.7,14.1,0.1,28.3,0.1,42.5c0,1.4,0,2.9,0,4.9c1.9-0.7,3.2-1.1,4.5-1.7
		c45.2-17.8,90.2-35.8,136.9-49.3c9.2-2.6,18.3-5.2,27.5-7.8c1.2-0.3,2.4-0.6,3.6-0.6c0.9,0,1.8,0.5,2.6,1c0.1,0.1-0.1,1.3-0.5,1.5
		c-0.8,0.6-1.8,1.2-2.8,1.3c-1.9,0.2-4-0.3-5.8,0.2c-49,13.1-96.4,30.8-143.5,49.2c-42.8,16.8-86,32.5-128.4,50.1
		c-28.7,11.9-56.6,26.1-84.5,39.9c-11.6,5.7-22.3,13.1-33.4,19.7c-1.1,0.7-2.4,1.1-3.6,1.6c-0.3-0.5-0.6-0.9-0.9-1.4
		c5.2-3.7,10.5-7.3,16.5-11.5c-3.7-0.9-6.7-1.8-9.7-2.5c-45.1-10.6-89.9-22.2-135.3-31.3c-42.7-8.6-84.5-20.6-127-29.8
		c-34.4-7.4-68.8-14.5-103.8-18.9c-8.8-1.1-8.2,0.1-8-9.5c0-2.6,0.4-5.1,0.6-7.7c0.3-4.4-1.9-5.9-5.8-3.8
		c-8.3,4.5-16.6,8.9-24.7,13.8c-8.7,5.2-17.2,10.8-25.8,16.1c-0.5,0.3-1.3,0.3-2.5-0.2c0.8-1,1.4-2.3,2.4-3
		c5.8-3.8,11.7-7.6,17.7-11.1c9.3-5.4,18.7-10.6,28-16c1-0.6,2-1.2,3.7-2.3c-5.8-1.7-10.8-3.2-15.8-4.6c-10.4-2.7-20.8-5.5-31.3-7.9
		c-3-0.7-6.3-0.6-9.5-0.9c-8-0.7-16.1-1.2-24-2.1c-4.6-0.5-8.6-2.3-10.7-7.2c-0.5-1.2-3-1.5-4.9-2.5c-1,4.6,0.9,7.8,2.3,11.1
		c0.4,0.9,1.1,1.7,1.3,2.6c0.3,1,0.2,2.1,0.3,3.1c-1-0.6-2.4-1-2.8-1.8c-1.7-4.3-3.1-8.7-4.7-13c-0.4-1.1-1.1-2.4-2.1-2.8
		c-4.1-1.5-4.8-0.9-5.1,3.5c-0.4,6.1,1.9,11.5,4.6,16.7c0.5,0.9,0.4,2,0.6,3c-1-0.5-2.5-0.8-3-1.6c-3.5-6.1-6-12.6-5-19.9
		c0.1-1,0.3-1.9,0.5-3.5c-10.4-2.3-20.7-4.7-31.6-7.1c0,3.6-0.6,6.6-4.2,8.3c-0.7,0.3-0.8,2.5-0.9,3.8c-1.5,16-0.1,31.7,3.3,47.4
		c1.5,7.2,3.1,14.3,4.5,21.5c0.2,1-0.6,2.2-0.9,3.4c-0.6-0.9-1.6-1.8-1.8-2.8c-3.9-18.3-8.6-36.4-8.4-55.3c0.1-5.8,0-11.7,0-17
		c-2.4-2.3-4.9-4.5-7-7c-0.5-0.6,0.2-2.2,0.4-3.4c0.7,0.6,1.4,1.2,2,1.9c1.6,1.7,3.2,3.4,4.8,5.1c6.2-8.7,3.5-16.1-1.3-24
		c-5.2,5.1-11,9.3-12.2,17.3c-0.5-0.2-1-0.4-1.5-0.6c-0.1-1.3-0.6-2.8-0.1-3.8c1.3-2.7,2.8-5.4,4.6-7.8c3.8-4.9,7.9-9.7,12-14.7
		c-7-7.7-8.9-19.8-13-31.4c-0.8,6.4-1.6,12.5-2.2,18.7c-0.7,8-1.5,16.1-1.6,24.1c-0.1,6.3-1.5,12.2-4.6,17.5
		c-1.2,2.1-3.6,4.2-5.9,4.8c-10.7,2.7-21.5,5.8-32.8,5.1c-6.6-0.4-13.1,0.2-19.5,2.3c-5,1.7-9.8,0.5-14.6-1.5
		c-7.3-3-14.8-5.6-22.3-8.1c-3.1-1-4.4,1.4-5.1,3.9c-4.1,14.4-4.7,28.8-0.2,43.3c3.2,10.4,5.6,21,8.3,31.5
		c1.9,7.8,1.2,15.5-0.4,23.3c-3,14.5-9.3,27.7-16.1,40.8c-1.1,2.1-2,4.5-2.3,6.8c-0.2,1.5,0.5,3.9,1.6,4.6c1.9,1.3,4.4,1.8,6.7-0.2
		c5.3-4.7,11.8-5.6,18.6-5c0.7,0.1,1.4,0.6,2.2,1c1,0.5,1.9,1.3,2.9,1.3c11.6,0,23.2,0.2,34.8-0.2c6.7-0.2,13.4-1.1,19.9-2.3
		c1.6-0.3,3.4-2.8,3.8-4.6c0.8-3,0.7-6.3,0.7-9.5c0.2-23,0.4-46,0.5-69c0-8.7-0.5-17.4-0.3-26c0.1-5.3,0.9-10.7,1.5-16
		c0-0.5,0.1-1.1,0.4-1.4c0.7-0.7,1.5-1.2,2.3-1.8c0.2,0.9,0.5,1.7,0.4,2.6c-0.5,4.8-1.6,9.7-1.6,14.5c-0.1,29.2,0,58.4-0.1,87.7
		c0,6.4-0.2,12.7-0.8,19c-0.2,2.2-1.7,4.4-2.7,6.9c0.8,0.3,2.1,0.7,3.4,1.2c17.2,7.2,21.8,14,18.2,33c-1.2,6.4-4.4,9.8-11.1,11.6
		c-21.7,6-43.5,7.7-65.7,5c-7.9-1-15-4-21.8-8.1c-12.3-7.4-14.1-20.9-10.7-32.5c0.3-0.9,0.7-1.8,1-2.6c-0.2-0.3-0.3-0.6-0.5-0.7
		c-6.6-2.4-8.5-7.2-5.2-14.1c3.3-6.9,7.1-13.7,10.2-20.7c5-11.6,9.2-23.6,8.4-36.5c-0.5-7.2-2.8-14.3-4.3-21.5
		c-2.8-12.9-5.6-25.7-8.3-38.6c-0.4-2.1,0-4.4,0.4-6.6c1.4-7.4,3-14.7,4.6-22.5c-1.6-0.3-4-1.1-6.5-1.2c-2.7-0.1-3.8-1.2-3.9-3.7
		c-0.5-9.3-1.2-18.5-1.6-27.8c-0.1-2.3-0.6-3.5-3.1-4c-60-14.2-120-28.7-180.2-42.4c-17.7-4-36-5.4-54-8c-4.1-0.6-8.3-0.9-12.4-1.5
		c-0.6-0.1-1.2-0.5-1.8-0.7c0-0.4,0-0.7,0-1.1c1.5-0.1,3-0.5,4.5-0.4c13.2,1.5,26.5,2.9,39.6,4.8c37.9,5.6,74.9,15.5,112.1,24.2
		c30.1,7,60.1,14.6,90.1,21.9c1.3,0.3,2.6,0.6,4.3,0.9c0-4.3,0.2-8.4-0.1-12.4c-0.4-5.2-1.2-10.4-1.7-15.7c-0.2-2.4-0.6-5-0.1-7.3
		c2.1-9.6,0.3-19.2,0.3-28.9c-0.1-16.3,0.9-32.4,4.9-48.4c2.1-8.3,3.3-16.8,4.8-25.2c1.8-9.8,4.9-18.9,10.7-27.3
		c4.8-7,10.7-12.4,18.8-17.2c-4.3-0.6-7.6-1-10.8-1.5c-14.7-2.1-29.4-4.5-44.2-6.4c-17.9-2.3-35.9-4.1-53.9-6.2
		c-14.8-1.7-29.7-3.1-44.4-5.3c-30.1-4.6-60.3-5.5-90.7-5.6c-22-0.1-44,0.3-66,0.3c-9.4,0-10-0.1-9-9.5c0.7-6.4,3-12.7,4.8-19
		c0.3-1.2,1.9-2.8,3-2.9c4.1-0.2,8.3,0,12.4,0.3c0.5,0,1,1.1,1.5,1.7c-0.7,0.3-1.4,0.8-2.1,0.8c-14.4-1.1-11.7-2-15.8,10.4
		c-1.3,3.9-1.2,8.2-1.7,12.3c-0.3,2.6,0.9,3.5,3.4,3.4c6.3-0.3,12.7-0.7,19-0.6c34.1,0.4,68.2,0.2,102.3,1.8
		c20.9,1,41.7,4.9,62.6,7.2c13.5,1.5,27,2.4,40.5,4c15.3,1.8,30.5,4.1,45.7,6.3c7.7,1.1,15.4,2.6,23.1,3.8c2.1,0.3,4.4,1.1,5.6-1.7
		c0.2-0.4,1-0.7,1.6-0.8c9.5-2.1,19-4.3,28.6-6c3-0.5,6.3,0.4,9.4,0.6c1.5,0.1,3.1-0.2,4.6-0.4c0-0.3,0-0.7,0.1-1
		c-0.6-0.3-1.2-0.6-1.8-0.8c-22.1-4.7-44.1-10.1-66.3-14c-21.3-3.7-42.8-6.2-64.3-8.6c-21.8-2.5-43.7-4.6-65.7-6.4
		c-37.7-3.2-75.4-7.8-113.4-6.9c-3.3,0.1-6.5-0.4-9.8-0.7c0-0.5,0-1-0.1-1.6c1.2-0.2,2.3-0.6,3.5-0.6c33.7,0.5,67.4,1.9,101,5.6
		c25.3,2.8,50.6,4.6,75.9,7c42.5,4.1,84.7,10.1,126.1,20.7c5.1,1.3,10.3,2.3,15.4,3.3c6.2,1.2,14.2-7.7,12.3-13.8
		c-0.7-2.2-2.1-4.1-3.5-6.7c-3.9-0.4-3.9-0.4-2.9-7.8c-1.5,1.1-2.7,2.1-4.1,2.8c-1,0.5-2.2,0.4-3.3,0.5c0-1.1-0.4-2.4,0-3.4
		c1.6-4.1,3.4-8.1,5.1-12.1c0.3-0.6,0.3-1.3,0.3-1.3c-5.2,0.5-10.3,1.1-15.4,1.5c-1.2,0.1-2.5-0.1-3.6-0.6c-0.9-0.4-1.7-1.3-2.5-1.9
		c0.7-0.8,1.2-1.7,2-2.2c5.9-4.3,11.8-8.5,17.8-12.7c1-0.7,2.2-0.8,3.4-1.2c-0.5,1.1-0.7,2.5-1.5,3.2c-5,4.2-10.1,8.3-15.2,12.5
		c4,0.9,8,0,11.8-1.7c1.1-0.5,2.2-1.2,3.3-1.6c1-0.3,2.4-0.5,3,0c0.6,0.5,0.7,2.1,0.4,3c-1.1,3.6-2.5,7.1-3.8,10.7
		c-0.2,0.7-0.4,1.3-0.6,1.8c2.1-0.5,4.1-1,6.1-1.4c0,2.6,0,5.3,0,8c4-1.6,2.8,4.4,6.3,5.3c2.9-11.6,13.2-17.5,20-26.1
		c0.4-0.5,1.4-1.1,1.8-0.9c0.6,0.3,1.2,1,1.5,1.7c0.3,0.8,0.3,1.8,0.5,3c6.2-6.6,6.2-6.6,9.7-4.1c1.4-1.9,2.8-4,4.3-5.8
		c0.9-1.1,2-1.9,3-2.8c0.7,1.1,1.4,2.3,2.2,3.5c4.3-1,5.4-8.8,12.2-6.1c0.9-2.6,1.5-5.1,2.6-7.4c0.7-1.4,1.9-2.6,2.9-3.9
		c1.2,1.1,2.6,2,3.5,3.2c2.5,3.2,4.8,6.6,7.2,10c0.5,0.7,0.6,1.6,0.8,2.4c-0.9-0.1-2.1,0.1-2.6-0.4c-2.4-2.6-4.6-5.3-6.8-8
		c-0.7-0.9-1-2.1-1.7-3.7c-1.6,4.2-3,7.8-4.3,11.1c18.3,12.2,37.3,23.6,58.7,31.6c1.5-5.6,3.2-11.7,4.5-17.9
		c0.1-0.7-1.9-2.6-2.9-2.6c-5.9-0.1-11.3-1.2-16.3-4.6c-1.1-0.8-3-0.4-4.6-0.4c-8.6,0.4-16-1.8-21.2-9.1c-0.7-0.9-0.6-2.3-0.9-3.5
		c1.1,0.6,2.5,0.9,3.1,1.8c3.6,4.8,8.6,6.9,14.3,8c5.1,1,8.8-2.1,13.1-3.6c5.9-2,11.1-4.9,15.2-9.8c0.4-0.5,1.7-0.4,2.5-0.5
		c0.1,0.9,0.7,2.2,0.3,2.6c-1.4,1.8-2.9,3.7-4.8,4.8c-4.3,2.7-8.9,5.1-14.1,8c2,0.9,3.4,1.8,5.1,2.2c10.5,2.4,19.8-0.2,28-7.1
		c2-1.7,3.7-3.6,5.7-5.1c1-0.7,2.5-0.7,3.8-1c-0.1,1.4,0.4,3.3-0.3,4.1c-2.7,2.8-5.5,5.4-8.7,7.6c-2.3,1.7-5.2,2.6-8.3,4.1
		c3.1,4.4,7,6.8,11.7,8c1.3,0.3,2.4,1.3,3.6,1.9c-1.2,0.8-2.3,2.2-3.6,2.4c-3.9,0.7-8,0.9-11.9,1.3c-0.3,4.3,0.9,6.1,4.7,7.5
		c0.9,0.3,1.5,1.3,2.2,2c-0.7,0.4-1.5,1.3-2,1.2c-4.2-1.1-6.8,1.7-9.7,4.3c0.7,0.7,1.7,1.4,2,2.3c0.5,1.3,1.1,3,0.6,4.1
		c-2.9,6.7-6.3,13.2-9,20c-2.2,5.5-5.9,8.5-11.6,9.3c-0.6,0.1-1.2,0.2-1.8,0.2c-6,0.1-11.7,0.7-16,6c-1.6,2-4.7,2.6-7.1,4.8
		c4.8,0.5,9.6,1.1,14.3,1.4c6.5,0.4,13,0.6,18.9,3.7c2.2,1.2,4.6,2.4,6.4,4.1c4.1,3.8,7.8,8.1,12,11.8c7,6.3,11.8,13.8,14.7,22.7
		c0.4,1.3,1.8,2.3,2.4,3.6c0.4,0.7,0.2,1.7,0.3,2.5c-0.8-0.2-1.8-0.1-2.2-0.6c-1.2-1.2-2.7-2.5-3.1-4c-3.5-13.2-13.4-21.4-22.7-30.2
		c-3.7-3.5-7-7.5-12.4-8.5c-3.1-0.6-6.1-1.5-9.3-1.8c-6.1-0.7-12.2-1-18.2-1.7c-1.6-0.2-3.1-1.3-4.2-1.7c-8.2,2.4-16.3,4.7-21.9,6.4
		c1,1.6,2.6,4.8,4.9,7.4c3.4,3.8,4.3,9.4,0.3,12.6c-6.6,5.2-8,12-6.9,19.3c0.8,5.6,3.5,10.8,9.1,15c1.3-3.4,2.3-6.5,3.7-9.3
		c0.9-1.8,2.3-4.2,4-4.6c1.7-0.4,3.8,1.3,5.8,2.1c0.1,0.6,0.2,1.2,0.3,1.7c2.4-1.7,5-3.1,7.1-5c2.8-2.7,5.2-5.8,8-8.6
		c0.5-0.5,1.6-0.5,2.5-0.8c-0.1,0.9,0.1,2-0.4,2.5c-2.5,3-5.2,5.8-7.4,8.3c8.9,6.5,17.6,12.9,26.3,19.2c2.6-0.9,3.6-5.6,7.5-2.5
		c5.8-7.1,12.4-12.5,21.7-13.3c5.2-0.4,10.5-1.1,15.5-0.2c9.9,1.9,14.9,8.8,13.9,18.8c-0.4,4-2.2,7.9-3.5,11.8c-0.3,1-0.8,2-1.5,3.7
		c3.1,0,5.8,0.1,8.4,0c3.1-0.2,4.7,1.4,4.9,4.2c0.2,3.8,0.4,7.6-0.2,11.3c-0.4,2.7-0.2,4,2.4,5.4c7.4,4.1,13,9.8,15,18.5
		c2.2,9.6-3,21.4-12.5,25.1c-5.5,2.2-11.5,3.2-17.4,4.2c-4.8,0.9-9.7,1.4-14.6,1.3c-3.6,0-7.2-1-10.6-2c-1.9-0.6-3-0.5-3.9,1.2
		c-1.1,2.3-2.2,4.6-3.1,7c-1.7,4.2-3.4,8.5-5.1,12.9c7.8-1.3,16-2.4,24-4c3.5-0.7,6.6-2.2,9.5,1.2C604.4,728,605,727.7,605.4,727.6
		c1.2,2.3,2.2,4.7,3.6,6.8c3.1,4.7,9.2,5.1,13,0.8c1-1.2,2-3.3,1.6-4.5c-0.4-1.1-2.6-2.2-4.1-2.3c-3.8-0.2-7.6,0.2-11.3,0.2
		C607.2,728.5,606.3,727.9,605.4,727.6z M480.6,669.5c-0.2,0.4-0.4,0.9-0.6,1.3c2,1.1,3.9,2.5,6.1,3.1c7.2,2.2,14.8,3.4,21.8,6.2
		c15.7,6.2,30.9,13.4,46.6,19.5c5.7,2.2,12.1,2.5,18.2,3.5c1.9,0.3,3-0.7,3.7-2.7c1.9-5.4,1.5-10.7,0.8-16.3
		c-0.8-6.2-1.2-12.6-1.5-18.9c-0.1-2.8,0.5-5.6,0.4-8.4c-0.2-4.8-3.4-7.7-7.2-10c-1.5-0.9-3.7-0.6-5.5-1.1c-2.8-0.8-5.6-1.8-8.3-2.7
		c-9.1-2.8-18.2-5.5-27.3-8.4c-0.9-0.3-1.5-1.6-2.3-2.4c1-0.1,2.2-0.5,3.1-0.3c7.2,2.2,14.4,4.6,21.6,6.9c1.4,0.5,3,0.7,4.1,1
		c-0.5-3.7-1.5-7-1.4-10.3c0.1-2.7-0.9-4.3-2.9-5.8c-5.8-4.3-11.6-8.6-17.3-12.9c-0.7-0.5-1.9-1.4-2.2-1.2c-3.2,2.5-4.5-0.7-6.6-2.1
		c-4,2.2-8.2,3.6-11.7-1.2c-2.4,5.5-4.6,10.4-6,13.8c1.8,4.7,3.1,8.2,4.3,11.6c1.6-1.2,3.3-2.8,5.2-4c2.8-1.7,4.4-0.9,4.9,2.3
		c0.4,2.6,0.5,5.4,0.4,8c0,1-0.9,1.9-1.4,2.8c-0.5-1-1.2-2-1.3-3c-0.2-2.4-0.1-4.9-0.1-7.3c-0.7-0.3-1.4-0.7-2-1
		c-1.8,2.3-3.5,4.6-5.4,6.7c-0.9,1-2.2,1.5-3.4,2.3c-0.3-1.3-0.8-2.7-0.7-4c0.4-3.3,0.4-6.5-2.4-10.2c-3,4-5.7,7.7-8.5,11.2
		c-0.6,0.8-1.7,1.2-2.6,1.8c-0.1-1.1-0.8-2.5-0.3-3.3c2.4-3.7,4.8-7.4,7.7-10.6c1.7-1.8,2.2-3.1,0.8-5c-1.6-2.1-3.4-4.1-5-6.2
		c-2.9-3.7-5.7-7.6-8.5-11.3c-1.9-2.5-4.1-4.9-6-7.4c-0.4-0.5,0-1.5,0-2.3c0.7,0.2,1.6,0.2,2.2,0.7c0.8,0.7,1.3,1.8,1.9,2.7
		c1.2,1.8,2.4,3.5,4.1,6c-1.2-9-2.3-16.8-3.5-25.2c-2.9,3.7-6.5,4.6-11.1,3.1c3.2,4.4,8,6.3,9,11.4c-1.6-0.4-2.8-1.3-4-2.2
		c-7-5.8-13.6-12.3-21.2-17.3c-9.3-6.1-18.4-12.4-26.1-20.6c-4.5-4.8-10.3-8.5-16.3-9.1c-6.5-0.6-13.7,0.9-19.9,3.3
		c-5.3,2.1-10,6.5-14,10.8c-7.8,8.3-12.3,18.4-14.3,29.6c-1.6,9.1-3,18.3-5.2,27.3c-3.9,16-4.9,32.3-4.7,48.7
		c0.1,7.8,0.3,15.5,0.3,23.3c0,4.4-0.4,8.8-0.2,13.1c0.5,11,1.3,21.9,2,32.9c0.6,9.3,1.3,18.7,2,27.2c5.1,1.6,9.5,2.9,13.8,4.4
		c8.4,3,16.6,6.4,25.1,9c3.6,1.1,7.8,1.6,11.4,0.7c6.5-1.6,12.9-2.7,19.6-2.2c10.9,0.8,21.3-2.4,31.8-4.5c2.8-0.6,4.4-2.2,5.6-4.7
		c2.5-5.2,3.3-10.5,3.6-16.2c0.9-14.7,2.3-29.5,3.8-44.1c0.6-5.5,2.2-11,3.4-16.4c0.2-1,1-1.8,2.1-3.6c0.6,2.1,1,3.1,1.2,3.8
		c0.8-1.9,1.7-4,2.5-5.9c-1.9-0.8-4.6-1-5.7-2.5c-3.8-5.1-9.5-5.5-14.8-5.9c-7.1-0.6-12.6-3.2-16.5-9.3c-0.5-0.8-1.5-1.8-2.4-2
		c-7.8-1.1-11.1-6.5-13.8-13.1c-1.3-3.2-3.7-6.3-6.4-8.5c-3.4-2.8-7.9-4.5-11.5-7.1c-2.9-2.1-5.4-4.8-7.6-7.6
		c-0.6-0.7,0.1-3.1,1-4.1c0.7-0.7,2.5-0.5,3.8-0.6c0.1,0.4,0.2,0.7,0.2,1.1c-0.8,0.8-1.6,1.5-2.6,2.4c1.9,4.1,5.5,5.9,9.1,7.8
		c8.2,4.2,15.5,9,18.2,18.8c1.2,4.5,4.8,7.4,10,8.1c1.6,0.2,3.2,1.9,4.5,3.2c2.5,2.8,4.4,6.2,8.6,7c4.6,0.8,9.1,1.7,13.7,2.4
		c0.7,0.1,1.7,0.1,2.1-0.3c3.1-3.1,5.9,0.1,8.8,0.3c0.4,0,0.7,1.1,1,1.7c-0.6,0.3-1.2,0.9-1.8,0.9
		C483.2,670,481.9,669.7,480.6,669.5z M1000.2,289c-6.5,2.2-12.5,3.9-18.3,6.3c-10.2,4.2-20.2,8.7-30.2,13.3c-1.5,0.7-3.4,2.6-3.4,4
		c-0.1,6.9,0.5,13.9,0.6,20.8c0,2.2,1,2.6,2.9,3.1c9,2.5,18.1,5,26.9,8.3c6.4,2.5,12.3,6.5,19.6,6.4c1.2,0,2.7,0.8,3.6,1.7
		c2.5,2.7,5.5,2.5,8.8,2.3c6-0.2,12-0.5,17.9,0c24.2,2,48.3,5.1,72.7,4.8c24.8-0.3,49.6,0.2,74.4,0.5c10.3,0.1,20.5,0.4,30.8,0.8
		c2.9,0.1,4.1-0.7,3.8-3.6c-0.2-1.9-0.1-3.9-0.1-5.9c0-29.7,0-59.4,0-89.1c0-1-0.1-2.1-0.2-3.3c-1.1,0-1.8-0.1-2.5,0
		c-12.6,1.5-25.3,2.7-37.8,4.5c-22.7,3.2-45.4,7-68.1,10.2c-27.7,3.9-55.4,7.3-83.2,11c-5.3,0.7-10.5,1.6-16,2.5c0,4.9,0,9,0,13.2
		c0,14.4,0,28.9-0.1,43.3c0,1.3-0.5,2.7-0.7,4c-0.5-0.1-0.9-0.1-1.4-0.2C1000.2,328.6,1000.2,309.2,1000.2,289z M852.3,272
		c-1.1-8.6-7.6-9.6-13.2-11c-20.4-4.9-40.7-3.8-60.9,1.6c-20.3,5.5-38.7,14.9-56.4,26c-8.2,5.1-15.4,11.1-20.1,19.9
		c-5.5,10.1-4.8,25.4,8,32.5c12.4,6.9,25.2,12.1,39.2,14.9c23.3,4.7,46.5,9.6,70.4,8.3c15.2-0.9,30.4-2.2,45.6-4
		c9.8-1.2,19.5-3,29.1-5.5c6.8-1.7,9.5-4.6,9.4-11.5c-0.2-15.3,0.1-30.6,0.1-45.8c0-1.4-0.4-3.1-1.2-4.1
		c-9.2-11.1-18.9-21.6-34-24.6c-2.4-0.5-5.2-1.2-6.5-5c10.9,3.7,21.5,6.2,29.8,14.3c2.3-5,4.3-9.4,6.3-13.8c2.3-5,0.7-7.6-4.6-8.4
		c-12-1.8-24.4-1.7-35.9-6.4c-1.9-0.8-5.5-0.5-6.8,0.8c-2.5,2.6-3.9,6.2-5.7,9.4C853.7,264.9,855.4,267.5,852.3,272z M577.2,706.6
		c-0.6-0.2-1.6-0.6-2.7-0.7c-4-0.4-8.3,0.2-11.9-1.1c-12.9-4.4-25.6-9.4-38.4-14.3c-9.5-3.7-18.9-7.8-28.5-11.5
		c-5.3-2-8.6,0.7-8.1,6.3c0.3,3.3,1.4,6.4,2.1,9.7c1,5.1,3.2,9.5,6.3,13.8c3.2,4.6,5.3,10.1,7.4,15.4c1.3,3.4,0,6.7-2.7,9.3
		c-2.1,2.1-4.1,4.5-6.4,7c1.4,4.6,3,9.8,4.4,15c0.6,2.1,1.5,3.3,3.8,3.7c7.1,1.4,14,3.2,21.1,4.7c3.9,0.8,7.8,3,10.7,0.8
		c2.5,1.3,4.3,2.3,6.4,3.4c0.6-2.1,0.7-3.4,1.4-4.3c0.6-0.9,1.7-1.3,2.6-2c0,1,0.1,1.9,0.1,2.9c0,1.3-0.6,3.1,0,3.6
		c1,0.8,2.8,1.2,4.1,1c0.7-0.2,1.2-2,1.6-3.1c0.4-1,0.5-2.2,0.9-3.1c4.3-9.5,8.6-19.1,13.2-28.5c2.2-4.5,5.2-8.6,7.2-13.1
		C574,716.7,575.4,711.8,577.2,706.6z M415.6,919.1c-17.2-1.8-31,1.1-44.8,3.7c-1.3,0.2-2.8,1.6-3.4,2.8c-3.8,7.4-3.4,21.9,6.4,28.8
		c6.5,4.6,13.5,8.1,21.4,9.1c22.3,3.1,44.3,1.5,66-4.7c5.8-1.6,8.3-4.4,9.4-9.8c3.2-14.8-0.3-22.4-14.2-28.3
		c-4.3-1.8-9.1-3.7-13.6-3.7C432.8,917.2,422.8,918.5,415.6,919.1z M485.4,563.6c-5.5-4.3-10.9-8-15.5-12.4
		c-4.2-4-7.7-8.8-11.2-13.4c-1-1.3-1-3.4-1.2-5.2c-0.1-0.6,0.8-1.3,1.2-1.9c0.5,0.6,1.1,1.1,1.5,1.8c1.5,2.9,2.4,6.2,4.5,8.6
		c4.3,4.8,9.3,8.9,13.9,13.4c5.8,5.8,12.8,6.4,20.5,5.4c10.1-1.3,18.5-6.7,27.5-10.7c1.9-0.9,3.4-2.9,5.1-4.3
		c-3.5-3.1-6.5-5.9-9.7-8.8c-1.8,3.7-4.5,5.1-8,4.2c-3.9-1.1-7.1-3.3-8.3-7.4c-0.2-0.8,0.4-1.9,0.7-2.9c0.7,0.6,1.6,1.2,1.9,2
		c1.3,3.2,3.7,5.2,7.1,5.6c3.8,0.4,3.8-2.6,4-5.2c0.2-2.4,0-4-3.2-4.5c-5.7-0.9-11.7-1.8-17-3.9c-18.3-7.5-27.4-22.7-20.3-42.3
		c0.4-1,0.4-2.2,0.8-4.1c-3.1,2.8-4.7,7.6-9.1,2.7c-1.8,3.1-3.4,5.8-5.1,8.5c-0.6,0.9-1.7,1.4-2.6,2.1c-0.3-1.1-0.8-2.1-1-3.2
		c-0.2-1.1,0-2.2,0-3.4c-4.5,4.2-9.5,7.4-12.5,12c-4,6.2-6.5,13.3-9.5,20.1c-2.3,5.3-4.5,10.5-10.7,12.5c-1.1,0.3-1.9,1.3-3.3,2.2
		c1.4,0.9,2.4,1.6,3.4,2.2c9.8,4.8,17.6,12,23.3,21c5.6,8.9,13.3,15.2,21.7,20.8c1.5,1,3.9,2.1,5.4,1.6c1.9-0.6,5-3.9,4.8-4.1
		C482,568.7,484.5,566.1,485.4,563.6z M582.3,665.2c-1.8-3.2,0-4.6,2-5.5c1.7-0.8,2.3-1.6,2.2-3.5c-0.2-3.7,0-7.5,0.2-11.2
		c0.1-2.5,1.6-3.6,4.2-3.5c2.8,0.1,5.7-0.2,8.4,0.1c3.9,0.5,6.1-1.4,7.1-4.8c1-3.2,1.3-6.7,2.4-9.9c2.8-8.6-4.6-18.6-13.5-17.1
		c-3.3,0.5-6.4,0.4-9.7,0.5c-9.4,0.2-16.1,5.1-21.5,12.2c-0.5,0.6,0.1,2-0.1,3c-0.2,1-0.4,2.7-1.1,2.9c-2.3,0.8-4.7,1-7,1.5
		c-0.7,6.7,2.1,10.9,8.4,12.5c1.9,0.5,3.9,0.8,5.5,1.8c7,3.9,9.9,9.8,9.2,18c-0.5,6.1-0.6,12.5,0.3,18.5c1.2,7.1,2.4,13.9-0.2,20.9
		c-0.3,0.9,0.1,2.8,0.6,3c4,1.7,8.2,4.4,12.2,4.2c9.5-0.4,18.9-1.9,28.3-3.6c8.3-1.5,13.3-7.6,15.1-15.3c1.8-7.5-1-14.1-6.6-19.5
		c-6.3-6.1-14-9.5-22.5-10C598.1,659.8,589.4,658,582.3,665.2z M612.6,740.7c1.4,3.5,2.3,6.4,3.6,9.1c2.6,5.6,5.4,11.1,12.8,11.1
		c0.8,0,1.7,0.4,2.4,0.7c2.6,1,4.4,2.5,4.5,5.6c0.1,3-1.5,5-4,5.9c-3.6,1.2-7.2,2.4-10.9,2.7c-9,0.7-18,1-27.1,1.4
		c-1.8,0.1-3.7,0.1-5.5,0c-0.6,0-1.1-0.7-1.6-1.1c0.5-0.6,1-1.3,1.6-1.6c0.6-0.3,1.4-0.1,2.2-0.2c10.6-0.5,21.2-0.8,31.8-1.5
		c2.8-0.2,5.8-1.2,8.4-2.4c1.1-0.5,2-2.7,1.9-4c-0.1-1.9-7.5-4.1-9.3-3.2c-1.6,0.8-3.4,1.5-5.2,1.7c-9.4,0.8-18.8,1.1-28.1,2.2
		c-5,0.5-4.9,1-4.8-4.3c-8.8,0.5-17.5,1.2-25.1,6.5c-0.7,0.5-1.9,0.4-2.9,0.6c0.4-1,0.6-2.4,1.4-2.9c2-1.4,4.1-2.9,6.4-3.4
		c6.4-1.5,12.9-2.5,19.3-3.8c1.1-0.2,2.7-0.8,2.9-1.5c1.9-5.9,3.5-11.8,5.2-17.7c-8.9-1.1-17.2-2.2-25.8-3.3
		c-5.5,9.6-10.2,20.4-13.3,31.8c-1.2,4.5-0.3,6.5,4.2,7.6c5.6,1.3,11.3,2.6,16.9,2.7c18.1,0.4,36.2,0.3,54.3,0.3
		c5.2,0,11.5-6,12.3-11.2c0.8-5.2-1.3-9.4-3.6-13.8c-3.6-6.7-6.9-13.7-10.5-21C623.5,739.2,619.1,741.5,612.6,740.7z M552.3,512.6
		c-4.3-2.2-8-4.4-12-6.2c-8-3.5-16.3-6.6-24.2-10.3c-4.4-2.1-8.3-5-12.2-7.9c-5.1-3.7-10-7.9-15.1-11.6c-0.8-0.6-2.6-0.3-3.6,0.2
		c-3.6,1.8-3.8,5.7-4.7,9c-2.1,8.2-1.8,16.3,3.7,23.3c8,10.2,19,14.7,31.5,15.4c4.1,0.2,6.5,1.9,7.3,5.2c1.2,4.5,4.6,7,7.5,10.1
		c2.3,2.4,4.2,2.3,6.3-0.4C543,531.4,547.9,522.5,552.3,512.6z M931.4,324.2c0.2,0,0.4,0,0.7,0c0,2.7,0,5.4,0,8.1
		c0,2.8,0,5.6,0.3,8.4c0.1,1,1,2.8,1.4,2.8c3.5-0.2,7-0.5,10.4-1.3c3-0.7,1.9-3.4,1.9-5.4c-0.1-7.6,0.4-15.4-0.4-22.9
		c-0.8-7.5-3.9-9.1-11.3-8.2c-2.1,0.3-2.9,1.1-2.9,3.2C931.5,314,931.4,319.1,931.4,324.2z M588.7,763.8c10.3-0.7,20.2-1.4,31.1-2.1
		c-8.2-10.7-9.4-24.4-20.6-33.9C595.6,740.2,592.1,751.9,588.7,763.8z M490,472.6c17.3,19,40.7,26.8,63.1,36.7
		c1.8-3,1.9-3.2-1.1-4.8c-3.5-2-7.2-3.6-10.8-5.4c-2.4-1.2-4.9-2.1-7.3-3.3c-5.1-2.5-10.4-4.8-15.2-7.8c-8.4-5.1-16.6-10.6-24.9-16
		C491.9,470.7,490.6,471.1,490,472.6z M455.1,565.1c0.3-0.3,0.5-0.6,0.8-0.9c-4.2-8.1-10.6-14.4-16.9-20.8
		c-5.2-5.3-11.7-8.2-18.2-11.2c-6.4-3-12.9-1.4-19.3,0.1c5,2.5,9.4,6.4,15.5,5.7c0.5-0.1,0.9,0.2,1.4,0.3
		c8.8,2.1,15.2,7.8,21.4,13.9C444.6,556.9,450,560.9,455.1,565.1z M484.5,686.2c-5.3,7.6,4.3,40.7,13,46.1c3.4-3.1,4.4-5.1,2.6-9.4
		c-2-4.9-5-9.4-7.5-14.1c-1.5-2.9-3.4-5.6-4.4-8.7C486.7,695.7,485.7,691.1,484.5,686.2z M563.4,516.6c-2.5-1-4.5-1.9-6.5-2.4
		c-0.7-0.2-2.2,0.5-2.5,1.2c-5.1,9-10,18-15.1,27.1c5.1-0.4,11.4,0.6,14.6-5.2C557.6,530.8,560.2,523.8,563.4,516.6z M491.5,593.4
		c0.3,0,0.7,0.1,1,0.1c0.3-4.8,3-8,6.4-11c4.1-3.6,3.8-6.8-0.1-10.4c-2.9-2.7-5.5-5.6-8.9-9.1c-1.1,1.7-2.3,3.5-3,4.6
		c1.7,1.4,3.4,2.1,3.4,2.8c0,2.8,1.8,3,3.9,3.2c1.7,0.2,3.4,0.6,5.1,0.9c-0.1,0.5-0.1,1.1-0.2,1.6c-3,0-6,0-9.5,0
		C490.2,582.4,490.9,587.9,491.5,593.4z M575.8,489.9c-2.3-2-4.8-4.3-7.4-6.4c-0.8-0.7-2.1-1.7-2.7-1.5c-0.8,0.3-1.4,1.7-1.7,2.7
		c-1.4,5-2.3,10.3-4.2,15.1c-1.8,4.7-2.1,5,2.6,7.2c1.9-1.8,3.9-3.7,5-4.8c-0.2-3.8-1.6-7.8-0.2-9.5
		C568.9,490.8,572.9,490.8,575.8,489.9z M595.1,730.1c-8.2,1.2-16.1,2.3-24.1,3.4c0,0.5,0,1,0.1,1.5c5.4,0.6,10.8,1.4,16.2,1.8
		c6.5,0.5,6.5,0.3,8-6.2C595.3,730.5,595.2,730.4,595.1,730.1z M1038.8,679.6c0.5,0.1,1,0.3,1.5,0.4c6.8-18.3,9.5-37.8,16-56.2
		c-0.4-0.1-0.7-0.2-1.1-0.3C1049.7,642.2,1044.3,660.9,1038.8,679.6z M972.4,412.5c-12.4,0.4-24.7,1.5-36.7,3.7
		c0.1,0.6,0.2,1.2,0.3,1.9C948.1,416.2,960.3,414.4,972.4,412.5z M404.9,539.4c0.1-0.5,0.1-0.9,0.2-1.4c-6.1-4.1-15.5-4.5-20.1-0.4
		C391.8,538.2,398.3,538.8,404.9,539.4z M1000.3,708.1c0,0.6,0,1.2,0,1.7c7.2,0,14.4,0,21.9,0
		C1014.9,704.5,1007.5,708.6,1000.3,708.1z M617.7,649.7c-1.7,3.6-3.5,4.3-6.7,1.6c-1.2-1-2.9-2.7-5-0.9c-2.3,1.9-4.8,3-7.9,2.2
		c-0.1,0-0.3,0.5-0.8,1.1c7,0.3,13.6,0.6,20.4,1C617.7,652.7,617.7,651.2,617.7,649.7z M798.7,576.8c-3.6,3.8-6.9,7.2-9.9,10.7
		c-0.7,0.8-0.6,2.3-0.6,3.4c0,0.4,1.3,1.2,1.5,1.1c0.8-0.5,1.7-1.3,2.1-2.1C794.1,585.6,796.3,581.4,798.7,576.8z M812.2,613.1
		c-2.8,4-5.4,7.7-8.1,11.4c1.5,0.3,3,0.6,4.9,0.9C810.1,621.4,811.1,617.6,812.2,613.1z M1139.7,421.1c-1.9,5.3-3.5,9.8-5.1,14.3
		C1137.8,431.4,1142.1,427.8,1139.7,421.1z M1093.5,522c0.5,0.2,1,0.3,1.5,0.5c1.7-4.7,3.4-9.5,5.2-14.2c-0.4-0.1-0.8-0.3-1.3-0.4
		C1097.1,512.6,1095.3,517.3,1093.5,522z M386.4,917c-0.1-0.4-0.2-0.8-0.2-1.2c-3.6,0.7-7.2,1.4-10.8,2c0.1,0.4,0.2,0.8,0.2,1.2
		C379.2,918.4,382.8,917.7,386.4,917z M563.6,513.2c0.1-0.3,0.3-0.5,0.4-0.8c-2.1-1.5-4.2-3.1-6.7-4.9c-0.4,1.5-0.7,2.3-0.9,3.2
		C558.9,511.6,561.2,512.4,563.6,513.2z M1066.1,600.6c0.3,0.1,0.6,0.3,0.8,0.4c1.3-4.2,2.5-8.5,3.8-12.7c-0.2-0.1-0.5-0.1-0.7-0.2
		C1068.7,592.3,1067.4,596.4,1066.1,600.6z M1111.1,476.4c0.2,0.1,0.4,0.3,0.7,0.4c1.7-4.4,3.5-8.8,5.2-13.2
		c-1.2,1.1-1.8,2.4-2.3,3.7C1113.5,470.3,1112.3,473.4,1111.1,476.4z"/>
	<path fill="#020202" d="M666.6,597.7c-1.3-10.6-2.6-20.6-3.6-30.7c-1.3-12.5-2.2-25-3.3-37.6c-0.2-2.3-0.4-4.6-0.4-6.9
		c0-24.7-1.1-49.5,0.3-74.1c1.7-28.4,1.7-56.9,2.6-85.3c0.5-17.2,0.3-34.6-1.7-51.6c-1.4-12-3-23.9-2.9-36.1
		c0.1-27.8,0-55.5,0.2-83.3c0-5.6,0.8-11.2,1.3-16.8c0.1-1.2,0.1-2.4,0.2-4.1c-2.4,0.8-4.3,1.4-6.2,2.1c-0.3-0.2-0.5-0.5-0.8-0.7
		c0.7-0.9,1.3-2.2,2.3-2.6c2.7-1.1,6-1.2,7-4.9c0.1-0.5,1.4-0.7,3-1.4c-0.6,2-1,3.1-1.4,4.4c8,0,15.8,0.5,23.6-0.1
		c25.7-1.9,51.4-4.5,77.1-6.3c33.4-2.4,66.8-4.8,100.3-4.7c20,0.1,40-2.1,60-3.1c13.4-0.7,26.9-1,40.3-1.7
		c20.7-1.1,41.5-2.3,62.2-3.4c11.8-0.6,23.7-1,35.5-1.7c14.8-0.8,29.5-1.9,44.3-2.5c14.8-0.6,29.6-0.7,44.3-1.4
		c11.6-0.6,23.1-1.8,34.7-2.8c11.1-0.9,22.1-2,33.2-2.8c19.3-1.4,38.5-2.9,57.8-3.9c18.3-0.9,36.6-1.2,55-2
		c15.3-0.7,30.5-1.8,45.7-2.6c7.8-0.4,15.7-0.1,23.4-0.6c13.3-0.8,26.5-2.1,39.8-3c8.9-0.6,17.8-1,26.7-1.3c1.3,0,2.7,0.7,4.1,1.1
		c0,0.3-0.1,0.7-0.1,1c-0.5,0.2-1,0.6-1.5,0.6c-10.5,0.5-20.9,0.8-31.4,1.5c-9.4,0.6-18.7,1.9-28.1,2.5c-19.4,1.1-38.8,2-58.2,2.9
		c-7.4,0.3-14.9,0.6-22.4,0.6c-24.5-0.1-48.8,1.3-73.2,3.5c-12.2,1.1-24.4,1.4-36.6,2.4c-19,1.5-38,3.3-56.9,5
		c-2.2,0.2-4.4,0.2-6.6,0.3c-27.8,1.3-55.7,2.6-83.5,3.9c-14,0.6-28.1,1.1-42.1,1.7c-27.6,1.3-55.2,2.1-82.7,4.1
		c-42.9,3.1-85.9,4.2-128.9,5.1c-18.8,0.4-37.5,2.4-56.3,3.8c-17.3,1.3-34.6,2.8-51.9,4c-15.3,1.1-30.7,2-46.1,2.8
		c-2.2,0.1-2.6,1.3-2.8,3c-0.6,6.8-1.5,13.6-1.6,20.4c-0.2,31.1-0.5,62.1,0,93.2c0.1,9.1,2.4,18.1,3.7,27.2c0.1,0.5,0.2,1,0.2,1.5
		c0.1,18,0.4,35.9,0.4,53.9c0,14.5,0.5,29.2-0.6,43.6c-2.5,33.1-2.2,66.2-2,99.3c0.1,10.1,1.5,20.2,2.3,30.3
		c0.5,5.7,0.8,11.5,1.4,17.2c0.9,10,2.1,19.9,2.9,29.9C668.6,592.8,669.9,595.5,666.6,597.7z"/>
	<path fill="#020202" d="M1386.6,980.2c-1.6-0.4-2.5-0.3-2.8-0.7c-3.1-3.7-7.5-3.9-11.7-4c-21.6-0.8-43.3-1-64.8-2.4
		c-30.4-1.9-60.6-4.8-91-6.9c-17.3-1.2-34.7-1.7-52-2.5c-27.5-1.2-54.9-2.5-82.4-3.7c-3.6-0.2-7.2-0.6-11.3-1
		c1.2,6.5,2.5,12.5,3.4,18.4c3.2,22.4,5.8,44.9,7.2,67.6c0.1,1-0.5,2-0.7,3c-0.4-0.1-0.8-0.2-1.2-0.2c-0.8-8.7-1.6-17.4-2.5-26.1
		c-0.9-8.3-1.8-16.5-2.9-24.7c-0.1-1-1.7-1.7-2.6-2.6c-0.1-0.1-0.2,0-0.4,0c-16.8,0.2-24.3-11.3-30.7-24.2c-0.5-1.1-0.3-2.6-0.4-4.8
		c1.3,0.9,1.8,1,1.9,1.2c2,7,6.6,12.3,11.2,17.8c5.4,6.4,12.3,7.3,20.5,7.2c-0.4-3.3-0.5-6.5-1-9.5c-1.1-6.5-2.6-12.9-3.6-19.5
		c-0.5-3.2-2.1-4.5-5.3-4.7c-9.3-0.5-18.6-0.9-27.8-1.7c-5.1-0.4-10.2-1.3-15.1-2.7c-1.7-0.5-3.9-2.7-4.1-4.3
		c-1-7.6-1.5-15.3-1.7-23c-0.1-3.4,0.5-6.7,5.1-8.2c8.5-2.7,11.3-3.4,22.3-2.6c18,1.4,35.9,3.6,53.8,6.8c14.6,2.6,29.6,2.7,44.5,3.8
		c32.1,2.6,63.9,6.2,95,15.1c24.4,7,49.3,11.4,74.6,13.2c20.1,1.4,40.3,0.8,60.5,1.1c5.2,0.1,10.5,0.4,15.7,0.8
		c3.5,0.2,4.9,2.3,3.9,5.7c-4.6-5.6-11-3.8-16.6-4c-15.6-0.5-31.3-0.4-46.9-0.4c-18.9,0-37.6-2.5-56-6.3
		c-21.3-4.4-42.3-10.1-63.6-14.4c-24.6-4.9-49.4-8.1-74.5-8.6c-18.7-0.4-36.8-4.1-55.2-6.7c-16.9-2.4-34.1-2.6-51.1-3.8
		c-0.6,0-1.2,0.1-2.6,0.3c2,1.1,3.3,1.9,4.7,2.6c0,0.3,0,0.7-0.1,1c-1.2,0-2.5,0.3-3.6,0c-5.8-1.8-7.3-0.9-7.2,5
		c0.1,7.2,0.8,14.4,1.5,21.5c0.1,1.1,1.7,2.7,2.9,3c4.4,1.1,8.8,2,13.3,2.4c10.3,0.8,20.7,1.2,31.5,1.8c-0.5-2-1-3.8-1.4-5.6
		c0.4-0.2,0.8-0.4,1.2-0.6c0.8,1.3,2,2.5,2.3,3.9c0.6,2.7,2.1,3.4,4.6,3.5c15.5,0.8,31,1.7,46.5,2.5c26.6,1.3,53.2,2.2,79.8,3.8
		c29.5,1.8,58.9,4.5,88.5,6.4c20,1.3,40,1.7,60.1,2.5c9.8,0.4,19.5,1,29.3,1.6C1381.2,973.7,1384.4,975.5,1386.6,980.2z"/>
	<path fill="#020202" d="M486,408.5c1.4,1.1,2.7,2.3,4.3,3.1c1.1,0.5,2.7,1,3.7,0.6c5.5-2.2,5.4-2.3,8.4,2.7
		c0.4,0.6,1.8,1.1,2.6,0.9c1.1-0.2,2.2-1,3.2-1.6c4.3-2.4,5.2-2.1,7.5,2.8c1.9-0.9,3.8-1.8,5.6-2.8c4.7-2.7,5.3-2.5,6.5,2.6
		c0.1,0.3,0.3,0.6,0.6,1.1c0.9-0.3,1.8-0.6,2.7-0.9c0.6-0.2,1.2-0.5,1.7-0.5c1.1-0.1,7,5.4,7.6,6.5c0.5,1.1,1.5,2,2.3,3
		c0.2,0.3,0.7,0.3,0.9,0.5c2.1,2.9,4.5,5.6,6.3,8.7c1.2,2,1,4.8,4,5.7c0.5,0.1,0.5,1.9,0.7,3.3c2.4-1.5,4.7-3.3,7.2-4.6
		c1.4-0.7,3.1-0.7,4.7-1.1c0.1,1.5,0.2,3,0.3,4.4c0,0.7-0.2,1.4-0.5,3.1c1.7-1.2,2.8-2.2,4-2.8c1.2-0.6,2.9-1.6,3.9-1.2
		c0.9,0.3,1.3,2.3,1.5,3.6c0.3,1.6,0.1,3.3,0.1,5.3c1.9-0.4,3.3-1,4.5-0.8c1.6,0.2,3.3,0.8,4.5,1.8c0.8,0.6,0.7,2.3,0.9,3.5
		c-0.9-0.4-1.9-1-2.9-1.3c-1.3-0.4-2.7-0.9-4-0.7c-5.5,1.1-5.7,1-5.7-4.4c0-1.1,0-2.1,0-4c-1.6,1.1-2.6,2-3.7,2.4
		c-1.5,0.6-3.2,0.8-4.8,1.2c-0.3-1.4-0.7-2.9-1-4.3c-0.1-0.6,0-1.2,0-2.3c-3.1,1.9-5.9,3.8-8.9,5.4c-1.1,0.6-2.6,0.8-3.7,0.5
		c-0.5-0.2-0.2-2.2-0.7-3.2c-1.4-3.3-2.9-6.6-4.5-9.9c-0.7-1.4-2-2.6-3-3.9c-0.5-0.7-0.9-1.8-1.5-1.9c-3.3-0.3-3.7-2.7-3.9-4.5
		c-2.2-1.5-3.9-2.7-6-4.1c-5,1.3-5.5,1-7-4c-4.2,0.2-8.5,7.7-12.9-0.2c-2.5,1-5.2,3-7.8,2.9c-2.1-0.1-3.9-2.9-6.5-5
		c-2.6,0.9-6.7,5-9.8-1.1c-5.7,2.5-5.7,2.5-12.3-4.9c-2.4,4.2-4.8,8.3-7.2,12.4c0.3,0.3,0.6,0.5,0.9,0.8c1.3-0.1,2.7-0.3,4-0.4
		c-0.1,3.1-0.1,3.1-4.6,4c-0.6,2.5-1.1,5-1.9,7.4c-1.4,4.1-4.1,5.2-8.1,3.6c-1.4-0.5-2.6-1.3-3.9-2.1c-1.2-0.8-2.3-1.6-3.7-2.6
		c-1.3,3.7-2.3,7.2-3.7,10.6c-1.7,4.2-3.8,5.2-8.1,4.1c-1.8-0.4-3.5-1.2-5.2-1.8c-1.6-0.6-3.1-1.4-5.7-1.7
		c1.6,5.2,3.3,10.5,4.9,15.7c0.3,1,0.2,2.1,0.2,3.1c-0.9-0.6-2.5-1-2.7-1.8c-1.9-6.4-3.7-12.9-5.3-19.4c-0.2-0.7,0.3-2.1,0.9-2.4
		c0.6-0.3,1.8,0.1,2.6,0.5c3.6,1.6,7,3.3,10.6,4.9c2.6,1.1,4.3,0.1,5.1-2.4c1.1-3.4,2.2-6.7,3.2-10.1c1.1-3.6,2.1-3.9,5-1.7
		c2.1,1.6,4.3,3.2,6.7,4.5c2,1.1,3.7,0.3,4.3-1.8c0.7-2.5,1.6-5,1.6-7.5c0-4.5,1.7-8.3,4.2-11.9c1.2-1.8,2.3-3.7,3.4-5.7
		c1.7-3.2,3.1-3.3,5.2-0.2c1.3,1.9,2.7,3.9,4.6,5.6c-3-32.2-4-64.3-3.7-96.4c0.3-31.9-2.4-63.8-1.7-95.8c0.6,0,1.2-0.1,1.7-0.1
		c0.2,1.2,0.6,2.4,0.6,3.6c0.8,44.5,1.3,89,2.4,133.4c0.4,17.6,2,35.1,3.1,52.6C485.3,408.8,485.7,408.7,486,408.5z"/>
	<path fill="#020202" d="M470.7,224.3c-0.1-3.6-2.5-3.4-4.6-3.2c-10.9,1.2-21.8,2.4-32.7,3.9c-23.7,3.3-47.4,6.6-71.1,10.2
		c-32.7,4.9-65.4,10.3-98.2,14.9c-20.2,2.8-40.5,4.4-60.8,6.4c-17.1,1.7-34.3,2.9-51.5,4.6c-16.5,1.6-33,3.6-49.5,5.4
		c-0.5,0.1-1.1-0.2-1.6-0.4c-0.1-0.4-0.2-0.7-0.4-1.1c1.4-0.5,2.7-1.3,4.1-1.5c12.1-1.4,24.2-2.9,36.4-4.1c17.5-1.7,35-3.3,52.5-4.8
		c13-1.1,26.1-1.7,39.1-3.3c22.5-2.8,45-6,67.5-9.3c30.5-4.4,60.9-9,91.3-13.5c20.7-3.1,41.3-6.2,62-9.1c5.5-0.8,11.2-0.8,16.8-0.8
		c1.1,0,2.7,1.3,3.2,2.3c0.3,0.7-1,2.1-1.6,3.2C471.4,224.2,471,224.2,470.7,224.3z"/>
	<path fill="#020202" d="M1102.4,681.8c2.6-0.6,4.7-1.2,6.9-1.5c13.5-2.3,26.5-1,39,4.8c4.9,2.3,9.1,10.6,8.3,16
		c-0.1,0.5-0.5,1-1.3,2.5c-0.5-2-0.9-3-1-4.1c-1.1-6.8-3.9-11.7-11.1-14c-11.5-3.7-23.2-5.2-35-2.3c-13,3.2-23,11-31,21.6
		c-15.6,20.7-23.1,43.9-21.1,70c1.1,13.5,7,25,14.6,35.9c0.8,1.2,1.5,2.5,2.3,3.8c-0.3,0.3-0.6,0.6-1,0.9c-0.9-0.8-2.1-1.5-2.8-2.5
		c-12.2-16-17.6-34.1-15.8-54.3c2.1-22.8,10.5-42.9,25.8-59.9c5-5.5,11.5-9.8,17.7-14c4.1-2.8,4.7-8.2,0.4-11.2
		c-10.1-7-21.6-10.7-33.5-13.4c-7.2-1.6-7.3-1.1-7.8,6.4c-0.9,12.8,0.6,25.4,1.8,38c0.5,5.2,0.3,10.5,0.4,15.7c0,1-0.4,2-0.6,2.9
		c-0.3,0-0.7,0.1-1,0.1c-0.3-0.8-0.9-1.5-1-2.3c-0.8-17.1-1.6-34.1-2.3-51.2c-0.1-2.9,0.3-5.9,0.7-8.7c0.6-3.5,3-5,6.4-4.3
		c12.5,2.8,24.8,6.4,35.9,13.2C1101.1,672.6,1103.1,676.1,1102.4,681.8z"/>
	<path fill="#020202" d="M462.6,898.3c1.3-0.5,2.5-1.1,3.8-1.5c11.4-3.9,22.8-7.7,34.2-11.8c2.2-0.8,4.1-2.7,5.7-4.5
		c1-1.1,1.3-2.8,1.9-4.2c-0.4-0.2-0.7-0.4-1.1-0.7c-1.2,1.4-2.4,2.9-3.7,4.2c-0.6,0.5-1.6,0.5-2.5,0.7c0.1-0.8-0.2-1.8,0.2-2.3
		c1.4-1.8,2.9-3.7,4.6-5.1c1.7-1.4,2-2.9,1.4-4.8c-0.8-2.8-1.7-5.6-2.3-8.5c-0.2-0.8,0.6-1.8,0.9-2.7c0.6,0.7,1.4,1.2,1.7,2
		c1.1,3.5,2,7,2.9,10c6.4-1.4,12.4-3.5,18.5-4c9.3-0.8,17.6,1.5,24.3,9.1c8.5,9.7,6,23.9,0.9,32.2c-5.5,9-14,14.5-23.2,19
		c-17,8.2-34.5,7.6-52.3,3.1c-4.6-1.2-7.9-4.3-10.3-8.3c-0.5-0.8-0.4-2-0.6-3c0.3-0.2,0.7-0.3,1-0.5c0.8,0.9,1.8,1.7,2.5,2.8
		c2.5,3.7,6,5.9,10.4,6.9c19.9,4.7,38.8,3.3,56.3-8.2c7.4-4.9,13.6-10.6,16.5-19.4c6.1-18.6-7.3-32.7-26-30.9
		c-5,0.5-9.9,2.5-14.9,3.8c-2.2,0.6-3.3,1.9-3,4.3c0.4,3.4-1.1,5.9-3.7,7.9c-1.9,1.4-3.6,3.1-5.6,4c-11.3,5.3-22.9,9.7-35.3,11.7
		c-0.9,0.2-1.8,0-2.8,0C463,899.2,462.8,898.8,462.6,898.3z"/>
	<path fill="#020202" d="M98.4,483.6c-5.3-0.9-9.2-5.6-9.2-10.6c-0.1-21-0.4-42,3.8-62.8c2.5-12.5,2.2-25.2,1.7-38
		c-0.5-15.7,0.3-31.5,0.5-47.2c0.1-9.6,0-19.3,0.4-28.9c0.3-7.8,1-15.6,1.6-23.3c0.1-1.2,0.9-2.3,1.4-3.5c0.4,0,0.7,0.1,1.1,0.1
		c0.1,0.9,0.4,1.9,0.2,2.8c-2.3,10.1-1.7,20.4-1.7,30.6c0,13.7-1.2,27.3-1.3,41c-0.1,11.2,0.3,22.5,0.8,33.7
		c0.6,13.1-0.6,26.1-3.1,39c-3.7,18.8-2.7,37.7-2.6,56.6c0,2.5,2.6,5,4,7.4C96.7,481.6,97.6,482.6,98.4,483.6z"/>
	<path fill="#020202" d="M368.4,328.7c3.3,2.4,5.9,4.4,8.5,6.3c-0.1,0.3-0.3,0.7-0.4,1c-3-0.3-6.1-0.4-9.1-0.9
		c-3.3-0.6-4.5,0.7-4.6,3.7c-0.3,5.8-0.6,11.7-0.9,17.5c0,0.8-0.3,1.7-1.2,2.5c-2.8-7.5-0.3-15.1-0.3-23.3
		c-7.5,6-14.6,11.7-21.7,17.3c-1.6-1.9-1.5-2.4,0.8-4.2c4.5-3.5,9.1-7,13.6-10.6c0.9-0.7,1.8-1.6,2.7-2.4c-0.1-0.4-0.2-0.8-0.2-1.1
		c-8.2,0.7-16.4,1.4-24.6,2.1c-0.2-0.3-0.3-0.6-0.5-1c1.1-0.5,2.1-1.4,3.2-1.5c7.9-0.8,15.8-1.3,23.7-2.1c1.6-0.2,3.2-0.8,4.7-1.8
		c-7.8-5.2-16.2-6.8-26-5.1c3.9-4.7,8.7-4.2,26.9,1.4c1.4-2.6,2.6-5.4,4.2-7.9c1.5-2.2,3.6-4.1,5.4-6.1c0.4,0.3,0.8,0.6,1.2,1
		c-2.6,4.1-5.3,8.2-7.9,12.4c0.3,0.2,0.6,0.4,0.8,0.6c4.8-2.3,8.1-7.7,14.6-6.9C377,322.7,372.8,325.7,368.4,328.7z"/>
	<path fill="#020202" d="M1234.4,991.8c-4.1,6.9-10.1,11.5-18,13.3c-18.6,4.3-37.5,7-56.7,6c-4.8-0.3-5,0.1-5.5,5
		c-1,9.5,1.1,18.7,2.5,28c0.2,1.2,0.3,2.4-0.2,3.8c-4-5.3-3.5-11.9-4.4-17.9c-0.9-6.2-0.2-12.6-0.2-18.6c-14.1-3-28.1-6-42.1-9
		c-0.2,0-0.2-0.6-0.5-1.7c1.8,0.2,3.2,0.3,4.6,0.6c11.6,2.2,23.2,5.3,34.9,6.4c18,1.7,36,1.8,53.8-2.3c3.6-0.8,7.2-1.6,10.8-2
		c5.8-0.6,10-4.4,14.6-7.2c0.9-0.6,1.3-2.1,2.1-2.9c1-1,2.3-1.7,3.4-2.5C1233.8,991,1234.1,991.4,1234.4,991.8z"/>
	<path fill="#020202" d="M1144.6,680.5c0.6-0.3,1.1-1,1.7-1c7.8-0.4,15.5-0.4,22,4.8c14.6,11.8,26.1,26.3,34,43.1
		c6.5,13.9,4.2,28.5-2.5,41.8c-3.6,7.2-9.1,13.5-14,20.1c-2.8,3.7-6.2,7-10.1,10.3c0.1-0.9,0-2,0.5-2.7c1.6-2.3,3.3-4.5,5.3-6.5
		c7.6-8,14.7-16.4,18.3-27.1c5.1-15.4,5.2-30.4-4.8-44c-6.8-9.2-13.8-18.3-21.3-27c-6.4-7.3-14.6-11.4-24.7-10.3
		c-1.4,0.1-2.8-0.3-4.3-0.5C1144.7,681.1,1144.6,680.8,1144.6,680.5z"/>
	<path fill="#020202" d="M250.1,297.5c-1.6-0.2-3.1-0.6-4.7-0.6c-6.1,0.2-12.2,0.7-18.2,0.7c-4.2,0-7.2,2-10.6,4.1
		c-5.2,3.2-10.7,5.8-16.2,8.5c-1.7,0.8-3.7,1.2-5.7,1.4c-5,0.5-6.4-0.7-6.5-5.7c0-0.6-0.1-1.1-0.3-2.4c-1.8,1.7-3.3,3-4.6,4.3
		c-8.2,7.8-16.7,15.1-27.2,19.5c-2,0.8-4.2,1.5-6.3,1.7c-3.5,0.4-5-1.3-4.7-4.8c0.2-2.8,0.7-5.6,1-8.2c-0.9,0.2-1.8,0.5-2.7,0.7
		c0-0.9-0.2-1.9,0.1-2.7c0.8-2.3,1.8-4.6,2.9-6.7c0.6-1,1.7-1.8,2.5-2.7c0.4,1.3,1.1,2.6,1,3.9c-0.4,3.8-1.2,7.5-1.6,11.2
		c-0.2,2.1,0,4.3,0,6.4c2.3-0.4,5-0.1,6.9-1.3c6.9-4.1,13.7-8.5,20.1-13.2c4.4-3.3,8.1-7.4,12.2-11.1c0.7-0.6,1.9-0.8,2.9-1.1
		c0.3,1,0.9,2,0.9,2.9c-0.2,7.6,0.6,8.5,7.8,5.6c5.3-2.1,10.5-4.7,15.2-7.9c4.5-3.1,9.1-5.3,14.6-5.3c6,0,11.9-0.2,17.9-0.1
		c1.3,0,2.5,0.9,3.8,1.4C250.3,296.5,250.2,297,250.1,297.5z"/>
	<path fill="#020202" d="M172.9,446.1c0.7,0.1,1.4,0,1.9,0.3c4.4,3,9,2.6,13.7,1.3c11.4-3.2,22.8-6.5,34.2-9.5
		c6.2-1.6,6.3-1.1,9.8,4.3c0.9,1.4,3.8,2.5,5.5,2.1c6.3-1.2,12.6-2.9,18.8-4.5c4.7-1.3,9.3-3,14.1-4c1.3-0.3,3.8,0.8,4.4,1.9
		c1.4,2.7,3.4,2.8,5.8,2.7c8.5-0.5,17.1-1,25.6-1.5c3.1-0.2,5.9,0.8,7.8,4.1c-1-0.1-2-0.2-3-0.4c-2.6-0.4-5.2-1.3-7.8-1.2
		c-7.7,0.3-15.4,0.9-23,1.4c-3,0.2-5.4-0.2-7.2-3.1c-0.5-0.9-2.9-1.4-4.2-1c-6.9,1.9-13.7,4.4-20.7,6.3c-4,1.1-8.1,1.5-12.2,2
		c-3.2,0.4-5.5-1.1-6.5-4.2c-0.8-2.6-2.3-3.4-5-2.7c-12.2,3.4-24.4,6.9-36.8,10c-3.3,0.8-7,0.7-10.4,0.3c-2-0.2-3.7-2-5.6-3
		C172.4,447,172.6,446.5,172.9,446.1z"/>
	<path fill="#020202" d="M674.1,756.1c-0.6-1.1-1.5-2.2-1.7-3.5c-0.6-3.8-1.3-7.7-1.4-11.6c-0.8-35.8-1.5-71.5-2.1-107.3
		c0-1.2,0.6-2.3,1.7-3.4C671.9,672.2,671.6,714,674.1,756.1z"/>
	<path fill="#020202" d="M796.1,369.2c2.2,2.1,2.7,9.5,1.2,10.7c-0.9,0.8-2.4,1.2-3.6,1.1c-8.4-0.4-16.8-0.9-25.2-1.5
		c-8.9-0.6-17.7-1.5-26.6-2.1c-8.1-0.6-15.3-7.2-15.4-14.5c-0.1-3.1,0.5-6.2,4.4-8.1c-0.1,1.4,0,2.1-0.3,2.6
		c-3.4,7.3,1.4,16.4,9.4,17.1c17,1.5,34.1,2.6,51.1,4c3.5,0.3,5-0.8,4.5-4.4C795.5,372.5,796,370.8,796.1,369.2z"/>
	<path fill="#020202" d="M1107.6,962.5c0.4,28.3,0.7,56.6,1.1,85.3c-1.7,0.8-1.8-0.9-1.9-2.5c-0.5-10.8-1.2-21.7-1.4-32.5
		c-0.2-15.4-0.1-30.7,0-46.1c0-1.4,0.3-2.8,0.5-4.3C1106.4,962.4,1107,962.5,1107.6,962.5z"/>
	<path fill="#020202" d="M371.9,406.8c-5.3,2.2-9.3,7.4-8.9,11.3c-2.7,0.2-4.3-1.8-2.6-3.8c3.1-3.7,6.6-7.1,10.4-10.1
		c2-1.6,4.1-0.1,4.3,2.5c0.2,3,2.1,3.8,4.5,3.7c3.1-0.1,6.3-0.5,9.4-1c4.1-0.7,7.8-1.1,12.1,0c5.4,1.4,11.4,0.7,17.1,0.9
		c1.3,0.1,2.6,0.4,3.9,0.6c0,0.4,0,0.8,0,1.2c-1,0.2-1.9,0.6-2.9,0.6c-5.4,0-11,1-16-0.4c-7-1.9-13.4-0.3-20,0.8
		C377.4,414.1,374.6,412.4,371.9,406.8z"/>
	<path fill="#020202" d="M1364.8,1048.3c-0.7-1-1.9-2-2-3.1c-1.3-11.2-2.9-22.5-3.5-33.8c-0.5-8.6,0.2-17.3,0.6-25.9
		c0.1-1.7,1.2-3.4,2.5-4.6c-0.2,11.1-0.8,22.2-0.4,33.3c0.5,11.2,2.1,22.3,3.2,33.4C1365,1047.7,1364.9,1048,1364.8,1048.3z"/>
	<path fill="#020202" d="M1401.1,1048.2c-0.6-0.7-1.5-1.3-1.7-2c-4.8-19.1-5.6-38.3-2-57.6c0.3-1.6,1.2-3.1,2.1-4.5
		c0.3-0.4,1.5-0.3,2.2-0.1c0.2,0.1,0.4,1.3,0.2,1.9c-1,2.9-2.6,5.7-3,8.6c-1.9,16.2-1.8,32.4,2.3,48.3c0.3,1.2,0.4,2.4,0.6,3.6
		c0.1,0.5,0,0.9,0,1.4C1401.5,1047.8,1401.3,1048,1401.1,1048.2z"/>
	<path fill="#020202" d="M614.3,843.7c0.8-0.9,1.4-2.2,2.3-2.8c10.4-6.6,20.9-13.1,31.4-19.6c1-0.6,2.8-0.9,3.7-0.4
		c0.7,0.4,0.7,2.2,0.7,2.5c-2.8,0.9-5.2,1.2-7.1,2.3c-9.5,5.9-18.9,12.1-28.4,18.1c-0.5,0.3-1.2,0.5-1.9,0.7
		C614.8,844.3,614.5,844,614.3,843.7z"/>
	<path fill="#020202" d="M1125.7,1046.9c-8.5-3.6-20.2-32.5-15.3-39.2c1.6,7,2.5,13.9,5,20.3
		C1117.9,1034.4,1121.9,1040.1,1125.7,1046.9z"/>
	<path fill="#020202" d="M405.3,782.3c0.6,0.8,1.2,1.6,1.7,2.5c2.6,4.3,9,6.8,13.7,5.1c3.8-1.4,7.3-3.3,11-4.9
		c1.3-0.6,2.8-0.8,4.2-1.2c0.2,0.3,0.3,0.6,0.5,0.9c-0.4,0.6-0.7,1.5-1.3,1.8c-4.5,2.1-9,4.4-13.7,6.2c-5.1,1.9-12.7-0.5-15.9-4.8
		c-1-1.3-1.3-3.2-1.9-4.8C404.2,782.8,404.7,782.5,405.3,782.3z"/>
	<path fill="#020202" d="M667.3,823.8c-9.2,7.9-18.4,15.9-27.5,23.8c-0.4-0.2-0.7-0.5-1.1-0.7c0.8-1.3,1.5-3,2.6-4
		c7.2-6.4,14.5-12.7,21.8-18.9c0.9-0.8,2.3-1,3.4-1.5C666.8,823,667,823.4,667.3,823.8z"/>
	<path fill="#020202" d="M699.5,831.5c-11.1,3.7-21.2,9.2-29.8,17.2c-0.3-0.3-0.7-0.5-1-0.8c0.6-1.2,1-2.7,2-3.5
		c7.7-6.3,16-11.5,25.6-14.3c0.9-0.3,1.9,0,2.9,0C699.3,830.6,699.4,831.1,699.5,831.5z"/>
	<path fill="#020202" d="M642.5,666.6c-0.5-0.8-1-1.6-1.3-2.5c-2.2-6-3.4-12.6-9.2-16.6c-0.5-0.3-0.3-1.4-0.5-2.2
		c0.8,0,1.8-0.2,2.3,0.2c1.9,1.8,4.2,3.5,5.4,5.8c1.9,3.6,3.2,7.6,4.6,11.5c0.4,1.1,0.1,2.4,0.1,3.6
		C643.3,666.4,642.9,666.5,642.5,666.6z"/>
	<path fill="#020202" d="M700.7,850.9c0.2-4.3,15.4-17.3,19.7-16.3C714,839.9,707.6,845.2,700.7,850.9z"/>
	<path fill="#020202" d="M649.3,657.1c-0.4,0.9-0.7,1.8-1,1.8c-0.6,0.1-1.5-0.2-1.8-0.6c-0.8-1.2-1.5-2.5-2-3.9
		c-1.4-3.8-2.8-7.6-6.7-9.6c-0.4-0.2-0.4-1.4-0.6-2.1c0.7,0,1.5-0.4,2-0.1c1.2,0.6,2.6,1.2,3.2,2.3
		C644.9,648.9,647.1,653.1,649.3,657.1z"/>
	<path fill="#020202" d="M747.9,839.7c-0.9,1-1.4,1.8-2.1,2.2c-3.8,2.4-7.6,4.8-11.5,7c-0.7,0.4-1.7,0-2.6,0
		c0.2-0.7,0.2-1.9,0.7-2.1c4.5-2.6,9-5.1,13.6-7.6C746.3,839.1,746.9,839.4,747.9,839.7z"/>
	<path fill="#020202" d="M1246,983.6c-0.1-1.1-0.2-1.6-0.1-1.9c1.2-2.9,2.4-5.8,3.8-8.6c0.4-0.8,1.5-1.2,2.3-1.7
		c0.2,0.9,0.8,1.9,0.5,2.5C1250.9,977.2,1250.7,981.5,1246,983.6z"/>
	<path fill="#020202" d="M515.9,592.6c1.6-2.1,3.2-4.3,5-6.4c0.3-0.4,1.5,0,2.2,0c-0.1,0.7,0,1.5-0.4,1.9c-1.8,1.9-3.7,3.7-5.5,5.6
		C516.7,593.4,516.3,593,515.9,592.6z"/>
	<path fill="#020202" d="M699.8,321.5c0.9-1.2,1.5-2.9,2.6-3.6c5.5-3.5,11-7.2,16.9-10.1c18.8-9.1,38.4-16,59.4-17.8
		c16.3-1.4,32.7-1.8,49-2.3c11.3-0.3,22.7,0.1,34.1,0.4c2.9,0.1,5.8,1,8.7,1.4c6.3,1,12.6,1.8,18.8,2.9c1.6,0.3,3.1,1.2,4.7,1.8
		c-0.1,0.3-0.1,0.6-0.2,1c-0.5,0.2-1,0.7-1.5,0.6c-9.6-1.6-19.2-3.3-28.8-4.9c-2.9-0.5-5.8-0.7-8.8-0.6c-20.2,0.2-40.3,0.2-60.5,0.9
		c-22.8,0.8-44.8,5.8-65.6,15.3c-5.8,2.6-11.6,5.1-17.2,8.2c-3.8,2.1-7.1,5-10.6,7.5C700.5,321.9,700.1,321.7,699.8,321.5z"/>
	<path fill="#020202" d="M883.3,343.8c-2.8,1.4-5.5,3.7-8.5,4c-19.3,1.9-38.7,4.3-58.1,2.5c-20.3-1.9-40.8-2.2-60.6-7.4
		c-10.7-2.8-20.8-7.6-31.4-11.1c-4.3-1.4-9-1.9-13.5-2.7c-1.2-0.2-2.5,0-3.7,0c-0.1-0.4-0.2-0.8-0.3-1.2c1.1-0.4,2.2-1.4,3.2-1.2
		c5,0.7,10.5,0.7,14.9,2.7c17.4,7.9,35.3,13.7,54.5,15c19.4,1.3,38.7,3.1,58.1,3.7c9.9,0.3,19.9-1.4,29.9-2.3
		c4.4-0.4,9.1,0.1,12.9-3.2c0.4-0.3,1.3,0,2,0C882.9,342.9,883.1,343.4,883.3,343.8z"/>
	<path fill="#020202" d="M500,545.5c-1.3-0.1-2.6,0-3.8-0.3c-5.1-1.5-10-9-9.4-14.4c0.1-1,1.1-1.9,1.6-2.9c0.4,0.9,1.2,1.9,1.2,2.8
		c0.2,5.6,3.3,10,8.5,11.9c0.9,0.3,1.6,1,2.4,1.6C500.3,544.6,500.2,545.1,500,545.5z"/>
	<path fill="#020202" d="M501.8,506.7c0.3,0.6,0.7,1.4,1.4,2.7c-2,0-3.5,0.3-4.9-0.1c-5-1.4-10-11.2-8.1-16c0.4-1,1.8-2.1,2.9-2.2
		c4.8-0.8,14,4.6,15.8,9c0.2,0.5,0,1.1,0,2.1c-1.5-0.4-2.5-0.8-3.6-1.1C504.1,503,503,504.8,501.8,506.7z M501.2,496.3
		c-2.3-0.8-5.2-1.7-8-2.7c-0.3,0.3-0.6,0.6-0.9,0.9c1,3.1,2,6.2,2.9,9.2C497.4,500.9,499.2,498.8,501.2,496.3z"/>
	<path fill="#020202" d="M535.5,512.2c0.6,0.1,2.4-0.1,3.4,0.7c1.8,1.4,4.9,4.4,4.5,5c-1.8,3.1-1.5,8-6.8,8.6
		c-3.4,0.3-5.5-1.1-6.8-3.7c-0.7-1.4-1.1-3.2-1.1-4.9C528.6,513.3,530,512.1,535.5,512.2z M532,522c2.6-2.3,4.6-4.1,7.3-6.6
		c-3,0-5.6-0.7-7.2,0.3C531.3,516.3,532,519.5,532,522z"/>
	<path fill="#020202" d="M599.6,742.4c0-1.3-0.2-2.7,0.1-4c0.1-0.8,1-1.4,1.5-2.1c0.7,0.6,2,1,2.1,1.7c0.5,4,0.8,8,0.9,12
		c0,0.6-1.1,1.7-1.8,1.7c-0.7,0-1.8-1-1.9-1.6C600,747.6,599.8,745,599.6,742.4z"/>
	<path fill="#020202" d="M602.8,760.6c-1-1.5-2.1-2.5-2.2-3.5c0-0.6,1.7-2,2.3-1.8c1,0.3,2.1,1.5,2.4,2.5
		C605.5,758.2,604,759.3,602.8,760.6z"/>
	<path d="M937.2,445c2.8,10.5,5.9,20.9,9.4,31.2c0.4,1.2,2.3,1.4,2.7,0c1.6-6,3.3-12,5.3-17.9c0.9-2.7,1.8-5.4,2.8-8
		c0.4-1.1,4.8-10.5,4.8-10.5c0.9,1.5,3.3,0.1,2.4-1.4c-3.9-6.2-7.8,5.8-8.7,8c-3.7,9.5-6.8,19.2-9.3,29.1c0.9,0,1.8,0,2.7,0
		c-3.5-10.3-6.6-20.7-9.4-31.2C939.4,442.6,936.8,443.3,937.2,445L937.2,445z"/>
	<path d="M963,456.3c0,6.6,0.1,13.2,0.1,19.7c0,0.8,0.9,1.6,1.7,1.3c4.8-1.6,9.3-3.8,13.6-6.5c1.5-0.9,0.1-3.3-1.4-2.4
		c-4.1,2.6-8.4,4.6-13,6.2c0.6,0.4,1.2,0.9,1.7,1.3c0-6.6-0.1-13.2-0.1-19.7C965.7,454.5,963,454.5,963,456.3L963,456.3z"/>
	<path d="M965.7,464.9c3.3-0.9,6.5-1.9,9.8-2.8c1.7-0.5,1-3.1-0.7-2.7c-3.3,0.9-6.5,1.9-9.8,2.8C963.3,462.7,964,465.4,965.7,464.9
		L965.7,464.9z"/>
	<path d="M964.9,460.8c3.7-2.8,7.9-4.7,12.4-5.8c1.7-0.4,1-3-0.7-2.7c-4.8,1.1-9.2,3.1-13.1,6C962.1,459.5,963.5,461.9,964.9,460.8
		L964.9,460.8z"/>
	<path d="M985.9,453.6c-0.2,7.2-0.5,14.3-0.7,21.5c-0.1,1.8,2.7,1.8,2.8,0c0.2-7.2,0.5-14.3,0.7-21.5
		C988.7,451.8,985.9,451.8,985.9,453.6L985.9,453.6z"/>
	<path d="M986.1,458c-0.2-2.9,1.4-4.3,4.8-4.3c3,2.6,3.5,5.2,1.3,7.7c-1.4,2.1-3.4,3.9-5.3,5.5c0.8,0.3,1.6,0.6,2.3,1
		c0,0,6.3,4.2,6.9,4.7c2.2,1.7,4.3,3.3,6.5,5c1.4,1.1,2.8-1.3,1.4-2.4c-1.7-1.3-16.9-15.5-17.6-7.4c-0.1,1.3,1.5,1.7,2.3,1
		c4.3-3.6,11.5-11.5,5.1-16.6c-4.7-3.7-10.6,0.3-10.6,5.8C983.4,459.8,986.2,459.8,986.1,458L986.1,458z"/>
	<path d="M1004.4,450c-0.3,6.6,5.3,12.3,11.9,12.3c1.8,0,1.8-2.8,0-2.8c-5.1,0-9.3-4.5-9.1-9.6
		C1007.2,448.3,1004.5,448.3,1004.4,450L1004.4,450z"/>
	<path d="M1019.8,445.9c-5.9,10-8.9,21.1-9,32.7c0,1.8,2.7,1.8,2.8,0c0-11.1,2.9-21.7,8.6-31.3
		C1023.1,445.8,1020.7,444.4,1019.8,445.9L1019.8,445.9z"/>
	<path d="M915,504.6c-0.3,6.5-1.3,12.9-2.9,19.3c-1,3.9-4.1,9.1-3.2,13.3c1.8,9.1,15.8-1.2,19.4-3.2c1.6-0.8,0.2-3.2-1.4-2.4
		c-3.4,1.8-6.7,3.8-10.1,5.4c-2,1.6-3.7,1.2-5.3-1.2c0.1-1.1,0.4-2.2,0.8-3.3c0.5-1.9,1.2-3.7,1.8-5.5c2.1-7.3,3.3-14.8,3.7-22.4
		C917.8,502.8,915.1,502.8,915,504.6L915,504.6z"/>
	<path d="M913.8,523.9c6.4-1.3,12.6-3.2,18.7-5.6c1.6-0.7,0.9-3.3-0.7-2.7c-6.1,2.4-12.3,4.3-18.7,5.6
		C911.4,521.6,912.1,524.3,913.8,523.9L913.8,523.9z"/>
	<path d="M913.9,509.7c6.8-3.4,13.9-5.8,21.4-7.3c1.7-0.3,1-3-0.7-2.7c-7.7,1.5-15,4.1-22.1,7.5
		C910.9,508.1,912.3,510.5,913.9,509.7L913.9,509.7z"/>
	<path d="M936,514.2c4.9,5.5,9.2,11.5,12.8,17.9c0.9,1.5,3.2,0.2,2.4-1.4c-3.7-6.7-8.1-12.8-13.2-18.5
		C936.7,511,934.8,512.9,936,514.2L936,514.2z"/>
	<path d="M948.2,512c-4.9,8.3-9.3,16.8-13.2,25.6c-0.7,1.6,1.7,3,2.4,1.4c3.9-8.8,8.3-17.3,13.2-25.6
		C951.5,511.9,949.1,510.5,948.2,512L948.2,512z"/>
	<path d="M955.6,507.2c-0.3,8.7-0.7,17.3-1,26c-0.1,1.8,2.7,1.8,2.8,0c0.3-8.7,0.7-17.3,1-26C958.4,505.5,955.6,505.5,955.6,507.2
		L955.6,507.2z"/>
	<path d="M953.2,510.7c3.2-1.9,9.6-4.2,11.5,0.7c2.1,5.3-6,6.1-9.2,6.1c-1.8,0-1.8,2.8,0,2.8c3.3-0.1,7-0.2,9.7-2.5
		c2-1.7,3.1-4.3,2.3-6.9c-2.3-7.1-10.8-5.3-15.6-2.5C950.2,509.2,951.6,511.5,953.2,510.7L953.2,510.7z"/>
	<path d="M970.1,504.6c0.2,8.6-0.4,17.2-2,25.7c-0.2,1.1,0.6,1.9,1.7,1.7c5.8-1.1,11.5-2.1,17.3-3.2c1.7-0.3,1-3-0.7-2.7
		c-5.8,1.1-11.5,2.1-17.3,3.2c0.6,0.6,1.1,1.1,1.7,1.7c1.6-8.7,2.4-17.5,2.1-26.4C972.8,502.8,970.1,502.8,970.1,504.6L970.1,504.6z
		"/>
	<path d="M997,526.8c3.8-4.9,9.8-14.6,6.7-21.1c-2.3-4.8-9.3-5.3-13.2-2.4c-5,3.7-5.9,11.8-3.7,17.3c1.9,4.6,8.5,6.9,10.6,1.2
		c0.6-1.7-2-2.4-2.7-0.7c-2.1,5.5-5.9-2.7-6.1-4c-0.3-2.1-0.3-4.3,0.2-6.4c1.1-3.9,4.1-7,8.4-6.3c9.9,1.6,0.7,16.8-2.6,21
		C993.6,526.8,996,528.2,997,526.8L997,526.8z"/>
	<path d="M1019.6,505.2c-1.9-6.4-9.7-4-12.7,0.3c-1.5,2.1-1.1,4.4,0.6,6.2c1.3,1.5,3.3,2.1,4.8,3.3c4.4,3.6,0.7,10.5-4.8,7.6
		c-1.6-0.8-3,1.5-1.4,2.4c4.4,2.4,10.3,0.5,11.1-4.9c0.3-2.1-0.3-4.3-1.6-5.9c-1.1-1.3-2.6-1.9-4-2.8c-7.4-4.6,4.2-9.6,5.5-5.4
		C1017.5,507.6,1020.2,506.9,1019.6,505.2L1019.6,505.2z"/>
	<path d="M1022.8,502.8c0.6,8.3,1.2,16.7,1.8,25c0.1,1.8,2.9,1.8,2.8,0c-0.6-8.3-1.2-16.7-1.8-25
		C1025.5,501,1022.7,501,1022.8,502.8L1022.8,502.8z"/>
	<path d="M1029.4,503.5c4.3,7.7,7.4,15.7,9.3,24.3c0.3,1.4,2.3,1.3,2.7,0c2.2-7.9,2.9-15.9,2.1-24.1c-0.2-1.7-2.9-1.8-2.8,0
		c0.8,7.9,0.1,15.7-2,23.4c0.9,0,1.8,0,2.7,0c-1.9-8.8-5.1-17.1-9.5-25C1030.9,500.5,1028.5,501.9,1029.4,503.5L1029.4,503.5z"/>
	<path d="M1050.4,503.6c-0.6,4.1-1.3,8.3-1.7,12.5c-0.2,2.4-0.2,5.2,1.2,7.3c3.5,4.9,12.6,0.5,17-0.8c1.7-0.5,1-3.1-0.7-2.7
		c-2.3,0.6-4.6,1.3-6.8,1.9c-2,0.5-5.6,1.8-7.3-0.2c-0.7-0.8-0.7-2.5-0.7-3.5c-0.1-4.8,1.1-9.8,1.8-14.5
		C1053.3,501.9,1050.6,501.9,1050.4,503.6L1050.4,503.6z"/>
	<path d="M1055.1,515.7c6-2,12-4.1,17.9-6.1c1.7-0.6,1-3.2-0.7-2.7c-6,2-12,4.1-17.9,6.1C1052.7,513.6,1053.4,516.3,1055.1,515.7
		L1055.1,515.7z"/>
	<path d="M1048.5,504.2c6.9-0.5,13.7-1.1,20.6-1.6c1.8-0.1,1.8-2.9,0-2.8c-6.9,0.5-13.7,1.1-20.6,1.6
		C1046.7,501.6,1046.7,504.4,1048.5,504.2L1048.5,504.2z"/>
	<path d="M1076.4,518.6c1.2,4.2-2.1,8.7-6.5,8.7c-1.8,0-1.8,2.8,0,2.8c6.1-0.1,10.8-6.3,9.1-12.2
		C1078.5,516.1,1075.9,516.9,1076.4,518.6L1076.4,518.6z"/>
	<path d="M883.2,654.9c-1.6,8.3-2.1,16.6-1.6,25c0.1,1.8,2.9,1.8,2.8,0c-0.5-8.2,0-16.2,1.5-24.2
		C886.2,653.9,883.5,653.1,883.2,654.9L883.2,654.9z"/>
	<path d="M874.1,658.8c-1-4,2.5-5.9,5.6-6.8c1.6-0.5,4.3-1.3,5.6,0.2c2.7,3.3-2.6,10.3-4.5,12.6c-0.7,0.8-0.4,1.9,0.6,2.3
		c6.6,2.4,11.6,7.4,14,14c0.6,1.6,3.3,0.9,2.7-0.7c-2.8-7.5-8.4-13.1-15.9-15.9c0.2,0.8,0.4,1.5,0.6,2.3c2.6-3.1,5.1-6.7,5.5-10.8
		c0.3-2.8-0.1-6.7-3.4-7.3c-6.3-1.3-15.1,3.9-13.4,10.9C871.9,661.2,874.6,660.5,874.1,658.8L874.1,658.8z"/>
	<path d="M901,651.5c-0.1,4.8-0.1,9.6,0,14.4c0.1,3-0.1,6.3,2.2,8.6c4.5,4.6,10.9,0.5,14.7-2.7c1.4-1.1-0.6-3.1-1.9-1.9
		c-2.1,1.8-4.8,4.3-7.9,4c-4.8-0.5-4.3-5.7-4.3-8.7c-0.1-4.5-0.1-9,0-13.5C903.7,649.7,901,649.7,901,651.5L901,651.5z"/>
	<path d="M901.5,663c6.9-0.8,13.6-2.4,20.1-5.1c1.6-0.7,0.9-3.3-0.7-2.7c-6.2,2.5-12.7,4.2-19.3,5
		C899.8,660.5,899.8,663.2,901.5,663L901.5,663z"/>
	<path d="M899.7,653.5c7-1.4,14-2.7,21-4.1c1.7-0.3,1-3-0.7-2.7c-7,1.4-14,2.7-21,4.1C897.2,651.2,897.9,653.8,899.7,653.5
		L899.7,653.5z"/>
	<path d="M930.1,674.9c2.1-9.2,4.3-18.4,6.4-27.6c-0.9,0-1.8,0-2.7,0c1.4,9.4,3.3,18.7,5.7,27.9c0.4,1.7,3.1,1,2.7-0.7
		c-2.4-9.2-4.3-18.5-5.7-27.9c-0.2-1.4-2.4-1.3-2.7,0c-2.1,9.2-4.3,18.4-6.4,27.6C927.1,675.9,929.7,676.6,930.1,674.9L930.1,674.9z
		"/>
	<path d="M931.4,664.8c5,0,9.8-0.8,14.5-2.4c1.7-0.6,1-3.2-0.7-2.7c-4.5,1.5-9.1,2.2-13.8,2.3C929.7,662.1,929.7,664.9,931.4,664.8
		L931.4,664.8z"/>
	<path d="M948.7,644c0.2,8.7-0.4,17.3-1.8,25.9c-0.2,1,0.4,1.6,1.3,1.7c6.2,0.8,11.9-0.4,17.3-3.5c1.5-0.9,0.2-3.2-1.4-2.4
		c-5,2.8-10.3,3.8-15.9,3.1c0.4,0.6,0.9,1.2,1.3,1.7c1.5-8.8,2.1-17.7,1.9-26.6C951.4,642.2,948.7,642.2,948.7,644L948.7,644z"/>
	<path d="M967.4,641c-0.6,4.7-0.9,9.4-0.7,14.2c0.1,3.3-0.1,8.1,1.4,11.2c2.4,4.7,10.8,1.7,14.4,0.5c1.7-0.6,1-3.2-0.7-2.7
		c-2.5,0.8-5.5,1.9-8.2,1.7c-4.5-0.3-3.8-4.6-4-8.1c-0.4-5.6-0.2-11.3,0.5-16.9C970.3,639.2,967.6,639.2,967.4,641L967.4,641z"/>
	<path d="M982.6,642.5c-0.3,8.3,9,12.5,15.3,7.5c1.4-1.1-0.6-3-1.9-1.9c-4.6,3.7-10.8,0.1-10.6-5.5
		C985.5,640.8,982.7,640.8,982.6,642.5L982.6,642.5z"/>
	<path d="M999.4,636.1c-3,11-5.9,21.9-8.9,32.9c-0.5,1.7,2.2,2.4,2.7,0.7c3-11,5.9-21.9,8.9-32.9
		C1002.5,635.2,999.8,634.4,999.4,636.1L999.4,636.1z"/>
	<path d="M904.8,567.1c-4,13.4-7.7,26.9-11,40.5c-0.4,1.7,2.2,2.5,2.7,0.7c3.3-13.6,7-27.1,11-40.5
		C907.9,566.1,905.3,565.4,904.8,567.1L904.8,567.1z"/>
	<path d="M924.5,604.9c2.9-9.9,4.5-19.9,4.9-30.2c0.1-1.8-2.6-1.7-2.8,0c-0.4,4.3-0.9,20.3,7.7,16.1c2.9-1.4,4.7-5.4,6-8.2
		c2.1-4.5,3.6-9.3,5.1-14.1c-0.9-0.2-1.8-0.5-2.7-0.7c-1,6.7-1.6,13.4-1.9,20.2c-0.2,5.5-0.4,10.9,2.5,15.7c0.9,1.5,3.3,0.1,2.4-1.4
		c-3-4.8-2.4-10.6-2.1-16c0.3-5.9,0.9-11.8,1.8-17.7c0.2-1.7-2.1-2.5-2.7-0.7c-1.6,5.3-3.2,10.6-5.9,15.5c-0.5,0.9-1,1.8-1.5,2.7
		c-0.6,2-1.8,2.4-3.4,1c-1.5,0.1-2.2-0.4-2.2-1.6c-1.4-2.2-0.7-8.1-0.4-10.6c-0.9,0-1.8,0-2.8,0c-0.4,10-2,19.8-4.8,29.4
		C921.4,605.9,924,606.6,924.5,604.9L924.5,604.9z"/>
	<path d="M953.7,571.2c-0.6,4.3-1.1,8.6-1.2,13c-0.1,3.3-0.7,7.5,0.5,10.7c1.2,3.2,5.7,4.8,7.4,1.1c0.7-1.6-1.6-3-2.4-1.4
		c-1.9,0.1-2.8-0.6-2.6-2.1c-0.1-1-0.2-1.9-0.1-2.9c0-1.8,0-3.6,0.1-5.4c0.1-4.1,0.5-8.2,1.1-12.2
		C956.6,570.2,953.9,569.5,953.7,571.2L953.7,571.2z"/>
	<path d="M953.3,585.4c3.8,0.4,7.4-0.3,10.8-2c1.6-0.8,0.2-3.2-1.4-2.4c-3,1.5-6.1,2-9.4,1.6C951.5,582.4,951.5,585.2,953.3,585.4
		L953.3,585.4z"/>
	<path d="M955.3,573.4c3.7,0.5,7.4-0.8,10-3.5c1.3-1.3-0.7-3.2-1.9-1.9c-2.2,2.2-5,3.1-8.1,2.7C953.6,570.5,953.6,573.2,955.3,573.4
		L955.3,573.4z"/>
	<path d="M973.7,595.2c2.9-11,6.8-21.6,11.7-31.9c-0.9-0.2-1.7-0.5-2.6-0.7c-0.2,8.9,0.8,17.7,3,26.4c0.4,1.7,3.1,1,2.7-0.7
		c-2.1-8.4-3.1-17-2.9-25.7c0-1.3-2-1.9-2.6-0.7c-5,10.5-9,21.3-12,32.5C970.6,596.1,973.2,596.9,973.7,595.2L973.7,595.2z"/>
	<path d="M975.9,582.9c3.4-0.7,6.8-1,10.3-0.9c1.8,0,1.8-2.7,0-2.8c-3.7-0.1-7.4,0.2-11,1C973.5,580.6,974.2,583.3,975.9,582.9
		L975.9,582.9z"/>
	<path d="M994.1,591.7c2.2-10.6,4.3-21.2,6.5-31.8c-0.9-0.1-1.8-0.2-2.7-0.4c-0.7,7.1-0.6,14.2,0.4,21.3c0.4,2.6,0.2,9.8,4.3,9.7
		c4-0.2,6-7,7.1-10c2.3-5.9,3.2-12.2,3.1-18.6c0-1.8-2.8-1.8-2.8,0c0.1,4.5-0.4,9-1.6,13.4c-0.7,2.5-2.6,10.9-5.5,11.3
		c-1,0.7-1.4,0.2-1.2-1.4c-0.2-1.1-0.4-2.3-0.6-3.4c-0.4-2.8-0.7-5.5-0.9-8.3c-0.3-4.7-0.1-9.3,0.3-14c0.1-1.5-2.4-1.9-2.7-0.4
		c-2.2,10.6-4.3,21.2-6.5,31.8C991.1,592.6,993.7,593.4,994.1,591.7L994.1,591.7z"/>
	<g>
		<g>
			<path d="M935.1,626.2c1.9,0,1.9-3,0-3C933.2,623.2,933.2,626.2,935.1,626.2L935.1,626.2z"/>
		</g>
	</g>
	<path d="M950.5,625.5c0.2-0.5,0.3-1,0.5-1.5c0.2-0.7-0.3-1.5-1-1.7c-0.8-0.2-1.4,0.2-1.7,1c-0.2,0.5-0.3,1-0.5,1.5
		c-0.2,0.7,0.3,1.5,1,1.7C949.5,626.7,950.2,626.3,950.5,625.5L950.5,625.5z"/>
	<g>
		<g>
			<path d="M961.9,626.2c1.9,0,1.9-3,0-3C960,623.2,960,626.2,961.9,626.2L961.9,626.2z"/>
		</g>
	</g>
	<path fill="#2B2B2B" d="M1037.1,311.5c-0.4-4.5,1.3-10.4,5.9-12.4c8.2-3.7,10.6,8.9,11.1,13.8c0.8,8.1-0.5,16.3,0.6,24.4
		c0.1,0.7,1,0.6,1.3,0.2c3.6-5,6.4-10.3,8.6-16c-0.4,0.1-0.8,0.1-1.3,0.2c2.9,5.6,5.5,13.8,11.2,17.2c4.9,2.9,10.7,0.8,14.8-2.6
		c9.5-7.7,15.1-23.8,13.3-35.8c-1.6-10.5-12.8-17.3-22-9.9c-7.9,6.3-4.4,18.7,4.4,22.2c0.8,0.3,1.2-1,0.4-1.3
		c-10.3-4-10.2-19.1,0.8-22c12.3-3.3,16.4,10.3,15.1,19.7c-1.3,9.4-5.2,20.1-12.8,26.2c-5.8,4.7-12.6,4.9-17.1-1.6
		c-2.7-3.9-4.6-8.5-6.8-12.7c-0.3-0.6-1.1-0.3-1.3,0.2c-2.1,5.6-5,10.8-8.5,15.7c0.4,0.1,0.8,0.1,1.3,0.2c-1.1-8,0.2-16-0.6-24
		c-0.4-4.8-1.5-10.6-5.3-14c-7.8-7.1-15.1,5.7-14.4,12.6C1035.8,312.4,1037.2,312.4,1037.1,311.5L1037.1,311.5z"/>
	<path fill="#2B2B2B" d="M1116.9,292.7c-3.4,13.5-5.6,27.4-6.2,41.4c-0.1,2.9,0.2,5.7,3.5,6.1c2.3,0.3,4.6-0.9,6.7-1.6
		c3.7-1.3,7.3-2.7,11-4c0.8-0.3,0.5-1.6-0.4-1.3c-4.7,1.7-9.3,3.8-14.1,5.1c-7.3,2.1-5.1-9.7-4.7-14c1-10.6,2.9-21,5.4-31.3
		C1118.5,292.2,1117.2,291.9,1116.9,292.7L1116.9,292.7z"/>
	<path fill="#2B2B2B" d="M1114.2,317.3c6.5-3,13.3-5,20.4-6c0.9-0.1,0.5-1.5-0.4-1.3c-7.2,1.1-14.1,3.1-20.7,6.1
		C1112.7,316.4,1113.4,317.6,1114.2,317.3L1114.2,317.3z"/>
	<path fill="#2B2B2B" d="M1115,295.1c7.6-0.8,15.2-1.3,22.9-1.4c0.9,0,0.9-1.4,0-1.4c-7.7,0.1-15.3,0.6-22.9,1.4
		C1114.1,293.8,1114.1,295.2,1115,295.1L1115,295.1z"/>
	<path fill="#2B2B2B" d="M1210.6,297.9c3.8-13.2-18.8-19.9-22.1-6c-1.9,8.1,2.7,16.7,6.9,23.3c2.8,4.5,6,8.8,9,13.1
		c2.4,3.4,4.4,7.6,7.8,10.1c0.7,0.5,1.4-0.7,0.7-1.2c-4.7-3.4-8.1-10.6-11.4-15.4c-3.3-4.8-6.7-9.5-9.1-14.8
		c-2.8-6.2-5.9-18.1,3-21.1c7-2.4,16.1,3.9,13.9,11.7C1209.1,298.4,1210.4,298.8,1210.6,297.9L1210.6,297.9z"/>
	<path fill="#2B2B2B" d="M1284,281.7c-1,16.5-0.4,32.9,2,49.3c0.1,0.9,1.5,0.5,1.3-0.4c-2.4-16.2-3-32.6-2-48.9
		C1285.5,280.9,1284.1,280.9,1284,281.7L1284,281.7z"/>
	<path fill="#2B2B2B" d="M1277.8,282.9c19.9-5.6,40.2-9.6,60.7-11.9c0.9-0.1,0.9-1.5,0-1.4c-20.7,2.3-41.1,6.3-61.1,11.9
		C1276.5,281.8,1276.9,283.2,1277.8,282.9L1277.8,282.9z"/>
	<path fill="#2B2B2B" d="M1339.2,270.7c-16.4,15.2-32.7,30.5-49.1,45.7c-0.6,0.6,0.3,1.6,1,1c16.4-15.2,32.7-30.5,49.1-45.7
		C1340.9,271.1,1339.9,270.1,1339.2,270.7L1339.2,270.7z"/>
	<path fill="#2B2B2B" d="M1346.8,277.6c-9,8.2-15.8,18.3-23.7,27.4c-7.9,9.1-16.6,17.6-25.7,25.4c-0.7,0.6,0.3,1.5,1,1
		c9.2-7.8,17.8-16.3,25.7-25.4c7.9-9.1,14.7-19.3,23.7-27.4C1348.5,278,1347.5,277,1346.8,277.6L1346.8,277.6z"/>
	<path fill="#2B2B2B" d="M1323.8,304c10.3,9.3,21.7,17.1,33.9,23.5c0.8,0.4,1.5-0.8,0.7-1.2c-12.2-6.4-23.4-14.1-33.7-23.3
		C1324.1,302.4,1323.2,303.4,1323.8,304L1323.8,304z"/>
	<path fill="#2B2B2B" d="M1285.4,340.8c23.8-3.9,47.7-6.1,71.8-6.6c0.9,0,0.9-1.4,0-1.4c-24.2,0.5-48.3,2.7-72.2,6.6
		C1284.1,339.6,1284.5,341,1285.4,340.8L1285.4,340.8z"/>
</g>
</svg>
