<?xml version="1.0" encoding="utf-8"?>
<!-- Generator: Adobe Illustrator 22.0.1, SVG Export Plug-In . SVG Version: 6.00 Build 0)  -->
<svg version="1.0" id="Ebene_1" xmlns="http://www.w3.org/2000/svg" xmlns:xlink="http://www.w3.org/1999/xlink" x="0px" y="0px"
	 viewBox="0 0 612.4 126.9" enable-background="new 0 0 612.4 126.9" xml:space="preserve">
<g>
	<path fill="#515050" d="M14.9,46.6c11.5-3.3,22.3-9.2,30.8-17.7c3.8-3.8,7.2-8.1,9.9-12.8c1.9-3.3,5.7-9.5,4.7-13.4
		c-1.1-4-5.3-2.9-7.8-1.1c-4.9,3.6-8.3,9.4-10.7,14.8c-5,11.7-6.5,24.6-11.2,36.5C28,59.3,25,65.7,21.2,71.5c-1.8,2.7-4,5.7-7,7
		c-5.2,2.3-9.1-1.3-9.5-6.4C4.2,67.1,8.1,50,16,53c2.9,1.1,5.7,4.9,8.1,6.9c2.7,2.3,5.5,4.4,8.4,6.4c5.1,3.6,10.5,6.8,16.1,9.5
		c5.3,2.5,9.5,2.4,13.9-1.5c4.5-4,8.4-9.2,11.1-14.5C76,55,79,48.3,78.5,42.9c-0.4-4-3.8-5.1-7.1-3.3c-5.3,3-9.5,8.9-11.7,14.4
		C55.8,64.1,59,77.6,71,79.7c2.8,0.5,4.1-3.9,1.2-4.3c-14.4-2.4-10.1-20.5-2.9-28.1c0.5-0.5,4.1-4.1,4.4-3.8
		c0.5,0.4-0.1,2.2-0.1,2.7c-0.4,2.9-1.5,5.9-2.7,8.6c-2.4,5.6-6,10.8-10.4,15.1c-3.7,3.5-6.8,3.4-11.2,1.2c-2.8-1.4-5.5-2.9-8.2-4.6
		c-5.3-3.2-10.4-6.9-15.1-10.9c-6.7-5.8-14-12.4-20.2-2.4c-4.2,6.8-8.4,17.9-3.7,25.5c4.7,7.5,14,5.2,19.3-0.2
		c7.6-7.8,12.2-20.1,15.7-30.2c3.6-10.4,4.8-21.7,9.5-31.7c1.3-2.7,2.8-5.3,4.7-7.6c1-1.2,2.1-2.2,3.2-3.3c2.6-2.8,1.1-0.6,0.5,1
		c-2.1,5.8-5.4,11.1-9.5,15.7c-8.4,9.6-19.6,16.2-31.8,19.7C10.9,43,12.1,47.4,14.9,46.6L14.9,46.6z"/>
	<path fill="#515050" d="M88.7,23.5c-2.4,15.5-2.9,31.1-1.2,46.7c0.3,2.8,4.8,2.9,4.5,0c-1.7-15.2-1.4-30.4,1-45.5
		C93.5,21.9,89.1,20.7,88.7,23.5L88.7,23.5z"/>
	<path fill="#515050" d="M80.7,51c8.5-1.6,16.9-3.2,25.4-4.8c2.8-0.5,1.6-4.9-1.2-4.3c-8.5,1.6-16.9,3.2-25.4,4.8
		C76.7,47.2,77.9,51.6,80.7,51L80.7,51z"/>
	<path fill="#515050" d="M120.6,47.6c0,7.1,0.1,14.3,0.1,21.4c0,2.7,3.5,2.9,4.4,0.6c2.9-7.3,6.4-14.4,10.4-21.2
		c-1.4-0.2-2.7-0.4-4.1-0.5c1.9,6.7,2.4,13.3,1.6,20.2c-0.3,2.7,3.5,2.7,4.4,0.6c2.9-7.1,5.8-14.1,8.8-21.2
		c-1.1,0.4-2.2,0.9-3.3,1.3c5.9,4.5,2.7,13.4,5,19.6c1.7,4.6,5.4,8.4,10.6,8.5c14.6,0.3,18.2-21.6,16.7-32.2c-0.2-1.1-1.7-2-2.8-1.6
		c-7.2,2.8-13.4,8.5-14.5,16.5c-1.1,8.1,3.7,15.2,10.3,19.5c2.4,1.6,4.7-2.3,2.3-3.9c-11.9-7.6-9.7-22.6,3.1-27.7
		c-0.9-0.5-1.8-1-2.8-1.6c0.9,6.8-0.3,13.8-3.7,19.8c-3.4,6-11,9.8-14.8,1.9c-1.9-4-1.1-8.5-1.6-12.7c-0.6-4.3-2.2-7.5-5.7-10.1
		c-1.3-1-2.8,0.2-3.3,1.3c-2.9,7.1-5.8,14.1-8.8,21.2c1.5,0.2,2.9,0.4,4.4,0.6c0.8-7.3,0.2-14.4-1.8-21.4c-0.5-1.9-3.1-2.2-4.1-0.5
		c-4.2,7.1-7.8,14.5-10.8,22.2c1.5,0.2,2.9,0.4,4.4,0.6c0-7.1-0.1-14.3-0.1-21.4C125.1,44.7,120.6,44.7,120.6,47.6L120.6,47.6z"/>
	<path fill="#515050" d="M215.5,21.1c-8,15.7-9.1,33.5-2.7,50c1,2.7,5.4,1.5,4.3-1.2c-5.9-15.3-5.2-31.8,2.3-46.5
		C220.6,20.8,216.8,18.5,215.5,21.1L215.5,21.1z"/>
	<path fill="#515050" d="M192.6,49.2c10.5-0.4,20.7,0.9,30.7,4c2.8,0.8,4-3.5,1.2-4.3c-10.4-3.2-21.1-4.5-31.9-4.1
		C189.7,44.8,189.7,49.3,192.6,49.2L192.6,49.2z"/>
	<path fill="#515050" d="M229.1,58c4.4-2.3,9.5-5.7,11.9-10.3c1.7-3.2,0.6-7.1-3.3-7.7c-4.6-0.7-7.9,4-9.3,7.7
		c-2.2,5.5-2.1,11.8,0.4,17.1c1.9,4.2,5.2,6.8,10,6.3c5.3-0.5,8.6-4.7,11-9c6.5-11.9,10.2-25,11.8-38.4c0.3-2.2-3.3-3.1-4.2-1.1
		c-4.4,9.3-7,19.3-6.8,29.6c0.1,7.2,1.3,14.9,9,17.6c0.9,0.3,2.1-0.2,2.5-1c8.3-15.5,12.9-32.3,13.3-49.9c0-0.7-0.4-1.6-1.1-1.9
		c-9-3.9-10.2,12.9-10.6,18.2c-0.9,11.5,1.6,22.8,6.5,33.2c1.2,2.6,5.1,0.3,3.9-2.3c-3.3-7-5.4-14.5-5.9-22.3
		c-0.1-1.9,1.3-24.1,3.9-22.9c-0.4-0.6-0.7-1.3-1.1-1.9c-0.4,16.8-4.8,32.8-12.7,47.6c0.8-0.3,1.7-0.7,2.5-1
		c-6.9-2.4-5.9-12.8-5.5-18.5c0.6-7.7,2.7-15.1,6-22c-1.4-0.4-2.8-0.8-4.2-1.1c-1.5,12.9-5.2,27.3-12.4,38.2
		c-2.9,4.4-8.2,7.2-11.7,1.3c-1.9-3.2-2-7.6-1.2-11.2c0.3-1.5,0.8-4.3,2.1-5.1c0.5-1.5,1.1-1.4,1.9,0.4c-0.3,0.4-0.7,0.7-1,1.1
		c-1.6,2.6-5.4,4.4-8,5.7C224.3,55.5,226.6,59.3,229.1,58L229.1,58z"/>
	<path fill="#515050" d="M302,52.8c-0.1,6.9,2.3,15.3,10.8,15.1c7.8-0.2,13-9.5,14.8-16c-1.5-0.2-2.9-0.4-4.4-0.6
		c-0.1,10.5-0.6,20.9-1.8,31.3c-1,9.2-1.9,19.3-6,27.7c-4.1,8.4-13.1,15.6-22.6,10.5c-10.5-5.7-8-17.5-2.2-25.7
		c1.7-2.4-2.2-4.6-3.9-2.3c-5.8,8.4-8.9,20-1,28.2c6.7,6.9,17,8,24.8,2.3c9.1-6.6,12.1-17.8,13.8-28.4c2.3-14.4,3.4-29,3.5-43.6
		c0-2.5-3.7-3.1-4.4-0.6c-1.1,4-3.2,8.2-6.5,10.8c-2.4,1.9-6,2.5-8.4,0c-2.2-2.4-2-5.7-1.9-8.7C306.6,49.9,302.1,49.9,302,52.8
		L302,52.8z"/>
	<path fill="#515050" d="M338.3,61.6c-0.9,2.6,1.5,4.9,4.1,4.6c3.1-0.4,5.2-4.1,6.6-6.5c3.3-5.5,3.1-13.7-4.2-15.8
		c-7.1-2-13.3,4.7-15.3,10.9c-2.1,6.4,2.6,13.8,9.9,11.5c2.8-0.9,1.6-5.2-1.2-4.3c-5.1,1.6-5.3-4.4-3.7-7.6c1.2-2.6,3.3-5.2,6.1-6.1
		c3.2-1,6.1,1.3,6.2,4.5c0,1.9-1,3.6-2,5.1c-0.4,0.7-0.9,1.4-1.4,2c-0.9,0.7-1.2,1.7-0.8,2.8C343.6,60,339.2,58.9,338.3,61.6
		L338.3,61.6z"/>
	<path fill="#515050" d="M410.2,67.6c6.4-3.2,15.7-13.4,9.9-21c-6.9-9-17,2.4-20.4,8.4c-4.1,7.4-1.5,17.6,8.5,16.8
		c9.6-0.8,15.4-10.8,13.8-19.6c-0.4-2.3-3.7-2-4.3,0c-2.2,7.4,1.2,14.3,7.4,18.5c2.4,1.6,4.7-2.3,2.3-3.9c-4.6-3.1-7-8-5.4-13.4
		c-1.4,0-2.9,0-4.3,0c0.9,5.2-1.7,10.6-6.5,13c-2.9,1.5-7.7,1.4-8.9-2.3c-1-2.8,0.7-5.8,2.2-8.1c1.4-2.2,2.8-4.5,4.8-6.1
		c3.2-2.4,8.5-1.1,7.7,3.4c-0.8,4.9-4.8,8.4-9,10.5C405.4,65,407.6,68.9,410.2,67.6L410.2,67.6z"/>
	<path fill="#515050" d="M472.5,48.5c-0.6-8.7-13.7-11-18.3-4.2c-2.4,3.6-1.7,8.5,0.9,11.7c1.9,2.4,6.7,3.5,7.9,5.9
		c3.3,6.8-8.9,7.4-12.3,6.9c-2.8-0.4-4.1,3.9-1.2,4.3c7,1,19.7-0.7,18.3-10.7c-0.8-5.7-6.8-5.5-9.5-9.7c-5.4-8.1,9.4-10.8,9.8-4.3
		C468.2,51.3,472.7,51.3,472.5,48.5L472.5,48.5z"/>
	<path fill="#515050" d="M483.2,26.5c-1.2,14.6-2.5,29.3-3.7,43.9c-0.2,2.9,4.3,2.9,4.5,0c1.2-14.6,2.5-29.3,3.7-43.9
		C488,23.6,483.5,23.6,483.2,26.5L483.2,26.5z"/>
	<path fill="#515050" d="M474.8,52.9c7.7-5.3,17-6.7,26-4.3c2.8,0.7,4-3.6,1.2-4.3c-10-2.6-20.8-1.2-29.4,4.8
		C470.1,50.7,472.4,54.6,474.8,52.9L474.8,52.9z"/>
	<path fill="#515050" d="M526.8,45.9c0.8,7.5-0.1,14.7-2.6,21.8c1.4,0,2.9,0,4.3,0c-1.6-4.7-3.6-10.2-1.8-15.1
		c1.6-4.4,5.6-6.9,10.2-6.8c2.9,0.1,2.9-4.4,0-4.5c-5.6-0.1-10.7,2.6-13.5,7.6c-3.6,6.3-1.4,13.7,0.7,20c0.7,2.2,3.6,2.1,4.3,0
		c2.6-7.5,3.6-15.1,2.8-23C531,43.1,526.5,43.1,526.8,45.9L526.8,45.9z"/>
	<path fill="#515050" d="M539.2,43.4c0.1,5.8,2.2,12.8,9.3,12.6c6.6-0.1,11.6-7.6,12.9-13.3c0.6-2.4-3-4.1-4.1-1.7
		c-10.1,20.9-7.2,48.1-28.6,62.5c-7.2,4.8-25.4,11.2-30.7,0.4c-3-6.1,2.9-12.1,7.8-14.7c5.4-2.8,11.6-3.9,17.5-5
		c2.8-0.5,1.6-4.9-1.2-4.3c-11.1,2.1-28.3,5.8-29.3,19.9c-0.9,12.5,13.8,15.5,23.4,13.8c13-2.4,23.9-11.6,30.1-23.1
		c8-14.7,7.8-32.1,15-47.1c-1.4-0.6-2.7-1.2-4.1-1.7c-0.8,3.3-2.6,7-5.7,8.7c-5.6,3.1-7.7-2-7.8-6.8
		C543.6,40.5,539.1,40.5,539.2,43.4L539.2,43.4z"/>
	<path fill="#515050" d="M577.5,50.5c0,1.1-0.1,2.1-0.1,3.2c0,1.2,1.1,2.3,2.3,2.3c1.2-0.1,2.2-1,2.3-2.3c0-1.1,0.1-2.1,0.1-3.2
		c0-1.2-1.1-2.3-2.3-2.3C578.5,48.3,577.6,49.3,577.5,50.5L577.5,50.5z"/>
	<g>
		<g>
			<path fill="#515050" d="M593.7,53.2c2.9,0,2.9-4.5,0-4.5C590.8,48.7,590.8,53.2,593.7,53.2L593.7,53.2z"/>
		</g>
	</g>
	<path fill="#515050" d="M608.9,52.5c0.4,0,0.8,0,1.3,0c1.2,0,2.3-1.1,2.3-2.3c-0.1-1.2-1-2.2-2.3-2.3c-0.4,0-0.8,0-1.3,0
		c-1.2,0-2.3,1.1-2.3,2.3C606.7,51.5,607.6,52.5,608.9,52.5L608.9,52.5z"/>
	<path fill="#515050" d="M510.6,66.1c5.9-4.5,9.1-12.4,4.9-19.2c-3.9-6.3-12.5-6.6-17.9-2c-5.1,4.3-7.9,15.7-3.5,21.4
		c4.2,5.4,13.5,3.6,15.1-3.1c0.7-2.8-3.7-4-4.3-1.2c-0.9,3.8-6.4,4.1-7.9,0.3c-0.5-1.3-0.3-3.1-0.3-4.6c0.3-4.4,1.6-8.8,5.9-10.7
		c4.2-1.8,8.5-0.2,9.9,4.3c1.2,4.2-0.8,8.4-4.2,10.9C506,64,508.3,67.9,510.6,66.1L510.6,66.1z"/>
	<path fill="#515050" d="M350.8,46.6c-0.7,4.4-1.2,18.5,6.2,17.8c3.2-0.3,6.2-3.5,8-5.9c2.1-2.9,3.2-6.3,3.3-9.9
		c0-2.9-4.2-2.8-4.5,0c-0.5,5.4-0.1,10.7,1.2,15.9c0.7,2.8,5,1.6,4.3-1.2c-1.2-4.9-1.5-9.7-1-14.7c-1.5,0-3,0-4.5,0
		c-0.1,4.2-2.2,8.1-5.6,10.5c-1.4,1-1.2,1-1.9-0.2c-0.5-0.8-0.7-2.4-0.9-3.3c-0.5-2.5-0.5-5.1-0.1-7.7
		C355.6,45,351.3,43.7,350.8,46.6L350.8,46.6z"/>
</g>
</svg>
