<?xml version="1.0" encoding="utf-8"?>
<!-- Generator: Adobe Illustrator 22.0.1, SVG Export Plug-In . SVG Version: 6.00 Build 0)  -->
<svg version="1.0" id="Ebene_1" xmlns="http://www.w3.org/2000/svg" xmlns:xlink="http://www.w3.org/1999/xlink" x="0px" y="0px"
	 viewBox="0 0 1547.9 1049.4" enable-background="new 0 0 1547.9 1049.4" xml:space="preserve">
<g>
	<path d="M706.1,343.9"/>
</g>
<g>
	<path d="M773.4,320.6"/>
</g>
<path d="M258.5,206.7c-4.6,9.9-8.2,19.1-12.9,27.7c-9.9,18.1-20.4,35.9-30.7,53.9c-0.5,0.9-0.9,2-1.7,2.7c-0.5,0.5-1.5,0.6-2.3,0.8
	c-0.1-0.7-0.5-1.5-0.3-2.2c0.3-1,0.9-1.9,1.4-2.8c10.7-18.7,21.7-37.3,32.1-56.2c3.8-6.8,6.5-14.3,9-21.7c1.8-5.3,2.5-6.3,8.1-4.9
	c7.8,2,15.4,4.2,23.2,6.2c4.1,1.1,8.2,2.1,12.7,3.3c1-6.2,1.7-12.2,3-18c3-13.1,6.2-26.2,9.4-39.3c1.4-5.7,0.2-7.8-5.6-8.4
	c-7.8-0.8-15.7-1.1-23.5-1.7c-16.2-1.2-32.4-2.5-48.6-3.7c-11-0.8-22.1-0.9-33.1-2.2c-8.4-1-16.7-3.4-25.1-5
	c-4.4-0.9-9-1.3-13.4-2.1c-1-0.2-1.8-1.4-2.8-2.1c1.2-0.3,2.4-0.9,3.5-0.8c12.7,2.3,25.3,5.1,38.1,6.8c9.7,1.4,19.6,1.4,29.5,2.1
	c16.7,1.2,33.5,2.6,50.2,3.7c8.9,0.6,17.8,0.9,26.6,1.4c-3-7.3-6.1-14.6-9-22c-4.9-12.5-9.8-25.1-14.4-37.7c-0.7-2-0.1-4.4-0.1-6.6
	c0.4,0.3,0.8,0.7,1.2,1c2.4-0.6,4.8-1.1,7.1-1.8c16.7-5.6,33.3-11.4,50-17c13.1-4.4,26.2-8.9,39.4-13.1c1.9-0.6,4.4-2.6,6.4,0.3
	c-1.9,0.9-3.7,2-5.7,2.6c-16.3,5.5-32.6,10.9-48.9,16.4c-13.5,4.6-27,9.1-40.4,13.9c-6.4,2.3-6.5,2.7-4,9
	c6.8,17.3,13.8,34.6,20.9,51.9c0.8,2,3,3.4,4.6,5.1c0.5,0.6,1.4,1.2,1.4,1.8c-0.4,5.9,3.9,9.7,6.1,14.5c1.2,2.7,2.7,5.2,4.1,7.8
	c2.5,4.6,3.5,4.9,8.1,2.6c7.9-3.9,15.6-8.2,23.6-11.7c23.2-10.2,46.5-20.1,69.8-30c3.1-1.3,3.1-2.5,1.6-5c-1.3-2.1-2.5-4.5-3.2-6.9
	c-4.9-17.4-14-32.8-22.7-48.4c-2.1-3.8-3.9-7.9-6-11.7c-1.9-3.3-4.2-6.3-6.3-9.6c-0.5-0.9-0.6-2.1-0.9-3.1c1,0.3,2.4,0.2,3,0.8
	c2,2.1,4,4.3,5.4,6.9c8.1,15.3,16,30.7,23.8,46.2c2,4,3.3,8.4,5,12.6c2.7,6.5,5.4,13,8.3,19.4c0.5,1,2.1,1.6,3.8,2.8
	c-1.9,1.1-2.9,1.7-3.9,2.2c0.1,0.2,0.1,0.7,0.3,0.9c1,1.6,2.4,3,3.1,4.6c1.4,3.4,2.6,6.8-1.5,9.6c-2,1.4-3.5,3.5-5.6,5.6
	c10.1-0.5,19.7-1.1,29.2-1.5c21.8-0.9,43.7-1.8,65.5-2.5c6.9-0.2,6.9-0.1,7.8,6.9c0.1,1,0.8,1.9,1.4,2.8c3.4,5.1,6.9,10.2,10.2,15.3
	c0.5,0.8,0.3,2.1,0.5,3.2c-1-0.4-2.3-0.6-2.9-1.4c-3.2-4.3-6.3-8.8-9.7-13.6c-3.6,17.4-2,34.3-0.2,51.8c5.5-2.2,10.6-4,15.4-6.4
	c0.9-0.5,1.3-3,1.2-4.6c-0.7-8.5-1.6-17-2.4-25.4c-0.1-0.9-0.1-2,0.3-2.7c0.4-0.6,1.4-0.9,2.1-1.4c0.3,0.7,0.9,1.4,1,2.1
	c0.1,5.4,0,10.8,0,16.7c4.7-1,4.2,1.2,3.6,3.9c-0.6,2.9-0.7,5.9-1.2,9.7c3.4-1.4,5.9-2.5,8.5-3.4c11.1-4.2,22.1-8.5,33.2-12.6
	c4.5-1.7,7.8-0.5,10.1,3.7c1.7,3,2.8,6.3,4.3,9.4c2.2,4.4,4.6,8.7,6.6,13.1c1.1,2.3,1.5,4.8,2.5,7.1c0.3,0.8,1.8,1.7,2.5,1.5
	c3.7-1.1,7.3-2.5,11-3.7c11.5-3.7,23.1-7.3,34.6-11c0.9-0.3,1.8-1.1,2.2-2c4.8-9,11.1-16.4,20.4-21.1c4.2-2.1,4.1-2.4,6,2.9
	c11.8-5.2,23.7-10.2,35.3-15.6c19.6-9.1,39.5-17.4,60.5-22.7c1-0.3,2.1-0.6,3.1-0.6c2.7-0.1,3.6,1.6,2,3.5c-1.7,2.2-3.9,3.9-6.1,5.6
	c-6,4.7-12.1,9.2-18,13.9c-2.5,2-4.7,4.3-7.1,6.4c0.2,0.3,0.5,0.6,0.7,1c1-0.5,1.9-1,2.9-1.5c16.8-8.7,33.6-17.3,50.5-25.9
	c1.4-0.7,3.2-0.6,4.8-0.9c0,1.5-0.1,3,0,4.5c0.5,7.8-4.3,13.5-8,19.6c-2.2,3.7-4.1,7.6-6.1,11.5c0.3,0.4,0.6,0.7,0.9,1.1
	c3.5-0.7,7-1.2,10.4-2.3c12.7-4,25.3-8.3,38-12.4c1.3-0.4,2.9,0.1,4.3,0.2c-0.6,1.2-1.1,2.6-1.9,3.6c-6.5,8.2-13.2,16.4-19.7,24.7
	c-1.6,2-2.6,4.4-4,6.8c7,1.9,8.6,1.3,12.5-3.6c16.3-20.6,32.7-41.1,49-61.7c6.7-8.5,13.2-17.1,19.8-25.6c1.5-1.9,3-3.8,4.6-5.5
	c1.2-1.2,2.5-2.1,3.9,0c0.4,0.5,1.3,0.8,2,1c13.7,3.4,27.7,3.2,42.1,3.4c-1-1.3-1.7-2.2-3.2-4.1c2.2,0.2,3.4,0.1,4.5,0.4
	c14.8,4.8,28.4,11.9,41.7,20c6.3,3.9,13.3,6.7,20,10c4.4,2.2,8.8,4.4,13.9,6.9c-0.6-1.3-0.8-2.2-1.3-3c-2.9-4.6-5.7-9.3-8.8-13.8
	c-7.5-10.8-13.9-22-16.8-35.1c-0.6-2.6-2.5-4.8-3.6-7.3c-0.3-0.8-0.1-2.1,0.5-2.8c0.7-0.9,1.8-1.6,2.8-2.2
	c33.8-18.5,67.9-36.5,103.9-50.4c6.7-2.6,13.7-4.5,20.5-6.7c0.9-0.3,1.8-0.6,2.7-0.5c0.8,0.1,1.5,0.7,2.3,1c-0.6,0.6-1,1.6-1.7,1.8
	c-2.8,1-5.6,1.7-8.4,2.6c-26.6,8-51.2,20.4-75.8,32.9c-13.7,6.9-27.1,14.3-40.7,21.4c-1,0.5-2,1.3-2.7,1.8c1.1,2.3,2.4,4.2,2.8,6.3
	c3.1,15.3,11.7,27.9,20.1,40.5c4.3,6.4,8.8,12.7,12.3,19.6c4.8,9.5,8.9,19.3,12.9,29.2c3.6,8.8,6.8,17.7,10.2,26.6
	c0.2,0.5,0.4,1,0.4,1.5c0.1,2.3,2.8,5.7-0.6,6.5c-3.5,0.7-1.5-3.3-2.2-5.1c-0.2-0.6-0.5-1.2-1.2-3.2c-4.3,8.3-8,15.6-12.3,23.8
	c3.9-1.2,6.8-2.1,10.7-3.3c-0.8,1.8-0.9,2.5-1.2,2.7c-5.4,3-10.8,6.4-16.4,8.8c-5.8,2.5-11.2,5.1-14.7,10.9
	c-4.9,8-10.4,15.7-15.8,23.8c23.3-14.2,46.2-28,69.3-42.1c-4.1-1.3-8.8-2.7-13.5-4.4c-1.8-0.7-3.4-2-5-3c1.8,0,3.6-0.4,5.3,0
	c4.4,1.2,8.6,2.9,13,4c4.1,1.1,8.3,1.6,12.4,2.8c2.5,0.7,5,1.7,7,3.3c4.5,3.5,8.6,7.5,12.9,11.2c4.2,3.6,8.5,7.2,13.5,10.6
	c-3.2-10.6-6.3-21.2-9.6-31.7c-0.3-0.9-2-1.3-3.6-2.3c2-8.4,4.1-17.3,6.5-27.4c-10.7,4.3-20.5,8-30.1,12.2
	c-7.1,3.2-13.9,7.2-20.9,10.7c-0.9,0.4-2.1,0.2-3.1,0.3c0.5-1,0.7-2.3,1.5-2.8c3.2-2.1,6.4-4.4,9.9-5.9
	c25.1-10.4,50.4-20.4,75.5-30.9c18.1-7.5,35.9-15.6,53.9-23.4c0.5-0.2,0.9-0.6,0.8-0.6c-3.7-7.4-7.2-14.7-11.1-21.8
	c-3-5.6-6.5-11-9.8-16.5c-1.2-2-2.9-3.9-4.1-5.9c-10-17.5-20.4-34.7-29.6-52.6c-5.6-11-9.4-22.9-14-34.4c-0.3-0.9-0.2-1.9-0.5-3.9
	c1.5,0.9,2.2,1.3,2.9,1.8c2.4,2.1,4.5,5,7.3,6.1c9.5,4,19.3,7.4,29,11.1c0.7,0.3,1.5,1,1.8,1.7c5.6,13.8,12.8,26.6,22.4,38.1
	c13,15.6,20.5,34.2,26.8,53.2c1.2,3.5,1.9,7.1,2.7,10.7c0.1,0.5,0.2,1.1,0,1.5c-1.8,4.6-3.7,9.1-5.7,13.6c-0.3,0.8-1.5,1.2-2.2,1.7
	c-0.2-1.1-0.8-2.2-0.5-3.1c1.4-4,3.1-7.9,4.6-11.8c0.2-0.5,0.3-1.2,0.2-1.8c-2.4-13.9-7.7-26.8-14.1-39.3
	c-3.7-7.2-7.8-14.4-12.8-20.7c-9.2-11.6-17.2-23.8-22.8-37.4c-1.1-2.7-2.7-3.8-5.6-4.7c-6.8-2.1-13.5-5-20.1-7.7
	c-2.2-0.9-4.4-1.9-7.5-3.3c3.3,8.7,5.8,16.8,9.5,24.3c4,8.2,9.2,15.9,13.7,23.9c3.8,6.7,7.5,13.5,11.3,20.2c3,5.2,6.1,10.3,9,15.5
	c6.2,11,12.4,22,18.4,33.1c3.4,6.2,4.1,6.6,10.9,4.6c1.6-0.4,3.2-0.6,5-0.2c-4.1,4.1-9.9,4.6-14.7,7c-5,2.4-10.2,4.7-15.2,7
	c-5.2,2.4-10.4,4.8-15.7,7.1c-5.1,2.2-10.2,4.4-15.2,7c9.9-3.1,19.7-6.3,29.6-9.3c29.6-9.2,59.9-15,90.3-21
	c16.2-3.2,32.2-7.2,48.4-10.7c2.9-0.6,5.8-0.8,8.7-1.3c3.5-0.6,5.2,0.8,6.4,4.3c9.4,28.2,18.5,56.5,28.9,84.3
	c7.1,19,14.3,38.2,26.4,55c0.2,0.2,0.3,0.4,0.4,0.7c2,3.5,4.1,7,6.3,10.8c-2.1,1.4-4.4,0.6-5.5-2c-5.6-13-14-24.3-20-37.2
	c-12.8-27.9-19.9-57.7-30.3-86.3c-2.9-8-6.2-15.9-9.1-23.9c-0.9-2.4-2.3-2.6-4.3-2.2c-10.7,2.1-21.4,4.1-32.1,6.4
	c-26.3,5.6-52.7,10.9-78.9,17c-28.2,6.5-55.8,15.2-82.7,25.9c-4.2,1.7-8,4.7-11.9,7c-1,0.6-2,1.1-3.8,2c1.7,5.6,3.1,11.6,5.4,17.1
	c9.1,21.5,18.4,42.8,27.9,64.1c1.2,2.8,3.4,5.4,5.6,7.5c8.4,7.8,17.5,14.6,24.1,24.3c3.1,4.5,8.4,7.4,12.2,11.4
	c4.6,4.8,8.8,10,12.9,15.2c1,1.2,1.2,3.1,1.9,5.3c6.6,1.8,14,2.9,21.4,1.1c17.2-4.3,34.4-8.5,51.4-13.5c21.9-6.6,43.6-14.2,65.5-21
	c10.4-3.3,21.1-5.7,31.6-8.7c7.3-2.1,14.5-4.5,21.8-6.7c1.2-0.4,2.6-0.3,3.9-0.5c0.2,0.4,0.3,0.9,0.5,1.3c-1.3,0.8-2.6,1.9-4,2.3
	c-10.2,3.1-20.4,6-30.6,9.2c-18.8,5.9-37.5,12.1-56.4,17.8c-22.2,6.7-44.5,13.1-66.8,19.3c-8.1,2.3-16.4,3.7-25.1,5.7
	c1,0.5,1.7,1,2.6,1.2c7.3,1.3,13.3,5.3,18.9,9.8c14.2,11.2,14.2,23.9,7.1,38.9c-3.6,7.7-10.1,12.9-18.6,15.3
	c-15.6,4.4-31.3,7.8-47.7,4.7c-6.1-1.2-11.8-3.3-16-8.3c-1.9-2.3-3.7-1.3-5.2,0.8c-5.3,7.3-10.3,14.9-16,21.9
	c-7.5,9.3-15.5,18.3-23.4,27.3c-6.1,6.9-12.3,13.7-18.8,20.2c-5.7,5.8-11.9,11-17.8,16.6c-5.4,5.2-10.6,10.5-15.9,15.7
	c-11.4,11.4-22.7,22.9-34.1,34.2c-1.1,1.1-3.1,1.8-4.6,1.7c-8.5-0.6-17-1.7-25.4-2.1c-9.8-0.5-19.7-1.2-29.5-0.7
	c-14.6,0.8-29.2,2.1-43.7,4c-7.2,0.9-14.3,3-19.5,6.2c-0.2,3.6-0.5,6.2-0.5,8.8c0.1,15.6,0,31.2,0.7,46.8c0.3,7.8,1.9,15.6,3.7,23.2
	c2.2,9.3,3.1,18.6,2.6,28.1c-0.2,4.5-2.7,6.2-6.9,5c-0.9-0.3-1.8-0.5-2.6-0.9c-11.3-5.8-22.3-3.4-33.1,1.6
	c-13.2,6.1-26.7,11.5-41.3,13.4c-8.3,1.1-16.8,0.7-25.1,1.2c-1.6,0.1-3.5,0.8-4.5,1.9c-8.2,9.5-17.5,17.5-28.2,24
	c-0.5,0.3-1,0.8-1.4,1.3c1.7,0.9,4.2,1.5,4.5,2.6c0.6,2.3,0.5,5,0,7.4c-2.2,10.6-4.7,21-7.1,31.6c-0.2,0.8-0.4,1.6-0.4,2.4
	c-0.2,8.7,0.4,7.4-7.9,9.7c-6.1,1.7-12.5,2.6-18.8,3.6c-0.9,0.1-1.9-0.7-2.9-1.1c0.9-0.6,1.7-1.6,2.6-1.9c6.9-1.5,13.8-2.8,20.6-4.5
	c1.2-0.3,2.6-1.8,2.9-3c2.7-12.3,5.1-24.8,7.8-37.1c1.2-5.7,1.3-5.7-4.5-6.2c-25.3-2.1-50.6-4.7-75.9-6.3
	c-17.8-1.1-35.7-1.4-53.6-1.1c-18.1,0.3-35.5-2.8-53-6.4c-8.4-1.7-17.3-1.6-25.9-2.4c-1.5-0.1-2.8-1.5-4.2-1.7
	c-10.5-1.8-11.6-0.6-12.9,10.2c-1.8,15.8-0.3,31.4,2.6,46.9c0.1,0.8,0.3,1.6,0.4,2.4c0.8,7.8,0.7,8.1,8.3,9.4
	c6.1,1.1,12.4,1.9,18.6,1.8c30.1-0.3,60.2-1.1,90.4-1.2c13.4,0,26.8,1.5,40.3,1.7c10.2,0.2,20.5-0.6,30.7-0.9c0.7,0,1.4,0.3,2.1,0.5
	c0.1,0.4,0.2,0.8,0.4,1.2c-1.7,0.6-3.5,1.8-5.2,1.8c-11.3,0.3-22.7,1.1-34,0.2c-30.2-2.3-60.4-1.1-90.7-0.9
	c-13.9,0.1-27.7,0.6-41.6,0.3c-5.6-0.1-11.3-1.7-16.8-3c-3.9-0.9-5.5-3.7-5.8-8c-0.8-9.3-3.1-18.5-3.3-27.7
	c-0.2-11.3,1-22.6,1.8-33.8c0.2-2.8,1.9-4.4,5.1-4.4c3.7,0,7.5-0.6,10.1-0.8c-1.9-6.9-4.1-14.5-6.4-22.8c-4.5,1.5-8.8,2.6-13,4.2
	c-9.8,3.8-19.9,6.4-30.4,5.6c-3.6-0.3-7.2-1.9-10.5-3.5c-6.2-3.2-12.2-6.6-18-10.3c-7-4.3-14.8-5.4-22.7-5.4c-8,0-15.9,1-23.9,1.6
	c-0.5,0-1,0.2-1.6,0.3c-7.1,0.9-9.2-1.2-6.3-7.6c2.7-6,5.9-12,10-17.1c18.6-23.3,30.1-49.9,37.1-78.5c1.8-7.4,1.5-15.3,2.2-23
	c0.5-5.5,1.5-11.1,1.7-16.6c0.1-2.4-0.6-5.8-2.3-7c-5.3-3.7-10.9-7.6-16.9-9.4c-20.8-6.1-41.7-12.7-63.4-14.3
	c-14.5-1.1-29-0.8-43.6-1.2c-2.5-0.1-5.2,0.5-7.6-0.2c-2.3-0.6-4.5-2.2-6.4-3.7c-3.3-2.8-6.3-6-9.6-8.8c-6-5.4-12.1-10.7-18.2-16
	c-9.6-8.2-19.1-16.6-28.9-24.5c-6.2-5-13.2-9-19.6-13.8c-8.2-6.1-17-10.9-27-13.5c-2.7-0.7-5.2-1.8-8-2.8c-0.2,0.4-0.4,0.7-0.5,1
	c-1,14.7-8.7,23.2-23.3,26.1c-15,3-27.5-2.6-39-11.3c-11.3-8.6-20.9-18.7-25.6-32.5c-6.9-20.4-2.5-46.3,16.9-57.9
	c2-1.2,4.2-2.2,7-3.6c-5.5-0.7-10.2-1.7-15-1.7c-12.5-0.1-25,0.4-37.5,0.4c-4.2,0-8.5-0.4-12.5-1.3c-1.2-0.3-2.8-2.8-2.8-4.3
	c0.2-14.9,1-29.8,1-44.7c-0.1-22.4,4.3-44.2,8.2-66.1c4.1-23.6,8.2-47.3,16.1-70c1.4-4.1,2.9-8.3,4.7-12.3c0.7-1.6,2.2-3,3.5-4.2
	c0.3-0.3,1.5,0,2.1,0.3c0.2,0.1,0.2,1.3-0.2,1.8c-6.7,8.9-9,19.7-11.4,30.1c-5.5,23.5-10.1,47.1-14.4,70.9
	c-2.5,14-3.8,28.2-5.2,42.4c-0.6,6.2,0.1,12.5-0.1,18.8c-0.2,10.1-0.5,20.2-1.2,30.3c-0.3,3.9,1,5.5,4.6,5.7c2.5,0.1,5.1,0,7.6-0.2
	c15.4-1.3,30.9-1.3,46.3,0.7c0.4,0.1,0.8,0.1,1.2,0.1c6.7,0.4,6.5,0.3,9.3-5.9c3-6.7,6.3-13.2,9.6-19.8c0.5-0.9,1.9-1.4,2.9-2.1
	c0,1.2,0.3,2.5-0.2,3.5c-3.2,6.9-6.6,13.7-9.8,20.5c-0.8,1.6-1,3.5-1.4,5.3c-0.1,0.4,0.1,1-0.1,1.2c-5.4,4.7,0.8,4.7,2.6,6.3
	c7,6.3,14.3,12.3,21.2,18.9c5.5,5.3,11.6,9.1,18.4,12.4c18.1,8.8,35.8,18.3,53.9,27.1c8.2,4,16.8,7.5,25.6,9.9
	c14.5,4,27.6,10.4,40.1,18.4c6,3.8,12,7.4,18,11.2c3.1,2,5.1,1.5,6.1-2.3c3.5-12.8,7.1-25.7,10.6-38.5c5.9-21.5,9.8-43.8,20.9-61.8
	c-9.9,34.8-20.2,71.3-30.9,108.6c3.3,3.3,8.2-0.6,11.9,0.7c0.8-3.7,1.4-7.2,2.3-10.6c1.8-6.8,3.5-13.7,5.6-20.4
	c5.2-16.3,10.7-32.6,15.8-48.9c6.7-21.4,14.3-42.4,22.8-63.1c1.9-4.6,1.2-8.2-2.1-11.6c-1.4-1.5-2.7-3.2-4.6-5.4
	c-3.6,12.2-5.2,24.5-14.1,33.9c1.9-5.4,3.9-10.6,5.6-16c2-6.7,3.8-13.6,5.6-20.4c0.3-1.3,0.1-2.9-0.1-4.3
	c-0.7-5.2-1.9-10.4-2.3-15.6c-0.4-5.8-0.9-6.4-6.4-8.5c-8.6-3.3-17-7-25.6-10.3c-6.3-2.4-12.8-4.6-19.3-6.6
	c-10.3-3.2-20.6-6.3-31-9.2c-13.7-3.9-27.4-7.7-41.2-11.5c-13-3.6-25.9-7.2-38.9-10.8C261.8,207.2,259.6,206.9,258.5,206.7z
	 M592,706.4c2.8,0.3,5.7,0.5,8.6,0.9c5.3,0.7,10.6,1.1,15.8,2.2c13.8,2.8,27.5,6.1,41.8,6.1c18.9,0,37.9,0.2,56.8,0.7
	c8.9,0.2,17.8,1.2,26.7,2c16.2,1.5,32.3,3.1,48.5,4.5c1.9,0.2,4.3,0,5.7-1.1c9.4-7.2,18.6-14.6,27.8-22c0.9-0.7,2.3-2.1,2.1-2.7
	c-1.3-4.1,1.5-4.3,4.1-5c1-0.3,1.8-1,2.6-1.8c15.1-14,28.4-29.6,40.4-46.3c8-11.2,14.5-23.4,23-34.1c11.4-14.4,24-27.8,36.1-41.6
	c0.5-0.6,1.3-0.9,1.9-1.4c7.4-5,15.8-7.1,24.4-8.2c14.3-1.8,28.6-2.9,43-3.8c8.4-0.5,16.8-0.3,25.2,0.2c9.6,0.6,19.1,1.8,28.6,2.6
	c1.2,0.1,2.8-0.6,3.7-1.5c13.5-13.6,26.9-27.3,40.5-40.9c10.6-10.6,21.6-20.9,32.3-31.5c19.6-19.3,37-40.4,52.5-63.2
	c2.3-3.4,6.4-3.9,9.1-0.7c4.7,5.5,10.9,7.4,17.6,8.3c16.3,2.3,31.9-1.1,47-6.6c13.8-5,21.6-26.8,14.4-38c-3.3-5.1-8-9.8-13.2-12.9
	c-7.4-4.5-15.8-7.5-23.8-11c-4.9-2.1-9.5-2.1-13,2.8c-0.8,1.2-2.1,2.1-3.2,3c-16.3,12.7-32.5,25.5-49,37.9
	c-11.3,8.5-23.2,16.2-34.3,24.9c-11.8,9.3-23,19.4-34.4,29.2c-12.1,10.3-24.1,20.6-36.3,30.7c-5.8,4.7-12.4,8.4-17.8,13.5
	c-4.4,4.2-9,4.9-14.2,3.6c-13.6-3.4-27.3-6.3-40.5-10.9c-29.1-10-58-20.6-86.8-31.3c-4.8-1.8-9.1-3.8-13.8,0.1
	c-1.1,0.9-2.7,1.1-4.1,1.6c-11.5,3.5-22.8,7.4-34.4,10.5c-18.1,4.9-36.5,9-54.6,13.9c-10.1,2.8-20.3,4.2-30.8,3.9
	c-14.3-0.4-28.6,0-42.9-1.3c-14.1-1.3-26.9-4.7-38.4-12.9c-2.7-1.9-5.3-4-8.4-5.1c-6.1-2.2-12.5-3.7-18.7-5.7
	c-17.8-5.6-36.5-9.6-50.1-24.1c-0.4-0.4-0.9-0.6-1.3-0.9c-6.5-5.1-13.1-10.1-19.3-15.5c-3.9-3.4-7.7-6.2-13.1-5.6
	c-0.7,0.1-1.5-0.7-2.2-1.1c0.7-0.6,1.4-1.6,2.2-1.7c4.1-0.4,8,0,11.3,2.8c10,8.3,20,16.7,30,25c1.7,1.4,3.5,3.1,5.5,3.9
	c10,4.1,19.9,8.3,30.1,11.9c8.4,2.9,17,5,26.5,7.8c-1.3-2.4-1.9-4.3-3.1-5.5c-10.7-10.9-21.6-21.7-32.4-32.6
	c-3.4-3.5-6.9-6.9-6.7-12.5c0-1.3-1.5-3.2-2.8-3.9c-3.8-1.8-7.8-3.5-11.9-4.6c-12.8-3.3-25.9-4.7-39.2-3.9
	c-3.8,0.2-7.5,1.5-11.2,2.7c-2.8,0.9-3.9,3.7-2.9,6.2c1.3,3.4-0.5,3.1-2.7,3.4c-8.6,1.2-17.2,2.1-25.7,3.9
	c-27.3,5.6-54.5,11.6-82.3,14.9c-12,1.4-24,3.7-35.8,6.3c-12.5,2.8-25,5.5-37.9,5.6c-3.6,0-6.7-0.2-9-3.6c-1-1.5-3.1-2.4-4.9-3.4
	c-3.5-2-7.3-3.5-10.4-5.8c-13.8-10.3-29-17.7-45.3-23.2c-9.3-3.2-18.7-6.4-27.5-10.6c-17.9-8.6-35.3-18.1-53.1-26.7
	c-7.6-3.6-14.5-7.7-20.4-13.7c-5.4-5.5-11.3-10.5-17.1-15.6c-7.2-6.3-14.4-6.7-21.3,1c-12.8,14.5-14.3,31-8.8,48.6
	c4.4,14.5,15,24.4,26.8,32.9c9,6.5,18.9,11,30.5,9.7c8.5-1,16-4.2,21.3-11.1c3.7-4.8,4-11.5,1.3-15.3c-0.7-1.1-0.9-2.5-1.3-3.8
	c1.5,0.2,3,0.1,4.4,0.6c4.7,1.8,9.5,3.6,14,5.7c7.4,3.5,15.1,6.8,22.1,11c8.4,5.1,16.6,10.7,24.2,16.9c10.4,8.5,20.1,17.7,30.2,26.6
	c4.7,4.1,9.6,8,14.3,12.1c3.7,3.2,7.5,6.3,10.9,9.7c2.2,2.2,4.2,3.6,7.5,3.4c7.6-0.3,15.2-0.2,22.8,0c10,0.3,20,0.5,29.9,1.4
	c20.1,2,39.3,8.3,58.8,13.4c8.2,2.1,15.3,6.3,21.3,12c6.1,5.8,11.8,12.2,17.6,18.3c1.9,2,3.9,4,5.5,6.3c5.7,8,11.3,16.1,16.8,24.3
	c3,4.5,6.2,9.1,8,14.2c5.4,15.9,10,32,15.1,47.9c1.6,4.9,3.6,9.7,5.5,14.5c1.9,4.9,4.5,9.7,5.6,14.9c1.9,8.1,2.7,16.5,4.3,24.7
	c1.1,5.5,0.8,11.6,6.3,15.4C591.5,703.8,591.5,705.2,592,706.4z M616.3,299.6c-6.5,1.9-11.5,3.4-16.6,4.9c-2.6,0.7-5.1,1.8-7.7,2.1
	c-1.6,0.2-3.3-0.8-5-1.3c0.5-1.6,0.6-3.3,1.5-4.6c1.1-1.6,2.7-3,4.2-4.3c11.1-9.5,22.4-18.9,33.5-28.5c0.8-0.7,1.4-2.6,1.1-3.5
	c-2.5-7.2-5.4-14.2-8-21.3c-0.9-2.4-2.2-2.9-4.5-2.4c-4,0.9-8.1,1.8-12.2,2.2c-1.6,0.1-3.3-1.4-5-2.1c1.2-1.6,2.3-3.2,3.7-4.6
	c0.6-0.6,1.8-0.4,2.7-0.7c3.4-1.1,6.8-2.2,11.1-3.6c-2.5-1.3-6.1-1.5-3.1-3.8c2.5-1.9,1.1-3,0.3-4.5c-2.6-5.2-5.3-10.4-7.8-15.6
	c-1.1-2.3-2.1-4.6-3.1-6.9c-1.5-3.6-4.4-3.6-7.3-2.4c-16.8,6.4-33.6,13-50.4,19.5c-7.8,3-15.5,6.3-23.5,8.9
	c-29.9,9.7-59.8,19.2-89.8,28.8c-0.9,0.3-1.7,0.7-2,0.8c0.4,3.6,0.5,6.9,1.2,10.1c0.8,3.8,0,8.1,3.4,11.2c0.2,0.2,0.4,0.8,0.3,1.1
	c-1.5,4.9,1.7,7.9,4.5,10.8c4.8,5.1,5.8,10.4,3,17.1c-5.1,12-9.6,24.3-14.2,36.5c-0.6,1.7-1.1,3.7-0.8,5.4c3,17.3,5.8,34.7,9.5,51.8
	c2.5,11.6,6.4,22.8,9.6,34.2c0.7,2.5,1.8,3.1,4.3,2.7c6.7-1.3,13.3-2.7,20.1-3.4c7.6-0.7,14.6-2.9,20.9-7.1c1.2-0.8,2.6-1.4,4-1.8
	c6.7-1.8,13.5-3,20-5.4c15.2-5.6,30.2-12.1,45.4-17.7c22.5-8.3,45.2-16.1,67.8-24.1c2.1-0.7,4.1-1.6,5.9-2.4c-2.3-9.3-4.5-18-6.7-27
	c-1.5,3.2-2.8,6.3-4.5,9.1c-0.8,1.3-2.3,2.2-3.5,3.2c-0.8-1.5-2.3-3.1-2.2-4.6c0.1-5.6,0.7-11.1,1.1-16.7c0.2-2.4,0.3-4.8,0.4-7.3
	c-1.9,1.1-3.1,1.7-4.3,2.4c-0.4-1.4-1.3-2.9-1.1-4.3c0.6-6.5,1.5-12.9,2.4-19.4C614.9,307.5,615.5,304.2,616.3,299.6z M1061.4,478
	c18.3-13.4,35.4-26.1,52.6-38.7c11-8,22-15.9,33.1-23.7c5.9-4.1,12-7.9,17.8-12.1c6.8-4.9,13.6-9.8,20.2-15.1
	c13.7-11,27.1-22.4,40.7-33.5c2.3-1.8,2.5-3.4,0.5-5.6c-6.2-6.4-12.3-12.9-18.4-19.3c-2-2.1-4.2-4-6.2-6.2
	c-4.8-5.1-9.3-10.5-14.3-15.5c-3.2-3.1-7-5.5-10.6-8.3c-5.6-4.3-10.8-9.1-16.7-12.8c-17.9-11-32.9-25.7-48.7-39.3
	c-1.7-1.5-4.6-2.8-6.7-2.5c-4.3,0.5-8.7,1.6-12.5,3.5c-8,3.9-15.9,8.1-23.5,12.9c-15.6,9.9-31,20.3-46.2,30.7
	c-2.2,1.5-3,4.8-5.1,6.5c-5.4,4.3-11.1,8.1-16.9,12c-2.2,1.5-4.8,2.3-7.1,3.7c-8.1,4.9-15.9,10.1-24.1,14.7
	c-6.1,3.5-7.4,6.7-3.9,12.6c1.1,2,2.4,3.9,3.4,5.9c12.5,25.8,28.7,49.2,46.2,71.8c1.3,1.6,3.5,2.4,5.2,3.8c0.7,0.6,1.9,1.9,1.8,2.1
	c-1.9,2.3,0.3,3.4,1.3,4.7c3,3.9,6.2,7.7,9.5,11.4c3.1,3.5,6.8,6.5,9.6,10.2C1049,460.6,1055.3,469.6,1061.4,478z M751.2,252.3
	c3.4,3.2,6.2,5.7,8.8,8.4c0.8,0.8,1.4,2.6,1,3.5c-0.3,0.9-2,1.7-3.1,1.8c-3.2,0.1-6.4,0.1-9.6-0.3c-12.1-1.8-24.1-4-36.2-5.7
	c-7-1-14.2-1.3-21.6-2c3.1,6.6,2.5,7.4-4.4,7.4c-6.4,0-12.7,0-19.3,0c0.1,1.9,0.2,3.2,0.2,4.5c0.3,8-0.8,9.1-8.6,7.3
	c-3.6-0.8-7-2.9-10.8-4.5c-0.4,1-0.9,1.9-1.3,2.8c-1.6,5-3.3,10.1-4.8,15.1c-1.3,4.3-2.6,8.6-3.5,13c-2,9.2-3.4,18.6-5.7,27.7
	c-1.5,5.9-3.3,11.3-2.2,17.8c2.5,14.2,5.8,27.9,14.1,40c8.4,12.2,18.9,22,32,28.9c7.2,3.8,15.1,6.4,22.7,9.5
	c6.4,2.6,12.6,6.8,19.2,7.6c20.5,2.7,41.2,3.6,61.6-0.3c13.4-2.6,26.4-7.2,35.8-17.9c10.1-11.5,19.5-23.6,25-38.2
	c2.3-6.2,4.8-12.4,7.7-18.4c4.3-9.1,4.4-18.1,1.6-27.6c-1.4-4.8-2.3-9.8-2.7-14.8c-0.5-5.4-0.1-10.8-0.1-16.6
	c-3.8,1.4-5-0.3-5.6-3.1c-0.2-1.2-0.4-2.4-1-3.4c-4.1-7.1-8.2-14.3-12.6-21.2c-1-1.5-2.9-2.5-4.6-3.5c-2.1-1.2-4.4-1.8-6.5-2.9
	c-5.7-3-11.3-6.1-17-9.2c-0.5,1.6-0.4,2.3-0.2,3c1.5,5,0.5,6.3-4.5,5.6c-4.2-0.6-8.5-1.2-12.5-2.6
	C772.3,260.5,762.3,256.5,751.2,252.3z M923.5,124c-0.8,0.6-2.6,1.5-3.8,3c-4.3,5.5-8.2,11.2-12.5,16.6
	c-18.2,23-36.6,45.8-54.9,68.7c-0.9,1.1-1.6,2.3-3.1,4.4c3.4,0,5.7-0.1,8.1,0c4.8,0.3,9.5,0.7,14.3,1.4c2.9,0.4,3.9,2.4,4.2,5.4
	c0.4,6-3.3,9.1-7.2,12.6c-3.5,3.1-3.1,4.2,1.1,5.9c6.2,2.5,12.5,4.7,18.5,7.5c2,0.9,3.4,3.2,5,4.9c-1.9,1.1-3.9,2.3-5.8,3.4
	c-0.1,0.1-0.3,0-0.4,0c-7.2,1.8-14.4,3.6-21.5,5.4c-0.2,0.4-0.3,0.8-0.5,1.3c5,4.9,10.1,9.7,15.1,14.7c3.5,3.5,7.8,6.5,10,10.7
	c2,3.7,4.5,6.2,7.7,8.2c4.5,2.8,9.3,5.2,14,7.7c9.2,4.8,18.4,9.7,27.7,14.2c4.1,2,8.6,3.4,13,4.9c5.7,2,9.9,0.6,13.7-4.6
	c5.7-7.7,13.2-14.1,18.4-22c5.3-8.1,11.9-15,17.5-22.9c15.2-21.6,32.3-42,48.6-62.9c2.9-3.6,5.9-7.1,9.1-10.9
	c-2.1-2-3.6-4.4-5.7-5.1c-18.1-6-34.8-14.6-50.9-24.8c-16.5-10.5-32.9-21.2-50.8-29.5c-6.9-3.2-13.4-7.1-19.9-11
	C929.6,129.6,927.1,126.9,923.5,124z M862.6,434.7c0.4-1,0.7-1.5,0.9-2c7.7-26.7,12.8-53.9,14.7-81.6c0.5-7.5,2.2-15,3.5-22.5
	c0.2-1,1.6-1.8,2.4-2.7c0.2,1.1,0.7,2.3,0.6,3.3c-1,6.6-2.6,13.1-3.1,19.7c-2.1,25.8-5.5,51.4-12.8,76.3c-1,3.3-1.7,6.6-2.7,10.5
	c7.3,1.7,14.2,3.2,21,4.8c6.3,1.5,12.1,8.3,13.1,14.5c0.2,1.5,1.9,3.5,3.4,4c21.5,8.2,43,16.8,64.8,24.1
	c21.2,7.1,42.8,12.9,64.3,18.9c3,0.8,7.2,0.9,9.5-0.6c6.9-4.4,13.3-9.8,19.8-14.8c0.8-0.6,1.5-1.5,1.5-1.5c-1.5-2.2-2.5-3.7-3.4-5.2
	c-1-1.6-1.6-3.4-2.8-4.8c-3.3-3.6-6.8-7-10.1-10.5c-1.3-1.4-2.4-3-4.2-5.1c-0.3,2-0.6,3-0.7,4c-1.1,11.4-2.3,22.8-3.5,34.2
	c-0.1,0.9-0.9,1.7-1.4,2.5c-0.6-0.9-1.6-1.7-1.6-2.6c-0.1-2.5,0.1-5.1,0.3-7.6c1.1-10.5,2.4-20.9,3.5-31.4c0.1-1.4,0.1-3.2-0.7-4.2
	c-7.3-9-14.7-17.8-22.4-27.2c-1,1.6-1.9,2.7-2.3,4c-0.5,1.5-0.3,3.2-0.7,4.7c-0.4,1.6-1,3.2-1.6,4.7c-0.7-1.5-1.7-3-2.1-4.6
	c-0.6-2.7-1-5.5-1.3-8.3c-0.1-1.6,0.2-3.2,0.4-4.8c0.9,1.2,1.8,2.4,2.7,3.6c0.1,0.2,0.4,0.3,0.6,0.4c2.8-1.5,1.8-3,0.4-5.1
	c-11.1-15.6-22.5-31.1-32.9-47.2c-7.2-11.2-13-23.3-19.3-35c-2.1-3.9-4.8-6.5-9.7-5.9c-3.2,0.4-6.4,0-9.6,0
	c-18.5,0.1-35.9-5.8-53.8-9.2c-1.4-0.3-2.6-1.4-4-2.2c0.2-0.5,0.4-1.1,0.6-1.6c24,4.8,47.6,12.2,72.6,9.2c-0.8-0.9-1.8-1.4-2.9-1.8
	c-5.8-2.2-11.8-4-17.4-6.6c-7.4-3.4-14.3-7.6-21.7-11.1c-8.9-4.2-17.8-8.5-25.3-15.1c-1.3-1.1-3.3-1.6-5-2c-4.7-1.1-9.4-1.9-14-2.9
	c-2.5-0.6-5-1.4-7.7-2.1c0,2.1-0.3,3.8,0,5.3c1.5,7.4,2.9,14.9,4.9,22.2c1.9,7,3.3,13.9,3,21.2c-0.8,17.9-3.7,35.5-7.5,52.9
	c-0.2,1-1.4,1.7-2.1,2.6c-0.7-1-1.8-2-1.9-3.1c-1.4-10.7-2.6-21.4-3.9-32.1c-0.1-1.2-0.2-2.4-0.3-3.5
	c-10.8,27.3-22.1,53.7-45.2,73.2C827.8,425.8,845,430.6,862.6,434.7z M619.2,354c0.4,0.1,0.8,0.1,1.1,0.2c1.9-7.3,6.9-13.1,8.3-20.7
	c1.6-9.4,4.5-18.6,5.9-28.1c1-7,2.9-13.4,5.9-19.8c1.3-2.9,2.1-6,2.6-9.2c1.3-7.6,3.8-8.9,10.4-4.8c3.1,2,6.3,3.3,10.2,2.5
	c0-2.6,0.4-5.1-0.1-7.3c-0.9-3.7,0.8-4.5,3.9-4.5c4.3,0,8.5,0,12.8,0c2.7,0,5.4,0,9,0c-1.4-1.5-1.8-2.1-2.4-2.6
	c-0.6-0.5-1.4-0.8-2-1.4c-0.9-0.8-1.7-1.7-2.5-2.6c1.3-0.4,2.6-1.3,3.8-1.2c20.3,1.6,40.7,2.3,60.6,7.4c3.2,0.8,6.6,0.6,10.9,0.9
	c-1.2-1.5-1.6-2-2.1-2.4c-3.7-3.1-7.4-6.1-11-9.3c-1-0.9-1.5-2.5-2.3-3.7c1.4-0.1,2.9-0.6,4.3-0.3c2.5,0.5,4.8,1.5,7.2,2.4
	c10.4,4,20.8,8.3,31.3,12c3.6,1.3,7.6,1.5,12.2,2.3c-0.9-2.5-1.6-3.8-2-5.2c-0.4-1.4-0.5-3-0.7-4.5c1.6,0.2,3.4-0.1,4.8,0.5
	c9.3,4.3,18.5,8.8,27.6,13.3c1,0.5,2.1,1.4,2.7,2.3c3.6,5.8,7,11.6,10.5,17.4c1.3,2.1,2.5,4.3,3.7,6.4c0.8-2.2,0.6-4.1,0.9-6
	c0.2-1.2,1.1-2.3,1.7-3.5c0.7,1.1,1.9,2.3,1.9,3.4c0.7,10.1,1.2,20.2,1.8,30.3c0.2,2.8,0.2,5.6,1,8.3c0.6,2.1,2.2,4,3.9,6.9
	c1.8,14.8,3.8,31,5.9,48.1c0.7-1.3,1-1.6,1.1-1.9c1.6-11.2,3.6-22.4,4.7-33.6c0.7-7.1,0.8-14.4-0.3-21.4c-2-12.3-5-24.5-7.7-36.7
	c-0.6-2.5,0.4-3.4,2.6-3.1c2,0.2,3.9,0.9,5.8,1.4c5.2,1.3,10.3,2.7,15.4,4c0.1-0.4,0.3-0.7,0.4-1.1c-6.4-7.3-13.6-13.9-19.1-21.9
	c-2.6-3.9-3-5.6,1.5-6.9c6.5-2,13.1-3.5,19.7-5.3c1.4-0.4,2.8-0.6,4.2-1c-7.5-3.9-14.9-6.9-22.3-9.8c-3.9-1.5-5.1-4.3-2.7-7.8
	c1.4-2.1,3.3-3.9,5.2-5.4c2.9-2.3,4-5.5,2.7-8.5c-0.6-1.5-4-2.3-6.1-2.4c-9-0.4-18.1-0.5-27.1-0.7c-5.4-0.1-7.3-2.6-4.6-7.3
	c2.7-4.6,5.9-8.8,9.1-13.1c3.7-4.9,7.6-9.5,11.4-14.3c-2.3,0-4.3,0.7-6.3,1.3c-12.5,3.8-24.9,7.7-37.4,11.4
	c-5.6,1.6-6.9,0.2-5.1-5.6c0.6-1.9,1.3-3.8,2.3-5.5c2.5-4.4,5.5-8.5,7.7-13.1c1.6-3.3,2.4-7,3.6-10.5c-0.4-0.2-0.9-0.5-1.3-0.7
	c-1.8,0.8-3.6,1.6-5.3,2.5c-18.1,9.3-36.2,18.6-54.4,27.8c-1,0.5-2.3,0.4-3.5,0.6c0.4-1.4,0.4-3.2,1.3-4.1
	c8.3-9.1,16.9-17.8,27.4-24.4c1.8-1.2,3.5-2.5,5.3-3.7c-0.1-0.3-0.3-0.6-0.4-0.9c-4.6,1.4-9.3,2.4-13.6,4.2
	c-26.5,10.8-52.9,21.6-79.2,32.9c-3.6,1.5-5.2,1.7-6.4-1.9c-9.4,3.5-14.4,11-19.2,18.7c-1,1.7-2.5,3.7-4.2,4.2
	c-14.9,5-29.9,9.7-44.8,14.6c-0.9,0.3-1.6,1.3-2.4,2c1.1,0.3,2.2,1.1,3.3,1c4-0.4,7.9-1.3,11.9-1.6c3.9-0.3,5.5,1.1,4.8,4.8
	c-0.5,2.5-1.6,5.1-3.1,7.2c-3.4,4.8-4,10.3-4.5,15.9c-0.1,0.9,0.7,2.2,1.5,2.7c2.1,1.4,2,2.2-0.3,3.2c-1.9,0.9-3.9,1.7-5.5,3.1
	c-11.4,9.6-22.7,19.3-34.1,29c-0.9,0.7-1.5,1.7-2.3,2.6c2.5,0.2,4.6-0.3,6.7-0.9c5.6-1.6,11.3-3.1,16.9-4.8c3.5-1.1,5,0.5,4.7,3.7
	c-0.4,4.2-1.2,8.4-1.9,12.6c-0.7,4.7-1.5,9.3-2.3,14.4c3-0.9,5.5-2,5.4,2c-0.3,5.7-0.7,11.5-1,17.2
	C619.1,349.3,619.2,351.7,619.2,354z M348.7,184.9c0.3,0,0.6,0,1,0c-1,1.7-2.6,3.2-3,5c-2.7,10.2-5,20.4-7.7,30.6
	c-0.9,3.5,0,4.8,3.4,5.8c26.1,8,52.6,14.8,77.4,26.5c2,0.9,4.8,0.9,6.9,0.3c10.1-2.8,20.2-5.8,30.3-9c22.6-7.3,45-14.9,67.6-22.2
	c2.9-0.9,4.2-2.2,3.7-5.4c-0.6-3.8-1.1-7.7-1.1-11.5c0.1-15.8,0.4-31.5,0.7-47.9c-0.7,0-2.2-0.1-3.8,0c-21.2,0.8-42.4,1.4-63.5,2.5
	c-18.5,0.9-37,2.3-55.4,3.6c-15.1,1.1-30.3,2.5-45.4,3.3c-8.7,0.5-8.8,0.1-10.3,8.7C349,178.5,348.9,181.7,348.7,184.9z
	 M578.1,678.7c0.2-11.3-3-20.7-6.9-30.1c-4.3-10.4-8.4-21-11.6-31.8c-4-13.8-6.2-28.1-14.6-40.2c-5.1-7.4-9.5-15.4-15-22.5
	c-6.4-8.1-13.6-15.6-20.6-23.3c-0.6-0.7-1.5-1.1-2.9-1.9c-0.5,5.7-1.3,10.8-1.3,15.8c0.4,30.5-10.5,57.7-25,83.6
	c-5.7,10.2-13.5,19.2-19.9,29c-2.5,3.8-4.1,8.3-6.2,12.5c0.4,0.3,0.7,0.6,1.1,0.9c1.9-0.2,3.9-0.3,5.8-0.6c19.1-3,37.7-3.2,54.6,8.3
	c3.1,2.1,6.5,3.6,9.6,5.7c5.8,3.8,12.1,5.1,18.7,3.5C555.7,684.9,567.1,681.7,578.1,678.7z M836.2,691.4c6.5,0,12.6,0.3,18.7-0.1
	c5.3-0.4,10.7-0.9,15.7-2.5c10.5-3.5,20.5-8.1,31-11.5c6.8-2.2,13.9-3.8,21-4.1c4.6-0.2,9.4,2.3,14.1,3.8c2.7,0.9,3.8,0.4,4-2.7
	c0.5-9-0.1-17.8-2.6-26.5c-2.9-10.1-4.1-20.3-3.9-30.8c0.1-12.1,0-24.3-0.1-36.4c0-2.6-0.4-5.2-0.7-8.3c-4.6,4.8-8.5,9.3-12.9,13.4
	c-12.4,11.7-22.7,25.2-31.5,39.6c-14.2,23.5-31.1,44.8-50.8,63.9C837.4,689.8,836.8,690.7,836.2,691.4z M780.1,438.3
	c-5,0.6-9,1.5-13.1,1.6c-13.1,0.1-26.1-0.1-39.2-0.3c-9.1-0.1-17.6-2.3-25.6-6.8c-3.1-1.7-6.4-3.2-9.5-4.7
	c-6.7,9.8-10.3,20.3-12.6,31.3c-0.3,1.5-0.5,3.6,0.3,4.6c2.9,3.6,5.8,7.4,9.4,10.1c3.8,2.7,8.6,3.9,12.7,6.3
	c10.5,6,22.1,6.7,33.5,5.9c8.8-0.6,17.6-3.2,26-6c6.9-2.3,13.6-5.7,16.7-13.2C782.5,457.8,779.8,448.3,780.1,438.3z M752.9,489.3
	c10.3,0,21.2,0.9,31.8-0.3c8.9-1,17.6-4.2,26.3-6.5c23.1-6.2,46.3-12.3,69.4-18.7c4.7-1.3,9.2-3.3,13.8-5.2c2.9-1.2,3.8-4.3,2.1-6.3
	c-2.8-3.3-6.1-7.4-9.9-8.5c-15.2-4.3-30.7-7.6-46.2-11c-8.9-2-18-3.3-27.2-2.1c-3,13.5-3,13.5-9.7,20c-9.1,8.8-18,17.7-27.1,26.5
	c-1.7,1.7-3.4,3.5-5.5,4.5C764.6,484.5,758.5,487,752.9,489.3z M1066.5,196c-4.8-10.2-9.1-19.7-13.9-29.1c-1.2-2.4-3.5-4.8-5.9-6.1
	c-18.5-10-37.1-19.8-55.6-29.6c-2.6-1.4-5.3-2.5-8-3.5c-1.6-0.6-3.4-1-5-1c-16.5,0.2-32.9,0.2-49.4-2.5c2.1,2,4.3,4,6.8,5.3
	c13.2,7.1,26.8,13.7,39.8,21.2c16.2,9.4,31.7,20.2,48.2,29.1c12.2,6.6,25.6,11.2,38.5,16.5C1063,196.8,1064.4,196.2,1066.5,196z
	 M680.4,424.6c-20.2-10.6-35.8-25.7-46.6-46.5c-29.5,11-58.7,21.8-87.8,32.9c-16.9,6.5-33.5,13.8-51.4,17.2
	c-0.7,0.1-1.3,0.7-2.9,1.5c1.7,0,2.2,0.1,2.7,0c23-4.2,46.1-8.4,69.1-12.8c0.9-0.2,2.2-1.3,2.3-2.1c0.5-5.8,4.7-7.7,9.4-8.9
	c10.5-2.7,21.3-1.7,31.8-0.3c8.4,1.1,16.6,4.3,24.9,6.4c4.8,1.2,8.4,3.2,8.9,8.5C654.5,417.7,667.5,420.8,680.4,424.6z
	 M1066.8,198.8c-1,0.7-2.1,1.3-2.8,2.2c-1.4,1.9-2.5,4-4,5.9c-16.6,20.8-33.4,41.5-49.8,62.5c-9,11.5-17.3,23.7-26,35.4
	c-2,2.7-4.9,4.8-7.2,7.4c-3.4,3.8-6.7,7.8-10,11.7c-0.6,0.7-1.2,1.4-1.9,2.1c0.2,0.3,0.4,0.6,0.6,0.8c1.2-0.6,2.5-1,3.6-1.8
	c2.7-2,5.2-4.6,8.1-6.3c9.8-5.9,19.9-11.3,29.5-17.4c4.1-2.6,8.1-5.8,10.8-9.7c6.3-8.9,11.7-18.4,17.5-27.6
	c10.6-16.7,21.1-33.6,32.1-50.1C1070.9,208.4,1070.3,204,1066.8,198.8z M422.3,354.4c-2.5,7-4.8,14.1-7.4,21
	c-2.9,7.8-0.4,15.5,0.5,23.1c0.9,8.2,3.8,16.2,5.4,24.4c1.1,5.9,1.5,12,2.2,18.5c6.4-1,12.7-2.1,19.6-3.2
	C433.6,410.5,429.2,382.3,422.3,354.4z M313.4,157.4c-0.4,0.1-0.9,0.1-1.3,0.2c-3.4,15.7-7,31.4-10.2,47.1c-2,9.7-1.7,9.8,7.9,12.5
	c5.5,1.6,11.1,3,17,4.5c0.3-5.7,0.8-10.8,0.7-15.8c-0.2-12.6,1.6-25.6-7.3-36.4c-1.5-1.8-2.3-4.2-3.4-6.3
	C315.6,161.2,314.5,159.3,313.4,157.4z M1171,290.8c-0.3-1.2-0.3-1.8-0.5-2.2c-8.2-19.1-16.7-38-24.6-57.2c-2.9-7-4.7-14.4-6.8-21.7
	c-0.3-1.1,0.9-3.9,1.1-3.9c4.4,0.7,5.4-3.8,8.3-5.3c-3.8,1-7.4,2.3-10.9,3.9c-0.8,0.4-1.5,1.6-1.8,2.6c-1.4,5.8-2.5,11.7-3.8,17.5
	c-0.5,2.4-0.7,4.3,0.3,7c3.3,9.4,5.1,19.3,8.4,28.7c2,5.7,4.5,11.9,8.7,15.8C1155.5,281.9,1163.3,285.7,1171,290.8z M427.4,133.7
	c-22.3,9.5-44.7,19-67.1,28.5c0.1,0.4,0.3,0.7,0.4,1.1c0.5,0,1,0.2,1.5,0.1c20-1.5,40.1-2.9,60.1-4.5c1-0.1,2.1-0.5,2.8-1.2
	c3.7-3.2,7.3-6.6,10.9-9.9C433.3,143.3,430.5,138.8,427.4,133.7z M642.1,423.5c-0.3,0.5-0.6,1.1-0.9,1.6
	c11.6,11.8,23.3,23.6,34.6,35.1c3.6-10.1,7.2-20.2,10.7-30.3C672.2,426,657.8,420.3,642.1,423.5z M394.5,447.5
	c7.5-1.4,14.1-2.7,20.8-3.9c2.9-0.5,4.2-1.7,3.8-4.7c-1.7-12.1-3.4-24.2-5-36.3c-0.3-2.3-1.4-3.3-3.8-3.6c-2.8-0.3-3.1,1.5-3.6,3.3
	c-3.6,12.9-7.2,25.9-10.7,38.8C395.4,442.9,395.1,444.7,394.5,447.5z M783.1,464.3c6.5-5.8,12-11.2,18-15.9c5-4,6.8-9.2,7.9-15
	c0.1-0.7-0.5-2.2-0.8-2.2c-2.4-0.2-5-0.7-7.3,0c-5.1,1.5-9.9,3.7-15,5.3c-2.2,0.7-2.8,1.8-2.8,4
	C783.2,448.1,783.1,455.7,783.1,464.3z M343,191.3c-4.5-2.2-7.2-7.4-13-6.7c0,12.5,0,25.1,0,37.9c1.3,0.3,3,0.8,4.9,1.3
	C337.6,212.9,340.3,202.3,343,191.3z M330.2,177.5c-0.2,0.5-0.3,1-0.5,1.5c4.3,2.6,8.7,5.3,14,8.5c1.3-6.2,2.5-12,3.9-18.8
	C341.2,171.9,335.7,174.7,330.2,177.5z M1049.2,248.5c0.3,0.4,0.7,0.8,1,1.2c2.8-2.2,6.6-3.8,8.3-6.7c4.8-8.2,8.8-16.9,13.1-25.5
	c0.7-1.4,0.9-3,1.3-4.5c-0.4-0.1-0.7-0.2-1.1-0.4C1064.3,224.6,1056.8,236.5,1049.2,248.5z M636,238c-0.3-0.4-0.6-0.8-0.9-1.2
	c-4.6,0.8-9.2,1.5-14.1,2.4c2.5,6.4,4.7,12.1,6.7,17.5C630.6,250.4,633.3,244.2,636,238z M1101.8,453.1c-0.3-0.4-0.6-0.7-0.9-1.1
	c-12,9.3-23.9,18.7-35.9,28c0.4,0.6,0.7,1.2,1.1,1.8c1.3-0.6,2.7-0.8,3.8-1.7c4-3.3,7.7-6.9,11.7-10.3
	C1088.2,464.2,1095,458.7,1101.8,453.1z M615.9,237.1c-0.2-0.6-0.3-1.3-0.5-1.9c-4.4,1.3-8.8,2.6-13.2,4c0.1,0.3,0.1,0.5,0.2,0.8
	C606.9,238.9,611.4,238,615.9,237.1z"/>
<path d="M569.8,922c-2.9-4.4-6.2-8.7-8.5-13.4c-4.2-8.5-7.8-17.2-11.8-25.8c-0.5-1-2-1.4-3.7-2.6c8.5-12.2,17.4-24,29.2-33.9
	c12-10,25.2-16.7,40.9-19.4c-0.5-0.9-0.9-1.8-1.5-2.6c-8.2-11.2-16.4-22.3-24.5-33.6c-0.8-1-1.4-2.4-1.5-3.6c0-1.1,0.8-2.2,1.3-3.4
	c0.5,0.9,1.1,1.8,1.6,2.7c0.5,0.9,0.8,2,1.5,2.8c11,14.9,22,29.8,33,44.7c0.9,1.3,1.6,2.8,2,4.3c1.4,4.8,4.7,6.9,9.5,6.8
	c8.1-0.1,16.2-0.2,24.4-0.3c15.5-0.2,30.9-0.4,46.4-0.8c4-0.1,8-0.4,11.9-1.2c6.4-1.3,11.6-5,15.6-9.9c8.9-11.1,17.4-22.5,25.9-34
	c3.8-5.1,7-10.6,10.7-15.8c0.6-0.8,2-1.1,3.1-1.6c-0.2,1.2-0.1,2.6-0.7,3.5c-6.9,9.9-13.9,19.8-20.9,29.6c-2,2.9-1.6,5.9,0.8,7.9
	c5.4,4.7,11.2,9,16.9,13.3c9.4,7,19.2,13.4,26.8,22.5c3.8,4.5,8.9,8,13.2,12.2c3.8,3.8,7.6,7.7,10.8,12c3.7,4.9,3.4,10.5,1.4,16
	c-3.2,8.9-6.5,17.7-9.8,26.5c7.7,5.4,15.4,9.7,24.9,8.7c4.6-0.5,7.8-1.9,10-6.8c5.7-12.9,12.3-25.4,18.3-38.2
	c2.8-5.9,5.1-12,7.3-18.1c0.5-1.3,0-3.6-0.9-4.6c-2.3-2.4-4.9-4.5-7.7-6.3c-12.3-7.9-25.1-15.2-36.9-23.8
	c-8-5.8-14.7-13.4-21.8-20.4c-5.6-5.5-11.1-11.2-16.1-17.2c-3.3-3.9-5.6-8.7-8.1-13.2c-0.4-0.7,0.3-2,0.4-3.1c0.8,0.6,1.9,1,2.2,1.8
	c3.2,8.5,9.5,14.7,16,20.7c1.5,1.4,3.9,2.5,5.9,2.5c49.2-0.7,98.4-1.8,147.6-2.2c47.6-0.4,95.2-0.6,142.8-0.2
	c47.9,0.4,95.7,1.3,143.6,2.3c27.4,0.6,54.9,1.9,82.3,2.9c1.6,0.1,3.3,0.3,4.8,1.3c-43.4,0.8-86.7-2.6-130-3.1
	c-43.5-0.4-86.9-1.2-130.4-1.4c-43.6-0.2-87.2,0.1-130.8,0.4c-43.4,0.4-86.8,1.2-131.2,1.8c1.3,1.9,1.7,2.7,2.2,3.4
	c12,13.5,25.4,25.4,41.5,34.1c6.9,3.7,13.5,8,20.1,12.3c2.3,1.5,4.3,3.6,6.3,5.6c2.1,2.2,2.7,4.7,1.3,7.7
	c-7.4,15.9-14.7,31.9-22.1,47.9c-5.6,11.9-11.3,23.7-17.4,36.3c11-4,21.2-1.9,31.2,0.9c14.5,4.1,25.3,12.9,29.4,27.7
	c1.5,5.4,0.9,11.6,0.1,17.3c-0.4,2.5-3.2,5.2-5.6,6.8c-7.8,5.3-16.7,8.4-26.1,9.2c-14.7,1.3-29.1,0.6-42.7-7
	c-8-4.5-16.9-7.3-23.5-14.1c-6.1-6.3-8.6-14.4-5.3-22.1c6.8-16,8.5-33.4,15.2-49.4c3.5-8.4,5.5-17.3,9.3-25.5
	c4.1-9,1.4-16.7-5.1-21.9c-14-11.3-25-25.9-40.1-35.9c-4-2.6-8.1-5.1-11.9-8.1c-4.8-3.7-9.2-7.8-14.1-12c-1.5,1.8-4,4.1-5.7,6.8
	c-9.1,14.5-22.8,19.2-39,18.8c-3.3-0.1-6.7,0-10,0c-18.3,0.3-36.5,0.6-54.8,0.8c-7.3,0.1-11.5-1.8-14.9-9.8
	c-3.6-8.5-5.8-9.3-14.5-7.2c-22.4,5.6-38.4,20-52.1,37.6c-0.9,1.2-1.7,2.5-2.7,3.4c-4.1,3.8-3.3,8-1.3,12.3
	c3.2,7.2,6.3,14.4,9.9,21.4c3.3,6.5,7.6,12.5,10.8,19.1c3.6,7.5,6.5,15.4,9.8,23.1c1.1,2.5,2.7,4.8,4.2,7.2c0.4,0.7,1.3,1.2,1.4,1.9
	c0.2,1.5,0.1,3.1,0.1,4.7c-0.9-0.9-1.9-1.7-2.6-2.7c-1.5-2-3-4.1-4.4-6.1c-7.7,4.2-10.8,4.7-20,3.5c-0.5,1-1,2-1.7,3.6
	c-3.6-6.9-8.8-3.9-13.1-2.3c-16.3,5.7-29.6,15.8-38.7,30.6c-5.9,9.6-3.6,14.4,7.2,18.1c10.6,3.6,21.5,2.5,32.5,1.9
	c14.9-0.7,26.4-7.9,35.8-18.6c2.9-3.3,3.9-8.5,5.2-13c0.7-2.2,0-4.8,0.2-7.2c0.1-1.3,0.9-2.5,1.4-3.8c0.6,0.1,1.1,0.2,1.7,0.3
	c0,3.5,0.2,7-0.1,10.4c-0.6,7-2.8,13.3-8.4,17.9c-1.8,1.4-3.6,2.8-5.1,4.5c-8.3,8.9-19.2,11.4-30.7,12.5c-10.1,1-20.3,2-30.2-1.1
	c-4.7-1.5-9.1-4.1-13.3-6.9c-3-2-3.8-5.5-2.2-9c1.8-4.1,3.2-8.7,6-12.1c10.6-12.9,23.1-23.6,39.7-28.2c2.9-0.8,5.9-1.1,9.5-1.8
	c-2.2-2.5-4.1-4.9-6.2-7c-9.4-9.5-18.7-18.9-28.2-28.2c-10.2-10-20.6-19.7-30.8-29.7c-5.5-5.4-5.3-13.4-0.1-19.3
	c7-8,15.4-14.2,23.4-21.1c9.4-8,17.9-17,26.8-25.7c0.2-0.2,0.3-0.7,0.5-1.4c-1.2-0.1-2.2-0.3-3.1-0.3c-31.7,1.5-63.4,3-95,4.6
	c-30.7,1.6-61.5,3.7-92.2,5c-43.7,1.8-87.4,3.5-131.1,4.5c-24.6,0.6-49.3-0.4-74-0.6c-0.9,0-1.7-0.4-2.6-0.6c0-0.4-0.1-0.7-0.1-1.1
	c1.7-0.2,3.3-0.7,5-0.6c15.9,0.3,31.7,1.3,47.6,1c43.4-0.9,86.9-2.1,130.3-3.7c30.1-1.1,60.1-3,90.2-4.6c22.6-1.2,45.3-2.2,67.9-3.4
	c19.2-1,38.3-2,57.5-3.1c1.5-0.1,3.3-0.6,4.3-1.6c7.8-7.6,15.6-15.3,23.1-23.3c2.5-2.7,4.1-6.2,6.2-9.2c0.5-0.7,1.4-1.2,2.2-1.8
	c0.3,0.9,1,2.1,0.7,2.7c-1.3,2.7-2.5,5.7-4.6,7.9c-8.3,8.9-16.8,17.5-25.2,26.2c-4.4,4.6-8.9,9.2-13.1,14
	c-8.7,10.1-19.4,17.8-29.8,26c-4.8,3.8-9,8.3-13,13c-4,4.7-3.6,10.4,0.8,14.6c14.6,14,29.4,27.8,44,41.8c2.3,2.2,4.8,3.4,7.9,2.8
	c5-0.9,10-1.5,14.8-3.1C565.4,926.5,567.5,923.9,569.8,922c-0.3,5.3-3.3,8.2-8.3,9.2c-4.9,1-9.8,1.9-15,3c1.1,1.2,2.1,2.3,3.1,3.3
	c3.6,4.1,7.8,7.8,10.7,12.3c2.9,4.4,6.7,5,11,4.4c2.7-0.4,5.4-1.5,7.8-2.7c1-0.5,1.9-2.6,1.6-3.6c-1.3-4.3-3.1-8.5-4.8-12.6
	C574,930.8,571.8,926.5,569.8,922z M804.8,954.7c-1.4,8-2.4,15-6.5,21.1c-0.9,1.4-0.8,3.6-0.7,5.5c0.2,9.2,5.6,15.1,12.9,19.3
	c16.4,9.4,33.5,17,53.2,14.8c9.8-1.1,19.1-3.7,27.4-9c2-1.3,4.5-3.5,4.7-5.5c0.5-5.3,0.9-11-0.6-16.1c-6.8-24.1-40.2-31.9-59.2-25.1
	C825.4,963.5,814.5,965.5,804.8,954.7z M805.5,951.9c1.6,1.2,2.9,2.1,4.1,3.2c5.2,4.6,16.4,6,22.5,2.7c0.7-0.4,1.5-0.8,1.8-1.5
	c3.3-6.4,6.5-12.9,10-20c-12.1,2.5-21.9-0.7-30.8-8.1c-0.5,1.2-0.9,2.1-1.2,3.1C809.9,938.1,807.7,944.9,805.5,951.9z"/>
<path d="M287.5,315.8c-6.4,1-11.5,0.8-16.3-2.4c-6.4-4.3-6.6-9.4-0.5-14c6.4-4.8,10.9-5.2,16.1-1.6c5.8,4,6.9,8.7,4.4,14.7
	c2.7-1,6.4-3.7,9.4-3c2.9,0.7,5,4.9,7.9,7.9c0.5-0.2,1.7-1.2,2.9-1.1c1.7,0.1,3.4,1,5.1,1.5c-1.1,1.3-2.1,2.6-3.3,3.8
	c-0.3,0.3-1,0.3-1.5,0.3c-3.3,0.4-3.6,2.1-2,4.9c3.5-0.8,6.9-4.3,10.3-0.7c1.8-2.4,3.3-4.8,5.2-6.9c0.6-0.6,2.1-0.4,3.2-0.5
	c-0.4,0.9-0.8,1.9-1.2,2.8c-1.3,2.7-2.6,5.4-4,8c-0.7,1.4-1.7,2.7-2.6,4.1c-0.8-1.2-1.4-2.6-2.4-3.6c-0.9-0.9-2.6-2-3.5-1.7
	c-7.6,2.7-9.5,1.3-8.9-6.8c0-0.2-0.2-0.5-0.1-0.4c-2.4,1-4.7,2.7-7.2,2.9c-2.5,0.2-5.1-0.9-8.1-1.5c-1.5,3.4-2.9,7-4.5,10.4
	c-0.5,1-1.7,1.5-2.6,2.3c-0.2-1.2-0.9-2.5-0.6-3.5C283.9,326.8,285.6,321.7,287.5,315.8z M289.3,306.2c-1.2-3.9-3.8-6.7-7.6-7.2
	c-6.1-0.8-8.7,4.5-12,8.1c3,4.7,8.7,7,14.1,6c2.7-0.5,3.2-1.8,2.3-4.2c-0.4-1.1-0.6-2.3-0.9-3.5
	C286.4,305.7,287.7,305.9,289.3,306.2z M291.4,319.4c2.8,0.8,4.9,2.1,6.7,1.7c1.6-0.3,3.4-2.1,4.2-3.7c0.5-1.1-0.2-4.1-1-4.4
	c-1.6-0.5-3.9-0.3-5.3,0.6C294.3,314.9,293.2,317,291.4,319.4z"/>
<path d="M874.1,814.8c1.6,0,3.3-0.5,4.6,0.1c3.4,1.4,7,2.8,9.9,5.1c14.2,11.4,23.8,25.6,26.5,44.1c1.8,12.7,1,24.9-3.2,37
	c-1.5,4.3-2.9,8.6-4.5,12.8c-0.2,0.7-1.3,1-1.9,1.6c-0.3-0.8-1-1.6-0.9-2.3c0.1-1.2,0.7-2.3,1-3.4c2.4-8.8,6-17.6,6.9-26.6
	c2.6-25.1-6.3-45.7-26.5-61.2c-2.6-2-5.9-2.9-8.9-4.3c-1.1-0.5-2.1-0.9-3.2-1.4C874,815.7,874.1,815.3,874.1,814.8z"/>
<path d="M470.7,915.2c-1.2-1.2-2.5-2.3-3.5-3.6c-7.4-9.8-9.3-21.2-8.2-33c1.8-18.8,8.6-35.1,25.1-46.1c2-1.3,4.2-2.3,6.4-3.2
	c0.7-0.3,1.8,0.5,2.7,0.7c-0.5,0.7-0.8,1.8-1.5,2c-21.4,7.6-34.5,39.4-28.3,63.9c1.3,5,4.5,9.6,6.8,14.3c0.6,1.2,1.3,2.4,1.9,3.6
	C471.6,914.4,471.1,914.8,470.7,915.2z"/>
<path d="M907.4,822.4c6.7,1,13.6,1.8,18.5,7.4c3.9,4.5,8,9.2,10.4,14.5c5.5,12.5,11.1,25.2,10,39.4c-0.2,2.6-0.4,5.3-0.9,7.9
	c-0.2,1.1-1.1,2-1.7,3c-0.4-1.2-1.2-2.5-1.1-3.7c0.1-3.6,1-7.2,0.7-10.7c-1.5-17.3-6.8-33.3-18.1-46.9c-3.7-4.5-8.9-6.1-14.3-7.4
	c-1.5-0.3-2.8-1.2-4.2-1.8C906.9,823.7,907.2,823.1,907.4,822.4z"/>
<path d="M343.1,90.4c-7.4-4.3-10.9-8.6-8.6-11.2c2-2.3,5.6-4.1,8.6-4.3c3.6-0.2,5.6,6,5,11c1.8,2.6,3.5,4.1,3.9,5.8
	c0.4,1.8-0.1,4.1-1,5.7c-0.3,0.6-3.5,0.5-4.4-0.3c-2.7-2.5-4.7-1.8-7.2,0.3c-1.5,1.3-3.3,2.3-5.1,3.1c-0.9,0.4-2.1,0-3.2,0
	c0.3-1.1,0.3-2.5,0.9-3.1c2.1-1.8,4.5-3.3,6.8-4.8C340.1,91.9,341.4,91.3,343.1,90.4z M336.2,82c2,1.4,3.2,2.6,4.6,3.2
	c1.2,0.5,2.6,0.4,3.9,0.6c-0.2-1.8,0-3.7-0.7-5.2c-0.2-0.6-2.5-0.4-3.9-0.3C339.3,80.4,338.5,81,336.2,82z"/>
<path d="M461.5,828.2c-1.7,1.3-2.5,2.1-3.4,2.5c-14,5.7-22.3,16.7-28,30.1c-4.1,9.6-5.5,19.7-4.4,30.1c0.1,0.9-0.6,1.8-0.9,2.7
	c-0.7-0.8-2-1.6-2-2.3c0.2-7-0.2-14.2,1.1-21c3-14.8,10.4-27.3,22.5-36.6c3.6-2.7,8.1-4.3,12.3-6.3
	C459.1,827.3,459.7,827.7,461.5,828.2z"/>
<path d="M1282.6,245.3c0.2-3.7,0.1-7.1,0.6-10.4c0.1-0.9,1.7-1.6,2.6-2.4c0.1,1,0.6,2.2,0.3,3.1c-1.4,3.7-0.4,7.1,1.4,10.3
	c0.7,1.3,1.4,2.6,1.9,3.9c0.2,0.6-0.1,1.8-0.5,2.1c-0.5,0.3-1.6,0.2-2.2-0.1c-1.7-1-3.2-2.2-5.3-3.7c-3,6.8-9.5,5.3-14.7,7
	c-3.2-9.1-1.6-13.2,6.1-15.2c1.3-0.3,2.9,0.4,4.4,0.7c-0.3,1.4-0.3,3-0.9,4.2c-1,1.9-2.4,3.6-3.7,5.4c0.2,0.3,0.5,0.6,0.7,0.9
	c1.5-1.1,3.9-1.9,4.3-3.3C1278.6,244.6,1280.1,243.7,1282.6,245.3z"/>
<path d="M1237.7,252.2c7.3,0.8,10.7,6.3,6.7,12c-2.6,3.6-6.3,6.8-10.3,8.9c-6.2,3.2-13.9-1.9-13.1-8.8c0.3-2.8,3.3-5.8,5.9-7.6
	C1230.1,254.6,1234.1,253.7,1237.7,252.2z M1233,269.8c0.2,0.4,0.5,0.8,0.7,1.1c2.7-2.8,5.9-5.2,8.1-8.4c2.5-3.5,0.8-6.6-3.4-6.3
	c-3.3,0.3-6.7,1.5-9.7,2.9c-2.7,1.3-2.9,3.5-0.5,5.7C1229.8,266.6,1231.4,268.2,1233,269.8z"/>
<path d="M174.9,288.3c-1.8-1.5-3.7-2.9-5.4-4.5c-2.2-1.9-4.6-3.6-6.4-5.9c-2.9-3.6-2.8-7.4-0.2-10.5c2.9-3.5,7.6-4.6,11.5-2.5
	c4.9,2.7,8.1,6.8,9.2,12.4C184.6,282.8,180.9,287.4,174.9,288.3z M180.8,275.4c-2.9-2.8-5.3-5.6-8.2-7.7c-2.5-1.8-5.1-0.4-7.1,1.6
	c-2.1,2.1-1.6,4.3-0.2,6.5c4,6.3,7.9,6.7,13.2,1.5C178.9,277,179.3,276.6,180.8,275.4z"/>
<path d="M1338.4,221c0,8-2.5,12.6-6.1,12.2c-5-0.5-8.3-3.7-7.6-7.3c1.1-5.5,5.8-8.5,11.2-7.2c0.4-0.7,0.9-1.5,1.6-2.8
	c2.2,2,4.1,3.8,5.9,5.5c0.7-2.8,1.2-5.5,2.1-7.9c0.3-0.8,1.8-1,2.7-1.6c0,0.9,0.4,2.1,0,2.8c-2.3,3.8-0.4,7.5,0.1,11.2
	c0.2,1.2-0.3,2.4-0.5,3.6c-1.1-0.6-2.3-1-3.1-1.8C1342.8,225.8,1341,223.7,1338.4,221z M1335.3,223.9c-0.4-0.4-1.4-1.5-2.5-2.7
	c-1.6,1.7-3.4,3.3-4.8,5.2c-0.1,0.2,1.2,1.5,1.8,2.4C1331.4,227,1335.7,229.6,1335.3,223.9z"/>
<path d="M1138,152.4c-2.4,2.8-4.1,5.2-6.2,7.2c-3.1,3-6.4,1.9-6.6-2.4c-0.2-3.7,0.7-7.6,1.9-11.1c0.4-1.2,2.8-2,4.4-2.4
	c0.4-0.1,2.1,2.3,1.8,3.2c-0.4,1.4-1.8,3.1-3.1,3.7c-4.2,1.6-1.4,4.5-2.4,7.3c5.7-1.9,5.5-9.7,12-9.2c1.4-2.9-0.3-7.3,4.4-9.3
	c0.1,1.2,0.3,2.1,0.2,2.9c-0.2,5.1-0.4,10.3-0.8,15.4c-0.1,1.3-0.7,2.5-1.1,3.8c-0.8-1-1.9-1.9-2.5-3.1
	C1139.3,156.7,1138.8,154.9,1138,152.4z"/>
<path d="M219.7,221.4c-2.1,0.4-4.2,0.9-6.8,1.4c-0.1,1.4-0.1,3.4-0.5,5.3c-1,4.4-4.2,5.5-7.6,2.6c-3.5-3.1-5.9-6.9-5.1-11.9
	c0.6-3.8,2.9-4.5,6.3-3c3.3,1.5,6.9,2.4,10.5,3.5c0.9,0.3,1.9,0.3,2.9,0.4C219.5,220.3,219.6,220.9,219.7,221.4z"/>
<path d="M188.1,246.5c0.7,0.9,0.9,1.7,1.4,1.9c1.7,0.8,3.5,1.5,5.2,2.3c0.3-1.8,0.9-3.7,0.7-5.5c-0.3-2.9-1.2-5.8-0.9-8.8
	c-1.5-1.6-3.1-3.2-4.3-5c-0.4-0.6,0.1-1.9,0.3-2.9c0.8,0.5,1.6,0.9,2.4,1.4c2.4,1.8,4.9,3.5,7.2,5.4c1.1,0.9,2,2.1,2.9,3.1
	c-1.3,0.3-2.6,0.7-3.9,1c-0.5,0.1-1,0.2-1.6,0.3c0.6,2.8,1.4,5.5,1.6,8.2c0.3,5.2-3.4,7.6-8.1,5.5c-4-1.9-6.6-5.1-7.1-9.4
	c-0.2-1.4,0.9-3.7,2.1-4.4c0.9-0.5,3.6,0.7,4.2,1.7c0.6,1.1-0.5,3.1-1,4.7C189.1,246.2,188.5,246.3,188.1,246.5z"/>
<path d="M186.6,263.5c4.1,2.9,7.5,5.3,10.7,7.8c0.7,0.5,0.9,1.7,1.3,2.6c-1.1,0.1-2.4,0.7-3.1,0.3c-5.6-3.3-11.3-6.6-16.6-10.3
	c-1.5-1.1-5.7-3-1-5.8c0.3-0.2-0.1-1.2-0.1-1.9c-0.1-3,1.6-4.5,4.3-4.9c3.7-0.6,5.6,1.8,7,4.8C190.2,258.8,191.1,261.5,186.6,263.5z
	 M185.4,261.7c0.6-0.2,1.1-0.4,1.7-0.6c-0.8-1.9-1.4-4-2.4-5.8c-0.3-0.5-1.8-0.4-2.7-0.6c0,0.9-0.2,2,0.2,2.7
	C183,258.9,184.3,260.3,185.4,261.7z"/>
<path d="M372.3,140.6c-5.5,2-8.2-0.6-8.4-9.3c4.1,0,8.2-0.1,12.2,0.1c0.8,0,1.7,1.2,2.4,2c2.4,2.6,4.8,5.3,7,8.1
	c0.6,0.8,0.8,2,1.2,3c-0.9-0.1-2.2,0.1-2.7-0.4c-2.9-2.6-5.7-3.7-8.8-0.2c-0.4,0.5-2.3,0.4-2.4,0.2
	C372.4,143,372.4,141.9,372.3,140.6z"/>
<path d="M1101.8,153.3c-2,5-3.3,9.8-5.7,13.9c-0.9,1.5-4.6,2.2-6.7,1.8c-1.9-0.4-4.3-2.4-5-4.3c-2.2-5.6,1.6-15.7,6.9-18.6
	c1.8-1,5.2-1.6,6.2-0.6C1099.6,147.3,1100.4,150.4,1101.8,153.3z M1098.1,153.1c-0.6-1.5-1.4-3.3-2.2-5.1c-1.8,1.1-4.2,1.8-5.4,3.3
	c-1.5,1.9-3,4.6-2.8,6.8c0.2,2.5,2.2,4.9,3.4,7.4c1.7-1.5,3.8-2.7,4.8-4.5C1097,158.8,1097.3,156.2,1098.1,153.1z"/>
<path d="M1110.2,165.5c0,2.5,0.1,5.1-0.1,7.6c-0.1,0.8-1,1.6-1.5,2.4c-0.7-0.7-1.8-1.3-1.9-2.1c-0.4-2.4-0.4-4.8-0.5-7.2
	c-0.1-3.7-0.2-7.5-0.1-11.2c0.1-1.9,0.4-5,1.4-5.4c2.7-1.1,6.2-1.9,8.6-0.9c1.9,0.8,3.6,4.3,3.7,6.7c0.1,2.2-1.7,4.6-3.1,6.7
	c-0.4,0.6-2.3,0.4-3.3,0.1c-0.7-0.2-1.1-1.3-1.7-1.9c0.7-0.4,1.6-0.6,2.2-1.1c1.1-0.9,3-2.2,2.9-3.1c-0.2-1.7-1.6-3.2-2.5-4.8
	c-1.2,1-2.5,2-3.6,3.1c-0.4,0.4-0.4,1.2-0.5,1.9c-0.2,3.1-0.4,6.1-0.6,9.2C1109.9,165.5,1110,165.5,1110.2,165.5z"/>
<path d="M1254.5,259.8c1.9,3.6,3.8,6.6,5.2,9.9c0.5,1,0,2.4,0,3.6c-1.1-0.7-2.7-1.1-3.2-2c-2.5-4.7-5.1-9.4-7-14.3
	c-1.5-3.8,1.1-8.8,4.6-10.3c3.1-1.3,6.2-1.3,8.6,1.1c1.2,1.2,2.2,4,1.5,5.1c-1.5,2.6-4,4.6-6.2,6.7
	C1257.5,260,1256.3,259.7,1254.5,259.8z M1253.6,256.9c4.9-0.5,8.6-3.3,7.6-5.6c-0.5-1.1-2.9-2.1-4.4-2
	C1253.6,249.4,1252.8,251.5,1253.6,256.9z"/>
<path d="M1306.4,237.1c-1.8,2-3.2,4-5.1,5.4c-1.5,1-4.1,2.1-5.3,1.4c-1.4-0.8-2.5-3.3-2.7-5.2c-0.6-5.4,1.8-8.9,6.2-9.6
	c2.8-0.5,5.2,0,6.8,2.8c0.9,1.5,2.7,2.4,4,3.6c0.8,0.7,1.3,1.7,1.9,2.6c-1.1,0.1-2.1,0.4-3.2,0.2
	C1308.2,238.2,1307.4,237.6,1306.4,237.1z M1297.9,232.6c-0.1,0.7-0.2,1.4-0.2,2.1c1.4,0.2,2.9,0.6,4.3,0.6c0.3,0,0.5-1.5,0.7-2.4
	C1301.2,232.8,1299.6,232.7,1297.9,232.6z"/>
<path d="M336.7,339.5c-2.8-1-5.8-1.5-8.2-3c-2.9-1.9-3.4-5-1.6-8.1c1.6-2.9,7-5.3,9.3-3.8c1,0.6,2.1,3,1.7,3.8
	c-1.4,2.4-3.5,4.5-5.4,6.8c1.3,0.9,3,1,4.6-1.5c0.5-0.8,1.4-1.3,2.2-1.9c0.5,1,1.2,1.9,1.4,2.9c0.3,1.4,0.3,2.9,0.2,4.4
	c-0.1,0.9-0.5,1.9-0.7,2.8c-0.8-0.7-1.6-1.4-2.3-2.1c-0.3-0.3-0.4-0.7-0.6-1C336.9,338.9,336.8,339.2,336.7,339.5z"/>
<path d="M1159.3,160.7c-2.3,0.7-2.3,0.7-4.7-4.1c-0.2,0.1-0.5,0.1-0.7,0.2c-1.8,1.1-3.5,2.2-5.3,3.4c-0.3-2-1.2-4.1-0.9-6
	c0.6-3.3,1.6-6.7,2.9-9.8c0.5-1.1,2.5-2,3.8-1.9c0.8,0.1,1.9,2,2.2,3.2C1157.6,150.5,1158.3,155.3,1159.3,160.7z"/>
<path d="M354.6,327.7c0.7-4.2,1.2-7.9,1.9-11.5c0.2-0.9,1.3-1.6,1.9-2.5c0.3,1,1.1,2.1,1,3c-0.4,3.8-1,7.6-1.6,11.6
	c2,0.5,3.7,0.8,5.3,1.5c0.6,0.3,0.9,1.3,1.3,2c-0.7,0.3-1.4,0.8-2,0.8c-1.5-0.1-3.1-0.4-5.5-0.8c0,3.2,0.1,6-0.1,8.7
	c-0.1,1-0.7,2-1.1,3c-0.6-1-1.3-2-1.7-3c-0.3-0.8-0.2-1.9,0-2.8c0.6-4.3,0.3-8-5.5-8.1c-0.6,0-1.1-1.2-1.7-1.8
	c0.8-0.4,1.5-1.1,2.3-1.1C350.8,326.8,352.4,327.3,354.6,327.7z"/>
<path d="M1319.6,239.6c-2.2-4.2-4.4-8.5-6.7-12.8c-0.3,0-0.7,0.1-1.1,0.1c-1.5,0.2-2.9,0.4-4.4,0.5c1-1.1,2.1-2.2,2.9-3.4
	c0.6-0.8,1.4-2,1.3-2.8c-0.3-2.1-1.2-4.1-1.5-6.2c-0.2-1.1,0.2-2.3,0.3-3.4c0.9,0.8,2.2,1.5,2.6,2.5c1,2.3,1.5,4.8,2.2,7.3
	c2.5-0.5,4.9-1,7.3-1.4c0.2,0.5,0.4,1.1,0.6,1.6c-2.1,1.2-4.3,2.3-6.9,3.8c1.9,4.4,3.8,8.8,5.7,13.2
	C1321.2,238.9,1320.4,239.3,1319.6,239.6z"/>
<path d="M206.1,211.9c-0.6-1.5-0.9-1.9-0.8-2c2.8-4.7,0.6-7.6-3.3-10.2c-0.7-0.5-1.3-1.5-1.5-2.3c-0.2-1,0-2.2,0.1-3.2
	c0.9,0.6,1.9,1,2.6,1.7c1.9,1.8,3.6,3.7,5.5,5.7c2.2-2.3,4-4.2,5.8-6c0.5,0.4,1,0.8,1.6,1.2c-1.2,2.1-2.4,4.2-4,7
	c2.7,1.7,5.5,3.4,8.2,5.3c0.7,0.5,1,1.5,1.5,2.3c-0.9,0.2-2.1,0.7-2.8,0.4c-2.9-1.5-5.7-3.3-8.5-4.9
	C209.1,208.3,207.8,209.9,206.1,211.9z"/>
<path d="M352.9,108.5c3.7,0,6.3,0,8.8,0c0.1,0.4,0.1,0.8,0.2,1.2c-3.3,1.3-6.6,2.7-9.9,3.9c-0.4,0.2-1.5-0.2-1.7-0.6
	c-1.2-2.5-3.4-5.3-3-7.6c0.5-2.6,3.1-5,5.3-6.9c1-0.8,3.3-0.7,4.8-0.2c0.7,0.2,1.5,2.2,1.3,3.2c-0.1,0.8-1.7,1.9-2.5,1.9
	c-1.8-0.2-4.1-2-4.9,0.8C350.9,105.6,352.5,107.5,352.9,108.5z"/>
<path d="M1164.5,138.5c1.1,0.1,1.8,0,2.4,0.2c0.7,0.2,1.3,0.7,1.9,1.1c-0.4,0.6-0.8,1.7-1.3,1.7c-3.7,0.4-3.1,3.1-2.9,5.4
	c0.3,2.9,0.9,5.8,1.2,8.7c0.1,0.8-0.5,1.6-0.8,2.4c-0.7-0.6-1.9-1.1-2.1-1.8c-0.7-2.7-1-5.5-1.5-8.2c-0.3-2.2,0.7-5.3-2.5-4.7
	c1-3.7,1.9-7.2,3-10.5c0.3-0.8,1.4-1.3,2.1-1.9c0.3,0.9,0.8,1.8,0.8,2.6C1165,134.9,1164.7,136.4,1164.5,138.5z"/>
<path d="M370.7,122.4c-0.4-2.3-0.6-3.7-0.9-5.1c1.5,0.5,3,1.1,4.9,1.8c1.6-1.2,3.5-2.8,5.6-4.2c0.6-0.4,1.7-0.1,2.5-0.1
	c-0.2,0.8-0.2,1.9-0.7,2.4c-1.7,1.6-3.6,3.1-5.1,4.3c0.6,2.2,1.1,4.1,1.6,5.9c-1.6-0.8-3.3-1.6-5.5-2.6c-2,1.4-4.5,3.3-7.2,5
	c-0.6,0.4-1.6,0.1-2.5,0.2c0.3-0.9,0.2-2.1,0.8-2.6C366.4,125.5,368.8,123.8,370.7,122.4z"/>
<path d="M370.1,346.3c-5.5-1.8-8.6-5.4-7.3-8.5c1.1-2.8,5.5-4.1,8.6-2.7C374.8,336.6,374.6,338,370.1,346.3z"/>
<path d="M1177.7,146.9c-1.2,3.1-2.2,5.9-3.5,8.6c-0.4,0.8-2,1.6-2.8,1.4c-0.9-0.3-2.1-1.6-2.1-2.5c0-3,0.1-6.1,1.1-8.9
	c0.5-1.5,2.9-2.4,4.4-3.6C1175.7,143.5,1176.6,145.1,1177.7,146.9z"/>
<path d="M218.7,196.3c0-2.8,0.8-5.1,3.8-5.7c2.9-0.6,4.5,1.3,5.4,3.7c0.6,1.7,1.4,3.7,1,5.3c-0.6,2.6-2.1,5.1-5.5,4.7
	C220.9,203.9,218.7,200.1,218.7,196.3z M224.9,200.6c-0.2-2.3-0.4-4.6-0.6-6.8c-0.5,0.1-1,0.1-1.5,0.2
	C220.7,196.5,221.9,198.7,224.9,200.6z"/>
<path d="M358.6,127.9c-3.5-2.3-4.7-11.3-1.5-14c1.4-1.2,3.3-3.1,4.3,0.6c0.1,0.5,0.9,0.8,1.4,1.2c2.7,2.1,2.4,3.2,0,5.5
	C361,123,360,125.7,358.6,127.9z"/>
<path d="M1180,143.4c2.4-1,3.8-1.9,5.2-2.2c1.4-0.3,2.9-0.1,4.3-0.2c-0.7,0.9-1.7,1.6-2.1,2.6c-1,2.5-1.9,5.1-2.7,7.7
	c-0.3,1.2,0,2.7-0.3,3.9c-0.2,0.7-1,1.4-1.8,1.7c-0.3,0.1-1.4-0.8-1.5-1.4C1180.7,151.2,1180.3,146.8,1180,143.4z"/>
<path d="M226.6,182c0-0.1,0-0.3-0.1-0.4c0-1.8-0.1-3.6-0.1-5.4c1,1.3,1.9,2.8,3.1,3.9c2.5,2.3,5.2,4.4,7.7,6.6
	c0.9,0.8,1.4,1.9,2.2,2.9c-1.3,0.1-2.7,0.6-3.8,0.2c-2.8-0.9-5.4-2.1-8.1-3.2C224,185.4,223.8,184.4,226.6,182z"/>
<path d="M377.1,347.6c0.4-3.3,0.6-5.5,1-7.7c0.4-1.9,1-3.6,3.7-2.3c1.4,0.7,3.3,0.3,5,0.5c-1.3,1.3-2.9,2.3-3.9,3.8
	c-0.9,1.4-1,3.4-1.7,5c-0.5,1.2-1.3,2.3-2,3.4C378.3,349.2,377.5,348.2,377.1,347.6z"/>
<path d="M764.9,558.7c-14.1,0-28.3,0-42.4,0c-0.2,2.4-0.3,3.7-0.3,5.1c-0.8,0-1.3,0.1-1.6-0.1c-7.8-6.9-19.1-4.3-23.5,5.4
	c-4.8,10.5,1.4,22.8,12.7,25c1.6,0.3,3.4-0.2,5.1,0c1.3,0.1,2.5,0.7,3.7,1.1c-1,0.6-1.9,1.7-3,1.9c-11.9,2.1-22.1-6.1-23-18.5
	c-1.1-14.5,10-24.2,24.4-21.6c2.7,0.5,5.7-0.9,8.5-0.9c12.4-0.1,24.7,0,37.1,0.1c0.9,0,1.7,0.6,2.5,1
	C765,557.6,764.9,558.2,764.9,558.7z"/>
<path d="M813.4,577.8c-1.2,5.6-2.5,11.8-3.8,18.1c-0.2,1-0.3,2.2-0.8,3.1c-0.5,1-1.4,1.9-2.2,2.8c-0.3-1.1-0.9-2.4-0.7-3.4
	c1.7-9.4,3.6-18.8,5.5-28.2c0.3-1.7,0.3-3.5,0.8-5.1c0.3-0.8,1.3-1.4,2.1-2.1c0.6,0.7,1.7,1.4,1.8,2.2c0.6,5,0.9,10.1,1.5,15.1
	c0.6,4.9,1.3,9.8,2.5,14.5c0.4,1.6,2.4,4.1,3.6,4c1.7-0.1,4.2-1.8,4.9-3.4c2-4.6,3.4-9.5,4.8-14.4c1.2-4.6,2-9.4,3.1-14
	c0.3-1,1.4-1.8,2.2-2.7c0.3,1,0.9,2.1,0.7,3.1c-2,8.8-4.1,17.6-6.5,26.3c-0.5,2-1.7,4-3.1,5.5c-4.2,4.6-10,4-12-1.9
	C815.6,590.9,814.7,584.1,813.4,577.8z"/>
<path d="M667.4,575.2c1.2,6.8,2.5,13.6,3.5,20.4c0.1,0.6-1.1,1.3-1.7,2c-1-1.4-2.6-2.8-2.8-4.3c-0.8-7.4-1.1-14.9-1.8-22.3
	c-0.3-2.9-1.1-5.8-1.9-9.5c0.5-0.5,1.7-1.6,3.2-3c3.9,13.1,9.3,24.8,18.4,34.4c0.5-0.1,1-0.2,1.5-0.3c0.3-2.5,0.9-5,0.9-7.6
	c0-7.2-0.4-14.4-0.4-21.6c0-1.6,0.8-3.1,1.2-4.7c0.4,0.1,0.8,0.1,1.1,0.2c0.3,0.4,0.8,0.8,0.8,1.2c0,9.9,0.1,19.7,0,29.6
	c0,0.9-0.2,1.9-0.5,2.7c-1.1,3.8-3.6,4.9-6.5,2.3c-3-2.7-5.7-6-8-9.3c-2.2-3.3-3.8-7-5.7-10.5C668.3,575.1,667.8,575.2,667.4,575.2z
	"/>
<path d="M778.4,590.4c2-7.8,3.7-15.7,6-23.4c1.2-4,4-6.6,8.6-6.5c3.6,0.1,6.8,2.8,7.7,7.5c1.9,9.4,0.3,18.2-5.5,26.1
	c-3,4.1-7.8,4.8-12.3,5.9c-0.8,0.2-2.8-1.5-3-2.6c-0.5-2.2-0.1-4.5-0.1-6.8C779.3,590.6,778.9,590.5,778.4,590.4z M782.8,595.7
	c2.2-0.8,4.3-2.3,5.1-1.8c2.3,1.4,3.3-0.1,4.3-1.3c4.2-4.5,5.5-10.3,5.7-16.2c0.1-3.3-0.2-7-1.5-10c-1.6-3.9-6.1-3.9-8.1-0.2
	C783.4,575.4,782.3,585.3,782.8,595.7z"/>
<path d="M651.1,592.3c0.7-5.1,1.6-10.3,2-15.4c0.4-4.6,0.1-9.3,0.3-14c0.1-1,1.1-2,1.7-3c0.5,1,1.4,1.9,1.3,2.9
	c-0.4,8.6-0.8,17.2-1.6,25.8c-0.3,2.9-0.7,6.8-4.4,7.2c-3.7,0.3-4.7-3.4-5.8-6.2c-4.2-10.6-3.7-21.3-0.8-32.1c0.2-0.8,1.3-1.3,1.9-2
	c0.4,0.9,1.2,1.9,1.1,2.7c-0.4,3.2-1.3,6.3-1.8,9.4c-1.3,8,0.4,15.6,3.4,23c0.3,0.7,0.9,1.2,1.4,1.8
	C650.2,592.3,650.7,592.3,651.1,592.3z"/>
<path d="M602.3,574.8c-2.7,0.5-4.8,1-6.9,1.2c-0.7,0.1-1.5-0.7-2.2-1c0.5-0.6,1-1.6,1.7-1.9c2-0.6,4.1-1,7-1.6
	c-0.9-2.1-1.8-3.9-2.5-5.8c-0.3-0.8,0-1.8,0-2.7c0.9,0.2,2.1,0.1,2.8,0.6c0.7,0.6,1.3,1.8,1.4,2.8c0.4,4.6,3.1,4.6,6.7,3.9
	c4.6-0.9,9.2-1.6,13.8-2.2c1.7-0.2,3.5,0,5.3,0c0.1,0.6,0.3,1.2,0.4,1.7c-1.4,0.5-2.7,1.1-4.1,1.3c-6.5,1-13.1,1.9-20.6,2.9
	c2.9,9.5,5.5,18.3,8.1,27.2c0.3,0.9,0,1.9-0.1,2.8c-0.9-0.4-2.2-0.6-2.5-1.3c-1.3-2.6-2.6-5.3-3.3-8
	C605.2,588.3,603.9,581.7,602.3,574.8z"/>
<path d="M642.8,548.5c-1.2,0.5-2.4,1.1-3.6,1.4c-16.5,3.8-33,7.4-49.5,11.3c-4,0.9-7.8,2.7-11.7,4c-1.3,0.4-2.6,0.6-3.9,0.8
	c-0.2-0.4-0.4-0.8-0.6-1.2c1-0.8,1.8-1.9,3-2.3c4.3-1.7,8.7-3.6,13.2-4.6c16.1-3.8,32.2-7.4,48.3-11c1.5-0.3,3.1,0,4.6,0
	C642.7,547.4,642.8,548,642.8,548.5z"/>
<path d="M766,595.6c2.6-12,5.1-24.3,7.9-36.6c0.2-1,1.5-1.7,2.3-2.6c0.2,1.2,0.8,2.4,0.6,3.5c-2,10.8-4.4,21.5-6.1,32.4
	c-0.5,2.9,0.9,6,1.4,9.1c0.1,0.8,0.1,1.7,0.1,2.5c-0.9-0.3-2.3-0.3-2.6-0.9C768.2,600.9,767.3,598.6,766,595.6z"/>
<path d="M742.9,559.6c-0.1,1-0.1,1.9-0.3,2.9c-2.7,10.7-4.1,21.4-1.4,32.4c0.5,1.8-0.4,4-0.6,6c-0.8-1.9-1.9-3.8-2.4-5.8
	c-2.9-10.6-1.4-21.1,1-31.6c0.4-1.6,1.6-3,2.4-4.5C742,559.2,742.4,559.4,742.9,559.6z"/>
<path d="M475.6,332.1c-2.9,0.2-3.5-1.2-2.9-3.7c1.2-5,6.3-9.8,11.5-10.4c1.3-0.1,2.7,0.1,3.8,0.6c3.8,1.8,7.1,9.6,6.2,14.6
	c-0.7,4.4-5.2,8.1-10.3,8.6C478.9,342.3,476.1,339.1,475.6,332.1z M484.4,321.3c-0.6,1.1-1,2.5-1.9,3.2c-3.6,2.8-3.9,6.6-3.2,10.4
	c0.2,1.4,2.3,3.3,3.8,3.6c3.8,0.7,7.8-2.7,8.2-6.4C491.7,327.1,488.3,321.8,484.4,321.3z"/>
<path d="M516.2,320.8c7.2,4.8,10.1-2.4,14.6-4.8c-1.1-3.7-3.5-7.9,0.5-11.9c0.6,0.5,1,0.6,1,0.8c-0.6,5.3,0.8,9.9,4.4,13.8
	c0.3,0.4,0.4,1.5,0.2,1.8c-0.5,0.5-1.6,0.9-2,0.7c-3.2-2-4.8-0.2-7.2,1.8c-2.1,1.8-5.6,2.4-8.5,2.4c-4.7,0-6.6-3.2-5.7-8.4
	c0.9-5.2,4.7-8.9,8.7-8.1c3.1,0.6,4,3.6,1.6,6C521.6,317,519.1,318.5,516.2,320.8z"/>
<path d="M503.9,332.3c2,4,4,7.7,5.8,11.5c0.4,0.8-0.1,1.9-0.2,2.9c-0.9-0.3-2.3-0.3-2.6-0.9c-4.2-7.1-8.3-14.2-12.3-21.4
	c-0.2-0.3,0-0.8,0.1-1.4c1-0.1,2-0.1,3.1-0.2c1-3.5,2.4-6.8,7-6.5c3.3,0.2,7.2,3.1,7.6,6.1C513.4,328.6,508.3,330.1,503.9,332.3z
	 M501.6,328.5c0.6,0.3,1.2,0.6,1.8,0.9c2-1.7,4.2-3.1,5.7-5.2c0.4-0.5-1.3-3.3-2.6-4.1c-0.9-0.6-4-0.2-4.1,0.3
	C501.8,323.1,501.8,325.8,501.6,328.5z"/>
<path d="M552,292.5c-2.2,0.6-4.3,1.3-6.4,1.6c-0.7,0.1-1.5-0.6-2.3-0.9c0.5-0.7,0.9-1.6,1.6-1.9c1.9-0.8,4-1.3,6.1-2
	c-0.6-4.1-1.2-7.9-1.8-11.8c0.7-0.1,1.4-0.3,2.1-0.4c1,3.5,2.1,7,3.2,10.8c1.4-0.5,2.6-1.1,3.9-1.2c0.9-0.1,1.9,0.3,2.8,0.4
	c-0.5,0.8-0.9,1.8-1.6,2.3c-1.2,0.8-2.6,1.2-4.5,2.1c2,3.6,3.9,6.9,5.6,10.2c0.5,1,0.5,2.3,0.7,3.4c-1.1-0.6-2.7-1-3.4-1.9
	C555.9,299.8,554.1,296.3,552,292.5z"/>
<path d="M558.1,309.8c-0.4,0.5-0.5,0.7-0.5,0.7c-4.9-1.7-8.3,0.7-12,3.6c-2,1.6-4.5,0.2-5.1-2.6c-0.9-4.4-0.1-8.5,3.2-11.8
	c2.7-2.7,6.6-2,7.7,1.5c1,3.4,2.4,6,5.9,7.2C557.6,308.6,557.8,309.3,558.1,309.8z M542.4,310.1c5.7-0.7,4.4-5,6.3-7
	c0.1-0.1-0.6-1.3-1-1.4c-0.7-0.1-1.8,0.2-2,0.7C544.5,304.6,543.7,306.9,542.4,310.1z"/>
<path d="M569,300.1c-3.2,0.1-6.3-3.3-6.4-6.9c-0.1-4,3.2-7.6,7.1-7.6c3,0,5.2,2.4,5.2,5.7C574.8,296.8,572.6,300,569,300.1z
	 M569.5,287.4c-1.6,2.4-3,3.7-3.3,5.2c-0.2,0.9,1.4,2.1,2.1,3.2c1.1-1.4,2.5-2.6,3.2-4.1C571.8,290.9,570.6,289.6,569.5,287.4z"/>
<path d="M581.4,283c0.7-2.4,1.3-4.6,1.9-6.7c0.4,0,0.8,0.1,1.2,0.1c0.3,0.6,0.7,1.3,0.8,1.9c0.5,3.2,1,6.4,1.4,9.6
	c0.1,1-0.4,2.1-0.6,3.2c-0.9-0.3-2.4-0.4-2.6-1c-1.7-4.2-5.7-4.8-9.1-6.2c-1-0.4-1.9-1.4-2.8-2c1.3-0.3,2.6-1,3.8-0.8
	C577.4,281.4,579.5,282.4,581.4,283z"/>
<path d="M1066.7,350.4c0.5,1.8,0.8,3.2,1.5,5.6c2.2-2.3,3.9-3.6,5.1-5.4c1.5-2.3,2.7-4.6,5.6-2.2c1-2,1.7-3.7,2.6-5.2
	c0.2-0.4,1.3-0.6,1.7-0.4c0.4,0.2,0.8,1,0.8,1.5c-0.3,3.9-0.6,7.8-1,11.7c-0.1,0.9-0.7,1.8-1.1,2.7c-0.8-0.7-1.8-1.3-2.3-2.2
	c-0.9-1.5-1.5-3.3-2-4.6c-2,1.8-3.7,3.6-5.6,4.9c-3.7,2.6-6.5,1.5-7.7-2.9c-0.9-3.4-0.8-6.8,1.8-9.3c1.3-1.2,3.7-1.7,5.6-1.5
	c0.7,0,2.1,3.3,1.5,4.1c-0.9,1.5-3,2.2-4.6,3.2C1068.2,350.6,1067.8,350.4,1066.7,350.4z"/>
<path d="M1100.8,355.6c-1.3,1.4-2.2,3.1-3.7,3.7c-1.7,0.7-4,1.2-5.5,0.5c-1.2-0.6-2.5-3.2-2.2-4.5c1-4,2.4-8,4.4-11.6
	c0.6-1.2,3.8-1.9,5.2-1.4c1.4,0.6,3.1,3,3,4.6c-0.2,3.8,1.3,6.6,3.3,9.5c0.6,0.9,0.5,2.3,0.8,3.4c-1.1-0.5-2.2-0.9-3.2-1.6
	C1102.1,357.6,1101.6,356.6,1100.8,355.6z M1097.3,343.9c-1.5,2.3-2.6,3.7-3.3,5.3c-0.2,0.4,0.9,1.4,1.5,2.1
	c1.1-1.3,2.5-2.4,3.3-3.8C1099.1,347.1,1098.2,345.9,1097.3,343.9z"/>
<path d="M1047.2,348c-0.1,6.7-5.1,13.3-10.2,13.3c-4.1,0-7.6-4.8-7.6-10.5c0-6.1,4.9-11.7,10.3-11.6
	C1044.3,339.1,1047.2,342.6,1047.2,348z M1032.6,350.2c-0.1,3.4,2.8,6.1,6.5,6.1c2.3,0,5.1-4.6,5.2-8.5c0-3.2-2.1-5.8-4.8-5.8
	C1036.1,342.1,1032.6,346.3,1032.6,350.2z"/>
<path d="M1050.1,360.8c-0.2-2.9-0.5-5.8-0.7-8.7c-0.1-1.6,3.6-7.2,5.2-7.4c0.8-0.1,1.9,0.2,2.6,0.7c5.3,3.6,5.2,10.7-0.5,13.8
	c-2.6,1.4-3.3,3-3.1,5.6c0.1,0.8,0.2,1.7-0.2,2.4c-0.4,0.8-1.3,1.4-1.9,2.1c-0.5-0.7-1.4-1.3-1.4-2.1c-0.2-2.1-0.1-4.2-0.1-6.4
	C1050,360.8,1050.1,360.8,1050.1,360.8z M1053.7,356.9c5-2.8,5.2-4.9,1.4-8.1C1054.7,351.4,1054.3,353.8,1053.7,356.9z"/>
<path d="M1134.2,343.6c0.5,4.7-1.5,8-5.9,9.8c-3.1,1.3-5.9-0.1-6.2-3.4c-0.2-2.8,0.1-5.9,0.9-8.6c0.9-3.3,3.3-5.8,7.1-5
	C1133.9,337.2,1134.2,340.5,1134.2,343.6z M1125.8,346c1.6,0,2.8,0.4,3.3-0.1c0.9-0.8,1.8-2.1,1.8-3.2c0-1-1.1-2.1-1.7-3.1
	c-1.3,1.8-3.1,3.3-3.8,5.3c-0.7,1.9-2.1,4.7,1.7,5.5c0.1,0,0.3-0.3,0.6-0.6C1127.2,348.8,1126.7,347.8,1125.8,346z"/>
<path d="M1115.3,329.3c0,2,0,3.9,0,6.2c1.6,0.1,3.3,0.2,5,0.3c0.3,0.6,0.7,1.1,1,1.7c-0.8,0.3-1.7,0.8-2.6,0.9
	c-3.9,0.3-4.3,2.8-3.9,5.9c0.4,2.9,0.8,5.8,1,8.7c0.1,1-0.6,2-0.9,3c-0.7-0.8-1.9-1.6-2.1-2.5c-0.7-4.2-1.2-8.4-1.8-13.2
	c-1.4,0.5-2.9,1.2-4.5,1.6c-0.6,0.2-1.5-0.1-2-0.5c-0.2-0.2,0-1.6,0.3-1.7c5.4-1.4,7.5-5.6,9.1-10.4
	C1114.1,329.2,1114.6,329.3,1115.3,329.3z"/>
<path d="M1138.4,337.6c3.1-0.5,5-1,6.9-1.1c0.8,0,1.7,0.8,2.6,1.2c-0.6,0.6-1.2,1.1-1.7,1.8c-0.7,1.1-1.9,2.3-1.9,3.5
	c0.1,2.9,0.9,5.8,1.1,8.7c0.1,0.7-0.6,1.5-1,2.3c-0.7-0.4-2-0.6-2.2-1.2C1140.9,347.7,1139.7,342.6,1138.4,337.6z"/>
<path d="M768.8,368c-6.7,4.4-12.9,8.9-19.6,12.7c-4.6,2.6-9.7,4.3-14.6,6.3c-1,0.4-2.1,0.6-3.1,0.4c-0.8-0.2-1.5-1-2.3-1.6
	c0.7-0.5,1.3-1.3,2-1.5c10.2-1.8,18.8-7.2,27.1-13c2.6-1.8,5.2-3.7,7.7-5.7c2.4-2,4.5-1.6,6,0.9c6.2,9.9,9.3,20.7,7.4,32.3
	c-0.8,5-5.1,7.4-9.8,8.1c-15.2,2.2-29.4,0.1-41.1-10.9c-0.8-0.8-1.1-2.1-1.6-3.2c1.3,0.3,2.9,0.2,3.7,0.9
	c10.4,9.4,22.8,12.1,36.3,10.5c7.6-0.9,9.7-3.5,9.7-11.2C776.5,382.9,773.9,374.2,768.8,368z"/>
<path d="M770.3,318c10.1,0,11.2,1.8,6.9,9.7c-1.4,2.6-5,3.2-7.6,1.1c-2.2-1.8-4.4-3.8-6.1-6.1c-1.4-1.8-0.8-3.7,1.6-4.2
	C767.1,318.1,769.3,318.1,770.3,318z M769.7,320.6c-0.6,4.4,0.9,5.9,3.4,6.1c0.5,0,1.8-2.7,1.6-2.8
	C773.5,322.7,771.9,321.9,769.7,320.6z"/>
<path d="M704,340.3c4.6,0,7.3,2,7.3,5.4c-0.1,4.2-3.4,7.5-7.6,7.6c-3.7,0-6.3-2.5-6.2-6.2C697.5,342.8,699.9,340.3,704,340.3z
	 M708,345.4c-0.3-0.5-0.7-0.9-1-1.4c-2.2-0.5-4.8-1.6-5.9,1.5c-0.3,1,1.5,2.7,2.4,4.1C705,348.1,706.5,346.7,708,345.4z"/>
<path d="M747.1,364.7c-3.2,3.6-6.9,6.5-11.7,7.5c-5.7,1.1-9.4-3.4-7.2-8.8c0.9-2.1,2.7-3.9,4.3-5.6c0.4-0.5,1.6-0.2,2.4-0.3
	c-0.1,0.8,0,1.8-0.4,2.5c-0.8,1.2-2.2,2.1-2.7,3.4c-0.5,1.5-0.9,3.6-0.2,4.8c0.5,0.8,3,1.1,4.3,0.7c2.3-0.9,4.3-2.5,6.5-3.8
	c1.3-0.7,2.7-1.2,4-1.8C746.6,363.7,746.8,364.2,747.1,364.7z"/>
<path d="M938,273.4c-8-0.1-17-10.4-16-18.4c0.4-3.5,2.5-5.1,5.9-5.2c5.7-0.1,14.3,5.7,16.4,11.2C946.5,266.4,942.9,273.4,938,273.4z
	 M937.7,270.2c0.9-1.6,1.9-2.7,2.2-4c0.5-1.8,1.3-4.8,0.5-5.5c-3.2-2.9-6.7-5.6-10.6-7.3c-3.3-1.5-4.9,0.4-4.5,4.2
	C925.9,263.2,931.6,268.9,937.7,270.2z"/>
<path d="M954.4,249.2c-3.4,4.5,0.9,6,3.6,8.4c0.6,0.5,0.6,1.8,0.8,2.7c-0.9,0-2.2,0.5-2.8,0.1c-5.1-3.8-10.6-7.3-14.8-12
	c-1.7-1.9-0.8-6.5-0.4-9.7c0.1-0.6,4-1.6,5.4-1C951,239.6,953.2,243.9,954.4,249.2z M949.7,250.1c1-5.4-2.2-9.5-7.3-9.4
	C945.1,244.1,947.4,247.1,949.7,250.1z"/>
<path d="M977.3,218.7c-1.3,0.7-2.6,1.3-3.9,2c0,0.9,0.1,1.8,0,2.7c-0.2,3.2-2.3,4.7-5.2,3.1c-4.7-2.6-8.1-6.5-9.3-11.8
	c-0.3-1.3,0.3-3.5,1.3-4.2c0.9-0.6,3-0.1,4.2,0.6C968.6,213.3,972.6,215.8,977.3,218.7z"/>
<path d="M960.5,234c-0.2,2.9-0.4,5.3-0.5,7.7c-2.6-0.6-5.6-0.7-7.7-2c-2.3-1.5-3.9-4.1-5.4-6.5c-0.5-0.7,0.2-2.2,0.3-3.3
	c1.2,0.2,2.9,0,3.6,0.7c1.1,1.2,1.6,3,2.5,4.4c0.9,1.4,2,2.6,3.6,3.3c-0.1-2.7-0.3-5.4-0.4-8c0.4,0,0.7-0.1,1.1-0.1
	c-1.5-1.5-3.2-2.9-4.2-4.7c-0.6-1,0.1-2.8,0.2-4.2c0.8,0.8,1.5,1.6,2.3,2.3c2.6,2.2,5.3,4.3,7.8,6.6c1.1,1,2,2.4,3,3.6
	c-1.4,0.1-2.9,0.2-4.3,0.2C961.8,234.1,961,234,960.5,234z"/>
<path d="M964.4,201.1c1-1.5,1.3-2.2,1.8-2.6c0.7-0.6,1.6-0.9,2.5-1.4c0.1,1,0.5,2.1,0.1,2.8c-1.1,2.2-0.3,3.4,1.5,4.6
	c2.6,1.6,5.1,3.4,7.5,5.2c0.7,0.5,0.9,1.6,1.4,2.4c-1,0.1-2.2,0.6-2.8,0.2c-3.2-1.9-6.2-4.1-9.2-6c-1.1,0.9-2.2,1.7-3.2,2.5
	c-0.2-1.3-0.2-2.6-0.6-3.9c-0.2-0.9-0.7-1.9-1.3-2.6c-2-2.2-4.2-4.1-6.1-6.3c-0.6-0.7-0.6-2-0.8-3c1,0.3,2.3,0.3,3,1
	C960.3,196.1,962.2,198.5,964.4,201.1z"/>
<path d="M984.4,201.9c-0.4,5.1-4.2,6.9-8.3,3.9c-3.4-2.5-5.5-5.8-5.3-10.1c0-1.1,2.3-3.1,2.5-2.9c3.8,2.4,7.4,5,11,7.6
	C984.6,200.6,984.4,201.4,984.4,201.9z M975.2,195.8c-0.6,0.5-1.2,1-1.8,1.5c1.8,2.3,3.5,4.5,5.3,6.8c0.6-0.4,1.2-0.9,1.7-1.3
	C978.7,200.5,976.9,198.2,975.2,195.8z"/>
<path d="M976,187.1c1.8-2.3,2.9-3.7,4.5-5.8c1.5,6.5,7.1,7.5,11.4,10.1c0.8,0.5,1.2,1.6,1.7,2.4c-0.7,0.4-1.7,1.3-2.2,1
	C986.4,192.3,981.4,189.7,976,187.1z"/>
<path d="M915.6,421.3c-0.4,2.8-0.8,6.6-1.5,10.4c-0.2,1.2-1.4,2.2-2.2,3.2c-0.6-1.2-1.7-2.3-1.9-3.5c-1.1-8.9,1.9-16.9,5.8-24.6
	c5.3,0.8,11.8-1.6,14.1,5.9c3.3-1.1,6.9-4.5,8.8,0.1c1.6,3.7-2.6,4-5.1,4.9c2,4.3,3.1,4.5,6.9,2.5c1.1-0.6,2.9,0.2,4.6,0.4
	c1.5-5.1,3.9-7,8.4-5.9c-0.4,0.7-0.5,1.7-1,1.9c-3.7,1.4-4.3,4.2-4.1,7.7c0.1,1.4-0.7,2.9-1.1,4.3c-1.3-0.9-2.6-1.8-3.9-2.8
	c-0.5-0.4-0.8-1-1.3-1.8c-4.2,2.7-7.2,0.6-10.2-2.3c-0.7-0.7-1.9-1.2-2.9-1.2C924.8,420.5,920.7,420.9,915.6,421.3z M922.4,419.6
	c2.4-1.5,4.6-2.1,5.3-3.4c0.9-1.9-3.1-6.7-5-6c-2.1,0.8-3.8,2.8-5.7,4.2C918.6,416,920.3,417.6,922.4,419.6z"/>
<path d="M991.6,421.6c-3.3-0.1-6.6,0.1-9.8-0.3c-3-0.4-4.7,0.5-4.7,3.6c0,2.8,0.3,5.5,0.4,8.3c0,1-0.4,2.1-0.6,3.1
	c-0.8-0.8-2.3-1.6-2.4-2.5c-0.4-4-0.5-8.1-0.7-12.6c-1.5,0.1-3.1,0.2-6.2,0.3c1.7,2.9,3,5,4.1,7.2c0.5,0.9,0.5,2.1,0.7,3.1
	c-1-0.4-2.2-0.5-3-1.1c-1.3-1.1-2.3-2.6-3.2-3.7c-2.8,0.8-5.4,1.9-8.1,2.2c-3.1,0.3-4.3-1.5-3.5-4.6c1.3-4.9,5.6-7.3,10.7-6.6
	c3.1,0.4,6.3,0,9.4-0.4c0.7-0.1,1.3-1.7,1.7-2.8c0.5-1.1,0.5-2.4,1.1-3.4c0.4-0.6,1.4-0.8,2.2-1.1c0.2,0.7,0.7,1.4,0.6,2.1
	c-0.2,1.7-0.7,3.3-1.1,4.9c3.9,2.8,9.6-0.7,12.3,4.5C991.5,421.6,991.6,421.6,991.6,421.6z"/>
<path d="M991.5,421.6c5.3-2.2,9.4,1.2,13.8,3.6c0.6,3.9-1.8,8.1-6,10c-3.9,1.8-10.3,0.7-12.6-2.1c-2.1-2.6-1.2-7.8,1.8-9.8
	c1-0.7,2.1-1.2,3.1-1.8C991.6,421.6,991.5,421.6,991.5,421.6z M991.2,425.7c0,0.4-0.1,0.8-0.1,1.1c1.1,0.6,2.2,1.7,3.4,1.7
	c1.6,0,3.2-0.6,4.8-1.2c0.2-0.1,0.2-1.6,0-1.7c-1.4-0.5-2.9-1.2-4.4-1.2C993.6,424.4,992.4,425.2,991.2,425.7z"/>
<path d="M898.3,398.3c3.5,1.7,7.3,3,10.4,5.2c3.5,2.5,3.7,6.8,1.2,10.3c-2.1,3-5.7,3.4-9.6,1.4c-5.4-2.7-7.2-7.9-8.3-12.9
	C891.2,398.5,895.5,399.6,898.3,398.3z M897.2,401.5c1,2.8,2.7,5.1,2.4,7.2c-0.4,3.7,2.5,3.7,4.3,4.4c0.9,0.3,3.5-1,3.6-1.8
	c0.2-1.8,0.1-4.7-1.1-5.5C903.7,403.9,900.3,402.8,897.2,401.5z"/>
<path d="M370.7,212.5c-5.9,0.1-8.5-3-7.4-8.8c0.2-1.3,0.1-2.6,0.1-3.9c-0.1-5.8,4.7-9.5,10.2-7.5c4.7,1.7,7.7,5.2,8.6,10.2
	C383.1,208.3,378.3,212.4,370.7,212.5z M373.3,208.5c0.3,0.4,0.5,0.9,0.8,1.3c1.6-1.7,3.9-3.1,4.5-5c1.1-3.4-1-6.1-3.7-8.1
	c-2.4-1.7-5-3-7.4-0.2c-2.2,2.6-0.9,4.9,1,7C370.2,205.1,371.8,206.8,373.3,208.5z"/>
<path d="M414.3,208.4c-0.8,0.4-1.4,0.7-2,0.9c-4.3,1.9-6.2,1.4-8-2c-2.2-4.2-1.6-8.4,1.9-10.1c1.4-0.7,3.5-0.6,5.1-0.1
	c0.7,0.2,1.6,2.8,1.2,3.2c-1,1.2-2.6,1.8-4.1,2.5c-0.5,0.3-1.2,0.2-1.9,0.3c0.8,4.6,1.2,4.5,5,3.1c2-0.7,4.5,0.1,6.8,0.2
	c0.1,0.4,0.2,0.8,0.3,1.2c0.5-2,0.6-4.4,1.7-5.9c1.7-2.3,4.1-4.1,6.4-6c0.4-0.3,1.6,0.4,2.4,0.6c-0.4,0.7-0.6,1.9-1.2,2.1
	c-5.5,1.8-5.7,6.4-5.9,11c-0.1,1.6-0.8,3.1-1.2,4.7c-1.4-0.9-2.8-1.7-4.1-2.8C415.9,210.7,415.2,209.5,414.3,208.4z"/>
<path d="M387.3,202.9c0.5-1.7,0.8-3.5,1.4-5.2c1.3-3.6,3.9-4.4,6.7-1.7c1.7,1.6,3.2,3.6,3.9,5.8c0.9,2.9-2.1,6-5.9,5.8
	c-3.5-0.2-4.7,1.2-5.1,4.3c-0.2,1.7-0.7,3.4-1.3,5c-0.3,0.7-1.3,1.1-1.9,1.6c-0.5-0.7-1.3-1.3-1.4-2.1c-0.4-4.9-0.7-9.8-0.7-14.7
	c0-1.3,1.2-2.5,1.9-3.8c0.4,1.3,0.9,2.5,1.3,3.8c0.1,0.4,0.2,0.8,0.3,1.1C386.7,202.8,387,202.8,387.3,202.9z M390.1,205.3
	c2.7-1,4.3-1.6,6-2.3c-0.9-1.8-1.9-3.6-2.8-5.4c-0.4,0.1-0.8,0.3-1.3,0.4C391.5,199.9,391,201.9,390.1,205.3z"/>
<path d="M439.7,209.2c-0.3,0.1-0.6,0.2-0.8,0.3c-3.1,2.3-6.3,2.9-9.5,0.5c-2.5-1.8-1.8-4.2-0.8-6.5c1.8-4,5.8-6.8,9-5.7
	c1.7,0.6,4.2,3,4.1,4.4c-0.4,4.2,1.8,6.4,4.6,8.7c0.7,0.6,0.9,1.9,1.3,2.9c-1.1-0.2-2.3,0-3.1-0.5
	C442.8,212.2,441.4,210.8,439.7,209.2z M430.3,206.3c2.8,0,4.5,0.4,5.8-0.1c1.1-0.5,1.9-2,2.6-3.2c0.2-0.3-0.6-1.8-1-1.8
	c-1.2,0-2.7,0-3.6,0.7C432.9,202.8,432.1,204.2,430.3,206.3z"/>
<path d="M460.5,209c1.8-2.9,3.4-5.9,5.5-8.6c2-2.7,4.9-3.7,8.1-2.1c3.2,1.6,4.9,4.2,4.1,7.8c-0.8,3.4-2.9,6.6-6.7,6.2
	c-3.8-0.4-7.5-2.2-11.2-3.4L460.5,209z M465.4,206.5c0.2,0.4,0.5,0.8,0.7,1.1c2.1-0.1,4.2,0.1,6.2-0.4c1.1-0.2,2.6-1.3,2.7-2.2
	c0.2-1-0.7-2.7-1.7-3.2c-1-0.6-3-0.8-3.8-0.2C467.9,202.8,466.8,204.8,465.4,206.5z"/>
<path d="M460.4,208.9c0.4,1.2,0.9,2.4,1.6,4.4c-4.9-0.8-6.2-4.3-8-7c-2-2.9-3.6-6-5.6-9.3c0.2-1.7,0.4-4.1,0.9-6.4
	c0.2-0.9,1.1-1.6,1.6-2.3c0.5,0.8,1.5,1.6,1.4,2.3c-0.4,4.1,0.5,6.8,5.4,6.2c0.8-0.1,1.7,1.2,2.5,1.9c-0.9,0.5-1.8,1.2-2.8,1.4
	c-0.8,0.2-1.7-0.2-2.6-0.3c-0.3,0.3-0.6,0.6-0.9,0.9c2.2,2.8,4.3,5.6,6.5,8.4C460.5,209,460.4,208.9,460.4,208.9z"/>
<path d="M487.3,205.2c3.8-5.8,8.9-8.3,13.7-6.2c-1.9,1-3.2,1.9-4.6,2.4c-3.4,1.2-5.8,3.1-5.9,7.1c0,0.8-0.7,1.6-1.1,2.4
	c-0.8-0.4-1.7-0.6-2.3-1.2c-2.2-2.3-4.3-4.7-6.2-7.2c-0.5-0.6-0.1-1.8-0.1-2.7c0.8,0.3,1.8,0.3,2.4,0.8
	C484.6,201.8,485.8,203.4,487.3,205.2z"/>
<g>
	<path d="M745.6,397.2c10.7-4.8,21.2-10.3,31.2-16.5"/>
</g>
<g>
	<path d="M754.4,304.2c2.4,2.6,6.6,2.8,9.9,1.5s5.9-3.9,8.4-6.5c0.9-0.9,1.8-1.8,2.1-3s-0.1-2.7-1.3-3.1"/>
</g>
<g>
	<path d="M684.7,330c3.1,2.4,7.6,1.1,11-0.8c6.1-3.3,11.3-8.1,15.2-13.9"/>
</g>
<path d="M1017.7,734.1c9.1,0.5,10.7-10.2,8.1-16.9c-2.7-7-12-12.7-16.4-3.8c-3.9,7.9-5.6,21.4,2.1,27.6c5.6,4.6,14.4,1.8,15.2-5.6
	c0.2-1.9-2.8-1.9-3,0c-0.9,7.8-10.3,4.9-12.8,0.3c-2.8-5-1.5-11-0.2-16.3c5.5-22.6,22.6,12.6,7,11.7
	C1015.8,731,1015.8,734,1017.7,734.1L1017.7,734.1z"/>
<path d="M1033.3,720.3c-2.4-15.1-6.5-29.7-12.5-43.8c-0.6-1.5-2.9-1.4-2.9,0.4c-0.6,15.6,1.6,32.1,7.9,46.5c1.9,4.3,4.9,9,9.9,9.6
	c5.3,0.7,9.6-3.6,11.9-7.9c3.1-5.8,4-12.6,3.7-19.1c-0.1-3.2-0.5-6.4-1-9.6c-0.6-3.4-0.8-8.1-2.4-11.2c-1.6-3.3-4.8-2.8-6.8-0.3
	c-3.7,4.4-3.9,13.8-3.6,19.2c0.5,11,10.6,24.1,22.7,17.7c1.7-0.9,0.2-3.5-1.5-2.6c-5.7,3-12.3-0.4-15.5-5.5
	c-3.5-5.6-2.9-13-1.9-19.3c0.3-1.6,0.8-9.3,4.2-7.3c0.9,0.6,1.5,7,1.7,8.3c1.1,6.3,1.8,12.8,0.8,19.2c-0.9,5.6-4.8,17.3-12.6,15.2
	c-5.6-1.5-7.7-10-9.3-14.7c-4-12.4-5.6-25.3-5-38.2c-1,0.1-2,0.3-2.9,0.4c5.9,14.1,10.1,28.7,12.5,43.8
	C1030.7,723,1033.6,722.2,1033.3,720.3L1033.3,720.3z"/>
<path d="M1071.6,684.6c3-9.6,2.1-19.5-2.7-28.4c-0.9-1.6-3-0.4-2.7,1.2c4.7,32.2,14.5,63.4,28.9,92.6c0.9,1.7,3.4,0.2,2.6-1.5
	c-14.3-29-23.9-60-28.6-91.9c-0.9,0.4-1.8,0.8-2.7,1.2c4.3,8.2,5.1,17.2,2.4,26.1C1068.1,685.7,1071,686.5,1071.6,684.6
	L1071.6,684.6z"/>
<path d="M1059.8,701.1c6.9-4.1,13.9-8.3,20.8-12.4c1.7-1,0.1-3.6-1.5-2.6c-6.9,4.1-13.9,8.3-20.8,12.4
	C1056.6,699.5,1058.1,702.1,1059.8,701.1L1059.8,701.1z"/>
<path d="M1082.4,674.2c3.6,8.1,7.1,16.2,10.7,24.3c0.8,1.8,3.4,0.2,2.6-1.5c-3.6-8.1-7.1-16.2-10.7-24.3
	C1084.2,671,1081.6,672.5,1082.4,674.2L1082.4,674.2z"/>
<path d="M1120.4,651.2c3.6,8.1,7.1,16.2,10.7,24.3c0.8,1.8,3.4,0.2,2.6-1.5c-3.6-8.1-7.1-16.2-10.7-24.3
	C1122.2,648,1119.6,649.5,1120.4,651.2L1120.4,651.2z"/>
<g>
	<path d="M1085,656"/>
</g>
<path d="M1128.9,675.3c-0.7-0.4-1.4-0.8-2-1.2c0,0,0,0.1,0,0.1c-2.1,3.4-4.1,2.7-6.1-0.3c-3.1-4.7-6.2-9.3-9.4-14
	c-0.9-1.3-2.7-0.7-2.8,0.8c-0.8,8.6-1.1,17.2-0.9,25.8c-4.4-6-7.6-12.7-9.5-20c-0.5-1.9-3.4-1.1-2.9,0.8c2.4,9.2,6.7,17.5,12.9,24.8
	c0.8,1,2.6,0.2,2.6-1.1c-0.3-8.6-0.1-17.3,0.5-25.9l5.3,7.8c1.4,2.1,3,5.9,5.4,7.2c3.2,1.7,5.8-1.4,7.5-4.4
	C1129.2,675.6,1129.1,675.5,1128.9,675.3z"/>
<path d="M1124.8,615.3c8,16,16.6,31.7,25.8,47c1,1.7,3.6,0.1,2.6-1.5c-9.2-15.3-17.8-31-25.8-47
	C1126.5,612.1,1123.9,613.6,1124.8,615.3L1124.8,615.3z"/>
<path d="M1128.3,647.5c12.4-5.1,27.1-12.4,27.1-27.9c0-1-1-1.7-1.9-1.4c-8.7,2.4-4.3,17.1-2,22.6c3.3,7.9,12.6,14,20.4,8
	c1.5-1.2-0.6-3.3-2.1-2.1c-7.1,5.5-14.2-2.8-16.3-9c-1.1-3.4-4.8-15,0.7-16.5c-0.6-0.5-1.3-1-1.9-1.4c0,14-13.8,20.4-24.9,25
	C1125.7,645.3,1126.5,648.2,1128.3,647.5L1128.3,647.5z"/>
<path d="M1153.6,590c11,14,11.5,34.8,24.3,47.4c4,4,9,2.4,9.6-3.3c0.9-8.7-3.1-18.8-6.8-26.4c-0.8-1.7-3-0.4-2.7,1.2
	c0.8,5.3,5.4,17.6,12.7,16.1c7.5-1.6,8.3-14,7.5-19.8c-0.3-1.7-2.9-1.2-2.9,0.4c-0.4,11.3-0.1,22.6,1.1,33.8
	c0.8,8.2,1.4,17.1,7.1,23.5c1.3,1.5,3.4-0.7,2.1-2.1c-6.2-7-6.1-18.4-6.8-27.2c-0.7-9.3-0.9-18.7-0.5-28c-1,0.1-2,0.3-2.9,0.4
	c0.6,4.3-0.3,18.7-8,14.9c-4-2-5.9-8.9-6.5-12.8c-0.9,0.4-1.8,0.8-2.7,1.2c3.4,7,6.4,15.3,6.5,23.2c0,4.1-3.5,3.7-6,1.3
	c-1.3-1.2-2.3-3.1-3.2-4.6c-1.6-2.6-2.9-5.3-4.1-8c-4.9-11.3-7.9-23.3-15.6-33.1C1154.5,586.3,1152.4,588.5,1153.6,590L1153.6,590z"
	/>
<path d="M1144.3,710.6c6.3,11.7,12.5,23.4,18.8,35c0.9,1.7,3.5,0.2,2.6-1.5c-6.3-11.7-12.5-23.4-18.8-35
	C1146,707.4,1143.4,708.9,1144.3,710.6L1144.3,710.6z"/>
<path d="M1151.6,691.5c2.9,6.8,5.8,13.7,8.8,20.5c0.8,1.8,3.3,0.2,2.6-1.5c-2.9-6.8-5.8-13.7-8.8-20.5
	C1153.4,688.2,1150.8,689.8,1151.6,691.5L1151.6,691.5z"/>
<path d="M1172.7,711.9c3.7,6.6,7.4,13.1,11.2,19.7c1,1.7,3.4,0.2,2.6-1.5c-3.9-8.3-6.3-17-7.2-26.2c-0.9,0.4-1.7,0.7-2.6,1.1
	c6.2,4.8,10.5,11,12.8,18.5c0.5,1.6,3,1.3,2.9-0.4c-0.3-8.1-0.6-16.2-0.9-24.3c-0.9,0.3-1.9,0.5-2.8,0.8c3.7,6.7,8.4,12.6,14.3,17.5
	c1.5,1.2,3.6-0.9,2.1-2.1c-5.7-4.8-10.2-10.4-13.8-16.9c-0.7-1.3-2.8-0.7-2.8,0.8c0.3,8.1,0.6,16.2,0.9,24.3c1-0.1,2-0.3,2.9-0.4
	c-2.4-8-7-14.7-13.6-19.9c-0.9-0.7-2.7-0.4-2.6,1.1c1,9.7,3.5,18.9,7.6,27.7c0.9-0.5,1.7-1,2.6-1.5c-3.7-6.6-7.4-13.1-11.2-19.7
	C1174.3,708.7,1171.7,710.2,1172.7,711.9L1172.7,711.9z"/>
<path d="M1234.9,668c-0.8-7.2-4.2-15.3-10.7-19.2c-4.6-2.8-6.4,1.8-4.9,5.7c3.8,10.4,9.4,20.5,14,30.6c4.9,10.7,9.8,21.5,14.7,32.2
	c0.8,1.8,3.4,0.2,2.6-1.5c-6.3-13.7-12.5-27.4-18.8-41.1c-3-6.6-6.1-13.1-9-19.7c-1.3-2.9-0.5-3.6,1.8-2c1.3,0.9,2.9,3.2,3.6,4.4
	c2.1,3.3,3.2,6.9,3.6,10.7C1232.1,669.9,1235.1,670,1234.9,668L1234.9,668z"/>
<path d="M1214.4,693.3c4-5.9,9.6-10.5,16.2-13.3c1.8-0.7,1-3.6-0.8-2.9c-7.4,3.1-13.5,8-18,14.7
	C1210.8,693.4,1213.4,694.9,1214.4,693.3L1214.4,693.3z"/>
<path d="M1241.3,655.9c4.9,6.3,8,13.7,9,21.7c0.2,1.9,3.2,1.9,3,0c-1.1-8.9-4.4-16.8-9.9-23.8
	C1242.2,652.2,1240.1,654.4,1241.3,655.9L1241.3,655.9z"/>
<g>
	<path d="M1241.2,639.8"/>
</g>
<path d="M1250.9,647.2c3.8,7.7,7.6,15.4,11.4,23.1c0.8,1.5,3.2,0.5,2.7-1.2c-2.3-7.5-2.8-15-1.3-22.7c-0.8,0.2-1.7,0.4-2.5,0.7
	c4.6,5.4,9,12.4,14.5,16.9c2.9,2.4,6.5,2.6,8.9-0.5c2.9-3.7,2.7-9.8,2.7-14.1c-0.1-5.7-0.6-12.4-3-17.6c-1.3-2.7-3.7-5-6.9-3.9
	c-4.1,1.5-4.3,6.3-3.6,9.9c1.9,8.8,6.7,20.2,17.6,18.4c1.9-0.3,1.1-3.2-0.8-2.9c-7.9,1.3-11.4-7.2-13.1-13.3c-0.4-1.3-1.2-3-1-4.3
	c-0.7-1.6,0.1-2.4,2.4-2.1c2.1-1.6,3.2-1.2,3.3,1.2c1.1,3.3,1.6,6.8,1.9,10.2c0.3,3,0.3,6,0.1,9c-0.1,1.3,0,3.3-0.5,4.5
	c-0.1,1.9-1.3,2.5-3.6,1.9c-1.7,1.3-2.9,1.3-3.7,0c-2.3-1.4-4.3-5.1-6.1-7.2c-2.3-2.7-4.5-5.4-6.8-8.1c-0.7-0.8-2.3-0.4-2.5,0.7
	c-1.6,8.2-1.2,16.3,1.3,24.3c0.9-0.4,1.8-0.8,2.7-1.2c-3.8-7.7-7.6-15.4-11.4-23.1C1252.6,644,1250,645.5,1250.9,647.2L1250.9,647.2
	z"/>
<path d="M976.5,758.1c0.3-0.3,0.5-0.5,0.8-0.8c0.6-0.6,0.6-1.5,0-2.1c-0.6-0.6-1.5-0.6-2.1,0c-0.3,0.3-0.5,0.5-0.8,0.8
	c-0.6,0.6-0.6,1.5,0,2.1C974.9,758.7,975.9,758.7,976.5,758.1L976.5,758.1z"/>
<g>
	<path d="M986.5,750"/>
</g>
<path d="M995.6,745.6c0.5-0.5,1.1-1.1,1.6-1.6c0.6-0.6,0.6-1.5,0-2.1c-0.6-0.6-1.5-0.6-2.1,0c-0.5,0.5-1.1,1.1-1.6,1.6
	c-0.6,0.6-0.6,1.5,0,2.1C994,746.2,995,746.2,995.6,745.6L995.6,745.6z"/>
<ellipse cx="1077.5" cy="660" rx="2.5" ry="1"/>
<ellipse cx="1114.2" cy="639" rx="0.8" ry="2"/>
<ellipse cx="1234.8" cy="640.8" rx="2.2" ry="0.5"/>
</svg>
