<?xml version="1.0" encoding="utf-8"?>
<!-- Generator: Adobe Illustrator 22.0.1, SVG Export Plug-In . SVG Version: 6.00 Build 0)  -->
<svg version="1.0" id="Ebene_1" xmlns="http://www.w3.org/2000/svg" xmlns:xlink="http://www.w3.org/1999/xlink" x="0px" y="0px"
	 viewBox="0 0 401.2 1521" enable-background="new 0 0 401.2 1521" xml:space="preserve">
<g opacity="0.9">
	<polygon opacity="0.6" fill="#64398E" points="399.2,975.7 0,745.2 0,1206.2 	"/>
	<polygon opacity="0.6" fill="#64398E" points="401.2,613.9 2,383.4 2,844.4 	"/>
	<polygon opacity="0.6" fill="#64398E" points="86.4,249.9 0.8,385.1 171.9,385.1 	"/>
	<polygon opacity="0.6" fill="#D36E00" points="397.8,972.6 57.8,952.2 348.8,1309.7 	"/>
	<polygon opacity="0.6" fill="#D36E00" points="3.6,1337.6 0.9,1521 176.3,1399.5 	"/>
	<polygon opacity="0.6" fill="#D36E00" points="4.6,383.3 177,744.1 359.6,199.2 	"/>
	<polygon opacity="0.6" fill="#3B6AAD" points="255.3,1195.2 1.6,880.5 1.6,1509.8 	"/>
	<polygon opacity="0.6" fill="#3B6AAD" points="255.3,803.1 1.6,611.2 1.6,995.1 	"/>
	<polygon opacity="0.6" fill="#3B6AAD" points="124.6,192 1.6,0 1.6,384 	"/>
	<polygon opacity="0.6" fill="#3B6AAD" points="268.9,470.5 163.6,476.7 316.2,564.8 	"/>
</g>
</svg>
