<?xml version="1.0" encoding="utf-8"?>
<!-- Generator: Adobe Illustrator 22.0.1, SVG Export Plug-In . SVG Version: 6.00 Build 0)  -->
<svg version="1.0" id="Ebene_1" xmlns="http://www.w3.org/2000/svg" xmlns:xlink="http://www.w3.org/1999/xlink" x="0px" y="0px"
	 viewBox="0 0 597.2 143.7" enable-background="new 0 0 597.2 143.7" xml:space="preserve">
<g>
	<g>
		<path fill="#0F0F0F" d="M81.2,75.1c-0.8-0.5-1.2-1.6-1.2-3.2V58.5c0-1.4,0.4-2.5,1.1-3.1c0.8-0.6,1.7-1,2.8-1c1,0,3.3,0,6.8,0.1
			l2.1,0.1V56h-8.4c-0.9,0-1.5,0.2-2,0.7c-0.5,0.5-0.7,1.1-0.7,2.1v5.7l9.9,0.1v1.2l-9.9,0.1v5.6c0,1.1,0.3,1.8,0.8,2.2
			s1.2,0.6,2.1,0.6h8.2v1.3c-2.6,0.1-5.4,0.2-8.5,0.3C83,75.9,82,75.6,81.2,75.1z"/>
		<path fill="#0F0F0F" d="M95.2,60.3h1.7l5.3,13.9l5.4-13.9h1.7l-6.2,15.5h-1.9L95.2,60.3z"/>
		<path fill="#0F0F0F" d="M112.2,57.3c-0.1-0.1-0.1-0.2-0.1-0.3v-2.1c0-0.3,0.1-0.4,0.4-0.4h1.1c0.3,0,0.4,0.1,0.4,0.4v2.1
			c0,0.3-0.1,0.4-0.4,0.4h-1.1C112.4,57.4,112.3,57.3,112.2,57.3z M112.2,60.3h1.7v15.5h-1.7V60.3z"/>
		<path fill="#0F0F0F" d="M119.6,74.7c-0.6-0.7-0.9-2-0.9-3.8V53.6h1.7v17c0,1,0.1,1.7,0.3,2.2c0.2,0.5,0.4,0.9,0.8,1.1
			c0.3,0.2,0.8,0.3,1.3,0.4l1.7,0.2v1.2h-1.9C121.2,75.8,120.2,75.4,119.6,74.7z"/>
		<path fill="#0F0F0F" d="M134.9,54.5h1.7v21.3h-1.7V54.5z"/>
		<path fill="#0F0F0F" d="M141.3,60.3h1.2L143,62c0.9-0.6,1.8-1.1,2.8-1.4c1-0.4,2-0.6,3.1-0.6c1.5,0,2.7,0.5,3.6,1.5
			c0.8,1,1.2,2.2,1.2,3.6v10.6H152V65.3c0-1.1-0.3-2-1-2.7c-0.6-0.7-1.5-1.1-2.6-1.1c-1,0-1.9,0.1-2.7,0.4c-0.8,0.3-1.7,0.7-2.7,1.2
			v12.6h-1.7V60.3z"/>
		<path fill="#0F0F0F" d="M160.3,75.8c-1.4-0.1-2.3-0.1-2.7-0.2v-1h6.2c1.2,0,2.1-0.2,2.7-0.5c0.6-0.3,0.9-1,0.9-2.1v-0.8
			c0-0.8-0.3-1.4-0.8-1.8c-0.5-0.4-1.3-0.6-2.3-0.6h-2.1c-1.5,0-2.7-0.3-3.5-0.8s-1.2-1.5-1.2-2.9v-0.8c0-1.4,0.4-2.5,1.3-3.1
			c0.8-0.7,2.2-1,4-1c0.8,0,1.8,0,2.9,0.1c1.1,0.1,2,0.2,2.6,0.2v1h-5.8c-1.2,0-2.1,0.2-2.6,0.6c-0.6,0.4-0.9,1.1-0.9,2.1V65
			c0,0.9,0.3,1.6,0.8,1.9c0.6,0.3,1.4,0.5,2.5,0.5h2.1c1.4,0,2.5,0.3,3.2,1c0.8,0.6,1.2,1.6,1.2,2.8v1c0,1.5-0.5,2.5-1.4,3
			c-0.9,0.6-2.2,0.8-3.9,0.8C162.8,75.9,161.7,75.9,160.3,75.8z"/>
		<path fill="#0F0F0F" d="M172.8,60.3h1.3l0.4,1.6c0.6-0.4,1.4-0.8,2.5-1.2c1-0.4,2-0.6,2.8-0.6c1.9,0,3.3,0.8,4.2,2.3
			c0.9,1.5,1.3,3.4,1.3,5.6c0,5.3-1.9,7.9-5.6,7.9c-0.9,0-1.7-0.1-2.7-0.4c-0.9-0.3-1.8-0.7-2.6-1.2v8.3h-1.7V60.3z M183.6,68
			c0-2.2-0.4-3.8-1.2-4.9s-1.8-1.6-3-1.6c-0.9,0-1.7,0.1-2.5,0.4c-0.7,0.3-1.6,0.6-2.5,1.1v10.1c1.7,0.9,3.3,1.4,4.9,1.4
			C182.2,74.5,183.6,72.3,183.6,68z"/>
		<path fill="#0F0F0F" d="M189.5,57.3c-0.1-0.1-0.1-0.2-0.1-0.3v-2.1c0-0.3,0.1-0.4,0.4-0.4h1.1c0.3,0,0.4,0.1,0.4,0.4v2.1
			c0,0.3-0.1,0.4-0.4,0.4h-1.1C189.6,57.4,189.5,57.3,189.5,57.3z M189.5,60.3h1.7v15.5h-1.7V60.3z"/>
		<path fill="#0F0F0F" d="M195.9,60.3h1.2l0.4,2.8c0.8-0.9,1.7-1.7,2.6-2.2c0.9-0.5,1.9-0.8,3-0.8c0.6,0,1.1,0.1,1.5,0.2V62
			c-0.7-0.1-1.2-0.2-1.7-0.2c-1.1,0-2,0.2-2.8,0.6c-0.8,0.4-1.7,1-2.6,2v11.4h-1.7V60.3z"/>
		<path fill="#0F0F0F" d="M207.3,74.9c-0.7-0.7-1.1-1.6-1.1-2.8v-1c0-1.3,0.4-2.3,1.2-3c0.8-0.7,2-1.1,3.5-1.1h5.7v-2.1
			c0-1.1-0.3-2-0.9-2.5c-0.6-0.6-1.7-0.8-3.3-0.8h-4.8v-1c1.9-0.3,3.7-0.4,5.4-0.4c1.8,0,3.2,0.4,4,1.1s1.3,1.9,1.3,3.5v11H217
			l-0.3-1.8c-0.1,0.1-0.6,0.3-1.3,0.6c-0.8,0.3-1.6,0.6-2.6,0.9c-0.9,0.3-1.8,0.4-2.7,0.4C208.9,75.9,208,75.6,207.3,74.9z
			 M213,74.2c0.9-0.2,1.6-0.5,2.3-0.7c0.7-0.2,1.1-0.4,1.3-0.5v-5.2l-5.4,0.2c-1.1,0-2,0.3-2.5,0.9c-0.5,0.5-0.8,1.3-0.8,2.1v0.7
			c0,1,0.3,1.7,0.9,2.1c0.6,0.4,1.3,0.7,2.1,0.7C211.4,74.6,212.1,74.5,213,74.2z"/>
		<path fill="#0F0F0F" d="M224.6,74.6c-0.7-0.8-1-2-1-3.7l0.1-9.2h-2.5v-1.1l2.5-0.3L224,56h1.3v4.3h4.7v1.4h-4.7v9.2
			c0,1.3,0.2,2.2,0.7,2.7c0.5,0.5,1.1,0.7,1.8,0.8l1.9,0.2v1.2h-1.9C226.4,75.7,225.3,75.4,224.6,74.6z"/>
		<path fill="#0F0F0F" d="M233.4,57.3c-0.1-0.1-0.1-0.2-0.1-0.3v-2.1c0-0.3,0.1-0.4,0.4-0.4h1.1c0.3,0,0.4,0.1,0.4,0.4v2.1
			c0,0.3-0.1,0.4-0.4,0.4h-1.1C233.5,57.4,233.4,57.3,233.4,57.3z M233.4,60.3h1.7v15.5h-1.7V60.3z"/>
		<path fill="#0F0F0F" d="M242.1,75.3c-0.9-0.4-1.6-1.2-2.1-2.4s-0.7-2.8-0.7-4.9c0-2.1,0.2-3.8,0.7-4.9s1.2-1.9,2.1-2.3
			c0.9-0.4,2.2-0.6,3.7-0.6s2.8,0.2,3.7,0.6c0.9,0.4,1.6,1.2,2.1,2.3c0.5,1.1,0.7,2.8,0.7,4.9s-0.2,3.8-0.7,4.9
			c-0.5,1.1-1.2,1.9-2.1,2.4c-0.9,0.4-2.2,0.7-3.7,0.7C244.2,75.9,243,75.7,242.1,75.3z M248.5,74c0.7-0.3,1.2-0.9,1.6-1.9
			c0.4-0.9,0.6-2.3,0.6-4.2c0-1.9-0.2-3.3-0.6-4.2c-0.4-0.9-0.9-1.6-1.6-1.9c-0.7-0.3-1.6-0.4-2.8-0.4c-1.2,0-2.1,0.2-2.8,0.4
			c-0.7,0.3-1.2,0.9-1.6,1.9c-0.4,0.9-0.5,2.3-0.5,4.2c0,1.9,0.2,3.2,0.5,4.2c0.4,0.9,0.9,1.5,1.6,1.9s1.6,0.5,2.8,0.5
			C246.9,74.5,247.9,74.3,248.5,74z"/>
		<path fill="#0F0F0F" d="M256.5,60.3h1.2l0.4,1.7c0.9-0.6,1.8-1.1,2.8-1.4c1-0.4,2-0.6,3.1-0.6c1.5,0,2.7,0.5,3.6,1.5
			s1.2,2.2,1.2,3.6v10.6h-1.7V65.3c0-1.1-0.3-2-1-2.7c-0.6-0.7-1.5-1.1-2.6-1.1c-1,0-1.9,0.1-2.7,0.4c-0.8,0.3-1.7,0.7-2.7,1.2v12.6
			h-1.7V60.3z"/>
		<path fill="#0F0F0F" d="M282.3,61.7h-2.4v-1.1l2.4-0.3v-2c0-1.6,0.3-2.9,0.9-3.7c0.6-0.8,1.7-1.2,3.3-1.2c0.9,0,1.9,0.1,2.9,0.2
			v1.2h-2.6c-1.1,0-1.8,0.3-2.2,0.8c-0.4,0.5-0.6,1.4-0.6,2.6v2.1h5v1.4h-5v14h-1.7V61.7z"/>
		<path fill="#0F0F0F" d="M294.2,75.3c-0.9-0.4-1.6-1.2-2.1-2.4c-0.5-1.2-0.7-2.8-0.7-4.9c0-2.1,0.2-3.8,0.7-4.9
			c0.5-1.1,1.2-1.9,2.1-2.3c0.9-0.4,2.2-0.6,3.7-0.6c1.5,0,2.8,0.2,3.7,0.6c0.9,0.4,1.6,1.2,2.1,2.3c0.5,1.1,0.7,2.8,0.7,4.9
			s-0.2,3.8-0.7,4.9s-1.2,1.9-2.1,2.4c-0.9,0.4-2.2,0.7-3.7,0.7C296.4,75.9,295.1,75.7,294.2,75.3z M300.7,74
			c0.7-0.3,1.2-0.9,1.6-1.9s0.6-2.3,0.6-4.2c0-1.9-0.2-3.3-0.6-4.2s-0.9-1.6-1.6-1.9c-0.7-0.3-1.6-0.4-2.8-0.4
			c-1.2,0-2.1,0.2-2.8,0.4c-0.7,0.3-1.2,0.9-1.6,1.9c-0.4,0.9-0.5,2.3-0.5,4.2c0,1.9,0.2,3.2,0.5,4.2c0.4,0.9,0.9,1.5,1.6,1.9
			c0.7,0.3,1.6,0.5,2.8,0.5C299,74.5,300,74.3,300.7,74z"/>
		<path fill="#0F0F0F" d="M308.6,60.3h1.2l0.4,2.8c0.8-0.9,1.7-1.7,2.6-2.2c0.9-0.5,1.9-0.8,3-0.8c0.6,0,1.1,0.1,1.5,0.2V62
			c-0.7-0.1-1.2-0.2-1.7-0.2c-1.1,0-2,0.2-2.8,0.6c-0.8,0.4-1.7,1-2.6,2v11.4h-1.7V60.3z"/>
		<path fill="#0F0F0F" d="M328.4,54.5h1.7v9.9h4.1l6.3-9.9h1.8l-6.7,10.6l6.8,10.6h-1.8l-6.3-9.9h-4v9.9h-1.7V54.5z"/>
		<path fill="#0F0F0F" d="M347.2,75.3c-0.9-0.4-1.6-1.2-2.1-2.4s-0.7-2.8-0.7-4.9c0-2.1,0.2-3.8,0.7-4.9s1.2-1.9,2.1-2.3
			c0.9-0.4,2.2-0.6,3.7-0.6s2.8,0.2,3.7,0.6c0.9,0.4,1.6,1.2,2.1,2.3c0.5,1.1,0.7,2.8,0.7,4.9s-0.2,3.8-0.7,4.9
			c-0.5,1.1-1.2,1.9-2.1,2.4c-0.9,0.4-2.2,0.7-3.7,0.7C349.4,75.9,348.1,75.7,347.2,75.3z M353.7,74c0.7-0.3,1.2-0.9,1.6-1.9
			c0.4-0.9,0.6-2.3,0.6-4.2c0-1.9-0.2-3.3-0.6-4.2c-0.4-0.9-0.9-1.6-1.6-1.9c-0.7-0.3-1.6-0.4-2.8-0.4c-1.2,0-2.1,0.2-2.8,0.4
			c-0.7,0.3-1.2,0.9-1.6,1.9c-0.4,0.9-0.5,2.3-0.5,4.2c0,1.9,0.2,3.2,0.5,4.2c0.4,0.9,0.9,1.5,1.6,1.9s1.6,0.5,2.8,0.5
			C352.1,74.5,353,74.3,353.7,74z"/>
		<path fill="#0F0F0F" d="M363.3,74.6c-0.7-0.8-1-2-1-3.7l0.1-9.2h-2.5v-1.1l2.5-0.3l0.3-4.3h1.3v4.3h4.7v1.4H364v9.2
			c0,1.3,0.2,2.2,0.7,2.7c0.5,0.5,1.1,0.7,1.8,0.8l1.9,0.2v1.2h-1.9C365.1,75.7,364,75.4,363.3,74.6z"/>
		<path fill="#0F0F0F" d="M373.1,74.7c-0.6-0.7-0.9-2-0.9-3.8V53.6h1.7v17c0,1,0.1,1.7,0.3,2.2c0.2,0.5,0.4,0.9,0.8,1.1
			c0.3,0.2,0.8,0.3,1.3,0.4l1.7,0.2v1.2h-1.9C374.6,75.8,373.7,75.4,373.1,74.7z"/>
		<path fill="#0F0F0F" d="M380.4,57.3c-0.1-0.1-0.1-0.2-0.1-0.3v-2.1c0-0.3,0.1-0.4,0.4-0.4h1.1c0.3,0,0.4,0.1,0.4,0.4v2.1
			c0,0.3-0.1,0.4-0.4,0.4h-1.1C380.6,57.4,380.5,57.3,380.4,57.3z M380.5,60.3h1.7v15.5h-1.7V60.3z"/>
		<path fill="#0F0F0F" d="M386.9,60.3h1.2l0.4,1.7c0.8-0.6,1.8-1.1,2.8-1.4c1-0.4,2-0.6,3.1-0.6c1.5,0,2.7,0.5,3.6,1.5
			c0.8,1,1.2,2.2,1.2,3.6v10.6h-1.7V65.3c0-1.1-0.3-2-1-2.7c-0.6-0.7-1.5-1.1-2.6-1.1c-1,0-1.9,0.1-2.7,0.4
			c-0.8,0.3-1.7,0.7-2.7,1.2v12.6h-1.7V60.3z"/>
		<path fill="#0F0F0F" d="M412.4,53.4h1.5v24.4h-1.5V53.4z"/>
		<path fill="#0F0F0F" d="M429.7,75.8c-1.4-0.1-2.4-0.2-3-0.3v-1.3c1.4,0.2,3.5,0.2,6.3,0.2c1.6,0,2.8-0.3,3.7-0.8
			c0.9-0.5,1.3-1.4,1.3-2.8v-1.6c0-1.1-0.3-1.9-0.8-2.5c-0.6-0.6-1.4-0.9-2.6-0.9H432c-1.8,0-3.1-0.4-4-1.1c-0.9-0.8-1.4-2-1.4-3.8
			v-1.2c0-1.9,0.5-3.3,1.5-4.1c1-0.8,2.5-1.3,4.5-1.3c0.8,0,1.8,0.1,3.1,0.2s2.2,0.2,3,0.3v1.3c-2.8-0.2-4.8-0.3-5.9-0.3
			c-1.5,0-2.6,0.3-3.4,0.9c-0.7,0.6-1.1,1.6-1.1,3.1v1.1c0,1.2,0.3,2.1,0.9,2.6c0.6,0.5,1.6,0.8,2.8,0.8h2.6c1.6,0,2.9,0.4,3.7,1.3
			c0.8,0.9,1.2,2,1.2,3.5v1.8c0,1.9-0.6,3.2-1.8,4s-2.8,1.1-4.8,1.1C432.2,75.9,431.1,75.9,429.7,75.8z"/>
		<path fill="#0F0F0F" d="M443.8,57.3c-0.1-0.1-0.1-0.2-0.1-0.3v-2.1c0-0.3,0.1-0.4,0.4-0.4h1.1c0.3,0,0.4,0.1,0.4,0.4v2.1
			c0,0.3-0.1,0.4-0.4,0.4h-1.1C443.9,57.4,443.8,57.3,443.8,57.3z M443.8,60.3h1.7v15.5h-1.7V60.3z"/>
		<path fill="#0F0F0F" d="M450.2,60.3h1.2l0.4,1.7c2-1.3,4-2,6-2c0.9,0,1.7,0.2,2.4,0.6c0.7,0.4,1.2,1,1.6,1.7
			c0.8-0.6,1.8-1.1,3-1.6s2.4-0.7,3.4-0.7c1.6,0,2.8,0.5,3.6,1.5c0.8,1,1.2,2.2,1.2,3.7v10.6h-1.7V65.3c0-1.1-0.3-2-1-2.7
			c-0.6-0.7-1.5-1.1-2.6-1.1c-0.9,0-1.9,0.2-2.9,0.5c-1,0.3-2,0.8-2.9,1.3c0.3,0.6,0.4,1.2,0.4,1.9v10.4h-1.7V65.3
			c0-1.1-0.3-2-1-2.7c-0.6-0.7-1.5-1.1-2.6-1.1c-1,0-1.9,0.1-2.7,0.4c-0.8,0.3-1.7,0.7-2.7,1.2v12.6h-1.7V60.3z"/>
		<path fill="#0F0F0F" d="M480.1,75.3c-0.9-0.4-1.6-1.2-2.1-2.4c-0.5-1.2-0.7-2.8-0.7-4.9c0-2.1,0.2-3.8,0.7-4.9
			c0.5-1.1,1.2-1.9,2.1-2.3c0.9-0.4,2.2-0.6,3.7-0.6c1.5,0,2.8,0.2,3.7,0.6c0.9,0.4,1.6,1.2,2.1,2.3c0.5,1.1,0.7,2.8,0.7,4.9
			s-0.2,3.8-0.7,4.9s-1.2,1.9-2.1,2.4c-0.9,0.4-2.2,0.7-3.7,0.7C482.3,75.9,481.1,75.7,480.1,75.3z M486.6,74
			c0.7-0.3,1.2-0.9,1.6-1.9s0.6-2.3,0.6-4.2c0-1.9-0.2-3.3-0.6-4.2s-0.9-1.6-1.6-1.9c-0.7-0.3-1.6-0.4-2.8-0.4
			c-1.2,0-2.1,0.2-2.8,0.4c-0.7,0.3-1.2,0.9-1.6,1.9c-0.4,0.9-0.5,2.3-0.5,4.2c0,1.9,0.2,3.2,0.5,4.2c0.4,0.9,0.9,1.5,1.6,1.9
			s1.6,0.5,2.8,0.5C485,74.5,485.9,74.3,486.6,74z"/>
		<path fill="#0F0F0F" d="M494.6,60.3h1.2l0.4,1.7c0.9-0.6,1.8-1.1,2.8-1.4c1-0.4,2-0.6,3.1-0.6c1.5,0,2.7,0.5,3.6,1.5
			s1.2,2.2,1.2,3.6v10.6h-1.7V65.3c0-1.1-0.3-2-1-2.7c-0.6-0.7-1.5-1.1-2.6-1.1c-1,0-1.9,0.1-2.7,0.4c-0.8,0.3-1.7,0.7-2.7,1.2v12.6
			h-1.7V60.3z"/>
		<path fill="#0F0F0F" d="M522.1,75.8c-1.4-0.1-2.4-0.2-3-0.3v-1.3c1.4,0.2,3.5,0.2,6.3,0.2c1.6,0,2.8-0.3,3.7-0.8s1.3-1.4,1.3-2.8
			v-1.6c0-1.1-0.3-1.9-0.8-2.5c-0.6-0.6-1.4-0.9-2.6-0.9h-2.5c-1.8,0-3.1-0.4-4-1.1c-0.9-0.8-1.4-2-1.4-3.8v-1.2
			c0-1.9,0.5-3.3,1.5-4.1c1-0.8,2.5-1.3,4.5-1.3c0.8,0,1.8,0.1,3.1,0.2c1.2,0.1,2.2,0.2,3,0.3v1.3c-2.8-0.2-4.8-0.3-5.9-0.3
			c-1.5,0-2.6,0.3-3.4,0.9s-1.1,1.6-1.1,3.1v1.1c0,1.2,0.3,2.1,0.9,2.6c0.6,0.5,1.6,0.8,2.8,0.8h2.6c1.6,0,2.9,0.4,3.7,1.3
			c0.8,0.9,1.2,2,1.2,3.5v1.8c0,1.9-0.6,3.2-1.8,4c-1.2,0.8-2.8,1.1-4.8,1.1C524.6,75.9,523.5,75.9,522.1,75.8z"/>
		<path fill="#0F0F0F" d="M537.2,74.2c-1.1-1.1-1.6-3.2-1.6-6.2c0-2.1,0.2-3.7,0.7-4.8c0.5-1.1,1.2-1.9,2.1-2.4
			c0.9-0.4,2-0.7,3.3-0.7c1.9,0,3.5,0.1,5,0.3v1h-4.6c-1.1,0-2,0.2-2.7,0.5c-0.7,0.4-1.2,1-1.6,2c-0.4,1-0.6,2.3-0.6,4.1
			c0,1.7,0.2,3,0.6,3.9c0.4,0.9,0.9,1.6,1.6,2c0.7,0.4,1.6,0.5,2.6,0.5h4.9v1c-1.8,0.2-3.5,0.3-5.3,0.3
			C539.8,75.9,538.3,75.3,537.2,74.2z"/>
		<path fill="#0F0F0F" d="M550.4,53.6h1.7V62c0.8-0.6,1.8-1.1,2.8-1.4c1-0.4,2.1-0.6,3.1-0.6c1.5,0,2.7,0.5,3.5,1.4
			c0.8,1,1.2,2.2,1.2,3.7v10.6h-1.7V65.3c0-1.1-0.3-1.9-1-2.7c-0.6-0.7-1.5-1.1-2.6-1.1c-1,0-1.9,0.1-2.7,0.4
			c-0.8,0.3-1.7,0.7-2.7,1.2v12.6h-1.7V53.6z"/>
		<path fill="#0F0F0F" d="M569.3,75.2c-0.9-0.5-1.5-1.3-1.9-2.5c-0.4-1.1-0.6-2.7-0.6-4.8c0-2,0.2-3.6,0.6-4.8s1.1-1.9,2-2.4
			s2.2-0.7,3.8-0.7c1.4,0,2.4,0.2,3.3,0.5s1.5,0.8,1.9,1.6c0.4,0.7,0.6,1.7,0.6,3c0,1.3-0.4,2.2-1.1,2.7c-0.7,0.6-1.8,0.9-3.1,0.9
			h-6.2c0,1.5,0.2,2.6,0.4,3.5c0.3,0.8,0.8,1.4,1.5,1.8c0.7,0.4,1.7,0.6,3.1,0.6h5.1v1c-1.9,0.2-3.7,0.3-5.5,0.3
			C571.5,75.9,570.2,75.7,569.3,75.2z M574.6,67.6c1,0,1.7-0.2,2.1-0.5c0.4-0.3,0.7-1,0.7-1.9c0-1-0.1-1.7-0.4-2.3
			c-0.3-0.5-0.7-0.9-1.3-1.1c-0.6-0.2-1.4-0.3-2.5-0.3c-1.3,0-2.2,0.2-2.9,0.5c-0.7,0.4-1.1,1-1.4,1.8s-0.4,2.1-0.4,3.8H574.6z"/>
		<path fill="#0F0F0F" d="M584.1,74.7c-0.6-0.7-0.9-2-0.9-3.8V53.6h1.7v17c0,1,0.1,1.7,0.3,2.2c0.2,0.5,0.4,0.9,0.8,1.1
			c0.3,0.2,0.8,0.3,1.3,0.4l1.7,0.2v1.2h-1.9C585.6,75.8,584.7,75.4,584.1,74.7z"/>
		<path fill="#0F0F0F" d="M592.4,74.7c-0.6-0.7-0.9-2-0.9-3.8V53.6h1.7v17c0,1,0.1,1.7,0.3,2.2c0.2,0.5,0.4,0.9,0.8,1.1
			c0.3,0.2,0.8,0.3,1.3,0.4l1.7,0.2v1.2h-1.9C594,75.8,593,75.4,592.4,74.7z"/>
	</g>
	<g>
		<path fill="#0F0F0F" d="M3.9,17.1c-0.1,0-0.2,0-0.3-0.1c-0.1-0.1-2.1-1.9-3.1-4.8c-0.9-2.7-1.2-6.9,3-11.6L4.1,0l0.3,0.7
			c2.7,6.8,6.5,14.5,12.2,14.2c0.3,0,0.5,0.2,0.5,0.4c0,0.3-0.2,0.5-0.4,0.5c-0.1,0-0.3,0-0.4,0c-5.8,0-9.6-7.3-12.4-14.1
			C1.1,5.1,0.3,8.5,1.4,11.9c0.9,2.7,2.8,4.4,2.8,4.4c0.2,0.2,0.2,0.5,0,0.7C4.2,17.1,4.1,17.1,3.9,17.1z"/>
	</g>
	<g>
		<path fill="#0F0F0F" d="M93.1,17.1c-0.1,0-0.3-0.1-0.3-0.2c-0.2-0.2-0.2-0.5,0-0.7c0,0,1.9-1.7,2.8-4.5C96.8,8.4,96,5,93.3,1.7
			c-2.7,6.7-6.6,14.1-12.4,14.1c-0.1,0-0.3,0-0.4,0c-0.3,0-0.5-0.2-0.4-0.5s0.2-0.5,0.5-0.4c5.6,0.3,9.5-7.4,12.2-14.2L93,0l0.5,0.6
			c4.2,4.7,3.9,8.9,3,11.6c-1,2.9-3,4.7-3.1,4.8C93.3,17.1,93.2,17.1,93.1,17.1z"/>
	</g>
	<g>
		<path fill="#0F0F0F" d="M102.2,135.8c-1,0-1.4-0.3-1.6-0.4c-0.1-0.1-0.2-0.2-0.2-0.4c0-0.1,0.1-0.3,0.2-0.4
			c0.2-0.1,15.2-10.3,13.7-21.7c-0.8-5.9-2.2-10.8-11-10.4c-3.8,0.2-10,3.4-10,3.5c-0.2,0.1-0.5,0-0.6-0.2c-0.1-0.2,0-0.5,0.2-0.6
			c0.3-0.1,6.5-3.4,10.4-3.6c4.4-0.2,7.5,0.9,9.4,3.3c1.7,2.2,2.2,5.1,2.6,7.9c0.7,4.9-1.6,10.4-6.5,15.8c-2.7,3-5.5,5.2-6.9,6.2
			c1.1,0.1,3.6-0.4,8.1-4.5c3-2.7,12.4-12.5,6.9-25.8c-1.4-3.4-3.6-5.6-6.8-6.5c-10-3.1-25.6,7-25.8,7.1c-0.2,0.1-0.5,0.1-0.6-0.1
			c-0.1-0.2-0.1-0.5,0.1-0.6c0,0,4.1-2.6,9.3-4.8c7.1-3,12.9-3.8,17.3-2.4c3.4,1.1,5.9,3.4,7.3,7.1c5.7,13.9-4.1,24.1-7.2,26.9
			C106.4,135,103.7,135.8,102.2,135.8z"/>
	</g>
	<g>
		<path fill="#0F0F0F" d="M90.2,143.7c-0.1,0-0.3-0.1-0.4-0.2c-0.1-0.2-0.1-0.4,0-0.5l11-16.2c0.1-0.2,0.3-0.3,0.6-0.2
			c0.2,0.1,0.3,0.3,0.3,0.5l-1.1,7.8c0,0.3-0.3,0.4-0.5,0.4c-0.3,0-0.4-0.3-0.4-0.5l0.8-5.8l-9.1,13.5l19.4-5l-10.5-1.2
			c-0.3,0-0.4-0.3-0.4-0.5c0-0.3,0.3-0.4,0.5-0.4l13,1.5c0.2,0,0.4,0.2,0.4,0.4c0,0.2-0.1,0.4-0.3,0.5l-23,5.9
			C90.3,143.7,90.2,143.7,90.2,143.7z"/>
	</g>
	<g>
		<path fill="#0F0F0F" d="M2.2,18.9c-0.2,0-0.3-0.1-0.4-0.3L0.4,16c-0.1-0.2-0.1-0.4,0.1-0.5c0.1-0.1,0.4-0.2,0.5-0.1l3.8,2l2-2.3
			C7,15,7.2,14.9,7.4,15.1l2.3,1.5l1.6-1.3c0.2-0.1,0.4-0.1,0.6,0l2.3,1.7l3.8-3.1c0.1-0.1,0.3-0.1,0.5-0.1c0.2,0.1,0.3,0.2,0.3,0.3
			l0.6,2.8c0.1,0.3-0.1,0.5-0.4,0.5c-0.3,0-0.5-0.1-0.5-0.4L18,15l-3.5,2.9c-0.2,0.1-0.4,0.1-0.6,0l-2.3-1.7l-1.6,1.3
			c-0.2,0.1-0.4,0.1-0.5,0l-2.3-1.5l-2,2.3c-0.1,0.2-0.4,0.2-0.6,0.1l-2.8-1.5l0.6,1.3c0.1,0.2,0,0.5-0.2,0.6
			C2.3,18.9,2.2,18.9,2.2,18.9z"/>
	</g>
	<g>
		<path fill="#0F0F0F" d="M96.9,19.1c0,0-0.1,0-0.1,0c-0.2-0.1-0.4-0.3-0.3-0.6l0.5-2.3l-6.2,2.5c-0.2,0.1-0.4,0-0.5-0.1
			c-0.1-0.1-0.2-0.3-0.1-0.5L91,16l-4,1.8c-0.2,0.1-0.4,0-0.5-0.1c-0.1-0.1-0.2-0.3-0.1-0.5l1-2.3l-4.9,2.8c-0.2,0.1-0.4,0.1-0.5,0
			l-6-4.2l1.5,3c0.1,0.2,0,0.5-0.2,0.6c-0.2,0.1-0.5,0-0.6-0.2l-2.2-4.6c-0.1-0.2,0-0.4,0.1-0.6c0.2-0.1,0.4-0.1,0.6,0l7.2,5
			l5.9-3.4c0.2-0.1,0.4-0.1,0.5,0.1c0.1,0.1,0.2,0.3,0.1,0.5l-1,2.4l3.9-1.8c0.2-0.1,0.4,0,0.5,0.1c0.1,0.1,0.2,0.3,0.1,0.5
			l-0.9,2.1l6-2.4c0.2-0.1,0.3,0,0.5,0.1c0.1,0.1,0.2,0.3,0.1,0.5l-0.7,3.2C97.3,18.9,97.1,19.1,96.9,19.1z"/>
	</g>
	<g>
		<path fill="#0194D4" d="M1.9,70.4c0-15.3,0-30.6,0-45.9c0.3,0.2,0.7,0.4,0.9,0.7C9.7,32.1,16.6,39,23.5,45.9
			c0.3,0.3,0.6,0.5,0.9,0.8c-0.5,0.6-1.1,1.2-1.6,1.8c-1.3,1.3-2.6,2.7-3.8,4c-1.1,1.1-2.1,2.3-3.2,3.4c-1.2,1.3-2.5,2.6-3.7,3.9
			C11,60.9,10,62,8.9,63.1c-1,1.1-2.1,2.2-3.1,3.3C5,67.3,4.1,68.1,3.3,69C2.8,69.5,2.4,69.9,1.9,70.4z"/>
		<path fill="#7571E1" d="M88.2,115.3c-3.4,0-6.8,0-10.2,0c-0.2-0.4-0.4-0.8-0.7-1.1C65.2,102.1,53.2,90,41.1,77.9
			c-0.3-0.3-0.5-0.6-0.8-0.9c0.6-0.7,1.2-1.3,1.8-2c1.1-1,2.1-2,3.2-3c0.3,0.3,0.5,0.6,0.8,0.9c13.8,13.8,27.6,27.6,41.4,41.4
			C87.8,114.6,88,115,88.2,115.3z"/>
		<path fill="#7E6FE2" d="M88.2,115.3c-0.2-0.3-0.5-0.7-0.7-1c-13.8-13.8-27.6-27.6-41.4-41.4c-0.3-0.3-0.5-0.6-0.8-0.9
			c0.1-0.2,0.2-0.3,0.4-0.5c1.3-1.3,2.6-2.5,3.9-3.8c0.3,0.2,0.6,0.5,0.8,0.7C57,75,63.6,81.7,70.1,88.3c8.9,9,17.9,18,26.8,27
			C94,115.3,91.1,115.3,88.2,115.3z"/>
		<path fill="#6775DF" d="M40.3,77c0.3,0.3,0.5,0.6,0.8,0.9c12.1,12.1,24.2,24.2,36.3,36.3c0.3,0.3,0.5,0.8,0.7,1.1
			c-3.2,0-6.3,0-9.5,0c-0.3-0.5-0.6-1.1-1-1.5c-10.4-10.4-20.9-20.9-31.3-31.3c-0.2-0.2-0.5-0.4-0.8-0.7c1.1-1.1,2.1-2.2,3.2-3.3
			C39.2,78,39.7,77.5,40.3,77z"/>
		<path fill="#5A79DE" d="M35.4,81.8c0.3,0.2,0.5,0.4,0.8,0.7c10.4,10.4,20.9,20.9,31.3,31.3c0.4,0.4,0.7,1,1,1.5
			c-2.8,0-5.6,0-8.4,0c-0.2-0.4-0.4-0.8-0.7-1.1c-9.1-9.1-18.2-18.2-27.3-27.4c-0.3-0.3-0.5-0.6-0.8-0.9c0.1-0.1,0.1-0.2,0.2-0.3
			c1.1-1.1,2.1-2.1,3.2-3.2C34.9,82.2,35.2,82,35.4,81.8z"/>
		<path fill="#4F7CDD" d="M31.4,85.9c0.3,0.3,0.5,0.6,0.8,0.9c9.1,9.1,18.2,18.2,27.3,27.4c0.3,0.3,0.5,0.8,0.7,1.1
			c-2.1,0-4.2,0-6.3,0c-0.2-0.4-0.4-0.8-0.7-1.1C45.1,106.1,37.1,98,29,90c-0.3-0.3-0.5-0.6-0.8-0.9c0.1-0.2,0.1-0.3,0.2-0.5
			C29.4,87.7,30.4,86.8,31.4,85.9z"/>
		<path fill="#447FDC" d="M28.2,89.1c0.3,0.3,0.5,0.6,0.8,0.9c8.1,8.1,16.1,16.1,24.2,24.2c0.3,0.3,0.5,0.8,0.7,1.1
			c-1.9,0-3.8,0-5.8,0c-0.2-0.3-0.4-0.7-0.7-0.9C40.3,107.2,33.1,100,26,92.9c-0.3-0.3-0.5-0.6-0.7-0.8c0.1-0.2,0.2-0.3,0.4-0.5
			C26.5,90.7,27.4,89.9,28.2,89.1z"/>
		<path fill="#3A82DB" d="M25.2,92c0.2,0.3,0.5,0.6,0.7,0.8c7.2,7.2,14.3,14.3,21.5,21.5c0.3,0.3,0.5,0.6,0.7,0.9
			c-1.9,0-3.8,0-5.8,0c-0.2-0.3-0.4-0.7-0.7-0.9c-6.2-6.2-12.4-12.4-18.7-18.7c-0.2-0.2-0.5-0.4-0.8-0.7c0.3-0.4,0.6-0.7,0.9-1.1
			C23.9,93.3,24.6,92.7,25.2,92z"/>
		<path fill="#D16292" d="M1.9,85.4c0-2.2,0-4.5,0-6.7c0.3,0.2,0.7,0.4,0.9,0.7C8.4,84.9,13.9,90.5,19.5,96c0.3,0.3,0.6,0.5,0.9,0.7
			c-0.3,0.4-0.6,0.7-0.9,1.1c-0.8,0.8-1.6,1.5-2.4,2.3c-0.3-0.2-0.6-0.4-0.9-0.6C11.7,95,7.3,90.5,2.8,86.1
			C2.5,85.8,2.2,85.6,1.9,85.4z"/>
		<path fill="#D66780" d="M25.2,92c-0.7,0.6-1.4,1.3-2,1.9c-0.3-0.2-0.7-0.4-0.9-0.7c-6.5-6.5-13-12.9-19.4-19.4
			c-0.3-0.3-0.6-0.5-0.9-0.7c0-0.9,0-1.9,0-2.8c0.5-0.5,1-0.9,1.5-1.4c0.3,0.4,0.6,0.9,0.9,1.2C11.1,77.1,18,84,24.9,90.8
			c0.2,0.2,0.5,0.5,0.8,0.7C25.5,91.7,25.4,91.9,25.2,92z"/>
		<path fill="#D46588" d="M1.9,73.1c0.3,0.2,0.7,0.4,0.9,0.7c6.5,6.5,13,12.9,19.4,19.4c0.3,0.3,0.6,0.5,0.9,0.7
			c-0.3,0.4-0.6,0.7-0.9,1.1c-0.6,0.6-1.2,1.1-1.8,1.7c-0.3-0.2-0.7-0.4-0.9-0.7C13.9,90.5,8.4,84.9,2.8,79.4
			c-0.3-0.3-0.6-0.5-0.9-0.7C1.9,76.9,1.9,75,1.9,73.1z"/>
		<path fill="#3085DA" d="M20.4,96.7c0.6-0.6,1.2-1.1,1.8-1.7c0.3,0.2,0.5,0.4,0.8,0.7c6.2,6.2,12.4,12.4,18.7,18.7
			c0.3,0.3,0.5,0.6,0.7,0.9c-1.9,0-3.8,0-5.8,0c-0.2-0.3-0.4-0.7-0.7-0.9c-5.2-5.2-10.5-10.5-15.7-15.7c-0.3-0.3-0.5-0.6-0.7-0.8
			C19.8,97.4,20.1,97.1,20.4,96.7z"/>
		<path fill="#118FD6" d="M24.4,46.6c-0.3-0.3-0.6-0.5-0.9-0.8C16.6,39,9.7,32.1,2.8,25.2c-0.3-0.3-0.6-0.5-0.9-0.7
			c0-1.4,0-2.8,0-4.3c0.2,0,0.5,0,0.7,0C2.8,20.6,3,21,3.3,21.3c7.5,7.5,14.9,15,22.4,22.4c0.3,0.3,0.5,0.6,0.7,0.8
			C25.7,45.2,25.1,45.9,24.4,46.6z"/>
		<path fill="#CE5F9E" d="M1.9,85.4c0.3,0.2,0.7,0.4,0.9,0.7c4.5,4.4,8.9,8.9,13.4,13.4c0.3,0.3,0.6,0.4,0.9,0.6
			c-0.2,0.2-0.4,0.5-0.6,0.7c-0.9,0.9-1.7,1.7-2.6,2.6c-0.1,0.1-0.2,0.1-0.3,0.2c-0.3-0.2-0.6-0.4-0.9-0.6c-3.3-3.3-6.6-6.6-9.9-9.9
			c-0.3-0.2-0.6-0.4-0.9-0.6C1.9,90.1,1.9,87.8,1.9,85.4z"/>
		<path fill="#118FD6" d="M13.6,103.6c0.1-0.1,0.2-0.1,0.3-0.2c0.1,0.1,0.3,0.2,0.4,0.3c3.6,3.6,7.3,7.3,10.9,10.9
			c0.2,0.2,0.3,0.5,0.4,0.7c-3.2,0-6.4,0-9.7,0c-0.1-0.1-0.1-0.3-0.2-0.4c-2.2-2.2-4.5-4.4-6.8-6.7c0.1-0.2,0.3-0.5,0.4-0.7
			C10.8,106.2,12.2,104.9,13.6,103.6z"/>
		<path fill="#2688D9" d="M16.5,100.8c0.2-0.2,0.4-0.5,0.6-0.7c0.8-0.8,1.6-1.5,2.4-2.3c0.2,0.3,0.5,0.6,0.7,0.8
			c5.2,5.2,10.5,10.5,15.7,15.7c0.3,0.3,0.5,0.6,0.7,0.9c-1.9,0-3.8,0-5.8,0c-0.2-0.3-0.4-0.6-0.6-0.9c-4.3-4.4-8.7-8.7-13-13
			C17,101.2,16.7,101,16.5,100.8z"/>
		<path fill="#CA5BAC" d="M13.6,103.6c-1.4,1.3-2.7,2.6-4.1,3.9c-2.4-2.4-4.8-4.9-7.2-7.3c-0.1-0.1-0.3-0.1-0.4-0.2
			c0-2.5,0-5.1,0-7.6c0.3,0.2,0.6,0.4,0.9,0.6c3.3,3.3,6.6,6.6,9.9,9.9C12.9,103.2,13.3,103.4,13.6,103.6z"/>
		<path fill="#218BD8" d="M16.5,100.8c0.2,0.2,0.5,0.4,0.7,0.6c4.3,4.3,8.7,8.7,13,13c0.2,0.3,0.4,0.6,0.6,0.9c-1.7,0-3.5,0-5.2,0
			c-0.1-0.2-0.2-0.5-0.4-0.7c-3.6-3.6-7.3-7.3-10.9-10.9c-0.1-0.1-0.3-0.2-0.4-0.3C14.8,102.5,15.6,101.7,16.5,100.8z"/>
		<path fill="#C659BA" d="M1.9,100.1c0.1,0.1,0.3,0.1,0.4,0.2c2.4,2.4,4.8,4.9,7.2,7.3c-0.1,0.2-0.3,0.5-0.4,0.7
			c-1.2,1.1-2.3,2.3-3.5,3.4c-1.2,1.2-2.3,2.4-3.5,3.6c-0.1-0.2-0.2-0.5-0.2-0.7C1.9,109.7,1.9,104.9,1.9,100.1z"/>
		<path fill="#0194D4" d="M2.1,115.3c1.2-1.2,2.3-2.4,3.5-3.6c1.1-1.2,2.3-2.3,3.5-3.4c2.3,2.2,4.5,4.4,6.8,6.7
			c0.1,0.1,0.1,0.3,0.2,0.4C11.3,115.3,6.7,115.3,2.1,115.3z"/>
		<path fill="#F78809" d="M49.4,20.3c0.3,0,0.6-0.1,0.9-0.1c15.2,0,30.4,0,45.5,0c0.3,0,0.5,0,1,0c-0.3,0.3-0.4,0.5-0.6,0.7
			C86.7,30.5,77.1,40,67.5,49.6c-0.1,0.1-0.3,0.2-0.4,0.4c-0.3-0.3-0.6-0.5-0.9-0.8C59,42,51.7,34.7,44.5,27.5
			c-0.3-0.3-0.7-0.6-1-0.8C45.5,24.5,47.5,22.4,49.4,20.3z"/>
		<path fill="#F48613" d="M43.5,26.6c0.3,0.3,0.7,0.5,1,0.8C51.7,34.7,59,42,66.2,49.2c0.3,0.3,0.6,0.5,0.9,0.8
			c-2,2-4.1,4.1-6.1,6.1c-0.3-0.3-0.6-0.5-0.9-0.8C53,48.3,46,41.2,38.9,34.1c-0.4-0.4-0.7-1-1-1.5c0.6-0.7,1.3-1.4,1.9-2.1
			C41,29.2,42.3,27.9,43.5,26.6z"/>
		<path fill="#EE7F2B" d="M55.6,61.5c-1.9,1.9-3.7,3.7-5.6,5.6c-0.3-0.3-0.5-0.6-0.8-0.9C42.1,59.1,35,52,28,44.9
			c-0.3-0.3-0.5-0.8-0.7-1.1c0.3-0.4,0.7-0.8,1-1.2c0.5-0.5,1-1.1,1.6-1.6c0.5-0.6,1.1-1.2,1.6-1.7c0.3-0.3,0.7-0.6,1-0.9
			c0.2,0.3,0.4,0.7,0.7,0.9c7.2,7.2,14.4,14.4,21.6,21.6C55,61,55.3,61.2,55.6,61.5z"/>
		<path fill="#F1821F" d="M55.6,61.5c-0.3-0.2-0.6-0.5-0.8-0.7c-7.2-7.2-14.4-14.4-21.6-21.6c-0.3-0.3-0.5-0.6-0.7-0.9
			c0.1-0.2,0.3-0.4,0.4-0.5c0.5-0.5,1-1,1.5-1.5c0.5-0.5,1-1.1,1.5-1.6c0.5-0.6,1.1-1.2,1.6-1.7c0.1-0.1,0.2-0.2,0.4-0.2
			c0.3,0.5,0.6,1.1,1,1.5C46,41.2,53,48.3,60.1,55.3c0.3,0.3,0.6,0.5,0.9,0.8C59.2,57.9,57.4,59.7,55.6,61.5z"/>
		<path fill="#EA7B39" d="M27.3,43.8c0.2,0.4,0.4,0.8,0.7,1.1C35,52,42.1,59.1,49.2,66.2c0.3,0.3,0.5,0.6,0.8,0.9
			c-0.1,0.2-0.3,0.4-0.4,0.6c-1.3,1.3-2.6,2.5-3.9,3.8c-0.1-0.1-0.3-0.2-0.4-0.3c-7.3-7.3-14.7-14.6-22-22c-0.2-0.2-0.3-0.5-0.5-0.8
			c0.5-0.6,1.1-1.2,1.6-1.8c0.6-0.7,1.3-1.4,1.9-2.1C26.7,44.3,27,44,27.3,43.8z"/>
		<path fill="#7E6FE2" d="M43.5,26.6c-1.2,1.3-2.5,2.5-3.7,3.8c-0.2-0.3-0.4-0.6-0.6-0.9c-2.8-2.8-5.5-5.5-8.3-8.3
			c-0.3-0.3-0.4-0.7-0.6-1c6.4,0,12.8,0,19.2,0C47.5,22.4,45.5,24.5,43.5,26.6z"/>
		<path fill="#218BD8" d="M27.3,43.8c-0.3,0.3-0.6,0.5-0.9,0.8c-0.2-0.3-0.5-0.6-0.7-0.8c-7.5-7.5-14.9-14.9-22.4-22.4
			C3,21,2.8,20.6,2.6,20.3c1.2,0,2.4,0,3.5,0c0.2,0.3,0.4,0.6,0.6,0.9c6.9,6.9,13.8,13.9,20.8,20.8c0.2,0.2,0.5,0.4,0.8,0.6
			C28,42.9,27.6,43.3,27.3,43.8z"/>
		<path fill="#3085DA" d="M28.3,42.5c-0.3-0.2-0.5-0.4-0.8-0.6C20.6,35,13.7,28.1,6.8,21.1c-0.3-0.3-0.4-0.6-0.6-0.9
			c1.1,0,2.1,0,3.2,0c0.2,0.3,0.4,0.6,0.6,0.9c6.4,6.4,12.7,12.7,19.1,19.1c0.3,0.3,0.6,0.5,0.9,0.7C29.4,41.4,28.8,42,28.3,42.5z"
			/>
		<path fill="#3A82DB" d="M29.9,40.9c-0.3-0.2-0.6-0.4-0.9-0.7c-6.4-6.4-12.7-12.7-19.1-19.1c-0.3-0.3-0.4-0.6-0.6-0.9
			c1.1,0,2.2,0,3.3,0c0.2,0.3,0.3,0.6,0.6,0.8c5.8,5.8,11.7,11.7,17.5,17.5c0.2,0.2,0.5,0.4,0.8,0.6C31,39.7,30.4,40.3,29.9,40.9z"
			/>
		<path fill="#447FDC" d="M31.5,39.2c-0.3-0.2-0.6-0.4-0.8-0.6C24.9,32.7,19,26.9,13.2,21.1c-0.2-0.2-0.4-0.5-0.6-0.8
			c1.1,0,2.1,0,3.2,0c0.2,0.3,0.4,0.6,0.6,0.9c5.2,5.3,10.5,10.5,15.7,15.7c0.3,0.3,0.5,0.6,0.7,0.8c-0.1,0.2-0.3,0.4-0.4,0.5
			C32.2,38.6,31.9,38.9,31.5,39.2z"/>
		<path fill="#7571E1" d="M30.3,20.2c0.2,0.3,0.3,0.7,0.6,1c2.8,2.8,5.5,5.6,8.3,8.3c0.2,0.3,0.4,0.6,0.6,0.9
			c-0.6,0.7-1.3,1.4-1.9,2.1c-0.1,0.1-0.2,0.2-0.4,0.2c-0.2-0.3-0.4-0.5-0.7-0.8c-3.6-3.6-7.2-7.2-10.8-10.8
			c-0.3-0.3-0.4-0.7-0.6-1.1C27.1,20.2,28.7,20.2,30.3,20.2z"/>
		<path fill="#4F7CDD" d="M32.9,37.7c-0.2-0.3-0.5-0.6-0.7-0.8c-5.2-5.2-10.5-10.5-15.7-15.7c-0.3-0.3-0.4-0.6-0.6-0.9
			c1.1,0,2.1,0,3.2,0c0.2,0.3,0.4,0.6,0.6,0.9c4.7,4.7,9.4,9.4,14.1,14.2c0.2,0.3,0.4,0.6,0.6,0.9C33.9,36.7,33.4,37.2,32.9,37.7z"
			/>
		<path fill="#6775DF" d="M25.5,20.2c0.2,0.4,0.4,0.8,0.6,1.1c3.6,3.6,7.2,7.2,10.8,10.8c0.2,0.2,0.5,0.5,0.7,0.8
			c-0.5,0.6-1.1,1.2-1.6,1.7c-0.2-0.3-0.5-0.6-0.7-0.8c-4.2-4.2-8.4-8.4-12.6-12.6c-0.3-0.3-0.4-0.6-0.6-0.9
			C23.1,20.2,24.3,20.2,25.5,20.2z"/>
		<path fill="#5A79DE" d="M21.9,20.2c0.2,0.3,0.4,0.6,0.6,0.9c4.2,4.2,8.4,8.4,12.6,12.6c0.3,0.3,0.5,0.6,0.7,0.8
			c-0.5,0.5-1,1.1-1.5,1.6c-0.2-0.3-0.4-0.6-0.6-0.9c-4.7-4.7-9.4-9.4-14.1-14.2c-0.3-0.3-0.4-0.6-0.6-0.9
			C19.9,20.3,20.9,20.2,21.9,20.2z"/>
		<path fill="#E77844" d="M22.8,48.4c0.2,0.3,0.3,0.5,0.5,0.8c7.3,7.3,14.6,14.7,22,22c0.1,0.1,0.2,0.2,0.4,0.3
			c-0.1,0.2-0.2,0.3-0.4,0.5c-1.1,1-2.1,2-3.2,3c-0.4-0.2-0.8-0.4-1-0.7C34,67.3,27,60.3,19.9,53.2c-0.3-0.3-0.6-0.5-0.9-0.8
			C20.3,51.1,21.6,49.8,22.8,48.4z"/>
		<path fill="#E17358" d="M35.4,81.8c-0.2,0.2-0.5,0.4-0.7,0.6c-0.1-0.1-0.3-0.2-0.4-0.4C27,74.8,19.8,67.5,12.5,60.3
			c-0.2-0.2-0.3-0.3-0.4-0.5c1.2-1.3,2.5-2.6,3.7-3.9c0.2,0.3,0.3,0.6,0.5,0.8c7.1,7.1,14.2,14.2,21.3,21.3c0.2,0.2,0.6,0.3,0.9,0.5
			C37.5,79.6,36.5,80.7,35.4,81.8z"/>
		<path fill="#E4764E" d="M38.6,78.5c-0.3-0.2-0.7-0.3-0.9-0.5c-7.1-7.1-14.2-14.2-21.3-21.3c-0.2-0.2-0.4-0.5-0.5-0.8
			c1.1-1.1,2.1-2.3,3.2-3.4c0.3,0.3,0.6,0.5,0.9,0.8c7,7,14.1,14.1,21.1,21.1c0.3,0.3,0.7,0.4,1,0.7c-0.6,0.7-1.2,1.3-1.8,2
			C39.7,77.5,39.2,78,38.6,78.5z"/>
		<path fill="#DE7064" d="M12.1,59.8c0.1,0.2,0.3,0.3,0.4,0.5c7.3,7.3,14.5,14.5,21.8,21.8c0.1,0.1,0.3,0.2,0.4,0.4
			c-1.1,1.1-2.1,2.1-3.2,3.2c-0.3-0.2-0.7-0.4-0.9-0.7c-7-7-14-14-21-21c-0.2-0.2-0.4-0.5-0.7-0.8C10,62,11,60.9,12.1,59.8z"/>
		<path fill="#DB6D6E" d="M8.9,63.1c0.2,0.3,0.4,0.5,0.7,0.8c7,7,14,14,21,21c0.3,0.3,0.6,0.5,0.9,0.7c-0.1,0.1-0.1,0.2-0.2,0.3
			c-1,0.9-2,1.8-2.9,2.7c-0.3-0.2-0.7-0.4-1-0.7C20.6,81,13.7,74.1,6.8,67.2c-0.3-0.3-0.7-0.5-1-0.8C6.8,65.3,7.9,64.2,8.9,63.1z"/>
		<path fill="#D86A78" d="M5.8,66.4c0.3,0.3,0.7,0.5,1,0.8c6.9,6.9,13.8,13.8,20.7,20.7c0.3,0.3,0.6,0.5,1,0.7
			c-0.1,0.2-0.1,0.3-0.2,0.5c-0.9,0.8-1.7,1.6-2.6,2.5c-0.3-0.2-0.5-0.4-0.8-0.7C18,84,11.1,77.1,4.3,70.2c-0.4-0.4-0.6-0.8-0.9-1.2
			C4.1,68.1,5,67.3,5.8,66.4z"/>
	</g>
</g>
</svg>
