<?xml version="1.0" encoding="utf-8"?>
<!-- Generator: Adobe Illustrator 22.0.1, SVG Export Plug-In . SVG Version: 6.00 Build 0)  -->
<svg version="1.0" id="Ebene_1" xmlns="http://www.w3.org/2000/svg" xmlns:xlink="http://www.w3.org/1999/xlink" x="0px" y="0px"
	 viewBox="0 0 1547.9 1049.4" enable-background="new 0 0 1547.9 1049.4" xml:space="preserve">
<g>
	<path d="M710.4,656.8c14.9-10.1,31.7-8.7,47.9-10.1c17.4-1.5,34.8-2.6,52.2-3.6c8.1-0.5,16.2-0.6,24.4-0.6
		c19.9-0.1,39.7-0.1,59.6,0.1c3,0,4.9-0.8,5.6-3.8c1.5-6.5,3.9-12.9,4.2-19.4c1.3-32.5,2.1-65,2.8-97.5c0.3-16,0-32,0.1-48
		c0-3.3,0.8-6.6,1.4-9.9c0.1-0.6,1.2-1.1,1.9-1.6c0.3,0.7,1,1.5,1,2.2c-0.4,16.1-0.8,32.2-1.2,48.3c-0.7,27.8-1.4,55.7-2.2,83.5
		c-0.2,8.5,0,17.1-1,25.6c-0.8,6.6-3,13.2-4.9,19.6c-0.9,3.2-3.7,4.1-7,4.1c-14.5,0-29.1,0.1-43.6,0.1c-5.2,0-6.2,1-5.9,6.3
		c1,16,2.2,31.9,3.2,47.9c0.3,5.3,0.6,10.6,0.7,16c0,2.9,1.2,4.3,3.9,5.1c16.8,5.4,33.7,11,50.5,16.6c0.8,0.3,1.5,1.3,2.2,1.9
		c-1,0.4-2.1,1.2-2.9,1c-10.8-3.2-21.7-6.5-32.4-10c-6.6-2.1-13-4.7-19.6-7c-2.4-0.9-4.3-2-4.4-5c-1.3-21.8-2.7-43.6-4-65.4
		c-0.1-2.3,0-4.5,0-7.3c-13.2-0.7-26.3-0.6-39.4,0.6c-13.1,1.2-26.2,2.4-39.3,3.5c1.3,9.7,2.8,19.6,4,29.4c1.3,11,2.4,21.9,3.7,32.9
		c0.3,2.4-0.5,3.7-2.9,4.4c-16.7,5.3-31.1,14.3-43.7,26.5c-0.6,0.6-1.1,1.2-1.8,1.6c-0.4,0.2-1.2,0.2-1.4-0.1
		c-0.3-0.4-0.6-1.3-0.4-1.7c0.6-1,1.3-2,2.2-2.8c12.2-11.7,26.4-20.2,42.3-25.9c2.2-0.8,2.6-1.8,2.3-3.8
		c-2.1-17.4-4.1-34.9-6.3-52.3c-0.3-2.7-1.1-5.4-1.9-8.8c-9,0.7-17.8,1.5-26.7,2.2c-7.7,0.6-14.4,3.5-21,7.2
		c-1.5,0.8-3.4,0.7-5.2,1.1c-0.2-1.6-0.5-3.3-0.6-4.9c-0.1-5.3-0.2-10.6-0.2-15.8c0-8.4,0.3-16.8,0.2-25.2c-0.2-25.6,0-51.2-1-76.8
		c-0.9-22-5.5-43.6-12-64.7c-1.2-4.1-2.7-8.2-3.3-12.3c-1.6-9.8-6.3-18-12.3-25.6c-7.9-10.1-15.3-20.5-23.9-30
		c-8.1-9-17.2-17-26.1-25.2c-1.5-1.4-4.2-1.5-6.1-2.6c-1.4-0.8-2.9-1.9-3.4-3.3c-0.2-0.7,1.6-2.4,2.7-3.2c2.9-1.9,6-3.4,8.8-5.4
		c15.6-11.3,32.8-19.9,50.1-28.2c0.5-0.2,0.9-0.6,1-0.6c-1.4-2.5-3.2-4.7-4-7.3c-8.9-27.5-10.8-55.3-4.2-83.6
		c2.8-11.9,8.9-22.2,15.6-32.2c0.7-1,1.3-2,2.4-3.7c-12.7-1.8-24.7-3.6-36.8-5.1c-5.8-0.7-8.2-3.7-5.7-8.9c1.9-3.9,4.1-8.1,7.4-10.7
		c7.7-6.3,15.7-12.4,24.4-17.3c5.6-3.1,12.4-4.4,18.8-5.5c7.3-1.3,13.4,1.3,17.1,8.2c0.4,0.7,0.9,1.2,1.6,2.2c0.8-2.4,1.4-4.4,2-6.4
		c1.7-6.1,5.8-9.9,11.8-11.3c23.8-5.7,47.7-11.3,71.6-16.8c19.3-4.4,38.9-6.1,58.6-7.5c4.6-0.3,9.2,0.9,13.8,1.3
		c5,0.5,10,1,15.1,1.3c9.4,0.6,18.9,0.8,28.2,2c2.9,0.4,5.5,3.2,8.2,5.1c0.7,0.5,1.1,1.6,1.8,2.1c4.7,3.4,7,7.9,6.9,13.5
		c17.8,4.8,32.1,14.7,43.4,28.7c3.5,4.4,5.8,9.8,8.2,15c1.8,3.9,0,7.8-3.7,9.6c-6.7,3.2-13.9,5.1-21.3,4
		c-8.4-1.2-13.9-7.1-19.1-13.4c-4.1-5.1-8.6-9.9-13-14.8c-0.3,0.3-0.6,0.5-1,0.8c0.3,0.5,0.5,1,0.9,1.4c9.8,8.7,14.2,20.1,15.8,32.7
		c3.9,31-1.5,60.6-15.3,88.5c-3.3,6.8-7.8,13-11.7,19.5c-1.9,3.2-3.7,6.4-6.1,10.5c7,1,13.2,2.1,19.5,2.6
		c10.7,0.9,21.5,1.4,32.3,2.2c3.8,0.3,5,2.7,3.2,6.1c-0.4,0.7-0.9,1.3-1.4,2c-11.3,16.6-22.9,33.1-33.7,50
		c-11,17.3-18.9,36.1-23.6,56.2c-0.3,1.3-1.1,2.5-1.6,3.7c-0.5-0.1-1-0.2-1.5-0.3c0.1-1.6,0-3.3,0.4-4.9c5.4-23.6,15.7-45,29.1-64.9
		c9.6-14.3,19.4-28.3,29.1-42.5c0.3-0.4,0.4-0.9,0.7-1.6c-7.3-0.8-14.3-2.1-21.4-2.2c-21.1-0.4-41.6-3.7-61.4-11.2
		c-1.1-0.4-2.3-0.7-3.4-1c-0.4-0.1-0.8,0.1-1.4,0.1c-1.4,4.9-3,9.9-4.2,14.9c-0.8,3.1-2.3,4.3-5.7,3.8c-10.8-1.6-21.5-1.4-32.1,1.4
		c-0.8,0.2-1.5,0.5-2.5,0.8c0,2.5,0.1,5.1,0,7.6c-0.8,14.8-9,23.4-23.8,24.4c-11.9,0.8-22.1-3.4-29.3-13.1c-2.8-3.9-4-8.9-6.3-13.2
		c-1.1-2-3-4.2-4.9-4.8c-6.1-1.9-12.3-3.3-18.6-4.2c-3.1-0.5-5.7-1.1-7.5-3.7c-2.7-4-5.2-8.1-8.2-11.8c-3.7-4.5-7.8-8.7-11.9-12.8
		c-1.8-1.8-3.9-2.7-6.8-1.1c-17.4,9.6-35,18.7-52.3,28.4c-13.7,7.7-27,15.9-40.6,23.9c15.4,9.4,27.5,21.3,37.9,35
		c8.8,11.7,17.4,23.6,26.7,34.9c2.3,2.8,2.9,5.6,3.7,8.7c4.4,16.7,9.1,33.4,12.9,50.3c3.7,16.5,5.3,33.4,5.4,50.4
		c0.1,17.6,0.6,35.2,0.7,52.8c0,8.1-0.6,16.2-0.7,24.4c0,4.8,0.6,9.6,0.7,14.3C710.5,647.6,710.4,651.8,710.4,656.8z M791.9,185.5
		c-0.1-0.4-0.1-0.8-0.2-1.2c0.6-0.4,1.2-1.1,1.8-1.2c8.2-0.4,16.5-0.9,24.7-1.1c8.1-0.2,16.2,0.5,23.9,3.3c1.3,0.5,2.9,0.1,4.4,0.2
		c8.5,0.5,17,0.8,25.5,1.6c15.5,1.4,31.1,3.1,46.4-1.7c2.8-0.9,5.7-1.7,8.4-2.8c0.5-0.2,1.1-1.3,1-1.8c-0.1-0.5-1-1.2-1.7-1.2
		c-6.5-0.5-13.1-1.1-19.6-1.1c-19.6,0-39.2,0.4-58.8,0.5c-21.2,0-42.4-0.9-63.5-0.2c-21.2,0.7-42.1,4.5-62.5,10.4
		c-1.3,0.4-2.6,1.2-3.8,1.8c1,1,1.8,1.3,2.5,1.2c14.5-1,28.9-1.9,43.4-3c2.6-0.2,5.2-1.1,7.8-1.7c4.2-0.9,8.3-1.9,12.5-2.6
		c1-0.2,2.3,0.6,3.4,0.9c-1,0.7-1.9,1.8-2.9,2.1c-18.5,4.7-37.4,6.9-56.4,7.6c-1.5,0.1-3,0.5-4.5,1.1c-2.4,0.9-4.7,2.1-7.1,3.1
		c-2,0.9-4.6,1.3-6,2.8c-3.4,3.6-7.5,5.3-12.3,6c-1.3,0.2-2.7,1.2-3.5,2.3c-8.4,11.2-15.3,23.1-18.8,36.8
		c-3.6,14.7-4.2,29.6-2.7,44.5c1.5,14.6,2.3,29.7,12.1,42.8c9.6-5.6,18.9-11.1,28.1-16.6c5.1-3.1,7.1-3.3,11.4,0.7
		c4.6,4.3,8.9,9.2,12.9,14.1c2.9,3.5,5.1,7.5,7.9,11c0.9,1.1,2.6,2.2,3.9,2.2c9.6,0.2,18.5,2.7,26.5,8.2c0.7-5.4,1.3-10.8,2.2-16.2
		c0.4-2.5-0.6-3.6-2.8-4.4c-3.7-1.4-7.4-3-11.1-4.6c-17.2-7.8-30.6-30.4-29.3-49.4c1.4-20.3,8-38.2,22.1-53.5
		c16.6-18.1,35.9-26.3,60.5-20.7c14,3.2,25.5,9.8,33.3,22.1c0.6,1,0.3,2.5,0.5,3.8c-1-0.7-2.4-1.1-2.9-2.1
		c-13.4-23.3-53-28.4-72-15.5c-12.9,8.7-23.4,19.7-30.2,33.4c-6.7,13.4-10.2,28.1-7,43.1c3,14.1,8.8,27.4,22.8,33.9
		c12.5,5.8,25.5,10.8,38.7,14.9c6.6,2.1,14.7,3.2,21.2,1.4c20.9-5.5,34.2-19.9,40.7-40.3c3.9-12.1,2.6-24.2-3.3-35.7
		c-0.5-1-0.1-2.4-0.1-3.6c0.9,0.7,2.3,1.2,2.7,2.1c3.5,6.8,5.8,14,5.8,21.8c0.2,21.9-10.3,38.1-27.4,50.6c-3.2,2.3-6.6,4.4-9.7,6.4
		c0.7,2.7,1.3,5.1,2,7.7c11.6-3.2,23.1-4.1,34.7-2.1c2.2,0.4,3.1-0.7,3.6-2.7c0.9-3.6,2.1-7.2,3-10.8c1.5-6.1,2.5-6.6,8.7-4.7
		c8.1,2.5,16.3,4.9,24.5,7.4c2.2,0.7,3.3,0.1,4.4-2c2.3-4.4,4.8-8.6,7.5-12.7C940,290.5,948,255.7,942.9,218
		c-1.5-10.8-5.8-20.5-13.8-28.2c-2.2-2.1-4.3-2.8-7.5-1.9c-10.6,2.8-21.2,4.9-32.3,3.7c-12-1.3-24.1-2.1-36.2-2.6
		c-7.5-0.3-14.9-0.3-21.9-3.3c-0.8-0.4-1.8-0.4-2.7-0.4c-10.8,0.2-21.5,0.5-32.3,0.7C794.7,185.9,793.3,185.7,791.9,185.5z
		 M719,186.3c2.5-0.4,3.6-0.5,4.6-0.8c27.4-7.7,55.4-10.6,83.8-10.8c14.9-0.1,29.8,1.2,44.7,1.2c24.9,0.1,49.8-0.3,74.8-0.5
		c2,0,4-0.3,5.9-0.8c2.6-0.6,3.7-1.9,1.9-4.5c-1-1.5-1.9-3.3-2.5-5c-2-5.6-5.6-8.3-11.7-9.1c-24.1-3.1-48.3-4.2-72.5-3.6
		c-2.5,0.1-5,1.3-7.5,1.8c-1.3,0.3-2.7,0.3-3.9,0c-1-0.3-1.8-1.3-2.6-2c0.8-0.7,1.6-1.7,2.5-1.9c3-0.5,6.1-0.8,9.1-0.9
		c11.3-0.2,22.7-0.3,34-0.3c4.7,0,9.3,0.4,13.9,0.9c12.9,1.4,25.8,3,39.7,4.7c-1.2-2.7-2-5.5-3.5-7.8c-1.7-2.5-3.9-4.7-6.2-6.7
		c-1.3-1.2-3.1-2.3-4.8-2.5c-9-0.8-18-1.2-27-1.9c-5.9-0.4-11.9-1.1-17.8-1.7c-3.2-0.3-6.4-1.4-9.5-1.1c-19,1.5-38,2.7-56.6,7
		c-24.5,5.7-49,11.2-73.6,16.9c-4.2,1-8.6,2.6-10,7.1C722.3,171.1,720.9,178.3,719,186.3z M781.8,336.9c-0.6,3.9-1.5,7.4-1.7,11
		c-0.3,4.4-0.5,8.8-0.2,13.2c0.4,7,4,12.5,10.1,15.8c4.3,2.3,9,4.2,13.7,5.2c14.3,2.9,26.2-6.8,26.5-21.3c0.1-5.8-0.9-11.6-1.4-17.7
		C812.1,347.4,797,342.5,781.8,336.9z M712.8,194.5c-2.7-3.6-1-4.9,1.2-5.7c2.1-0.9,2.5-2.3,3.1-4.4c1.4-6-1.6-10.3-4.6-14.7
		c-2-3-4.8-4.2-8.4-4.7c-8.7-1.2-15.5,4.4-23.5,6.1c-3.2,0.7-6,3.3-8.8,5.3c-5,3.6-9.7,7.5-14.6,11.3c0.2,0.4,0.4,0.7,0.5,1.1
		c1,0,2.1,0.3,2.9,0c4.3-1.8,7.7,0.1,9.4,3.6c3.5,7.5,9.8,6.4,16,5.9c2.4-0.2,4.7-1.1,7-1.4c3.9-0.5,7.9-0.8,11.9-1.2
		C707.3,195.3,709.5,194.9,712.8,194.5z M930.5,178.8c1.2,2,1.9,3.6,3.1,4.9c3.2,3.5,6.7,6.8,9.9,10.4c2.4,2.7,4.5,5.6,6.8,8.4
		c2.1,2.6,3.9,2.3,6.7,0.6c4.2-2.5,8.9-4.8,13.7-5.8c4.1-0.8,8.6,0.4,12.8,0.7c-3.3-17.4-40.8-42.2-50-37.8c1.4,3,2.8,6,4.4,8.9
		c2.3,4.3,1.5,6.7-2.9,8.4C933.8,177.8,932.6,178.1,930.5,178.8z M700.7,198.3c-4.2,0.9-7.6,1.8-10.9,2.2
		c-8.6,1.1-17.7,3.5-22.6-7.2c-0.1-0.2-0.4-0.4-0.5-0.6c-1.5-1.8-3.1-2-5.3-0.8c-2.2,1.3-4.5,2.4-6.9,2.9c-2.4,0.5-3.4,1.9-3,3.7
		c0.2,1,2.1,2,3.4,2.2c9.5,1.7,19.2,2.9,28.6,4.8C692.2,207.4,694.6,206.8,700.7,198.3z M984.6,203.7c-7.6-6.2-20.2-4.6-27.4,3.4
		C962.3,212,979.8,210,984.6,203.7z M700.4,203.4c0.3,0.6,0.7,1.1,1,1.7c2.5-1.8,5.1-3.5,7.6-5.3c-0.4-0.5-0.7-1.1-1.1-1.6
		C705.4,199.9,702.9,201.6,700.4,203.4z"/>
	<path d="M369.4,530.4c0.7,11.8,1.2,23.6,2.1,35.4c2.3,30.4,6.5,60.7,4.5,91.3c-0.1,1.3-0.2,2.7-0.3,4c-0.3,3.9-2.5,5.8-6.4,6.3
		c-13.2,1.5-26.4,3.4-39.7,0.9c-3.2-0.6-6.6-0.1-10.4-0.1c0.6,8.4,1.1,16.4,1.7,24.5c1.5,19.7,3,39.3,4.4,59c0.2,2.5,1,4,3,5.5
		c15.7,12,31.2,24.1,46.8,36.2c1.7,1.3,3.6,2.4,5.7,3.8c-2.9,2.6-5,0.9-6.7-0.5c-14.7-11.3-29-23-44-33.9c-5.8-4.3-8-8.7-8.4-16
		c-1.2-25.1-3.5-50.2-5.4-75.3c-0.1-0.8-0.3-1.5-0.5-2.5c-7.2-0.5-14.4-0.6-21.5-1.5c-11.1-1.3-22.2-3.1-33.3-4.4
		c-4.3-0.5-8.8-0.2-13.2-0.4c-2.4-0.1-3.4,1.1-3.5,3.3c-0.1,2.9-0.4,5.9-0.2,8.8c0.9,18.8,2,37.5,3,56.3c0.6,11.4,1.3,22.9,2.1,34.3
		c0.2,2.7-0.9,4-3.2,5.3c-7.5,4.4-15.2,8.8-22.3,13.9c-9.3,6.6-18.2,13.9-27.3,20.9c-0.9,0.7-2.1,0.9-3.1,1.4
		c-0.3-0.3-0.5-0.7-0.8-1c0.9-1.1,1.7-2.5,2.8-3.3c11.2-8.8,22.4-17.6,33.9-26.1c4.1-3.1,8.8-5.4,13.5-7.6c2.6-1.2,3.5-2.5,3.3-5.4
		c-1.2-17.5-2.4-35.1-3.4-52.7c-0.8-15.8-1.3-31.6-1.9-47.8c-8.3-0.6-17-0.9-25.5-1.9c-6.4-0.8-12.8-2.3-19.2-3.7
		c-3-0.7-2.8-3.2-2.4-5.5c2.1-13.1,4.2-26.3,6.5-39.4c4.7-27,9.8-54,14.4-81c2-11.8,2.9-23.8,4.3-35.7c-0.3-0.1-0.6-0.2-0.7-0.1
		c-4.9,4.7-5.4,4.6-7.7-1.7c-2.9-7.8-7.7-14.3-13.7-19.9c-3.5-3.3-6.9-6.6-10.7-10.3c-15.2,23.1-30.2,45.8-45.1,68.5
		c-0.6-0.3-1.2-0.5-1.8-0.8c0.4-1.4,0.5-2.9,1.3-4c10.4-15.9,21-31.8,31.5-47.7c3.9-5.9,7.7-11.8,11.9-18.4
		c-3.7-2.8-7.1-5.6-10.7-8.2c-6.7-4.9-13.7-8.7-22.5-7.3c-3.2,0.5-3.9-1-2-3.8c2.9-4.3,6.2-8.4,9.3-12.5
		c12.1-16.1,24.3-32.1,36.4-48.2c6.1-8.1,13.2-15.1,21.9-20.3c7.4-4.5,15-8.7,22.7-12.6c9.4-4.7,19-8.2,29.3-1.9
		c0.4-1.8,0.8-3.2,1.1-4.6c0-0.1,0.2-0.1,1.3-0.7c0.5,1.5,1.3,2.9,1.3,4.3c0,3.2-0.6,6.5-0.5,9.7c0.2,9.1,3.5,16.8,11.6,21.4
		c8,4.5,16.7,5.8,25.4,2.4c5.6-2.2,11-4.8,16.2-7.8c5.5-3.2,6.6-6.9,4.6-12.9c-1.1-3.1-2.9-6-4.1-9.1c-0.4-0.9,0-2.1,0-3.2
		c0.9,0.6,2.2,0.9,2.7,1.7c1.2,1.9,2.2,3.9,3.2,6c4.5,10,2.6,16.4-7,21.6c-4.8,2.6-9.8,5-14.9,6.7c-14.1,4.8-30.3-0.2-36.5-11.9
		c-2.6-5-3.3-11.1-4.3-16.8c-0.4-2.3-0.9-3.8-3-5c-5.2-2.7-10.7-3-15.9-0.8c-20.7,8.6-40.3,18.7-54,37.6c-13,17.9-26.6,35.3-40,53
		c-0.9,1.1-1.7,2.3-2.7,3.8c16.4,0.8,26.8,11.4,37.6,21.2c3.4,3,6.5,6.3,9.8,9.4c6.5,6.1,11.3,13.3,14.2,21.9
		c0.5,0.1,0.9,0.2,1.4,0.3c1.8-3.8,4.3-7.5,5.2-11.5c2.5-11.6,4.3-23.3,6.4-35c0.1-0.7,0.1-1.4,0.5-1.9c0.7-1,1.5-1.9,2.3-2.8
		c0.2,1.2,0.8,2.4,0.7,3.4c-1.5,8.5-3.6,17-4.8,25.5c-2.9,20-5.1,40.1-8.1,60.1c-2,13.2-5,26.2-7.3,39.3c-3,17-5.8,34.1-8.7,51.2
		c-1.5,8.7-3.1,17.3-4.6,25.9c-0.3,1.5,0,3.1,0,4.3c14.1,5.6,28.8,6.2,43.2,6.1c18.1-0.2,35.7,2.6,53.5,4.7
		c8.8,1.1,17.8,0.6,26.7,0.9c5.4,0.2,11,0,16.3,0.8c11,1.7,21.8-0.8,32.6-1.7c2.5-0.2,3.4-1.8,3.4-4.1c0.1-14.4,1.1-28.8,0.2-43.1
		c-2-29.8-6.1-59.4-6-89.3c0.1-20.8-0.4-41.5-0.7-62.3c-0.1-6.2-0.8-12.5-1.2-18.7c-0.1-1.8,0-3.7,0-5.5c0.5-0.1,1.1-0.2,1.6-0.3
		c0.4,0.9,1.2,1.9,1.3,2.8c0.5,5.4,1.1,10.9,1.2,16.3c0.3,18.1,0.1,36.3,0.6,54.4c0.1,4.7,2.1,9.4,3.5,15.3
		c4.4-2.6,7.7-4.4,10.9-6.4c15.1-9.5,25.5-23.9,38.2-35.9c4.4-4.2,9.3-7.9,13.9-12c0.8-0.7,1.2-2.5,1-3.6
		c-8.5-34-24.3-63.8-50.2-87.9c-5.8-5.4-11.1-11.1-16.9-16.5c-8.6-8-18.5-13.9-30.2-16.4c-2.3-0.5-4.6-1.3-6.8-2.2
		c-0.5-0.2-0.6-1.5-1-2.2c0.7-0.2,1.4-0.6,2.1-0.4c15.5,3.2,29.2,9.8,40.4,21.2c13.4,13.6,27.5,26.4,38.5,42.1
		c8.9,12.7,16,26.1,20.5,40.9c2.5,8.1,5,16.3,7.4,24.5c0.7,2.3,0.9,4.3-2.8,3.7c-1.1-0.2-2.8,0.9-3.8,1.9
		c-6.9,6.8-13.7,13.8-20.6,20.8c11.2,13.1,22.6,26.3,33.9,39.5c0.8,1,1.1,2.4,1.6,3.6c-1.3-0.5-3-0.7-3.9-1.6
		c-8.9-10.3-17.7-20.6-26.4-31.1c-7.3-8.9-7.2-9-15.2-1c-1.7,1.7-3.5,3.3-5.1,5.1c-6.4,7.6-15.2,11.8-23.8,16.2
		C373.9,532.7,371.7,531.2,369.4,530.4z"/>
	<path d="M1404.5,454.3c-12.2-7.6-23.7-14.9-35.9-22.5c-2.3,1.9-5.3,4.4-8.3,7.1c-6.7,6.1-13.3,12.2-20,18.2
		c-0.7,0.7-2.3,0.5-3.7-0.1c16.9-16.3,33.7-32.2,53.3-45.4c-2.9-3.5-5.6-6.7-8.3-10c-11.9-14.2-23.5-28.6-35.7-42.5
		c-11.9-13.7-27-20.9-45.4-20.4c-1.7,0-3.7,0.6-5.1,1.6c-5.8,3.9-11.4,8.1-17.6,12.5c0.1,0.9,0.2,2.9,0.4,4.8
		c1.5,16.1-18.1,28.2-32.9,22.9c-4.7-1.7-7.9-5-9.4-9.7c-2.5-7.8-3.1-15.6-0.9-23.6c0.3-1-0.2-2.5-0.8-3.3c-2.3-2.6-4.7-5.2-7.4-7.2
		c-2-1.4-4.8-2.6-7.3-2.5c-5.8,0.2-12,0-17.3,2.1c-11.6,4.6-22.9,10-33.9,16.1c-12.4,6.9-25,13.1-38.5,17.5
		c-4.7,1.5-9.3,3.8-13.9,5.7c0,0.4,0.1,0.9,0.1,1.3c1.2,0.5,2.5,1.1,3.7,1.6c6.1,2.1,10.8,5.9,13.7,11.6c4.5,9,9.5,17.9,12.7,27.4
		c3.5,10.5,7.1,20.9,13,30.3c0.3,0.4,0.6,0.8,1.5,1.9c3.6-3.5,6.9-7,10.5-10.3c1.3-1.2,3.1-1.7,4.7-2.6c-0.8,1.5-1.3,3.3-2.4,4.5
		c-2.9,3.2-5.9,6.2-9,9.1c-3.6,3.3-5.6,3.2-7.8-1c-3.8-7.3-7.2-14.8-10.7-22.3c-0.6-1.2-1-2.4-1.4-3.4
		c-9.7,14.3-19.4,28.4-29.2,42.8c8.8,4,17.2,7.1,24.9,11.4c6.2,3.5,11.7,8.2,17.2,12.7c4.2,3.4,8.1,7.3,12.2,10.9
		c2.4,2.1,2.5,4.2,0.1,6c-7.3,5.7-14.8,11.2-22.3,16.9c-2-2.1,0-3.6,1.3-4.7c4.9-4.1,10-7.9,15.1-11.8c1.3-1,2.7-2,4.4-3.2
		c-11-8.7-18.9-20.3-32-25.6c-6.2-2.5-12.3-5.1-18.5-7.5c-5.3-2.1-6.6-4.7-3.7-9.7c2.1-3.7,5-6.9,7.3-10.5
		c6.5-9.9,12.9-19.8,19.5-29.7c1.6-2.5,1.9-4.9,0.7-7.5c-3.9-8.1-7.8-16.3-11.9-24.4c-2.6-5.1-7.6-7.2-12.6-9.2
		c-1.8-0.7-4.2-2.4-4.3-3.9c-0.1-1.4,2-3.6,3.6-4.5c3.8-2.1,7.9-3.9,12-5.3c13.7-4.5,26.6-10.9,39.2-17.9
		c11-6.2,22.6-11.4,34.3-16.1c5.1-2,11.2-1.5,16.9-2c0.8-0.1,1.5-0.1,1.9-0.1c-4.4-8.7-9.5-17.1-13-26c-9.6-24.3-8.5-47.8,6.6-70
		c12.5-18.4,30.5-26.8,51.6-30.1c19.5-3.1,37.2,7.6,43.6,26.4c2.5,7.4,4.2,15.1,6.2,22.7c0.3,1.1,0.5,2.4,0.3,3.6
		c-0.2,1.3-1,2.4-1.5,3.7c-0.6-1.2-1.4-2.3-1.6-3.5c-2.4-13.7-4.4-27.6-14.2-38.3c-9.2-10.1-20.7-14-34.4-11.2
		c-19.2,3.9-35.7,11.7-47.3,28.4c-13.2,19-15.2,39.5-8.7,61c4.5,15,12.3,28.3,23.3,39.6c15.7,16.1,40.9,18.6,57.2,4.3
		c17-15,25.9-38.8,20.2-61.9c-0.3-1.2,0.3-2.5,0.4-3.8c0.9,1,2.2,1.9,2.5,3.1c2.9,12.1,2.7,24.1-1.8,35.7c-2.8,7-6.6,13.6-10.2,20.8
		c1,0.1,2.2,0.2,3.4,0.2c16.9,0.2,31.2,6.8,42.6,18.9c9.1,9.7,17.1,20.4,25.7,30.6c6.8,8.1,13.6,16,20.5,24c2.9,3.3,2.7,3.4-0.9,5.8
		c-6.4,4.3-12.5,8.9-19.4,13.9c2.6,2.2,4.3,4,6.4,5.3c9.3,5.5,18.6,10.8,28,16c3.4,1.9,3.6,3.3,0.3,6.1
		c-21.2,17.8-42.4,35.7-63.6,53.5c-1,0.8-1.9,1.8-2.7,2.4c3.4,3.2,6.6,6.5,10,9.4c2,1.6,4.4,2.7,6.6,4.1c0.7,0.4,1.1,1.2,1.7,1.8
		c-0.8,0.4-1.6,1.2-2.3,1c-1.8-0.4-3.7-0.9-5.1-1.9c-5.1-3.8-10-7.8-14.9-11.8c-2.2-1.8-0.8-3.1,0.8-4.4
		c11.8-9.4,23.7-18.6,35.2-28.3C1383.3,473,1394,463.4,1404.5,454.3z M1238.6,347.6c-3.6,6.6-2.2,21.6,2.7,26.7
		c1.8,1.8,4.3,3.3,6.7,3.9c9.4,2.4,20.9-3.1,25.3-11.8c2.2-4.4,1.9-8.9,0.8-13.6C1261.5,355,1249.7,353.5,1238.6,347.6z"/>
	<path d="M856.4,795.5c0.5,0.5,1.3,0.9,1.6,1.5c8.6,23.2,23.2,42.4,42,57.9c25.6,21.1,54.2,37.2,87,43.7c46,9.1,92,10.9,137.8-1.9
		c11.2-3.1,21.9-7.6,31.7-13.9c16.2-10.4,31.3-22.2,44.8-35.9c0.6-0.6,1.2-1.4,1.9-2.3c-8.7-4.7-17.1-9.1-25.5-13.7
		c-3.3-1.8-6.5-3.7-9.5-5.9c-1.1-0.8-1.5-2.6-2.1-3.6c3.1-1.6,5.7-2.6,7.9-4.1c16.3-11.1,32.5-22.3,48.9-33.3c2.9-2,6.3-3.6,9.7-4.5
		c4.1-1.1,5.7,0.6,5.6,4.8c-0.3,10.9-0.4,21.9-1.2,32.8c-1.1,15.4,0.6,29.8,11.5,41.8c0.5,0.6,0.5,1.6,0.7,2.5
		c-1.2,0.1-2.6,0.6-3.6,0.2c-10.3-3.9-20.9-7.4-30.9-12.2c-6.4-3-10.2-2-14.9,3c-12.7,13.4-27.7,24.2-43.2,34.1
		c-16.2,10.3-34.3,15.1-52.9,18.4c-41.8,7.5-83.7,5.9-124.5-4.9c-44.5-11.8-82.6-35-109.5-73.7c-5.2-7.5-9.2-15.9-13.5-24
		c-1-1.8-0.8-4.2-1.2-6.3C855.5,795.8,856,795.7,856.4,795.5z M1219.9,834.8c-0.2-0.2-0.5-0.4-0.7-0.5c-3.2,3-6.4,6.1-10.1,9.6
		c11.4,4.4,22,8.6,32.7,12.7c-5.8-9.3-7.3-19.4-8.4-30.3c-0.7,1.2-1,1.6-1.2,2.1c-1.7,4.1-3.1,8.1-1.9,12.7c0.3,1.1-0.5,2.9-1.3,3.8
		c-0.4,0.4-2.2-0.4-3.4-0.8c-0.7-0.2-1.3-0.9-2-0.9c-4.6-0.1-4.8-0.4-4.1-4.9C1219.7,837.1,1219.8,835.9,1219.9,834.8z
		 M1216.8,824.9c0.4,0.2,0.8,0.4,1.2,0.6c2.7-6.2,5.5-12.4,8.1-18.6c0.8-1.8,0.8-3.6,3.8-3.5c1.7,0,4.7-2.2,4.9-3.6
		c0.6-5.7,0.2-11.5,0.2-18.5c-4.5,2.2-8.1,4-11.7,5.8c0.4,0.3,0.7,0.5,1.1,0.8c-0.5,1.9-0.6,4.1-1.5,5.7c-4.8,8.1-9.8,16-14.7,24
		c1.2-0.2,1.8-0.8,2.3-1.5c5.7-8.2,11.3-16.4,17.1-24.6c0.6-0.8,1.7-1.3,2.6-2c0.2,1.1,0.9,2.4,0.6,3.4c-0.7,2.3-1.7,4.5-2.7,6.6
		C1224.3,807.9,1220.5,816.4,1216.8,824.9z M1197.6,837.8c2.1,1.1,4.3,2.3,6.5,3.5c2.2,1.1,3.3,0.2,4.1-2c2.1-6,4.2-12,6.6-17.9
		c1.5-3.8,3.3-7.5,5-11.3c-0.2-0.1-0.4-0.2-0.6-0.3C1212,819.1,1204.9,828.3,1197.6,837.8z M1180,828.6c6.5-7.8,12.7-15.1,18.9-22.5
		c-0.2-0.2-0.3-0.4-0.5-0.6c-8.6,5.9-17.3,11.8-26.5,18.1C1175.2,825.6,1177.7,827.2,1180,828.6z M1187,832.4
		c2.2,1.1,4.7,2.4,6.8,3.5c5.1-8.7,9.9-17.1,14.8-25.5c-0.1-0.1-0.2-0.1-0.3-0.2C1201.2,817.5,1194.2,824.8,1187,832.4z
		 M1216.3,794.6c-11.2,10.1-22,20.4-30.4,33C1197.9,818.3,1206.6,805.9,1216.3,794.6z M1233.4,807.1c-0.4-0.1-0.9-0.2-1.3-0.4
		c-1.5,4.5-3.1,9-4.9,14.5C1234,817.6,1232,811.7,1233.4,807.1z"/>
	<path d="M360.1,831.6c0.2,0.9,0.7,1.9,0.6,2.8c-1.1,11.7,4.5,21,11.5,29.3c12.9,15.2,29.3,26.2,46.5,36
		c23.5,13.3,49,17.2,75.6,16.2c20-0.7,39.9-2.4,59.1-8.8c28.7-9.7,51.7-27.2,69.9-51.2c1.8-2.4,1.1-3.6-0.8-5.2
		c-7.3-6-14.5-12.2-21.8-18.2c-0.9-0.7-2.2-1-3.3-1.5c0.5-0.8,1.1-1.5,1.6-2.3c1.4,0.6,3.1,0.9,4.3,1.8c5.1,4,10,8.3,14.7,12.2
		c7.2-6.9,14.1-13.6,21-20.3c-0.3-0.4-0.6-0.7-0.9-1.1c-5.2,2.9-10.4,5.8-15.7,8.6c-2,1.1-4.1,2-6.2,2.7c-0.8,0.2-2.3-0.3-2.7-0.9
		c-0.4-0.7-0.3-2.2,0.2-2.8c1.1-1.3,2.4-2.6,3.9-3.3c6.2-3,12.6-5.7,18.9-8.6c2.1-1,4.1-2.1,6.2-3.2c-0.1-0.4-0.3-0.8-0.4-1.2
		c-4.2,0.8-8.5,1.3-12.6,2.4c-8.5,2.4-16.8,5.1-25.2,7.7c-1.7,0.5-3.3,1.1-5,1.3c-0.9,0.1-1.8-0.6-2.7-1c0.6-0.9,1-2.2,1.9-2.5
		c17.7-7.6,35.8-13.7,55.1-15.7c7.2-0.7,11.6,1.3,14.7,7.6c0.8,1.5,0.9,3.6,0.6,5.4c-3.2,17.6-5.1,35.3-4.9,53.2
		c0,2.8,0.3,5.6,0.3,8.4c0.1,3.7-1.6,4.9-4.6,2.8c-3.8-2.7-7.4-5.7-10.9-8.7c-7-6-13.8-12-20.8-18.1c-4.8,5.6-9.2,11.2-14,16.3
		c-23.4,24.7-51.9,39.7-85.6,44.4c-24.4,3.4-48.8,4.5-73.2,0.2c-19.4-3.4-36.8-11.9-52.7-23c-10.3-7.2-20.3-15.2-29.2-24.1
		c-5.7-5.7-9.7-13.3-13.4-20.6c-1.9-3.8-1.8-8.7-2.3-13.2c-0.1-1.3,0.8-2.7,1.3-4C359.3,831.5,359.7,831.5,360.1,831.6z
		 M659.2,865.8c-0.2,0.6-0.4,1.1-0.5,1.7c-2.1-0.4-4.4-0.4-6.1-1.4c-0.8-0.5-0.4-3-0.2-4.6c0.2-1.8,0.9-3.5,1.6-5.9
		c-1.6,0.9-2.5,1.7-3.6,1.9c-1.5,0.4-3.1,0.4-4.6,0.5c0.5-1.4,0.7-3,1.6-4.1c2.4-3,5.1-5.7,7.6-8.5c-1.5,0.2-2.6,0.8-3.6,1.6
		c-2.5,2-4.8,4.2-7.4,6.1c-0.7,0.5-2.1,0.2-3.2,0.2c0-1-0.2-2.1,0.1-2.9c0.6-1.3,1.5-2.5,2.4-3.7c1.4-1.9,2.8-3.8,4.2-5.7
		c-0.2-0.1-0.4-0.3-0.7-0.4c-5.3,4.1-10.7,8.3-16.4,12.7c10.2,8.8,20.2,17.4,30.2,25.9c0.4-0.2,0.8-0.5,1.3-0.7
		c0-10.2-0.6-20.5,0.2-30.7c0.7-10.2,2.7-20.3,4.2-30.4c0.6-4.5-3.6-9.1-8.5-9.3c-1.7,4.3-3.5,8.5-5.1,12.5c1.1,0.5,2.2,0.9,3.3,1.4
		c-0.5,1.1-0.9,2.5-1.7,3.3c-2.4,2.5-4.9,4.9-7.4,7.3c-3.3,3.3-6.6,6.7-9.8,10.1c0.2,0.2,0.5,0.5,0.7,0.7c1.2-0.9,2.5-1.8,3.7-2.8
		c3.5-2.7,6.9-5.4,10.5-7.9c0.8-0.6,2.4-0.1,3.6-0.1c-0.1,1.1,0,2.4-0.5,3.3c-1.4,2.3-3.1,4.4-4.7,6.6c2.6-0.8,4.6-2.3,6.9-3.3
		c1.1-0.5,2.6-0.1,4-0.1c-0.2,1.2-0.1,2.6-0.7,3.6c-2,3-4.2,5.7-6.4,8.7c4.7,0.9,4.9,1.4,3,5.8c-0.8,1.9-1.4,3.9-2,5.7
		C656.7,864.2,657.9,865,659.2,865.8z M638.9,835c-0.2-0.2-0.5-0.5-0.7-0.7c-5.9,3.4-11.8,6.8-18.1,10.4c2.1,1.7,3.9,3.2,5.9,4.8
		C630.5,844.4,634.7,839.7,638.9,835z M630.4,833.8c9.5-3.6,17.6-8.7,21-19.7C644.1,820.9,637.2,827.4,630.4,833.8z"/>
	<path d="M1334.3,417.3c0.4,1.3,1.2,2.6,1.2,3.9c0.4,37.4,1.5,74.9-5.6,112c-4.5,23.8-8.1,47.8-8.7,72.2
		c-0.2,11.2,0.1,22.4,3.8,33.2c0.3,0.8,0.1,2.4-0.2,2.5c-1.1,0.3-2.3,0.4-3.3,0c-15.1-5.6-31.2-2.6-46.7-5.8c-0.2,1.3-0.5,2-0.5,2.8
		c-0.3,20-0.6,40-0.8,59.9c-0.1,8.1,0,8.1,7.9,8.6c11.4,0.8,21.8,4.6,31.5,10.6c0.7,0.4,1,1.6,1.5,2.4c-0.9,0.1-2,0.5-2.8,0.3
		c-1.1-0.3-2.2-0.9-3.2-1.6c-9.8-6.1-20.6-8.7-32-8.8c-3.7,0-5.8-1.1-5.7-5.2c0.3-12.9,0.5-25.8,0.6-38.8c0.1-10.1,0-20.2,0-30.6
		c-21.9-2.7-43.1-5.3-64-7.9c0,13.8-0.7,26.7,0.2,39.5c0.9,12.5,3.4,25,5.3,37.4c-0.5,0.1-1.1,0.3-1.6,0.4c-0.5-1.1-1.3-2.2-1.6-3.4
		c-5.1-22.1-6.5-44.5-6.1-67.1c0.1-6.9,0.1-7-7-7.3c-10.4-0.4-20.8-1.2-31.1-0.7c-7.1,0.4-14,2.7-21,4.1c-1.1,0.2-2.3,0.3-3.4,0.5
		c0.1-1.2-0.2-2.6,0.3-3.7c3.7-8.8,8.7-17.3,11.1-26.4c4.5-17.6,7.5-35.7,11.2-53.5c3.6-17.2,7.5-34.4,11-51.6
		c4.1-20.1,6.5-40.5,6.9-61.1c0.1-5.3-0.6-10.6-0.7-16c0-1.4,1.1-2.8,1.7-4.2c0.5,1.4,1.3,2.7,1.4,4.1c2.6,33.6-3.7,66.3-10.6,99
		c-3.8,18.2-6.9,36.6-10.7,54.9c-3.8,18.2-7.3,36.6-17.2,53.7c4.3-0.9,7.9-2.3,11.6-2.4c12.1-0.3,24.2-0.7,36.3,0
		c16,0.9,31.9,2.5,47.8,4.2c17.9,1.9,35.7,4.4,53.5,6.4c8.6,1,17.1,1.6,26.1,2.3c-0.5-3.2-1.1-7.2-1.6-11.2
		c-2.1-15.9-0.8-31.7,1.2-47.4c3-23.4,7.5-46.6,10-70c1.9-18.1,1.9-36.4,2.4-54.7c0.3-10.8-0.1-21.6-0.2-32.4c0-1,0.2-2,0.2-3
		C1333.3,417.5,1333.8,417.4,1334.3,417.3z"/>
	<path d="M303.2,347.1c-4.9-0.4-9.8-0.6-14.7-1.2c-9.2-1.2-17.5-4.7-24.7-10.5c-14.1-11.3-25.1-24.4-27.2-43.4
		c-2.4-21.6,3.4-41,14.7-59c8.7-14,19.5-26.2,35.2-32.7c15.1-6.3,30.7-7.2,45.9-0.7c15.8,6.8,24.1,19.9,27.2,36.4
		c0.1,0.8-0.6,1.8-0.9,2.7c-0.7-0.8-1.9-1.5-2-2.4c-1-7.5-4.6-13.7-8.7-19.9c-7.7-11.9-19.3-16.5-32.5-17.6
		c-17.5-1.4-32.9,4.1-45.6,16.4c-16.5,15.9-26.7,35.1-30.2,57.7c-5.8,37.1,22.3,65.8,49.4,70c10.6,1.6,21.2,1.8,31.8-0.5
		c21.2-4.7,39.1-24.7,41.3-46.3c1.1-11,2.3-22-1.5-32.9c-0.3-0.8,0.3-1.9,0.5-2.8c0.8,0.7,2.1,1.2,2.3,2c1,3.3,2.3,6.7,2.4,10.1
		c0.9,18.2,0.5,36.1-11.7,51.4C341.2,340.1,324.3,348.2,303.2,347.1z"/>
	<path d="M1224,292.4c7.8,0,15.3,0,22.8,0c2.8,0,5.6,0.2,8.4,0c8.9-0.6,17.8-1.5,26.7-1.8c3.2-0.1,6.6,0.7,9.8,1.5
		c2.3,0.6,3,2.5,1,4.2c-7.5,6.1-14.9,12.4-22.9,18c-3.3,2.3-7.8,3.5-11.9,4.3c-9.9,2.1-17.7-2.7-24.3-9.3
		C1229.3,305,1224.7,300.5,1224,292.4z M1269.5,310.7c-1.2-1.3-2.4-2.7-4-4.5c-2.5,0.2-5.6,0.4-8.6,0.6c-0.5,2.3-0.9,4.1-1.3,6
		c-0.5,0-1,0-1.5-0.1c-0.4-1.9-0.8-3.9-1.4-6.2c-2.4-0.3-5-0.5-7.4-0.8c-0.5,2.8-0.9,5-1.3,7.4c6.4,4.5,17.9,3.4,25.4-2.6
		c2.1-1.2,4.2-2.3,6.3-3.5c-0.2-0.4-0.3-0.7-0.5-1.1c-1.5,0.1-3,0.2-4.5,0.2C1270.3,307.9,1269.9,309.3,1269.5,310.7z M1241.9,301.9
		c0.1-1.1,0-2.1,0.3-3c0.4-1,1.1-1.9,1.6-2.8c0.4,1,1.4,2.2,1.2,3.1c-0.4,2.8,0.9,3.6,3.3,3.7c1.5,0,3.1,0,4.8,0
		c0.1-1.6,0-2.9,0.4-4.2c0.2-0.7,1-1.2,1.6-1.9c0.5,0.7,1.2,1.4,1.3,2.1c0.2,1.4,0.1,2.8,0.1,4.1c2.7,0,4.8-0.1,7,0
		c2.6,0.2,4.3-0.3,4.6-3.4c0.1-1.1,1.3-2.1,2-3.1c0.4,0.2,0.8,0.3,1.2,0.5c-0.1,1.8-0.3,3.7-0.4,5.5c8.1,2.2,12.9-2.6,17.5-8.7
		c-20.1,0.6-40.3,1.3-60.6,1.9C1230.7,302.9,1232.4,303.6,1241.9,301.9z M1242.1,312.1c-0.3-2.6-0.5-4.3-0.7-6.1c-2.1,0-4,0-5.8,0
		c-0.1,0.3-0.2,0.5-0.3,0.8C1237.4,308.4,1239.5,310.1,1242.1,312.1z"/>
	<path d="M791.4,478.6c3.8,8.5,3.9,18,5.8,27.5c5.7-2.3,11.3-4.6,18-7.4c0.4-2,1-5.4,1.6-8.9c-0.7-0.1-1-0.2-1.2-0.2
		c-1.3,0-2.7,0-4,0.1c0.9-1.1,2-2,2.8-3.2c1-1.4,2.3-2.9,2.4-4.5c0.4-3.7,0.1-7.5,0.3-11.2c0.1-1.4,0.9-2.8,1.3-4.2
		c1.1,1,2.4,1.9,3.1,3c1.1,1.8,1.6,4,2.8,5.7c1.3,1.9,3.1,3.6,5.2,6c-1.7,2.8,1.5,4.6,3.6,6.9c0.7,0.8,0.9,2.2,1.3,3.3
		c-1.1-0.4-2.4-0.5-3.3-1.1c-1.3-0.9-2.1-2.4-3.4-3.4c-1.2-0.9-2.7-2-4-1.9c-2.2,0.2-3.5,1.5-3.8,4.2c-0.6,5.1-1.8,10.2-2.9,15.3
		c-0.3,1.2-1,2.3-1.5,3.4c-0.4,0-0.8-0.1-1.2-0.1c-0.2-1.5-0.5-3-0.8-5c-1.7,0.6-3.5,1.1-5.2,1.9c-2.1,0.9-4,2.1-6.1,3
		c-6.4,3-7.7,2.1-8.6-4.8c-0.9-6.7-2.3-13.4-3.4-20.1c-0.2-1.3-0.2-2.7-0.3-4C790.2,478.9,790.8,478.8,791.4,478.6z M823.8,481.4
		c-1.1-1.9-2-3.7-2.9-5.4c-0.2,0.1-0.4,0.2-0.6,0.3c0,2,0,4,0,6.3C821.6,482.3,822.5,481.9,823.8,481.4z"/>
	<path d="M1233.4,415.5c0.5,2.1,1.1,4.3,1.5,6.4c0.2,1.1-0.1,2.3-0.1,3.5c-0.9-0.8-2.4-1.4-2.7-2.3c-0.7-2.6-1.6-5.5-1.1-8
		c0.6-3.8,4.3-4.7,6.9-1.8c1.9,2.2,3.4,4.8,4.7,7.4c3.1,6.5,4.6,13.3,4.1,20.5c-0.3,4.4-2.1,8.1-6.4,9.8c-4,1.5-6.9-0.9-9.5-3.5
		c-2.1-2-3.9-4.3-6.3-6.9c-0.2,3.8-0.1,7.1-0.6,10.3c-0.5,2.9,0.1,6.7-4.3,8.7c0-1.5-0.2-2.4,0-3.2c2.2-7.7,1.8-15.5,0.8-23.4
		c-0.2-1.2,0.6-2.5,1-3.8c0.8,0.9,1.8,1.7,2.5,2.7c3.2,4.5,5.9,9.5,9.6,13.6c4.2,4.7,9.1,3.2,9.8-3.1c0.5-5.1-0.3-10.6-1.6-15.6
		c-1.1-4.2-3.6-8-5.5-12C1235,415,1234.2,415.2,1233.4,415.5z"/>
	<path d="M1282.6,428.2c-2.8,3.6-4.1,3.7-6.2-0.3c-2.4-4.4-4.3-9.2-6.2-13.8c-0.3-0.7,0.3-1.8,0.5-2.7c0.9,0.6,2.2,1,2.5,1.8
		c1.8,4,3.3,8.1,4.4,10.9c3.1,0.6,5.4,0.5,7.2,1.4c2.7,1.3,4.5,0.9,6.2-1.4c3.3-4.3,3.6-13.7,0.5-18.3c-3.1-4.5-8.5-5.2-11-1.2
		c0.4,0.3,0.7,0.7,1.1,1c1,0.8,2,1.6,3,2.5c-1.6,0.1-3.3,0.7-4.6,0.2c-1.2-0.5-2.7-2.4-2.5-3.5c0.2-1.7,1.3-3.8,2.7-4.8
		c3.8-2.7,10.4-0.7,13.7,3.8c4.2,5.7,3.9,17-0.6,22.6C1290.6,429.6,1288.3,430,1282.6,428.2z"/>
	<path d="M777.9,438.5c5.2,0.3,6.6-0.6,7.2-5.2c0.7-5.7-1.3-10.5-6-13.9c-3-2.1-5.7-1.6-8.2,1c-6.5,7-5.5,20.9,2.2,26.6
		c1.1,0.8,3.1,0.3,4.7,0.4c1.2,0.1,2.3,0.2,3.5,0.3c-0.8,0.9-1.4,2.1-2.4,2.7c-3,1.8-5.8,1.3-8.3-1.2c-7.7-7.4-9.3-19.5-3.7-28.6
		c4.2-6.8,10.7-7.5,16.4-1.9c5.2,5.2,6.7,14.1,3.5,19.9c-1.3,2.3-3.1,4-5.8,3.1C779.7,441.3,778.9,439.6,777.9,438.5z"/>
	<path d="M821.7,405.2c2.6,0.6,5.3,0.8,7.7,1.8c4.5,1.7,7,6.1,6.4,10.8c-1.2,9.1-8.1,15.2-16.1,17.9c-0.8,0.3-3-1.2-3.5-2.4
		c-1.9-3.9-3.4-8.1-5-12.1c-0.4-1-0.5-2.1-0.9-3.1c-2.7-7.1,0-11.4,7.8-12.3c1.2-0.1,2.4-0.1,3.6-0.2
		C821.7,405.4,821.7,405.3,821.7,405.2z M819.9,433.5c3.2-2.6,6-4.6,8.4-7c4.1-4.2,5.7-10,3.6-13.4c-2.9-4.7-7.6-4.6-12.4-4.3
		c-0.9,0.1-1.9,0.2-2.8,0.4c-4.2,1.1-5.1,2.7-3.7,6.8c1.1,3.5,2.3,7.1,3.6,10.5C817.5,428.9,818.7,431,819.9,433.5z"/>
	<path d="M283.6,430c-1.8,4.5-3,8.9-5.3,12.5c-2.9,4.3-9.3,3.5-11.5-1.3c-3.3-7.3-3.1-14.8,1.1-21.7c2.7-4.4,7.9-4.7,10.9-0.5
		C280.9,422.1,281.9,426,283.6,430z M267.5,436.6c0.6,0,1.2-0.1,1.9-0.1c1.1,0.9,2.4,1.7,3.3,2.8c1.6,2,3.1,2.2,4.3-0.1
		c2.8-5.3,3.5-10.9,0.7-16.4c-0.8-1.5-2.9-3.1-4.5-3.2c-1.2,0-3.4,2-3.7,3.5C268.4,427.5,268.1,432.1,267.5,436.6z"/>
	<path d="M306.3,415.9c-1.2-0.7-2.8-1.1-3-1.9c-0.2-0.8,0.7-2.2,1.5-3c3.4-3.3,11.7-4.4,15.8-2.2c4.5,2.4,6.2,7.2,5.1,13.5
		c-1.1,6.1-5.5,11.5-10.1,12.2c-0.5,0.1-1.2-0.3-2.6-0.8c1.4-1.2,2.1-2.2,3.2-2.8c4.9-2.5,6.4-7,6.8-11.9c0.4-6.5-6-10.6-11.8-7.7
		c-0.8,0.4-1.5,1.8-1.4,2.7c0.5,5.9,1.2,11.9,1.8,17.8c0.1,1-0.1,2.1-0.1,3.2c-1-0.9-2.6-1.6-2.8-2.6c-0.9-5-1.4-10-2.1-15
		C306.4,416.9,306.3,416.3,306.3,415.9z"/>
	<path d="M775.7,521c-8.6-0.7-16.6-11-14.7-20.1c1.1-5,3.4-9.8,5.9-14.3c2.2-4,6.4-5.4,9.9-4.2c0.8,0.3,1.4,1.3,2.1,1.9
		c-0.9,0.3-1.7,0.8-2.6,1c-1.6,0.4-3.6,0.2-4.8,1.1c-6.6,4.5-9.2,17.8-5.1,24.6c3.7,6.1,8.4,7.6,14.9,4.8c1-0.4,1.9-1.1,2.9-1.3
		c1.1-0.2,2.3,0.1,3.5,0.2c-0.7,0.8-1.2,2.1-2,2.4C782.4,518.6,779.1,519.7,775.7,521z"/>
	<path d="M319.3,465.5c1.5,3.5,2.7,6.5,3.9,9.5c-0.3,0.3-0.6,0.6-0.9,0.9c-1.9-1.7-3.8-3.3-5.8-5.1c-4.1,0.9-6.2,3.4-5.4,7.9
		c0.1,0.6,0.2,1.4,0,2c-0.4,0.9-1.2,1.7-1.8,2.6c-0.5-0.8-1.3-1.7-1.4-2.5c-0.1-8.2-0.1-16.3,0-24.5c0-0.8,0.9-1.6,1.5-2.4
		c0.8,0.6,1.9,1,2.3,1.7c1.1,1.8,1.7,3.9,2.7,5.8C315.7,463.5,316.3,466.7,319.3,465.5z"/>
	<path d="M1265.9,476.6c-3.6,1.3-4.5,3.3-3.8,6.7c0.7,3.3,0.7,6.8,1,10.2c-0.5,0.1-1.1,0.2-1.6,0.3c-0.5-1.2-1.2-2.3-1.6-3.5
		c-0.9-3.2-2.1-6.4-2.4-9.7c-0.6-6-0.6-12-0.8-18c0-0.6,0.9-1.7,1.2-1.6c0.9,0.2,2.1,0.7,2.6,1.4c1.6,2.4,2.9,5.1,4.6,7.5
		c2.1,3,4.6,5.8,6.8,8.8c0.6,0.8,0.4,2,0.6,3.1c-1-0.4-2.2-0.5-3-1.2C1268.2,479.5,1267.1,478,1265.9,476.6z"/>
	<path d="M277.9,467.7c-0.7,0.2-1.5,0.5-2.2,0.4c-6.2-0.4-9.2,1.4-11.5,6.9c-2.8,6.8-2.9,13.5,0.6,20.1c3.1,5.8,5.7,6.5,11.7,3.9
		c1.7-0.8,3.8-0.9,5.7-1.3c-1.5,1.4-2.8,3.2-4.6,4.1c-7.2,3.6-11.8,2-15.5-5.1c-4.7-8.9-4-17.8,1-26.3c2.4-4.1,6.4-5.9,11.2-5.6
		c1.3,0.1,2.6,1,4,1.6C278.2,466.8,278,467.3,277.9,467.7z"/>
	<path d="M868.7,474.6c-0.1,5.9-5.5,10.9-11.7,10.7c-0.6,0-1.3-0.6-1.9-1c0.4-0.6,0.7-1.5,1.2-1.8c1.1-0.5,2.6-0.3,3.4-0.9
		c2-1.7,4.8-3.5,5.3-5.7c0.5-2-0.8-5.5-2.4-6.9c-3-2.5-6.9-3.8-10.4-5.8c-2.7-1.5-5.1-3.3-4-6.9c0.9-2.9,5.6-5.2,8.7-4.1
		c1.3,0.5,2.4,1.9,3.3,3.1c0.3,0.5-0.3,1.6-0.5,2.5c-0.7-0.3-1.5-0.6-2.2-0.9c-1.2-0.5-2.4-1.4-3.5-1.4c-0.9,0.1-1.7,1.3-2.6,2.1
		c0.9,1,1.7,2.4,2.8,3c2.7,1.5,5.6,2.5,8.2,4C866.2,466.8,868.8,469.9,868.7,474.6z"/>
	<path d="M1257.3,425.7c2.4-1.9,4.2-3.5,6.2-4.9c0.6-0.4,1.6-0.2,2.5-0.3c-0.1,0.8,0,1.9-0.5,2.4c-0.9,1.1-2.1,2-3.3,2.9
		c-5.4,4.3-5.6,5.1-2.2,12.4c1.2-1.1,2.3-2.1,3.5-3c1-0.7,2.1-1.1,3.2-1.6c-0.3,1.2-0.5,2.6-1,3.7c-0.5,0.9-1.3,1.6-2.2,2.3
		c-3.6,3-6.6,2.1-7.6-2.5c-1.1-4.8-1.6-9.7-2.7-14.5c-0.4-1.9-1.5-3.7-3.4-6.3c3.8-2.7,7.5-5.4,11.4-8c0.3-0.2,1.4,0.1,1.6,0.5
		c0.2,0.4,0.1,1.4-0.2,1.8c-1.1,1.1-2.3,2.3-3.7,3c-3.2,1.6-4,3.8-2.8,7.1C1256.6,422.1,1256.8,423.6,1257.3,425.7z"/>
	<path d="M1212.6,489.9c1.1-4.2,1.7-8.6,3.4-12.6c2-4.7,7.2-6.4,11.3-4.3c0.9,0.5,1.4,1.9,2.1,2.8c-1,0-2.2,0.4-3.1,0.1
		c-3.5-1.3-6.3-0.3-7.7,2.9c-3.3,7.7-3.9,15.5,1,22.9c3.2,4.8,6.1,5.2,10.9,1.9c0.8-0.5,2-0.5,3.1-0.7c-0.4,1-0.4,2.3-1.1,3
		c-4.1,4.3-9.5,4.3-13.7-0.2C1214.7,501.4,1213,496,1212.6,489.9z"/>
	<path d="M288,251.5c-0.7,4.4-1.4,9.7-2.5,14.9c-0.3,1.5-2.2,2.7-3.3,4c-1.2-1.1-3-1.9-3.6-3.3c-3.5-8-2.4-15.9,2-23.2
		c0.7-1.2,2.9-2.1,4.2-2c1,0.1,2,2.2,2.4,3.5C287.8,247.1,287.8,248.9,288,251.5z M281.8,265.9c0.4,0,0.8,0,1.3,0
		c0.6-6.7,1.2-13.4,1.8-20.1C279.4,249.9,278.4,260.3,281.8,265.9z"/>
	<path d="M1160.2,730.5c-0.4-0.2-1.1-0.4-1.2-0.8c-0.2-0.5,0-1.3,0.2-1.8c0.2-0.4,0.8-0.7,1.2-1c11.9-6.7,23.8-13.5,35.8-20.1
		c2.5-1.4,5.4-2.2,8.2-3.1c0.6-0.2,1.6,0.5,2.3,0.8c-0.3,0.6-0.5,1.6-1.1,1.9c-14.6,7.8-29.3,15.6-43.9,23.4
		C1161.3,730,1160.8,730.2,1160.2,730.5z"/>
	<path d="M320.9,253.3c-0.4,6.3-2.3,9.2-7.7,11.2c-2.7,1-4.5,0.2-5.3-2.4c-2.1-7.3-0.1-13.9,3.7-20.1c1.5-2.3,4.5-1.9,5.7,0.8
		C318.9,246.2,319.8,249.9,320.9,253.3z M311.2,261.7c7.1-4.6,8.1-11.3,2.7-17.4C311.1,249.8,309.2,255.3,311.2,261.7z"/>
	<path d="M1275.1,460.6c1.6,0.4,3.3,0.6,4.9,1.1c1.9,0.6,4,0.9,5.6,2c2.9,2,5.5,4.5,4.6,8.6c-0.7,3.2-5.3,7.4-8.6,7.5
		c-1.5,0.1-3-0.7-4.5-1.1c0.1-0.5,0.1-1.1,0.2-1.6c1.2-0.1,2.7,0.2,3.6-0.4c2.2-1.6,5-3.3,5.9-5.6c0.4-1.1-2.6-4.1-4.6-5.5
		c-1.6-1.1-4.1-0.9-6.2-1.4c-4.3-1-5.8-4.2-3-7.7c1.7-2.1,4.5-3.6,7-4.7c0.7-0.3,3.4,1.3,3.5,2.2c0.2,2.6-2,0.7-2.9,1.1
		c-2.2,0.9-4.1,2.5-6.2,3.8C1274.6,459.4,1274.8,460,1275.1,460.6z"/>
	<path d="M1291.6,454.1c2.9,0.1,5.9-0.2,8.6,0.6c2.4,0.8,5.3,2.4,6.4,4.4c1.8,3.2-0.9,5.8-3.2,7.8c-2.3,2-4.8,4-8.2,2.3
		c-0.2-0.1-0.2-0.5-0.5-1.2c1-0.4,1.9-0.9,2.9-1.4c1.3-0.7,2.8-1.1,3.7-2.2c1.1-1.3,1.6-3.1,2.4-4.6c-1.5-0.7-2.9-1.8-4.5-2.1
		c-2.3-0.5-4.8-0.2-7.1-0.6c-4.2-0.8-5.2-3.4-2.7-6.9c1.1-1.6,2.5-3.1,4.1-4.3c2.2-1.5,4.3-1,5.9,1.1c0.3,0.4,0.5,1.3,0.3,1.8
		c-0.2,0.4-1.3,0.8-1.6,0.6c-4.5-2.7-4.9,1.6-6.7,3.4C1291.4,453.3,1291.5,453.7,1291.6,454.1z"/>
	<path d="M285.5,464.9c2.5,3.4,2.2,7.7,2.7,11.7c0.5,4.1,0.6,8.2,1,13.1c3.2-1.8,6.1-3.3,8.9-4.9c2-1.1,3.9-2.3,6-3.2
		c0.7-0.3,1.7,0.2,2.5,0.3c-0.3,0.8-0.4,1.9-1,2.2c-5,2.8-10,5.6-15.1,8.2c-2.5,1.3-4.5,0.5-4.8-2.6c-0.7-7.5-1.3-15.1-2-22.6
		c0-0.6,0.3-1.2,0.4-1.8C284.7,465.1,285.1,465,285.5,464.9z"/>
	<path d="M845.1,460.7c-3.5,0.2-6.5,0.7-6.6,4.5c0,1.3,1,3.1,2.1,3.9c1.7,1.2,4,1.4,5.9,2.4c3.8,1.9,5.6,6.2,4.6,10.5
		c-1,3.9-3.3,5.7-7.9,5.9c-0.8,0-1.6-0.5-2.4-0.8c0.6-0.7,1.1-2,1.8-2c3.3-0.4,5.6-1.8,5.6-5.5c-0.1-3.9-2.8-5.3-6.1-6.4
		c-7.8-2.6-9.4-7.7-4.5-13.5C839.9,456.9,842.6,457.1,845.1,460.7z"/>
	<path d="M1248.9,264.1c-1.9,7-7.3,4.8-11.1,5.2c-4.6,0.5-9.3-0.1-13.9-0.4c-1-0.1-2-1-3-1.5c0.7-1,1.4-2,2.3-2.9
		c0.3-0.3,1-0.3,1.5-0.3C1232.7,264.1,1240.6,264.1,1248.9,264.1z"/>
	<path d="M1255.6,493.1c-4.5,2.5-9,5.1-13.6,7.3c-0.5,0.2-2.6-1.3-2.9-2.3c-1.9-7-3.6-14.1-5.2-21.3c-0.2-0.7,0.5-1.5,0.8-2.3
		c0.7,0.6,1.9,1.1,2.1,1.8c1.4,5,2.7,10,3.9,15c0.4,1.8,0.7,3.6,1.1,5.6c4.7-1.4,7.8-6,12.8-5.6C1255,492,1255.3,492.6,1255.6,493.1
		z"/>
	<path d="M331.1,446c-1,0.4-2.2,0.6-3,1.2c-1.7,1.3-3.6,2.6-4.9,4.3c-1.5,1.9-0.6,3.5,1.6,4.3c1.6,0.6,3.6,0.6,4.9,1.6
		c1.8,1.4,4.3,3.4,4.4,5.3c0.2,2.4-1.6,5-2.9,7.3c-0.3,0.5-2,0.3-3.1,0.4c0.3-0.9,0.5-1.9,1.1-2.6c3.5-3.9,2.8-6.6-2.1-8.1
		c-0.5-0.1-1-0.2-1.5-0.4c-4.9-1.4-6.6-3.5-6-7c0.8-4.5,5.1-8.5,9-8.3c0.9,0,1.8,0.6,2.6,0.9C331.1,445.3,331.1,445.6,331.1,446z"/>
	<path d="M796.2,415.7c0.2,1.3,0.6,2.6,0.6,3.9c0.1,5.1,0.2,10.1,0,15.2c-0.1,3.4,1.4,4.1,4.1,2.9c2.2-0.9,4.2-2.3,6.4-3.2
		c0.7-0.3,1.8,0.2,2.8,0.3c-0.4,0.7-0.6,1.9-1.2,2.2c-3.5,1.5-7,3.1-10.6,4.1c-2.3,0.6-4.3-0.9-4.3-3.5c-0.1-6.5-0.1-13.1-0.1-19.6
		c0-0.8,0.7-1.7,1.1-2.5C795.5,415.6,795.8,415.7,796.2,415.7z"/>
	<path d="M1298.7,266.5c-1.7,1-3.3,2.9-5,3c-6.7,0.2-13.5-0.2-20.2-0.5c-0.8,0-1.5-1.2-2.2-1.9c0.7-0.7,1.3-1.9,2-1.9
		c8.3-0.1,16.5-0.1,24.8-0.1C1298.2,265.5,1298.4,266,1298.7,266.5z"/>
	<path d="M341.6,441.9c-3.1,1.3-4.9,2.1-6.8,2.9c0.1,0.5,0.2,1,0.3,1.5c2.9,0.6,5.9,1.1,8.7,2c2.6,0.8,4.8,2.8,4,5.6
		c-0.6,2.3-2.4,4.4-4,6.3c-0.4,0.5-1.9,0-2.9,0c0.4-0.8,0.7-1.7,1.2-2.5c0.8-1.4,2.7-3.2,2.3-4c-0.6-1.4-2.5-2.4-4.1-3
		c-1.8-0.7-4.1-0.3-5.8-1.2c-1.3-0.7-3.1-3.3-2.8-3.9c1.4-2.3,3.5-4.4,5.6-6.1C338,439.2,340.1,441,341.6,441.9z"/>
	<path d="M291.2,436.6c4.3-2,7.6-3.6,10.9-5.1c-0.7,4-9.1,9-11.9,8c-1-0.4-2.3-2.2-2.2-3.1c0.8-5.9,1.9-11.8,3-17.7
		c0.1-0.7,1.1-1.2,1.7-1.8c0.4,0.7,1.3,1.5,1.2,2.2c-0.4,4-1,7.9-1.7,11.9C292,432.6,291.6,434.2,291.2,436.6z"/>
	<path d="M295.6,299.3c6.3,3.1,11-0.3,15.6-3.7c1.1-0.8,2.1-1.7,3.2-2.3c0.6-0.3,1.4,0.1,2.2,0.2c-0.1,0.7,0,1.7-0.4,2.1
		c-5.2,4.1-10.1,8.8-17.5,7.9C296.5,303.2,294.4,302.8,295.6,299.3z"/>
	<path d="M1292,287.1c2.2,0.4,3.5,0.4,4.5,0.9c4.4,2.2,6.2,10.1,3.3,14c-0.5,0.6-1.5,0.9-2.2,1.3c-0.2-0.8-0.9-1.7-0.7-2.3
		c2.2-5,1.2-8.7-3.7-11.4C1293,289.5,1292.9,288.8,1292,287.1z"/>
	<path d="M1221.9,301c-4.2-1-6.5-6.2-5-10.5c0.9-2.5,2.2-4.9,5.7-3.5c-1.1,2.4-2.7,4.6-2.8,6.8C1219.7,296,1221,298.4,1221.9,301z"
		/>
	<path d="M786.8,254.2c0.4,3.4,1.7,7.1,1,10.3c-0.6,2.8-2.9,6.1-5.4,7.6c-2.7,1.6-4.2-1.7-5.1-4.1c-2.7-7.1-3.4-14.2,0.5-21.2
		c0.8-1.5,2-2.9,3.3-3.9c2.5-2,4.7-1.2,5.3,1.8c0.7,3.1,0.8,6.3,1.2,9.5C787.3,254.1,787,254.1,786.8,254.2z M782.1,268.6
		c1-7.7,3.5-15.2,0.9-23C776.9,250.8,776.6,265,782.1,268.6z"/>
	<path d="M795.9,305.2c-5.7,0-8.8-3.1-8.1-7c0.1-0.7,0.9-1.3,1.4-2c0.5,0.5,1.2,1,1.5,1.6c1.9,4.7,2.9,5.4,7.5,3.6
		c7-2.7,13.1-6.6,16-14.1c0.4-1,2.7-2.3,3.3-2c3,1.6,6,3.5,8.5,5.8c1.8,1.6,1.4,4.2-1,4.8c-3.4,0.9-7,0.8-10.5,1.3
		c-1.3,0.2-3,0.1-4,0.8C805.8,301.5,801,305,795.9,305.2z M814.3,294.5c3.7-0.4,6.3-0.6,8.8-0.9c0.1-0.4,0.1-0.7,0.2-1.1
		c-1.8-1.3-3.7-2.6-5.9-4.1C816.4,290.4,815.7,291.8,814.3,294.5z"/>
	<path d="M825.6,250.6c-0.4,4.2-0.5,7.4-1,10.5c-0.5,3.1-5.4,4.7-8.1,2.7c-5.7-4.1-6.8-15.9-2-20.9c3.6-3.8,8.7-2.6,10.1,2.5
		C825.3,247.5,825.4,249.6,825.6,250.6z M822.5,252.2c-0.2-2-0.1-3.6-0.6-4.9c-0.5-1.2-1.5-3-2.4-3.1c-1-0.1-2.7,1.1-3.3,2.2
		c-2.1,3.8-2.4,7.9-0.1,11.7c0.5,0.8,1.8,1.5,2.6,1.5c0.9,0,2.2-0.9,2.5-1.7C821.9,255.9,822.2,253.7,822.5,252.2z"/>
</g>
</svg>
