<?xml version="1.0" encoding="utf-8"?>
<!-- Generator: Adobe Illustrator 22.0.1, SVG Export Plug-In . SVG Version: 6.00 Build 0)  -->
<svg version="1.0" id="Ebene_1" xmlns="http://www.w3.org/2000/svg" xmlns:xlink="http://www.w3.org/1999/xlink" x="0px" y="0px"
	 viewBox="0 0 1547.9 1049.4" enable-background="new 0 0 1547.9 1049.4" xml:space="preserve">
<g>
	<g>
		<path d="M949,422.6c-4.7,6-9.4,12-14.2,17.8c-0.9,1.1-2.6,1.5-3.9,2.2c-0.8,0.4-1.7,0.7-2.4,1.2c-17.1,11.2-32.9,24-47.1,38.8
			c-11.8,12.3-20.9,26.1-26.3,42.4c-4.9,14.8-6.6,30.1-8.9,45.4c-3.3,21.6-8.1,42.9-11.7,64.5c-2.4,14.4-5.2,29-5.6,43.6
			c-0.6,26.9,2.9,53.2,18.6,76.4c5.8,8.6,12.7,15.7,21.9,20.6c5.3,2.8,10.5,5.8,16.2,8.9c4.9-11.2,15.4-15.9,25-21.9
			c9.6-6,19-12.3,27.9-18.1c-2.9-6.7-6.8-13.1-8.4-20c-2.2-10-2.9-20.3-3.6-30.5c-1.6-21.8,1-43.3,4.2-64.8
			c1.6-10.9,2.1-22.1-0.5-33c-0.8-3.2-2.5-6.1-3.6-9.3c-0.3-0.9,0.2-2.1,0.3-3.1c0.8,0.6,2,1.1,2.5,1.9c3.8,6.8,5.7,14.2,5.3,21.9
			c-0.6,11.7-1.5,23.4-2.9,35c-3.4,27.4-4,54.8,1.5,81.9c1.1,5.4,4.6,10.4,7.2,15.4c0.5,0.9,1.9,1.3,2.8,1.9
			c0.8,0.5,1.6,1.1,2.4,1.6c-0.6,0.8-1.1,1.8-1.9,2.3c-13.9,8.6-28,17.1-41.8,25.8c-3.7,2.3-6.9,5.4-9.9,8.6
			c-1.6,1.7-2.5,4.4-2.9,6.7c-0.6,3-1.8,2.7-3.8,1.6c-5.3-3.1-10.5-6.4-15.9-9.2c-15.3-7.7-24.3-20.7-31.7-35.4
			c-7.3-14.3-9.5-29.8-11.3-45.5c-2.7-23.9,2.2-47,6.1-70.2c2.6-15.2,5.9-30.3,8.6-45.6c2.3-13.5,3.6-27.2,6.2-40.7
			c4.9-25.4,16.1-47.6,35.8-65c4.2-3.7,8-7.7,12.1-11.6c-0.2-0.4-0.4-0.7-0.6-1.1c-2.7,0.7-5.4,1.3-8,2.2
			c-7.1,2.3-14.1,2.8-21.1-0.4c-1.9-0.9-3.9-1.8-5.7-2.9c-10-6.5-12.1-15.5-5.2-25.2c3.1-4.4,7.3-8,11.2-12.1
			c-2.1-2-5.1-2.4-8.6-1.9c-7.4,0.9-13.5,4.8-19.5,8.8c-24.8,16.3-46.6,36.1-66.1,58.2c-20.9,23.7-41.4,47.7-62.3,71.4
			c-7.2,8.2-15.4,15.6-22.4,23.9c-3.9,4.5-6.8,10-9.3,15.5c-2.5,5.5-0.9,10.8,3.7,14.7c3,2.5,6.3,5,9.9,6.7
			c16.9,8.4,34.6,14.5,53.3,17.8c8.6,1.5,16.9,4.7,25.5,6.6c14.3,3.1,28.7,5.8,43,8.7c0.7,0.1,1.4,0,2,0.3c1.4,0.8,2.8,1.8,4.2,2.7
			c-1.4,0.1-2.9,0.5-4.3,0.4c-21.3-2.1-41.9-7.6-62.3-13.7c-6.4-1.9-13-2.9-19.5-4.1c-16.2-3.1-30.9-9.9-45.6-16.9
			c-5.7-2.7-10.2-7.1-13.7-13.7c-9.2,14.7-17.9,28.7-26.7,42.7c0.2,0.2,0.5,0.5,0.7,0.7c8.8-6.2,17.7-12.5,26.5-18.7
			c3.1-2.2,6.2-4.7,9.3-6.8c0.9-0.6,2.2-0.5,3.4-0.7c-0.5,1.1-0.7,2.6-1.6,3.2c-9.8,7.1-19.7,14.1-29.6,21.2c-5,3.6-9.8,7.7-15,11
			c-2.7,1.7-6.2,2-9.3,3.1c-17.8,6.1-36.1,11-53.1,18.6c-24.7,11-48.4,24-72.6,36.2c-0.6,0.3-1.1,0.9-1.7,1c-0.9,0.2-1.9,0-2.9,0
			c0.5-0.9,0.7-2.3,1.5-2.7c7.3-4.1,14.6-8.3,22.1-12.1c5.4-2.8,10.5-5.6,14.9-10.1c39.9-41.2,80.2-82,119.9-123.3
			c11.7-12.2,22.7-25.2,32.7-38.8c6.1-8.2,9.7-18.3,14.3-27.5c0.3-0.5,0.2-1.3,0.2-1c-6.2-1.4-12.3-2.5-18.1-4.3
			c-7-2.2-11.5-7.4-15.1-13.6c-5.5-9.4-7.8-19.7-8.3-30.5c-1.1-22.8-2.4-45.5-3.5-68.3c-0.7-15.3-0.7-30.6,2.6-45.7
			c0.4-1.9,1.2-3.8,2.1-5.6c0.3-0.5,1.6-0.5,2.4-0.7c0.1,0.7,0.5,1.5,0.3,2.1c-5,14.5-4.8,29.6-4.3,44.6c0.4,12.6,0.8,25.3,1.5,37.9
			c0.9,15.3,1.8,30.6,3.2,45.8c0.8,8.5,4.5,16.2,9.7,23c5.9,7.9,14.5,10.4,23.9,11.1c1.6,0.1,3.2,0,5.1,0c0.3-0.6,0.9-1.3,1.2-2.1
			c7-17.8,20.6-31,31.9-45.7c0.6-0.8,2.1-1,3.2-1.5c-0.3,1.1-0.3,2.5-0.9,3.4c-5.4,6.9-11,13.8-16.5,20.6
			c-7.2,8.9-12.4,18.7-16.4,29.4c-5.4,14.2-12.4,27.5-22.3,39.4c-30,36.2-63.6,69-96.8,102.2c-15.2,15.2-29.9,30.8-44.8,46.2
			c-0.4,0.5-0.8,1-2,2.4c2.1-0.9,3.2-1.2,4.2-1.7c20.5-10.5,41.4-19.5,63.6-25.8c8-2.3,15.6-6.1,23.7-8.2c3.8-1,4.9-3.3,6.5-5.9
			c9.8-15.6,19.6-31.1,29.3-46.7c0.9-1.4,1.4-3.1,1.8-4.8c1.8-7,4.7-13.4,9.7-18.9c20.9-23.1,41.7-46.4,62.4-69.7
			c1.4-1.6,2.1-3.9,2.8-6c4.3-12.3,8.2-24.8,13-36.9c2-4.9,5.6-9.3,9.1-13.4c5.4-6.3,11-12.4,17.1-17.9c3.7-3.3,8.4-5.4,13.4-8.5
			c-1.1-1.1-2.3-2.3-3.6-3.3c-0.8-0.7-1.9-1.1-2.8-1.6c0.9-0.8,1.7-1.9,2.8-2.5c7.9-4.4,16-8.6,23.9-12.9c0.6-0.3,1-0.8,1.4-1.1
			c-12.1-8.2-25.3-7.1-38.3-3.9c-18.5,4.6-35.7,12.4-51.6,22.9c-1.4,1-2.9,1.9-4.5,2.6c-0.8,0.3-1.8-0.1-2.8-0.2
			c0.5-0.8,0.7-2,1.4-2.5c5.5-3.5,11.1-6.8,16.7-10.1c0.8-0.5,1.5-1,2.1-1.3c-2.1-9.6-8.9-12.4-17.5-12.8c-1.2-0.1-2.4-1-3.6-1.5
			c1.3-0.5,2.7-1.5,4-1.4c4.3,0.5,8.6,1.5,13.2,2.3c-0.2-1.2-0.6-2.8-0.8-4.4c-2-17.2-4.2-34.3-5.8-51.6c-0.4-4.1,1.1-8.4,2-12.5
			c0.1-0.6,1.3-1.1,2-1.6c0.3,0.7,1.1,1.6,0.9,2.2c-3.6,11.6-1.1,22.9,0.6,34.4c1.6,10.5,2.6,21.1,4.1,31.7c0.5,3.4,1.8,6.7,2.9,9.9
			c1,2.8,2.6,3.3,5.5,2c8.7-3.7,17.4-7.4,26.4-10.2c9.3-2.9,19-4.4,28.8-2.8c4.1,0.7,8.2,2.3,12.1,3.9c4.1,1.7,7.8,2.1,12.2,0.2
			c4.3-1.9,9.3-2.1,14.4-3.2c-7.6-17.1-12.1-35.8-10.6-55.6c-0.3-0.1-0.7-0.1-1-0.2c-0.4,1.3-0.7,2.8-1.4,4
			c-1.8,3.2-3.6,6.4-5.6,9.4c-0.4,0.6-1.8,0.5-2.7,0.7c0.2-1,0.1-2.2,0.6-3c0.8-1.3,2-2.4,3-3.6c-0.2-0.3-0.3-0.6-0.5-0.9
			c-3.1,1.2-6.3,2.4-9.4,3.7c-4.9,2.1-5.3,2-6.4-3c-15.3-0.4-25.6-8.3-32.7-21.3c-1.1-2.1-3.1-3.7-4.3-5.8c-1.3-2.3-2.2-4.7-3-7.2
			c-1.2-3.9-2.3-7.9-3.3-11.9c-0.3-1.4,0.1-2.9,0.1-3.3c3.1-0.5,5.5-0.4,7.5-1.2c16.3-6.8,32.6-13.8,48.9-20.6
			c2.2-0.9,3.7-1.6,3.1-4.5c-0.5-2.6,1.1-4.1,3.7-4c2.6,0.1,5.3,0.5,7.9,0.9c4.4,0.7,5.2,0.1,5-4.3c-0.1-4,1-5,5.1-4.1
			c2.2,0.5,3.5,0.1,4.3-2.2c1.8-5.4,1.9-5.4,6.2-3c2-7,3.9-14,6.1-21.1c0.4-1.3,1.8-2.4,2.7-3.5c1,1,2.2,1.8,2.9,3
			c1.9,3.6,3.5,7.3,5.6,11.7c1.6-2.1,2.9-3.8,4.2-5.4c3.9-5.2,5.1-5.3,10-0.4c2.4-2.1,5-4.2,7.3-6.4c3.6-3.4,5.2-3.1,6.8,1.4
			c1.5,4.1,2,4.5,5.8,2c10.7-7,21.2-14.4,31.9-21.4c2-1.3,4.6-1.7,7-2.5c-0.6,2.3-0.8,4.7-1.9,6.8c-2.3,4.3-5,8.4-7.8,13.1
			c5.1,0,7.5,2.3,8.2,6.6c0.1,0.7,0.7,1.9,1,1.9c5.5,0.3,5,4.5,5.4,8.1c0,0.2,0.2,0.5,0.6,1.3c2.3-0.4,4.7-0.8,7.1-1.3
			c3.3-0.7,6.5-1.4,9.8-2.1c6.4-1.4,6.9-0.8,5.2,5.9c2.7,0.1,5.3,0.4,7.9,0.3c5.9-0.1,11.7-0.6,17.6-0.5c1.7,0,3.5,1.2,5.2,1.9
			c-1,1.6-1.8,3.4-3.1,4.7c-2.5,2.3-5.2,4.3-8.1,6.5c7.6,4.4,7.6,4.4,4.1,12.5c2.2,0.6,4.2,1.2,6.3,1.7c6.9,1.7,8.5,4.2,6.3,10.8
			c-1.2,3.4,0.8,4.3,3.3,5.1c7.7,2.4,14.3,6.4,19.3,12.9c0.8,1.1,1.1,2.5,1.6,3.8c-1.4,0.4-2.9,1.1-4.3,1.1c-3.7-0.1-7.4-0.6-11.8-1
			c2.6,4.7,5.2,8.8,7.2,13.2c1.7,3.7,3,7.7,3.9,11.6c0.8,3.5-0.7,5.1-4.4,4.7c-3.9-0.4-7.8-1.3-12.8-2.1c1,3.1,1.9,5.6,2.5,8.2
			c0.7,3,1,6,1.5,9.1c-2.9,0.1-5.8,0.2-8.8,0.3c-1.3,0-2.6-0.1-4.4-0.3c1.4,3.5,2.8,6.4,3.7,9.4c0.5,1.9,1,4.2,0.3,5.8
			c-0.6,1.3-3.1,1.6-4.4,2.8c-0.8,0.7-1.4,2.6-1,3.5c1,2.6,2.7,4.9,4,7.3c1.6,2.9,3.4,5.7,4.7,8.8c0.6,1.4,0.6,3.9-0.3,4.7
			c-1.1,1-3.6,1.6-5,1.1c-3.5-1.1-6.7-3-10.5-4.7c0,1.2,0.1,2.2,0,3.2c-0.3,2.5-1.7,2.9-3.6,1.6c-0.9-0.6-1.6-1.4-2.3-2.2
			c-0.8-1-1.4-2-2.1-3.1c1.3-0.2,2.6-0.3,4-0.5c1.1-3.8,1.8-4.2,5.6-2.2c2.4,1.2,4.6,2.7,7,3.9c1.2,0.6,2.6,0.8,4,1.2
			c0.3-0.3,0.6-0.5,0.9-0.8c-1.1-2.3-2.1-4.6-3.3-6.8c-1.8-3.1-3.9-6.1-5.5-9.3c-2.6-5.3-1-8.3,5.5-9.4c-0.6-2.4-1.3-4.7-1.9-7
			c-0.8-3.3-1.6-6.5-2.4-9.8c3.5,0,6.9,0,10.4,0.1c0.8,0,1.5,0.2,3,0.4c-0.6-2-1.1-3.6-1.5-5.1c-0.9-2.9-2.2-5.8-2.7-8.7
			c-0.6-3.7,0.9-4.9,4.6-4.5c2.5,0.3,5,1,7.4,1.4c1.4,0.2,2.8,0.2,5.3,0.4c-1.1-3.5-1.5-6.6-2.8-9.1c-2.7-5.2-5.9-10.1-8.7-15.3
			c-0.7-1.2-1.4-3-0.9-3.9c0.4-0.9,2.4-1.3,3.7-1.3c3.6,0.1,7.1,0.6,11.8,1c-3.7-4.9-7.8-7.6-12.3-9.7c-2.3-1.1-4.8-1.7-7.1-2.7
			c-3.9-1.7-4.9-4-3.5-8c1.6-5,1.2-5.8-4.1-7.1c-0.4-0.1-0.8-0.2-1.2-0.3c-8.2-1.9-8.5-2.4-5.2-10.2c0.1-0.3,0.1-0.8,0.2-1.4
			c-0.6-0.3-1.1-0.6-1.7-0.8c-6.1-2.3-6.5-4.5-1.5-8.9c1.9-1.7,4-3.3,6.7-5.5c-8.6,0-16.2,0-25.3,0c6,4.4,6.5,10.2,7.9,15.6
			c0.6,2.4,1.5,5.1-1.4,6.8c-3.1,1.8-5.9,1.7-8.9-0.6c-4.1-3.2-8.2-6.3-12.6-8.9c-6-3.5-12.8-3.2-19.5-3.2c-3.8,0-7.7-0.9-11.5-0.7
			c-6.6,0.3-13.2,1.1-19.7,2c-0.8,0.1-1.8,1.9-2,3c-1.5,9-2.8,18-4.1,27.3c1.3-0.6,2.8-1.5,4.4-2c1.4-0.4,3-0.2,4.5-0.3
			c-0.2,1.3-0.4,2.7-0.6,4c-0.1,0.4-0.2,0.7-0.6,1.9c1.7-0.5,3-1,4.2-1.3c6.7-1.5,13.4-3.1,20.2-4.5c0.9-0.2,2.1,0.6,3.1,0.9
			c-0.4,0.9-0.5,2.1-1.1,2.8c-2.1,2.4-4.3,4.6-7,7.4c4.4-0.8,8.3-1.6,12.3-2.1c7.7-0.9,8.8,0.2,9.3,7.8c0.1,1.3,0,2.6,0,3.9
			c5.4,0,6.1,0.5,6.6,5.7c0.4,3.6,0.2,7.2,0.9,10.7c0.3,1.7,1.6,3.8,3,4.5c4.4,2.1,6.2,5.8,8.4,9.7c3.1,5.6,1.9,10.2-1.5,15
			c-3,4.2-6,8.4-9.6,13.6c3.5-1.2,6.2-2.3,8.9-3c1.5-0.4,3.2-0.1,4.8-0.1c-0.3,1.5-0.5,3-1,4.5c-0.9,2.9-2,5.8-2.6,8.8
			c-0.1,0.5,1.8,2.2,2.3,2c4.9-1.9,5.1-1.8,5.3,3.5c0,0.6,0.1,1.3,0.2,2.9c3.1-5.6,5.7-10.5,8.4-15.3c0.4-0.8,0.7-1.8,1.3-2.4
			c0.5-0.5,1.4-0.5,2.1-0.7c0.2,0.7,0.6,1.4,0.5,2.1c-0.1,0.8-0.6,1.5-1,2.2c-3.7,7.4-7.3,14.8-11,22.2c-0.6,1.1-1.9,1.9-2.9,2.8
			c-0.5-1.4-1.4-2.7-1.4-4.1c0-3,0.4-5.9,0.7-9.9c-2.8,2.5-4.8,5.2-8.1,2.8c-0.3-0.2-1.5,0.8-2.3,1.4
			C961.5,407.6,954.6,414.5,949,422.6L949,422.6z M865.6,320.4c0.5,1,1,2,1.5,3.2c4.1-0.8,8-1.6,12.3-2.4c-3.9-4.8-8.1-4.8-13.9-0.7
			c0.3-1.6,0.1-3.8,1.1-4.7c2.5-2.2,10.2-1.6,12.8,0.5c4.5,3.7,4.6,3.7,9.9,0.1c-3.6-6.8-7.2-13.5-10.4-19.5c-1.9,0-3,0-4.1,0
			c0.2-2.3-0.5-5.5,0.7-6.7c2.2-2,3.7,0.9,4.7,2.6c2.8,4.9,5.3,9.9,7.9,14.8c0.7,1.3,1.5,2.5,2.4,4.1c0.5-0.9,0.7-1.1,0.8-1.3
			c3.5-7.3,6.5-15,15.1-18.1c0.7-0.2,1.3-1.4,1.4-2.2c0.7-3.9,1.1-7.9,1.9-11.8c0.5-2.7,1.3-5.3,1.9-7.7c2.6,0,4.7,0.3,6.5-0.1
			c7.6-1.6,15.2-2.5,22.9-0.4c1.5,0.4,3.2,0,4.8-0.1c10.5-0.4,20.5,0.9,28.9,7.9c1.9,1.6,3.7,3.5,5.9,4.8c1.2,0.7,2.9,0.8,4.3,0.5
			c0.5-0.1,0.9-2.3,0.7-3.4c-0.5-2.6-1-5.3-2-7.7c-0.8-1.9-2-4.4-3.6-4.9c-4.2-1.4-8.7-2.3-13.1-2.7c-5.9-0.6-11.9-0.5-17.9-0.7
			c-5.8-0.2-11.7-0.6-17.5-0.8c-6.5-0.1-13,0-19.5,0c-1,0-2,0-3,0c1.3,7.2,1.3,7.2-5.6,9.4c-0.4,0.1-0.7,0.3-1.1,0.4
			c-12.2,4.9-24.4,9.8-36.6,14.7c-1.5,0.6-3.1,0.9-4.6,1.4c-4.3,1.4-8.6,2.9-12.8,4.4c-1,0.4-1.8,1.3-2.6,2.2
			c-1.6,1.7-2.9,3.9-4.8,5.2c-3,2-6.3,3.1-9.3,5.4c-7.7,5.7-11.8,13.1-13.8,22.1c-0.2,0.9,0.3,2,0.7,3c0.5,1.4,1.8,2.6,1.8,4
			c0.2,5,0.1,10,0.1,15.2c4.7-1.5,9.2-3.9,12.9-9.1c-3.2,0.8-5.4,1.5-7.8,1.9c-1.2,0.2-2.4-0.4-3.6-0.7c0.6-1.2,0.9-2.7,1.9-3.5
			c4.1-3.6,8.3-7.1,12.5-10.6c5-4.3,5.9-10.1,5.6-16.3c-0.1-2,0-3.9,0-5.9c0-2.8,1.5-3.1,3.7-2.3c2.2,0.8,4.5,1.5,6.7,2.3
			c3.8-7.1,3.8-7.1,11.3-3.6c1-1.8,2-3.7,3.1-5.4c0.4-0.6,1.4-1,2.1-1.4c0.3,0.8,0.9,1.6,0.7,2.3c-1.2,6.7-5.7,8.8-11.3,5.4
			c-0.3-0.2-0.7-0.1-0.4,0c-1.8,2.4-2.9,5.6-4.8,6.2c-2,0.6-4.8-1.3-7.4-2.1c1,7.4,7.3,14.5,13.9,15.6c1,0.2,2.2-0.4,3.2-0.9
			C863.7,321.8,864.6,321.1,865.6,320.4z M961,326.6c-6.3,2.6-6.7,2.4-6.6-3.9c0-1.6-0.1-3.2,0-4.8c0-2.9-1.3-4.1-4.2-3.5
			c-5.8,1.1-11.5,2.1-17.3,2.9c-1.2,0.2-2.5-0.6-3.8-0.9c0.6-1.2,1.1-2.6,2-3.5c2.4-2.2,5-4.2,7.5-6.3c-1.9-0.7-3.3-0.7-4.6-0.3
			c-5.2,1.5-10.5,3.2-15.7,4.8c-5.8,1.9-6.4,1.4-5.7-4.2c-2.3,0.7-4.7,1.4-7,2.1c-1.2,0.4-2.8,0.3-3.4,1.1
			c-4.2,4.9-8.9,9.1-15.2,11.4c-0.9,0.3-1.9,1.8-1.9,2.8c-0.1,4.8-3.8,10.4-8.3,11.9c-7.9,2.7-14.9-0.5-16.2-9.4
			c-1.4-0.5-2.8-0.9-4.1-1.5c-1.3-0.6-2.6-1.3-3.9-2.1c-4.6-2.8-6.7-2.2-8.3,3.1c-1.6,5.6-3.3,11.3-3.9,17.1
			c-2.2,19.4,1.7,37.8,8.7,55.9c5.3,13.6,15,22.1,27.8,28.1c12.1,5.6,24.7,4.6,37.3,3.7c7.5-0.5,14.6-2.8,20.8-7.5
			c0.8-0.6,2.1-0.5,3.7-0.8c-2.1,3.9-4.9,6.3-10.4,8c-18.3,5.6-36.6,6.7-54.6-1.4c-1.5-0.7-3.9-0.9-5.2-0.2c-7,3.7-12,9.2-14.2,17
			c-1,3.6-0.2,6.8,2.3,9.7c5.6,6.3,12.7,10,20.9,9c10.9-1.4,21.6-4.1,30.8-11.2c7.1-5.5,14.9-10.4,22.2-15.6c2.4-1.8,4.8-3.8,6.7-6
			c10.3-12,19.2-25.3,32.9-34.1c1-0.7,2-1.9,2.3-3c0.9-3.8,1.6-7.7,2.4-11.9c-2.9,0.9-5.8,2-8.7,2.6c-1.4,0.3-2.9-0.4-4.4-0.6
			c0.3-1.5,0.4-3,0.9-4.4c0.3-0.8,1.1-1.4,1.7-2.2c3-4.1,6.2-8,8.9-12.3c3.7-6.1,0.8-15.6-5.8-18.5c-3.9-1.7-5.3-4.5-5.4-8.4
			C961.5,335,961.2,331.1,961,326.6z M801.2,426.7c0.9,1.6,1.6,2.5,2.2,3.6c2.2,4.6,1.7,5.2-3.1,7c-3.2,1.2-6.7,2.6-9.1,4.9
			c-12.2,11.9-25.6,23-29.9,40.8c-1.7,7.3-4.6,14.2-7,21.3c1.1-0.3,1.6-1.1,2.3-1.7c12.2-12.9,23.8-26.3,36.7-38.5
			c19.2-18.2,39.1-35.7,65.8-45.1c-1.7-1.3-3.4-2.7-5.2-4.1c-1.1-0.9-2.5-1.5-3.3-2.6c-3.6-5-7.4-6.9-13-4.3
			C825.3,413.9,813.4,420.4,801.2,426.7z M850,273.4c15.1-4.3,29.9-8.4,44.5-12.8c4.5-1.4,8.3-2.6,13.5-1.4c6.9,1.7,14.5,0.7,21.8,1
			c10,0.4,19.9,1.1,29.9,1.5c5.7,0.2,11.4,0,17,0c-0.1-1-0.3-2.6-0.5-4.5c-5.3,1.2-10.3,2.3-15.4,3.5c-5.6,1.3-6.7,0.5-7-5.2
			c-0.1-2.1-0.1-3.9-3.1-4.1c-1-0.1-2.4-1.8-2.7-3.1c-0.8-3.1-1.5-5.6-5.6-5c-2.7,0.4-3.6-1.5-2.9-3.8c0.5-1.8,1.6-3.4,2.5-5
			c1.7-2.9,3.5-5.7,5.2-8.5c-1.4,0.1-2.2,0.5-2.9,1.1c-9.6,6.5-19.1,13.1-28.9,19.4c-6.1,3.9-8.6,2.9-11-3.6
			c-0.1-0.2-0.4-0.3-0.4-0.3c-5.2,1.9-7.9,12-15.7,4.3c-0.1,0-0.3,0-0.4,0.1c-1.7,2.2-3.4,4.4-5.2,6.5c-3.1,3.7-4.9,3.6-7-0.7
			c-1.5-3.1-2.8-6.2-4.4-10c-0.8,1.5-1.3,2.3-1.5,3.2c-1.2,5.6-2.4,11.1-3.3,16.7c-0.6,3.9-1.3,4.6-5.1,3.5
			c-0.6-0.2-1.2-0.3-1.6-0.5c-1.3,1.8-2,4.1-3.6,4.9c-1.6,0.9-4,0.4-6.3,0.5C849.8,272.1,849.9,272.9,850,273.4z M776.9,322.8
			c0.1,0.2,0.4,1.3,1.1,2.3c2.7,4,5.4,7.9,8.1,11.8c5.9,8.4,13.6,13.7,23.9,15c4.5,0.6,5.8-0.3,6.6-4.7c0.4-2.5,0.7-5,0.7-7.5
			c0-1.2-0.8-2.3-1.2-3.5c-0.7-2-2.1-4-1.9-5.9c1-8.7,4.5-16.3,10.7-22.7c1.3-1.4,2.2-3.3,3.3-4.9c-0.2-0.3-0.5-0.5-0.7-0.8
			C810.7,308.8,794.1,315.7,776.9,322.8z M834.2,284.4c2.9,2.5,5.3,4.8,7.8,6.8c0.6,0.5,1.8,0.7,2.5,0.4
			c10.7-4.1,21.3-8.3,31.9-12.3c8.9-3.4,17.9-6.7,26.9-10c1.6-0.6,4.1-0.5,2.7-3c-1.2-2.1-1.7-5.7-5.7-4.6c-5,1.4-10,2.7-14.9,4.3
			c-15.9,5.3-31.7,10.8-47.5,16.3C837,282.6,836.1,283.3,834.2,284.4z M840,293.4c-2.3-2.1-4.5-3.5-5.9-5.5c-1.8-2.6-3.5-2.4-6-1.3
			c-16.8,7.3-33.7,14.5-50.6,21.5c-3.6,1.5-4.1,3.1-2.8,6.6c1.6,4.1,4.1,4,7.2,2.7c8.1-3.3,16.2-6.7,24.3-10.1
			C817.1,302.8,828.1,298.3,840,293.4z M864.6,326.5c-0.3,3.9,0.5,5.4,3.1,6.7c3.1,1.6,8.5,1.1,10.4-1.5c1.4-2.1,5.3-3.6,2.7-7.9
			c-3.2,1.2-6.3,2.4-9.8,3.7C869.3,327.2,867,326.9,864.6,326.5z M894.1,313.9c5.4-5.5,9.8-10.4,11.6-17.5
			C901,298.6,895.4,306.9,894.1,313.9z M837,332c-2.5,2.3-4.6,4.1-7.3,6.5C834,338,836.9,337.1,837,332z"/>
		<path d="M1432.1,967.7c-1.3,0.3-2.6,0.8-3.9,0.8c-22.8,1.3-45.5,2.6-68.3,3.7c-43.8,2-87.6,3.8-131.4,5.6
			c-67.9,2.7-135.9,4.5-203.9,3.2c-43.6-0.9-87.1-2.9-130.7-4.4c-29.4-1-58.9-2.2-88.3-3.3c-63.2-2.3-126.3-3.7-189.5-2.3
			c-40.8,0.9-81.5,3-122.3,4.2c-32.1,0.9-64.2,1.4-96.4,2c-47.6,0.9-95.2,1.5-142.8,2.6c-20.4,0.5-40.7,2.1-61.1,2.5
			c-9.8,0.2-19.6-1.1-29.5-1.8c-0.8-0.1-1.7-0.2-2.3-0.6c-7.8-5-16.2-3.8-24.7-2.7c-6.1,0.8-12.2,1.2-18.3,1.7c-1,0.1-2-0.6-3.1-0.9
			c0.8-0.7,1.6-1.8,2.5-1.9c7.7-0.9,15.3-1.7,23-2.4c2.3-0.2,4.5-0.7,6.8-0.5c3.1,0.2,6.5,0.3,9.2,1.6c7.8,3.8,16.2,4.6,24.6,4.5
			c16.4-0.2,32.8-1,49.1-1.5c23.4-0.7,46.9-1.7,70.3-2.1c55.7-1,111.4-1.5,167.2-2.7c35.4-0.8,70.9-3,106.3-3.7
			c44.9-1,89.8-2,134.8-1.3c54.8,0.8,109.5,2.9,164.3,5.2c87,3.7,174,6.8,261,4.6c47-1.2,94-3.3,141.1-5.1
			c29.2-1.1,58.3-2.3,87.5-3.6c21.4-0.9,42.9-2.2,64.3-3.2c1.5-0.1,2.9,0.3,4.4,0.4C1432,966.6,1432.1,967.1,1432.1,967.7z"/>
		<path d="M1154.7,312.6c0.8-17,9.9-31.5,26-41c9-5.3,18.8-9.6,28.7-12.9c25.8-8.5,51.5-17.3,76.5-28.1c9.6-4.2,19.3-8.3,28.9-12.6
			c1.7-0.7,3.5-1.5,4.8-2.8c10.7-10,21.3-20,32-30.1c2-1.9,3.8-4,6-5.8c0.9-0.7,2.5-0.9,3.7-0.7c2.1,0.4,4.3,0.9,6,2
			c11.2,6.6,20.9,14.7,25.6,27.5c1.4,3.7,2.5,7.6,2.9,11.5c0.2,1.6-1.2,3.9-2.6,5c-2.8,2.2-6.5,3.2-9,5.5
			c-12.5,11.4-25.4,22.5-37,34.7c-22.5,23.6-44,48.2-66.4,72c-14.3,15.2-29.2,29.9-44.1,44.5c-4.9,4.8-10.6,8.7-16.1,12.9
			c-4.2,3.2-9.1,4.4-13.9,1.6c-5.3-3.1-10.9-6.3-15.3-10.5c-11.2-10.8-19.8-23.7-27.6-37.1C1157.8,338.1,1155.2,326.7,1154.7,312.6z
			 M1355.9,186.3c-8,7.6-15.8,15.3-23.9,22.6c-4.8,4.3-9.8,8.8-15.5,11.8c-9.3,4.9-19.1,8.5-28.8,12.7
			c-25.8,11.2-52.4,20.3-79.2,28.9c-14.5,4.7-28.5,10.8-39.1,22.5c-1.7,1.8-3,4-4.4,6c0.2,0.3,0.3,0.6,0.5,1
			c8.8-3.7,14.8,0.2,19.4,6.9c6.2,8.8,12.3,17.7,18,26.9c4.2,6.7,8.5,13.6,11.4,20.9c4,10.1,6.8,20.7,9.9,31.2
			c0.8,2.6,0.8,5.3,1.4,9.1c37.4-30.4,66.1-68,97.8-102.8c-11.9,4.4-23.8,3.6-35.8,2.5c-3.7-0.3-6.4,0.4-8.9,3.2
			c-7.5,8.3-15,16.6-22.7,24.8c-3.7,3.9-7.9,7.4-11.6,11.3c-2.6,2.8-4,1.1-5-1.1c-4.2-9.1-8.3-18.1-12.3-27.3
			c-0.8-1.8-0.6-4.1-0.8-6.2c1.3,1.8,2.8,3.4,3.7,5.3c4.1,9.2,8,18.4,12.3,28.3c9.9-11,18.6-21.4,28.1-31.1
			c9.4-9.5,19.6-18.3,29.4-27.4c-0.2-0.3-0.5-0.6-0.7-1c-2.7,0.7-5.4,1.3-8,2.2c-24.1,8.2-48.1,16.4-72.2,24.6
			c-1.1,0.4-2.4,0.2-3.7,0.2c-0.2-0.6-0.3-1.3-0.5-1.9c9.8-3.3,19.6-6.6,30.5-10.3c-2.6-0.9-4.2-1.2-5.5-2c-7-3.7-14.1-7.4-21-11.3
			c-1.2-0.7-2-2.1-2.8-3.3c-0.3-0.5,0.1-1.7,0.6-2c0.4-0.3,1.7-0.1,2,0.3c5.8,7.5,14.4,10.2,22.6,13.6c5.7,2.3,11.2,2.8,17,0.2
			c3.3-1.5,6.9-2.1,10.3-3.3c10.5-3.6,20.9-7.2,32.3-11.1c-3.3-0.9-5.8-2-8.3-2.2c-7.7-0.5-15.4-0.3-23.1-0.8
			c-5.8-0.4-11.6-1.3-17.4-2.2c-0.8-0.1-1.5-1.4-2.2-2.2c0.9-0.3,1.9-0.8,2.8-0.7c9.4,0.6,18.8,1.5,28.2,1.8
			c19.5,0.6,36.3,7.1,49.9,21.2c18-17.1,36.3-34.5,54.6-51.8C1373.5,216.1,1362,201.5,1355.9,186.3z M1157.7,312.5
			c0.6,13.2,2.9,24.2,8.7,34.2c7.7,13.3,16.3,26,27.3,36.8c4,3.9,9,7.1,14,9.5c7.8,3.9,15.4-1.9,14.3-10.6c-0.4-3.1-1.5-6.2-2.6-9.2
			c-1.6-4.4-3.9-8.6-5-13c-2.8-11.5-6.9-22.3-13.6-32.2c-6.6-9.7-13.2-19.3-19.6-29.1c-5.3-8.1-19-7.5-21.8,3.9
			C1158.6,306.5,1158.1,310.3,1157.7,312.5z M1358.7,181.4c0.9,3.8,1.2,6.7,2.4,9.2c5.1,10.7,12.8,19.5,21.5,27.5
			c1.5,1.4,3.5,2.5,5.5,3.1c1.1,0.4,2.9,0,3.9-0.7c0.5-0.3,0.5-2.3,0.1-3.2c-2.6-5.5-5.3-11-8-16.4c-4-8.1-10.8-13.3-18.5-17.5
			C1363.8,182.5,1361.8,182.3,1358.7,181.4z M1327.6,277.6c-5.6-8-13.6-11.5-20.9-14.2c-6.7,6.8-13,13.1-19.3,19.5
			C1303,285.3,1319.7,283.2,1327.6,277.6z"/>
		<path d="M325.4,840.8c0.2,1.1,0.6,2.2,0.6,3.3c0.1,10.6,5,19.3,10.4,28c17.9,29,44.5,44.7,77,51.7c4.3,0.9,8.8,0.8,13.9,1.2
			c-5-4.4-9.8-7.6-13.2-11.8c-5.9-7.3-10.9-15.4-16.4-23c-5.8-8-11.7-15.9-17.6-23.7c-7.2-9.6-14.5-19.1-21.7-28.6
			c-1.8-2.4-3.8-4.6-5.9-7.1c2-2.2,3.6-0.8,4.9,0.7c2.6,3.2,5,6.5,7.6,9.8c9.1,11.8,18.2,23.6,27.2,35.5c2.4,3.2,4.5,6.7,7.2,9.6
			c1.7,1.8,4,3.7,6.3,4.2c17.7,3.9,35.4,3.4,53.1-0.2c4.9-1,9.9-1.2,14.8-2.3c-25.3,1.1-46.7-10.4-67.8-21.6
			c-10.8-5.7-20.1-14.4-29.4-22.6c-4.8-4.2-7.4-10.7-11.8-15.5c-5.8-6.2-12.2-11.8-18.5-17.6c-4.4-4-8.9-8-13.7-11.6
			c-7.2-5.4-21.5-2.4-27.7,4.1c-3.9,4-2.7,8.1-2.9,12.2c-0.2,4.8,0.6,9.6,0.9,14.3c0.1,1-0.3,2.1-0.5,3.2c-0.5,0-1,0.1-1.5,0.1
			c-0.4-1.8-1.2-3.5-1.3-5.3c-0.1-8.2,0-16.4-0.1-24.7c0-0.8-0.4-1.8-1-2.4c-4-4.8-8.1-9.5-12.3-14.2c-1.9-2.2-2-3.9,0.4-5.7
			c2.9-2.2,5.7-4.3,8.6-6.5c2.1-1.6,3.6-1.3,5.2,1.1c3.4,5.3,6.8,10.6,10.8,15.3c1.4,1.6,4.8,1.9,7.3,1.9c10-0.1,18,3.5,24.7,10.9
			c3.9,4.3,9,7.5,13.2,11.6c5.4,5.3,11,10.6,15.2,16.8c4.3,6.3,9.3,11.4,15,16.4c18,15.8,39.2,25.6,61.6,32.9
			c16.6,5.5,33.2,3.4,49.5-1.9c1.6-0.5,3.2-0.7,5.1-0.2c-14.8,8.5-30.6,12.8-47.5,15c-17.1,2.2-33.9,2.8-51-0.5
			c3.2,7.4,8.5,13,13.5,18.7c5.1,5.8,11.8,9,18.8,11.8c0,0.5-0.1,0.9-0.1,1.4c-2.2,0.6-4.3,1.4-6.5,1.8c-9.7,1.8-19.1-0.4-28.3-3.2
			c-21-6.4-39.9-16.6-54.7-33.1c-5.2-5.8-9.6-12.4-14.5-18.8c-3.2,3.9-6.5,8-10,11.9c-7.9,8.6-16.9,16.1-27.9,20.2
			c-11.3,4.3-23,8-35.3,8.1c-19.2,0.2-35.2-7.6-48.5-20.9c-4.9-4.9-8.9-10.6-13.2-16c-1.8-2.3-2.8-4.6,0.5-7.1
			c1.8-1.4,2.6-1.2,4-0.1c17.1,13.4,36.8,14.1,56.3,9.3c15.1-3.8,27.7-13.6,36.8-26.7c2.4-3.5,3.3-8.1,5-12.1
			c0.4-0.9,1.4-1.6,2.1-2.4c0.3,1,0.9,2.1,0.8,3c-1.2,9.9-7.2,17.1-14.1,23.5c-23.7,21.8-48.2,25.3-79.3,14.2
			c-3.8-1.3-7-4.3-10.8-6.7c0.2,0.9,0.2,1.6,0.5,2.1c12.8,19.4,29.3,33.5,53.1,36.7c5.4,0.7,11.2,0,16.6-1.1
			c15.8-3,31.3-7.2,43.3-18.9c6-5.9,11.4-12.6,16.8-19.1c0.7-0.8,0.5-3.1-0.1-4.1c-4.1-6.7-5.6-14-5.8-21.7c0-1.2,0.5-2.5,0.8-3.7
			C324.4,840.6,324.9,840.7,325.4,840.8z M287.9,783.9c4.3,5,8.2,9.8,12.4,14.4c0.7,0.8,2.6,1.3,3.5,0.9c2.1-0.9,3.9-2.5,6.1-3.9
			c-4.4-6.2-8.8-12.1-13.1-18.2C293.7,779.4,290.9,781.6,287.9,783.9z"/>
		<path d="M557.2,822.1c-2.9,6.6-8.7,12.2-16.1,16.5c-10.4,6.2-20.7,5.3-31.5,1.3c-9.7-3.6-19.7-4.7-29.8-2.1
			c-2.2,0.6-4.2,1.9-6.6,3c-0.7-3.7,1.5-4.9,4.1-5.6c11-3.1,21.9-2.1,32.6,1.5c6.5,2.2,12.9,4.5,19.9,3c15.2-3.4,28-17.5,29.2-33.7
			c0.6-8-0.2-16.2-0.4-24.3c-0.1-3.5-0.2-6.9-0.1-10.4c0-0.7,1-1.3,1.5-2c0.5,0.6,1.5,1.3,1.5,1.9c0.2,12.6,0.4,25.3,0.2,37.9
			c0,3.1-1.5,6.1-2.6,10.1c3-0.5,5.7-0.8,8.3-1.5c11.6-3.1,23-6.7,34.7-9.5c24.3-5.9,45.2-17.8,61.6-36.6
			c7.1-8.1,15.8-13.4,24.3-19.1c11-7.5,22-15.1,35.1-18.8c4.7-1.3,7.3-1,10,3.1c11.3,17.1,22.9,34,33.4,51.6
			c6.1,10.2,13.4,18.7,22.5,26.2c15.9,13.2,31.5,26.7,46.9,40.5c9.3,8.4,19.4,15,31.8,17.5c7.5,1.5,14.9,3.2,22.8,2.9
			c8-0.3,16.1,1.5,24.2,1.3c19.2-0.4,38.4-1.4,57.5-2.3c12.1-0.6,23.5-3.8,34.2-9.9c3.1-1.8,7.2-1.8,10.7-3
			c3.9-1.2,7.7-2.9,11.6-4.1c1.1-0.3,2.6,0.4,3.9,0.6c-1,0.8-2,1.8-3.1,2.2c-8.1,2.9-16.6,5.1-24.4,8.7c-12.1,5.6-24.7,8.3-37.9,8.8
			c-19.7,0.8-39.4,1.8-59.1,2.5c-3.1,0.1-6.2-0.8-9.3-1.1c-11.8-1.1-23.8-0.7-35.4-4.5c-9.5-3.1-18.2-7.5-25.7-14.1
			c-18.2-15.9-36.3-31.8-54.8-47.3c-8.6-7.2-14.4-16.2-20.1-25.6c-7.2-11.8-15.4-23-23-34.6c-2.9-4.3-5.6-8.8-8.1-13.3
			c-2-3.5-4.3-4.5-8.5-3.2c-14.8,4.7-26.6,14.5-39.6,22.1c-10.1,5.9-17.1,15-25.4,22.8c-15.7,14.8-34.2,23.8-54.8,29.1
			c-11.7,3-23.3,6.5-35,9.6C565,821.4,561.7,821.5,557.2,822.1z"/>
		<path d="M1043.1,478.3c-8.6,5.2-17,9.7-24.6,15.2c-3.1,2.2-5.9,4.5-9.6,5.7c-1.1,0.4-2.2,1.5-2.9,2.6c-3.5,5.5-6.8,11.1-10.3,16.6
			c-0.6,0.9-1.5,1.5-2.3,2.3c-0.2-1.2-0.9-2.6-0.5-3.4c3.1-5.9,6.5-11.6,10.1-18c-1.8,0.4-3.4,0.5-4.7,1.2c-5.6,2.8-11,5.9-16.6,8.7
			c-1,0.5-2.3,0.3-3.4,0.4c0.6-1.1,1-2.5,1.9-3.1c4.9-2.9,10-5.6,15.9-8.8c-2.5-0.9-4.2-1.5-6-2.1c-4.8-1.6-8.1-4.9-11.4-8.8
			c-6.1-7-11.6-15.8-23.1-14.6c-0.6,0.1-1.2-0.7-1.8-1c0.6-0.7,1.3-2.1,1.8-2.1c3.3,0.2,7,0,9.6,1.5c6.9,3.8,12.8,9,17.1,15.8
			c1,1.5,2.3,3.2,3.9,3.9c4.7,2,9.6,3.9,14.6,5.3c4.7,1.3,8.9-1.2,12.7-3.3c8.8-4.9,17.3-10.4,26.1-15.5c2.2-1.3,2.4-2.6,1.6-4.9
			c-1-2.9-1.8-5.9-1.9-8.9c-0.1-1.3,1.4-3.4,2.7-4c6.9-3.5,14.1-6.3,20.8-10.1c2.6-1.5,4.2-4.5,7.2-0.9c0.3-0.3,0.6-0.4,0.7-0.6
			c6.4-18.1,21-25.4,38.4-28.4c6.9-1.2,14-1.4,21-1.4c10.3,0,17.5,6,23,13.9c8.2,11.8,13.9,24.8,16.8,39c1.9,9.2-0.3,17.2-6.4,24.1
			c-6.4,7.4-13.7,13.7-23.1,17.3c-4.6,1.8-8.8,4.3-13.4,6.3c-1.1,0.5-2.6-0.1-3.9-0.2c0.9-0.9,1.7-2.1,2.8-2.6
			c11.6-6.1,24.2-10.3,33.4-20.7c7.2-8.2,9.6-16.7,6.7-27.2c-2.8-10.1-6.9-19.5-11.9-28.7c-7.4-13.5-18-20.1-33.6-18.5
			c-11,1.1-21.7,3.2-31.3,8.7c-10.4,6-15.8,15.6-17.3,27.3c-3.2,25.9,11.1,43,29.7,57.8c2.6,2.1,6.1,3.2,9.3,4.4
			c6.8,2.6,9,8.2,5.4,14.6c-0.9,1.6-2.1,3.1-3.5,4.4c-5.8,5.5-11.6,11-17.7,16.2c-3.7,3.2-7.8,6.1-13.1,6.1c-3.7,0-6-1.4-6.7-5.3
			c-0.9-4.3-2-8.5-3.4-12.7c-1.3-4.1-3.2-7.1-8.5-7.5c-6.6-0.5-13.5-9.7-14.7-18.2c-1.6-11.1-3.1-22.2-4.6-33.2
			C1044,481.4,1043.6,480.2,1043.1,478.3z M1067.7,450.2c-2.8,1.3-4.7,2.1-6.5,3c-4.9,2.4-9.6,5.1-14.6,7.3
			c-4.9,2.1-5.2,1.9-3.3,7.1c3.9,10.9,5.6,22.2,6.7,33.6c0.5,5.3,1.2,10.6,2.3,15.8c1.4,7,7.5,14.1,12.5,14.2c4.9,0.1,7.5,2.7,9,6.5
			c1.7,4.4,2.9,9.1,4.2,13.7c1.5,5.5,3.5,6.6,8.8,3.9c2.8-1.4,5.5-3.3,7.9-5.4c5.2-4.6,10.2-9.3,15.3-14.1c1.1-1,2.1-2.1,3-3.2
			c3.6-4.9,2.1-9.2-3.4-11.5c-4.3-1.8-8.8-3.5-12.3-6.5c-17.1-14.8-30.9-31.5-28.5-56.3C1068.9,455.5,1068,452.5,1067.7,450.2z"/>
		<path d="M466.8,743.6c7.8-4.6,14.1-10.7,22-14.2c0.3,0.4,0.7,0.9,1,1.3c-1,1-1.8,2.2-2.9,3c-5.7,4-11.3,8-17.1,11.8
			c-2,1.3-2.7,2.6-2.1,4.9c5.7,20.3,2.9,40.7,0.2,61.1c-1.2,9.2-1.2,18.3,2.9,27c0.4,0.9,0,2.1,0,3.2c-1-0.7-2.4-1.2-2.8-2.1
			c-3.8-7.8-4.5-16.1-3.7-24.6c1.1-10.2,2.7-20.4,3.4-30.6c0.8-12.4,0.9-24.8-5.4-36.2c-0.4-0.6-0.7-1.8-0.4-2.2
			c3.1-3.4,0.8-6.9,0-10.1c-3.3-12.8-9.2-24.4-16.5-35.3c-7-10.5-17.9-15.3-29.2-19.3c-4.9-1.7-10-2.8-15.1-3.8
			c-6.7-1.3-11.9,1.1-15.6,7c-11.7,19-14.6,39.2-8.8,60.6c3.3,12.3,7.1,24.6,11,36.8c1.4,4.5,3.7,8.8,5.7,13.1
			c3.7,7.8,7.4,15.6,11.5,23.3c3.8,7,7.9,13.9,12.3,20.5c3.7,5.6,9.4,8.6,16.1,9.2c3.1,0.3,6.1,0.5,9.2,0.8c5.5,0.6,10.3-1,14.2-4.9
			c0.9-0.8,1.7-1.7,2.7-2.3c0.6-0.3,1.4-0.2,2.2-0.2c-0.1,0.8,0.2,1.9-0.3,2.4c-4.7,5-10.1,8.8-17.4,8.3c-4.5-0.3-9-0.9-13.5-1.4
			c-5.5-0.7-10.4-3.2-13.7-7.5c-4.6-6.1-9.1-12.5-12.8-19.2c-5.5-10-10.7-20.3-15.2-30.8c-3.6-8.4-6.4-17.2-8.9-26.1
			c-3.3-11.5-7.2-23-8.7-34.8c-2.3-18.2,2.2-35.4,12.6-50.9c5-7.5,12.2-8,19.9-6.7c11.7,2,22.7,6.2,32.5,12.8
			c4.5,3,8.7,7.2,11.8,11.8c8.7,12.7,15.5,26.4,18.1,41.9C466.2,741.8,466.4,742.4,466.8,743.6z"/>
		<path d="M1012.9,782.7c0.8-1.4,1.5-3.9,2.6-4.1c14.3-2.8,28.5-7.3,43.4-4.5c7.9,1.5,14.2,5.7,18.9,11.8c7.1,9.3,13.7,19,20.2,28.6
			c3.5,5.2,7.1,10.6,9.7,16.3c3.1,6.7,5.7,13.8,7.5,21c2.8,11.2,0.6,15.4-8.5,18.7c-4.7,1.7-9.8,3-14.7,3.1
			c-15.1,0.4-30.1-0.4-44.2-6.9c-7.4-3.4-12.9-8-14.4-16.8c-1.8-10.6-4.5-21.1-6.7-31.7c-2.2-10.9-7.3-20.5-13.6-29.6
			c-2.3-3.3-4.9-4.3-9.2-4.6c-16.2-1.1-31.8,2.7-47.6,5.3c-1,0.2-2,0.5-3.2,0.9c1.1,3.8,2.2,7.5,3.3,11.2c-0.6,0.3-1.2,0.5-1.7,0.8
			c-0.8-1.3-2-2.4-2.4-3.8c-2.3-8-4.2-16.2-6.8-24.2c-1.6-5-4.2-9.6-6.7-14.3c-0.5-0.9-2.3-1-3.5-1.5c-0.8-0.3-2.2-0.4-2.4-0.9
			c-0.3-1-0.2-2.4,0.3-3.3c0.3-0.4,2-0.4,2.8-0.1c6.1,2.7,9.3,7.9,11.1,13.9c1.5,5,2.5,10.1,3.4,15.2c0.6,3.1,1.9,3.8,4.9,3.2
			c16.4-3,32.7-6.8,49.5-5.3C1007.7,781.3,1010.3,782.1,1012.9,782.7c0.3,0.5,0.5,1.2,0.8,1.6c8.3,10.5,13.2,22.5,16.8,35.4
			c3.5,12.7,1.9,27,11.2,37.9c1.8,2.1,3.6,4.4,6,5.5c15.6,7.4,32.3,8.4,49.2,6.8c3-0.3,6-1.3,8.8-2.4c6.6-2.7,9.3-7.7,6.6-14.4
			c-4.5-11.4-6.9-23.7-14.6-33.9c-7-9.2-13.1-19.1-19.8-28.5c-9.4-13.2-22.6-16.4-37.8-13.7C1031,778.7,1021.9,780.8,1012.9,782.7z"
			/>
		<path d="M735.4,284.3c6,3.1,7.8,9,9.2,14.8c1.8,7.4,2.9,14.9,4.2,22.4c1.2,7.2-2,10.2-8.5,7.1c-17.9-8.7-35.5-5.6-53.1,0.7
			c-7.9,2.8-15.7,6-23.6,8.8c-3.8,1.3-8.2,3.2-11.6-0.5c-3.2-3.5-1.8-8-0.1-11.7c2.5-5.4,5.5-10.6,8.4-15.8c0.5-0.9,1.4-1.7,2.3-2.2
			c0.9-0.4,2.1-0.4,3.1-0.5c-0.3,0.9-0.3,2.1-1,2.7c-5.2,4.4-7.7,10.5-9.8,16.7c-0.9,2.7-0.4,5.8-0.6,8.8c2.9-0.2,6.1,0.3,8.8-0.6
			c10.1-3.4,19.8-8,30-10.9c15.7-4.4,31.5-6.8,47,1.3c4.8,2.5,6.3,1.4,5.2-3.8c-2-9.6-3.9-19.3-6.8-28.6c-1.9-6.1-6.9-7.8-13.2-5.8
			c-9.4,3-18.6,6.6-28.2,8.5c-8.8,1.7-17.1,3.8-24.4,9.1c-0.7,0.5-2.7-0.1-3.5-0.8c-7.8-7.5-9.6-16.9-7.7-27.2
			c4-21.4,14.4-39,31.6-52.5c7.7-6.1,15.3-6.8,23.4-1c2.6,1.9,5.4,3.4,8,5.2c13.4,9.4,16.6,22.8,14.3,38.1
			C738.1,272.2,736.7,278,735.4,284.3z M732.7,282.2c1-5,2.3-10.4,3.2-15.9c2.9-18.1-2.5-29.4-18.1-38.9c-0.9-0.6-1.9-1-2.7-1.7
			c-6.9-5.1-13.4-4.3-20,0.9c-17.3,13.8-27.5,31.5-30.6,53.3c-1.2,8.1,0.6,15.6,6.8,20.8c6.2-2.4,11.8-5.8,17.7-6.8
			c11.4-1.8,22.3-4.8,33-9C725.2,283.8,728.6,283.2,732.7,282.2z"/>
		<path d="M338.4,181.5c-4.8-0.7-9.3-1.2-13.7-2c-2-0.4-4.1-1.3-5.9-2.4c-0.9-0.5-1.6-2.1-1.6-3.2c0-0.7,1.7-1.7,2.6-1.8
			c7.3-0.1,14.6-0.6,21.3,3.6c1.6,1,3.9,0.9,6.1,1.3c1.5-4.4,2.7-8.3,4.1-12.1c1-2.7,2.1-5.5,3.8-7.9c1.1-1.5,3.6-3.3,4.8-3
			c1.5,0.4,2.8,3,3.2,4.8c0.6,2.4,0.6,5.1,0.2,7.5c-1,6.1-0.9,11.9,1.2,18c2.1,6.1-3,10.1-7.1,13.6c-3.8,3.3-8.3,5.7-13.5,3.7
			c-4.7-1.8-8.2-10.9-6.7-16.7C337.5,183.9,338,182.8,338.4,181.5z M354.8,194.4c0.4,0.2,0.8,0.3,1.1,0.5c1.6-3.4,3.3-6.6,4.5-10.1
			c0.3-0.8-1.4-2.9-2.6-3.3c-7.2-2.6-12.4-2-14.5,6.9c1.1,1.2,2.3,2.1,3.1,3.3c2.3,3.3,3.2,3.3,5,0.5c-0.5-2.2-0.9-3.6-0.9-5
			c0-0.3,1.9-1.1,2.6-0.8C357,188.2,354.8,191.6,354.8,194.4z M359.5,157.6c-0.5-0.1-1-0.2-1.5-0.4c-2.3,5.8-4.6,11.6-7.1,17.7
			c3.2,0,5.5,0,8.2,0C359.3,169.2,362.3,163.5,359.5,157.6z M335.9,178c0.1-0.5,0.1-1,0.2-1.5c-3.8-0.4-7.6-0.9-11.4-1.3
			c-0.1,0.5-0.1,0.9-0.2,1.4C328.3,177,332.1,177.5,335.9,178z"/>
		<path d="M786.4,929.4c-18.2-4.2-36.8-7.8-55-12.8c-29.2-8-56.5-21-82.5-36.3c-12.6-7.4-24.2-16.5-35.8-25.4
			c-3.7-2.8-6-7.6-8.7-11.6c-0.5-0.8,0.4-2.6,0.6-3.9c0.8,1,1.6,2,2.3,3c2.4,3.3,4.3,7.2,7.3,9.7c8.5,6.9,17.1,13.6,26.3,19.5
			c29.9,19.1,62,34,96.2,43.4c15.5,4.3,31.5,6.6,47.3,9.8c0.9,0.2,1.9,0.2,2.7,0.6c0.8,0.4,1.5,1.2,2.2,1.8
			C788.7,927.9,787.9,928.4,786.4,929.4z"/>
		<path d="M900.5,559c3.2,0.8,5.6,1.2,7.8,1.9c4.5,1.5,9.4,2.4,13.3,4.8c11.3,6.8,22,14.5,33.2,21.4c12.9,7.9,27.3,11.3,42.2,11.8
			c3.8,0.1,8.4-2.1,11.6-4.6c13-10,25.7-20.3,38.4-30.7c6.7-5.5,13.1-11.3,19.6-17c0.9-0.8,1.9-1.6,2.9-2.1c0.6-0.3,1.4-0.1,2.2-0.2
			c-0.1,0.8,0.2,2-0.3,2.4c-1.4,1.4-3.1,2.5-4.6,3.8c-17,14.1-34.2,28-50.8,42.5c-9.8,8.6-20.3,10.3-32.6,7.7
			c-15.7-3.2-29.7-9.7-42.6-19.3c-7.2-5.4-15-10.2-22.9-14.5c-3.7-2-8.3-2-12.5-3.1c-1.7-0.4-3.5-1-4.8-2.1
			C900,561.4,900.5,559.5,900.5,559z"/>
		<path d="M948.9,422.7c5.3,0,9.7,3.1,10.9,8.1c1.8,6.9,4.9,12.9,10.8,17.2c0.8,0.6,1.5,1.9,1.5,2.9c0,0.5-1.4,1.3-2.3,1.6
			c-6.6,2.4-13.2,4.7-20.4,7.3c0.9,1.5,1.6,2.8,2.5,4c2,2.8,1.7,3.9-1.6,4.6c-15,3.5-29.2,9-42.9,16c-13.3,6.7-25,15.6-35.1,26.7
			c-0.8,0.9-2.3,1.3-3.4,1.9c0.4-1.3,0.4-3,1.3-4c14.8-16.8,33.4-27.9,54.2-35.6c7.8-2.9,15.8-5.5,23.9-8.3c0,0.2,0.1-0.1,0-0.3
			c-3.3-7.1-3.2-6.9,4.3-9.4c4.9-1.6,9.6-3.8,14.6-5.8c-5.4-5.2-8.7-11.3-10.6-18.3c-0.5-2-3.1-3.3-4.7-5
			C950.8,425.1,949.9,423.9,948.9,422.7C949,422.6,948.9,422.7,948.9,422.7z"/>
		<path d="M663.4,927.7c-22-1.1-43.5-3.2-64.2-9.8c-19.4-6.2-38.3-14-55.9-24.5c-5.1-3-9.5-7.3-13.9-11.2c-1.8-1.6-3-4-4.1-6.3
			c-0.3-0.6,0.4-1.8,0.6-2.7c0.7,0.4,1.7,0.7,2.1,1.4c4.7,8.8,12.6,14.1,20.9,18.5c27.5,14.5,56,26,87.3,29.2
			c9,0.9,18.1,1.2,27.1,1.9c1,0.1,1.9,1,2.8,1.5C665.2,926.3,664.3,927,663.4,927.7z"/>
		<path d="M769.6,611.8c-1,0.2-1.9,0.6-2.9,0.6c-21.6,0.3-42.9-1.4-63-10.1c-0.1-0.1-0.3-0.1-0.4-0.2c-1.1-1-2.1-2-3.2-2.9
			c1.4,0,3-0.4,4.2,0.1c19.2,8.2,39.3,10.2,59.9,10.1c1.8,0,3.6,0.5,5.4,0.7C769.6,610.6,769.6,611.2,769.6,611.8z"/>
		<path d="M668.1,77.6c-3.7,2-12.6,0.8-14.8-1.8c-0.4-0.5-0.7-1.2-0.6-1.7c0.1-0.4,1-1,1.5-0.9c4.4,1,8.7,2.1,13,3.2
			C667.6,76.5,667.7,77,668.1,77.6z"/>
		<path d="M508,120.7c1.9,0.8,4,1.4,5.8,2.4c1.9,1.1,3.7,2.6,5.4,4.1c0.4,0.3,0.6,1.3,0.4,1.7c-0.2,0.4-1.3,0.9-1.5,0.8
			c-3.7-2.3-7.4-4.7-11-7.1C507.4,121.9,507.7,121.3,508,120.7z"/>
		<path d="M389.9,180.1c-0.6-0.4-1.7-1.1-2.8-1.8c1.1-0.5,2.1-1.2,3.2-1.4c2.7-0.6,5.4-1.1,8.2-1.4c0.8-0.1,1.7,0.8,2.6,1.2
			c-0.7,0.6-1.3,1.6-2.2,1.8C396.2,179.2,393.4,179.5,389.9,180.1z"/>
		<path d="M636.4,67.7c0.7,0,1.4-0.2,2,0c0.9,0.4,1.6,1,2.4,1.5c-0.8,0.5-1.5,1.3-2.4,1.5c-2.6,0.7-5.3,1.3-8,1.8
			c-0.7,0.1-1.4-0.1-2.2-0.2c0.2-0.8,0.2-2.1,0.7-2.3c2.3-1.1,4.8-1.9,7.2-2.9C636.2,67.3,636.3,67.5,636.4,67.7z"/>
		<path d="M544.1,140.8c-4.1,2.4-10.3,0.1-11.4-4.1c-0.1-0.6-0.1-1.4,0.2-1.8c0.3-0.3,1.6-0.4,1.7-0.2c1.9,3.5,5.4,3.8,8.7,4.8
			C543.6,139.7,543.8,140.4,544.1,140.8z"/>
		<path d="M592.4,128.9c-3.5,2.6-6.7,5.1-10,7.6c-0.1,0.1-1.1-0.5-1.1-0.8c0-0.6,0.1-1.4,0.5-1.7c2.3-2.2,4.6-4.4,7-6.5
			c0.5-0.4,1.4-0.5,2.2-0.5C591.2,126.9,591.4,127.6,592.4,128.9z"/>
		<path d="M459.9,126.4c-0.4-0.2-1.2-0.5-1.2-0.7c0-0.7,0-1.8,0.4-2.1c2.8-1.7,5.7-3.3,8.7-4.7c0.4-0.2,1.4,0.3,1.6,0.7
			c0.2,0.4,0,1.5-0.4,1.7C466.1,123,463,124.6,459.9,126.4z"/>
		<path d="M449.1,137.1c-2,2.8-3.9,5.6-6,8.2c-0.3,0.4-1.2,0.5-1.8,0.4c-0.3-0.1-0.9-1-0.8-1.1c2.4-2.8,4.8-5.6,7.2-8.4
			C447.7,136.2,448.3,136.6,449.1,137.1z"/>
		<path d="M479,115.4c4.2,0.7,7.7,1.3,11.1,2.1c0.2,0.1,0.5,2.1,0.1,2.4C488.4,121.2,480.7,118.6,479,115.4z"/>
		<path d="M567.5,141.4c-1.1-0.1-2.2,0.2-2.9-0.2c-1.2-0.7-2.2-1.8-3.4-2.7c1.2-0.1,2.5-0.2,3.7-0.3c2-0.1,3.9-0.3,5.9-0.2
			c0.9,0.1,1.7,0.8,2.6,1.2c-0.7,0.6-1.3,1.5-2.2,1.8C570,141.4,568.6,141.3,567.5,141.4z"/>
		<path d="M607.7,92.6c-0.5-0.6-1.2-1.3-1.1-1.6c1.1-2.6,2.3-5.1,3.7-7.6c0.1-0.2,1.2-0.2,1.7,0.1c0.3,0.2,0.5,1,0.4,1.4
			c-1,2.3-2.1,4.5-3.2,6.7C608.9,92,608.3,92.2,607.7,92.6z"/>
		<path d="M599.1,114.2c-0.6,1.3-1.2,2.5-1.8,3.6c-0.7-1.2-2.1-2.5-1.9-3.6c0.2-1.5,1.5-2.9,2.4-4.3
			C598.2,111.3,598.6,112.6,599.1,114.2z"/>
		<path d="M423.8,162.4c-1.8-2.9,0.2-5.3,1.5-7.7c0.2-0.3,1.1-0.5,1.4-0.3c0.4,0.3,1,1.1,0.9,1.5c-0.7,2.3-1.6,4.6-2.4,6.8
			C424.8,162.7,424.3,162.6,423.8,162.4z"/>
		<path d="M914.1,384.9c0.1,13-7.3,21.4-20,24.1c-10.5,2.2-19.5-1.5-27.6-7.6c-3.6-2.7-5-6.9-3.9-11.5c0.2-0.9,1.4-1.6,2.2-2.4
			c0.3,1,1,2,0.8,2.9c-0.9,3.8,0.6,6.9,3.3,8.8c8.6,6,17.7,9.7,28.4,5.6c8.6-3.3,13.5-9.2,13.8-17.3c0.3-7.7-4.8-15.2-12.5-18.9
			c-11.6-5.6-21.7-2.2-31.3,4.7c-0.4,0.3-0.7,0.9-1.2,1.1c-0.9,0.4-1.8,0.5-2.7,0.8c0.1-0.9,0.2-1.9,0.4-2.8
			c0.1-0.3,0.5-0.6,0.8-0.9c12.6-10.4,30.7-13.2,43.8,0.7C912.3,376.3,914.2,381,914.1,384.9z"/>
		<path d="M926.1,351.8c-5.6,0.2-9.6-2.7-12.7-7c-0.9-1.2-1.4-3-1.3-4.4c0-1.2,1.2-2.3,1.8-3.4c0.4,1.1,1,2.1,1.1,3.3
			c0.3,3.3,4.1,7.1,8.4,8.2c4.4,1.2,8.7-0.1,10.8-3.2c0.4-0.5,0.5-1.3,0.9-1.7c0.6-0.6,1.4-1,2-1.4c0.2,0.9,0.8,1.9,0.7,2.8
			c-0.8,3.8-5.2,6.7-10.1,7C927.2,351.8,926.6,351.8,926.1,351.8z"/>
		<path d="M888.7,342.9c-4.8-1.3-7.2,0.7-9,4.1c-1.6,3-1,5.2,2.2,6.4c1.7,0.7,3.6,0.9,5.4,1.4c1.1,0.3,2.2,0.9,3.7,1.5
			c-4,2.8-11.8,0.8-14.2-3c-2.3-3.7,0.1-10.4,4.7-13.1C884.3,338.5,886.8,339.1,888.7,342.9z"/>
		<path d="M936.4,337.9c-0.4-0.3-0.9-0.5-1.2-0.9c-4.1-6.5-11.3-7.6-17.4-2.7c-0.7,0.6-1.8,0.6-2.7,0.9c0.1-0.9-0.2-2.1,0.3-2.8
			c3.7-5.7,17.8-5.5,21.2,0.3c0.8,1.4,0.8,3.2,1.1,4.8C937.3,337.6,936.9,337.7,936.4,337.9z"/>
		<path d="M1274.9,282c-0.5,0.6-0.9,1.3-1.5,1.7c-7.1,4.2-14.1,8.4-21.3,12.4c-1,0.6-2.6,0.1-4,0.2c0.8-1,1.4-2.3,2.4-2.9
			c6.7-4,13.5-7.9,20.3-11.7c1-0.6,2.4-0.6,3.6-0.8C1274.7,281.2,1274.8,281.6,1274.9,282z"/>
	</g>
	<g>
		<g>
			<path d="M922.9,340.4c1.9,0,1.9-3,0-3C921,337.4,921,340.4,922.9,340.4L922.9,340.4z"/>
		</g>
	</g>
</g>
</svg>
