<?xml version="1.0" encoding="utf-8"?>
<!-- Generator: Adobe Illustrator 22.0.1, SVG Export Plug-In . SVG Version: 6.00 Build 0)  -->
<svg version="1.0" id="Ebene_1" xmlns="http://www.w3.org/2000/svg" xmlns:xlink="http://www.w3.org/1999/xlink" x="0px" y="0px"
	 viewBox="0 0 401.2 1521" enable-background="new 0 0 401.2 1521" xml:space="preserve">
<g opacity="0.9">
	<polygon opacity="0.6" fill="#64398E" points="2,545.3 401.2,775.8 401.2,314.8 	"/>
	<polygon opacity="0.6" fill="#64398E" points="0,907.1 399.2,1137.6 399.2,676.6 	"/>
	<polygon opacity="0.6" fill="#64398E" points="314.9,1271.1 400.4,1135.9 229.4,1135.9 	"/>
	<polygon opacity="0.6" fill="#D36E00" points="3.5,548.4 343.5,568.8 52.5,211.3 	"/>
	<polygon opacity="0.6" fill="#D36E00" points="397.6,183.4 400.3,0 224.9,121.5 	"/>
	<polygon opacity="0.6" fill="#D36E00" points="396.7,1137.7 224.2,776.9 41.6,1321.8 	"/>
	<polygon opacity="0.6" fill="#3B6AAD" points="145.9,325.8 399.7,640.5 399.7,11.2 	"/>
	<polygon opacity="0.6" fill="#3B6AAD" points="145.9,717.9 399.7,909.8 399.7,525.9 	"/>
	<polygon opacity="0.6" fill="#3B6AAD" points="276.6,1329 399.7,1521 399.7,1137 	"/>
	<polygon opacity="0.6" fill="#3B6AAD" points="132.3,1050.5 237.6,1044.3 85,956.2 	"/>
</g>
</svg>
