<?xml version="1.0" encoding="utf-8"?>
<!-- Generator: Adobe Illustrator 22.0.1, SVG Export Plug-In . SVG Version: 6.00 Build 0)  -->
<svg version="1.0" id="Ebene_1" xmlns="http://www.w3.org/2000/svg" xmlns:xlink="http://www.w3.org/1999/xlink" x="0px" y="0px"
	 viewBox="0 0 892 908.6" enable-background="new 0 0 892 908.6" xml:space="preserve">
<g>
	<path fill="#5E5E5E" d="M9.8,67.4C7.6,66,6.5,63,6.5,58.6V21.9c0-3.9,1-6.8,3.1-8.6c2.1-1.8,4.6-2.7,7.7-2.7
		c2.8,0,9.1,0.1,18.8,0.4l5.7,0.2v3.6H18.4c-2.3,0-4.2,0.6-5.4,1.9s-1.9,3.2-1.9,5.7V38l27.2,0.4v3.4l-27.2,0.4v15.5
		c0,3,0.7,5,2.2,6c1.4,1,3.4,1.5,5.8,1.5h22.7v3.6c-7,0.3-14.8,0.6-23.3,0.7C14.9,69.6,12.1,68.8,9.8,67.4z"/>
	<path fill="#5E5E5E" d="M48.3,26.7H53l14.5,38.3l14.9-38.3h4.7l-17,42.6h-5.3L48.3,26.7z"/>
	<path fill="#5E5E5E" d="M95.3,18.4c-0.2-0.2-0.3-0.5-0.3-0.9v-5.7c0-0.8,0.4-1.2,1.2-1.2h3.1c0.7,0,1,0.4,1,1.2v5.7
		c0,0.8-0.3,1.2-1,1.2h-3.1C95.8,18.7,95.5,18.6,95.3,18.4z M95.4,26.7h4.6v42.6h-4.6V26.7z"/>
	<path fill="#5E5E5E" d="M115.6,66.2c-1.7-2-2.6-5.6-2.6-10.6V8.3h4.6v46.9c0,2.7,0.2,4.7,0.7,6.1c0.5,1.4,1.2,2.4,2.1,3
		c0.9,0.6,2.1,1,3.6,1.1l4.6,0.6v3.3h-5.2C120,69.3,117.3,68.3,115.6,66.2z"/>
	<path fill="#5E5E5E" d="M157.8,10.6h4.6v58.6h-4.6V10.6z"/>
	<path fill="#5E5E5E" d="M175.5,26.7h3.4l1.2,4.8c2.3-1.6,4.9-2.9,7.7-4c2.8-1,5.6-1.6,8.5-1.6c4.3,0,7.5,1.4,9.8,4.1
		c2.3,2.7,3.4,6,3.4,10v29.2h-4.6V40.5c0-3-0.9-5.4-2.7-7.4c-1.8-1.9-4.2-2.9-7.1-2.9c-2.8,0-5.3,0.4-7.5,1.1s-4.6,1.9-7.5,3.4v34.6
		h-4.6V26.7z"/>
	<path fill="#5E5E5E" d="M227.8,69.4c-3.8-0.2-6.2-0.4-7.5-0.6V66h17c3.3,0,5.8-0.5,7.4-1.4c1.6-0.9,2.4-2.9,2.4-5.8v-2.1
		c0-2.2-0.7-3.8-2.2-5c-1.4-1.1-3.6-1.7-6.5-1.7h-5.8c-4.2,0-7.3-0.8-9.5-2.3c-2.2-1.5-3.3-4.2-3.3-7.9v-2.2c0-3.9,1.2-6.8,3.5-8.7
		s6-2.8,10.9-2.8c2.2,0,4.9,0.1,8.1,0.3c3.1,0.2,5.6,0.4,7.3,0.7v2.9h-16c-3.2,0-5.7,0.6-7.2,1.7c-1.6,1.1-2.4,3.1-2.4,5.9v1.8
		c0,2.6,0.8,4.4,2.3,5.2c1.5,0.9,3.8,1.3,6.9,1.3h5.8c3.8,0,6.7,0.9,8.9,2.7c2.2,1.8,3.2,4.3,3.2,7.6v2.7c0,4-1.3,6.8-3.8,8.3
		c-2.5,1.5-6.1,2.3-10.8,2.3C234.5,69.7,231.6,69.6,227.8,69.4z"/>
	<path fill="#5E5E5E" d="M262.1,26.7h3.6l1,4.5c1.7-1.2,4-2.3,6.7-3.4c2.8-1.1,5.4-1.6,7.8-1.6c5.3,0,9.1,2.1,11.6,6.2
		c2.5,4.2,3.7,9.3,3.7,15.4c0,14.6-5.1,21.9-15.3,21.9c-2.3,0-4.8-0.4-7.3-1.2c-2.6-0.8-5-1.9-7.2-3.2v22.8h-4.6V26.7z M292,47.8
		c0-6-1.1-10.4-3.4-13.4s-5-4.4-8.4-4.4c-2.5,0-4.7,0.4-6.7,1.1c-2,0.7-4.3,1.7-6.7,2.9v27.9c4.7,2.6,9.2,3.9,13.5,3.9
		C288.1,65.8,292,59.8,292,47.8z"/>
	<path fill="#5E5E5E" d="M308,18.4c-0.2-0.2-0.3-0.5-0.3-0.9v-5.7c0-0.8,0.4-1.2,1.2-1.2h3.1c0.7,0,1,0.4,1,1.2v5.7
		c0,0.8-0.3,1.2-1,1.2h-3.1C308.5,18.7,308.2,18.6,308,18.4z M308.1,26.7h4.6v42.6h-4.6V26.7z"/>
	<path fill="#5E5E5E" d="M325.8,26.7h3.4l1.2,7.7c2.2-2.6,4.6-4.6,7.1-6s5.2-2.2,8.3-2.2c1.6,0,3,0.2,4.2,0.5v4.7
		c-1.8-0.3-3.3-0.5-4.6-0.5c-2.9,0-5.5,0.5-7.7,1.6c-2.2,1.1-4.6,2.9-7.3,5.4v31.3h-4.6V26.7z"/>
	<path fill="#5E5E5E" d="M357.1,66.9c-2-1.9-3-4.5-3-7.8v-2.9c0-3.5,1.1-6.2,3.4-8.2c2.3-2,5.5-3,9.7-3h15.6v-5.9
		c0-3.1-0.8-5.4-2.5-6.9c-1.7-1.5-4.7-2.3-9.1-2.3h-13.3V27c5.2-0.7,10.1-1,14.9-1c5.1,0,8.8,1.1,11.1,3.2c2.3,2.1,3.5,5.3,3.5,9.7
		v30.4h-3.5l-1-5c-0.4,0.3-1.6,0.9-3.7,1.8c-2.1,0.9-4.4,1.7-7,2.5c-2.6,0.8-5.1,1.2-7.3,1.2C361.7,69.7,359.1,68.8,357.1,66.9z
		 M372.8,65.1c2.3-0.6,4.4-1.3,6.3-1.9c1.9-0.7,3.1-1.1,3.7-1.3V47.4L367.9,48c-3.1,0.1-5.5,0.9-6.9,2.4c-1.5,1.5-2.2,3.5-2.2,5.9v2
		c0,2.7,0.8,4.7,2.4,5.9c1.6,1.2,3.5,1.8,5.7,1.8C368.5,66,370.5,65.7,372.8,65.1z"/>
	<path fill="#5E5E5E" d="M404.8,66.1c-1.9-2.1-2.8-5.5-2.8-10.2l0.2-25.3h-6.8v-3l6.8-0.9l0.9-11.9h3.5v11.9h12.9v3.9h-12.9v25.3
		c0,3.6,0.7,6.1,2,7.3s3,2,5.1,2.2l5.2,0.5v3.4h-5.4C409.7,69.2,406.7,68.2,404.8,66.1z"/>
	<path fill="#5E5E5E" d="M428.9,18.4c-0.2-0.2-0.3-0.5-0.3-0.9v-5.7c0-0.8,0.4-1.2,1.2-1.2h3.1c0.7,0,1,0.4,1,1.2v5.7
		c0,0.8-0.3,1.2-1,1.2h-3.1C429.5,18.7,429.2,18.6,428.9,18.4z M429,26.7h4.6v42.6H429V26.7z"/>
	<path fill="#5E5E5E" d="M452.9,67.9c-2.6-1.2-4.5-3.4-5.9-6.5c-1.3-3.2-2-7.7-2-13.5c0-5.9,0.7-10.4,2-13.6
		c1.3-3.1,3.3-5.3,5.8-6.4c2.6-1.1,6-1.7,10.2-1.7c4.3,0,7.7,0.6,10.3,1.8c2.6,1.2,4.5,3.3,5.9,6.5c1.3,3.1,2,7.6,2,13.5
		c0,5.9-0.7,10.4-2,13.5c-1.3,3.1-3.3,5.3-5.9,6.5c-2.6,1.2-6,1.8-10.3,1.8C458.9,69.7,455.5,69.1,452.9,67.9z M470.8,64.5
		c1.9-0.9,3.3-2.6,4.4-5.1s1.5-6.4,1.5-11.5s-0.5-9-1.5-11.5c-1-2.6-2.5-4.3-4.4-5.1c-1.9-0.8-4.4-1.2-7.6-1.2
		c-3.2,0-5.8,0.4-7.7,1.2c-1.9,0.8-3.3,2.5-4.3,5.1c-1,2.6-1.5,6.4-1.5,11.5s0.5,8.9,1.5,11.5c1,2.6,2.4,4.3,4.3,5.1
		c1.9,0.9,4.4,1.3,7.7,1.3C466.3,65.8,468.9,65.4,470.8,64.5z"/>
	<path fill="#5E5E5E" d="M492.8,26.7h3.4l1.2,4.8c2.3-1.6,4.9-2.9,7.7-4c2.8-1,5.6-1.6,8.5-1.6c4.3,0,7.5,1.4,9.8,4.1
		c2.3,2.7,3.4,6,3.4,10v29.2h-4.6V40.5c0-3-0.9-5.4-2.7-7.4c-1.8-1.9-4.2-2.9-7.1-2.9c-2.8,0-5.3,0.4-7.5,1.1s-4.6,1.9-7.5,3.4v34.6
		h-4.6V26.7z"/>
	<path fill="#5E5E5E" d="M563.6,30.6h-6.7v-3l6.7-0.9v-5.5c0-4.5,0.8-7.9,2.5-10.1c1.7-2.2,4.7-3.3,9.1-3.3c2.6,0,5.2,0.2,8,0.6v3.3
		h-7.3c-3,0-5.1,0.7-6.1,2.2c-1,1.4-1.6,3.8-1.6,7.1v5.7h13.9v3.9h-13.9v38.7h-4.6V30.6z"/>
	<path fill="#5E5E5E" d="M596.5,67.9c-2.6-1.2-4.5-3.4-5.9-6.5c-1.3-3.2-2-7.7-2-13.5c0-5.9,0.7-10.4,2-13.6
		c1.3-3.1,3.3-5.3,5.8-6.4c2.6-1.1,6-1.7,10.2-1.7s7.7,0.6,10.3,1.8c2.6,1.2,4.5,3.3,5.9,6.5c1.3,3.1,2,7.6,2,13.5
		c0,5.9-0.7,10.4-2,13.5c-1.3,3.1-3.3,5.3-5.9,6.5c-2.6,1.2-6,1.8-10.3,1.8C602.4,69.7,599,69.1,596.5,67.9z M614.3,64.5
		c1.9-0.9,3.3-2.6,4.4-5.1c1-2.6,1.5-6.4,1.5-11.5s-0.5-9-1.5-11.5c-1-2.6-2.5-4.3-4.4-5.1c-1.9-0.8-4.4-1.2-7.6-1.2
		c-3.2,0-5.8,0.4-7.7,1.2c-1.9,0.8-3.3,2.5-4.3,5.1c-1,2.6-1.5,6.4-1.5,11.5s0.5,8.9,1.5,11.5c1,2.6,2.4,4.3,4.3,5.1
		c1.9,0.9,4.4,1.3,7.7,1.3C609.8,65.8,612.4,65.4,614.3,64.5z"/>
	<path fill="#5E5E5E" d="M636.3,26.7h3.4l1.2,7.7c2.2-2.6,4.6-4.6,7.1-6s5.2-2.2,8.3-2.2c1.7,0,3,0.2,4.2,0.5v4.7
		c-1.8-0.3-3.3-0.5-4.6-0.5c-2.9,0-5.5,0.5-7.7,1.6c-2.2,1.1-4.6,2.9-7.3,5.4v31.3h-4.6V26.7z"/>
	<path fill="#5E5E5E" d="M690.7,10.6h4.6v27.2h11.2l17.3-27.2h5l-18.5,29.3l18.7,29.3h-5L706.5,42h-11.1v27.2h-4.6V10.6z"/>
	<path fill="#5E5E5E" d="M742.5,67.9c-2.6-1.2-4.5-3.4-5.9-6.5c-1.3-3.2-2-7.7-2-13.5c0-5.9,0.7-10.4,2-13.6
		c1.3-3.1,3.3-5.3,5.8-6.4c2.6-1.1,6-1.7,10.2-1.7c4.3,0,7.7,0.6,10.3,1.8c2.6,1.2,4.5,3.3,5.9,6.5c1.3,3.1,2,7.6,2,13.5
		c0,5.9-0.7,10.4-2,13.5c-1.3,3.1-3.3,5.3-5.9,6.5c-2.6,1.2-6,1.8-10.3,1.8C748.4,69.7,745,69.1,742.5,67.9z M760.3,64.5
		c1.9-0.9,3.3-2.6,4.4-5.1s1.5-6.4,1.5-11.5s-0.5-9-1.5-11.5c-1-2.6-2.5-4.3-4.4-5.1c-1.9-0.8-4.4-1.2-7.6-1.2
		c-3.2,0-5.8,0.4-7.7,1.2c-1.9,0.8-3.3,2.5-4.3,5.1c-1,2.6-1.5,6.4-1.5,11.5s0.5,8.9,1.5,11.5c1,2.6,2.4,4.3,4.3,5.1
		c1.9,0.9,4.4,1.3,7.7,1.3C755.8,65.8,758.4,65.4,760.3,64.5z"/>
	<path fill="#5E5E5E" d="M786.9,66.1c-1.9-2.1-2.8-5.5-2.8-10.2l0.2-25.3h-6.8v-3l6.8-0.9l0.9-11.9h3.5v11.9h12.9v3.9h-12.9v25.3
		c0,3.6,0.7,6.1,2,7.3c1.4,1.3,3,2,5.1,2.2l5.2,0.5v3.4h-5.4C791.7,69.2,788.8,68.2,786.9,66.1z"/>
	<path fill="#5E5E5E" d="M813.7,66.2c-1.7-2-2.6-5.6-2.6-10.6V8.3h4.6v46.9c0,2.7,0.2,4.7,0.7,6.1s1.2,2.4,2.1,3
		c0.9,0.6,2.1,1,3.6,1.1l4.6,0.6v3.3h-5.2C818,69.3,815.4,68.3,813.7,66.2z"/>
	<path fill="#5E5E5E" d="M834,18.4c-0.2-0.2-0.3-0.5-0.3-0.9v-5.7c0-0.8,0.4-1.2,1.2-1.2h3.1c0.7,0,1,0.4,1,1.2v5.7
		c0,0.8-0.3,1.2-1,1.2h-3.1C834.5,18.7,834.2,18.6,834,18.4z M834.1,26.7h4.6v42.6h-4.6V26.7z"/>
	<path fill="#5E5E5E" d="M851.7,26.7h3.4l1.2,4.8c2.3-1.6,4.9-2.9,7.7-4c2.8-1,5.6-1.6,8.5-1.6c4.3,0,7.5,1.4,9.8,4.1
		c2.3,2.7,3.4,6,3.4,10v29.2h-4.6V40.5c0-3-0.9-5.4-2.7-7.4c-1.8-1.9-4.2-2.9-7.1-2.9c-2.8,0-5.3,0.4-7.5,1.1s-4.6,1.9-7.5,3.4v34.6
		h-4.6V26.7z"/>
</g>
<g>
	<path fill="#5E5E5E" d="M281.8,895.1c-1.5-0.6-2.9-1.3-4.1-2.1l-0.6,2.6H275v-36.5h2.8v13.5c1.3-0.8,2.8-1.5,4.4-2
		c1.6-0.5,3-0.8,4.3-0.8c3.1,0,5.4,1,6.9,3c1.5,2,2.2,5.4,2.2,10.2c0,4.1-0.7,7.2-2.2,9.5c-1.5,2.2-3.8,3.4-6.9,3.4
		C284.9,896,283.3,895.7,281.8,895.1z M291.1,890.9c1.2-1.8,1.8-4.4,1.8-7.9c0-2.9-0.3-5.1-0.9-6.7c-0.6-1.6-1.4-2.7-2.4-3.3
		c-1-0.6-2.3-0.9-3.8-0.9c-1.5,0-2.8,0.2-4,0.6s-2.6,1-4.1,1.8v16.7c1.4,0.7,2.7,1.3,3.9,1.7c1.3,0.4,2.6,0.6,4.1,0.6
		C288.1,893.6,289.9,892.7,291.1,890.9z"/>
	<path fill="#5E5E5E" d="M311.4,895.7c-1.2,0-2.4-0.5-3.6-1.3c-1.2-0.8-2.1-2.3-2.7-4.4l-6.5-19.8h2.9l6.2,19.2
		c0.9,2.6,2.3,3.9,4.3,3.9l7.2-23h2.9l-9.8,32.1l-2.2,4.7h-2L311.4,895.7z"/>
	<path fill="#5E5E5E" d="M344.4,895.7c-2.3-0.2-3.9-0.3-5-0.5v-2.1c2.3,0.3,5.8,0.4,10.4,0.4c2.6,0,4.6-0.4,6-1.2
		c1.4-0.8,2.2-2.4,2.2-4.6v-2.7c0-1.8-0.5-3.2-1.4-4.1c-0.9-0.9-2.4-1.4-4.4-1.4h-4.1c-2.9,0-5.1-0.6-6.6-1.9
		c-1.5-1.3-2.2-3.3-2.2-6.2v-2.1c0-3.2,0.8-5.4,2.5-6.8s4.1-2.1,7.3-2.1c1.3,0,3,0.1,5,0.3s3.7,0.4,4.9,0.6v2.1
		c-4.6-0.3-7.9-0.5-9.7-0.5c-2.5,0-4.3,0.5-5.5,1.4c-1.2,0.9-1.8,2.6-1.8,5.1v1.9c0,2,0.5,3.5,1.6,4.3c1,0.8,2.6,1.2,4.7,1.2h4.3
		c2.7,0,4.7,0.7,6.1,2.2c1.4,1.4,2.1,3.4,2.1,5.8v2.9c0,3.1-1,5.3-2.9,6.5s-4.6,1.9-7.8,1.9C348.5,896,346.6,895.9,344.4,895.7z"/>
	<path fill="#5E5E5E" d="M367.6,865.2c-0.1-0.1-0.2-0.3-0.2-0.5v-3.4c0-0.5,0.2-0.7,0.7-0.7h1.9c0.4,0,0.6,0.2,0.6,0.7v3.4
		c0,0.5-0.2,0.7-0.6,0.7h-1.9C367.9,865.4,367.7,865.3,367.6,865.2z M367.6,870.2h2.8v25.5h-2.8V870.2z"/>
	<path fill="#5E5E5E" d="M378.2,870.2h2.1l0.7,2.9c3.3-2.2,6.6-3.3,9.8-3.3c1.5,0,2.9,0.4,4,1.1s2,1.6,2.7,2.8c1.3-1,3-1.9,5-2.7
		c2-0.8,3.9-1.2,5.6-1.2c2.6,0,4.6,0.8,5.9,2.4c1.4,1.6,2.1,3.6,2.1,6.1v17.4h-2.8v-17.2c0-1.8-0.5-3.3-1.6-4.4
		c-1.1-1.2-2.5-1.7-4.3-1.7c-1.5,0-3.1,0.3-4.7,0.8c-1.7,0.6-3.3,1.3-4.8,2.2c0.4,1,0.6,2.1,0.6,3.1v17.2h-2.8v-17.2
		c0-1.8-0.5-3.3-1.6-4.4c-1.1-1.2-2.5-1.7-4.3-1.7c-1.7,0-3.2,0.2-4.5,0.6c-1.3,0.4-2.8,1.1-4.5,2v20.7h-2.8V870.2z"/>
	<path fill="#5E5E5E" d="M427.5,894.9c-1.5-0.7-2.7-2-3.5-3.9c-0.8-1.9-1.2-4.6-1.2-8.1c0-3.5,0.4-6.2,1.2-8.1
		c0.8-1.9,2-3.2,3.5-3.8c1.5-0.7,3.6-1,6.1-1c2.5,0,4.6,0.4,6.1,1.1s2.7,2,3.5,3.9c0.8,1.9,1.2,4.6,1.2,8.1s-0.4,6.2-1.2,8.1
		c-0.8,1.9-2,3.2-3.5,3.9c-1.5,0.7-3.6,1.1-6.1,1.1C431.1,896,429.1,895.6,427.5,894.9z M438.2,892.9c1.1-0.5,2-1.5,2.6-3.1
		c0.6-1.5,0.9-3.8,0.9-6.9s-0.3-5.4-0.9-6.9s-1.5-2.6-2.6-3.1c-1.1-0.5-2.7-0.7-4.6-0.7c-1.9,0-3.5,0.2-4.6,0.7
		c-1.1,0.5-2,1.5-2.6,3.1s-0.9,3.8-0.9,6.9s0.3,5.4,0.9,6.9c0.6,1.5,1.4,2.5,2.6,3.1c1.1,0.5,2.6,0.8,4.6,0.8
		C435.6,893.6,437.1,893.4,438.2,892.9z"/>
	<path fill="#5E5E5E" d="M451.4,870.2h2.1l0.7,2.9c1.4-1,2.9-1.7,4.6-2.4c1.7-0.6,3.4-0.9,5.1-0.9c2.5,0,4.5,0.8,5.9,2.4
		c1.4,1.6,2,3.6,2,6v17.5H469v-17.2c0-1.8-0.5-3.3-1.6-4.4c-1.1-1.2-2.5-1.7-4.3-1.7c-1.7,0-3.2,0.2-4.5,0.6c-1.3,0.4-2.8,1.1-4.5,2
		v20.7h-2.8V870.2z"/>
	<path fill="#5E5E5E" d="M496.7,895.7c-2.3-0.2-3.9-0.3-5-0.5v-2.1c2.3,0.3,5.8,0.4,10.4,0.4c2.6,0,4.6-0.4,6-1.2
		c1.4-0.8,2.2-2.4,2.2-4.6v-2.7c0-1.8-0.5-3.2-1.4-4.1c-0.9-0.9-2.4-1.4-4.4-1.4h-4.1c-2.9,0-5.1-0.6-6.6-1.9
		c-1.5-1.3-2.2-3.3-2.2-6.2v-2.1c0-3.2,0.8-5.4,2.5-6.8s4.1-2.1,7.3-2.1c1.3,0,3,0.1,5,0.3s3.7,0.4,4.9,0.6v2.1
		c-4.6-0.3-7.9-0.5-9.7-0.5c-2.5,0-4.3,0.5-5.5,1.4c-1.2,0.9-1.8,2.6-1.8,5.1v1.9c0,2,0.5,3.5,1.6,4.3c1,0.8,2.6,1.2,4.7,1.2h4.3
		c2.7,0,4.7,0.7,6.1,2.2c1.4,1.4,2.1,3.4,2.1,5.8v2.9c0,3.1-1,5.3-2.9,6.5s-4.6,1.9-7.8,1.9C500.8,896,499,895.9,496.7,895.7z"/>
	<path fill="#5E5E5E" d="M521.6,893.1c-1.7-1.9-2.6-5.3-2.6-10.2c0-3.4,0.4-6.1,1.2-8c0.8-1.9,1.9-3.2,3.4-3.9s3.3-1.1,5.5-1.1
		c3.1,0,5.8,0.2,8.3,0.5v1.7h-7.6c-1.8,0-3.3,0.3-4.4,0.9c-1.1,0.6-2,1.7-2.6,3.3c-0.6,1.6-0.9,3.9-0.9,6.8c0,2.8,0.3,4.9,1,6.5
		c0.6,1.6,1.5,2.6,2.7,3.2c1.1,0.6,2.6,0.9,4.3,0.9h8v1.7c-2.9,0.4-5.8,0.6-8.7,0.6C525.8,896,523.4,895,521.6,893.1z"/>
	<path fill="#5E5E5E" d="M543.4,859.2h2.8v13.9c1.4-1,2.9-1.7,4.6-2.4c1.7-0.6,3.4-0.9,5.1-0.9c2.5,0,4.5,0.8,5.8,2.4
		c1.4,1.6,2.1,3.6,2.1,6v17.5H561v-17.3c0-1.8-0.5-3.2-1.6-4.4c-1.1-1.2-2.5-1.7-4.3-1.7c-1.7,0-3.2,0.2-4.5,0.6
		c-1.3,0.4-2.8,1.1-4.5,2v20.7h-2.8V859.2z"/>
	<path fill="#5E5E5E" d="M574.6,894.7c-1.5-0.8-2.5-2.2-3.2-4s-1-4.5-1-7.8c0-3.4,0.3-6,1-7.9c0.7-1.9,1.8-3.2,3.3-3.9
		c1.5-0.8,3.6-1.1,6.2-1.1c2.2,0,4,0.3,5.4,0.8s2.4,1.4,3.1,2.6c0.7,1.2,1,2.9,1,5c0,2.1-0.6,3.6-1.8,4.5c-1.2,0.9-2.9,1.4-5.2,1.4
		h-10.2c0,2.5,0.3,4.4,0.7,5.7c0.4,1.4,1.3,2.3,2.4,3c1.2,0.6,2.9,0.9,5.1,0.9h8.4v1.7c-3.2,0.4-6.2,0.5-9,0.5
		C578.2,896,576.1,895.6,574.6,894.7z M583.3,882.2c1.6,0,2.8-0.3,3.5-0.9c0.7-0.6,1.1-1.6,1.1-3.1c0-1.6-0.2-2.8-0.7-3.7
		c-0.4-0.9-1.2-1.5-2.2-1.9s-2.4-0.5-4.1-0.5c-2.1,0-3.7,0.3-4.8,0.9c-1.1,0.6-1.9,1.6-2.3,3s-0.7,3.5-0.7,6.2H583.3z"/>
	<path fill="#5E5E5E" d="M598.9,893.9c-1-1.2-1.6-3.3-1.6-6.3v-28.4h2.8v28.1c0,1.6,0.1,2.8,0.4,3.7c0.3,0.9,0.7,1.5,1.2,1.8
		s1.3,0.6,2.2,0.7l2.8,0.3v2h-3.1C601.5,895.7,599.9,895.1,598.9,893.9z"/>
	<path fill="#5E5E5E" d="M612.7,893.9c-1-1.2-1.6-3.3-1.6-6.3v-28.4h2.8v28.1c0,1.6,0.1,2.8,0.4,3.7c0.3,0.9,0.7,1.5,1.2,1.8
		s1.3,0.6,2.2,0.7l2.8,0.3v2h-3.1C615.3,895.7,613.7,895.1,612.7,893.9z"/>
</g>
<g>
	<g>
		<path fill="#4C4C4C" d="M202,216.1c-0.6,0-1.2-0.2-1.7-0.6c-0.4-0.4-11-10.1-16.4-25.9c-5-14.7-6.2-37.4,16.3-62.6l2.7-3l1.5,3.7
			c14.6,36.5,35.3,78.2,65.5,76.4c1.4-0.1,2.6,1,2.6,2.3c0.1,1.4-1,2.6-2.3,2.6c-0.7,0-1.5,0.1-2.2,0.1c-31.1,0-51.9-39.6-66.7-75.8
			c-14.7,17.8-18.9,36.1-12.6,54.6c5,14.6,15,23.7,15.1,23.8c1,0.9,1.1,2.5,0.2,3.5C203.4,215.8,202.7,216.1,202,216.1z"/>
	</g>
	<g>
		<path fill="#4C4C4C" d="M682.3,216.1c-0.7,0-1.4-0.3-1.9-0.8c-0.9-1-0.8-2.6,0.2-3.5c0.1-0.1,10.2-9.4,15.1-24
			c6.2-18.4,1.9-36.6-12.7-54.4c-14.8,36.3-35.6,75.8-66.7,75.8c-0.7,0-1.4,0-2.2-0.1c-1.4-0.1-2.4-1.3-2.3-2.6s1.3-2.4,2.6-2.3
			c30.3,1.8,50.9-39.9,65.5-76.4l1.5-3.7l2.7,3c22.5,25.2,21.3,47.9,16.3,62.6c-5.4,15.8-16,25.5-16.4,25.9
			C683.5,215.9,682.9,216.1,682.3,216.1z"/>
	</g>
	<g>
		<path fill="#515050" d="M731.2,855.4c-5.2,0-7.8-1.9-8.4-2.4c-0.6-0.5-0.9-1.3-0.9-2c0-0.8,0.5-1.5,1.1-1.9
			c0.8-0.5,82-55.6,73.9-116.6c-4.3-31.9-11.7-58.1-59.4-55.8c-20.2,1-53.6,18.5-53.9,18.7c-1.2,0.6-2.7,0.2-3.4-1
			c-0.6-1.2-0.2-2.7,1-3.4c1.4-0.7,34.7-18.3,56.1-19.3c23.9-1.1,40.5,4.7,50.7,17.8c9.2,11.7,11.9,27.4,13.9,42.4
			c3.5,26.6-8.5,56.1-35,85.2c-14.6,16.1-29.8,28-37,33.2c6,0.5,19.4-2.2,43.8-24C790,811.8,840.4,759,811.2,687
			c-7.4-18.1-19.6-29.9-36.4-35.1c-53.8-16.8-138.1,37.7-138.9,38.3c-1.2,0.8-2.7,0.4-3.5-0.7c-0.8-1.2-0.4-2.7,0.7-3.5
			c0.2-0.1,21.9-14.2,50.1-26c38.1-15.9,69.4-20.2,93.1-12.9c18.3,5.7,31.6,18.5,39.6,38c30.5,75-21.9,129.8-38.6,144.8
			C753.8,850.9,739.3,855.4,731.2,855.4z"/>
	</g>
	<g>
		<path fill="#515050" d="M666.5,897.6c-0.8,0-1.6-0.4-2-1.1c-0.6-0.9-0.6-2,0-2.8l59-87c0.7-1,1.9-1.3,3-0.9
			c1.1,0.4,1.7,1.5,1.6,2.7l-6,42c-0.2,1.4-1.5,2.3-2.8,2.1c-1.4-0.2-2.3-1.5-2.1-2.8l4.5-31.3L672.3,891l104.5-27l-56.6-6.5
			c-1.4-0.2-2.4-1.4-2.2-2.8s1.4-2.4,2.8-2.2l70,8c1.2,0.1,2.1,1.1,2.2,2.3c0.1,1.2-0.7,2.3-1.9,2.6l-124,32
			C666.9,897.6,666.7,897.6,666.5,897.6z"/>
	</g>
	<g>
		<path fill="#4C4C4C" d="M192.5,225.6c-0.9,0-1.8-0.5-2.2-1.4l-7-14c-0.5-1-0.3-2.2,0.5-2.9c0.8-0.8,2-0.9,2.9-0.4l20.2,11
			l10.7-12.5c0.8-0.9,2.2-1.2,3.3-0.5l12.5,8l8.6-6.9c0.9-0.7,2.1-0.7,3-0.1l12.4,8.9l20.5-16.8c0.7-0.6,1.6-0.7,2.4-0.4
			c0.8,0.3,1.4,1,1.6,1.9l3,15c0.3,1.4-0.6,2.7-2,2.9c-1.4,0.3-2.7-0.6-2.9-2l-2.2-10.9L259.1,220c-0.9,0.7-2.1,0.8-3,0.1l-12.5-8.9
			l-8.5,6.8c-0.8,0.7-2,0.7-2.9,0.2l-12.2-7.8l-10.6,12.3c-0.8,0.9-2.1,1.1-3.1,0.6l-15-8.2l3.4,6.9c0.6,1.2,0.1,2.7-1.1,3.4
			C193.3,225.5,192.9,225.6,192.5,225.6z"/>
	</g>
	<g>
		<path fill="#4C4C4C" d="M702.5,226.6c-0.2,0-0.4,0-0.6-0.1c-1.3-0.3-2.2-1.7-1.9-3l2.9-12.3l-33.6,13.2c-0.9,0.4-2,0.1-2.7-0.6
			c-0.7-0.7-0.9-1.8-0.5-2.7l4.6-11.2l-21.3,9.5c-0.9,0.4-2,0.2-2.8-0.5s-1-1.8-0.6-2.8l5.1-12.2l-26.6,15.3
			c-0.8,0.5-1.9,0.4-2.7-0.1l-32.2-22.5l7.9,16.4c0.6,1.2,0.1,2.7-1.2,3.3c-1.2,0.6-2.7,0.1-3.3-1.2l-12-25c-0.5-1-0.2-2.3,0.6-3
			c0.9-0.7,2.1-0.8,3.1-0.1l38.7,27.1l31.6-18.2c0.9-0.5,2.1-0.4,2.9,0.3c0.8,0.7,1.1,1.9,0.6,2.8l-5.5,13.2l21.2-9.4
			c0.9-0.4,2-0.2,2.8,0.5c0.7,0.7,1,1.8,0.6,2.7l-4.8,11.6l32.5-12.8c0.9-0.3,1.8-0.2,2.6,0.4c0.7,0.6,1,1.6,0.8,2.5l-4,17
			C704.7,225.8,703.6,226.6,702.5,226.6z"/>
	</g>
	<g>
		<path fill="#F78809" d="M702,232.6c-0.7,1-1.3,2.2-2.2,3.1C648,287.5,596.2,339.4,544.3,391.2c-0.6,0.6-1.3,1.1-1.9,1.6
			c-1.6-1.4-3.4-2.7-4.9-4.2c-39-39-78-78-117-116.9c-1.6-1.6-3.5-3-5.3-4.4c3.3-3.5,6.6-7,9.8-10.5c7.3-8,14.7-16.1,22-24.1
			C532,232.6,617,232.6,702,232.6z"/>
		<path fill="#0194D4" d="M191,502.6c0-82.3,0-164.7,0-247c1.7,1.2,3.6,2.2,5.1,3.7c37.2,37.1,74.3,74.3,111.5,111.4
			c1.5,1.5,3.3,2.7,4.9,4.1c-2.9,3.3-5.7,6.5-8.6,9.8c-6.9,7.2-13.8,14.5-20.7,21.7c-5.8,6.1-11.5,12.2-17.3,18.3
			c-6.7,7-13.3,14-20,21c-5.7,6-11.3,12-17,18c-5.4,5.6-10.7,11.3-16.1,16.9c-4.7,5-9.4,9.9-14.1,14.9
			C196.2,497.7,193.6,500.1,191,502.6z"/>
		<path fill="#7571E1" d="M657,744.6c-17.7,0-35.3,0-53,0c-1.1-1.9-1.8-4.2-3.3-5.7c-66-66.1-132.1-132.2-198.2-198.3
			c-1.2-1.2-2.5-2.1-3.8-3.1c3-3.3,6-6.6,9-9.9c5.7-5.4,11.3-10.7,17-16.1c1.3,1,2.7,2,3.8,3.1C503.7,589.8,578.9,665,654,740.2
			C655.3,741.4,656,743.1,657,744.6z"/>
		<path fill="#7E6FE2" d="M657,744.6c-1-1.5-1.7-3.2-3-4.4C578.9,665,503.7,589.8,428.5,514.6c-1.2-1.2-2.5-2.1-3.8-3.1
			c0.7-1,1.4-2,2.1-2.9c7-6.8,14-13.5,21-20.3c1.3,1.1,2.6,2.1,3.7,3.2c36,36.1,71.9,72.2,107.9,108.4
			c46.5,46.8,93,93.6,139.5,140.4c1.2,1.3,2.8,2.2,4.2,3.4c-1,0.3-2,1-3,1C685.7,744.6,671.3,744.6,657,744.6z"/>
		<path fill="#6875E0" d="M398.7,537.4c1.3,1,2.7,2,3.8,3.1c66.1,66.1,132.2,132.1,198.2,198.3c1.5,1.5,2.2,3.8,3.3,5.7
			c-16,0-32,0-48,0c-1.1-1.9-1.8-4.2-3.3-5.7c-58-58.1-116.1-116.2-174.2-174.2c-1.2-1.2-2.5-2.1-3.8-3.2c4.7-5,9.4-9.9,14.1-14.9
			C392.1,543.5,395.4,540.5,398.7,537.4z"/>
		<path fill="#5C78DE" d="M374.7,561.5c1.3,1,2.7,2,3.8,3.2c58.1,58,116.2,116.1,174.2,174.2c1.5,1.5,2.2,3.8,3.3,5.7
			c-15,0-30,0-45,0c-1.2-1.7-2.2-3.6-3.7-5.1c-50.5-50.5-101-101-151.5-151.5c-1.3-1.3-2.8-2.4-4.1-3.5c5.4-5.6,10.8-11.3,16.1-16.9
			C370.1,565.5,372.4,563.5,374.7,561.5z"/>
		<path fill="#507CDD" d="M351.7,584.4c1.4,1.2,2.9,2.3,4.1,3.5c50.5,50.5,101,101,151.5,151.5c1.5,1.5,2.5,3.4,3.7,5.1
			c-12.7,0-25.3,0-38,0c-1.1-1.6-2-3.4-3.3-4.8c-44.3-44.4-88.7-88.8-133.1-133.2c-1.2-1.2-2.5-2.1-3.8-3.2c0.5-0.9,0.9-1.9,1.4-2.8
			c5.6-5.4,11.2-10.7,16.7-16.1C351.1,584.5,351.4,584.5,351.7,584.4z"/>
		<path fill="#447FDC" d="M332.7,603.5c1.3,1.1,2.6,2,3.8,3.2c44.4,44.4,88.8,88.8,133.1,133.2c1.3,1.3,2.2,3.2,3.3,4.8
			c-11,0-22,0-33,0c-1.2-1.7-2.2-3.6-3.7-5.1c-38.5-38.6-77-77.1-115.5-115.6c-1.4-1.4-2.6-3-3.9-4.5c0.7-0.9,1.3-1.9,2-2.8
			C323.5,612.2,328.1,607.8,332.7,603.5z"/>
		<path fill="#3A82DB" d="M316.9,619.3c1.3,1.5,2.5,3.1,3.9,4.5c38.5,38.5,77.1,77.1,115.5,115.6c1.5,1.5,2.5,3.4,3.7,5.1
			c-10.3,0-20.7,0-31,0c-1.2-1.7-2.2-3.6-3.7-5.1c-33.4-33.5-66.9-67-100.4-100.5c-1.3-1.3-2.7-2.4-4.1-3.5c1.7-2,3.4-3.9,5.1-5.9
			C309.5,626.2,313.2,622.7,316.9,619.3z"/>
		<path fill="#D16293" d="M191,585.6c0-12.3,0-24.7,0-37c1.9,1.1,4.2,1.8,5.7,3.3c29.7,29.6,59.4,59.3,89.1,88.9
			c1.5,1.5,3.4,2.5,5.1,3.8c-1.7,1.9-3.3,3.9-5,5.8c-4.9,4.4-9.9,8.9-14.8,13.3c-1.5-1.3-3.1-2.5-4.5-3.9
			c-23.5-23.5-47-47-70.5-70.5C194.6,587.8,192.7,586.8,191,585.6z"/>
		<path fill="#D66780" d="M316.9,619.3c-3.7,3.4-7.4,6.8-11,10.3c-1.7-1.2-3.6-2.3-5.1-3.8C265.9,591,231,556.1,196.1,521.3
			c-1.5-1.5-3.4-2.5-5.1-3.7c0-5,0-10,0-15c2.6-2.4,5.2-4.9,7.8-7.3c1.7,2.2,3.1,4.7,5.1,6.7c36.9,37,73.9,74,110.9,110.9
			c1.3,1.3,2.7,2.4,4.1,3.7C318.2,617.5,317.6,618.4,316.9,619.3z"/>
		<path fill="#D46588" d="M191,517.6c1.7,1.2,3.6,2.2,5.1,3.7c34.9,34.8,69.8,69.7,104.7,104.6c1.5,1.5,3.4,2.5,5.1,3.8
			c-1.7,2-3.4,3.9-5.1,5.9c-3.3,3-6.6,6.1-9.9,9.1c-1.7-1.2-3.6-2.3-5.1-3.8c-29.7-29.6-59.3-59.3-89.1-88.9
			c-1.5-1.5-3.8-2.2-5.7-3.3C191,538.2,191,527.9,191,517.6z"/>
		<path fill="#3085DA" d="M290.9,644.6c3.3-3,6.6-6.1,9.9-9.1c1.4,1.2,2.9,2.3,4.1,3.5c33.5,33.5,67,67,100.4,100.5
			c1.5,1.5,2.5,3.4,3.7,5.1c-10.3,0-20.7,0-31,0c-1.2-1.7-2.2-3.6-3.7-5.1c-28.2-28.2-56.4-56.4-84.6-84.6c-1.4-1.4-2.6-3-3.9-4.5
			C287.5,648.4,289.2,646.5,290.9,644.6z"/>
		<path fill="#118FD6" d="M312.6,374.8c-1.7-1.4-3.4-2.6-4.9-4.1c-37.2-37.1-74.3-74.3-111.5-111.4c-1.5-1.5-3.4-2.5-5.1-3.7
			c0-7.7,0-15.3,0-23c1,0,2,0,3,0c1.2,1.7,2.2,3.6,3.7,5.1c40.4,40.5,80.9,81,121.4,121.5c1.4,1.4,2.6,3,3.9,4.5
			C319.5,367.4,316.1,371.1,312.6,374.8z"/>
		<path fill="#CB5CA9" d="M191,673.6c0-18,0-36,0-54c1.8,1,4,1.6,5.4,3c11.6,11.4,23.1,23.1,34.7,34.6c7.9,7.9,15.9,15.6,23.9,23.4
			c-8.4,8.6-16.8,17.3-25.2,25.9c-0.6,0.4-1.2,0.8-1.8,1.1c-1.5-1-3.1-1.8-4.4-3c-9.3-9.2-18.5-18.5-27.8-27.7
			C194.4,675.5,192.6,674.7,191,673.6z"/>
		<path fill="#118FD6" d="M229.8,706.4c8.4-8.6,16.8-17.3,25.2-25.9c0.3,0,0.6-0.1,0.8-0.1c0.6,0.4,1.2,0.6,1.6,1.1
			c19.6,19.5,39.2,39.1,58.6,58.7c1,1,1.3,2.9,1.9,4.3c-17,0-34,0-51,0c-1.1-1.6-2-3.4-3.3-4.7C252.4,728.7,241.1,717.6,229.8,706.4
			z"/>
		<path fill="#2688D9" d="M285.9,650.4c1.3,1.5,2.5,3.1,3.9,4.5c28.2,28.2,56.4,56.4,84.6,84.6c1.5,1.5,2.5,3.4,3.7,5.1
			c-10.7,0-21.3,0-32,0c-1.1-1.9-1.8-4.2-3.3-5.7c-23-23.1-46-46.2-69.1-69.2c-1.2-1.2-2.5-2.1-3.8-3.2c0.4-0.9,0.9-1.9,1.3-2.8
			C276,659.2,280.9,654.8,285.9,650.4z"/>
		<path fill="#7E6FE2" d="M447,232.6c-7.3,8-14.6,16.1-22,24.1c-3.2,3.5-6.5,7-9.8,10.5c-5.4,5.4-10.8,10.8-16.2,16.1
			c-1.1-1.6-2.1-3.3-3.4-4.7c-13.7-13.8-27.5-27.5-41.2-41.4c-1.3-1.4-2.2-3.2-3.3-4.8C383,232.6,415,232.6,447,232.6z"/>
		<path fill="#208BD8" d="M323,363.7c-1.3-1.5-2.5-3.1-3.9-4.5c-40.5-40.5-81-81-121.4-121.5c-1.5-1.5-2.5-3.4-3.7-5.1
			c6.3,0,12.7,0,19,0c1.2,1.7,2.2,3.6,3.7,5.1c37.1,37.2,74.2,74.3,111.3,111.4c1.5,1.5,2.8,3.3,4.2,4.9c-1.4,1.8-2.9,3.6-4.3,5.3
			C326.3,360.8,324.7,362.2,323,363.7z"/>
		<path fill="#CE5F9F" d="M271.1,663.6c-0.4,0.9-0.9,1.9-1.3,2.8c-4.7,4.7-9.3,9.3-14,14c-0.3,0-0.6,0.1-0.8,0.1
			c-8-7.8-16-15.6-23.9-23.4c-11.6-11.5-23.1-23.1-34.7-34.6c-1.4-1.4-3.6-2-5.4-3c0-11.3,0-22.7,0-34c1.7,1.2,3.6,2.2,5.1,3.7
			c23.5,23.5,47,47,70.5,70.5C268,661.1,269.6,662.3,271.1,663.6z"/>
		<path fill="#6875E0" d="M299,232.6c11.3,0,22.7,0,34,0c1.4,2.2,2.4,4.7,4.1,6.5c16.3,16.5,32.8,32.9,49.2,49.3
			c1.4,1.4,2.6,3,3.8,4.5c-1.4,1.8-2.8,3.6-4.3,5.3c-3.9,3.8-7.7,7.6-11.6,11.4c-0.6-0.3-1.2-0.6-1.7-1
			c-23.9-23.9-47.8-47.8-71.7-71.7C299.9,235.9,299.6,234,299,232.6z"/>
		<path fill="#3A82DB" d="M231,232.6c6,0,12,0,18,0c0.9,1.4,1.5,2.9,2.6,4.1c30.9,31.3,61.8,62.5,92.7,93.8c1.7,1.8,3.6,3.4,5.4,5.1
			c-3.3,3.3-6.5,6.6-9.8,9.9c-1.2-1.7-2.3-3.6-3.7-5.1c-33.8-33.9-67.7-67.8-101.6-101.7C233.1,237,232.2,234.6,231,232.6z"/>
		<path fill="#208BD8" d="M255.8,680.4c4.7-4.7,9.3-9.3,14-14c1.3,1.1,2.6,2,3.8,3.2c23.1,23,46.1,46.1,69.1,69.2
			c1.5,1.5,2.2,3.8,3.3,5.7c-9.3,0-18.7,0-28,0c-0.6-1.5-0.9-3.3-1.9-4.3c-19.5-19.6-39.1-39.2-58.6-58.7
			C257,681.1,256.3,680.8,255.8,680.4z"/>
		<path fill="#3085DA" d="M231,232.6c1.2,2,2.1,4.5,3.7,6.1c33.8,33.9,67.7,67.8,101.6,101.7c1.5,1.5,2.5,3.4,3.7,5.1
			c-2.6,2.8-5.2,5.7-7.8,8.5c-1.4-1.6-2.7-3.4-4.2-4.9c-37.1-37.1-74.2-74.2-111.3-111.4c-1.5-1.5-2.5-3.4-3.7-5.1
			C219,232.6,225,232.6,231,232.6z"/>
		<path fill="#447FDC" d="M349.8,335.5c-1.8-1.7-3.7-3.4-5.4-5.1c-30.9-31.2-61.9-62.5-92.7-93.8c-1.1-1.1-1.8-2.7-2.6-4.1
			c5.7,0,11.3,0,17,0c1.2,1.7,2.2,3.6,3.7,5.1c28.1,28.2,56.3,56.4,84.5,84.6c1.4,1.4,2.6,3,3.9,4.5c-0.9,1.2-1.8,2.4-2.7,3.6
			C353.5,332.1,351.6,333.8,349.8,335.5z"/>
		<path fill="#0194D4" d="M229.8,706.4c11.3,11.1,22.7,22.2,33.9,33.4c1.3,1.3,2.2,3.1,3.3,4.7c-25,0-50,0-75,0
			c1.1-1.4,2.2-2.8,3.5-4.1c10.8-11,21.6-21.9,32.5-32.9C228.5,707.2,229.1,706.8,229.8,706.4z"/>
		<path fill="#507CDD" d="M358.1,326.8c-1.3-1.5-2.5-3.1-3.9-4.5c-28.2-28.2-56.4-56.4-84.5-84.6c-1.5-1.5-2.5-3.4-3.7-5.1
			c5.3,0,10.7,0,16,0c1.2,1.7,2.2,3.6,3.7,5.1c25.5,25.6,51.1,51.2,76.6,76.7c1.3,1.3,2.4,2.7,3.7,4.1
			C363.3,321.2,360.7,324,358.1,326.8z"/>
		<path fill="#C558BB" d="M227.9,707.6c-10.8,11-21.7,21.9-32.5,32.9c-1.3,1.3-2.3,2.7-3.5,4.1c-0.3-1.3-1-2.7-1-4
			c-0.1-22.3,0-44.7,0-67c1.6,1.1,3.4,2,4.7,3.3c9.3,9.2,18.5,18.5,27.8,27.7C224.8,705.8,226.5,706.6,227.9,707.6z"/>
		<path fill="#5C78DE" d="M366,318.5c-1.2-1.4-2.4-2.8-3.7-4.1c-25.5-25.6-51.1-51.1-76.6-76.7c-1.5-1.5-2.5-3.4-3.7-5.1
			c5.7,0,11.3,0,17,0c0.6,1.5,0.9,3.3,1.9,4.3c23.8,24,47.7,47.8,71.7,71.7c0.5,0.5,1.1,0.7,1.7,1
			C371.5,312.6,368.7,315.5,366,318.5z"/>
		<path fill="#7571E1" d="M390.1,292.9c-1.3-1.5-2.4-3.1-3.8-4.5c-16.4-16.4-32.9-32.8-49.2-49.3c-1.8-1.8-2.8-4.3-4.1-6.5
			c6,0,12,0,18,0c1.1,1.6,2,3.4,3.3,4.8c13.7,13.8,27.5,27.5,41.2,41.4c1.4,1.4,2.3,3.1,3.4,4.7C396,286.6,393.1,289.8,390.1,292.9z
			"/>
		<path fill="#F48613" d="M390.1,292.9c3-3.2,5.9-6.4,8.9-9.6c5.4-5.4,10.8-10.8,16.2-16.1c1.8,1.5,3.7,2.8,5.3,4.4
			c39,39,78,78,117,116.9c1.5,1.5,3.3,2.8,4.9,4.2c-11.1,11.1-22.2,22.2-33.2,33.3c-1.4-1.6-2.7-3.4-4.2-4.9
			c-38.5-38.5-77.1-77-115.5-115.7c-1.8-1.8-2.5-4.7-3.6-7.2C387.3,296.5,388.7,294.7,390.1,292.9z"/>
		<path fill="#EE7F2B" d="M349.8,335.5c1.9-1.7,3.7-3.5,5.6-5.2c1.5,1.2,3.2,2.3,4.6,3.7c38.9,38.9,77.9,77.8,116.8,116.8
			c1.3,1.3,2.3,2.8,3.4,4.2c-9.7,9.5-19.4,19.1-29.1,28.6c-0.8-0.6-1.7-1.1-2.3-1.8c-39.5-39.4-78.9-78.9-118.3-118.4
			c-1.1-1.1-1.7-2.7-2.5-4.1c1.4-1.8,2.9-3.6,4.3-5.3c2.6-2.8,5.2-5.7,7.8-8.5C343.3,342.2,346.5,338.8,349.8,335.5z"/>
		<path fill="#F1821E" d="M480.2,455c-1.1-1.4-2.2-2.9-3.4-4.2C437.8,411.9,398.9,373,360,334.1c-1.4-1.4-3.1-2.5-4.6-3.7
			c0.9-1.2,1.8-2.4,2.7-3.6c2.6-2.8,5.3-5.5,7.9-8.3c2.8-2.9,5.5-5.9,8.3-8.8c3.9-3.8,7.7-7.6,11.6-11.4c1.2,2.4,1.8,5.4,3.6,7.2
			c38.4,38.6,77,77.1,115.5,115.7c1.5,1.5,2.8,3.3,4.2,4.9C499.5,435.7,489.8,445.4,480.2,455z"/>
		<path fill="#EA7B39" d="M327.9,359.3c0.8,1.4,1.4,3,2.5,4.1c39.4,39.5,78.9,78.9,118.3,118.4c0.7,0.7,1.6,1.2,2.3,1.8
			c-1.1,1.5-2.2,3.1-3.3,4.6c-7,6.8-14,13.5-21,20.3c-0.6-0.5-1.3-1-1.9-1.6c-39.5-39.4-78.9-78.9-118.3-118.4
			c-1.1-1.1-1.7-2.7-2.6-4.1c2.9-3.3,5.7-6.5,8.6-9.8c3.5-3.7,7-7.4,10.5-11.1C324.7,362.2,326.3,360.8,327.9,359.3z"/>
		<path fill="#E77844" d="M304,384.5c0.9,1.4,1.5,3,2.6,4.1c39.4,39.5,78.9,78.9,118.3,118.4c0.6,0.6,1.3,1,1.9,1.6
			c-0.7,1-1.4,2-2.1,2.9c-5.7,5.4-11.3,10.7-17,16.1c-1.9-1.2-4.1-2-5.6-3.5c-38-37.9-75.9-75.8-113.8-113.7c-1.5-1.5-3.3-2.7-5-4.1
			C290.2,399,297.1,391.8,304,384.5z"/>
		<path fill="#E17358" d="M374.7,561.5c-2.3,2-4.6,4.1-6.8,6.1c-0.8-0.6-1.6-1.2-2.3-1.9c-39.1-39.1-78.3-78.2-117.4-117.4
			c-0.8-0.8-1.5-1.8-2.2-2.7c6.7-7,13.3-14,20-21c1,1.5,1.7,3.2,2.9,4.4c38.3,38.3,76.5,76.6,114.9,114.9c1.3,1.3,3.3,1.9,5,2.8
			C384.1,551.5,379.4,556.5,374.7,561.5z"/>
		<path fill="#E4764E" d="M388.8,546.6c-1.7-0.9-3.7-1.5-5-2.8c-38.4-38.2-76.6-76.5-114.9-114.9c-1.2-1.2-2-2.9-2.9-4.4
			c5.8-6.1,11.5-12.2,17.3-18.3c1.7,1.4,3.5,2.6,5,4.1C326.1,448.2,364,486.2,402,524c1.5,1.5,3.8,2.4,5.6,3.5c-3,3.3-6,6.6-9,9.9
			C395.4,540.5,392.1,543.5,388.8,546.6z"/>
		<path fill="#DE7064" d="M246,445.6c0.7,0.9,1.4,1.9,2.2,2.7c39.1,39.1,78.2,78.3,117.4,117.4c0.7,0.7,1.5,1.3,2.3,1.9
			c-5.4,5.6-10.8,11.3-16.1,16.9c-0.3,0-0.6,0.1-0.9,0.1c-1.7-1.2-3.6-2.3-5.1-3.8c-37.8-37.7-75.5-75.4-113.2-113.2
			c-1.3-1.3-2.4-2.7-3.6-4.1C234.6,457.5,240.3,451.5,246,445.6z"/>
		<path fill="#DB6D6E" d="M229,463.5c1.2,1.4,2.3,2.8,3.6,4.1c37.7,37.8,75.5,75.5,113.2,113.2c1.5,1.5,3.4,2.5,5.1,3.8
			c-5.6,5.4-11.2,10.7-16.8,16.1c-1.7-1.2-3.7-2.2-5.1-3.6c-37.5-37.5-75-74.9-112.5-112.5c-1.3-1.3-2.4-2.7-3.6-4.1
			C218.3,474.8,223.6,469.2,229,463.5z"/>
		<path fill="#D86A78" d="M212.9,480.4c1.2,1.4,2.3,2.8,3.6,4.1c37.5,37.5,75,75,112.5,112.5c1.5,1.5,3.4,2.4,5.1,3.6
			c-0.5,0.9-0.9,1.9-1.4,2.8c-4.6,4.4-9.2,8.7-13.9,13.1c-1.4-1.2-2.8-2.4-4.1-3.7c-37-37-74-73.9-110.9-110.9c-2-2-3.4-4.4-5.1-6.7
			C203.5,490.3,208.2,485.4,212.9,480.4z"/>
	</g>
</g>
</svg>
