<?xml version="1.0" encoding="utf-8"?>
<!-- Generator: Adobe Illustrator 22.0.1, SVG Export Plug-In . SVG Version: 6.00 Build 0)  -->
<svg version="1.0" id="Ebene_1" xmlns="http://www.w3.org/2000/svg" xmlns:xlink="http://www.w3.org/1999/xlink" x="0px" y="0px"
	 viewBox="0 0 1138.1 280" enable-background="new 0 0 1138.1 280" xml:space="preserve">
<g>
	<path fill="#5E5E5E" d="M168.6,103.4h-17.8v-3.9h39.9v3.9H173V155h-4.4V103.4z"/>
	<path fill="#5E5E5E" d="M198.2,97.3h4.4v21.9c2.2-1.5,4.6-2.8,7.3-3.7c2.7-1,5.4-1.5,8.1-1.5c4,0,7.1,1.3,9.2,3.8
		c2.2,2.5,3.3,5.7,3.3,9.5V155H226v-27.3c0-2.8-0.8-5.1-2.5-6.9c-1.7-1.8-3.9-2.8-6.8-2.8c-2.7,0-5,0.3-7.1,1s-4.4,1.8-7.1,3.2V155
		h-4.4V97.3z"/>
	<path fill="#5E5E5E" d="M242.7,152.8c-1.9-1.8-2.8-4.2-2.8-7.4v-2.7c0-3.3,1.1-5.9,3.2-7.8c2.1-1.9,5.2-2.9,9.2-2.9h14.7v-5.6
		c0-2.9-0.8-5.1-2.4-6.6c-1.6-1.5-4.5-2.2-8.6-2.2h-12.6V115c4.9-0.7,9.6-1,14.1-1c4.8,0,8.3,1,10.5,3c2.2,2,3.3,5.1,3.3,9.2V155
		h-3.3l-0.9-4.7c-0.4,0.3-1.5,0.8-3.5,1.7c-2,0.9-4.2,1.7-6.7,2.4c-2.5,0.7-4.8,1.1-7,1.1C247.1,155.4,244.6,154.5,242.7,152.8z
		 M257.6,151.1c2.2-0.6,4.2-1.2,6-1.8c1.8-0.6,2.9-1,3.5-1.2v-13.7l-14.1,0.5c-3,0.1-5.2,0.9-6.6,2.3c-1.4,1.4-2.1,3.3-2.1,5.6v1.9
		c0,2.6,0.8,4.4,2.3,5.6c1.5,1.2,3.3,1.7,5.4,1.7C253.5,152,255.4,151.7,257.6,151.1z"/>
	<path fill="#5E5E5E" d="M283.5,114.7h3.3l1.1,4.5c2.2-1.5,4.7-2.8,7.3-3.7c2.7-1,5.3-1.5,8-1.5c4,0,7.1,1.3,9.3,3.9
		c2.1,2.6,3.2,5.7,3.2,9.5V155h-4.4v-27.2c0-2.8-0.8-5.2-2.5-7c-1.7-1.8-3.9-2.8-6.8-2.8c-2.7,0-5,0.3-7.1,1c-2,0.7-4.4,1.8-7.1,3.2
		V155h-4.4V114.7z"/>
	<path fill="#5E5E5E" d="M327.9,97.3h4.4v34.1h6.1l13.4-16.7h4.8l-15,18.8l15.8,21.6h-4.8l-14.4-19.7h-5.8V155h-4.4V97.3z"/>
	<path fill="#5E5E5E" d="M401.5,155c-1.9,0-3.8-0.7-5.6-2c-1.8-1.3-3.3-3.6-4.3-7l-10.3-31.3h4.6l9.8,30.3c1.4,4.1,3.7,6.1,6.8,6.1
		l11.3-36.5h4.5l-15.6,50.7l-3.5,7.5h-3.2L401.5,155z"/>
	<path fill="#5E5E5E" d="M432,153.7c-2.4-1.1-4.3-3.2-5.6-6.2c-1.3-3-1.9-7.2-1.9-12.7c0-5.6,0.6-9.9,1.9-12.9c1.3-3,3.1-5,5.5-6.1
		c2.4-1.1,5.6-1.6,9.7-1.6c4,0,7.3,0.6,9.7,1.7c2.4,1.1,4.3,3.2,5.6,6.1c1.3,3,1.9,7.2,1.9,12.8c0,5.5-0.6,9.8-1.9,12.8
		c-1.3,3-3.1,5-5.6,6.2c-2.4,1.1-5.7,1.7-9.7,1.7C437.7,155.4,434.5,154.9,432,153.7z M448.9,150.5c1.8-0.8,3.2-2.4,4.1-4.8
		c1-2.4,1.4-6.1,1.4-10.9c0-4.8-0.5-8.5-1.4-10.9c-1-2.4-2.3-4.1-4.1-4.8c-1.8-0.8-4.2-1.2-7.2-1.2c-3.1,0-5.5,0.4-7.3,1.2
		c-1.8,0.8-3.1,2.4-4,4.8c-0.9,2.4-1.4,6.1-1.4,10.9c0,4.8,0.5,8.5,1.4,10.9c0.9,2.4,2.3,4,4,4.8c1.8,0.8,4.2,1.2,7.3,1.2
		C444.7,151.7,447.1,151.3,448.9,150.5z"/>
	<path fill="#5E5E5E" d="M469.7,143v-28.4h4.4v27.4c0,3.5,0.8,6,2.3,7.4s4,2.1,7.3,2.1c2.5,0,4.8-0.3,6.9-1c2.1-0.7,4.4-1.7,6.8-3.1
		v-32.7h4.4V155h-3.3l-1.1-4.5c-2.3,1.5-4.8,2.7-7.4,3.6c-2.7,0.9-5.4,1.4-8.2,1.4C473.7,155.4,469.7,151.3,469.7,143z"/>
	<path fill="#5E5E5E" d="M536.8,118.4h-6.4v-2.9l6.4-0.8v-5.2c0-4.3,0.8-7.5,2.4-9.5c1.6-2.1,4.4-3.1,8.6-3.1c2.4,0,4.9,0.2,7.6,0.6
		v3.1h-6.9c-2.9,0-4.8,0.7-5.8,2c-1,1.4-1.5,3.6-1.5,6.7v5.4h13.2v3.7h-13.2V155h-4.4V118.4z"/>
	<path fill="#5E5E5E" d="M568,153.7c-2.4-1.1-4.3-3.2-5.6-6.2c-1.3-3-1.9-7.2-1.9-12.7c0-5.6,0.6-9.9,1.9-12.9c1.3-3,3.1-5,5.5-6.1
		c2.4-1.1,5.6-1.6,9.7-1.6c4,0,7.3,0.6,9.7,1.7c2.4,1.1,4.3,3.2,5.6,6.1c1.3,3,1.9,7.2,1.9,12.8c0,5.5-0.6,9.8-1.9,12.8
		c-1.3,3-3.1,5-5.6,6.2c-2.4,1.1-5.7,1.7-9.7,1.7C573.6,155.4,570.4,154.9,568,153.7z M584.8,150.5c1.8-0.8,3.2-2.4,4.1-4.8
		c1-2.4,1.4-6.1,1.4-10.9c0-4.8-0.5-8.5-1.4-10.9c-1-2.4-2.3-4.1-4.1-4.8c-1.8-0.8-4.2-1.2-7.2-1.2c-3.1,0-5.5,0.4-7.3,1.2
		c-1.8,0.8-3.1,2.4-4,4.8c-0.9,2.4-1.4,6.1-1.4,10.9c0,4.8,0.5,8.5,1.4,10.9c0.9,2.4,2.3,4,4,4.8c1.8,0.8,4.2,1.2,7.3,1.2
		C580.6,151.7,583,151.3,584.8,150.5z"/>
	<path fill="#5E5E5E" d="M605.7,114.7h3.3l1.1,7.3c2.1-2.4,4.3-4.3,6.7-5.7c2.3-1.4,5-2,7.8-2c1.6,0,2.9,0.2,3.9,0.5v4.5
		c-1.7-0.3-3.2-0.5-4.3-0.5c-2.8,0-5.2,0.5-7.3,1.6c-2.1,1-4.4,2.7-6.9,5.1V155h-4.4V114.7z"/>
	<path fill="#5E5E5E" d="M673,155c-1.9,0-3.8-0.7-5.6-2c-1.8-1.3-3.3-3.6-4.3-7l-10.3-31.3h4.6l9.8,30.3c1.4,4.1,3.7,6.1,6.8,6.1
		l11.3-36.5h4.5l-15.6,50.7l-3.5,7.5h-3.2L673,155z"/>
	<path fill="#5E5E5E" d="M703.6,153.7c-2.4-1.1-4.3-3.2-5.6-6.2c-1.3-3-1.9-7.2-1.9-12.7c0-5.6,0.6-9.9,1.9-12.9
		c1.3-3,3.1-5,5.5-6.1c2.4-1.1,5.6-1.6,9.7-1.6c4,0,7.3,0.6,9.7,1.7c2.4,1.1,4.3,3.2,5.6,6.1c1.3,3,1.9,7.2,1.9,12.8
		c0,5.5-0.6,9.8-1.9,12.8c-1.3,3-3.1,5-5.6,6.2c-2.4,1.1-5.7,1.7-9.7,1.7C709.2,155.4,706,154.9,703.6,153.7z M720.4,150.5
		c1.8-0.8,3.2-2.4,4.1-4.8c1-2.4,1.4-6.1,1.4-10.9c0-4.8-0.5-8.5-1.4-10.9c-1-2.4-2.3-4.1-4.1-4.8c-1.8-0.8-4.2-1.2-7.2-1.2
		c-3.1,0-5.5,0.4-7.3,1.2c-1.8,0.8-3.1,2.4-4,4.8c-0.9,2.4-1.4,6.1-1.4,10.9c0,4.8,0.5,8.5,1.4,10.9c0.9,2.4,2.3,4,4,4.8
		c1.8,0.8,4.2,1.2,7.3,1.2C716.2,151.7,718.6,151.3,720.4,150.5z"/>
	<path fill="#5E5E5E" d="M741.2,143v-28.4h4.4v27.4c0,3.5,0.8,6,2.3,7.4c1.6,1.4,4,2.1,7.3,2.1c2.5,0,4.8-0.3,6.9-1
		c2.1-0.7,4.4-1.7,6.8-3.1v-32.7h4.4V155h-3.3l-1.1-4.5c-2.3,1.5-4.8,2.7-7.5,3.6c-2.7,0.9-5.4,1.4-8.2,1.4
		C745.2,155.4,741.2,151.3,741.2,143z"/>
	<path fill="#5E5E5E" d="M785.6,114.7h3.3l1.1,7.3c2.1-2.4,4.3-4.3,6.7-5.7c2.3-1.4,5-2,7.8-2c1.6,0,2.9,0.2,3.9,0.5v4.5
		c-1.7-0.3-3.2-0.5-4.3-0.5c-2.8,0-5.2,0.5-7.3,1.6c-2.1,1-4.4,2.7-6.9,5.1V155h-4.4V114.7z"/>
	<path fill="#5E5E5E" d="M837.5,152.8c-1.9-1.8-2.8-4.2-2.8-7.4v-2.7c0-3.3,1.1-5.9,3.2-7.8c2.1-1.9,5.2-2.9,9.2-2.9h14.7v-5.6
		c0-2.9-0.8-5.1-2.4-6.6c-1.6-1.5-4.5-2.2-8.6-2.2h-12.6V115c4.9-0.7,9.6-1,14.1-1c4.8,0,8.3,1,10.5,3c2.2,2,3.3,5.1,3.3,9.2V155
		h-3.3l-0.9-4.7c-0.4,0.3-1.5,0.8-3.5,1.7c-2,0.9-4.2,1.7-6.7,2.4s-4.8,1.1-7,1.1C841.9,155.4,839.4,154.5,837.5,152.8z
		 M852.4,151.1c2.2-0.6,4.2-1.2,6-1.8c1.8-0.6,2.9-1,3.5-1.2v-13.7l-14.1,0.5c-3,0.1-5.2,0.9-6.6,2.3c-1.4,1.4-2.1,3.3-2.1,5.6v1.9
		c0,2.6,0.8,4.4,2.3,5.6c1.5,1.2,3.3,1.7,5.4,1.7C848.3,152,850.1,151.7,852.4,151.1z"/>
	<path fill="#5E5E5E" d="M882.7,152c-1.8-2-2.7-5.2-2.6-9.6l0.2-24h-6.4v-2.9l6.4-0.8l0.8-11.3h3.3v11.3h12.3v3.7h-12.3v24
		c0,3.4,0.6,5.7,1.9,7c1.3,1.2,2.9,1.9,4.8,2l4.9,0.5v3.2H891C887.3,155,884.5,154,882.7,152z"/>
	<path fill="#5E5E5E" d="M910,152c-1.8-2-2.7-5.2-2.6-9.6l0.2-24h-6.4v-2.9l6.4-0.8l0.8-11.3h3.3v11.3H924v3.7h-12.3v24
		c0,3.4,0.6,5.7,1.9,7c1.3,1.2,2.9,1.9,4.8,2l4.9,0.5v3.2h-5.1C914.6,155,911.8,154,910,152z"/>
	<path fill="#5E5E5E" d="M937.9,153.5c-2.3-1.3-4-3.4-5-6.4c-1-3-1.5-7.1-1.5-12.4c0-5.3,0.5-9.5,1.6-12.4s2.8-5,5.2-6.2
		c2.4-1.2,5.7-1.8,9.9-1.8c3.5,0,6.4,0.4,8.5,1.2c2.2,0.8,3.8,2.2,4.8,4.1c1.1,1.9,1.6,4.5,1.6,7.9c0,3.3-0.9,5.7-2.8,7.1
		s-4.6,2.2-8.2,2.2h-16.2c0,3.9,0.4,6.9,1.1,9c0.7,2.1,2,3.7,3.8,4.7c1.8,1,4.5,1.5,8.1,1.5h13.3v2.6c-5,0.6-9.8,0.8-14.3,0.8
		C943.6,155.4,940.3,154.8,937.9,153.5z M951.7,133.7c2.6,0,4.4-0.5,5.6-1.4c1.2-0.9,1.7-2.5,1.7-4.9c0-2.5-0.4-4.5-1.1-5.9
		c-0.7-1.4-1.8-2.4-3.4-3c-1.6-0.6-3.7-0.9-6.5-0.9c-3.3,0-5.8,0.5-7.5,1.4c-1.7,0.9-3,2.5-3.7,4.8c-0.7,2.3-1.1,5.5-1.1,9.8H951.7z
		"/>
	<path fill="#5E5E5E" d="M973.9,114.7h3.3l1.1,4.5c2.2-1.5,4.7-2.8,7.3-3.7c2.7-1,5.3-1.5,8-1.5c4,0,7.1,1.3,9.3,3.9
		c2.1,2.6,3.2,5.7,3.2,9.5V155h-4.4v-27.2c0-2.8-0.8-5.2-2.5-7c-1.7-1.8-3.9-2.8-6.8-2.8c-2.7,0-5,0.3-7.1,1s-4.4,1.8-7.1,3.2V155
		h-4.4V114.7z"/>
	<path fill="#5E5E5E" d="M1022.6,152c-1.8-2-2.7-5.2-2.6-9.6l0.2-24h-6.4v-2.9l6.4-0.8l0.8-11.3h3.3v11.3h12.3v3.7h-12.3v24
		c0,3.4,0.6,5.7,1.9,7c1.3,1.2,2.9,1.9,4.8,2l4.9,0.5v3.2h-5.1C1027.2,155,1024.4,154,1022.6,152z"/>
	<path fill="#5E5E5E" d="M1045.5,106.8c-0.2-0.2-0.3-0.5-0.3-0.8v-5.4c0-0.8,0.4-1.1,1.1-1.1h3c0.7,0,1,0.4,1,1.1v5.4
		c0,0.8-0.3,1.1-1,1.1h-3C1045.9,107.1,1045.7,107,1045.5,106.8z M1045.5,114.7h4.4V155h-4.4V114.7z"/>
	<path fill="#5E5E5E" d="M1068.2,153.7c-2.4-1.1-4.3-3.2-5.6-6.2c-1.3-3-1.9-7.2-1.9-12.7c0-5.6,0.6-9.9,1.9-12.9
		c1.3-3,3.1-5,5.5-6.1c2.4-1.1,5.6-1.6,9.7-1.6c4,0,7.3,0.6,9.7,1.7c2.4,1.1,4.3,3.2,5.6,6.1c1.3,3,1.9,7.2,1.9,12.8
		c0,5.5-0.6,9.8-1.9,12.8c-1.3,3-3.1,5-5.6,6.2c-2.4,1.1-5.7,1.7-9.7,1.7C1073.8,155.4,1070.6,154.9,1068.2,153.7z M1085,150.5
		c1.8-0.8,3.2-2.4,4.1-4.8c1-2.4,1.4-6.1,1.4-10.9c0-4.8-0.5-8.5-1.4-10.9c-1-2.4-2.3-4.1-4.1-4.8c-1.8-0.8-4.2-1.2-7.2-1.2
		c-3.1,0-5.5,0.4-7.3,1.2c-1.8,0.8-3.1,2.4-4,4.8c-0.9,2.4-1.4,6.1-1.4,10.9c0,4.8,0.5,8.5,1.4,10.9c0.9,2.4,2.3,4,4,4.8
		c1.8,0.8,4.2,1.2,7.3,1.2C1080.8,151.7,1083.3,151.3,1085,150.5z"/>
	<path fill="#5E5E5E" d="M1105.9,114.7h3.3l1.1,4.5c2.2-1.5,4.7-2.8,7.3-3.7c2.7-1,5.3-1.5,8-1.5c4,0,7.1,1.3,9.3,3.9
		c2.1,2.6,3.2,5.7,3.2,9.5V155h-4.4v-27.2c0-2.8-0.8-5.2-2.5-7c-1.7-1.8-3.9-2.8-6.8-2.8c-2.7,0-5,0.3-7.1,1s-4.4,1.8-7.1,3.2V155
		h-4.4V114.7z"/>
</g>
<g>
	<g>
		<g>
			<path fill="#4C4C4C" d="M7.6,33.4c-0.2,0-0.4-0.1-0.6-0.2c-0.2-0.1-4-3.7-5.9-9.4C-0.7,18.4-1.2,10.2,7,1.1l1-1.1l0.5,1.4
				C13.8,14.6,21.3,29.7,32.2,29c0.5,0,0.9,0.4,1,0.9c0,0.5-0.4,0.9-0.9,1c-0.3,0-0.5,0-0.8,0c-11.3,0-18.8-14.3-24.2-27.4
				C2.1,9.9,0.5,16.5,2.8,23.2c1.8,5.3,5.4,8.6,5.5,8.6c0.4,0.3,0.4,0.9,0.1,1.3C8.1,33.3,7.9,33.4,7.6,33.4z"/>
		</g>
		<g>
			<path fill="#4C4C4C" d="M181.5,33.4c-0.2,0-0.5-0.1-0.7-0.3c-0.3-0.4-0.3-0.9,0.1-1.3c0,0,3.7-3.4,5.5-8.7
				c2.2-6.6,0.7-13.3-4.6-19.7c-5.4,13.1-12.9,27.4-24.2,27.4c-0.3,0-0.5,0-0.8,0c-0.5,0-0.9-0.5-0.9-1c0-0.5,0.5-0.9,1-0.9
				c11,0.6,18.4-14.4,23.7-27.7l0.5-1.4l1,1.1c8.1,9.1,7.7,17.4,5.9,22.7c-2,5.7-5.8,9.2-5.9,9.4C181.9,33.3,181.7,33.4,181.5,33.4z
				"/>
		</g>
		<g>
			<path fill="#515050" d="M199.2,264.7c-1.9,0-2.8-0.7-3-0.9c-0.2-0.2-0.3-0.5-0.3-0.7c0-0.3,0.2-0.5,0.4-0.7
				c0.3-0.2,29.7-20.1,26.8-42.2c-1.5-11.5-4.2-21-21.5-20.2c-7.3,0.3-19.4,6.7-19.5,6.8c-0.4,0.2-1,0.1-1.2-0.4
				c-0.2-0.4-0.1-1,0.4-1.2c0.5-0.3,12.6-6.6,20.3-7c8.6-0.4,14.6,1.7,18.4,6.4c3.3,4.3,4.3,9.9,5,15.3c1.3,9.6-3.1,20.3-12.7,30.8
				c-5.3,5.8-10.8,10.1-13.4,12c2.2,0.2,7-0.8,15.9-8.7c5.8-5.2,24.1-24.3,13.5-50.4c-2.7-6.5-7.1-10.8-13.2-12.7
				c-19.5-6.1-50,13.7-50.3,13.9c-0.4,0.3-1,0.2-1.3-0.3c-0.3-0.4-0.2-1,0.3-1.3c0.1-0.1,7.9-5.2,18.1-9.4
				c13.8-5.8,25.1-7.3,33.7-4.7c6.6,2.1,11.4,6.7,14.3,13.8c11,27.1-7.9,47-14,52.4C207.3,263.1,202.1,264.7,199.2,264.7z"/>
		</g>
		<g>
			<path fill="#515050" d="M175.8,280c-0.3,0-0.6-0.1-0.7-0.4c-0.2-0.3-0.2-0.7,0-1l21.4-31.5c0.2-0.3,0.7-0.5,1.1-0.3
				c0.4,0.2,0.6,0.6,0.6,1l-2.2,15.2c-0.1,0.5-0.5,0.8-1,0.8c-0.5-0.1-0.8-0.5-0.8-1l1.6-11.3l-17.8,26.3l37.8-9.8l-20.5-2.3
				c-0.5-0.1-0.9-0.5-0.8-1c0.1-0.5,0.5-0.9,1-0.8l25.3,2.9c0.4,0,0.8,0.4,0.8,0.8c0,0.4-0.3,0.8-0.7,0.9L176,280
				C175.9,280,175.8,280,175.8,280z"/>
		</g>
		<g>
			<path fill="#4C4C4C" d="M4.2,36.8c-0.3,0-0.7-0.2-0.8-0.5l-2.5-5.1c-0.2-0.4-0.1-0.8,0.2-1.1c0.3-0.3,0.7-0.3,1.1-0.1l7.3,4
				l3.9-4.5c0.3-0.3,0.8-0.4,1.2-0.2l4.5,2.9l3.1-2.5c0.3-0.3,0.8-0.3,1.1,0l4.5,3.2l7.4-6.1c0.2-0.2,0.6-0.3,0.9-0.2
				c0.3,0.1,0.5,0.4,0.6,0.7l1.1,5.4c0.1,0.5-0.2,1-0.7,1.1c-0.5,0.1-1-0.2-1.1-0.7l-0.8-4l-6.8,5.6c-0.3,0.3-0.8,0.3-1.1,0
				l-4.5-3.2l-3.1,2.5c-0.3,0.2-0.7,0.3-1.1,0.1l-4.4-2.8l-3.8,4.5C10,36.1,9.6,36.2,9.2,36l-5.4-3L5,35.5c0.2,0.4,0,1-0.4,1.2
				C4.5,36.8,4.3,36.8,4.2,36.8z"/>
		</g>
		<g>
			<path fill="#4C4C4C" d="M188.8,37.2c-0.1,0-0.1,0-0.2,0c-0.5-0.1-0.8-0.6-0.7-1.1l1.1-4.5l-12.1,4.8c-0.3,0.1-0.7,0.1-1-0.2
				c-0.3-0.3-0.3-0.6-0.2-1l1.7-4.1l-7.7,3.4c-0.3,0.2-0.7,0.1-1-0.2c-0.3-0.3-0.3-0.7-0.2-1l1.9-4.4l-9.6,5.5c-0.3,0.2-0.7,0.2-1,0
				L148,26.3l2.8,5.9c0.2,0.5,0,1-0.4,1.2c-0.5,0.2-1,0-1.2-0.4l-4.3-9c-0.2-0.4-0.1-0.8,0.2-1.1c0.3-0.3,0.8-0.3,1.1-0.1l14,9.8
				l11.4-6.6c0.3-0.2,0.8-0.2,1.1,0.1c0.3,0.3,0.4,0.7,0.2,1l-2,4.8l7.7-3.4c0.3-0.2,0.7-0.1,1,0.2c0.3,0.3,0.3,0.7,0.2,1l-1.7,4.2
				l11.8-4.6c0.3-0.1,0.7-0.1,0.9,0.2c0.3,0.2,0.4,0.6,0.3,0.9l-1.4,6.2C189.6,36.9,189.2,37.2,188.8,37.2z"/>
		</g>
		<g>
			<path fill="#0194D4" d="M3.6,137.1c0-29.8,0-59.6,0-89.4c0.6,0.4,1.3,0.8,1.8,1.3C19,62.5,32.4,75.9,45.9,89.4
				c0.5,0.5,1.2,1,1.8,1.5c-1,1.2-2.1,2.4-3.1,3.5c-2.5,2.6-5,5.2-7.5,7.9c-2.1,2.2-4.2,4.4-6.2,6.6c-2.4,2.5-4.8,5.1-7.2,7.6
				c-2.1,2.2-4.1,4.3-6.2,6.5c-2,2.1-4.1,4.3-6.1,6.4c-1.6,1.7-3.2,3.4-4.8,5.1C5.5,135.4,4.6,136.2,3.6,137.1z"/>
			<path fill="#7571E1" d="M171.9,224.7c-6.6,0-13.3,0-19.9,0c-0.4-0.7-0.7-1.6-1.3-2.2c-23.5-23.6-47.1-47.1-70.7-70.7
				c-0.5-0.5-1-1.2-1.5-1.8c1.2-1.3,2.4-2.6,3.5-3.9c2.1-2,4.1-3.9,6.2-5.9c0.5,0.6,1,1.2,1.5,1.8c26.9,26.9,53.8,53.8,80.7,80.7
				C171.1,223.3,171.5,224,171.9,224.7z"/>
			<path fill="#7E6FE2" d="M171.9,224.7c-0.5-0.7-0.9-1.4-1.5-2c-26.9-26.9-53.8-53.8-80.7-80.7c-0.5-0.5-1-1.2-1.5-1.8
				c0.2-0.3,0.5-0.7,0.7-1c2.5-2.4,5.1-4.9,7.6-7.3c0.5,0.5,1.1,0.9,1.6,1.4c12.8,12.9,25.7,25.8,38.5,38.7
				c17.4,17.5,34.8,35.1,52.2,52.6C183.3,224.7,177.6,224.7,171.9,224.7z"/>
			<path fill="#6775DF" d="M78.5,150c0.5,0.6,1,1.2,1.5,1.8c23.6,23.6,47.1,47.1,70.7,70.7c0.6,0.6,0.9,1.5,1.3,2.2
				c-6.2,0-12.3,0-18.5,0c-0.7-1-1.2-2.1-2-2.9c-20.3-20.4-40.7-40.7-61-61c-0.5-0.5-1-0.8-1.5-1.3c2.1-2.2,4.1-4.3,6.2-6.5
				C76.3,152,77.4,151,78.5,150z"/>
			<path fill="#5A79DE" d="M69,159.5c0.5,0.4,1,0.8,1.5,1.3c20.3,20.3,40.7,40.7,61,61c0.8,0.8,1.4,1.9,2,2.9c-5.4,0-10.9,0-16.3,0
				c-0.4-0.7-0.7-1.6-1.3-2.2c-17.7-17.8-35.5-35.5-53.3-53.3c-0.5-0.5-1-1.2-1.5-1.8c0.1-0.2,0.2-0.4,0.3-0.6
				c2.1-2.1,4.1-4.1,6.2-6.2C68.1,160.3,68.6,159.9,69,159.5z"/>
			<path fill="#4F7CDD" d="M61.1,167.4c0.5,0.6,1,1.2,1.5,1.8c17.8,17.8,35.5,35.5,53.3,53.3c0.6,0.6,0.9,1.5,1.3,2.2
				c-4.1,0-8.2,0-12.3,0c-0.4-0.7-0.7-1.6-1.3-2.2c-15.7-15.7-31.4-31.4-47.1-47.2c-0.5-0.5-1-1.2-1.5-1.8c0.1-0.3,0.3-0.6,0.4-1
				C57.3,170.9,59.2,169.2,61.1,167.4z"/>
			<path fill="#447FDC" d="M55,173.6c0.5,0.6,1,1.2,1.5,1.8c15.7,15.7,31.4,31.4,47.1,47.2c0.6,0.6,0.9,1.5,1.3,2.2
				c-3.7,0-7.5,0-11.2,0c-0.4-0.6-0.8-1.3-1.3-1.9c-13.9-14-27.9-27.9-41.8-41.9c-0.5-0.5-0.9-1.1-1.4-1.6c0.2-0.3,0.5-0.7,0.7-1
				C51.6,176.8,53.3,175.2,55,173.6z"/>
			<path fill="#3A82DB" d="M49.2,179.4c0.5,0.5,0.9,1.1,1.4,1.6c13.9,14,27.9,27.9,41.8,41.9c0.5,0.5,0.9,1.2,1.3,1.9
				c-3.7,0-7.5,0-11.2,0c-0.4-0.6-0.8-1.3-1.3-1.8c-12.1-12.1-24.2-24.3-36.4-36.4c-0.5-0.5-1-0.9-1.5-1.3c0.6-0.7,1.2-1.4,1.8-2.1
				C46.5,181.8,47.9,180.6,49.2,179.4z"/>
			<path fill="#D16292" d="M3.6,166.4c0-4.3,0-8.7,0-13c0.6,0.4,1.3,0.8,1.8,1.3c10.8,10.8,21.6,21.6,32.5,32.4
				c0.5,0.5,1.2,0.9,1.8,1.4c-0.6,0.7-1.2,1.4-1.8,2.1c-1.6,1.5-3.1,2.9-4.7,4.4c-0.6-0.4-1.2-0.7-1.7-1.2
				c-8.7-8.7-17.4-17.4-26.1-26C5,167.2,4.3,166.9,3.6,166.4z"/>
			<path fill="#D66780" d="M49.2,179.4c-1.3,1.2-2.7,2.5-4,3.7c-0.6-0.5-1.3-0.8-1.8-1.4c-12.6-12.6-25.2-25.2-37.9-37.8
				c-0.5-0.5-1.2-0.9-1.9-1.3c0-1.8,0-3.6,0-5.4c0.9-0.9,1.9-1.8,2.8-2.6c0.6,0.8,1.1,1.7,1.8,2.4c13.4,13.4,26.7,26.8,40.1,40.1
				c0.5,0.5,1,0.9,1.5,1.3C49.7,178.7,49.4,179,49.2,179.4z"/>
			<path fill="#D46588" d="M3.6,142.6c0.6,0.4,1.3,0.8,1.9,1.3c12.6,12.6,25.3,25.2,37.9,37.8c0.5,0.5,1.2,0.9,1.8,1.4
				c-0.6,0.7-1.2,1.4-1.8,2.1c-1.2,1.1-2.4,2.2-3.6,3.3c-0.6-0.4-1.3-0.8-1.8-1.4c-10.8-10.8-21.6-21.6-32.5-32.4
				c-0.5-0.5-1.2-0.9-1.8-1.3C3.6,149.8,3.6,146.2,3.6,142.6z"/>
			<path fill="#3085DA" d="M39.8,188.5c1.2-1.1,2.4-2.2,3.6-3.3c0.5,0.4,1,0.8,1.5,1.3c12.1,12.1,24.2,24.2,36.4,36.4
				c0.5,0.5,0.9,1.2,1.3,1.8c-3.7,0-7.5,0-11.2,0c-0.4-0.6-0.8-1.3-1.3-1.8c-10.2-10.2-20.4-20.4-30.6-30.6
				c-0.5-0.5-0.9-1.1-1.4-1.6C38.6,189.9,39.2,189.2,39.8,188.5z"/>
			<path fill="#118FD6" d="M47.6,90.9c-0.6-0.5-1.2-0.9-1.8-1.5C32.4,75.9,19,62.5,5.5,49.1c-0.5-0.5-1.2-0.9-1.8-1.3
				c0-2.8,0-5.5,0-8.3c0.5,0,1,0,1.4,0.1c0.4,0.7,0.7,1.5,1.3,2.1C20.9,56.1,35.4,70.7,50,85.2c0.5,0.5,1,1.1,1.4,1.6
				C50.2,88.2,48.9,89.5,47.6,90.9z"/>
			<path fill="#CE5F9E" d="M3.6,166.4c0.6,0.4,1.3,0.8,1.8,1.3c8.7,8.7,17.4,17.4,26.1,26c0.5,0.5,1.1,0.8,1.7,1.2
				c-0.4,0.5-0.8,0.9-1.1,1.4c-1.7,1.7-3.4,3.4-5.1,5.1c-0.2,0.1-0.4,0.3-0.7,0.4c-0.6-0.4-1.2-0.7-1.7-1.2
				c-6.5-6.4-12.9-12.9-19.3-19.3c-0.5-0.5-1.1-0.8-1.7-1.2C3.6,175.6,3.6,171,3.6,166.4z"/>
			<path fill="#118FD6" d="M26.4,201.9c0.2-0.1,0.4-0.3,0.7-0.4c0.3,0.2,0.6,0.4,0.9,0.7c7.1,7.1,14.2,14.1,21.2,21.2
				c0.4,0.4,0.5,0.9,0.8,1.3c-6.3,0-12.5,0-18.8,0c-0.1-0.3-0.1-0.6-0.3-0.8c-4.4-4.3-8.8-8.7-13.2-13c0.3-0.5,0.5-0.9,0.8-1.4
				C21.1,207,23.8,204.5,26.4,201.9z"/>
			<path fill="#2688D9" d="M32.1,196.4c0.4-0.5,0.8-0.9,1.1-1.4c1.6-1.5,3.1-2.9,4.7-4.4c0.5,0.5,0.9,1.1,1.4,1.6
				c10.2,10.2,20.4,20.4,30.6,30.6c0.5,0.5,0.9,1.2,1.3,1.8c-3.7,0-7.5,0-11.2,0c-0.4-0.6-0.7-1.2-1.2-1.7
				c-8.4-8.5-16.9-16.9-25.4-25.4C33.1,197.2,32.6,196.8,32.1,196.4z"/>
			<path fill="#CA5BAC" d="M26.4,201.9c-2.6,2.5-5.3,5.1-7.9,7.6c-4.7-4.7-9.3-9.5-14-14.2c-0.2-0.2-0.5-0.2-0.8-0.3
				c0-4.9,0-9.9,0-14.8c0.6,0.4,1.2,0.7,1.7,1.2c6.5,6.4,12.9,12.9,19.3,19.3C25.2,201.2,25.8,201.5,26.4,201.9z"/>
			<path fill="#218BD8" d="M32.1,196.4c0.5,0.4,0.9,0.7,1.4,1.2c8.5,8.5,16.9,16.9,25.4,25.4c0.5,0.5,0.8,1.1,1.2,1.7
				c-3.4,0-6.8,0-10.1,0c-0.3-0.4-0.5-1-0.8-1.3c-7.1-7.1-14.1-14.2-21.2-21.2c-0.3-0.3-0.6-0.4-0.9-0.7
				C28.8,199.8,30.5,198.1,32.1,196.4z"/>
			<path fill="#C659BA" d="M3.6,195c0.3,0.1,0.6,0.1,0.8,0.3c4.7,4.7,9.4,9.5,14,14.2c-0.3,0.5-0.5,0.9-0.8,1.4
				c-2.3,2.2-4.6,4.4-6.8,6.7c-2.3,2.3-4.6,4.7-6.9,7.1c-0.1-0.5-0.3-1-0.3-1.4C3.6,213.9,3.6,204.4,3.6,195z"/>
			<path fill="#0194D4" d="M4,224.7c2.3-2.4,4.5-4.8,6.9-7.1c2.2-2.3,4.5-4.5,6.8-6.7c4.4,4.3,8.8,8.6,13.2,13
				c0.2,0.2,0.2,0.5,0.3,0.8C22.1,224.7,13.1,224.7,4,224.7z"/>
			<path fill="#F78809" d="M96.4,39.5c0.6,0,1.2-0.1,1.8-0.1c29.6,0,59.2,0,88.8,0c0.5,0,1,0,1.9,0c-0.6,0.6-0.8,1-1.2,1.3
				c-18.7,18.7-37.3,37.3-56,56c-0.3,0.3-0.5,0.5-0.8,0.7c-0.6-0.5-1.2-1-1.8-1.5c-14.1-14.1-28.2-28.2-42.3-42.3
				c-0.6-0.6-1.3-1.1-1.9-1.6C88.6,47.8,92.5,43.7,96.4,39.5z"/>
			<path fill="#F48613" d="M84.8,51.9c0.6,0.5,1.3,1,1.9,1.6c14.1,14.1,28.2,28.2,42.3,42.3c0.5,0.5,1.2,1,1.8,1.5
				c-4,4-8,8-11.9,11.9c-0.6-0.5-1.2-1-1.8-1.5C103.3,94,89.6,80.3,75.8,66.5c-0.8-0.8-1.3-1.9-2-2.9c1.2-1.4,2.5-2.8,3.7-4.2
				C79.9,56.9,82.4,54.4,84.8,51.9z"/>
			<path fill="#EE7F2B" d="M108.4,119.8c-3.6,3.6-7.3,7.3-10.9,10.9c-0.5-0.6-1-1.2-1.5-1.8c-13.8-13.8-27.6-27.6-41.4-41.5
				c-0.6-0.6-0.9-1.5-1.3-2.2c0.7-0.8,1.3-1.6,2-2.4c1-1.1,2-2.1,3-3.2c1.1-1.1,2.1-2.3,3.2-3.4c0.6-0.6,1.3-1.2,1.9-1.8
				c0.4,0.6,0.8,1.3,1.3,1.8c14,14,28,28,42,42.1C107.3,118.9,107.8,119.4,108.4,119.8z"/>
			<path fill="#F1821F" d="M108.4,119.8c-0.5-0.5-1.1-0.9-1.6-1.4c-14-14-28-28-42-42.1c-0.5-0.5-0.9-1.2-1.3-1.8
				c0.2-0.4,0.5-0.7,0.7-1.1c1-1,1.9-2,2.9-3c1-1,2-2.1,3-3.1c1.1-1.1,2.1-2.2,3.2-3.4c0.2-0.1,0.5-0.3,0.7-0.4c0.7,1,1.2,2.1,2,2.9
				c13.7,13.8,27.5,27.6,41.3,41.3c0.5,0.5,1.2,1,1.8,1.5C115.4,112.8,111.9,116.3,108.4,119.8z"/>
			<path fill="#EA7B39" d="M53.2,85.3c0.4,0.7,0.7,1.6,1.3,2.2c13.8,13.8,27.6,27.7,41.4,41.5c0.5,0.5,1,1.2,1.5,1.8
				c-0.3,0.4-0.6,0.8-0.9,1.2c-2.5,2.4-5.1,4.9-7.6,7.3c-0.2-0.2-0.5-0.4-0.7-0.6C74,124.4,59.7,110.2,45.5,95.9
				c-0.4-0.4-0.6-1-0.9-1.5c1-1.2,2.1-2.4,3.1-3.5c1.3-1.3,2.5-2.7,3.8-4C52,86.3,52.6,85.8,53.2,85.3z"/>
			<path fill="#7E6FE2" d="M84.8,51.9c-2.4,2.5-4.9,5-7.3,7.4c-0.4-0.6-0.7-1.2-1.2-1.7c-5.4-5.4-10.8-10.8-16.2-16.2
				c-0.5-0.5-0.8-1.3-1.1-1.9c12.4,0,24.9,0,37.3,0C92.5,43.7,88.6,47.8,84.8,51.9z"/>
			<path fill="#218BD8" d="M53.2,85.3c-0.6,0.5-1.2,1-1.8,1.6c-0.5-0.5-0.9-1.1-1.4-1.6C35.4,70.7,20.9,56.1,6.3,41.5
				c-0.6-0.6-0.8-1.4-1.3-2.1c2.3,0,4.6,0,6.9,0c0.4,0.6,0.8,1.2,1.2,1.7c13.5,13.5,27,27,40.5,40.5c0.5,0.5,1,0.8,1.5,1.3
				C54.5,83.7,53.9,84.5,53.2,85.3z"/>
			<path fill="#3085DA" d="M55.2,82.9c-0.5-0.4-1.1-0.8-1.5-1.3c-13.5-13.5-27-27-40.5-40.5c-0.5-0.5-0.8-1.1-1.2-1.7
				c2.1,0,4.1,0,6.2,0c0.4,0.6,0.8,1.2,1.2,1.7C31.7,53.6,44.1,66,56.6,78.4c0.5,0.5,1.1,0.9,1.7,1.3C57.2,80.8,56.2,81.8,55.2,82.9
				z"/>
			<path fill="#3A82DB" d="M58.2,79.7c-0.6-0.4-1.2-0.8-1.7-1.3C44.1,66,31.7,53.6,19.4,41.2c-0.5-0.5-0.8-1.1-1.2-1.7
				c2.2,0,4.3,0,6.5,0c0.4,0.5,0.7,1.1,1.1,1.6c11.4,11.4,22.7,22.8,34.1,34.1c0.5,0.5,1,0.8,1.6,1.1C60.4,77.4,59.3,78.6,58.2,79.7
				z"/>
			<path fill="#447FDC" d="M61.4,76.3c-0.5-0.4-1.1-0.7-1.6-1.1C48.5,63.8,37.1,52.4,25.7,41c-0.4-0.4-0.7-1-1.1-1.6
				c2.1,0,4.1,0,6.2,0c0.4,0.6,0.8,1.2,1.2,1.7c10.2,10.2,20.4,20.5,30.7,30.7c0.5,0.5,0.9,1.1,1.4,1.6c-0.2,0.4-0.5,0.7-0.7,1.1
				C62.7,75.1,62.1,75.7,61.4,76.3z"/>
			<path fill="#7571E1" d="M59,39.5c0.4,0.6,0.6,1.4,1.1,1.9c5.4,5.4,10.8,10.8,16.2,16.2c0.5,0.5,0.8,1.2,1.2,1.7
				c-1.2,1.4-2.5,2.8-3.7,4.2c-0.2,0.1-0.5,0.3-0.7,0.4c-0.4-0.5-0.8-1-1.3-1.5c-7-7-14-14-21-21c-0.6-0.6-0.8-1.4-1.3-2.1
				C52.7,39.5,55.9,39.5,59,39.5z"/>
			<path fill="#4F7CDD" d="M64.1,73.5c-0.5-0.5-0.9-1.1-1.4-1.6C52.5,61.6,42.2,51.4,32,41.2c-0.5-0.5-0.8-1.1-1.2-1.7
				c2.1,0,4.1,0,6.2,0c0.4,0.6,0.8,1.2,1.2,1.7c9.2,9.2,18.4,18.4,27.6,27.6c0.5,0.5,0.8,1.1,1.2,1.7C66,71.5,65.1,72.5,64.1,73.5z"
				/>
			<path fill="#6775DF" d="M49.6,39.5c0.4,0.7,0.7,1.5,1.3,2.1c7,7,14,14,21,21c0.5,0.5,0.9,1,1.3,1.5c-1.1,1.1-2.1,2.2-3.2,3.4
				c-0.5-0.5-0.9-1.1-1.4-1.6C60.3,57.5,52.1,49.4,44,41.2c-0.5-0.5-0.8-1.1-1.2-1.7C45,39.5,47.3,39.5,49.6,39.5z"/>
			<path fill="#5A79DE" d="M42.7,39.5c0.4,0.6,0.8,1.2,1.2,1.7c8.2,8.2,16.4,16.4,24.5,24.6c0.5,0.5,0.9,1.1,1.4,1.6
				c-1,1-2,2.1-3,3.1c-0.4-0.6-0.7-1.2-1.2-1.7c-9.2-9.2-18.4-18.4-27.6-27.6c-0.5-0.5-0.8-1.1-1.2-1.7
				C38.9,39.5,40.8,39.5,42.7,39.5z"/>
			<path fill="#E77844" d="M44.5,94.4c0.3,0.5,0.5,1.1,0.9,1.5c14.3,14.3,28.5,28.6,42.8,42.8c0.2,0.2,0.5,0.4,0.7,0.6
				c-0.2,0.3-0.5,0.7-0.7,1c-2.1,2-4.1,3.9-6.2,5.9c-0.7-0.4-1.5-0.7-2-1.3c-13.7-13.7-27.5-27.4-41.2-41.1c-0.5-0.5-1.2-1-1.8-1.5
				C39.5,99.6,42,97,44.5,94.4z"/>
			<path fill="#E17358" d="M69,159.5c-0.5,0.4-0.9,0.7-1.4,1.1c-0.3-0.2-0.6-0.4-0.8-0.7c-14.2-14.2-28.3-28.3-42.5-42.5
				c-0.3-0.3-0.5-0.6-0.8-1c2.4-2.5,4.8-5.1,7.2-7.6c0.4,0.5,0.6,1.2,1.1,1.6c13.8,13.9,27.7,27.7,41.6,41.6c0.5,0.5,1.2,0.7,1.8,1
				C73.2,155.2,71.1,157.4,69,159.5z"/>
			<path fill="#E4764E" d="M75.2,153c-0.6-0.3-1.3-0.5-1.8-1c-13.9-13.8-27.7-27.7-41.6-41.6c-0.4-0.4-0.7-1.1-1.1-1.6
				c2.1-2.2,4.2-4.4,6.2-6.6c0.6,0.5,1.3,0.9,1.8,1.5c13.7,13.7,27.4,27.4,41.2,41.1c0.6,0.6,1.4,0.9,2,1.3
				c-1.2,1.3-2.4,2.6-3.5,3.9C77.4,151,76.3,152,75.2,153z"/>
			<path fill="#DE7064" d="M23.5,116.5c0.3,0.3,0.5,0.7,0.8,1c14.2,14.2,28.3,28.3,42.5,42.5c0.3,0.3,0.6,0.5,0.8,0.7
				c-2.1,2.1-4.1,4.1-6.2,6.2c-0.6-0.5-1.3-0.8-1.8-1.4c-13.7-13.6-27.3-27.3-41-41c-0.5-0.5-0.9-1-1.3-1.5
				C19.4,120.8,21.5,118.7,23.5,116.5z"/>
			<path fill="#DB6D6E" d="M17.4,123c0.4,0.5,0.8,1,1.3,1.5c13.7,13.7,27.3,27.3,41,41c0.5,0.5,1.2,0.9,1.8,1.4
				c-0.1,0.2-0.2,0.4-0.3,0.6c-1.9,1.7-3.8,3.5-5.7,5.2c-0.6-0.4-1.3-0.8-1.9-1.3c-13.5-13.4-26.9-26.9-40.4-40.3
				c-0.6-0.6-1.3-1.1-1.9-1.6C13.3,127.3,15.3,125.1,17.4,123z"/>
			<path fill="#D86A78" d="M11.3,129.4c0.6,0.5,1.3,1,1.9,1.6c13.5,13.4,26.9,26.9,40.4,40.3c0.5,0.5,1.2,0.9,1.9,1.3
				c-0.1,0.3-0.3,0.6-0.4,1c-1.7,1.6-3.4,3.2-5.1,4.8c-0.5-0.4-1-0.9-1.5-1.3c-13.4-13.4-26.8-26.8-40.1-40.1
				c-0.7-0.7-1.2-1.6-1.8-2.4C8.1,132.8,9.7,131.1,11.3,129.4z"/>
		</g>
	</g>
</g>
</svg>
