<?xml version="1.0" encoding="UTF-8" standalone="no"?><svg xmlns="http://www.w3.org/2000/svg" xmlns:xlink="http://www.w3.org/1999/xlink" contentScriptType="application/ecmascript" contentStyleType="text/css" height="366px" preserveAspectRatio="none" style="width:316px;height:366px;" version="1.1" viewBox="0 0 316 366" width="316px" zoomAndPan="magnify"><defs><filter height="300%" id="f1n0q2182wr3vx" width="300%" x="-1" y="-1"><feGaussianBlur result="blurOut" stdDeviation="2.0"/><feColorMatrix in="blurOut" result="blurOut2" type="matrix" values="0 0 0 0 0 0 0 0 0 0 0 0 0 0 0 0 0 0 .4 0"/><feOffset dx="4.0" dy="4.0" in="blurOut2" result="blurOut3"/><feBlend in="SourceGraphic" in2="blurOut3" mode="normal"/></filter></defs><g><!--class TotalAccountInformationService--><rect fill="#FEFECE" filter="url(#f1n0q2182wr3vx)" height="75.6719" id="TotalAccountInformationService" style="stroke: #A80036; stroke-width: 1.5;" width="204" x="47" y="8"/><ellipse cx="62" cy="24" fill="#ADD1B2" rx="11" ry="11" style="stroke: #A80036; stroke-width: 1.0;"/><path d="M64.7656,19.875 Q64.9219,19.6563 65.1094,19.5469 Q65.2969,19.4375 65.5156,19.4375 Q65.8906,19.4375 66.125,19.6953 Q66.3594,19.9531 66.3594,20.5625 L66.3594,22.0156 Q66.3594,22.625 66.125,22.8906 Q65.8906,23.1563 65.5156,23.1563 Q65.1719,23.1563 64.9688,22.9531 Q64.7656,22.7656 64.6563,22.25 Q64.6094,21.8906 64.4219,21.7031 Q64.0938,21.3281 63.4844,21.1094 Q62.875,20.8906 62.25,20.8906 Q61.4844,20.8906 60.8516,21.2188 Q60.2188,21.5469 59.7266,22.2969 Q59.2344,23.0469 59.2344,24.0781 L59.2344,25.1719 Q59.2344,26.4063 60.125,27.2266 Q61.0156,28.0469 62.6094,28.0469 Q63.5469,28.0469 64.2031,27.7969 Q64.5938,27.6406 65.0156,27.2031 Q65.2813,26.9375 65.4297,26.8594 Q65.5781,26.7813 65.7813,26.7813 Q66.1094,26.7813 66.3672,27.0391 Q66.625,27.2969 66.625,27.6406 Q66.625,27.9844 66.2813,28.3906 Q65.7813,28.9688 64.9844,29.2969 Q63.9063,29.75 62.6094,29.75 Q61.0938,29.75 59.8906,29.125 Q58.9063,28.625 58.2188,27.5547 Q57.5313,26.4844 57.5313,25.2031 L57.5313,24.0469 Q57.5313,22.7188 58.1484,21.5703 Q58.7656,20.4219 59.8594,19.8047 Q60.9531,19.1875 62.1875,19.1875 Q62.9219,19.1875 63.5703,19.3516 Q64.2188,19.5156 64.7656,19.875 Z "/><text fill="#000000" font-family="sans-serif" font-size="12" lengthAdjust="spacingAndGlyphs" textLength="172" x="76" y="28.9102">TotalAccountInformationService</text><line style="stroke: #A80036; stroke-width: 1.5;" x1="48" x2="250" y1="40" y2="40"/><rect fill="none" height="6" style="stroke: #C82930; stroke-width: 1.0;" width="6" x="55" y="49.418"/><text fill="#000000" font-family="sans-serif" font-size="11" lengthAdjust="spacingAndGlyphs" textLength="95" x="67" y="55.4189">Account[] accounts</text><line style="stroke: #A80036; stroke-width: 1.5;" x1="48" x2="250" y1="61.8359" y2="61.8359"/><ellipse cx="58" cy="74.2539" fill="#84BE84" rx="3" ry="3" style="stroke: #038048; stroke-width: 1.0;"/><text fill="#000000" font-family="sans-serif" font-size="11" lengthAdjust="spacingAndGlyphs" textLength="178" x="67" y="77.2549">getTotalAmountOfMoney(): Currency</text><!--class Account--><rect fill="#FEFECE" filter="url(#f1n0q2182wr3vx)" height="103.3438" id="Account" style="stroke: #A80036; stroke-width: 1.5;" width="132" x="83" y="144"/><ellipse cx="123.65" cy="160" fill="#ADD1B2" rx="11" ry="11" style="stroke: #A80036; stroke-width: 1.0;"/><path d="M126.4156,155.875 Q126.5719,155.6563 126.7594,155.5469 Q126.9469,155.4375 127.1656,155.4375 Q127.5406,155.4375 127.775,155.6953 Q128.0094,155.9531 128.0094,156.5625 L128.0094,158.0156 Q128.0094,158.625 127.775,158.8906 Q127.5406,159.1563 127.1656,159.1563 Q126.8219,159.1563 126.6188,158.9531 Q126.4156,158.7656 126.3063,158.25 Q126.2594,157.8906 126.0719,157.7031 Q125.7438,157.3281 125.1344,157.1094 Q124.525,156.8906 123.9,156.8906 Q123.1344,156.8906 122.5016,157.2188 Q121.8688,157.5469 121.3766,158.2969 Q120.8844,159.0469 120.8844,160.0781 L120.8844,161.1719 Q120.8844,162.4063 121.775,163.2266 Q122.6656,164.0469 124.2594,164.0469 Q125.1969,164.0469 125.8531,163.7969 Q126.2438,163.6406 126.6656,163.2031 Q126.9313,162.9375 127.0797,162.8594 Q127.2281,162.7813 127.4313,162.7813 Q127.7594,162.7813 128.0172,163.0391 Q128.275,163.2969 128.275,163.6406 Q128.275,163.9844 127.9313,164.3906 Q127.4313,164.9688 126.6344,165.2969 Q125.5563,165.75 124.2594,165.75 Q122.7438,165.75 121.5406,165.125 Q120.5563,164.625 119.8688,163.5547 Q119.1813,162.4844 119.1813,161.2031 L119.1813,160.0469 Q119.1813,158.7188 119.7984,157.5703 Q120.4156,156.4219 121.5094,155.8047 Q122.6031,155.1875 123.8375,155.1875 Q124.5719,155.1875 125.2203,155.3516 Q125.8688,155.5156 126.4156,155.875 Z "/><text fill="#000000" font-family="sans-serif" font-size="12" lengthAdjust="spacingAndGlyphs" textLength="43" x="143.35" y="164.9102">Account</text><line style="stroke: #A80036; stroke-width: 1.5;" x1="84" x2="214" y1="176" y2="176"/><rect fill="none" height="6" style="stroke: #C82930; stroke-width: 1.0;" width="6" x="91" y="185.418"/><text fill="#000000" font-family="sans-serif" font-size="11" lengthAdjust="spacingAndGlyphs" textLength="69" x="103" y="191.4189">Owner owner</text><rect fill="none" height="6" style="stroke: #C82930; stroke-width: 1.0;" width="6" x="91" y="199.2539"/><text fill="#000000" font-family="sans-serif" font-size="11" lengthAdjust="spacingAndGlyphs" textLength="97" x="103" y="205.2549">Payment[] payments</text><rect fill="none" height="6" style="stroke: #C82930; stroke-width: 1.0;" width="6" x="91" y="213.0898"/><text fill="#000000" font-family="sans-serif" font-size="11" lengthAdjust="spacingAndGlyphs" textLength="80" x="103" y="219.0908">Currency money</text><line style="stroke: #A80036; stroke-width: 1.5;" x1="84" x2="214" y1="225.5078" y2="225.5078"/><ellipse cx="94" cy="237.9258" fill="#84BE84" rx="3" ry="3" style="stroke: #038048; stroke-width: 1.0;"/><text fill="#000000" font-family="sans-serif" font-size="11" lengthAdjust="spacingAndGlyphs" textLength="106" x="103" y="240.9268">getMoney(): Currency</text><!--class Owner--><rect fill="#FEFECE" filter="url(#f1n0q2182wr3vx)" height="48" id="Owner" style="stroke: #A80036; stroke-width: 1.5;" width="68" x="6" y="307"/><ellipse cx="21" cy="323" fill="#ADD1B2" rx="11" ry="11" style="stroke: #A80036; stroke-width: 1.0;"/><path d="M23.7656,318.875 Q23.9219,318.6563 24.1094,318.5469 Q24.2969,318.4375 24.5156,318.4375 Q24.8906,318.4375 25.125,318.6953 Q25.3594,318.9531 25.3594,319.5625 L25.3594,321.0156 Q25.3594,321.625 25.125,321.8906 Q24.8906,322.1563 24.5156,322.1563 Q24.1719,322.1563 23.9688,321.9531 Q23.7656,321.7656 23.6563,321.25 Q23.6094,320.8906 23.4219,320.7031 Q23.0938,320.3281 22.4844,320.1094 Q21.875,319.8906 21.25,319.8906 Q20.4844,319.8906 19.8516,320.2188 Q19.2188,320.5469 18.7266,321.2969 Q18.2344,322.0469 18.2344,323.0781 L18.2344,324.1719 Q18.2344,325.4063 19.125,326.2266 Q20.0156,327.0469 21.6094,327.0469 Q22.5469,327.0469 23.2031,326.7969 Q23.5938,326.6406 24.0156,326.2031 Q24.2813,325.9375 24.4297,325.8594 Q24.5781,325.7813 24.7813,325.7813 Q25.1094,325.7813 25.3672,326.0391 Q25.625,326.2969 25.625,326.6406 Q25.625,326.9844 25.2813,327.3906 Q24.7813,327.9688 23.9844,328.2969 Q22.9063,328.75 21.6094,328.75 Q20.0938,328.75 18.8906,328.125 Q17.9063,327.625 17.2188,326.5547 Q16.5313,325.4844 16.5313,324.2031 L16.5313,323.0469 Q16.5313,321.7188 17.1484,320.5703 Q17.7656,319.4219 18.8594,318.8047 Q19.9531,318.1875 21.1875,318.1875 Q21.9219,318.1875 22.5703,318.3516 Q23.2188,318.5156 23.7656,318.875 Z "/><text fill="#000000" font-family="sans-serif" font-size="12" lengthAdjust="spacingAndGlyphs" textLength="36" x="35" y="327.9102">Owner</text><line style="stroke: #A80036; stroke-width: 1.5;" x1="7" x2="73" y1="339" y2="339"/><line style="stroke: #A80036; stroke-width: 1.5;" x1="7" x2="73" y1="347" y2="347"/><!--class Payment--><rect fill="#FEFECE" filter="url(#f1n0q2182wr3vx)" height="48" id="Payment" style="stroke: #A80036; stroke-width: 1.5;" width="80" x="109" y="307"/><ellipse cx="124" cy="323" fill="#ADD1B2" rx="11" ry="11" style="stroke: #A80036; stroke-width: 1.0;"/><path d="M126.7656,318.875 Q126.9219,318.6563 127.1094,318.5469 Q127.2969,318.4375 127.5156,318.4375 Q127.8906,318.4375 128.125,318.6953 Q128.3594,318.9531 128.3594,319.5625 L128.3594,321.0156 Q128.3594,321.625 128.125,321.8906 Q127.8906,322.1563 127.5156,322.1563 Q127.1719,322.1563 126.9688,321.9531 Q126.7656,321.7656 126.6563,321.25 Q126.6094,320.8906 126.4219,320.7031 Q126.0938,320.3281 125.4844,320.1094 Q124.875,319.8906 124.25,319.8906 Q123.4844,319.8906 122.8516,320.2188 Q122.2188,320.5469 121.7266,321.2969 Q121.2344,322.0469 121.2344,323.0781 L121.2344,324.1719 Q121.2344,325.4063 122.125,326.2266 Q123.0156,327.0469 124.6094,327.0469 Q125.5469,327.0469 126.2031,326.7969 Q126.5938,326.6406 127.0156,326.2031 Q127.2813,325.9375 127.4297,325.8594 Q127.5781,325.7813 127.7813,325.7813 Q128.1094,325.7813 128.3672,326.0391 Q128.625,326.2969 128.625,326.6406 Q128.625,326.9844 128.2813,327.3906 Q127.7813,327.9688 126.9844,328.2969 Q125.9063,328.75 124.6094,328.75 Q123.0938,328.75 121.8906,328.125 Q120.9063,327.625 120.2188,326.5547 Q119.5313,325.4844 119.5313,324.2031 L119.5313,323.0469 Q119.5313,321.7188 120.1484,320.5703 Q120.7656,319.4219 121.8594,318.8047 Q122.9531,318.1875 124.1875,318.1875 Q124.9219,318.1875 125.5703,318.3516 Q126.2188,318.5156 126.7656,318.875 Z "/><text fill="#000000" font-family="sans-serif" font-size="12" lengthAdjust="spacingAndGlyphs" textLength="48" x="138" y="327.9102">Payment</text><line style="stroke: #A80036; stroke-width: 1.5;" x1="110" x2="188" y1="339" y2="339"/><line style="stroke: #A80036; stroke-width: 1.5;" x1="110" x2="188" y1="347" y2="347"/><!--class Currency--><rect fill="#FEFECE" filter="url(#f1n0q2182wr3vx)" height="48" id="Currency" style="stroke: #A80036; stroke-width: 1.5;" width="81" x="224.5" y="307"/><ellipse cx="239.5" cy="323" fill="#ADD1B2" rx="11" ry="11" style="stroke: #A80036; stroke-width: 1.0;"/><path d="M242.2656,318.875 Q242.4219,318.6563 242.6094,318.5469 Q242.7969,318.4375 243.0156,318.4375 Q243.3906,318.4375 243.625,318.6953 Q243.8594,318.9531 243.8594,319.5625 L243.8594,321.0156 Q243.8594,321.625 243.625,321.8906 Q243.3906,322.1563 243.0156,322.1563 Q242.6719,322.1563 242.4688,321.9531 Q242.2656,321.7656 242.1563,321.25 Q242.1094,320.8906 241.9219,320.7031 Q241.5938,320.3281 240.9844,320.1094 Q240.375,319.8906 239.75,319.8906 Q238.9844,319.8906 238.3516,320.2188 Q237.7188,320.5469 237.2266,321.2969 Q236.7344,322.0469 236.7344,323.0781 L236.7344,324.1719 Q236.7344,325.4063 237.625,326.2266 Q238.5156,327.0469 240.1094,327.0469 Q241.0469,327.0469 241.7031,326.7969 Q242.0938,326.6406 242.5156,326.2031 Q242.7813,325.9375 242.9297,325.8594 Q243.0781,325.7813 243.2813,325.7813 Q243.6094,325.7813 243.8672,326.0391 Q244.125,326.2969 244.125,326.6406 Q244.125,326.9844 243.7813,327.3906 Q243.2813,327.9688 242.4844,328.2969 Q241.4063,328.75 240.1094,328.75 Q238.5938,328.75 237.3906,328.125 Q236.4063,327.625 235.7188,326.5547 Q235.0313,325.4844 235.0313,324.2031 L235.0313,323.0469 Q235.0313,321.7188 235.6484,320.5703 Q236.2656,319.4219 237.3594,318.8047 Q238.4531,318.1875 239.6875,318.1875 Q240.4219,318.1875 241.0703,318.3516 Q241.7188,318.5156 242.2656,318.875 Z "/><text fill="#000000" font-family="sans-serif" font-size="12" lengthAdjust="spacingAndGlyphs" textLength="49" x="253.5" y="327.9102">Currency</text><line style="stroke: #A80036; stroke-width: 1.5;" x1="225.5" x2="304.5" y1="339" y2="339"/><line style="stroke: #A80036; stroke-width: 1.5;" x1="225.5" x2="304.5" y1="347" y2="347"/><!--link Account to Owner--><path d="M99.1391,257.5682 C84.8361,275.0861 70.1038,293.1297 58.9212,306.8259 " fill="none" id="Account-Owner" style="stroke: #A80036; stroke-width: 1.0;"/><polygon fill="#A80036" points="107.481,247.351,100.588,249.469,99.8919,256.6464,106.7849,254.5284,107.481,247.351" style="stroke: #A80036; stroke-width: 1.0;"/><!--link Account to Currency--><path d="M202.063,257.5682 C217.285,275.0861 232.963,293.1297 244.864,306.8259 " fill="none" id="Account-Currency" style="stroke: #A80036; stroke-width: 1.0;"/><polygon fill="#A80036" points="193.186,247.351,194.1022,254.5037,201.057,256.409,200.1408,249.2563,193.186,247.351" style="stroke: #A80036; stroke-width: 1.0;"/><!--link Account to Payment--><path d="M149,260.5192 C149,277.096 149,293.8977 149,306.8259 " fill="none" id="Account-Payment" style="stroke: #A80036; stroke-width: 1.0;"/><polygon fill="#FFFFFF" points="149,247.351,145,253.351,149,259.351,153,253.351,149,247.351" style="stroke: #A80036; stroke-width: 1.0;"/><!--link TotalAccountInformationService to Account--><path d="M149,84.22 C149,100.758 149,120.575 149,138.819 " fill="none" id="TotalAccountInformationService-Account" style="stroke: #A80036; stroke-width: 1.0;"/><polygon fill="#A80036" points="149,143.919,153,134.919,149,138.919,145,134.919,149,143.919" style="stroke: #A80036; stroke-width: 1.0;"/><!--
@startuml
class TotalAccountInformationService {
    {field} - Account[] accounts
    {method} + getTotalAmountOfMoney(): Currency
}

class Account {
    {field} - Owner owner
    {field} - Payment[] payments
    {field} - Currency money
    {method} + getMoney(): Currency
}
class Owner {
}
class Payment {
}
class Currency {
}
Account *- - Owner
Account *- - Currency
Account o- - Payment
TotalAccountInformationService - -> Account
@enduml

PlantUML version 1.2017.20(Mon Dec 11 17:57:05 CET 2017)
(GPL source distribution)
Java Runtime: Java(TM) SE Runtime Environment
JVM: Java HotSpot(TM) 64-Bit Server VM
Java Version: 1.8.0_172-b11
Operating System: Windows 10
OS Version: 10.0
Default Encoding: Cp1252
Language: de
Country: DE
--></g></svg>