<?xml version="1.0" encoding="UTF-8" standalone="no"?><svg xmlns="http://www.w3.org/2000/svg" xmlns:xlink="http://www.w3.org/1999/xlink" contentScriptType="application/ecmascript" contentStyleType="text/css" height="502px" preserveAspectRatio="none" style="width:372px;height:502px;" version="1.1" viewBox="0 0 372 502" width="372px" zoomAndPan="magnify"><defs><filter height="300%" id="f1jjpjka6sbl36" width="300%" x="-1" y="-1"><feGaussianBlur result="blurOut" stdDeviation="2.0"/><feColorMatrix in="blurOut" result="blurOut2" type="matrix" values="0 0 0 0 0 0 0 0 0 0 0 0 0 0 0 0 0 0 .4 0"/><feOffset dx="4.0" dy="4.0" in="blurOut2" result="blurOut3"/><feBlend in="SourceGraphic" in2="blurOut3" mode="normal"/></filter></defs><g><!--class TotalAccountInformationService--><rect fill="#FEFECE" filter="url(#f1jjpjka6sbl36)" height="75.6719" id="TotalAccountInformationService" style="stroke: #A80036; stroke-width: 1.5;" width="204" x="6" y="144"/><ellipse cx="21" cy="160" fill="#ADD1B2" rx="11" ry="11" style="stroke: #A80036; stroke-width: 1.0;"/><path d="M23.7656,155.875 Q23.9219,155.6563 24.1094,155.5469 Q24.2969,155.4375 24.5156,155.4375 Q24.8906,155.4375 25.125,155.6953 Q25.3594,155.9531 25.3594,156.5625 L25.3594,158.0156 Q25.3594,158.625 25.125,158.8906 Q24.8906,159.1563 24.5156,159.1563 Q24.1719,159.1563 23.9688,158.9531 Q23.7656,158.7656 23.6563,158.25 Q23.6094,157.8906 23.4219,157.7031 Q23.0938,157.3281 22.4844,157.1094 Q21.875,156.8906 21.25,156.8906 Q20.4844,156.8906 19.8516,157.2188 Q19.2188,157.5469 18.7266,158.2969 Q18.2344,159.0469 18.2344,160.0781 L18.2344,161.1719 Q18.2344,162.4063 19.125,163.2266 Q20.0156,164.0469 21.6094,164.0469 Q22.5469,164.0469 23.2031,163.7969 Q23.5938,163.6406 24.0156,163.2031 Q24.2813,162.9375 24.4297,162.8594 Q24.5781,162.7813 24.7813,162.7813 Q25.1094,162.7813 25.3672,163.0391 Q25.625,163.2969 25.625,163.6406 Q25.625,163.9844 25.2813,164.3906 Q24.7813,164.9688 23.9844,165.2969 Q22.9063,165.75 21.6094,165.75 Q20.0938,165.75 18.8906,165.125 Q17.9063,164.625 17.2188,163.5547 Q16.5313,162.4844 16.5313,161.2031 L16.5313,160.0469 Q16.5313,158.7188 17.1484,157.5703 Q17.7656,156.4219 18.8594,155.8047 Q19.9531,155.1875 21.1875,155.1875 Q21.9219,155.1875 22.5703,155.3516 Q23.2188,155.5156 23.7656,155.875 Z "/><text fill="#000000" font-family="sans-serif" font-size="12" lengthAdjust="spacingAndGlyphs" textLength="172" x="35" y="164.9102">TotalAccountInformationService</text><line style="stroke: #A80036; stroke-width: 1.5;" x1="7" x2="209" y1="176" y2="176"/><rect fill="none" height="6" style="stroke: #C82930; stroke-width: 1.0;" width="6" x="14" y="185.418"/><text fill="#000000" font-family="sans-serif" font-size="11" lengthAdjust="spacingAndGlyphs" textLength="95" x="26" y="191.4189">Account[] accounts</text><line style="stroke: #A80036; stroke-width: 1.5;" x1="7" x2="209" y1="197.8359" y2="197.8359"/><ellipse cx="17" cy="210.2539" fill="#84BE84" rx="3" ry="3" style="stroke: #038048; stroke-width: 1.0;"/><text fill="#000000" font-family="sans-serif" font-size="11" lengthAdjust="spacingAndGlyphs" textLength="178" x="26" y="213.2549">getTotalAmountOfMoney(): Currency</text><!--class Account--><rect fill="#FEFECE" filter="url(#f1jjpjka6sbl36)" height="103.3438" id="Account" style="stroke: #A80036; stroke-width: 1.5;" width="132" x="119" y="280"/><ellipse cx="159.65" cy="296" fill="#ADD1B2" rx="11" ry="11" style="stroke: #A80036; stroke-width: 1.0;"/><path d="M162.4156,291.875 Q162.5719,291.6563 162.7594,291.5469 Q162.9469,291.4375 163.1656,291.4375 Q163.5406,291.4375 163.775,291.6953 Q164.0094,291.9531 164.0094,292.5625 L164.0094,294.0156 Q164.0094,294.625 163.775,294.8906 Q163.5406,295.1563 163.1656,295.1563 Q162.8219,295.1563 162.6188,294.9531 Q162.4156,294.7656 162.3063,294.25 Q162.2594,293.8906 162.0719,293.7031 Q161.7438,293.3281 161.1344,293.1094 Q160.525,292.8906 159.9,292.8906 Q159.1344,292.8906 158.5016,293.2188 Q157.8688,293.5469 157.3766,294.2969 Q156.8844,295.0469 156.8844,296.0781 L156.8844,297.1719 Q156.8844,298.4063 157.775,299.2266 Q158.6656,300.0469 160.2594,300.0469 Q161.1969,300.0469 161.8531,299.7969 Q162.2438,299.6406 162.6656,299.2031 Q162.9313,298.9375 163.0797,298.8594 Q163.2281,298.7813 163.4313,298.7813 Q163.7594,298.7813 164.0172,299.0391 Q164.275,299.2969 164.275,299.6406 Q164.275,299.9844 163.9313,300.3906 Q163.4313,300.9688 162.6344,301.2969 Q161.5563,301.75 160.2594,301.75 Q158.7438,301.75 157.5406,301.125 Q156.5563,300.625 155.8688,299.5547 Q155.1813,298.4844 155.1813,297.2031 L155.1813,296.0469 Q155.1813,294.7188 155.7984,293.5703 Q156.4156,292.4219 157.5094,291.8047 Q158.6031,291.1875 159.8375,291.1875 Q160.5719,291.1875 161.2203,291.3516 Q161.8688,291.5156 162.4156,291.875 Z "/><text fill="#000000" font-family="sans-serif" font-size="12" lengthAdjust="spacingAndGlyphs" textLength="43" x="179.35" y="300.9102">Account</text><line style="stroke: #A80036; stroke-width: 1.5;" x1="120" x2="250" y1="312" y2="312"/><rect fill="none" height="6" style="stroke: #C82930; stroke-width: 1.0;" width="6" x="127" y="321.418"/><text fill="#000000" font-family="sans-serif" font-size="11" lengthAdjust="spacingAndGlyphs" textLength="69" x="139" y="327.4189">Owner owner</text><rect fill="none" height="6" style="stroke: #C82930; stroke-width: 1.0;" width="6" x="127" y="335.2539"/><text fill="#000000" font-family="sans-serif" font-size="11" lengthAdjust="spacingAndGlyphs" textLength="97" x="139" y="341.2549">Payment[] payments</text><rect fill="none" height="6" style="stroke: #C82930; stroke-width: 1.0;" width="6" x="127" y="349.0898"/><text fill="#000000" font-family="sans-serif" font-size="11" lengthAdjust="spacingAndGlyphs" textLength="80" x="139" y="355.0908">Currency money</text><line style="stroke: #A80036; stroke-width: 1.5;" x1="120" x2="250" y1="361.5078" y2="361.5078"/><ellipse cx="130" cy="373.9258" fill="#84BE84" rx="3" ry="3" style="stroke: #038048; stroke-width: 1.0;"/><text fill="#000000" font-family="sans-serif" font-size="11" lengthAdjust="spacingAndGlyphs" textLength="106" x="139" y="376.9268">getMoney(): Currency</text><!--class Owner--><rect fill="#FEFECE" filter="url(#f1jjpjka6sbl36)" height="48" id="Owner" style="stroke: #A80036; stroke-width: 1.5;" width="68" x="42" y="443"/><ellipse cx="57" cy="459" fill="#ADD1B2" rx="11" ry="11" style="stroke: #A80036; stroke-width: 1.0;"/><path d="M59.7656,454.875 Q59.9219,454.6563 60.1094,454.5469 Q60.2969,454.4375 60.5156,454.4375 Q60.8906,454.4375 61.125,454.6953 Q61.3594,454.9531 61.3594,455.5625 L61.3594,457.0156 Q61.3594,457.625 61.125,457.8906 Q60.8906,458.1563 60.5156,458.1563 Q60.1719,458.1563 59.9688,457.9531 Q59.7656,457.7656 59.6563,457.25 Q59.6094,456.8906 59.4219,456.7031 Q59.0938,456.3281 58.4844,456.1094 Q57.875,455.8906 57.25,455.8906 Q56.4844,455.8906 55.8516,456.2188 Q55.2188,456.5469 54.7266,457.2969 Q54.2344,458.0469 54.2344,459.0781 L54.2344,460.1719 Q54.2344,461.4063 55.125,462.2266 Q56.0156,463.0469 57.6094,463.0469 Q58.5469,463.0469 59.2031,462.7969 Q59.5938,462.6406 60.0156,462.2031 Q60.2813,461.9375 60.4297,461.8594 Q60.5781,461.7813 60.7813,461.7813 Q61.1094,461.7813 61.3672,462.0391 Q61.625,462.2969 61.625,462.6406 Q61.625,462.9844 61.2813,463.3906 Q60.7813,463.9688 59.9844,464.2969 Q58.9063,464.75 57.6094,464.75 Q56.0938,464.75 54.8906,464.125 Q53.9063,463.625 53.2188,462.5547 Q52.5313,461.4844 52.5313,460.2031 L52.5313,459.0469 Q52.5313,457.7188 53.1484,456.5703 Q53.7656,455.4219 54.8594,454.8047 Q55.9531,454.1875 57.1875,454.1875 Q57.9219,454.1875 58.5703,454.3516 Q59.2188,454.5156 59.7656,454.875 Z "/><text fill="#000000" font-family="sans-serif" font-size="12" lengthAdjust="spacingAndGlyphs" textLength="36" x="71" y="463.9102">Owner</text><line style="stroke: #A80036; stroke-width: 1.5;" x1="43" x2="109" y1="475" y2="475"/><line style="stroke: #A80036; stroke-width: 1.5;" x1="43" x2="109" y1="483" y2="483"/><!--class Payment--><rect fill="#FEFECE" filter="url(#f1jjpjka6sbl36)" height="48" id="Payment" style="stroke: #A80036; stroke-width: 1.5;" width="80" x="145" y="443"/><ellipse cx="160" cy="459" fill="#ADD1B2" rx="11" ry="11" style="stroke: #A80036; stroke-width: 1.0;"/><path d="M162.7656,454.875 Q162.9219,454.6563 163.1094,454.5469 Q163.2969,454.4375 163.5156,454.4375 Q163.8906,454.4375 164.125,454.6953 Q164.3594,454.9531 164.3594,455.5625 L164.3594,457.0156 Q164.3594,457.625 164.125,457.8906 Q163.8906,458.1563 163.5156,458.1563 Q163.1719,458.1563 162.9688,457.9531 Q162.7656,457.7656 162.6563,457.25 Q162.6094,456.8906 162.4219,456.7031 Q162.0938,456.3281 161.4844,456.1094 Q160.875,455.8906 160.25,455.8906 Q159.4844,455.8906 158.8516,456.2188 Q158.2188,456.5469 157.7266,457.2969 Q157.2344,458.0469 157.2344,459.0781 L157.2344,460.1719 Q157.2344,461.4063 158.125,462.2266 Q159.0156,463.0469 160.6094,463.0469 Q161.5469,463.0469 162.2031,462.7969 Q162.5938,462.6406 163.0156,462.2031 Q163.2813,461.9375 163.4297,461.8594 Q163.5781,461.7813 163.7813,461.7813 Q164.1094,461.7813 164.3672,462.0391 Q164.625,462.2969 164.625,462.6406 Q164.625,462.9844 164.2813,463.3906 Q163.7813,463.9688 162.9844,464.2969 Q161.9063,464.75 160.6094,464.75 Q159.0938,464.75 157.8906,464.125 Q156.9063,463.625 156.2188,462.5547 Q155.5313,461.4844 155.5313,460.2031 L155.5313,459.0469 Q155.5313,457.7188 156.1484,456.5703 Q156.7656,455.4219 157.8594,454.8047 Q158.9531,454.1875 160.1875,454.1875 Q160.9219,454.1875 161.5703,454.3516 Q162.2188,454.5156 162.7656,454.875 Z "/><text fill="#000000" font-family="sans-serif" font-size="12" lengthAdjust="spacingAndGlyphs" textLength="48" x="174" y="463.9102">Payment</text><line style="stroke: #A80036; stroke-width: 1.5;" x1="146" x2="224" y1="475" y2="475"/><line style="stroke: #A80036; stroke-width: 1.5;" x1="146" x2="224" y1="483" y2="483"/><!--class Currency--><rect fill="#FEFECE" filter="url(#f1jjpjka6sbl36)" height="48" id="Currency" style="stroke: #A80036; stroke-width: 1.5;" width="81" x="260.5" y="443"/><ellipse cx="275.5" cy="459" fill="#ADD1B2" rx="11" ry="11" style="stroke: #A80036; stroke-width: 1.0;"/><path d="M278.2656,454.875 Q278.4219,454.6563 278.6094,454.5469 Q278.7969,454.4375 279.0156,454.4375 Q279.3906,454.4375 279.625,454.6953 Q279.8594,454.9531 279.8594,455.5625 L279.8594,457.0156 Q279.8594,457.625 279.625,457.8906 Q279.3906,458.1563 279.0156,458.1563 Q278.6719,458.1563 278.4688,457.9531 Q278.2656,457.7656 278.1563,457.25 Q278.1094,456.8906 277.9219,456.7031 Q277.5938,456.3281 276.9844,456.1094 Q276.375,455.8906 275.75,455.8906 Q274.9844,455.8906 274.3516,456.2188 Q273.7188,456.5469 273.2266,457.2969 Q272.7344,458.0469 272.7344,459.0781 L272.7344,460.1719 Q272.7344,461.4063 273.625,462.2266 Q274.5156,463.0469 276.1094,463.0469 Q277.0469,463.0469 277.7031,462.7969 Q278.0938,462.6406 278.5156,462.2031 Q278.7813,461.9375 278.9297,461.8594 Q279.0781,461.7813 279.2813,461.7813 Q279.6094,461.7813 279.8672,462.0391 Q280.125,462.2969 280.125,462.6406 Q280.125,462.9844 279.7813,463.3906 Q279.2813,463.9688 278.4844,464.2969 Q277.4063,464.75 276.1094,464.75 Q274.5938,464.75 273.3906,464.125 Q272.4063,463.625 271.7188,462.5547 Q271.0313,461.4844 271.0313,460.2031 L271.0313,459.0469 Q271.0313,457.7188 271.6484,456.5703 Q272.2656,455.4219 273.3594,454.8047 Q274.4531,454.1875 275.6875,454.1875 Q276.4219,454.1875 277.0703,454.3516 Q277.7188,454.5156 278.2656,454.875 Z "/><text fill="#000000" font-family="sans-serif" font-size="12" lengthAdjust="spacingAndGlyphs" textLength="49" x="289.5" y="463.9102">Currency</text><line style="stroke: #A80036; stroke-width: 1.5;" x1="261.5" x2="340.5" y1="475" y2="475"/><line style="stroke: #A80036; stroke-width: 1.5;" x1="261.5" x2="340.5" y1="483" y2="483"/><!--class EvilArray--><rect fill="#FEFECE" filter="url(#f1jjpjka6sbl36)" height="75.6719" id="EvilArray" style="stroke: #A80036; stroke-width: 1.5;" width="109" x="130.5" y="8"/><ellipse cx="159.45" cy="24" fill="#ADD1B2" rx="11" ry="11" style="stroke: #A80036; stroke-width: 1.0;"/><path d="M162.2156,19.875 Q162.3719,19.6563 162.5594,19.5469 Q162.7469,19.4375 162.9656,19.4375 Q163.3406,19.4375 163.575,19.6953 Q163.8094,19.9531 163.8094,20.5625 L163.8094,22.0156 Q163.8094,22.625 163.575,22.8906 Q163.3406,23.1563 162.9656,23.1563 Q162.6219,23.1563 162.4188,22.9531 Q162.2156,22.7656 162.1063,22.25 Q162.0594,21.8906 161.8719,21.7031 Q161.5438,21.3281 160.9344,21.1094 Q160.325,20.8906 159.7,20.8906 Q158.9344,20.8906 158.3016,21.2188 Q157.6688,21.5469 157.1766,22.2969 Q156.6844,23.0469 156.6844,24.0781 L156.6844,25.1719 Q156.6844,26.4063 157.575,27.2266 Q158.4656,28.0469 160.0594,28.0469 Q160.9969,28.0469 161.6531,27.7969 Q162.0438,27.6406 162.4656,27.2031 Q162.7313,26.9375 162.8797,26.8594 Q163.0281,26.7813 163.2313,26.7813 Q163.5594,26.7813 163.8172,27.0391 Q164.075,27.2969 164.075,27.6406 Q164.075,27.9844 163.7313,28.3906 Q163.2313,28.9688 162.4344,29.2969 Q161.3563,29.75 160.0594,29.75 Q158.5438,29.75 157.3406,29.125 Q156.3563,28.625 155.6688,27.5547 Q154.9813,26.4844 154.9813,25.2031 L154.9813,24.0469 Q154.9813,22.7188 155.5984,21.5703 Q156.2156,20.4219 157.3094,19.8047 Q158.4031,19.1875 159.6375,19.1875 Q160.3719,19.1875 161.0203,19.3516 Q161.6688,19.5156 162.2156,19.875 Z "/><text fill="#000000" font-family="sans-serif" font-size="12" lengthAdjust="spacingAndGlyphs" textLength="46" x="176.55" y="28.9102">EvilArray</text><line style="stroke: #A80036; stroke-width: 1.5;" x1="131.5" x2="238.5" y1="40" y2="40"/><rect fill="none" height="6" style="stroke: #C82930; stroke-width: 1.0;" width="6" x="138.5" y="49.418"/><text fill="#000000" font-family="sans-serif" font-size="11" lengthAdjust="spacingAndGlyphs" textLength="83" x="150.5" y="55.4189">Array innerArray</text><line style="stroke: #A80036; stroke-width: 1.5;" x1="131.5" x2="238.5" y1="61.8359" y2="61.8359"/><ellipse cx="141.5" cy="74.2539" fill="#84BE84" rx="3" ry="3" style="stroke: #038048; stroke-width: 1.0;"/><text fill="#000000" font-family="sans-serif" font-size="11" lengthAdjust="spacingAndGlyphs" textLength="38" x="150.5" y="77.2549">forEach</text><!--class EvilServer--><rect fill="#FEFECE" filter="url(#f1jjpjka6sbl36)" height="48" id="EvilServer" style="stroke: #A80036; stroke-width: 1.5;" width="86" x="275" y="22"/><ellipse cx="290" cy="38" fill="#ADD1B2" rx="11" ry="11" style="stroke: #A80036; stroke-width: 1.0;"/><path d="M292.7656,33.875 Q292.9219,33.6563 293.1094,33.5469 Q293.2969,33.4375 293.5156,33.4375 Q293.8906,33.4375 294.125,33.6953 Q294.3594,33.9531 294.3594,34.5625 L294.3594,36.0156 Q294.3594,36.625 294.125,36.8906 Q293.8906,37.1563 293.5156,37.1563 Q293.1719,37.1563 292.9688,36.9531 Q292.7656,36.7656 292.6563,36.25 Q292.6094,35.8906 292.4219,35.7031 Q292.0938,35.3281 291.4844,35.1094 Q290.875,34.8906 290.25,34.8906 Q289.4844,34.8906 288.8516,35.2188 Q288.2188,35.5469 287.7266,36.2969 Q287.2344,37.0469 287.2344,38.0781 L287.2344,39.1719 Q287.2344,40.4063 288.125,41.2266 Q289.0156,42.0469 290.6094,42.0469 Q291.5469,42.0469 292.2031,41.7969 Q292.5938,41.6406 293.0156,41.2031 Q293.2813,40.9375 293.4297,40.8594 Q293.5781,40.7813 293.7813,40.7813 Q294.1094,40.7813 294.3672,41.0391 Q294.625,41.2969 294.625,41.6406 Q294.625,41.9844 294.2813,42.3906 Q293.7813,42.9688 292.9844,43.2969 Q291.9063,43.75 290.6094,43.75 Q289.0938,43.75 287.8906,43.125 Q286.9063,42.625 286.2188,41.5547 Q285.5313,40.4844 285.5313,39.2031 L285.5313,38.0469 Q285.5313,36.7188 286.1484,35.5703 Q286.7656,34.4219 287.8594,33.8047 Q288.9531,33.1875 290.1875,33.1875 Q290.9219,33.1875 291.5703,33.3516 Q292.2188,33.5156 292.7656,33.875 Z "/><text fill="#000000" font-family="sans-serif" font-size="12" lengthAdjust="spacingAndGlyphs" textLength="54" x="304" y="42.9102">EvilServer</text><line style="stroke: #A80036; stroke-width: 1.5;" x1="276" x2="360" y1="54" y2="54"/><line style="stroke: #A80036; stroke-width: 1.5;" x1="276" x2="360" y1="62" y2="62"/><!--link Account to Owner--><path d="M135.139,393.5682 C120.836,411.0861 106.104,429.1297 94.9212,442.8259 " fill="none" id="Account-Owner" style="stroke: #A80036; stroke-width: 1.0;"/><polygon fill="#A80036" points="143.481,383.351,136.5878,385.4686,135.8913,392.6459,142.7845,390.5284,143.481,383.351" style="stroke: #A80036; stroke-width: 1.0;"/><!--link Account to Currency--><path d="M238.063,393.5682 C253.285,411.0861 268.963,429.1297 280.864,442.8259 " fill="none" id="Account-Currency" style="stroke: #A80036; stroke-width: 1.0;"/><polygon fill="#A80036" points="229.186,383.351,230.1022,390.5037,237.057,392.409,236.1408,385.2563,229.186,383.351" style="stroke: #A80036; stroke-width: 1.0;"/><!--link Account to Payment--><path d="M185,396.5192 C185,413.096 185,429.8977 185,442.8259 " fill="none" id="Account-Payment" style="stroke: #A80036; stroke-width: 1.0;"/><polygon fill="#FFFFFF" points="185,383.351,181,389.351,185,395.351,189,389.351,185,383.351" style="stroke: #A80036; stroke-width: 1.0;"/><!--link TotalAccountInformationService to Account--><path d="M127.43,220.22 C136.137,236.9 146.586,256.914 156.177,275.287 " fill="none" id="TotalAccountInformationService-Account" style="stroke: #A80036; stroke-width: 1.0;"/><polygon fill="#A80036" points="158.595,279.919,157.9756,270.0896,156.281,275.4867,150.8839,273.792,158.595,279.919" style="stroke: #A80036; stroke-width: 1.0;"/><!--link EvilArray to TotalAccountInformationService--><path d="M163.551,84.326 C153.706,101.46 141.996,121.838 131.872,139.457 " fill="none" id="EvilArray-TotalAccountInformationService" style="stroke: #A80036; stroke-width: 1.0; stroke-dasharray: 7.0,7.0;"/><polygon fill="#A80036" points="129.334,143.874,137.2856,138.0627,131.8247,139.5385,130.3489,134.0776,129.334,143.874" style="stroke: #A80036; stroke-width: 1.0;"/><!--link EvilArray to Account--><path d="M205.771,84.002 C214.489,101.596 223.612,123.275 228,144 C234.996,177.045 234.232,186.802 228,220 C224.529,238.493 218.054,257.868 211.164,275.137 " fill="none" id="EvilArray-Account" style="stroke: #A80036; stroke-width: 1.0; stroke-dasharray: 7.0,7.0;"/><polygon fill="#A80036" points="209.211,279.949,216.3009,273.1128,211.0906,275.3157,208.8876,270.1055,209.211,279.949" style="stroke: #A80036; stroke-width: 1.0;"/><!--link EvilArray to EvilServer--><path d="M239.551,46 C249.554,46 259.557,46 269.561,46 " fill="none" id="EvilArray-EvilServer" style="stroke: #A80036; stroke-width: 1.0;"/><polygon fill="#A80036" points="274.792,46,265.792,42,269.792,46,265.792,50,274.792,46" style="stroke: #A80036; stroke-width: 1.0;"/><!--
@startuml
class TotalAccountInformationService {
    {field} - Account[] accounts
    {method} + getTotalAmountOfMoney(): Currency
}

class Account {
    {field} - Owner owner
    {field} - Payment[] payments
    {field} - Currency money
    {method} + getMoney(): Currency
}
class Owner {
}
class Payment {
}
class Currency {
}
Account *- - Owner
Account *- - Currency
Account o- - Payment
TotalAccountInformationService - -> Account

class EvilArray {
    {field} - Array innerArray
    {method} + forEach
}

EvilArray ..> TotalAccountInformationService
EvilArray ..> Account

EvilArray -right-> EvilServer
@enduml

PlantUML version 1.2017.20(Mon Dec 11 17:57:05 CET 2017)
(GPL source distribution)
Java Runtime: Java(TM) SE Runtime Environment
JVM: Java HotSpot(TM) 64-Bit Server VM
Java Version: 1.8.0_172-b11
Operating System: Windows 10
OS Version: 10.0
Default Encoding: Cp1252
Language: de
Country: DE
--></g></svg>